<?xml version="1.0" encoding="utf-8"?>
<!-- Generator: Adobe Illustrator 24.1.0, SVG Export Plug-In . SVG Version: 6.00 Build 0)  -->
<svg version="1.1" id="Layer_1" xmlns="http://www.w3.org/2000/svg" xmlns:xlink="http://www.w3.org/1999/xlink" x="0px" y="0px"
	 width="690px" height="460px" viewBox="0 0 690 460" style="enable-background:new 0 0 690 460;" xml:space="preserve">
<style type="text/css">
	.st0{opacity:0.5;fill:#FFFFFF;}
	.st1{fill:#FFFFFF;}
	.st2{fill:#5E1AD5;}
	.st3{fill:none;}
	.st4{opacity:0.2;}
	.st5{fill:#000062;}
	.st6{fill:#F0F0F6;}
</style>
<path id="Rectangle_1134" class="st0" d="M202.3,76.7h285.4c3.2,0,5.7,2.6,5.7,5.7v285.4c0,3.2-2.6,5.7-5.7,5.7H202.3
	c-3.2,0-5.7-2.6-5.7-5.7V82.4C196.6,79.2,199.1,76.7,202.3,76.7z"/>
<g transform="matrix(1, 0, 0, 1, 0, 0)">
	<path id="Rectangle_1122-2" class="st1" d="M270.8,145.2h148.4c3.2,0,5.7,2.6,5.7,5.7v239.7c0,3.2-2.6,5.7-5.7,5.7H270.8
		c-3.2,0-5.7-2.6-5.7-5.7V150.9C265.1,147.7,267.6,145.2,270.8,145.2z"/>
</g>
<rect id="Rectangle_1123" x="310.8" y="175.1" class="st2" width="68.5" height="68.5"/>
<g id="Group_1874" transform="translate(1891.325 -1578.322)">
	<rect id="Rectangle_1568" x="-1580.6" y="1752" class="st3" width="68.5" height="68.5"/>
	<g id="Group_1122">
		<path id="Path_327" class="st1" d="M-1530.4,1775.8l-4-4l-11.9,11.9l-18-18l-4,4l18,18l-18,18l4,4l18-18l18,18l4-4l-18-18
			L-1530.4,1775.8z"/>
		
			<rect id="Rectangle_1569" x="-1531.2" y="1766.9" transform="matrix(0.7071 -0.7071 0.7071 0.7071 -1699.0677 -562.3607)" class="st1" width="5.7" height="5.7"/>
	</g>
</g>
<g class="st4">
	<path class="st5" d="M332,284.9v5.6h-2.9v4.1h-7.6v-4.1h-11l-1-5.9l10.9-13.8h8.8v14.1H332z M321.5,284.9v-5.4l-4,5.4H321.5z"/>
	<path class="st5" d="M345.2,295c-7,0-11.3-4.7-11.3-12.3c0-7.5,4.3-12.3,11.3-12.3s11.3,4.7,11.3,12.3
		C356.5,290.3,352.1,295,345.2,295z M345.2,288.2c2.2,0,3.5-2.1,3.5-5.4s-1.3-5.4-3.5-5.4c-2.1,0-3.5,2.1-3.5,5.4
		S343,288.2,345.2,288.2z"/>
	<path class="st5" d="M368.7,295c-3.6,0-7-1.3-10.4-3.7l4.7-4.8c1.4,1.2,3.5,2.1,5.1,2.1c1.6,0,2.7-0.8,2.7-2.1
		c0-1.2-0.9-1.8-2.7-1.8c-0.7,0-1.9,0.1-3.6,0.5l-1.2-4l5.2-4.1h-8.4v-6.2h17.8v5.4l-5,4c1.6,0.3,3,1.1,4,2.4
		c1.1,1.3,1.6,2.8,1.6,4.5C378.5,291.8,374.6,295,368.7,295z"/>
</g>
<g>
	<rect id="Rectangle_1130" x="310" y="347" class="st6" width="35" height="8.8"/>
	<rect id="Rectangle_1135" x="310" y="311.9" class="st6" width="17.5" height="8.8"/>
	<rect id="Rectangle_1131" x="310" y="364.5" class="st6" width="70.1" height="8.8"/>
	<rect id="Rectangle_1136" x="310" y="329.4" class="st6" width="70.1" height="8.8"/>
	<rect id="Rectangle_1148" x="336.2" y="311.9" class="st6" width="8.8" height="8.8"/>
</g>
</svg>
