<?xml version="1.0" encoding="utf-8"?>
<!-- Generator: Adobe Illustrator 24.1.0, SVG Export Plug-In . SVG Version: 6.00 Build 0)  -->
<svg version="1.1" id="Layer_1" xmlns="http://www.w3.org/2000/svg" xmlns:xlink="http://www.w3.org/1999/xlink" x="0px" y="0px"
	 width="690px" height="460px" viewBox="0 0 690 460" style="enable-background:new 0 0 690 460;" xml:space="preserve">
<style type="text/css">
	.st0{opacity:0.5;fill:#FFFFFF;}
	.st1{fill:#FFFFFF;}
	.st2{fill:#5E1AD5;}
	.st3{fill:none;}
	.st4{opacity:0.2;}
	.st5{fill:#000062;}
	.st6{fill:#F0F0F6;}
</style>
<path id="Rectangle_1134" class="st0" d="M202.3,70.7h285.4c3.2,0,5.7,2.6,5.7,5.7v285.4c0,3.2-2.6,5.7-5.7,5.7H202.3
	c-3.2,0-5.7-2.6-5.7-5.7V76.4C196.6,73.2,199.1,70.7,202.3,70.7z"/>
<g transform="matrix(1, 0, 0, 1, 0, 0)">
	<path id="Rectangle_1122-2" class="st1" d="M270.8,139.2h148.4c3.2,0,5.7,2.6,5.7,5.7v239.7c0,3.2-2.6,5.7-5.7,5.7H270.8
		c-3.2,0-5.7-2.6-5.7-5.7V144.9C265.1,141.7,267.6,139.2,270.8,139.2z"/>
</g>
<rect id="Rectangle_1123" x="310.8" y="169.1" class="st2" width="68.5" height="68.5"/>
<g id="Group_1874" transform="translate(1891.325 -1578.322)">
	<rect id="Rectangle_1568" x="-1580.6" y="1746" class="st3" width="68.5" height="68.5"/>
	<g id="Group_1122">
		<path id="Path_327" class="st1" d="M-1530.4,1769.8l-4-4l-11.9,11.9l-18-18l-4,4l18,18l-18,18l4,4l18-18l18,18l4-4l-18-18
			L-1530.4,1769.8z"/>
		
			<rect id="Rectangle_1569" x="-1531.2" y="1760.9" transform="matrix(0.7071 -0.7071 0.7071 0.7071 -1694.8252 -564.1181)" class="st1" width="5.7" height="5.7"/>
	</g>
</g>
<g class="st4">
	<path class="st5" d="M330.3,278.9v5.6h-2.9v4.1h-7.6v-4.1h-11l-1-5.9l10.9-13.8h8.8v14.1H330.3z M319.9,278.9v-5.4l-4,5.4H319.9z"
		/>
	<path class="st5" d="M343.5,289c-7,0-11.3-4.7-11.3-12.3c0-7.5,4.3-12.3,11.3-12.3s11.3,4.7,11.3,12.3
		C354.8,284.3,350.4,289,343.5,289z M343.5,282.2c2.2,0,3.5-2.1,3.5-5.4s-1.3-5.4-3.5-5.4c-2.1,0-3.5,2.1-3.5,5.4
		S341.3,282.2,343.5,282.2z"/>
	<path class="st5" d="M379,278.9v5.6h-2.9v4.1h-7.6v-4.1h-11l-1-5.9l10.9-13.8h8.8v14.1H379z M368.6,278.9v-5.4l-4,5.4H368.6z"/>
</g>
<g>
	<rect id="Rectangle_1130" x="310" y="341" class="st6" width="35" height="8.8"/>
	<rect id="Rectangle_1135" x="310" y="305.9" class="st6" width="17.5" height="8.8"/>
	<rect id="Rectangle_1131" x="310" y="358.5" class="st6" width="70.1" height="8.8"/>
	<rect id="Rectangle_1136" x="310" y="323.4" class="st6" width="70.1" height="8.8"/>
	<rect id="Rectangle_1148" x="336.2" y="305.9" class="st6" width="8.8" height="8.8"/>
</g>
</svg>
