<?xml version="1.0" encoding="utf-8"?>
<!-- Generator: Adobe Illustrator 24.1.0, SVG Export Plug-In . SVG Version: 6.00 Build 0)  -->
<svg version="1.1" id="Layer_1" xmlns="http://www.w3.org/2000/svg" xmlns:xlink="http://www.w3.org/1999/xlink" x="0px" y="0px"
	 width="690px" height="460px" viewBox="0 0 690 460" style="enable-background:new 0 0 690 460;" xml:space="preserve">
<style type="text/css">
	.st0{opacity:0.5;fill:#FFFFFF;}
	.st1{fill:#FFFFFF;}
	.st2{fill:#5E1AD5;}
	.st3{fill:none;}
	.st4{opacity:0.2;}
	.st5{fill:#000062;}
	.st6{fill:#F0F0F6;}
</style>
<path id="Rectangle_1134" class="st0" d="M202.3,70.7h285.4c3.2,0,5.7,2.6,5.7,5.7v285.4c0,3.2-2.6,5.7-5.7,5.7H202.3
	c-3.2,0-5.7-2.6-5.7-5.7V76.4C196.6,73.2,199.1,70.7,202.3,70.7z"/>
<g transform="matrix(1, 0, 0, 1, 0, 0)">
	<path id="Rectangle_1122-2" class="st1" d="M270.8,139.2h148.4c3.2,0,5.7,2.6,5.7,5.7v239.7c0,3.2-2.6,5.7-5.7,5.7H270.8
		c-3.2,0-5.7-2.6-5.7-5.7V144.9C265.1,141.7,267.6,139.2,270.8,139.2z"/>
</g>
<rect id="Rectangle_1123" x="310.8" y="169.1" class="st2" width="68.5" height="68.5"/>
<g id="Group_1874" transform="translate(1891.325 -1578.322)">
	<rect id="Rectangle_1568" x="-1580.6" y="1746" class="st3" width="68.5" height="68.5"/>
	<g id="Group_1122">
		<path id="Path_327" class="st1" d="M-1530.4,1769.8l-4-4l-11.9,11.9l-18-18l-4,4l18,18l-18,18l4,4l18-18l18,18l4-4l-18-18
			L-1530.4,1769.8z"/>
		
			<rect id="Rectangle_1569" x="-1531.2" y="1760.9" transform="matrix(0.7071 -0.7071 0.7071 0.7071 -1694.8252 -564.1181)" class="st1" width="5.7" height="5.7"/>
	</g>
</g>
<g class="st4">
	<path class="st5" d="M320.4,284c-3.9,0-7.6-1.4-10.3-4l3.7-4.6c1.7,1.3,4.1,2.2,5.9,2.2s2.9-0.9,2.9-2.3s-1.1-2.3-2.8-2.3
		c-1.3,0-2.7,0.5-3.6,1.5l-4.6-2.4l0.7-12.3h16.9v6.2h-10.5l-0.1,2.5c1.1-0.2,2.2-0.4,3.3-0.4c5.3,0,8.4,2.8,8.4,7.5
		C330.2,280.7,326.4,284,320.4,284z"/>
	<path class="st5" d="M343.3,284c-7,0-11.3-4.7-11.3-12.3c0-7.5,4.3-12.3,11.3-12.3s11.3,4.7,11.3,12.3
		C354.6,279.3,350.3,284,343.3,284z M343.3,277.2c2.2,0,3.5-2.1,3.5-5.4s-1.3-5.4-3.5-5.4c-2.1,0-3.5,2.1-3.5,5.4
		S341.2,277.2,343.3,277.2z"/>
	<path class="st5" d="M368.3,284c-7,0-11.3-4.7-11.3-12.3c0-7.5,4.3-12.3,11.3-12.3s11.3,4.7,11.3,12.3
		C379.7,279.3,375.3,284,368.3,284z M368.3,277.2c2.2,0,3.5-2.1,3.5-5.4s-1.3-5.4-3.5-5.4c-2.1,0-3.5,2.1-3.5,5.4
		S366.2,277.2,368.3,277.2z"/>
</g>
<g>
	<rect id="Rectangle_1135" x="310" y="300.9" class="st6" width="17.5" height="8.8"/>
	<rect id="Rectangle_1148" x="336.2" y="300.9" class="st6" width="8.8" height="8.8"/>
</g>
<g class="st4">
	<path class="st5" d="M319,343.6c-1.2-0.6-2.7-1-3.8-1c-1,0-1.6,0.4-1.6,1.1c0,0.5,0.2,0.7,1.8,1.1l1.1,0.3c2.5,0.7,3.8,1.3,3.8,3.4
		c0,2.3-1.8,3.5-4.7,3.5c-1.9,0-3.8-0.5-5.2-1.5l1.2-1.9c1.3,0.8,3,1.2,4.3,1.2c1.1,0,1.8-0.4,1.8-1.2c0-0.6-0.3-0.8-1.8-1.1
		l-1.2-0.3c-2.6-0.6-3.8-1.3-3.8-3.3c0-1.1,0.4-2,1.3-2.6s2-0.9,3.3-0.9c1.7,0,3.4,0.4,4.7,1.2L319,343.6z"/>
	<path class="st5" d="M331.3,342.8h-6.4v2.2h5.9v2.2h-5.9v2.3h6.5v2.3h-9.1v-11.2h8.9V342.8z"/>
	<path class="st5" d="M340.7,351.7l-2.3-3.6H336v3.6h-2.5v-11.2h5c3.5,0,5,1.1,5,3.7c0,1.8-0.7,3-2.3,3.5l2.6,3.9H340.7z M336,346
		h2.5c1.6,0,2.2-0.5,2.2-1.6c0-1.2-0.6-1.7-2.2-1.7H336V346z"/>
	<path class="st5" d="M356.8,340.5l-4.4,11.2H349l-4.4-11.2h3l3.1,8.5l3.1-8.5H356.8z"/>
	<path class="st5" d="M367.5,342.8h-6.4v2.2h5.9v2.2h-5.9v2.3h6.5v2.3h-9.1v-11.2h8.9V342.8z"/>
	<path class="st5" d="M376.9,351.7l-2.3-3.6h-2.4v3.6h-2.5v-11.2h5c3.5,0,5,1.1,5,3.7c0,1.8-0.7,3-2.3,3.5l2.6,3.9H376.9z
		 M372.1,346h2.5c1.6,0,2.2-0.5,2.2-1.6c0-1.2-0.6-1.7-2.2-1.7h-2.5V346z"/>
	<path class="st5" d="M324.8,362h-6.4v2.2h5.9v2.2h-5.9v2.3h6.5v2.3h-9.1v-11.2h8.9V362z"/>
	<path class="st5" d="M334.2,370.9l-2.3-3.6h-2.4v3.6h-2.5v-11.2h5c3.5,0,5,1.1,5,3.7c0,1.8-0.7,3-2.3,3.5l2.6,3.9H334.2z
		 M329.4,365.2h2.5c1.6,0,2.2-0.5,2.2-1.6c0-1.2-0.6-1.7-2.2-1.7h-2.5V365.2z"/>
	<path class="st5" d="M346.2,370.9l-2.3-3.6h-2.4v3.6h-2.5v-11.2h5c3.5,0,5,1.1,5,3.7c0,1.8-0.7,3-2.3,3.5l2.6,3.9H346.2z
		 M341.4,365.2h2.5c1.6,0,2.2-0.5,2.2-1.6c0-1.2-0.6-1.7-2.2-1.7h-2.5V365.2z"/>
	<path class="st5" d="M356.6,371.1c-3.2,0.1-6-2.7-6-5.8c-0.1-3.1,2.7-5.8,6-5.8c3.2-0.1,6,2.7,6,5.8
		C362.6,368.4,359.8,371.1,356.6,371.1z M356.6,368.7c1.9,0,3.3-1.5,3.3-3.4c0-1.9-1.4-3.4-3.3-3.4c-1.9,0-3.3,1.5-3.3,3.4
		C353.2,367.2,354.6,368.7,356.6,368.7z"/>
	<path class="st5" d="M372.1,370.9l-2.3-3.6h-2.4v3.6h-2.5v-11.2h5c3.5,0,5,1.1,5,3.7c0,1.8-0.7,3-2.3,3.5l2.6,3.9H372.1z
		 M367.4,365.2h2.5c1.6,0,2.2-0.5,2.2-1.6c0-1.2-0.6-1.7-2.2-1.7h-2.5V365.2z"/>
</g>
<rect id="Rectangle_1136" x="310" y="318.4" class="st6" width="70.1" height="8.8"/>
</svg>
