<?xml version="1.0" encoding="utf-8"?>
<!-- Generator: Adobe Illustrator 24.1.0, SVG Export Plug-In . SVG Version: 6.00 Build 0)  -->
<svg version="1.1" id="Layer_1" xmlns="http://www.w3.org/2000/svg" xmlns:xlink="http://www.w3.org/1999/xlink" x="0px" y="0px"
	 width="690px" height="460px" viewBox="0 0 690 460" style="enable-background:new 0 0 690 460;" xml:space="preserve">
<style type="text/css">
	.st0{fill:#F9F8F8;}
	.st1{fill:#F2F2F2;}
	.st2{fill:#ECECEC;}
	.st3{fill:#E4E4E4;}
	.st4{fill:#EAEAEA;}
	.st5{fill:#4656A1;}
	.st6{fill:#38488C;}
	.st7{fill:#232851;}
	.st8{fill:#2B3872;}
	.st9{fill:#FFFFFF;}
	.st10{fill:#242850;}
</style>
<g>
	<g>
		<path class="st0" d="M681.5,348.5h-71.9c5.3-21.4,8-43.8,8-66.9c0-45.8-11-89.1-30.5-127.2h51c2.9,0,5.3-2.4,5.3-5.3v0
			c0-2.9-2.4-5.3-5.3-5.3h-56.7C533.3,58.8,442.2,1.5,337.6,1.5c-69.6,0-133.2,25.4-182.2,67.3H69.1c-2.9,0-5.3,2.4-5.3,5.3v0
			c0,2.9,2.4,5.3,5.3,5.3h74.5c-6,5.7-11.7,11.7-17.1,17.9H8.5c-2.9,0-5.3,2.4-5.3,5.3v0c0,2.9,2.4,5.3,5.3,5.3h109.3
			C80,155.7,57.5,216,57.5,281.6c0,36.7,7.1,71.8,19.9,103.9h-14c-2.9,0-5.3,2.4-5.3,5.3l0,0c0,2.9,2.4,5.3,5.3,5.3h18.5
			c1.9,4.3,4,8.6,6.1,12.7H25.2c-2.9,0-5.3,2.4-5.3,5.3l0,0c0,2.9,2.4,5.3,5.3,5.3h68.5c6.5,11.6,13.9,22.6,22,33.1h443.9
			c15.1-19.5,27.6-41.1,37.2-64.3h52.1c2.9,0,5.3-2.4,5.3-5.3l0,0c0-2.9-2.4-5.3-5.3-5.3h-48c2.2-6.1,4.2-12.2,6-18.5h74.7
			c2.9,0,5.3-2.4,5.3-5.3l0,0C686.8,350.8,684.5,348.5,681.5,348.5z"/>
		<g>
			<g>
				<path class="st1" d="M455.3,452.5h-33.9l0,0c0-2.4,2-4.4,4.4-4.4h25.1C453.3,448.1,455.3,450,455.3,452.5L455.3,452.5z"/>
				<polygon class="st1" points="447.3,448.1 429.4,448.1 435.2,282.6 439.1,285.2 				"/>
				<g>
					<path class="st1" d="M452.8,452.5h-33.9l0,0c0-2.4,2-4.4,4.4-4.4h25.1C450.8,448.1,452.8,450,452.8,452.5L452.8,452.5z"/>
					<g>
						<g>
							<path class="st1" d="M435.8,284.1l85.4,49.3l-0.9-4.9c-0.2-1-0.7-1.8-1.5-2.4L463,283c-1-0.8-2.4-1-3.6-0.7l-11.2,3.3
								c-1.1,0.3-2.2,0.2-3.1-0.4l-7.4-4.3L435.8,284.1z"/>
							<path class="st1" d="M434,281l-85.4,49.3l4.7,1.6c0.9,0.3,1.9,0.3,2.8-0.1l65.3-26.7c1.2-0.5,2.1-1.5,2.4-2.8l2.7-11.3
								c0.3-1.1,0.9-2,1.9-2.6l7.4-4.3L434,281z"/>
							<path class="st1" d="M437.6,281v-98.6l-3.7,3.2c-0.7,0.6-1.2,1.5-1.4,2.5L423,258c-0.2,1.3,0.3,2.6,1.2,3.5l8.5,8
								c0.8,0.8,1.3,1.8,1.3,2.9v8.6H437.6z"/>
							<polygon class="st1" points="444,448.1 427.6,448.1 433.4,282.6 438.2,282.6 							"/>
							
								<ellipse transform="matrix(0.2298 -0.9732 0.9732 0.2298 60.5918 641.8535)" class="st1" cx="435.8" cy="282.6" rx="4.2" ry="4.2"/>
						</g>
					</g>
				</g>
				<circle class="st1" cx="435.5" cy="282.4" r="3.8"/>
				<polygon class="st1" points="350.1,330.8 431.7,282.4 431.6,282.3 348.6,330.3 				"/>
				<rect x="427.6" y="447" class="st1" width="16.4" height="1.1"/>
				<polygon class="st1" points="436.4,183.4 437.5,278.9 437.6,278.9 437.6,182.4 				"/>
				<polygon class="st1" points="520.9,331.8 438.2,285.4 438.2,285.5 521.2,333.4 				"/>
			</g>
			<g>
				<path class="st2" d="M566.8,452.5h-54.3l0,0c0-3.9,3.2-7.1,7.1-7.1h40.1C563.6,445.4,566.8,448.6,566.8,452.5L566.8,452.5z"/>
				<polygon class="st2" points="553.9,445.4 525.3,445.4 534.6,180.6 540.9,184.7 				"/>
				<g>
					<path class="st1" d="M562.7,452.5h-54.3l0,0c0-3.9,3.2-7.1,7.1-7.1h40.1C559.6,445.4,562.7,448.6,562.7,452.5L562.7,452.5z"/>
					<g>
						<g>
							<path class="st1" d="M535.6,182.9l136.7,78.9l-1.7-8.7c-0.2-1-0.7-1.8-1.5-2.4l-91-70.4c-1-0.8-2.4-1-3.6-0.7l-20.1,6
								c-1.1,0.3-2.2,0.2-3.2-0.4l-12.8-7.4L535.6,182.9z"/>
							<path class="st1" d="M532.7,177.9L396,256.8l8.3,2.9c0.9,0.3,1.9,0.3,2.8-0.1l108.4-44.4l5.7-24.1l14.3-8.3L532.7,177.9z"/>
							<path class="st1" d="M538.5,177.9V20l-6.7,5.8c-0.7,0.6-1.2,1.5-1.4,2.5l-15.5,114c-0.2,1.3,0.3,2.6,1.2,3.5l15.2,14.4
								c0.8,0.8,1.3,1.8,1.3,2.9v14.8H538.5z"/>
							<polygon class="st1" points="548.7,445.4 522.5,445.4 531.7,180.6 539.4,180.6 							"/>
							
								<ellipse transform="matrix(0.3827 -0.9239 0.9239 0.3827 163.7916 606.2783)" class="st2" cx="535.6" cy="180.6" rx="6.7" ry="6.7"/>
						</g>
					</g>
				</g>
				
					<ellipse transform="matrix(0.3827 -0.9239 0.9239 0.3827 163.8742 605.6115)" class="st1" cx="535.1" cy="180.2" rx="6.1" ry="6.1"/>
				<polygon class="st2" points="398.4,257.7 529,180.2 528.9,180.1 396,256.8 				"/>
				<rect x="522.5" y="443.7" class="st2" width="26.2" height="1.7"/>
				<polygon class="st2" points="536.5,21.7 538.3,174.6 538.5,174.6 538.5,20 				"/>
				<polygon class="st2" points="671.8,259.3 539.4,185 539.4,185.1 672.3,261.8 				"/>
			</g>
		</g>
		<g>
			<g>
				<path class="st1" d="M131.7,324.3L131.7,324.3c-17.5,0-31.8-14.3-31.8-31.8v-73.2c0-17.5,14.3-31.8,31.8-31.8h0
					c17.5,0,31.8,14.3,31.8,31.8v73.2C163.5,310,149.2,324.3,131.7,324.3z"/>
				<path class="st3" d="M133.4,452.6h-3.5V238.3c0-1,0.8-1.7,1.7-1.7l0,0c1,0,1.7,0.8,1.7,1.7V452.6z"/>
				<path class="st3" d="M133.4,267.4l-9.6-16.7c-0.5-0.8-1.5-1.1-2.4-0.6c-0.8,0.5-1.1,1.5-0.6,2.4l9.6,16.7L133.4,267.4z"/>
				<path class="st3" d="M132.9,287.4l9.6-16.7c0.5-0.8,0.2-1.9-0.6-2.4c-0.8-0.5-1.9-0.2-2.4,0.6l-9.6,16.7L132.9,287.4z"/>
			</g>
			<g>
				<path class="st1" d="M212.9,289.4L212.9,289.4c-22.2,0-40.4-18.2-40.4-40.4v-93c0-22.2,18.2-40.4,40.4-40.4h0
					c22.2,0,40.4,18.2,40.4,40.4v93C253.3,271.3,235.1,289.4,212.9,289.4z"/>
				<path class="st3" d="M215.1,452.5h-4.4V180.3c0-1.2,1-2.2,2.2-2.2l0,0c1.2,0,2.2,1,2.2,2.2V452.5z"/>
				<path class="st3" d="M215.1,217.2L202.8,196c-0.6-1.1-2-1.4-3-0.8c-1.1,0.6-1.4,2-0.8,3l12.3,21.2L215.1,217.2z"/>
				<path class="st3" d="M214.5,242.6l12.3-21.2c0.6-1.1,0.2-2.4-0.8-3c-1.1-0.6-2.4-0.2-3,0.8l-12.3,21.2L214.5,242.6z"/>
			</g>
		</g>
		<g>
			<g>
				<g>
					<path class="st3" d="M151.3,440.6c1.9-1.7,2.7-3.7,2-5.1c-0.9-1.7-3.9-2-7.2-0.8c0.2-0.4,0.3-0.9,0.5-1.3
						c1.7-5.5,0.7-10.7-2.2-11.6c-2.9-0.9-6.5,2.6-8.3,7.9c-1.5-6-5.3-10.3-8.5-9.5c-3.1,0.7-4.5,5.6-3.6,11.3
						c-4.5-2-8.8-1.8-10.2,0.6c-1.4,2.5,0.8,6.5,5,9.4c-2,0.7-3.4,1.9-3.6,3.4c-0.2,1.9,1.4,3.8,4,4.9c-0.1,0.4-0.2,0.7-0.1,1.1
						c0.3,1.1,1.7,1.8,3.6,1.9v0h0.3c0,0,0,0,0,0h23.9v0c0.5-0.1,0.8-0.3,0.9-0.6c0.1-0.2,0-0.4-0.1-0.7c1.3-0.1,2.2-0.6,2.5-1.4
						c0.2-0.6,0.1-1.4-0.4-2.1c3.3-0.2,5.8-1.6,5.8-3.5C155.7,442.8,153.9,441.3,151.3,440.6z"/>
				</g>
				<g>
					<path class="st1" d="M201.5,430.5c3.4-3.2,5-6.9,3.6-9.4c-1.7-3.2-7.2-3.7-13.2-1.4c0.3-0.8,0.6-1.6,0.8-2.4
						c3.2-10.1,1.4-19.7-4-21.4c-5.3-1.6-12,4.8-15.3,14.5c-2.7-11.1-9.7-18.9-15.6-17.5c-5.6,1.3-8.4,10.4-6.6,20.7
						c-8.2-3.6-16.2-3.3-18.7,1c-2.6,4.5,1.5,11.9,9.2,17.3c-3.7,1.2-6.2,3.5-6.6,6.3c-0.4,3.5,2.6,6.9,7.3,9
						c-0.3,0.7-0.3,1.4-0.2,2c0.5,2.1,3.1,3.4,6.6,3.5v0h0.5c0,0,0,0,0,0h43.9v0c0.9-0.1,1.5-0.5,1.7-1.1c0.1-0.4,0.1-0.8-0.1-1.3
						c2.3-0.2,4-1.1,4.6-2.7c0.4-1.2,0.1-2.6-0.8-3.9c6-0.4,10.6-3,10.8-6.4C209.7,434.4,206.4,431.7,201.5,430.5z"/>
				</g>
			</g>
			<g>
				<path class="st4" d="M500.2,432.8c-3-2.9-4.4-6.1-3.2-8.4c1.5-2.8,6.4-3.3,11.7-1.3c-0.3-0.7-0.5-1.4-0.8-2.1
					c-2.8-9-1.2-17.5,3.6-19c4.7-1.5,10.7,4.3,13.6,12.9c2.4-9.9,8.6-16.9,13.9-15.6c5,1.2,7.4,9.2,5.8,18.4
					c7.3-3.2,14.4-3,16.6,0.9c2.3,4-1.3,10.6-8.2,15.4c3.3,1.1,5.5,3.1,5.8,5.6c0.4,3.1-2.3,6.1-6.5,8c0.2,0.6,0.3,1.2,0.2,1.8
					c-0.4,1.9-2.8,3-5.9,3.1v0h-0.5c0,0,0,0,0,0h-39.1v0c-0.8-0.1-1.3-0.4-1.5-0.9c-0.1-0.3-0.1-0.7,0.1-1.1c-2.1-0.2-3.6-1-4.1-2.4
					c-0.4-1.1-0.1-2.3,0.7-3.5c-5.3-0.4-9.4-2.7-9.6-5.7C492.9,436.3,495.9,433.9,500.2,432.8z"/>
			</g>
			<g>
				<path class="st3" d="M545.3,444.6c-1.2-1.2-1.8-2.5-1.3-3.4c0.6-1.1,2.6-1.3,4.7-0.5c-0.1-0.3-0.2-0.6-0.3-0.9
					c-1.1-3.6-0.5-7.1,1.5-7.7c1.9-0.6,4.3,1.7,5.5,5.2c1-4,3.5-6.8,5.6-6.3c2,0.5,3,3.7,2.4,7.5c3-1.3,5.8-1.2,6.7,0.4
					c0.9,1.6-0.5,4.3-3.3,6.2c1.3,0.4,2.2,1.3,2.4,2.3c0.2,1.3-0.9,2.5-2.6,3.2c0.1,0.2,0.1,0.5,0.1,0.7c-0.2,0.8-1.1,1.2-2.4,1.3v0
					H564c0,0,0,0,0,0h-15.8v0c-0.3,0-0.5-0.2-0.6-0.4c-0.1-0.1,0-0.3,0.1-0.5c-0.8-0.1-1.5-0.4-1.7-1c-0.2-0.4,0-0.9,0.3-1.4
					c-2.2-0.1-3.8-1.1-3.9-2.3C542.4,446,543.6,445,545.3,444.6z"/>
			</g>
			<g>
				<path class="st1" d="M353,433.9c-2.9-2.7-4.2-5.8-3-7.9c1.4-2.7,6.1-3.1,11.1-1.2c-0.3-0.6-0.5-1.3-0.7-2
					c-2.7-8.5-1.1-16.5,3.4-17.9c4.4-1.4,10.1,4,12.8,12.2c2.3-9.3,8.1-15.9,13.1-14.7c4.7,1.1,7,8.7,5.5,17.4
					c6.9-3,13.6-2.8,15.7,0.9c2.2,3.8-1.2,10-7.7,14.5c3.1,1,5.2,2.9,5.5,5.3c0.4,2.9-2.1,5.8-6.1,7.6c0.2,0.6,0.3,1.1,0.1,1.7
					c-0.4,1.8-2.6,2.8-5.6,3v0h-0.4c0,0,0,0,0,0h-36.8v0c-0.7-0.1-1.3-0.4-1.4-0.9c-0.1-0.3-0.1-0.7,0.1-1.1c-1.9-0.2-3.4-1-3.9-2.2
					c-0.4-1-0.1-2.1,0.7-3.3c-5-0.3-8.9-2.5-9-5.4C346.1,437.2,348.9,434.9,353,433.9z"/>
			</g>
			<g>
				<path class="st3" d="M394.4,442c-1.6-1.5-2.4-3.3-1.7-4.5c0.8-1.5,3.4-1.7,6.3-0.7c-0.1-0.4-0.3-0.7-0.4-1.1
					c-1.5-4.8-0.6-9.4,1.9-10.2c2.5-0.8,5.7,2.3,7.3,6.9c1.3-5.3,4.6-9,7.4-8.3c2.7,0.6,4,4.9,3.1,9.8c3.9-1.7,7.7-1.6,8.9,0.5
					c1.2,2.2-0.7,5.7-4.4,8.2c1.8,0.6,3,1.7,3.1,3c0.2,1.7-1.2,3.3-3.5,4.3c0.1,0.3,0.2,0.6,0.1,1c-0.2,1-1.5,1.6-3.1,1.7v0h-0.2
					c0,0,0,0,0,0h-20.9v0c-0.4-0.1-0.7-0.2-0.8-0.5c-0.1-0.2,0-0.4,0.1-0.6c-1.1-0.1-1.9-0.5-2.2-1.3c-0.2-0.6-0.1-1.2,0.4-1.9
					c-2.9-0.2-5-1.4-5.1-3C390.5,443.9,392.1,442.6,394.4,442z"/>
			</g>
		</g>
		<g>
			<path class="st1" d="M415.4,190.6c-0.3,0-0.5,0-0.7,0.1c0-0.1,0-0.2,0-0.4c0-2.9-2.4-5.3-5.3-5.3c-2.4,0-4.4,1.6-5.1,3.8
				c-0.3-0.1-0.6-0.1-0.9-0.1c-1.9,0-3.4,1.5-3.4,3.4c0,1.9,1.5,3.4,3.4,3.4c0.1,0,0.1,0,0.2,0v0h11.8c1.4,0,2.5-1.1,2.5-2.5
				C417.9,191.7,416.7,190.6,415.4,190.6z"/>
			<path class="st1" d="M323.5,133.1c-1.4,0-2.8,0.4-3.9,1.1c-1.2-5.1-5.7-8.9-11.2-8.9c-0.5,0-1,0-1.4,0.1
				c-2.5-5.7-8.2-9.6-14.8-9.6c-9,0-16.2,7.3-16.2,16.2c0,0.1,0,0.2,0,0.3c-1.1-0.5-2.3-0.8-3.6-0.8c-4.6,0-8.4,3.8-8.4,8.4
				c0,4.6,3.8,8.4,8.4,8.4h51.1c4.2,0,7.6-3.4,7.6-7.6C331,136.5,327.7,133.1,323.5,133.1z"/>
			<path class="st1" d="M245.5,313.6c0.9,0,1.8,0.3,2.6,0.7c0.8-3.3,3.8-5.8,7.4-5.8c0.3,0,0.6,0,0.9,0.1c1.7-3.7,5.4-6.3,9.8-6.3
				c5.9,0,10.7,4.8,10.7,10.7c0,0.1,0,0.1,0,0.2c0.7-0.3,1.5-0.5,2.4-0.5c3,0,5.5,2.5,5.5,5.5c0,3-2.5,5.5-5.5,5.5h-33.6
				c-2.8,0-5-2.2-5-5C240.5,315.9,242.8,313.6,245.5,313.6z"/>
		</g>
		<g>
			<g>
				<g>
					<g>
						<g>
							<g>
								<g>
									<path class="st3" d="M580.1,422.7l-0.1,0.3c0,0-0.2,0.8-0.7,1.8c-0.5,0.9-1.3,2.1-2.6,2.9c-1.3,0.8-2.8,0.9-3.8,0.9
										c-1.1,0-1.9-0.2-1.9-0.2l-0.3-0.1l0.1-0.3c0,0,0.2-0.8,0.7-1.8c0.5-0.9,1.3-2.1,2.6-2.9c1.3-0.8,2.8-0.9,3.8-0.9
										c1.1,0,1.9,0.2,1.9,0.2L580.1,422.7z M571.5,427.8c0.8,0.1,3.1,0.4,4.9-0.7c1.8-1.1,2.7-3.2,3-4c-0.8-0.1-3.1-0.4-4.9,0.7
										C572.6,424.9,571.8,427,571.5,427.8z"/>
								</g>
							</g>
						</g>
					</g>
				</g>
				<g>
					<g>
						<path class="st1" d="M575.8,430c-2.9,1.1-6.1-0.4-6.1-0.4s1.5-3.2,4.3-4.3c2.9-1.1,6.1,0.4,6.1,0.4S578.7,428.9,575.8,430z"/>
					</g>
				</g>
			</g>
			<g>
				<g>
					<g>
						<g>
							<g>
								<g>
									<path class="st3" d="M569.6,388l0,0.4c0,0,0,1-0.3,2.4c-0.3,1.2-0.9,3-2.3,4.3c-1.3,1.3-3.1,1.9-4.3,2.2
										c-1.3,0.3-2.3,0.3-2.4,0.3l-0.4,0l0-0.4c0,0,0-1,0.3-2.4c0.3-1.2,0.9-3,2.3-4.3c1.3-1.3,3.1-1.9,4.3-2.2
										c1.3-0.3,2.3-0.3,2.4-0.3L569.6,388z M560.7,396.8c1-0.1,3.9-0.4,5.7-2.3c1.9-1.8,2.3-4.7,2.4-5.7c-1,0.1-3.9,0.4-5.7,2.3
										C561.2,393,560.8,395.8,560.7,396.8z"/>
								</g>
							</g>
						</g>
					</g>
				</g>
				<g>
					<g>
						<path class="st1" d="M566.6,398.1c-3.2,2.2-7.5,1.4-7.5,1.4s0.8-4.3,3.9-6.5c3.2-2.2,7.5-1.4,7.5-1.4S569.8,395.9,566.6,398.1
							z"/>
					</g>
				</g>
			</g>
			<g>
				<g>
					<g>
						<g>
							<g>
								<g>
									<path class="st3" d="M169.3,377.9l0.2,0.2c0,0,0.7,0.6,1.3,1.5c0.6,0.8,1.4,2.2,1.5,3.7c0.1,1.6-0.4,3-0.9,3.9
										c-0.5,1-1,1.7-1.1,1.7l-0.2,0.2L170,389c0,0-0.7-0.6-1.3-1.5c-0.6-0.8-1.4-2.2-1.5-3.7c-0.1-1.6,0.4-3,0.9-3.9
										c0.5-1,1-1.7,1.1-1.7L169.3,377.9z M170.2,388.2c0.5-0.7,1.8-2.7,1.6-4.9c-0.2-2.2-1.8-3.9-2.4-4.6
										c-0.5,0.7-1.8,2.7-1.6,4.9C168,385.9,169.5,387.6,170.2,388.2z"/>
								</g>
							</g>
						</g>
					</g>
				</g>
				<g>
					<g>
						<path class="st1" d="M174.1,385.2c-0.3,3.2-3.1,5.5-3.1,5.5s-2.3-2.8-2-6s3.1-5.5,3.1-5.5S174.4,382,174.1,385.2z"/>
					</g>
				</g>
			</g>
			<g>
				<g>
					<g>
						<g>
							<g>
								<g>
									<path class="st3" d="M107.9,414.6l0.3,0c0,0,0.7,0,1.7,0.1c0.9,0.1,2.1,0.5,3.1,1.4c1,0.9,1.5,2,1.8,2.9
										c0.3,0.9,0.3,1.6,0.3,1.6l0,0.3l-0.3,0c0,0-0.7,0-1.7-0.1c-0.9-0.1-2.1-0.5-3.1-1.4c-1-0.9-1.5-2-1.8-2.9
										c-0.3-0.9-0.3-1.6-0.3-1.6L107.9,414.6z M114.5,420.4c-0.1-0.7-0.5-2.7-1.9-3.9c-1.4-1.2-3.4-1.3-4.1-1.3
										c0.1,0.7,0.5,2.7,1.9,3.9C111.8,420.3,113.8,420.4,114.5,420.4z"/>
								</g>
							</g>
						</g>
					</g>
				</g>
				<g>
					<g>
						<path class="st1" d="M115.1,416.2c1.7,2.1,1.4,5.1,1.4,5.1s-3.1-0.3-4.7-2.4c-1.7-2.1-1.4-5.1-1.4-5.1
							S113.4,414.1,115.1,416.2z"/>
					</g>
				</g>
			</g>
			<g>
				<g>
					<g>
						<g>
							<g>
								<g>
									<path class="st3" d="M488.2,406.4l0.3,0c0,0,0.8,0,1.9,0.2c1,0.2,2.4,0.7,3.4,1.7c1.1,1,1.6,2.4,1.9,3.3
										c0.3,1,0.3,1.8,0.3,1.9l0,0.3l-0.3,0c0,0-0.8,0-1.9-0.2c-1-0.2-2.4-0.7-3.4-1.7c-1.1-1-1.6-2.4-1.9-3.3
										c-0.3-1-0.3-1.8-0.3-1.9L488.2,406.4z M495.4,413.1c-0.1-0.8-0.5-3-2-4.4c-1.5-1.4-3.7-1.7-4.5-1.7c0.1,0.8,0.5,3,2,4.4
										C492.3,412.8,494.6,413.1,495.4,413.1z"/>
								</g>
							</g>
						</g>
					</g>
				</g>
				<g>
					<g>
						<path class="st1" d="M496.2,408.5c1.8,2.4,1.3,5.8,1.3,5.8s-3.4-0.5-5.2-2.9c-1.8-2.4-1.3-5.8-1.3-5.8
							S494.4,406.1,496.2,408.5z"/>
					</g>
				</g>
			</g>
		</g>
	</g>
	<g>
		<g>
			<polygon class="st5" points="403.7,433.9 262.7,433.9 265.2,424.6 270.2,406.5 273.3,395.5 277.7,379.3 286.4,348.1 290.8,331.9 
				322.3,218 344,218 355.6,259.8 375.5,331.9 380,348.1 388.6,379.3 393.1,395.5 401.1,424.6 			"/>
			<path class="st6" d="M403.7,433.9h-141l2.6-9.3l5-18.1c98.3-5.8,85.3-146.7,85.3-146.7l45.5,164.8L403.7,433.9z"/>
			<rect x="233.8" y="433.9" class="st6" width="198.7" height="18.9"/>
			<polygon class="st7" points="403.7,433.9 262.7,433.9 265.2,424.6 401.1,424.6 			"/>
			<path class="st8" d="M380,348.1c0,0-3,62.3-74.6,76.6l95.7-0.1L380,348.1z"/>
			<polygon class="st9" points="380,348.1 286.4,348.1 290.8,331.9 375.5,331.9 			"/>
			<polygon class="st9" points="393.1,395.5 273.3,395.5 277.7,379.3 388.6,379.3 			"/>
			<path class="st8" d="M386.6,433.9c0,0-26.3,19.9-123.9,18.9h169.9v-18.9L386.6,433.9z"/>
		</g>
		<g>
			<path class="st10" d="M461.7,459H201.9c-1.8,0-3.2-1.5-3.2-3.2l0,0c0-1.8,1.5-3.2,3.2-3.2h259.8c1.8,0,3.2,1.5,3.2,3.2l0,0
				C464.9,457.6,463.5,459,461.7,459z"/>
			<path class="st10" d="M206.7,459h-42c-1.8,0-3.2-1.5-3.2-3.2l0,0c0-1.8,1.5-3.2,3.2-3.2h42c1.8,0,3.2,1.5,3.2,3.2v0
				C210,457.6,208.5,459,206.7,459z"/>
			<path class="st10" d="M145.3,459h-44.1c-1.8,0-3.2-1.5-3.2-3.2l0,0c0-1.8,1.5-3.2,3.2-3.2h44.1c1.8,0,3.2,1.5,3.2,3.2v0
				C148.6,457.6,147.1,459,145.3,459z"/>
			<path class="st10" d="M517.8,459h-36.2c-1.8,0-3.2-1.5-3.2-3.2l0,0c0-1.8,1.5-3.2,3.2-3.2h36.2c1.8,0,3.2,1.5,3.2,3.2l0,0
				C521,457.6,519.6,459,517.8,459z"/>
			<path class="st10" d="M565.2,459h-27.5c-1.8,0-3.2-1.5-3.2-3.2l0,0c0-1.8,1.5-3.2,3.2-3.2h27.5c1.8,0,3.2,1.5,3.2,3.2l0,0
				C568.5,457.6,567,459,565.2,459z"/>
		</g>
	</g>
</g>
</svg>
