<?xml version="1.0" encoding="utf-8"?>
<!-- Generator: Adobe Illustrator 24.1.0, SVG Export Plug-In . SVG Version: 6.00 Build 0)  -->
<svg version="1.1" id="Layer_1" xmlns="http://www.w3.org/2000/svg" xmlns:xlink="http://www.w3.org/1999/xlink" x="0px" y="0px"
	 width="690px" height="460px" viewBox="0 0 690 460" style="enable-background:new 0 0 690 460;" xml:space="preserve">
<style type="text/css">
	.st0{fill:#F9F8F8;}
	.st1{fill:#F2F2F2;}
	.st2{fill:#ECECEC;}
	.st3{fill:#E4E4E4;}
	.st4{fill:#EAEAEA;}
	.st5{fill:#37498C;}
	.st6{fill:#4757A1;}
	.st7{fill:#2B3871;}
	.st8{fill:#FFFFFF;}
	.st9{fill:#242850;}
</style>
<g>
	<g>
		<path class="st0" d="M674.8,345.9h-70.4c5.1-21,7.9-43,7.9-65.5c0-44.9-10.8-87.3-29.9-124.7h50c2.9,0,5.2-2.3,5.2-5.2v0
			c0-2.9-2.3-5.2-5.2-5.2h-55.6C529.6,62,440.2,5.8,337.7,5.8c-68.2,0-130.5,24.9-178.5,66H74.7c-2.9,0-5.2,2.3-5.2,5.2v0
			c0,2.9,2.3,5.2,5.2,5.2h73.1c-5.8,5.6-11.4,11.4-16.7,17.5H15.2c-2.9,0-5.2,2.3-5.2,5.2v0c0,2.9,2.3,5.2,5.2,5.2h107.1
			c-37,46.8-59.1,105.9-59.1,170.2c0,36,6.9,70.3,19.5,101.8H69c-2.9,0-5.2,2.3-5.2,5.2l0,0c0,2.9,2.3,5.2,5.2,5.2h18.1
			c1.9,4.2,3.9,8.4,6,12.5H31.6c-2.9,0-5.2,2.3-5.2,5.2l0,0c0,2.9,2.3,5.2,5.2,5.2h67.2c6.4,11.3,13.6,22.2,21.5,32.4h435
			c14.8-19.2,27.1-40.3,36.4-63h51.1c2.9,0,5.2-2.3,5.2-5.2l0,0c0-2.9-2.3-5.2-5.2-5.2h-47c2.2-6,4.1-12,5.9-18.1h73.2
			c2.9,0,5.2-2.3,5.2-5.2l0,0C680,348.2,677.7,345.9,674.8,345.9z"/>
		<g>
			<g>
				<path class="st1" d="M453.1,447.8h-33.3l0,0c0-2.4,1.9-4.3,4.3-4.3h24.6C451.1,443.5,453.1,445.4,453.1,447.8L453.1,447.8z"/>
				<polygon class="st1" points="445.2,443.5 427.7,443.5 433.4,281.3 437.2,283.9 				"/>
				<g>
					<path class="st1" d="M450.6,447.8h-33.3l0,0c0-2.4,1.9-4.3,4.3-4.3h24.6C448.7,443.5,450.6,445.4,450.6,447.8L450.6,447.8z"/>
					<g>
						<g>
							<path class="st1" d="M434,282.8l83.7,48.3l-0.9-4.8c-0.2-0.9-0.7-1.8-1.5-2.4l-54.7-42.3c-1-0.8-2.3-1-3.5-0.7l-11,3.3
								c-1,0.3-2.2,0.2-3.1-0.4l-7.3-4.2L434,282.8z"/>
							<path class="st1" d="M432.2,279.7L348.5,328l4.6,1.6c0.9,0.3,1.9,0.3,2.8-0.1l64-26.2c1.2-0.5,2.1-1.5,2.3-2.7l2.6-11.1
								c0.3-1.1,0.9-2,1.9-2.5l7.3-4.2L432.2,279.7z"/>
							<path class="st1" d="M435.8,279.7v-96.6l-3.7,3.2c-0.7,0.6-1.2,1.5-1.3,2.4l-9.3,68.5c-0.2,1.3,0.3,2.5,1.2,3.4l8.3,7.9
								c0.8,0.7,1.2,1.8,1.2,2.9v8.4H435.8z"/>
							<polygon class="st1" points="442,443.5 426,443.5 431.6,281.3 436.3,281.3 							"/>
							
								<ellipse transform="matrix(0.2298 -0.9732 0.9732 0.2298 60.4563 639.0873)" class="st1" cx="434" cy="281.3" rx="4.1" ry="4.1"/>
						</g>
					</g>
				</g>
				<circle class="st1" cx="433.7" cy="281.1" r="3.8"/>
				<polygon class="st1" points="350,328.5 430,281.1 429.9,281.1 348.5,328 				"/>
				<rect x="426" y="442.4" class="st1" width="16" height="1.1"/>
				<polygon class="st1" points="434.6,184.1 435.7,277.7 435.8,277.7 435.8,183.1 				"/>
				<polygon class="st1" points="517.4,329.6 436.3,284 436.3,284.1 517.7,331.1 				"/>
			</g>
			<g>
				<path class="st2" d="M562.3,447.8h-53.2l0,0c0-3.8,3.1-7,7-7h39.3C559.2,440.8,562.3,444,562.3,447.8L562.3,447.8z"/>
				<polygon class="st2" points="549.7,440.8 521.7,440.8 530.8,181.3 536.9,185.4 				"/>
				<g>
					<path class="st1" d="M558.4,447.8h-53.2l0,0c0-3.8,3.1-7,7-7h39.3C555.3,440.8,558.4,444,558.4,447.8L558.4,447.8z"/>
					<g>
						<g>
							<path class="st1" d="M531.8,183.6l134,77.3l-1.6-8.5c-0.2-0.9-0.7-1.8-1.5-2.4l-89.2-69c-1-0.8-2.3-1-3.5-0.7l-19.7,5.9
								c-1,0.3-2.2,0.2-3.1-0.4l-12.5-7.2L531.8,183.6z"/>
							<path class="st1" d="M528.9,178.7L395,256l8.2,2.8c0.9,0.3,1.9,0.3,2.8-0.1l106.2-43.5l5.6-23.6l14-8.1L528.9,178.7z"/>
							<path class="st1" d="M534.6,178.7V24l-6.5,5.7c-0.7,0.6-1.2,1.5-1.3,2.4l-15.2,111.7c-0.2,1.3,0.3,2.5,1.2,3.4l14.9,14.1
								c0.8,0.7,1.2,1.8,1.2,2.9v14.5H534.6z"/>
							<polygon class="st1" points="544.6,440.8 518.9,440.8 528,181.3 535.5,181.3 							"/>
							
								<ellipse transform="matrix(0.3827 -0.9239 0.9239 0.3827 160.753 603.217)" class="st2" cx="531.8" cy="181.3" rx="6.6" ry="6.6"/>
						</g>
					</g>
				</g>
				
					<ellipse transform="matrix(0.3827 -0.9239 0.9239 0.3827 160.8339 602.5635)" class="st1" cx="531.3" cy="180.9" rx="6" ry="6"/>
				<polygon class="st2" points="397.3,256.9 525.3,180.9 525.2,180.8 395,256 				"/>
				<rect x="519" y="439.2" class="st2" width="25.7" height="1.7"/>
				<polygon class="st2" points="532.7,25.6 534.5,175.5 534.6,175.4 534.6,24 				"/>
				<polygon class="st2" points="665.3,258.5 535.5,185.6 535.5,185.8 665.7,261 				"/>
			</g>
		</g>
		<g>
			<g>
				<path class="st1" d="M135.9,322.1L135.9,322.1c-17.1,0-31.2-14-31.2-31.2v-71.7c0-17.1,14-31.2,31.2-31.2h0
					c17.1,0,31.2,14,31.2,31.2V291C167.1,308.1,153.1,322.1,135.9,322.1z"/>
				<path class="st3" d="M137.6,448h-3.4v-210c0-0.9,0.8-1.7,1.7-1.7l0,0c0.9,0,1.7,0.8,1.7,1.7V448z"/>
				<path class="st3" d="M137.6,266.4l-9.5-16.4c-0.5-0.8-1.5-1.1-2.3-0.6c-0.8,0.5-1.1,1.5-0.6,2.3l9.5,16.4L137.6,266.4z"/>
				<path class="st3" d="M137.2,286l9.5-16.4c0.5-0.8,0.2-1.9-0.6-2.3c-0.8-0.5-1.9-0.2-2.3,0.6l-9.5,16.4L137.2,286z"/>
			</g>
			<g>
				<path class="st1" d="M215.5,288L215.5,288c-21.8,0-39.6-17.8-39.6-39.6v-91.1c0-21.8,17.8-39.6,39.6-39.6h0
					c21.8,0,39.6,17.8,39.6,39.6v91.1C255.1,270.2,237.3,288,215.5,288z"/>
				<path class="st3" d="M217.7,447.8h-4.3V181c0-1.2,1-2.2,2.2-2.2l0,0c1.2,0,2.2,1,2.2,2.2V447.8z"/>
				<path class="st3" d="M217.7,217.2l-12-20.8c-0.6-1-1.9-1.4-2.9-0.8c-1,0.6-1.4,1.9-0.8,2.9l12,20.8L217.7,217.2z"/>
				<path class="st3" d="M217.1,242.1l12-20.8c0.6-1,0.2-2.4-0.8-2.9c-1-0.6-2.4-0.2-2.9,0.8l-12,20.8L217.1,242.1z"/>
			</g>
		</g>
		<g>
			<g>
				<g>
					<path class="st3" d="M155.2,436.2c1.8-1.7,2.6-3.7,1.9-5c-0.9-1.7-3.9-2-7-0.8c0.2-0.4,0.3-0.8,0.4-1.3
						c1.7-5.4,0.7-10.5-2.2-11.4c-2.8-0.9-6.4,2.6-8.1,7.7c-1.4-5.9-5.1-10.1-8.3-9.3c-3,0.7-4.5,5.5-3.5,11
						c-4.4-1.9-8.6-1.8-10,0.6c-1.4,2.4,0.8,6.3,4.9,9.2c-2,0.7-3.3,1.9-3.5,3.4c-0.2,1.9,1.4,3.7,3.9,4.8c-0.1,0.4-0.2,0.7-0.1,1.1
						c0.3,1.1,1.7,1.8,3.5,1.9v0h0.3c0,0,0,0,0,0h23.4v0c0.5-0.1,0.8-0.3,0.9-0.6c0.1-0.2,0-0.4-0.1-0.7c1.2-0.1,2.2-0.6,2.5-1.4
						c0.2-0.6,0.1-1.4-0.4-2.1c3.2-0.2,5.7-1.6,5.7-3.4C159.5,438.3,157.7,436.8,155.2,436.2z"/>
				</g>
				<g>
					<path class="st1" d="M204.4,426.2c3.3-3.1,4.9-6.7,3.6-9.2c-1.6-3.1-7.1-3.6-12.9-1.4c0.3-0.8,0.6-1.5,0.8-2.3
						c3.1-9.9,1.3-19.3-4-20.9c-5.2-1.6-11.8,4.7-15,14.2c-2.7-10.9-9.5-18.6-15.3-17.2c-5.5,1.3-8.2,10.2-6.4,20.3
						c-8.1-3.6-15.8-3.3-18.3,1c-2.6,4.4,1.4,11.7,9,16.9c-3.6,1.2-6.1,3.4-6.4,6.2c-0.4,3.4,2.5,6.8,7.1,8.8
						c-0.3,0.7-0.3,1.3-0.2,2c0.5,2.1,3.1,3.3,6.5,3.5v0h0.5c0,0,0,0,0,0h43v0c0.8-0.1,1.5-0.5,1.7-1c0.1-0.4,0.1-0.8-0.1-1.2
						c2.3-0.2,4-1.1,4.5-2.6c0.4-1.2,0.1-2.5-0.8-3.8c5.9-0.4,10.4-3,10.5-6.3C212.4,430.1,209.1,427.4,204.4,426.2z"/>
				</g>
			</g>
			<g>
				<path class="st4" d="M497.1,428.5c-3-2.8-4.3-6-3.2-8.2c1.5-2.8,6.3-3.2,11.5-1.2c-0.3-0.7-0.5-1.4-0.7-2.1
					c-2.8-8.8-1.2-17.2,3.5-18.6c4.6-1.4,10.5,4.2,13.3,12.6c2.4-9.7,8.4-16.5,13.6-15.3c4.9,1.2,7.3,9,5.7,18.1
					c7.2-3.2,14.1-2.9,16.3,0.9c2.3,4-1.3,10.4-8.1,15.1c3.2,1.1,5.4,3,5.7,5.5c0.4,3-2.2,6-6.4,7.9c0.2,0.6,0.3,1.2,0.2,1.8
					c-0.4,1.8-2.7,3-5.8,3.1v0h-0.5c0,0,0,0,0,0h-38.3v0c-0.7-0.1-1.3-0.4-1.5-0.9c-0.1-0.3-0.1-0.7,0.1-1.1c-2-0.2-3.5-1-4-2.3
					c-0.4-1-0.1-2.2,0.7-3.4c-5.2-0.4-9.3-2.6-9.4-5.6C489.9,431.9,492.9,429.5,497.1,428.5z"/>
			</g>
			<g>
				<path class="st3" d="M541.3,440.1c-1.2-1.1-1.8-2.4-1.3-3.3c0.6-1.1,2.5-1.3,4.6-0.5c-0.1-0.3-0.2-0.6-0.3-0.8
					c-1.1-3.6-0.5-6.9,1.4-7.5c1.9-0.6,4.2,1.7,5.4,5.1c1-3.9,3.4-6.7,5.5-6.2c2,0.5,2.9,3.7,2.3,7.3c2.9-1.3,5.7-1.2,6.6,0.4
					c0.9,1.6-0.5,4.2-3.3,6.1c1.3,0.4,2.2,1.2,2.3,2.2c0.1,1.2-0.9,2.4-2.6,3.2c0.1,0.2,0.1,0.5,0.1,0.7c-0.2,0.7-1.1,1.2-2.3,1.2v0
					h-0.2c0,0,0,0,0,0h-15.5v0c-0.3,0-0.5-0.2-0.6-0.4c-0.1-0.1,0-0.3,0.1-0.4c-0.8-0.1-1.4-0.4-1.6-0.9c-0.2-0.4,0-0.9,0.3-1.4
					c-2.1-0.1-3.7-1.1-3.8-2.3C538.4,441.4,539.6,440.5,541.3,440.1z"/>
			</g>
			<g>
				<path class="st1" d="M352.8,429.6c-2.8-2.6-4.1-5.6-3-7.8c1.4-2.6,5.9-3,10.8-1.2c-0.2-0.6-0.5-1.3-0.7-2
					c-2.6-8.3-1.1-16.2,3.3-17.6c4.3-1.4,9.9,3.9,12.6,11.9c2.2-9.1,7.9-15.6,12.8-14.4c4.6,1.1,6.9,8.5,5.4,17
					c6.8-3,13.3-2.7,15.4,0.9c2.2,3.7-1.2,9.8-7.6,14.2c3,1,5.1,2.9,5.4,5.2c0.3,2.9-2.1,5.7-6,7.4c0.2,0.6,0.3,1.1,0.1,1.7
					c-0.4,1.7-2.6,2.8-5.4,2.9v0h-0.4c0,0,0,0,0,0h-36.1v0c-0.7-0.1-1.2-0.4-1.4-0.9c-0.1-0.3-0.1-0.7,0.1-1
					c-1.9-0.2-3.3-0.9-3.8-2.2c-0.4-1-0.1-2.1,0.7-3.2c-4.9-0.3-8.7-2.5-8.8-5.3C346.1,432.8,348.8,430.6,352.8,429.6z"/>
			</g>
			<g>
				<path class="st3" d="M393.4,437.5c-1.6-1.5-2.3-3.2-1.7-4.4c0.8-1.5,3.4-1.7,6.1-0.7c-0.1-0.4-0.3-0.7-0.4-1.1
					c-1.5-4.7-0.6-9.2,1.9-10c2.5-0.8,5.6,2.2,7.1,6.8c1.3-5.2,4.5-8.8,7.3-8.2c2.6,0.6,3.9,4.8,3.1,9.7c3.8-1.7,7.5-1.6,8.7,0.5
					c1.2,2.1-0.7,5.5-4.3,8c1.7,0.6,2.9,1.6,3.1,2.9c0.2,1.6-1.2,3.2-3.4,4.2c0.1,0.3,0.2,0.6,0.1,0.9c-0.2,1-1.5,1.6-3.1,1.6v0
					h-0.2c0,0,0,0,0,0h-20.4v0c-0.4-0.1-0.7-0.2-0.8-0.5c-0.1-0.2,0-0.4,0.1-0.6c-1.1-0.1-1.9-0.5-2.2-1.2c-0.2-0.6-0.1-1.2,0.4-1.8
					c-2.8-0.2-4.9-1.4-5-3C389.6,439.3,391.1,438.1,393.4,437.5z"/>
			</g>
		</g>
		<g>
			<path class="st1" d="M474.6,123.4c-0.3,0-0.5,0-0.7,0.1c0-0.1,0-0.2,0-0.4c0-2.8-2.3-5.2-5.2-5.2c-2.4,0-4.4,1.6-5,3.8
				c-0.3-0.1-0.6-0.1-0.9-0.1c-1.8,0-3.3,1.5-3.3,3.3c0,1.8,1.5,3.3,3.3,3.3c0.1,0,0.1,0,0.2,0v0h11.6c1.4,0,2.5-1.1,2.5-2.5
				C477,124.5,475.9,123.4,474.6,123.4z"/>
			<path class="st1" d="M293.3,90.1c-0.9,0-1.8,0.2-2.5,0.7c-0.7-3.2-3.7-5.7-7.1-5.7c-0.3,0-0.6,0-0.9,0.1
				c-1.6-3.6-5.2-6.1-9.4-6.1c-5.7,0-10.3,4.6-10.3,10.3c0,0.1,0,0.1,0,0.2c-0.7-0.3-1.5-0.5-2.3-0.5c-2.9,0-5.3,2.4-5.3,5.3
				c0,2.9,2.4,5.3,5.3,5.3h32.5c2.7,0,4.8-2.2,4.8-4.8C298.2,92.3,296,90.1,293.3,90.1z"/>
			<path class="st1" d="M260,318.5c0.9,0,1.8,0.3,2.5,0.7c0.8-3.3,3.7-5.7,7.2-5.7c0.3,0,0.6,0,0.9,0.1c1.6-3.6,5.3-6.2,9.6-6.2
				c5.8,0,10.5,4.7,10.5,10.5c0,0.1,0,0.1,0,0.2c0.7-0.3,1.5-0.5,2.3-0.5c3,0,5.4,2.4,5.4,5.4c0,3-2.4,5.4-5.4,5.4h-33
				c-2.7,0-4.9-2.2-4.9-4.9S257.3,318.5,260,318.5z"/>
		</g>
		<g>
			<g>
				<g>
					<g>
						<g>
							<g>
								<g>
									<path class="st3" d="M575.4,418.6l-0.1,0.3c0,0-0.2,0.8-0.7,1.7c-0.5,0.9-1.3,2.1-2.6,2.8c-1.3,0.8-2.7,0.9-3.7,0.9
										c-1.1,0-1.8-0.2-1.9-0.2l-0.3-0.1l0.1-0.3c0,0,0.2-0.8,0.7-1.7c0.5-0.9,1.3-2.1,2.6-2.8c1.3-0.8,2.7-0.9,3.7-0.9
										c1.1,0,1.8,0.2,1.9,0.2L575.4,418.6z M567,423.6c0.8,0.1,3,0.4,4.8-0.6c1.8-1.1,2.6-3.1,2.9-3.9c-0.8-0.1-3-0.4-4.8,0.6
										C568.1,420.8,567.2,422.8,567,423.6z"/>
								</g>
							</g>
						</g>
					</g>
				</g>
				<g>
					<g>
						<path class="st1" d="M571.2,425.7c-2.8,1.1-6-0.3-6-0.3s1.4-3.1,4.3-4.2c2.8-1.1,6,0.3,6,0.3S574,424.7,571.2,425.7z"/>
					</g>
				</g>
			</g>
			<g>
				<g>
					<g>
						<g>
							<g>
								<g>
									<path class="st3" d="M565.1,384.6l0,0.4c0,0,0,1-0.3,2.3c-0.3,1.2-0.9,2.9-2.2,4.2c-1.3,1.3-3,1.9-4.2,2.2
										c-1.3,0.3-2.3,0.3-2.3,0.3l-0.4,0l0-0.4c0,0,0-1,0.3-2.3c0.3-1.2,0.9-2.9,2.2-4.2c1.3-1.3,3-1.9,4.2-2.2
										c1.3-0.3,2.3-0.3,2.3-0.3L565.1,384.6z M556.4,393.2c1-0.1,3.8-0.4,5.6-2.2c1.8-1.8,2.2-4.6,2.3-5.6
										c-1,0.1-3.8,0.4-5.6,2.2C556.9,389.5,556.5,392.2,556.4,393.2z"/>
								</g>
							</g>
						</g>
					</g>
				</g>
				<g>
					<g>
						<path class="st1" d="M562.2,394.5c-3.1,2.1-7.3,1.4-7.3,1.4s0.8-4.2,3.9-6.4c3.1-2.1,7.3-1.4,7.3-1.4S565.3,392.4,562.2,394.5
							z"/>
					</g>
				</g>
			</g>
			<g>
				<g>
					<g>
						<g>
							<g>
								<g>
									<path class="st3" d="M172.8,374.7l0.2,0.2c0,0,0.6,0.6,1.3,1.5c0.6,0.8,1.4,2.1,1.5,3.7c0.1,1.5-0.4,2.9-0.9,3.9
										c-0.5,1-1,1.6-1.1,1.6l-0.2,0.2l-0.2-0.2c0,0-0.6-0.6-1.3-1.5c-0.6-0.8-1.4-2.1-1.5-3.7c-0.1-1.5,0.4-2.9,0.9-3.9
										c0.5-1,1-1.6,1.1-1.6L172.8,374.7z M173.6,384.8c0.5-0.7,1.7-2.7,1.6-4.8c-0.2-2.1-1.7-3.9-2.3-4.5
										c-0.5,0.7-1.7,2.7-1.6,4.8C171.5,382.5,173,384.2,173.6,384.8z"/>
								</g>
							</g>
						</g>
					</g>
				</g>
				<g>
					<g>
						<path class="st1" d="M177.5,381.8c-0.3,3.1-3,5.4-3,5.4s-2.3-2.8-2-5.9c0.3-3.1,3-5.4,3-5.4S177.8,378.7,177.5,381.8z"/>
					</g>
				</g>
			</g>
			<g>
				<g>
					<g>
						<g>
							<g>
								<g>
									<path class="st3" d="M112.7,410.7l0.3,0c0,0,0.7,0,1.6,0.1c0.9,0.1,2.1,0.5,3,1.3c1,0.8,1.5,2,1.7,2.8
										c0.3,0.9,0.3,1.6,0.3,1.6l0,0.3l-0.3,0c0,0-0.7,0-1.6-0.1c-0.9-0.1-2.1-0.5-3-1.3c-1-0.8-1.5-2-1.7-2.8
										c-0.3-0.9-0.3-1.6-0.3-1.6L112.7,410.7z M119.1,416.3c-0.1-0.7-0.5-2.6-1.9-3.8c-1.4-1.2-3.3-1.3-4-1.3
										c0.1,0.7,0.5,2.6,1.9,3.8C116.5,416.2,118.4,416.3,119.1,416.3z"/>
								</g>
							</g>
						</g>
					</g>
				</g>
				<g>
					<g>
						<path class="st1" d="M119.7,412.3c1.7,2,1.4,5,1.4,5s-3-0.3-4.7-2.4c-1.7-2-1.4-5-1.4-5S118.1,410.2,119.7,412.3z"/>
					</g>
				</g>
			</g>
			<g>
				<g>
					<g>
						<g>
							<g>
								<g>
									<path class="st3" d="M485.4,402.6l0.3,0c0,0,0.8,0,1.8,0.2c1,0.2,2.3,0.6,3.4,1.6c1.1,1,1.6,2.3,1.8,3.3
										c0.3,1,0.3,1.8,0.3,1.8l0,0.3l-0.3,0c0,0-0.8,0-1.8-0.2c-1-0.2-2.3-0.6-3.4-1.6c-1.1-1-1.6-2.3-1.8-3.3
										c-0.3-1-0.3-1.8-0.3-1.8L485.4,402.6z M492.4,409.2c-0.1-0.8-0.4-3-1.9-4.3c-1.5-1.4-3.6-1.6-4.5-1.7
										c0.1,0.8,0.4,3,1.9,4.3C489.4,408.9,491.6,409.2,492.4,409.2z"/>
								</g>
							</g>
						</g>
					</g>
				</g>
				<g>
					<g>
						<path class="st1" d="M493.2,404.7c1.8,2.4,1.3,5.7,1.3,5.7s-3.3-0.5-5.1-2.9c-1.8-2.4-1.3-5.7-1.3-5.7
							S491.4,402.3,493.2,404.7z"/>
					</g>
				</g>
			</g>
		</g>
	</g>
	<g>
		<g>
			<rect x="330.2" y="101.8" class="st5" width="15" height="349.2"/>
			<polygon class="st6" points="489.2,161.9 436.9,197.9 436.6,198.2 214.5,198.2 214.5,125.7 436.6,125.7 465.6,145.7 			"/>
			<polygon class="st6" points="233.1,287.3 455.2,287.3 455.2,214.8 233.1,214.8 180.5,251 			"/>
			<path class="st5" d="M404.1,214.7c0,0-25.4,67.7-186.7,61.7l15.7,10.8h222.1v-72.5L404.1,214.7z"/>
			<path class="st7" d="M455.2,222.5c0,0-18.2,61.9-86.1,64.4l86.1,0.4V222.5z"/>
			<g>
				<g>
					<path class="st8" d="M446.1,223.8v54.4H235.9L196.4,251l39.5-27.2H446.1 M449.1,220.8H235L191.2,251l43.8,30.2h214.1V220.8
						L449.1,220.8z"/>
				</g>
			</g>
			<path class="st5" d="M413.6,125.7c0,0-37.8,68.1-199.1,62.1v10.4h222.1l52.6-36.3l-52.6-36.3H413.6z"/>
			<path class="st7" d="M489.2,161.9l-52.2,36l-52.3-0.2c48.6-1.8,71.7-33.9,81-52.1L489.2,161.9z"/>
			<g>
				<g>
					<path class="st8" d="M433.8,134.7l39.5,27.2l-39.5,27.2H223.6v-54.4H433.8 M434.7,131.8H220.6v60.4h214.1l43.8-30.2
						L434.7,131.8L434.7,131.8z"/>
				</g>
			</g>
			<rect x="330.2" y="198.2" class="st9" width="15" height="6.5"/>
			<rect x="330.2" y="287.2" class="st9" width="15" height="6.5"/>
			<rect x="339.4" y="287.2" class="st9" width="5.9" height="163.8"/>
			<g>
				<path class="st8" d="M323.2,255.3c-0.7-0.3-1.6-0.5-2.7-0.5h-0.7v-16.2c0-2.6-1.2-3.9-3.4-3.9c-0.7,0-1.3,0.2-1.8,0.7
					c-0.5,0.5-1.1,1.2-1.8,2.2l-11.2,15c-0.3,0.4-0.6,0.8-0.8,1c-0.2,0.3-0.4,0.6-0.6,0.9c-0.2,0.3-0.4,0.6-0.5,0.9
					c-0.1,0.3-0.2,0.6-0.2,0.9c0,1.1,0.4,2,1.1,2.6c0.7,0.6,1.8,1,3.2,1h10.4v3.7c0,1.1,0.3,2,0.8,2.5c0.5,0.6,1.2,0.9,2.1,0.9
					c0.9,0,1.6-0.3,2.1-0.9c0.5-0.6,0.8-1.4,0.8-2.6V260h1.1c1.1,0,2-0.2,2.5-0.6c0.6-0.4,0.9-1.1,0.9-2
					C324.3,256.3,324,255.6,323.2,255.3z M314.1,243.3v11.5h-8.5L314.1,243.3z"/>
				<path class="st8" d="M344.9,237.7c-0.9-0.9-2-1.6-3.2-2.1c-1.2-0.5-2.6-0.7-4-0.7c-2.2,0-4.2,0.6-5.8,1.6
					c-1.6,1.1-2.9,2.7-3.7,4.7c-0.5,1.2-0.8,2.7-1.1,4.5c-0.2,1.7-0.3,3.7-0.3,5.8c0,1.7,0.1,3.2,0.3,4.6c0.2,1.4,0.5,2.8,1,3.9
					c0.9,2.2,2.2,3.9,3.9,5.1c1.7,1.2,3.7,1.9,5.9,1.9c1.9,0,3.6-0.5,5.2-1.4c1.5-0.9,2.8-2.2,3.8-3.9c0.8-1.4,1.3-2.9,1.6-4.6
					c0.3-1.7,0.4-3.7,0.4-6c0-4.3-0.5-7.6-1.6-10C346.6,239.8,345.8,238.7,344.9,237.7z M333.5,257.4c-0.3-1.7-0.5-3.9-0.5-6.5
					c0-3.9,0.4-6.8,1.1-8.6c0.7-1.8,1.9-2.7,3.7-2.7c1.2,0,2.2,0.4,2.9,1.2c0.7,0.8,1.2,2,1.5,3.6c0.3,1.6,0.5,3.8,0.5,6.3
					c0,2.7-0.1,4.9-0.4,6.6c-0.3,1.6-0.8,2.9-1.5,3.8c-0.7,0.9-1.6,1.3-2.9,1.3c-1.2,0-2.1-0.4-2.8-1.2
					C334.3,260.3,333.8,259.1,333.5,257.4z"/>
				<path class="st8" d="M374.8,255.3c-0.7-0.3-1.6-0.5-2.7-0.5h-0.7v-16.2c0-2.6-1.2-3.9-3.4-3.9c-0.7,0-1.3,0.2-1.8,0.7
					c-0.5,0.5-1.1,1.2-1.8,2.2l-11.2,15c-0.3,0.4-0.6,0.8-0.8,1c-0.2,0.3-0.4,0.6-0.6,0.9c-0.2,0.3-0.4,0.6-0.5,0.9
					c-0.1,0.3-0.2,0.6-0.2,0.9c0,1.1,0.4,2,1.1,2.6c0.7,0.6,1.8,1,3.2,1h10.4v3.7c0,1.1,0.3,2,0.8,2.5c0.5,0.6,1.2,0.9,2.1,0.9
					c0.9,0,1.6-0.3,2.1-0.9c0.5-0.6,0.8-1.4,0.8-2.6V260h1.1c1.1,0,2-0.2,2.5-0.6c0.6-0.4,0.9-1.1,0.9-2
					C376,256.3,375.6,255.6,374.8,255.3z M365.7,243.3v11.5h-8.5L365.7,243.3z"/>
			</g>
			<g>
				<path class="st8" d="M292.7,154.7h-11.1v6h10.2c0.7,0,1.3,0.2,1.7,0.5c0.4,0.3,0.6,0.8,0.6,1.3c0,0.6-0.2,1-0.5,1.3
					c-0.4,0.3-0.9,0.5-1.7,0.5h-10.2v6.9h11.4c0.8,0,1.4,0.2,1.7,0.5c0.4,0.4,0.6,0.8,0.6,1.4c0,0.6-0.2,1-0.6,1.4
					c-0.4,0.4-1,0.5-1.7,0.5h-13.3c-1.1,0-1.8-0.2-2.3-0.7c-0.5-0.5-0.7-1.2-0.7-2.3v-18.2c0-0.7,0.1-1.3,0.3-1.7
					c0.2-0.4,0.5-0.8,1-1c0.4-0.2,1-0.3,1.7-0.3h13c0.8,0,1.4,0.2,1.7,0.5c0.4,0.3,0.6,0.8,0.6,1.4c0,0.6-0.2,1-0.6,1.4
					C294.1,154.5,293.5,154.7,292.7,154.7z"/>
				<path class="st8" d="M305.9,164.8h-1.7v7.8c0,1-0.2,1.8-0.7,2.3c-0.5,0.5-1,0.7-1.8,0.7c-0.8,0-1.4-0.3-1.8-0.8
					c-0.4-0.5-0.6-1.3-0.6-2.2v-18.6c0-1.1,0.2-1.8,0.7-2.3c0.5-0.5,1.2-0.7,2.3-0.7h8c1.1,0,2,0,2.8,0.1c0.8,0.1,1.5,0.3,2.1,0.6
					c0.8,0.3,1.4,0.8,2,1.4c0.6,0.6,1,1.3,1.3,2.1c0.3,0.8,0.5,1.6,0.5,2.5c0,1.8-0.5,3.3-1.5,4.3c-1,1.1-2.6,1.8-4.6,2.3
					c0.9,0.5,1.7,1.1,2.5,2c0.8,0.9,1.5,1.9,2.1,2.9c0.6,1,1.1,1.9,1.5,2.8c0.3,0.8,0.5,1.4,0.5,1.7c0,0.3-0.1,0.6-0.3,1
					c-0.2,0.3-0.5,0.6-0.8,0.7c-0.4,0.2-0.8,0.3-1.2,0.3c-0.6,0-1-0.1-1.4-0.4c-0.4-0.3-0.7-0.6-1-1c-0.3-0.4-0.6-1-1.1-1.8l-2-3.3
					c-0.7-1.2-1.3-2.1-1.9-2.7c-0.6-0.6-1.1-1.1-1.7-1.3C307.5,164.9,306.8,164.8,305.9,164.8z M308.7,154.6h-4.5v6.7h4.4
					c1.2,0,2.2-0.1,3-0.3c0.8-0.2,1.4-0.6,1.8-1c0.4-0.5,0.6-1.2,0.6-2c0-0.7-0.2-1.3-0.5-1.8c-0.3-0.5-0.8-0.9-1.4-1.1
					C311.5,154.7,310.4,154.6,308.7,154.6z"/>
				<path class="st8" d="M330.2,164.8h-1.7v7.8c0,1-0.2,1.8-0.7,2.3c-0.5,0.5-1,0.7-1.8,0.7c-0.8,0-1.4-0.3-1.8-0.8
					c-0.4-0.5-0.6-1.3-0.6-2.2v-18.6c0-1.1,0.2-1.8,0.7-2.3c0.5-0.5,1.2-0.7,2.3-0.7h8c1.1,0,2,0,2.8,0.1c0.8,0.1,1.5,0.3,2.1,0.6
					c0.8,0.3,1.4,0.8,2,1.4c0.6,0.6,1,1.3,1.3,2.1c0.3,0.8,0.5,1.6,0.5,2.5c0,1.8-0.5,3.3-1.5,4.3c-1,1.1-2.6,1.8-4.6,2.3
					c0.9,0.5,1.7,1.1,2.5,2c0.8,0.9,1.5,1.9,2.1,2.9c0.6,1,1.1,1.9,1.5,2.8c0.3,0.8,0.5,1.4,0.5,1.7c0,0.3-0.1,0.6-0.3,1
					c-0.2,0.3-0.5,0.6-0.8,0.7c-0.4,0.2-0.8,0.3-1.2,0.3c-0.6,0-1-0.1-1.4-0.4c-0.4-0.3-0.7-0.6-1-1c-0.3-0.4-0.6-1-1.1-1.8l-2-3.3
					c-0.7-1.2-1.3-2.1-1.9-2.7c-0.6-0.6-1.1-1.1-1.7-1.3C331.8,164.9,331.1,164.8,330.2,164.8z M333.1,154.6h-4.5v6.7h4.4
					c1.2,0,2.2-0.1,3-0.3c0.8-0.2,1.4-0.6,1.8-1c0.4-0.5,0.6-1.2,0.6-2c0-0.7-0.2-1.3-0.5-1.8c-0.3-0.5-0.8-0.9-1.4-1.1
					C335.9,154.7,334.7,154.6,333.1,154.6z"/>
				<path class="st8" d="M358.7,150.5c2.5,0,4.7,0.5,6.5,1.5c1.8,1,3.2,2.5,4.1,4.3c0.9,1.9,1.4,4.1,1.4,6.6c0,1.9-0.3,3.6-0.8,5.1
					c-0.5,1.5-1.3,2.9-2.3,4c-1,1.1-2.3,2-3.7,2.6c-1.5,0.6-3.2,0.9-5.1,0.9c-1.9,0-3.6-0.3-5.1-0.9c-1.5-0.6-2.7-1.5-3.8-2.6
					c-1-1.1-1.8-2.5-2.3-4c-0.5-1.6-0.8-3.3-0.8-5.1c0-1.9,0.3-3.6,0.8-5.1c0.5-1.6,1.3-2.9,2.3-4c1-1.1,2.2-1.9,3.7-2.5
					C355.1,150.8,356.8,150.5,358.7,150.5z M365.6,162.9c0-1.8-0.3-3.3-0.9-4.6c-0.6-1.3-1.4-2.3-2.5-3c-1.1-0.7-2.3-1-3.7-1
					c-1,0-1.9,0.2-2.7,0.6c-0.8,0.4-1.5,0.9-2.1,1.6c-0.6,0.7-1.1,1.6-1.4,2.7c-0.3,1.1-0.5,2.3-0.5,3.7c0,1.4,0.2,2.6,0.5,3.7
					c0.3,1.1,0.8,2,1.5,2.8c0.6,0.7,1.4,1.3,2.2,1.6c0.8,0.4,1.7,0.5,2.7,0.5c1.3,0,2.4-0.3,3.5-0.9c1.1-0.6,1.9-1.6,2.5-2.9
					C365.3,166.5,365.6,164.8,365.6,162.9z"/>
				<path class="st8" d="M381.4,164.8h-1.7v7.8c0,1-0.2,1.8-0.7,2.3c-0.5,0.5-1,0.7-1.8,0.7c-0.8,0-1.4-0.3-1.8-0.8
					c-0.4-0.5-0.6-1.3-0.6-2.2v-18.6c0-1.1,0.2-1.8,0.7-2.3c0.5-0.5,1.2-0.7,2.3-0.7h8c1.1,0,2,0,2.8,0.1c0.8,0.1,1.5,0.3,2.1,0.6
					c0.8,0.3,1.4,0.8,2,1.4c0.6,0.6,1,1.3,1.3,2.1c0.3,0.8,0.5,1.6,0.5,2.5c0,1.8-0.5,3.3-1.5,4.3c-1,1.1-2.6,1.8-4.6,2.3
					c0.9,0.5,1.7,1.1,2.5,2c0.8,0.9,1.5,1.9,2.1,2.9c0.6,1,1.1,1.9,1.5,2.8c0.3,0.8,0.5,1.4,0.5,1.7c0,0.3-0.1,0.6-0.3,1
					c-0.2,0.3-0.5,0.6-0.8,0.7c-0.4,0.2-0.8,0.3-1.2,0.3c-0.6,0-1-0.1-1.4-0.4c-0.4-0.3-0.7-0.6-1-1c-0.3-0.4-0.6-1-1.1-1.8l-2-3.3
					c-0.7-1.2-1.3-2.1-1.9-2.7c-0.6-0.6-1.1-1.1-1.7-1.3C383,164.9,382.3,164.8,381.4,164.8z M384.2,154.6h-4.5v6.7h4.4
					c1.2,0,2.2-0.1,3-0.3c0.8-0.2,1.4-0.6,1.8-1c0.4-0.5,0.6-1.2,0.6-2c0-0.7-0.2-1.3-0.5-1.8c-0.3-0.5-0.8-0.9-1.4-1.1
					C387,154.7,385.9,154.6,384.2,154.6z"/>
			</g>
		</g>
		<g>
			<path class="st9" d="M459.3,454.2H204.7c-1.8,0-3.2-1.4-3.2-3.2l0,0c0-1.8,1.4-3.2,3.2-3.2h254.6c1.8,0,3.2,1.4,3.2,3.2l0,0
				C462.5,452.8,461.1,454.2,459.3,454.2z"/>
			<path class="st9" d="M209.5,454.2h-41.2c-1.8,0-3.2-1.4-3.2-3.2l0,0c0-1.8,1.4-3.2,3.2-3.2h41.2c1.8,0,3.2,1.4,3.2,3.2l0,0
				C212.7,452.8,211.2,454.2,209.5,454.2z"/>
			<path class="st9" d="M149.3,454.2h-43.2c-1.8,0-3.2-1.4-3.2-3.2v0c0-1.8,1.4-3.2,3.2-3.2h43.2c1.8,0,3.2,1.4,3.2,3.2v0
				C152.5,452.8,151.1,454.2,149.3,454.2z"/>
			<path class="st9" d="M514.3,454.2h-35.5c-1.8,0-3.2-1.4-3.2-3.2l0,0c0-1.8,1.4-3.2,3.2-3.2h35.5c1.8,0,3.2,1.4,3.2,3.2l0,0
				C517.5,452.8,516.1,454.2,514.3,454.2z"/>
			<path class="st9" d="M560.8,454.2h-27c-1.8,0-3.2-1.4-3.2-3.2l0,0c0-1.8,1.4-3.2,3.2-3.2h27c1.8,0,3.2,1.4,3.2,3.2l0,0
				C564,452.8,562.6,454.2,560.8,454.2z"/>
		</g>
	</g>
</g>
</svg>
