<?xml version="1.0" encoding="utf-8"?>
<!-- Generator: Adobe Illustrator 24.1.0, SVG Export Plug-In . SVG Version: 6.00 Build 0)  -->
<svg version="1.1" id="Layer_1" xmlns="http://www.w3.org/2000/svg" xmlns:xlink="http://www.w3.org/1999/xlink" x="0px" y="0px"
	 viewBox="0 0 256 256" style="enable-background:new 0 0 256 256;" xml:space="preserve">
<style type="text/css">
	.st0{fill:#0000FF;}
	.st1{fill:url(#SVGID_1_);}
	.st2{fill:#BFBFFF;}
	.st3{fill:#4040FF;}
	.st4{fill:#8080FF;}
</style>
<g>
	<path class="st0" d="M116.14,159.04V99.91h20.77c12.5,0,24.47-3.82,34.6-11.05l12.06-8.6l12.06,8.6
		c10.13,7.23,22.1,11.05,34.6,11.05h0V44.1H5v173.66h139.54C125.96,201.58,116.14,181.35,116.14,159.04z M22.38,68.15
		c-3.67,0-6.64-2.97-6.64-6.64c0-3.67,2.97-6.64,6.64-6.64s6.64,2.97,6.64,6.64C29.02,65.18,26.05,68.15,22.38,68.15z M46.25,68.15
		c-3.67,0-6.64-2.97-6.64-6.64c0-3.67,2.97-6.64,6.64-6.64c3.67,0,6.64,2.97,6.64,6.64C52.89,65.18,49.92,68.15,46.25,68.15z
		 M70.13,68.15c-3.67,0-6.64-2.97-6.64-6.64c0-3.67,2.97-6.64,6.64-6.64s6.64,2.97,6.64,6.64C76.76,65.18,73.79,68.15,70.13,68.15z"
		/>
	
		<linearGradient id="SVGID_1_" gradientUnits="userSpaceOnUse" x1="3528.8875" y1="217.8235" x2="3728.3345" y2="18.3764" gradientTransform="matrix(-1 0 0 1 3759.0574 0)">
		<stop  offset="0" style="stop-color:#0000FF;stop-opacity:0"/>
		<stop  offset="1" style="stop-color:#0000FF"/>
	</linearGradient>
	<path class="st1" d="M222.6,217.76h7.63v-7.38C227.89,212.93,225.33,215.38,222.6,217.76z"/>
	<path class="st2" d="M147.12,219.96c14.21,11.59,28.6,17.01,29.19,17.23l7.26,2.71l7.25-2.71c0.61-0.22,14.99-5.65,29.2-17.23
		c0.88-0.72,1.73-1.46,2.57-2.2h-78.06C145.39,218.5,146.23,219.24,147.12,219.96z"/>
	<g>
		<path class="st2" d="M230.23,148.29v62.09C243.86,195.6,251,178.07,251,159.04v-31.52L230.23,148.29z"/>
		<polygon class="st2" points="244.37,99.91 230.23,99.91 230.23,114.05 		"/>
	</g>
	<path class="st3" d="M184.45,194.07l-39.65-39.65l17.12-17.12l22.53,22.53l39.4-39.4c-14.94-1.18-28.73-6.45-40.28-14.66l0,0
		c-13.17,9.37-29.27,14.91-46.66,14.91v13.1v25.26c0,41.27,46.66,58.72,46.66,58.72s46.66-17.44,46.66-58.72v-10.75L184.45,194.07z"
		/>
	<g>
		<path class="st4" d="M136.91,159.04v-25.26v-13.1c17.4,0,33.49-5.54,46.66-14.91l0,0c11.54,8.21,25.33,13.48,40.28,14.66
			l6.38-6.38V99.91h0c-12.5,0-24.47-3.82-34.6-11.05l-12.06-8.6l-12.06,8.6c-10.13,7.23-22.1,11.05-34.6,11.05h-20.77v59.13
			c0,22.31,9.82,42.54,28.4,58.72h39.03C183.57,217.76,136.91,200.31,136.91,159.04z"/>
		<path class="st4" d="M230.23,148.29v10.75c0,41.27-46.66,58.72-46.66,58.72h39.03c2.73-2.38,5.29-4.83,7.63-7.38L230.23,148.29
			L230.23,148.29z"/>
	</g>
</g>
</svg>
