<?xml version="1.0" encoding="utf-8"?>
<!-- Generator: Adobe Illustrator 24.1.0, SVG Export Plug-In . SVG Version: 6.00 Build 0)  -->
<svg version="1.1" id="Layer_1" xmlns="http://www.w3.org/2000/svg" xmlns:xlink="http://www.w3.org/1999/xlink" x="0px" y="0px"
	 viewBox="0 0 256 256" style="enable-background:new 0 0 256 256;" xml:space="preserve">
<style type="text/css">
	.st0{fill:#0000FF;}
	.st1{fill:#4040FF;}
	.st2{fill:#8080FF;}
</style>
<path class="st0" d="M128,181.12L128,181.12L128,181.12c0.12,0.05,10.74,3.91,10.61,3.86h0l22.72,8.27l17.73-30.71l33.33-12.13
	l-6.16-34.93l17.73-30.71l-22.09-18.54L185,83.1c7.48,21.25,2.73,45.85-14.27,62.84c-23.6,23.6-61.86,23.6-85.46,0
	s-23.6-61.86,0-85.46c23.28-23.28,60.83-23.58,84.49-0.92l22.62-22.62l-1.75-9.9h-35.46L128,4.25l-27.17,22.8H65.37l-6.16,34.93
	l-27.17,22.8l17.73,30.71l-6.16,34.93l33.33,12.13l17.73,30.71l22.72-8.27h0L128,181.12z"/>
<polygon class="st1" points="155.51,251 169.92,214.41 208.82,220.22 177.29,165.61 161.33,193.25 138.61,184.98 128,203.36 "/>
<path class="st2" d="M128,181.12c-3.51,1.28-29.82,10.85-33.33,12.13l-15.96-27.65l-31.53,54.61l38.9-5.81L100.49,251L128,203.36
	l10.61-18.38L128,181.12z"/>
<path class="st2" d="M84.04,94.27l19.39-19.39l25.51,25.51l40.83-40.83C146.1,36.9,108.55,37.2,85.27,60.48
	c-23.6,23.6-23.6,61.86,0,85.46s61.86,23.6,85.46,0c16.99-16.99,21.75-41.59,14.27-62.84l-56.07,56.07L84.04,94.27z"/>
</svg>
