<?xml version="1.0" encoding="utf-8"?>
<!-- Generator: Adobe Illustrator 24.1.0, SVG Export Plug-In . SVG Version: 6.00 Build 0)  -->
<svg version="1.1" id="Layer_1" xmlns="http://www.w3.org/2000/svg" xmlns:xlink="http://www.w3.org/1999/xlink" x="0px" y="0px"
	 viewBox="0 0 256 256" style="enable-background:new 0 0 256 256;" xml:space="preserve">
<style type="text/css">
	.st0{fill:#0000FF;}
	.st1{fill:#8080FF;}
</style>
<g>
	<rect x="64.81" y="202.49" class="st0" width="126.38" height="49.01"/>
	<path class="st0" d="M128,4.5c-53.1,0-96.15,43.05-96.15,96.15c0,34.64,18.32,65.01,45.8,81.93c0.01,0,0.01,0.01,0.02,0.01v-81.94
		c0-27.79,22.53-50.32,50.32-50.32s50.32,22.53,50.32,50.32v81.94c0.01,0,0.01-0.01,0.02-0.01c27.48-16.92,45.8-47.29,45.8-81.93
		C224.15,47.55,181.1,4.5,128,4.5z"/>
	<path class="st1" d="M128,50.32c-27.79,0-50.32,22.53-50.32,50.32v81.94c0.01,0,0.01,0.01,0.02,0.01c14.63,9,31.86,14.2,50.31,14.2
		c18.44,0,35.66-5.19,50.29-14.19c0.01-0.01,0.02-0.01,0.03-0.02v-81.94C178.32,72.85,155.79,50.32,128,50.32z M137.11,170.28
		h-18.22v-18.22h18.22V170.28z M137.11,136.02h-18.22V81.37h18.22V136.02z"/>
</g>
</svg>
