<?xml version="1.0" encoding="utf-8"?>
<!-- Generator: Adobe Illustrator 24.1.0, SVG Export Plug-In . SVG Version: 6.00 Build 0)  -->
<svg version="1.1" id="Capa_1" xmlns="http://www.w3.org/2000/svg" xmlns:xlink="http://www.w3.org/1999/xlink" x="0px" y="0px"
	 viewBox="0 0 544.2 544.2" style="enable-background:new 0 0 544.2 544.2;" xml:space="preserve">
<style type="text/css">
	.st0{fill:#FFFFFF;}
</style>
<g>
	<path class="st0" d="M468.3,424.2c-10.2-18-32.9-32.1-61.3-37.6v-21c5.4-3.4,10.4-7.8,14.8-12.9h31.5l-11.9-62.7h-0.1
		c-2.3-40.3-28.7-72.1-61.1-72.1c-11.1,0-21.5,3.8-30.5,10.4c-7.5,5.5-14,12.8-19,21.7c-6.5,11.4-10.7,25.1-11.6,40H319L307,352.6
		h12.4h19.1c1.5,1.8,3.2,3.5,4.8,5.1c3.1,3,6.4,5.7,10,7.9v21.1c-12.4,2.4-23.6,6.5-33.3,11.8c-13.7,7.4-24.1,17.3-29.6,28.7
		c-6.4-3.9-12.5-8.3-18.3-13c-4.5,3.6-9,7-13.8,10.2c-7.1-12.6-20.3-23.1-37.3-30.3c-7.4-3.1-15.4-5.7-24-7.3v-21
		c1.9-1.2,3.8-2.6,5.6-4.1c6.8-5.4,12.7-12.5,17.4-20.8c7.1-12.7,11.5-28.1,11.5-44.9c0-20.3-6.2-38.7-16.2-52.5
		c-5.5-7.6-12.1-13.8-19.6-18.1c-7.8-4.6-16.4-7.2-25.6-7.2c-33.9,0-61.3,34.8-61.3,77.8c0,30.7,14.1,57.2,34.5,69.9v21.1
		c-29.9,5.8-53.6,21-62.9,40.4C32.2,397.6,0,344.6,0,284.3c0-92.1,74.9-167.1,167.1-167.1c30.9,0,59.9,8.5,84.8,23.2
		c7.1,4.2,13.9,8.9,20.3,14.1c6.4-5.2,13.2-9.9,20.3-14.1c24.9-14.7,53.8-23.2,84.8-23.2c92.1,0,167.1,74.9,167.1,167.1
		C544.2,342.8,513.9,394.3,468.3,424.2z"/>
</g>
</svg>
