<?xml version="1.0" encoding="utf-8"?>
<!-- Generator: Adobe Illustrator 24.1.0, SVG Export Plug-In . SVG Version: 6.00 Build 0)  -->
<svg version="1.1" id="Layer_1" xmlns="http://www.w3.org/2000/svg" xmlns:xlink="http://www.w3.org/1999/xlink" x="0px" y="0px"
	 viewBox="0 0 68 68" style="enable-background:new 0 0 68 68;" xml:space="preserve">
<style type="text/css">
	.st0{fill:#4FC1EE;}
	.st1{fill:#7E8BC5;}
	.st2{fill:#222953;}
	.st3{fill:#4F4394;}
	.st4{fill:#2E4D9B;}
</style>
<g>
	<g>
		<path class="st0" d="M6.79,24.5l-0.26-0.13c-0.06,0.13-0.13,0.25-0.19,0.38l0.25,0.13C6.65,24.77,6.71,24.63,6.79,24.5z"/>
		<path class="st0" d="M6.68,20.83l-0.42-0.26c-0.06,0.1-0.13,0.19-0.19,0.28l0.39,0.26C6.52,21.01,6.6,20.92,6.68,20.83z"/>
		<path class="st0" d="M6.59,22.74L6.33,22.6c-0.06,0.1-0.13,0.21-0.19,0.33l0.23,0.14C6.46,22.94,6.52,22.84,6.59,22.74z"/>
		<path class="st0" d="M7.53,23.25l-0.33-0.18C7.14,23.19,7.08,23.3,7,23.42l0.3,0.18C7.39,23.49,7.47,23.37,7.53,23.25z"/>
		<path class="st0" d="M7.07,26.29L6.9,26.23c-0.05,0.13-0.1,0.24-0.14,0.37l0.14,0.06C6.95,26.55,7,26.42,7.07,26.29z"/>
		<path class="st0" d="M7.03,21.49l0.29,0.2c0.08-0.1,0.15-0.2,0.23-0.29l-0.32-0.2C7.17,21.29,7.09,21.39,7.03,21.49z"/>
		<path class="st0" d="M5.34,22.04c-0.06,0.1-0.11,0.2-0.16,0.29l0.34,0.2c0.06-0.1,0.13-0.2,0.19-0.29L5.34,22.04z"/>
		<path class="st0" d="M7.76,19.49l-0.47-0.35c-0.1,0.13-0.19,0.24-0.28,0.35l0.44,0.34c0.05-0.06,0.1-0.13,0.15-0.18
			C7.65,19.61,7.7,19.56,7.76,19.49z"/>
		<path class="st0" d="M6.08,25.93l-0.2-0.08c-0.04,0.1-0.09,0.21-0.13,0.32l0.19,0.08C5.98,26.13,6.03,26.03,6.08,25.93z"/>
		<path class="st0" d="M10.2,17.11l-0.54-0.57c-0.16,0.16-0.33,0.32-0.49,0.48l0.52,0.53C9.85,17.41,10.02,17.26,10.2,17.11z"/>
		<path class="st0" d="M9.14,21.15c0.1-0.13,0.21-0.24,0.32-0.35l-0.4-0.3c-0.1,0.13-0.2,0.24-0.29,0.37L9.14,21.15z"/>
		<path class="st0" d="M9.34,19.38c0.13-0.13,0.26-0.26,0.42-0.39L9.32,18.6c-0.13,0.14-0.25,0.28-0.38,0.43L9.34,19.38z"/>
		<path class="st0" d="M8.72,22.64l0.39,0.26c0.08-0.11,0.16-0.21,0.24-0.33l-0.42-0.26C8.87,22.42,8.79,22.52,8.72,22.64z"/>
		<path class="st0" d="M8.44,21.98l-0.37-0.24c-0.08,0.1-0.15,0.2-0.21,0.32l0.35,0.24C8.29,22.19,8.37,22.08,8.44,21.98z"/>
		<path class="st0" d="M8.23,19.86c-0.05,0.06-0.1,0.13-0.16,0.2c-0.04,0.05-0.09,0.11-0.13,0.16l0.35,0.28
			c0.1-0.11,0.2-0.23,0.32-0.35L8.23,19.86z"/>
		<path class="st0" d="M5.79,24.05L5.6,23.96c-0.06,0.11-0.1,0.23-0.16,0.35L5.6,24.4C5.67,24.28,5.73,24.16,5.79,24.05z"/>
		<path class="st0" d="M8.05,18.23l0.49,0.43c0.13-0.14,0.26-0.28,0.4-0.4l-0.5-0.45C8.29,17.94,8.16,18.09,8.05,18.23z"/>
		<path class="st0" d="M8.49,23.78l-0.34-0.19c-0.06,0.13-0.14,0.25-0.2,0.38l0.32,0.19C8.33,24.02,8.4,23.9,8.49,23.78z"/>
		<path class="st0" d="M7.76,24.96L7.5,24.83c-0.06,0.14-0.13,0.28-0.2,0.43l0.23,0.11C7.61,25.23,7.68,25.1,7.76,24.96z"/>
		<path class="st0" d="M11.91,18.89c-0.16,0.14-0.32,0.29-0.47,0.44l0.45,0.45c0.15-0.15,0.3-0.29,0.47-0.43L11.91,18.89z"/>
		<path class="st0" d="M12.48,17.2c-0.2,0.15-0.4,0.3-0.59,0.47l1.05,1.2c0.19-0.15,0.37-0.3,0.56-0.45L12.48,17.2z"/>
		<path class="st0" d="M5.05,25.54L4.93,25.5c-0.04,0.09-0.06,0.18-0.1,0.26l0.1,0.04C4.96,25.71,5.01,25.63,5.05,25.54z"/>
		<path class="st0" d="M12.37,14.32c-0.25,0.18-0.5,0.37-0.74,0.56l0.58,0.76c0.25-0.16,0.5-0.33,0.76-0.48L12.37,14.32z"/>
		<path class="st0" d="M10.83,19.95c-0.13,0.14-0.25,0.28-0.38,0.42l0.47,0.42c0.01-0.01,0.03-0.04,0.04-0.04
			c0.11-0.13,0.23-0.24,0.34-0.37L10.83,19.95z"/>
		<path class="st0" d="M13.85,13.37c-0.3,0.18-0.59,0.37-0.9,0.56l2.22,3.31c0.25-0.16,0.5-0.3,0.77-0.45L13.85,13.37z"/>
		<path class="st0" d="M25.77,10.19c-3.55,0-6.91,0.77-9.94,2.14l1.83,3.57c2.49-1.1,5.22-1.72,8.11-1.72
			c2.44,0,4.77,0.43,6.93,1.24l1.39-3.76C31.49,10.71,28.69,10.19,25.77,10.19z"/>
		<path class="st0" d="M15.41,12.53c-0.35,0.16-0.71,0.35-1.05,0.53l2.03,3.46c0.29-0.15,0.58-0.3,0.88-0.44L15.41,12.53z"/>
		<path class="st0" d="M13.14,15.39c-0.25,0.16-0.49,0.33-0.73,0.5l1.62,2.11c0.21-0.16,0.44-0.3,0.66-0.45L13.14,15.39z"/>
		<path class="st0" d="M4.01,25.4c0.04-0.08,0.06-0.15,0.1-0.23l-0.24-0.09c-0.03,0.08-0.05,0.14-0.09,0.21L4.01,25.4z"/>
		<path class="st0" d="M10.09,19.29c-0.13,0.14-0.26,0.26-0.39,0.42l0.42,0.37c0.13-0.13,0.26-0.26,0.4-0.39L10.09,19.29z"/>
		<path class="st0" d="M9.54,21.46l0.44,0.34c0.1-0.13,0.21-0.24,0.32-0.37l-0.47-0.35C9.74,21.21,9.64,21.34,9.54,21.46z"/>
		<path class="st0" d="M4.43,23.8l0.28,0.14c0.05-0.1,0.1-0.2,0.16-0.32l-0.3-0.14C4.52,23.59,4.47,23.7,4.43,23.8z"/>
		<path class="st0" d="M11.77,16.36c-0.2,0.16-0.4,0.33-0.61,0.49l0.49,0.56c0.2-0.15,0.42-0.29,0.63-0.44L11.77,16.36z"/>
		<path class="st0" d="M10.5,17.44c-0.16,0.15-0.33,0.3-0.49,0.45l0.45,0.45c0.16-0.14,0.34-0.29,0.52-0.43L10.5,17.44z"/>
		<path class="st0" d="M11.71,18.69l-0.45-0.48c-0.16,0.14-0.33,0.29-0.49,0.44l0.44,0.45C11.37,18.95,11.53,18.81,11.71,18.69z"/>
		<path class="st0" d="M11.55,16.07l-0.57-0.68c-0.21,0.16-0.42,0.35-0.62,0.52l0.56,0.63C11.12,16.39,11.33,16.23,11.55,16.07z"/>
	</g>
	<g>
		<path class="st1" d="M40.05,53.36l-0.39-0.52c-0.16,0.1-0.32,0.21-0.47,0.33l0.4,0.54C39.75,53.6,39.91,53.49,40.05,53.36z"/>
		<path class="st1" d="M39.33,52.4L39,51.97c-0.16,0.1-0.32,0.2-0.48,0.3l0.35,0.47C39.03,52.64,39.18,52.53,39.33,52.4z"/>
		<path class="st1" d="M40.25,48.92l-0.34-0.34c-0.1,0.09-0.2,0.18-0.3,0.26l0.37,0.35C40.07,49.11,40.16,49.02,40.25,48.92z"/>
		<path class="st1" d="M38.24,51.92c0.15-0.1,0.3-0.21,0.45-0.33l-0.33-0.44c-0.16,0.1-0.32,0.2-0.48,0.3L38.24,51.92z"/>
		<path class="st1" d="M38.74,54.32l-0.4-0.62c-0.2,0.11-0.39,0.23-0.59,0.34l0.43,0.66C38.33,54.57,38.53,54.46,38.74,54.32z"/>
		<path class="st1" d="M41.31,52.31l-0.37-0.43c-0.08,0.06-0.14,0.13-0.21,0.18c-0.05,0.04-0.1,0.06-0.14,0.1l0.38,0.43
			C41.08,52.51,41.2,52.41,41.31,52.31z"/>
		<path class="st1" d="M40.34,51.61c0.06-0.06,0.13-0.11,0.2-0.18l-0.29-0.33c-0.13,0.1-0.24,0.19-0.37,0.28l0.32,0.35
			C40.24,51.68,40.29,51.64,40.34,51.61z"/>
		<path class="st1" d="M41.27,47.78l-0.29-0.26c-0.1,0.1-0.2,0.21-0.29,0.32l0.32,0.26C41.1,48,41.18,47.88,41.27,47.78z"/>
		<path class="st1" d="M40.96,49.65l-0.29-0.29c-0.1,0.09-0.19,0.16-0.29,0.25l0.3,0.29C40.78,49.83,40.88,49.74,40.96,49.65z"/>
		<path class="st1" d="M41.66,50.37l-0.25-0.25c-0.09,0.08-0.18,0.16-0.26,0.24l0.26,0.26C41.5,50.53,41.59,50.44,41.66,50.37z"/>
		<path class="st1" d="M38.47,49.76l0.39,0.45c0.13-0.1,0.24-0.2,0.35-0.3l-0.38-0.43C38.72,49.56,38.6,49.66,38.47,49.76z"/>
		<path class="st1" d="M36.72,54.1l-0.37-0.64c-0.23,0.1-0.47,0.21-0.71,0.32l0.38,0.71C36.25,54.36,36.49,54.23,36.72,54.1z"/>
		<path class="st1" d="M34.61,55.44l0.42,0.92c0.29-0.13,0.58-0.26,0.86-0.4l-0.42-0.85C35.18,55.23,34.9,55.34,34.61,55.44z"/>
		<path class="st1" d="M31.51,53.42c-0.32,0.1-0.64,0.19-0.97,0.26l1.11,3.85c0.39-0.1,0.78-0.2,1.16-0.33L31.51,53.42z"/>
		<path class="st1" d="M37.47,52.43l-0.34-0.52c-0.19,0.1-0.39,0.21-0.58,0.3l0.35,0.56C37.1,52.65,37.3,52.54,37.47,52.43z"/>
		<path class="st1" d="M39.87,50.66l-0.32-0.35c-0.13,0.1-0.25,0.19-0.38,0.29l0.33,0.38C39.63,50.86,39.76,50.76,39.87,50.66z"/>
		<path class="st1" d="M38.05,53.31l-0.35-0.54c-0.2,0.11-0.39,0.21-0.59,0.32l0.37,0.58C37.68,53.55,37.87,53.42,38.05,53.31z"/>
		<path class="st1" d="M37.34,55.19l-0.42-0.73c-0.24,0.11-0.48,0.23-0.72,0.34l0.43,0.78C36.86,55.45,37.1,55.33,37.34,55.19z"/>
		<path class="st1" d="M36.4,51.96c0.19-0.11,0.37-0.23,0.56-0.34l-0.35-0.54c-0.18,0.11-0.35,0.23-0.54,0.34L36.4,51.96z"/>
		<path class="st1" d="M45.23,47.34l0.21,0.13c0.04-0.06,0.08-0.11,0.11-0.18l-0.2-0.14C45.32,47.21,45.28,47.28,45.23,47.34z"/>
		<path class="st1" d="M44.45,48.89c0.06-0.09,0.13-0.16,0.19-0.25l-0.24-0.2c-0.06,0.09-0.14,0.18-0.21,0.26L44.45,48.89z"/>
		<path class="st1" d="M37.66,51.14c0.15-0.1,0.3-0.21,0.45-0.33l-0.39-0.52c-0.04,0.03-0.06,0.05-0.1,0.08l0,0
			c-0.11,0.09-0.23,0.16-0.35,0.25L37.66,51.14z"/>
		<path class="st1" d="M44.63,46.65l-0.09-0.06c-0.05,0.08-0.1,0.15-0.16,0.23l0.1,0.06C44.54,46.8,44.58,46.72,44.63,46.65z"/>
		<path class="st1" d="M35.49,53.51c0.23-0.11,0.45-0.23,0.68-0.34l-0.78-1.38c-0.21,0.11-0.43,0.23-0.64,0.34L35.49,53.51z"/>
		<path class="st1" d="M42.05,48.48l-0.24-0.21c-0.09,0.1-0.18,0.2-0.28,0.29l0.26,0.23C41.88,48.67,41.97,48.58,42.05,48.48z"/>
		<path class="st1" d="M33.37,57.02c0.34-0.13,0.67-0.25,1.01-0.38l-1.53-3.67c-0.28,0.1-0.57,0.2-0.86,0.3L33.37,57.02z"/>
		<path class="st1" d="M34.48,55.16c0.28-0.11,0.56-0.23,0.83-0.35l-1.17-2.4c-0.25,0.11-0.49,0.23-0.74,0.33L34.48,55.16z"/>
		<path class="st1" d="M30.12,53.78c-1.4,0.3-2.85,0.48-4.34,0.48c-3.85,0-7.44-1.09-10.5-2.97l-2.09,3.41
			c3.66,2.26,7.97,3.56,12.59,3.56c1.87,0,3.68-0.21,5.43-0.62L30.12,53.78z"/>
		<path class="st1" d="M42.8,49.15l-0.2-0.18c-0.09,0.09-0.16,0.18-0.25,0.26l0.21,0.18C42.63,49.32,42.71,49.23,42.8,49.15z"/>
		<path class="st1" d="M42.72,47.63c0.09-0.1,0.16-0.21,0.24-0.33l-0.2-0.15c-0.09,0.1-0.18,0.21-0.26,0.33L42.72,47.63z"/>
		<path class="st1" d="M42.48,51.19l-0.33-0.33c-0.09,0.08-0.16,0.15-0.25,0.23l0.35,0.34C42.32,51.34,42.4,51.26,42.48,51.19z"/>
		<path class="st1" d="M42.14,46.66l-0.23-0.18c-0.1,0.11-0.2,0.23-0.3,0.35l0.26,0.19C41.97,46.9,42.05,46.77,42.14,46.66z"/>
		<path class="st1" d="M43.81,46.08l-0.14-0.1c-0.06,0.09-0.13,0.18-0.19,0.26l0.16,0.1C43.69,46.26,43.76,46.17,43.81,46.08z"/>
		<path class="st1" d="M43.13,49.89l0.32,0.26c0.06-0.08,0.14-0.16,0.2-0.25l-0.29-0.25C43.28,49.73,43.2,49.81,43.13,49.89z"/>
		<path class="st1" d="M43.53,48.22c0.08-0.1,0.14-0.2,0.21-0.29l-0.14-0.11c-0.08,0.1-0.16,0.19-0.24,0.29L43.53,48.22z"/>
		<path class="st1" d="M42.77,45.36c-0.08,0.1-0.14,0.2-0.23,0.32l0.18,0.11c0.06-0.1,0.13-0.2,0.2-0.32L42.77,45.36z"/>
	</g>
	<g>
		<path class="st2" d="M28.6,37.06c-0.72,0.72-1.73,1.17-2.84,1.17c-2.21,0-4-1.79-4-4c0-2.21,1.79-4,4-4
			c1.11,0,2.11,0.45,2.84,1.17l2.84-2.84c-1.45-1.45-3.46-2.35-5.67-2.35c-4.43,0-8.01,3.58-8.01,8.01s3.58,8.01,8.01,8.01
			c2.21,0,4.21-0.9,5.67-2.35L28.6,37.06z"/>
		<path class="st2" d="M62.13,37.06c-0.72,0.72-1.73,1.17-2.84,1.17c-2.21,0-4-1.79-4-4c0-2.21,1.79-4,4-4
			c1.11,0,2.11,0.45,2.84,1.17l2.84-2.84c-1.45-1.45-3.46-2.35-5.67-2.35c-4.43,0-8.01,3.58-8.01,8.01s3.58,8.01,8.01,8.01
			c2.21,0,4.21-0.9,5.67-2.35L62.13,37.06z"/>
		<rect x="33.29" y="27.01" class="st2" width="4" height="14.42"/>
		<polygon class="st2" points="50.27,27.01 39.58,27.01 39.58,31.03 45.22,31.03 42.93,32.34 42.93,41.44 46.92,41.44 46.92,31.03 
			50.27,31.03 		"/>
	</g>
	<g>
		<path class="st3" d="M17.79,43.34c-0.14-0.1-0.28-0.21-0.42-0.33l-0.39,0.42c0.13,0.13,0.26,0.26,0.4,0.39L17.79,43.34z"/>
		<path class="st3" d="M16.52,42.23l-0.34,0.29c0.11,0.15,0.24,0.29,0.37,0.43l0.38-0.34C16.78,42.48,16.66,42.36,16.52,42.23z"/>
		<path class="st3" d="M18.17,44.91c-0.16-0.1-0.33-0.2-0.49-0.29l-0.35,0.45c0.16,0.13,0.32,0.25,0.48,0.37L18.17,44.91z"/>
		<path class="st3" d="M15.17,42.39c-0.11-0.13-0.21-0.26-0.33-0.39l-0.16,0.11c0.1,0.14,0.19,0.29,0.29,0.43L15.17,42.39z"/>
		<path class="st3" d="M17.06,44.17c-0.15-0.11-0.3-0.23-0.45-0.35l-0.3,0.32c0.14,0.14,0.29,0.28,0.43,0.42L17.06,44.17z"/>
		<path class="st3" d="M15.82,43.63l0.28-0.25c-0.14-0.13-0.28-0.26-0.42-0.4l-0.24,0.2C15.56,43.33,15.7,43.48,15.82,43.63z"/>
		<path class="st3" d="M32.43,44.22c-1.91,1.27-4.2,2.02-6.66,2.02c-0.74,0-1.46-0.06-2.17-0.2l-0.77,3.92
			c0.96,0.18,1.94,0.28,2.94,0.28c3.28,0,6.33-0.98,8.88-2.69L32.43,44.22z"/>
		<path class="st3" d="M13.21,43.18l-0.23,0.16c0.1,0.15,0.2,0.3,0.32,0.45l0.25-0.19C13.44,43.47,13.32,43.33,13.21,43.18z"/>
		<path class="st3" d="M22.43,45.78l-1.11,3.82c0.26,0.09,0.54,0.16,0.82,0.24c0.1,0.03,0.2,0.05,0.3,0.06l0.81-3.92
			C22.98,45.91,22.71,45.85,22.43,45.78z"/>
		<path class="st3" d="M14.16,44.29l-0.28,0.24c0.14,0.16,0.28,0.33,0.43,0.49l0.3-0.28C14.45,44.6,14.3,44.45,14.16,44.29z"/>
		<path class="st3" d="M17.94,44.27c0.14,0.11,0.29,0.23,0.44,0.33l0.42-0.59c-0.15-0.09-0.29-0.18-0.43-0.28L17.94,44.27z"/>
		<path class="st3" d="M18.98,46.15l0.38-0.67c-0.2-0.09-0.39-0.18-0.59-0.26l-0.38,0.59C18.57,45.93,18.78,46.04,18.98,46.15z"/>
		<path class="st3" d="M14.36,43.01c-0.11-0.13-0.23-0.26-0.33-0.4l-0.16,0.11c0.1,0.15,0.2,0.29,0.3,0.43L14.36,43.01z"/>
		<path class="st3" d="M16.05,41.74c-0.11-0.13-0.21-0.25-0.32-0.38l-0.25,0.18c0.09,0.14,0.18,0.28,0.28,0.42L16.05,41.74z"/>
		<path class="st3" d="M19.71,48.01c-0.28-0.1-0.54-0.21-0.82-0.33l-0.37,0.72c0.28,0.15,0.56,0.29,0.83,0.43L19.71,48.01z"/>
		<path class="st3" d="M21.17,48.46c-0.32-0.08-0.63-0.16-0.95-0.26l-0.34,0.87c0.33,0.14,0.64,0.26,0.98,0.38L21.17,48.46z"/>
		<path class="st3" d="M20.15,46.95c-0.26-0.08-0.52-0.16-0.76-0.26l-0.34,0.68c0.25,0.13,0.5,0.25,0.77,0.37L20.15,46.95z"/>
		<path class="st3" d="M22.04,45.65c-0.24-0.08-0.48-0.16-0.71-0.25l-1,2.55c0.29,0.11,0.59,0.23,0.91,0.33L22.04,45.65z"/>
		<path class="st3" d="M18.91,44.97c0.18,0.11,0.35,0.21,0.54,0.32l0.35-0.63c-0.16-0.1-0.34-0.2-0.5-0.3L18.91,44.97z"/>
		<path class="st3" d="M15.36,44.06c-0.15-0.14-0.29-0.29-0.43-0.43l-0.23,0.2c0.13,0.16,0.26,0.32,0.4,0.47L15.36,44.06z"/>
		<path class="st3" d="M19.52,46.43c0.23,0.11,0.48,0.21,0.72,0.32l0.66-1.55c-0.2-0.09-0.4-0.19-0.59-0.29L19.52,46.43z"/>
		<path class="st3" d="M16.96,46.63c-0.09-0.06-0.19-0.11-0.28-0.18c-0.1-0.06-0.19-0.14-0.29-0.2l-0.35,0.45
			c0.19,0.15,0.37,0.29,0.56,0.44L16.96,46.63z"/>
		<path class="st3" d="M16.38,44.94c-0.16-0.13-0.33-0.26-0.48-0.39l-0.28,0.29c0.15,0.15,0.3,0.29,0.45,0.44L16.38,44.94z"/>
		<path class="st3" d="M18.83,46.43c-0.21-0.1-0.43-0.2-0.64-0.32l-0.34,0.53c0.21,0.14,0.43,0.26,0.64,0.39L18.83,46.43z"/>
		<path class="st3" d="M15.7,45.73c-0.18-0.14-0.34-0.28-0.5-0.43l-0.33,0.34c0.16,0.16,0.33,0.32,0.49,0.48L15.7,45.73z"/>
		<path class="st3" d="M18.3,47.39c-0.23-0.11-0.45-0.24-0.68-0.37l-0.37,0.58c0.23,0.15,0.45,0.3,0.69,0.44L18.3,47.39z"/>
		<path class="st3" d="M17.24,46.23l0.33-0.47c-0.18-0.1-0.35-0.23-0.52-0.34l-0.33,0.4c0.09,0.06,0.16,0.14,0.26,0.2
			C17.06,46.1,17.15,46.17,17.24,46.23z"/>
	</g>
	<g>
		<path class="st4" d="M24.01,21.01l-0.04-0.33c-0.21,0.03-0.43,0.05-0.63,0.08l0.06,0.38C23.61,21.1,23.81,21.05,24.01,21.01z"/>
		<path class="st4" d="M24.16,22.11l-0.06-0.44c-0.2,0.03-0.4,0.05-0.61,0.08l0.08,0.49C23.77,22.19,23.96,22.14,24.16,22.11z"/>
		<path class="st4" d="M15.76,21.77l0.66,0.79c0.23-0.21,0.47-0.42,0.72-0.61l-0.54-0.78C16.3,21.36,16.04,21.55,15.76,21.77z"/>
		<path class="st4" d="M18.83,22.09l-0.38-0.68c-0.24,0.14-0.48,0.28-0.71,0.43l0.47,0.71C18.4,22.4,18.61,22.24,18.83,22.09z"/>
		<path class="st4" d="M23.01,18.7l0.06,0.42c0.23-0.05,0.45-0.1,0.68-0.13l-0.05-0.38C23.48,18.64,23.25,18.66,23.01,18.7z"/>
		<path class="st4" d="M19.51,20.4l-0.29-0.64c-0.25,0.1-0.49,0.21-0.74,0.33l0.35,0.68C19.05,20.64,19.28,20.52,19.51,20.4z"/>
		<path class="st4" d="M18.27,21.12l-0.4-0.72c-0.26,0.14-0.53,0.29-0.78,0.45l0.49,0.74C17.8,21.44,18.04,21.27,18.27,21.12z"/>
		<path class="st4" d="M24.64,18.55l0.01,0.33c0.2-0.03,0.4-0.04,0.61-0.05l-0.01-0.29C25.06,18.54,24.84,18.54,24.64,18.55z"/>
		<path class="st4" d="M25.31,19.81v-0.2c-0.2,0-0.4,0-0.59,0.01l0.01,0.24C24.91,19.85,25.11,19.83,25.31,19.81z"/>
		<path class="st4" d="M15.38,22.06c-0.19,0.15-0.37,0.3-0.56,0.47c-0.1,0.09-0.19,0.18-0.28,0.26l2.81,2.84
			c0.19-0.19,0.38-0.35,0.58-0.53L15.38,22.06z"/>
		<path class="st4" d="M25.39,21.92l-0.01-0.3c-0.19,0-0.38,0-0.57,0l0.03,0.37C25.02,21.95,25.2,21.94,25.39,21.92z"/>
		<path class="st4" d="M23.89,20l-0.04-0.3c-0.23,0.03-0.44,0.05-0.66,0.09l0.05,0.35C23.46,20.07,23.67,20.04,23.89,20z"/>
		<path class="st4" d="M25.35,20.82v-0.2c-0.2,0-0.39,0-0.58,0.01l0.01,0.25C24.96,20.86,25.16,20.83,25.35,20.82z"/>
		<path class="st4" d="M22.31,19.32l-0.1-0.47c-0.23,0.05-0.45,0.1-0.68,0.15l0.14,0.52C21.87,19.44,22.09,19.38,22.31,19.32z"/>
		<path class="st4" d="M22.76,21.34l-0.1-0.44c-0.2,0.04-0.4,0.09-0.61,0.15l0.13,0.49C22.38,21.45,22.57,21.39,22.76,21.34z"/>
		<path class="st4" d="M23,22.4l-0.13-0.54c-0.19,0.04-0.38,0.09-0.56,0.13l0.16,0.59C22.64,22.51,22.83,22.45,23,22.4z"/>
		<path class="st4" d="M18.95,22.33c-0.21,0.13-0.43,0.26-0.64,0.4l0.92,1.4c0.18-0.11,0.35-0.23,0.54-0.33L18.95,22.33z"/>
		<path class="st4" d="M19.95,21.4l-0.26-0.61c-0.23,0.1-0.45,0.2-0.67,0.32l0.33,0.64C19.54,21.63,19.75,21.51,19.95,21.4z"/>
		<path class="st4" d="M20.49,22.62c-0.19,0.09-0.38,0.18-0.56,0.26l0.33,0.64c0.16-0.09,0.34-0.18,0.52-0.25L20.49,22.62z"/>
		<path class="st4" d="M14.3,23.05c-2.81,2.89-4.54,6.83-4.54,11.18h4.01c0-3.24,1.29-6.2,3.38-8.35L14.3,23.05z"/>
		<path class="st4" d="M17.27,22.16c-0.25,0.18-0.49,0.35-0.73,0.56l1.74,2.13c0.19-0.15,0.38-0.29,0.57-0.43L17.27,22.16z"/>
		<path class="st4" d="M20.68,19.87c0.05-0.03,0.1-0.04,0.16-0.06l-0.19-0.57c-0.23,0.06-0.45,0.15-0.68,0.23l0.23,0.61
			C20.35,20,20.52,19.94,20.68,19.87z"/>
		<path class="st4" d="M20.38,22.37l-0.28-0.63c-0.2,0.1-0.4,0.19-0.61,0.29l0.34,0.67C20.01,22.59,20.2,22.48,20.38,22.37z"/>
		<path class="st4" d="M21.16,20.81L21,20.3c-0.05,0.01-0.1,0.03-0.14,0.04c-0.16,0.05-0.32,0.11-0.48,0.18l0.21,0.56
			C20.78,20.98,20.97,20.89,21.16,20.81z"/>
		<path class="st4" d="M21.83,22.83l-0.2-0.63c-0.18,0.06-0.35,0.11-0.52,0.19l0.26,0.67C21.5,22.96,21.66,22.89,21.83,22.83z"/>
		<path class="st4" d="M21.49,21.8l-0.18-0.54c-0.19,0.06-0.38,0.13-0.57,0.2l0.23,0.59C21.15,21.97,21.31,21.89,21.49,21.8z"/>
		<path class="st4" d="M22.54,20.31l-0.09-0.4c-0.21,0.05-0.43,0.1-0.64,0.15l0.13,0.45C22.12,20.45,22.32,20.38,22.54,20.31z"/>
	</g>
</g>
</svg>
