<?xml version="1.0" encoding="utf-8"?>
<!-- Generator: Adobe Illustrator 24.1.0, SVG Export Plug-In . SVG Version: 6.00 Build 0)  -->
<svg version="1.1" id="Layer_1" xmlns="http://www.w3.org/2000/svg" xmlns:xlink="http://www.w3.org/1999/xlink" x="0px" y="0px"
	 viewBox="0 0 256 256" style="enable-background:new 0 0 256 256;" xml:space="preserve">
<style type="text/css">
	.st0{fill:#4527A0;}
	.st1{fill:#FFFFFF;}
</style>
<path class="st0" d="M102.4-0.38h51.2c56.58,0,102.4,45.82,102.4,102.4v51.2c0,56.58-45.82,102.4-102.4,102.4h-51.2
	C45.82,255.63,0,209.8,0,153.23v-51.2C0,45.45,45.82-0.38,102.4-0.38z"/>
<g>
	<g>
		<path class="st1" d="M37.17,95.63l-0.92-0.41c-0.2,0.41-0.41,0.82-0.61,1.28l0.87,0.41C36.76,96.5,36.97,96.03,37.17,95.63z"/>
		<path class="st1" d="M36.81,83.49l-1.38-0.87c-0.2,0.31-0.41,0.61-0.61,0.92l1.28,0.87C36.35,84.11,36.56,83.8,36.81,83.49z"/>
		<path class="st1" d="M36.56,89.79l-0.82-0.46c-0.2,0.36-0.41,0.72-0.61,1.08l0.77,0.46C36.1,90.5,36.3,90.15,36.56,89.79z"/>
		<path class="st1" d="M39.68,91.53l-1.08-0.56c-0.2,0.36-0.46,0.77-0.67,1.13l0.97,0.56C39.17,92.3,39.42,91.89,39.68,91.53z"/>
		<path class="st1" d="M38.09,101.51l-0.56-0.2c-0.15,0.41-0.31,0.82-0.46,1.23l0.46,0.2C37.73,102.33,37.89,101.92,38.09,101.51z"
			/>
		<path class="st1" d="M37.99,85.69l0.97,0.67c0.26-0.31,0.51-0.61,0.72-0.97l-1.02-0.67C38.45,85.03,38.2,85.33,37.99,85.69z"/>
		<path class="st1" d="M32.41,87.54c-0.2,0.31-0.36,0.67-0.56,0.97l1.13,0.67c0.2-0.31,0.41-0.67,0.61-0.97L32.41,87.54z"/>
		<path class="st1" d="M40.35,79.14l-1.54-1.18c-0.31,0.41-0.61,0.77-0.92,1.18l1.48,1.13c0.15-0.2,0.31-0.41,0.46-0.56
			C40.04,79.5,40.19,79.34,40.35,79.14z"/>
		<path class="st1" d="M34.87,100.28l-0.67-0.26c-0.15,0.36-0.26,0.72-0.41,1.02l0.61,0.26C34.51,101,34.71,100.64,34.87,100.28z"/>
		<path class="st1" d="M48.38,71.31l-1.79-1.84c-0.56,0.51-1.13,1.02-1.64,1.59l1.74,1.74C47.26,72.28,47.82,71.77,48.38,71.31z"/>
		<path class="st1" d="M44.9,84.57c0.36-0.41,0.67-0.77,1.02-1.18l-1.33-1.02c-0.31,0.41-0.67,0.82-0.97,1.18L44.9,84.57z"/>
		<path class="st1" d="M45.62,78.73c0.46-0.46,0.87-0.87,1.33-1.28l-1.43-1.28c-0.41,0.46-0.82,0.92-1.28,1.38L45.62,78.73z"/>
		<path class="st1" d="M43.57,89.48l1.28,0.87c0.26-0.36,0.51-0.72,0.82-1.08l-1.38-0.87C44.03,88.71,43.78,89.07,43.57,89.48z"/>
		<path class="st1" d="M42.65,87.33l-1.23-0.77c-0.26,0.36-0.46,0.67-0.72,1.02l1.13,0.77C42.14,88,42.39,87.64,42.65,87.33z"/>
		<path class="st1" d="M41.93,80.32c-0.15,0.2-0.36,0.41-0.51,0.61c-0.15,0.2-0.31,0.41-0.46,0.56l1.18,0.92
			c0.36-0.41,0.67-0.77,1.02-1.13L41.93,80.32z"/>
		<path class="st1" d="M33.89,94.14l-0.61-0.31c-0.2,0.36-0.36,0.77-0.51,1.13l0.51,0.26C33.48,94.91,33.69,94.5,33.89,94.14z"/>
		<path class="st1" d="M41.32,74.99l1.59,1.43c0.46-0.46,0.87-0.92,1.33-1.33l-1.69-1.48C42.14,74.02,41.73,74.48,41.32,74.99z"/>
		<path class="st1" d="M42.8,93.22l-1.13-0.61c-0.26,0.41-0.46,0.82-0.72,1.23l1.02,0.61C42.24,94.04,42.5,93.63,42.8,93.22z"/>
		<path class="st1" d="M40.4,97.11l-0.87-0.41c-0.2,0.46-0.46,0.92-0.67,1.38l0.77,0.41C39.88,98.03,40.14,97.57,40.4,97.11z"/>
		<path class="st1" d="M54.07,77.14c-0.51,0.46-1.02,0.97-1.54,1.43l1.48,1.48c0.51-0.46,1.02-0.97,1.54-1.43L54.07,77.14z"/>
		<path class="st1" d="M55.91,71.56c-0.67,0.51-1.33,1.02-1.95,1.54l3.43,3.94c0.61-0.51,1.23-1.02,1.84-1.48L55.91,71.56z"/>
		<path class="st1" d="M31.44,99l-0.36-0.15c-0.1,0.31-0.2,0.61-0.36,0.92l0.31,0.15C31.18,99.62,31.33,99.31,31.44,99z"/>
		<path class="st1" d="M55.55,62.09c-0.82,0.61-1.64,1.18-2.46,1.79l1.89,2.51c0.82-0.56,1.69-1.08,2.51-1.59L55.55,62.09z"/>
		<path class="st1" d="M50.48,80.62c-0.41,0.46-0.82,0.92-1.23,1.38l1.54,1.38c0.05-0.05,0.1-0.1,0.15-0.15
			c0.36-0.41,0.72-0.82,1.13-1.18L50.48,80.62z"/>
		<path class="st1" d="M60.47,58.97c-0.97,0.61-2,1.23-2.92,1.84l7.27,10.85c0.82-0.51,1.69-1.02,2.51-1.48L60.47,58.97z"/>
		<path class="st1" d="M99.69,48.52c-11.67,0-22.73,2.51-32.72,7.07l5.99,11.78c8.14-3.64,17.2-5.63,26.73-5.63
			c8.04,0,15.72,1.43,22.84,4.04l4.56-12.39C118.53,50.21,109.31,48.52,99.69,48.52z"/>
		<path class="st1" d="M65.59,56.2c-1.18,0.56-2.3,1.13-3.48,1.74l6.66,11.37c0.97-0.51,1.89-0.97,2.87-1.43L65.59,56.2z"/>
		<path class="st1" d="M58.06,65.62c-0.82,0.56-1.64,1.08-2.41,1.69l5.32,6.96c0.72-0.51,1.43-1.02,2.15-1.48L58.06,65.62z"/>
		<path class="st1" d="M28.01,98.59c0.1-0.26,0.2-0.51,0.31-0.72l-0.77-0.31c-0.1,0.26-0.2,0.46-0.26,0.72L28.01,98.59z"/>
		<path class="st1" d="M48.08,78.47c-0.41,0.46-0.87,0.87-1.28,1.33l1.38,1.23c0.46-0.41,0.87-0.87,1.33-1.28L48.08,78.47z"/>
		<path class="st1" d="M46.23,85.59l1.43,1.13c0.36-0.41,0.72-0.82,1.02-1.18l-1.54-1.18C46.9,84.77,46.59,85.18,46.23,85.59z"/>
		<path class="st1" d="M29.39,93.27l0.92,0.46c0.15-0.36,0.36-0.67,0.51-1.02L29.9,92.3C29.7,92.6,29.54,92.96,29.39,93.27z"/>
		<path class="st1" d="M53.61,68.8c-0.67,0.51-1.33,1.08-2,1.64l1.59,1.84c0.67-0.51,1.38-0.97,2.05-1.43L53.61,68.8z"/>
		<path class="st1" d="M49.41,72.33c-0.56,0.51-1.08,1.02-1.64,1.54l1.48,1.48c0.56-0.46,1.13-0.92,1.69-1.38L49.41,72.33z"/>
		<path class="st1" d="M53.4,76.43l-1.54-1.59c-0.56,0.46-1.08,0.97-1.59,1.48l1.48,1.48C52.28,77.35,52.84,76.89,53.4,76.43z"/>
		<path class="st1" d="M52.84,67.87l-1.89-2.25c-0.67,0.56-1.38,1.13-2.05,1.74l1.79,2.1C51.4,68.9,52.12,68.39,52.84,67.87z"/>
	</g>
	<g>
		<path class="st1" d="M146.74,190.65l-1.28-1.69c-0.51,0.36-1.02,0.72-1.54,1.08l1.33,1.79
			C145.72,191.42,146.23,191.01,146.74,190.65z"/>
		<path class="st1" d="M144.33,187.48l-1.08-1.43c-0.51,0.36-1.02,0.67-1.59,1.02l1.13,1.54
			C143.36,188.25,143.82,187.89,144.33,187.48z"/>
		<path class="st1" d="M147.35,176.01l-1.13-1.13c-0.31,0.31-0.67,0.56-0.97,0.87l1.23,1.18
			C146.74,176.62,147.05,176.32,147.35,176.01z"/>
		<path class="st1" d="M140.8,185.84c0.51-0.36,1.02-0.72,1.48-1.08l-1.08-1.43c-0.51,0.36-1.02,0.67-1.54,1.02L140.8,185.84z"/>
		<path class="st1" d="M142.34,193.78l-1.33-2.05c-0.67,0.36-1.28,0.77-1.95,1.13l1.38,2.15
			C141.06,194.65,141.72,194.24,142.34,193.78z"/>
		<path class="st1" d="M150.84,187.17l-1.23-1.38c-0.26,0.2-0.46,0.41-0.72,0.56c-0.15,0.1-0.31,0.2-0.46,0.36l1.28,1.43
			C150.07,187.84,150.48,187.53,150.84,187.17z"/>
		<path class="st1" d="M147.66,184.82c0.2-0.2,0.41-0.41,0.67-0.56l-0.97-1.13c-0.41,0.31-0.82,0.61-1.23,0.92l1.02,1.18
			C147.3,185.12,147.51,184.97,147.66,184.82z"/>
		<path class="st1" d="M150.73,172.27l-0.97-0.87c-0.31,0.36-0.67,0.67-0.97,1.02l1.02,0.87
			C150.17,172.99,150.43,172.63,150.73,172.27z"/>
		<path class="st1" d="M149.71,178.42l-0.92-0.97c-0.31,0.26-0.61,0.56-0.92,0.82l0.97,0.97
			C149.15,178.98,149.4,178.67,149.71,178.42z"/>
		<path class="st1" d="M152.06,180.77l-0.82-0.82c-0.31,0.26-0.61,0.51-0.87,0.77l0.87,0.87
			C151.5,181.33,151.76,181.03,152.06,180.77z"/>
		<path class="st1" d="M141.52,178.77l1.28,1.48c0.41-0.36,0.77-0.67,1.18-1.02l-1.23-1.43
			C142.34,178.16,141.93,178.47,141.52,178.77z"/>
		<path class="st1" d="M135.73,193.11l-1.23-2.15c-0.77,0.36-1.54,0.72-2.36,1.02l1.23,2.3
			C134.2,193.93,134.96,193.52,135.73,193.11z"/>
		<path class="st1" d="M128.77,197.46l1.38,3.07c0.97-0.41,1.89-0.87,2.82-1.33l-1.38-2.82
			C130.66,196.8,129.74,197.15,128.77,197.46z"/>
		<path class="st1" d="M118.58,190.81c-1.08,0.31-2.1,0.61-3.17,0.87l3.69,12.7c1.28-0.31,2.56-0.67,3.79-1.08L118.58,190.81z"/>
		<path class="st1" d="M138.24,187.53l-1.13-1.74c-0.61,0.36-1.28,0.67-1.89,1.02l1.18,1.84
			C137.01,188.3,137.63,187.94,138.24,187.53z"/>
		<path class="st1" d="M146.12,181.74l-1.02-1.18c-0.41,0.31-0.82,0.61-1.23,0.92l1.08,1.23
			C145.36,182.41,145.72,182.05,146.12,181.74z"/>
		<path class="st1" d="M140.13,190.45l-1.18-1.74c-0.67,0.36-1.28,0.72-1.95,1.02l1.23,1.89
			C138.91,191.27,139.52,190.86,140.13,190.45z"/>
		<path class="st1" d="M137.78,196.64l-1.38-2.41c-0.77,0.41-1.59,0.77-2.41,1.13l1.38,2.61
			C136.19,197.56,137.01,197.1,137.78,196.64z"/>
		<path class="st1" d="M134.66,186.04c0.61-0.36,1.23-0.72,1.84-1.13l-1.18-1.79c-0.61,0.36-1.18,0.77-1.79,1.13L134.66,186.04z"/>
		<path class="st1" d="M163.79,170.84l0.72,0.46c0.1-0.2,0.26-0.41,0.36-0.56l-0.67-0.46C164.04,170.43,163.94,170.63,163.79,170.84
			z"/>
		<path class="st1" d="M161.23,175.91c0.2-0.26,0.41-0.56,0.61-0.82l-0.82-0.61c-0.2,0.31-0.46,0.56-0.67,0.87L161.23,175.91z"/>
		<path class="st1" d="M138.85,183.33c0.51-0.36,0.97-0.72,1.48-1.08l-1.28-1.69c-0.1,0.1-0.26,0.15-0.36,0.26l0,0
			c-0.36,0.26-0.77,0.56-1.13,0.82L138.85,183.33z"/>
		<path class="st1" d="M161.79,168.53l-0.26-0.2c-0.15,0.26-0.36,0.46-0.51,0.72l0.36,0.2
			C161.48,168.99,161.64,168.79,161.79,168.53z"/>
		<path class="st1" d="M131.74,191.11c0.77-0.36,1.48-0.72,2.25-1.13l-2.61-4.56c-0.72,0.36-1.38,0.77-2.1,1.13L131.74,191.11z"/>
		<path class="st1" d="M153.29,174.52l-0.82-0.72c-0.31,0.31-0.61,0.61-0.92,0.92l0.87,0.72
			C152.73,175.19,152.99,174.88,153.29,174.52z"/>
		<path class="st1" d="M124.72,202.68c1.13-0.41,2.2-0.82,3.33-1.28l-5.02-12.08c-0.92,0.36-1.89,0.67-2.82,0.97L124.72,202.68z"/>
		<path class="st1" d="M128.41,196.59c0.92-0.36,1.84-0.77,2.71-1.18l-3.84-7.88c-0.82,0.36-1.64,0.72-2.46,1.08L128.41,196.59z"/>
		<path class="st1" d="M113.97,191.98c-4.61,1.02-9.37,1.59-14.28,1.59c-12.7,0-24.52-3.58-34.56-9.78L58.21,195
			c12.08,7.42,26.27,11.72,41.47,11.72c6.14,0,12.13-0.72,17.87-2.05L113.97,191.98z"/>
		<path class="st1" d="M155.75,176.73l-0.67-0.56c-0.26,0.31-0.56,0.56-0.82,0.87l0.72,0.61
			C155.24,177.34,155.49,177.03,155.75,176.73z"/>
		<path class="st1" d="M155.55,171.76c0.26-0.36,0.56-0.72,0.82-1.08l-0.67-0.51c-0.31,0.36-0.56,0.72-0.87,1.08L155.55,171.76z"/>
		<path class="st1" d="M154.68,183.48l-1.08-1.08c-0.26,0.26-0.56,0.51-0.82,0.72l1.13,1.13C154.21,184,154.47,183.74,154.68,183.48
			z"/>
		<path class="st1" d="M153.6,168.53l-0.77-0.56c-0.31,0.41-0.67,0.77-0.97,1.13l0.87,0.61
			C153.04,169.35,153.29,168.94,153.6,168.53z"/>
		<path class="st1" d="M159.08,166.64l-0.46-0.31c-0.2,0.31-0.41,0.56-0.61,0.87l0.51,0.31
			C158.72,167.2,158.87,166.95,159.08,166.64z"/>
		<path class="st1" d="M156.83,179.23l1.02,0.87c0.26-0.26,0.46-0.56,0.67-0.82l-0.92-0.82
			C157.34,178.67,157.08,178.93,156.83,179.23z"/>
		<path class="st1" d="M158.21,173.71c0.26-0.31,0.46-0.67,0.72-0.97l-0.46-0.36c-0.26,0.31-0.51,0.61-0.77,0.92L158.21,173.71z"/>
		<path class="st1" d="M155.7,164.28c-0.26,0.36-0.46,0.67-0.72,1.02l0.61,0.36c0.2-0.36,0.46-0.67,0.67-1.02L155.7,164.28z"/>
	</g>
	<g>
		<path class="st1" d="M109,136.94c-2.41,2.41-5.68,3.84-9.32,3.84c-7.27,0-13.21-5.89-13.21-13.21s5.89-13.21,13.21-13.21
			c3.64,0,6.91,1.48,9.32,3.84l9.32-9.32c-4.76-4.76-11.37-7.73-18.64-7.73c-14.54,0-26.37,11.83-26.37,26.37
			s11.83,26.37,26.37,26.37c7.27,0,13.88-2.97,18.64-7.73L109,136.94z"/>
		<path class="st1" d="M219.39,136.94c-2.41,2.41-5.68,3.84-9.32,3.84c-7.27,0-13.21-5.89-13.21-13.21s5.89-13.21,13.21-13.21
			c3.64,0,6.91,1.48,9.32,3.84l9.32-9.32c-4.76-4.76-11.37-7.73-18.64-7.73c-14.54,0-26.37,11.83-26.37,26.37
			s11.83,26.37,26.37,26.37c7.27,0,13.88-2.97,18.64-7.73L219.39,136.94z"/>
		<rect x="124.42" y="103.87" class="st1" width="13.21" height="47.46"/>
		<polygon class="st1" points="180.38,103.87 145.15,103.87 145.15,117.08 163.74,117.08 156.16,121.38 156.16,151.38 
			169.37,151.38 169.37,117.08 180.38,117.08 		"/>
	</g>
	<g>
		<path class="st1" d="M73.42,157.63c-0.46-0.36-0.92-0.72-1.38-1.08l-1.28,1.38c0.41,0.46,0.87,0.87,1.33,1.28L73.42,157.63z"/>
		<path class="st1" d="M69.22,153.99l-1.13,0.97c0.41,0.51,0.77,0.97,1.18,1.43l1.23-1.13C70.09,154.86,69.68,154.4,69.22,153.99z"
			/>
		<path class="st1" d="M74.65,162.8c-0.56-0.31-1.08-0.61-1.59-0.97l-1.18,1.48c0.51,0.41,1.02,0.82,1.59,1.18L74.65,162.8z"/>
		<path class="st1" d="M64.77,154.56c-0.36-0.41-0.72-0.87-1.08-1.28l-0.51,0.41c0.31,0.46,0.61,0.92,0.97,1.38L64.77,154.56z"/>
		<path class="st1" d="M71.01,160.39c-0.51-0.36-1.02-0.77-1.48-1.18l-1.02,1.02c0.46,0.46,0.92,0.92,1.43,1.38L71.01,160.39z"/>
		<path class="st1" d="M66.92,158.6l0.92-0.82c-0.46-0.46-0.92-0.87-1.38-1.33l-0.77,0.67C66.1,157.58,66.51,158.09,66.92,158.6z"/>
		<path class="st1" d="M121.6,160.55c-6.3,4.2-13.82,6.6-21.91,6.6c-2.46,0-4.81-0.2-7.17-0.67l-2.56,12.95
			c3.12,0.56,6.4,0.92,9.73,0.92c10.8,0,20.89-3.28,29.24-8.86L121.6,160.55z"/>
		<path class="st1" d="M58.37,157.12l-0.77,0.56c0.36,0.51,0.67,0.97,1.02,1.48l0.82-0.61C59.08,158.04,58.73,157.58,58.37,157.12z"
			/>
		<path class="st1" d="M88.73,165.62l-3.64,12.6c0.92,0.31,1.79,0.56,2.71,0.77c0.31,0.05,0.67,0.15,0.97,0.2l2.66-12.9
			C90.52,166.13,89.6,165.87,88.73,165.62z"/>
		<path class="st1" d="M61.44,160.75l-0.92,0.82c0.46,0.56,0.92,1.08,1.38,1.64l1.02-0.92C62.41,161.78,61.9,161.26,61.44,160.75z"
			/>
		<path class="st1" d="M73.88,160.75c0.46,0.36,0.97,0.72,1.43,1.08l1.38-1.95c-0.46-0.31-0.97-0.61-1.43-0.92L73.88,160.75z"/>
		<path class="st1" d="M77.31,166.9l1.23-2.2c-0.67-0.26-1.28-0.56-1.95-0.87l-1.23,1.95C75.98,166.18,76.65,166.54,77.31,166.9z"/>
		<path class="st1" d="M62.11,156.55c-0.36-0.46-0.72-0.87-1.08-1.33l-0.51,0.36c0.31,0.46,0.67,0.97,0.97,1.43L62.11,156.55z"/>
		<path class="st1" d="M67.69,152.35c-0.36-0.41-0.72-0.82-1.08-1.23l-0.82,0.61c0.31,0.46,0.61,0.92,0.92,1.38L67.69,152.35z"/>
		<path class="st1" d="M79.72,172.99c-0.92-0.36-1.79-0.72-2.66-1.08l-1.18,2.36c0.92,0.51,1.79,0.97,2.76,1.38L79.72,172.99z"/>
		<path class="st1" d="M84.58,174.52c-1.02-0.26-2.1-0.56-3.07-0.87l-1.13,2.87c1.08,0.46,2.15,0.87,3.23,1.28L84.58,174.52z"/>
		<path class="st1" d="M81.2,169.51c-0.87-0.26-1.69-0.56-2.51-0.87l-1.13,2.25c0.82,0.41,1.69,0.82,2.56,1.23L81.2,169.51z"/>
		<path class="st1" d="M87.4,165.26c-0.77-0.26-1.59-0.51-2.36-0.82l-3.28,8.4c0.97,0.41,1.95,0.72,2.97,1.08L87.4,165.26z"/>
		<path class="st1" d="M77.11,163c0.56,0.36,1.18,0.72,1.79,1.02l1.18-2.1c-0.56-0.31-1.13-0.67-1.64-1.02L77.11,163z"/>
		<path class="st1" d="M65.38,159.98c-0.51-0.46-0.97-0.92-1.43-1.43l-0.77,0.67c0.41,0.51,0.87,1.02,1.33,1.54L65.38,159.98z"/>
		<path class="st1" d="M79.1,167.82c0.77,0.36,1.54,0.72,2.36,1.02l2.15-5.07c-0.67-0.31-1.33-0.61-2-0.97L79.1,167.82z"/>
		<path class="st1" d="M70.66,168.43c-0.31-0.2-0.61-0.36-0.92-0.56c-0.31-0.2-0.61-0.46-0.92-0.67l-1.18,1.48
			c0.61,0.51,1.23,0.97,1.84,1.43L70.66,168.43z"/>
		<path class="st1" d="M68.76,162.9c-0.56-0.41-1.08-0.87-1.59-1.28l-0.92,0.97c0.51,0.51,1.02,0.97,1.54,1.43L68.76,162.9z"/>
		<path class="st1" d="M76.8,167.82c-0.72-0.31-1.43-0.67-2.1-1.02l-1.13,1.74c0.67,0.46,1.38,0.87,2.1,1.33L76.8,167.82z"/>
		<path class="st1" d="M66.51,165.46c-0.56-0.46-1.13-0.92-1.69-1.38l-1.08,1.13c0.51,0.51,1.08,1.08,1.64,1.54L66.51,165.46z"/>
		<path class="st1" d="M75.06,170.99c-0.77-0.36-1.54-0.77-2.25-1.23l-1.23,1.89c0.77,0.51,1.48,0.97,2.3,1.48L75.06,170.99z"/>
		<path class="st1" d="M71.58,167.15l1.08-1.54c-0.56-0.36-1.13-0.72-1.74-1.13l-1.08,1.33c0.31,0.2,0.56,0.46,0.87,0.67
			C71.01,166.74,71.32,166.95,71.58,167.15z"/>
	</g>
	<g>
		<path class="st1" d="M93.9,84.11l-0.15-1.08c-0.72,0.05-1.38,0.15-2.1,0.26l0.2,1.23C92.57,84.41,93.24,84.26,93.9,84.11z"/>
		<path class="st1" d="M94.36,87.69l-0.2-1.43c-0.67,0.05-1.33,0.15-2,0.26l0.26,1.64C93.08,88,93.75,87.84,94.36,87.69z"/>
		<path class="st1" d="M66.76,86.56l2.15,2.61c0.77-0.72,1.54-1.33,2.36-2l-1.79-2.56C68.51,85.28,67.64,85.9,66.76,86.56z"/>
		<path class="st1" d="M76.8,87.69l-1.28-2.2c-0.77,0.46-1.59,0.92-2.36,1.43l1.54,2.36C75.42,88.66,76.13,88.15,76.8,87.69z"/>
		<path class="st1" d="M90.62,76.53l0.2,1.38c0.72-0.15,1.48-0.31,2.2-0.41l-0.15-1.23C92.16,76.27,91.39,76.37,90.62,76.53z"/>
		<path class="st1" d="M79.1,82.11l-0.92-2.15c-0.82,0.36-1.64,0.72-2.46,1.13l1.18,2.25C77.57,82.93,78.34,82.52,79.1,82.11z"/>
		<path class="st1" d="M75.01,84.46l-1.33-2.36c-0.87,0.46-1.74,0.97-2.61,1.48l1.64,2.46C73.47,85.54,74.24,84.98,75.01,84.46z"/>
		<path class="st1" d="M95.95,76.02L96,77.09c0.67-0.05,1.33-0.15,2-0.15l-0.05-0.92C97.33,75.96,96.67,75.96,95.95,76.02z"/>
		<path class="st1" d="M98.15,80.16V79.5c-0.67,0-1.33,0-1.95,0.05l0.05,0.77C96.87,80.26,97.48,80.21,98.15,80.16z"/>
		<path class="st1" d="M65.48,87.54c-0.61,0.51-1.23,1.02-1.79,1.54c-0.31,0.31-0.61,0.56-0.92,0.87l9.27,9.37
			c0.61-0.61,1.28-1.18,1.89-1.74L65.48,87.54z"/>
		<path class="st1" d="M98.46,87.13l-0.05-1.02c-0.61,0-1.23,0-1.84,0l0.05,1.23C97.23,87.23,97.84,87.18,98.46,87.13z"/>
		<path class="st1" d="M93.49,80.78l-0.15-1.02c-0.72,0.05-1.43,0.15-2.2,0.31l0.2,1.18C92.06,81.03,92.77,80.93,93.49,80.78z"/>
		<path class="st1" d="M98.3,83.49l-0.05-0.67c-0.61,0-1.28,0-1.89,0.05l0.05,0.82C97.02,83.59,97.64,83.54,98.3,83.49z"/>
		<path class="st1" d="M88.27,78.52l-0.36-1.54c-0.77,0.15-1.54,0.31-2.25,0.51l0.46,1.69C86.84,78.93,87.55,78.73,88.27,78.52z"/>
		<path class="st1" d="M89.75,85.18l-0.31-1.43c-0.67,0.15-1.33,0.31-2,0.46l0.41,1.59C88.52,85.59,89.14,85.39,89.75,85.18z"/>
		<path class="st1" d="M90.57,88.66l-0.41-1.79c-0.61,0.15-1.23,0.26-1.84,0.41l0.51,1.95C89.4,89.07,89.96,88.87,90.57,88.66z"/>
		<path class="st1" d="M77.26,88.46c-0.72,0.41-1.43,0.87-2.1,1.33l3.07,4.61c0.56-0.36,1.18-0.77,1.79-1.08L77.26,88.46z"/>
		<path class="st1" d="M80.54,85.39l-0.87-2c-0.77,0.31-1.48,0.67-2.2,1.02l1.08,2.1C79.21,86.15,79.87,85.74,80.54,85.39z"/>
		<path class="st1" d="M82.33,89.43c-0.61,0.26-1.23,0.56-1.84,0.87l1.08,2.1c0.56-0.31,1.13-0.56,1.69-0.82L82.33,89.43z"/>
		<path class="st1" d="M61.9,90.81c-9.27,9.52-14.95,22.48-14.95,36.81h13.21c0-10.7,4.25-20.38,11.16-27.49L61.9,90.81z"/>
		<path class="st1" d="M71.73,87.89c-0.82,0.56-1.64,1.18-2.41,1.79l5.73,7.01c0.61-0.46,1.23-0.97,1.89-1.38L71.73,87.89z"/>
		<path class="st1" d="M82.89,80.37c0.15-0.05,0.36-0.15,0.51-0.2l-0.61-1.89c-0.77,0.26-1.48,0.51-2.25,0.77l0.77,2
			C81.87,80.78,82.38,80.57,82.89,80.37z"/>
		<path class="st1" d="M81.92,88.61L81,86.51c-0.67,0.31-1.33,0.61-2,0.97l1.13,2.2C80.74,89.33,81.36,88.92,81.92,88.61z"/>
		<path class="st1" d="M84.53,83.44l-0.56-1.69c-0.15,0.05-0.31,0.1-0.46,0.15c-0.51,0.15-1.08,0.36-1.59,0.56l0.72,1.79
			C83.25,84,83.87,83.7,84.53,83.44z"/>
		<path class="st1" d="M86.68,90.1L86.02,88c-0.56,0.2-1.13,0.41-1.74,0.61l0.87,2.2C85.66,90.56,86.17,90.3,86.68,90.1z"/>
		<path class="st1" d="M85.61,86.72l-0.61-1.79c-0.61,0.2-1.23,0.41-1.89,0.67l0.77,1.95C84.43,87.28,84.99,86.97,85.61,86.72z"/>
		<path class="st1" d="M89.04,81.85l-0.31-1.33c-0.72,0.15-1.43,0.31-2.1,0.51l0.41,1.48C87.65,82.26,88.32,82.06,89.04,81.85z"/>
	</g>
</g>
</svg>
