<?xml version="1.0" standalone="no"?>
<!DOCTYPE svg PUBLIC "-//W3C//DTD SVG 20010904//EN"
 "http://www.w3.org/TR/2001/REC-SVG-20010904/DTD/svg10.dtd">
<svg version="1.0" xmlns="http://www.w3.org/2000/svg"
 width="512.000000pt" height="512.000000pt" viewBox="0 0 512.000000 512.000000"
 preserveAspectRatio="xMidYMid meet">
<metadata>
Created by potrace 1.14, written by Peter Selinger 2001-2017
</metadata>
<g transform="translate(0.000000,512.000000) scale(0.100000,-0.100000)"
fill="#000000" stroke="none">
<path d="M1880 5104 c-14 -2 -65 -9 -115 -15 -327 -41 -673 -185 -957 -400
-106 -80 -297 -271 -377 -377 -166 -220 -291 -476 -355 -727 -62 -244 -61
-234 -61 -1025 0 -791 -1 -781 61 -1025 64 -251 189 -507 355 -727 80 -106
271 -297 377 -377 220 -166 476 -291 727 -355 244 -62 234 -61 1025 -61 791 0
781 -1 1025 61 251 64 507 189 727 355 106 80 297 271 377 377 166 220 291
476 355 727 62 244 61 234 61 1025 0 791 1 781 -61 1025 -64 251 -189 507
-355 727 -80 106 -271 297 -377 377 -220 166 -476 291 -727 355 -238 60 -231
60 -985 62 -382 1 -706 0 -720 -2z m245 -974 c61 -6 135 -15 165 -21 73 -14
233 -59 243 -68 4 -4 -11 -57 -33 -117 -22 -60 -42 -114 -45 -121 -3 -9 -18
-7 -59 7 -124 42 -214 55 -401 55 -134 0 -200 -5 -258 -18 -68 -15 -211 -60
-257 -81 -12 -5 -29 19 -75 109 -51 97 -58 117 -45 125 56 36 285 102 415 119
163 22 213 23 350 11z m-747 -265 l59 -116 -28 -15 -28 -14 -66 111 c-36 61
-65 112 -65 115 0 4 52 33 62 34 4 0 34 -52 66 -115z m-94 -50 c62 -101 66
-110 50 -122 -10 -7 -23 -13 -28 -13 -11 0 -152 208 -145 214 17 13 53 35 55
33 1 -1 32 -51 68 -112z m-152 28 c25 -22 23 -38 -6 -51 -21 -9 -27 -8 -41 14
-16 24 -15 27 2 40 23 17 23 17 45 -3z m-87 -73 c18 -20 18 -21 -1 -35 -25
-19 -27 -19 -42 6 -10 16 -10 24 -1 35 15 19 23 18 44 -6z m166 -37 c23 -32
46 -63 51 -69 5 -7 0 -17 -15 -27 -23 -15 -25 -14 -76 55 -49 66 -51 70 -34
84 10 7 21 14 25 14 4 0 26 -26 49 -57z m-112 -50 c-15 -17 -34 -17 -49 2 -11
13 -10 18 6 30 16 12 21 11 36 -2 14 -12 15 -19 7 -30z m-133 -12 c-10 -16
-31 -14 -46 4 -10 12 -10 18 0 31 12 13 15 13 33 -4 11 -11 16 -25 13 -31z
m194 -38 c31 -35 31 -37 14 -50 -16 -12 -22 -9 -53 21 -29 30 -32 37 -22 50
19 23 25 20 61 -21z m-151 -19 c-14 -14 -17 -14 -29 0 -10 13 -10 19 0 32 12
14 15 14 29 0 14 -15 14 -17 0 -32z m-130 2 c8 -10 8 -16 -3 -25 -10 -9 -16
-8 -26 3 -12 15 -6 36 9 36 5 0 14 -6 20 -14z m187 -45 c-10 -15 -31 -14 -45
3 -10 11 -8 17 6 25 21 11 50 -10 39 -28z m894 9 c0 -5 -9 -10 -20 -10 -11 0
-20 5 -20 10 0 6 9 10 20 10 11 0 20 -4 20 -10z m-1024 -11 c9 -16 -10 -31
-30 -23 -13 5 -14 9 -5 20 14 17 25 18 35 3z m922 -1 c-7 -19 -38 -22 -38 -4
0 10 9 16 21 16 12 0 19 -5 17 -12z m-93 -19 c0 -8 -10 -15 -22 -17 -25 -4
-33 22 -10 31 18 8 32 2 32 -14z m-658 -5 c8 -22 -18 -37 -36 -20 -7 8 -10 19
-7 25 10 16 36 13 43 -5z m-307 -28 c-13 -13 -35 7 -25 24 5 8 11 8 21 -1 10
-8 12 -15 4 -23z m182 -18 c-17 -17 -47 9 -30 29 10 12 13 12 27 -1 11 -12 12
-19 3 -28z m686 21 c4 -19 -27 -34 -41 -20 -14 14 0 43 20 39 10 -2 19 -10 21
-19z m297 -9 c-3 -5 -13 -10 -21 -10 -8 0 -14 5 -14 10 0 6 9 10 21 10 11 0
17 -4 14 -10z m-400 -56 c-17 -13 -21 -13 -32 3 -18 24 -16 32 10 42 17 7 24
5 32 -11 7 -16 5 -24 -10 -34z m305 47 c0 -5 -9 -11 -20 -14 -13 -3 -20 0 -20
9 0 8 9 14 20 14 11 0 20 -4 20 -9z m-1006 -10 c3 -5 -1 -14 -8 -20 -16 -13
-32 2 -21 19 8 12 22 13 29 1z m916 -6 c0 -8 -2 -15 -4 -15 -2 0 -11 -3 -20
-6 -10 -4 -16 -1 -16 9 0 14 13 24 33 26 4 1 7 -6 7 -14z m-744 -10 c3 -8 3
-19 -1 -24 -9 -15 -44 9 -38 26 7 17 32 17 39 -2z m464 -50 c0 -10 -40 -40
-44 -33 -1 2 -8 11 -16 21 -12 17 -11 21 10 38 23 17 26 17 38 2 6 -9 12 -22
12 -28z m190 30 c0 -9 -7 -18 -16 -22 -20 -7 -38 18 -21 29 20 13 37 9 37 -7z
m-774 -6 c10 -17 -13 -36 -27 -22 -12 12 -4 33 11 33 5 0 12 -5 16 -11z m-178
-10 c-2 -6 -8 -10 -13 -10 -5 0 -11 4 -13 10 -2 6 4 11 13 11 9 0 15 -5 13
-11z m1140 -1 c-7 -19 -38 -22 -38 -4 0 10 9 16 21 16 12 0 19 -5 17 -12z m85
5 c-7 -2 -19 -2 -25 0 -7 3 -2 5 12 5 14 0 19 -2 13 -5z m-359 -19 c6 -16 -9
-44 -25 -44 -15 0 -22 42 -8 51 20 12 26 11 33 -7z m191 -3 c3 -6 -3 -15 -14
-20 -14 -8 -20 -7 -24 3 -9 24 24 38 38 17z m-826 -15 c7 -9 8 -17 2 -20 -15
-10 -40 5 -34 20 7 18 17 18 32 0z m-171 -7 c-2 -6 -8 -10 -13 -10 -5 0 -11 4
-13 10 -2 6 4 11 13 11 9 0 15 -5 13 -11z m619 -16 c13 -20 12 -23 -11 -38
-25 -17 -27 -16 -46 6 -19 24 -19 24 2 42 25 21 36 19 55 -10z m291 5 c-2 -12
-9 -23 -15 -26 -19 -6 -29 28 -12 39 23 14 31 10 27 -13z m-183 -44 c-10 -8
-22 -14 -27 -14 -8 0 -32 40 -26 44 26 22 43 23 57 4 13 -19 12 -22 -4 -34z
m445 37 c0 -14 -18 -23 -30 -16 -6 4 -8 11 -5 16 8 12 35 12 35 0z m-1116 -26
c-3 -8 -12 -11 -19 -9 -8 3 -11 12 -9 19 3 8 12 11 19 9 8 -3 11 -12 9 -19z
m779 3 c6 -20 -6 -37 -25 -38 -14 0 -20 43 -7 51 21 13 26 11 32 -13z m257 7
c0 -8 -9 -15 -20 -15 -11 0 -20 7 -20 15 0 8 9 15 20 15 11 0 20 -7 20 -15z
m-80 -16 c0 -25 -33 -22 -38 4 -2 12 3 17 17 17 15 0 21 -6 21 -21z m-1136
-10 c-8 -14 -24 -10 -24 6 0 9 6 12 15 9 8 -4 12 -10 9 -15z m736 -92 c60 -73
70 -90 60 -102 -7 -8 -18 -15 -25 -15 -8 0 -52 41 -99 92 l-86 92 27 22 c21
17 31 20 39 11 6 -7 44 -51 84 -100z m85 26 c41 -59 45 -68 31 -81 -19 -19
-27 -13 -89 67 l-47 59 23 15 c12 8 25 13 29 11 4 -3 28 -34 53 -71z m238 58
c5 -22 0 -31 -19 -31 -17 0 -27 32 -12 42 20 12 25 10 31 -11z m-819 -12 c-7
-11 -34 -12 -34 -1 0 14 11 21 26 15 8 -3 11 -9 8 -14z m661 -24 c43 -73 7
-94 -40 -23 -26 39 -27 42 -9 55 10 7 19 13 20 13 2 0 15 -20 29 -45z m-841
10 c-4 -8 -10 -12 -15 -9 -11 6 -2 24 11 24 5 0 7 -7 4 -15z m919 -33 c-15
-11 -19 -10 -27 8 -13 29 13 47 32 22 11 -14 10 -19 -5 -30z m-862 -5 c-13
-13 -26 -3 -16 12 3 6 11 8 17 5 6 -4 6 -10 -1 -17z m545 -68 l92 -92 -49 -60
c-92 -114 -154 -270 -166 -419 l-6 -68 -131 0 -132 0 8 98 c12 165 75 343 171
486 46 67 107 143 117 145 2 1 46 -40 96 -90z m-716 51 c0 -5 -4 -10 -10 -10
-5 0 -10 5 -10 10 0 6 5 10 10 10 6 0 10 -4 10 -10z m235 -20 c-5 -8 -11 -8
-17 -2 -6 6 -7 16 -3 22 5 8 11 8 17 2 6 -6 7 -16 3 -22z m-175 -10 c0 -5 -5
-10 -11 -10 -5 0 -7 5 -4 10 3 6 8 10 11 10 2 0 4 -4 4 -10z m64 -35 c-4 -8
-10 -12 -15 -9 -11 6 -2 24 11 24 5 0 7 -7 4 -15z m66 -24 c0 -6 -4 -13 -10
-16 -5 -3 -10 1 -10 9 0 9 5 16 10 16 6 0 10 -4 10 -9z m-110 -61 c0 -5 -5
-10 -11 -10 -5 0 -7 5 -4 10 3 6 8 10 11 10 2 0 4 -4 4 -10z m1403 -25 c77
-16 151 -51 220 -103 l47 -36 -94 -95 c-90 -90 -96 -94 -113 -79 -37 34 -107
58 -168 58 -75 0 -147 -32 -194 -85 -47 -54 -64 -100 -64 -175 -1 -138 96
-245 232 -257 67 -6 125 8 176 43 l38 26 91 -92 91 -91 -39 -35 c-123 -107
-328 -144 -493 -89 -383 129 -486 604 -191 882 91 85 226 140 348 142 25 0 75
-6 113 -14z m2200 0 c78 -16 192 -73 233 -116 l28 -30 -91 -91 c-87 -87 -93
-91 -110 -76 -37 34 -107 58 -168 58 -163 0 -286 -146 -257 -304 34 -183 237
-274 395 -176 l51 31 90 -91 91 -91 -40 -34 c-88 -75 -203 -115 -330 -115
-147 0 -260 47 -366 150 -113 111 -166 246 -156 400 12 189 114 349 279 435
115 61 227 77 351 50z m-3533 1 c0 -3 -4 -8 -10 -11 -5 -3 -10 -1 -10 4 0 6 5
11 10 11 6 0 10 -2 10 -4z m1980 -516 l0 -470 -130 0 -130 0 0 470 0 470 130
0 130 0 0 -470z m850 340 l0 -130 -110 0 -110 0 0 -340 0 -340 -130 0 -130 0
0 298 0 297 71 40 71 40 -181 3 -181 2 0 130 0 130 350 0 350 0 0 -130z
m-2244 -838 c-9 -9 -37 8 -31 18 5 8 11 7 21 -1 8 -6 12 -14 10 -17z m-60 -39
c-7 -7 -26 7 -26 19 0 6 6 6 15 -2 9 -7 13 -15 11 -17z m110 -4 c10 -17 -13
-36 -27 -22 -12 12 -4 33 11 33 5 0 12 -5 16 -11z m-160 -36 c-7 -7 -26 7 -26
19 0 6 6 6 15 -2 9 -7 13 -15 11 -17z m109 -13 c11 -17 -5 -32 -21 -19 -8 6
-14 15 -14 20 0 12 27 11 35 -1z m110 0 c4 -6 1 -17 -5 -26 -10 -11 -16 -12
-26 -3 -11 9 -11 15 -3 25 14 17 25 18 34 4z m-277 -19 c3 -8 -1 -12 -9 -9 -7
2 -15 10 -17 17 -3 8 1 12 9 9 7 -2 15 -10 17 -17z m111 -24 c6 -8 8 -17 4
-20 -7 -8 -33 11 -33 24 0 13 16 11 29 -4z m121 -17 c0 -5 -5 -12 -11 -16 -14
-8 -33 11 -25 25 7 11 36 4 36 -9z m114 12 c2 -4 -2 -16 -10 -26 -11 -16 -16
-17 -29 -6 -12 10 -13 16 -4 26 12 15 35 18 43 6z m-280 -62 c-14 -14 -39 14
-29 31 5 8 12 6 23 -5 11 -11 13 -19 6 -26z m340 -3 c-7 -19 -29 -23 -39 -7
-3 5 -1 19 6 31 9 19 13 19 25 7 8 -8 12 -22 8 -31z m916 -66 c80 -121 84
-105 -48 -171 -164 -81 -333 -116 -516 -107 -61 3 -118 8 -127 12 -17 6 -16
22 21 201 l11 51 132 0 c156 0 249 21 367 82 41 22 78 38 83 38 4 -1 38 -49
77 -106z m-1141 75 c9 -10 9 -16 1 -21 -13 -8 -42 14 -34 26 8 13 20 11 33 -5z
m121 -11 c0 -19 -20 -29 -32 -17 -15 15 -2 43 17 36 8 -3 15 -12 15 -19z m164
-1 c20 -8 20 -19 -1 -71 -15 -35 -22 -42 -38 -37 -11 4 -22 8 -24 10 -4 4 39
104 45 104 1 0 9 -3 18 -6z m-100 -20 c19 -7 21 -25 4 -42 -7 -7 -17 -8 -29
-1 -16 8 -17 13 -6 29 6 11 13 20 14 20 1 0 8 -3 17 -6z m-235 -13 c8 -5 11
-16 7 -26 -6 -17 -7 -17 -26 0 -28 25 -13 46 19 26z m1793 -13 c-7 -7 -12 -8
-12 -2 0 14 12 26 19 19 2 -3 -1 -11 -7 -17z m-1667 2 c4 -6 4 -18 1 -27 -5
-12 -9 -13 -21 -3 -8 7 -15 19 -15 26 0 16 26 19 35 4z m299 2 c3 -5 -6 -46
-20 -91 -23 -75 -27 -81 -47 -75 -38 11 -38 18 -6 97 23 56 36 77 50 77 10 0
20 -4 23 -8z m74 -20 c10 -7 7 -35 -13 -132 -14 -67 -25 -124 -25 -126 0 -4
-62 14 -68 20 -2 3 11 59 29 126 34 120 43 133 77 112z m-295 -25 c15 -10 16
-15 5 -30 -11 -15 -16 -16 -31 -5 -11 9 -16 20 -11 31 7 20 14 21 37 4z m-116
-35 c-13 -13 -19 -13 -32 -2 -23 19 0 44 27 29 18 -10 19 -12 5 -27z m1657 3
c-4 -8 -10 -12 -15 -9 -14 8 -10 24 6 24 9 0 12 -6 9 -15z m-1453 -3 c12 -5
14 -13 8 -29 -14 -39 -67 -23 -54 16 7 22 18 25 46 13z m-111 -37 c0 -32 -30
-45 -50 -20 -19 22 5 48 31 34 10 -5 19 -11 19 -14z m1612 -7 c-7 -7 -12 -8
-12 -2 0 14 12 26 19 19 2 -3 -1 -11 -7 -17z m-107 -28 c-5 -8 -11 -8 -17 -2
-6 6 -7 16 -3 22 5 8 11 8 17 2 6 -6 7 -16 3 -22z m-1417 -30 c-10 -29 -11
-29 -39 -15 -25 14 -27 18 -18 39 10 21 15 23 39 14 26 -9 28 -12 18 -38z
m100 -5 c5 -4 -8 -65 -13 -65 -4 0 -55 21 -63 26 -1 1 3 14 10 28 10 23 16 26
37 21 14 -4 28 -8 29 -10z m1369 -11 c-9 -9 -28 6 -21 18 4 6 10 6 17 -1 6 -6
8 -13 4 -17z m-117 -20 c0 -16 -16 -19 -25 -4 -8 13 4 32 16 25 5 -4 9 -13 9
-21z m290 16 c0 -5 -4 -10 -10 -10 -5 0 -10 5 -10 10 0 6 5 10 10 10 6 0 10
-4 10 -10z m-120 -30 c0 -5 -4 -10 -10 -10 -5 0 -10 5 -10 10 0 6 5 10 10 10
6 0 10 -4 10 -10z m-125 -40 c-5 -8 -11 -8 -17 -2 -6 6 -7 16 -3 22 5 8 11 8
17 2 6 -6 7 -16 3 -22z m-117 -17 c-10 -12 -14 -12 -27 2 -14 14 -14 17 -1 25
21 13 44 -8 28 -27z m292 7 c0 -5 -4 -10 -10 -10 -5 0 -10 5 -10 10 0 6 5 10
10 10 6 0 10 -4 10 -10z m-129 -33 c-13 -13 -26 -3 -16 12 3 6 11 8 17 5 6 -4
6 -10 -1 -17z m-234 -13 c9 -24 -19 -37 -34 -17 -10 13 -10 18 0 25 18 12 27
10 34 -8z m118 7 c7 -12 -12 -24 -25 -16 -11 7 -4 25 10 25 5 0 11 -4 15 -9z
m166 -44 c-1 -12 -15 -9 -19 4 -3 6 1 10 8 8 6 -3 11 -8 11 -12z m-362 -11 c9
-10 8 -16 -4 -26 -13 -11 -19 -10 -33 4 -15 15 -15 18 -2 26 20 13 26 12 39
-4z m118 -2 c7 -18 -17 -38 -31 -24 -11 11 -1 40 14 40 6 0 13 -7 17 -16z
m118 6 c11 -17 -5 -32 -21 -19 -7 6 -11 15 -8 20 7 12 21 11 29 -1z m-1564
-44 c107 -57 267 -111 389 -131 116 -18 318 -19 420 -1 41 8 77 12 79 10 4 -3
71 -235 71 -245 0 -10 -109 -28 -242 -40 -183 -17 -395 9 -598 73 -100 31
-343 144 -338 157 4 9 132 221 134 221 1 0 39 -20 85 -44z m1262 -30 c18 -32
22 -47 14 -55 -20 -20 -36 -11 -58 31 -20 40 -20 42 -3 55 10 7 19 13 20 13 1
0 13 -20 27 -44z m101 18 c8 -20 -1 -34 -20 -34 -20 0 -30 30 -13 41 20 12 26
11 33 -7z m254 -7 c2 -10 -3 -17 -12 -17 -18 0 -29 16 -21 31 9 14 29 6 33
-14z m-132 2 c11 -19 -13 -34 -31 -19 -13 11 -13 15 -3 21 18 12 26 11 34 -2z
m-290 -91 c34 -68 35 -72 18 -85 -31 -22 -39 -15 -73 63 -26 61 -30 79 -19 85
27 17 39 7 74 -63z m205 36 c10 -13 10 -17 -2 -25 -19 -12 -25 -11 -40 7 -10
13 -10 17 2 25 19 12 25 11 40 -7z m129 -29 c-13 -16 -15 -15 -27 1 -10 13
-10 21 -1 31 10 12 14 12 26 -1 13 -13 13 -17 2 -31z m-408 -85 c26 -63 45
-117 40 -121 -4 -4 -19 -10 -33 -14 -25 -6 -27 -3 -67 108 -23 63 -42 119 -42
125 0 11 27 21 44 18 5 -1 31 -54 58 -116z m-95 -38 l42 -121 -37 -10 c-20 -6
-37 -9 -38 -8 -3 3 -74 242 -74 250 0 6 39 15 55 12 6 -1 29 -56 52 -123z
m290 83 c-6 -18 -40 -18 -54 1 -12 16 -10 20 9 31 19 10 25 9 36 -5 7 -9 11
-21 9 -27z m121 13 c17 -17 15 -35 -4 -42 -22 -8 -47 24 -32 41 13 16 21 16
36 1z m-87 -60 c10 -18 8 -24 -7 -35 -25 -18 -29 -17 -42 12 -9 20 -8 26 6 34
25 15 30 13 43 -11z m-97 -47 c14 -27 14 -29 -11 -40 -28 -13 -37 -8 -48 27
-6 20 5 31 42 41 1 1 9 -12 17 -28z"/>
</g>
</svg>
