<svg xmlns="http://www.w3.org/2000/svg" enable-background="new 0 0 24 24" viewBox="0 0 24 24"><path fill="#b3b3ff" d="M12,10c-3.97559,0-8-1.37402-8-4v6c0,2.62598,4.02441,4,8,4s8-1.37402,8-4V6C20,8.62598,15.97559,10,12,10z"/><polygon fill="#b3b3ff" points="20 5.998 20 6 20 5.999"/><path fill="#8d8dff" d="M12,16c-3.97559,0-8-1.37402-8-4v6c0,2.62598,4.02441,4,8,4s8-1.37402,8-4v-6C20,14.62598,15.97559,16,12,16z"/><circle cx="8" cy="18.5" r="1" fill="#4141ff"/><circle cx="8" cy="12.5" r="1" fill="#4141ff"/><path fill="#8d8dff" d="M12,10c-3.97559,0-8-1.374-8-4s4.02441-4,8-4s8,1.374,8,4S15.97559,10,12,10z"/></svg>