<svg xmlns="http://www.w3.org/2000/svg" data-name="Layer 1" viewBox="0 0 24 24"><path fill="#8d8dff" d="M10,14H3a.99974.99974,0,0,1-1-1V3A.99974.99974,0,0,1,3,2h7a.99974.99974,0,0,1,1,1V13A.99974.99974,0,0,1,10,14Z"/><path fill="#4141ff" d="M10,22H3a.99974.99974,0,0,1-1-1V17a.99974.99974,0,0,1,1-1h7a.99974.99974,0,0,1,1,1v4A.99974.99974,0,0,1,10,22Z"/><path fill="#b3b3ff" d="M21,22H14a.99974.99974,0,0,1-1-1V13a.99974.99974,0,0,1,1-1h7a.99974.99974,0,0,1,1,1v8A.99974.99974,0,0,1,21,22Z"/><path fill="#6767ff" d="M21,10H14a.99974.99974,0,0,1-1-1V3a.99974.99974,0,0,1,1-1h7a.99974.99974,0,0,1,1,1V9A.99974.99974,0,0,1,21,10Z"/></svg>