<svg xmlns="http://www.w3.org/2000/svg" enable-background="new 0 0 24 24" viewBox="0 0 24 24"><path fill="#b3b3ff" d="M20,15.00018H4c-1.65613-0.00177-2.99817-1.34387-3-3v4c0.00183,1.65613,1.34387,2.99823,3,3h16c1.65613-0.00177,2.99817-1.34387,3-3v-4C22.99817,13.65631,21.65613,14.99841,20,15.00018z"/><path fill="#8d8dff" d="M20,19.00018H4c-1.65613-0.00177-2.99817-1.34387-3-3v4c0.00183,1.65613,1.34387,2.99823,3,3h16c1.65613-0.00177,2.99817-1.34387,3-3v-4C22.99817,17.65631,21.65613,18.99841,20,19.00018z"/><circle cx="12" cy="8" r="2" fill="#b3b3ff"/><path fill="#8d8dff" d="M20,1.00018H4c-1.65613,0.00183-2.99817,1.34393-3,3v8c0.00183,1.65613,1.34387,2.99823,3,3h16c1.65613-0.00177,2.99817-1.34387,3-3v-8C22.99817,2.34412,21.65613,1.00201,20,1.00018z M12,10c-1.10455,0-2-0.89545-2-2s0.89545-2,2-2s2,0.89545,2,2S13.10455,10,12,10z"/><circle cx="6" cy="8" r="1" fill="#4141ff"/><circle cx="18" cy="8" r="1" fill="#4141ff"/></svg>