<?xml version="1.0" standalone="no"?>
<!DOCTYPE svg PUBLIC "-//W3C//DTD SVG 1.1//EN" "http://www.w3.org/Graphics/SVG/1.1/DTD/svg11.dtd" >
<svg xmlns="http://www.w3.org/2000/svg" xmlns:xlink="http://www.w3.org/1999/xlink" version="1.1">
<metadata></metadata>
<defs>
<font id="loew_next_arabiclight" horiz-adv-x="0" >
<font-face units-per-em="1000" ascent="750" descent="-250" />
<missing-glyph horiz-adv-x="250" />
<glyph unicode="fi" horiz-adv-x="660" d="M359 698l-8 -31q-26 10 -66 10q-57 0 -91 -35t-34 -99v-43h390v-500h-40v466h-350v-466h-40v466h-91v34h91v44q0 79 44 122.5t117 43.5q43 0 78 -12zM557 641q0 -11 -8 -19t-19 -8q-12 0 -20 8t-8 19t8 19t20 8q11 0 19 -8t8 -19z" />
<glyph unicode="fl" horiz-adv-x="643" d="M352 700h191v-700h-41v667h-151q-26 10 -66 10q-57 0 -91 -35t-34 -99v-43h180v-34h-180v-466h-40v466h-91v34h91v44q0 79 44 122.5t117 43.5q42 0 71 -10z" />
<glyph unicode="&#x627;&#xfedf;&#xfee0;&#xfeea;" horiz-adv-x="1637" arabic-form="isolated" d="M875 957v-138h-24v138h24zM755 687v70h24v-67q0 -32 36 -32t36 32v80h24v-61q0 -31 37 -31q35 0 35 33v75h25v-80q0 -25 -16.5 -37t-39.5 -12q-34 0 -48 20q-6 -40 -55 -40q-58 0 -58 50zM1497 730h40v-730h-40v730zM1181 91v553h41v-574q-79 -70 -189 -70q-92 0 -168 55 q-75 -55 -171 -55h-333q-118 0 -189.5 66.5t-71.5 184.5q0 123 72 191t184 68q113 0 200 -60v-410h132q93 0 157 51v460h40v-460q63 -51 148 -51t148 51zM516 40v384q-71 47 -162 47q-92 0 -153 -57t-61 -161t61 -159q61 -54 157 -54h158z" />
<glyph unicode="&#xfedf;&#xfe82;" horiz-adv-x="698" arabic-form="isolated" d="M520 730h40v-659q-105 -71 -240 -71h-260v40h213l-126 553h40l126 -553h6q116 0 201 53v637zM250 752l20 -5q-7 -64 -69 -61l-86 4q-20 1 -33 -8.5t-17 -25.5l-20 4q8 65 70 61l85 -4q20 -1 33.5 9t16.5 26z" />
<glyph unicode="&#xfee0;&#xfe82;" horiz-adv-x="765" arabic-form="final" d="M765 40h16v-38q0 -2 -16 -2h-1q-120 0 -222 60q-102 -60 -222 -60h-260v40h213l-126 553h40l126 -553h6q116 0 201 53v637h40v-636q82 -54 205 -54zM250 752l20 -5q-7 -64 -69 -61l-86 4q-20 1 -33 -8.5t-17 -25.5l-20 4q8 65 70 61l85 -4q20 -1 33.5 9t16.5 26z" />
<glyph unicode="&#xfedf;&#xfe84;" horiz-adv-x="698" arabic-form="isolated" d="M520 730h40v-659q-105 -71 -240 -71h-260v40h213l-126 553h40l126 -553h6q116 0 201 53v637zM170 718h61v-32h-182v32h54q-32 26 -32 66q0 37 24.5 61.5t61.5 24.5q36 0 64 -21l-17 -21q-18 13 -45 13q-26 0 -43 -17.5t-17 -43.5q0 -27 19.5 -44.5t51.5 -17.5z" />
<glyph unicode="&#xfee0;&#xfe84;" horiz-adv-x="782" arabic-form="final" d="M247 718v-32h-183v32h55q-32 26 -32 66q0 37 24 61.5t62 24.5q36 0 64 -21l-17 -21q-18 13 -45 13t-43.5 -17t-16.5 -44t19.5 -44.5t51.5 -17.5h61zM782 40h16v-38q0 -2 -16 -2h-1q-120 0 -222 60q-102 -60 -222 -60h-260v40h212l-125 553h40l126 -553h6q117 0 200 53 v637h41v-636q83 -54 205 -54z" />
<glyph unicode="&#xfedf;&#xfe88;" horiz-adv-x="698" arabic-form="isolated" d="M520 730h40v-659q-105 -71 -240 -71h-260v40h213l-126 553h40l126 -553h6q116 0 201 53v637zM272 -246h61v-31h-182v31h55q-33 26 -33 67q0 37 24.5 61.5t61.5 24.5q36 0 64 -21l-17 -21q-20 13 -45 13q-26 0 -43 -17.5t-17 -44.5t19.5 -44.5t51.5 -17.5z" />
<glyph unicode="&#xfee0;&#xfe88;" horiz-adv-x="765" arabic-form="final" d="M765 40h16v-38q0 -2 -16 -2h-1q-120 0 -222 60q-102 -60 -222 -60h-260v40h213l-126 553h40l126 -553h6q116 0 201 53v637h40v-636q82 -54 205 -54zM272 -246h61v-31h-182v31h55q-33 26 -33 67q0 37 24.5 61.5t61.5 24.5q36 0 64 -21l-17 -21q-20 13 -45 13 q-26 0 -43 -17.5t-17 -44.5t19.5 -44.5t51.5 -17.5z" />
<glyph unicode="&#xfedf;&#xfe8e;" horiz-adv-x="698" arabic-form="isolated" d="M520 730h40v-659q-105 -71 -240 -71h-260v40h213l-126 553h40l126 -553h6q116 0 201 53v637z" />
<glyph unicode="&#xfee0;&#xfe8e;" horiz-adv-x="765" arabic-form="final" d="M765 40h16v-38q0 -2 -16 -2h-1q-120 0 -222 60q-102 -60 -222 -60h-260v40h213l-126 553h40l126 -553h6q116 0 201 53v637h40v-636q82 -54 205 -54z" />
<glyph unicode="&#xfedf;&#xfb51;" horiz-adv-x="698" d="M520 730h40v-659q-105 -71 -240 -71h-260v40h213l-126 553h40l126 -553h6q116 0 201 53v637zM294 755v-63h-266v29h50q23 52 57.5 82t78.5 30q37 0 58.5 -21.5t21.5 -56.5zM108 721h157v31q0 25 -14 39.5t-41 14.5q-65 0 -102 -85z" />
<glyph unicode="&#xfee0;&#xfb51;" horiz-adv-x="765" d="M765 40h16v-38q0 -2 -16 -2h-1q-120 0 -222 60q-102 -60 -222 -60h-260v40h213l-126 553h40l126 -553h6q116 0 201 53v637h40v-636q82 -54 205 -54zM294 755v-63h-266v29h50q23 52 57.5 82t78.5 30q37 0 58.5 -21.5t21.5 -56.5zM108 721h157v31q0 25 -14 39.5t-41 14.5 q-65 0 -102 -85z" />
<glyph unicode="&#x66e;" horiz-adv-x="358" d="M244 478v-417q-104 -61 -243 -61h-1q-16 0 -16 2v38h16q122 0 204 48v390h40z" />
<glyph unicode="&#x66e;" horiz-adv-x="448" d="M448 40h16v-38q0 -2 -16 -2h-1q-123 0 -223 57q-100 -57 -223 -57h-1q-16 0 -16 2v38h16q116 0 204 51v387h40v-387q88 -51 204 -51z" />
<glyph unicode="&#x66e;" horiz-adv-x="1245" d="M1245 40h16v-38q0 -2 -16 -2h-1q-124 0 -225 58q-100 -58 -263 -58h-401q-120 0 -192 48q-71 50 -71 172q0 60 20 154l38 -7q-18 -83 -18 -139q0 -188 223 -188h407q137 0 239 50v388h40v-387q88 -51 204 -51z" />
<glyph unicode="&#x66f;" horiz-adv-x="982" d="M998 40v-38q0 -2 -16 -2h-203v-166q-139 -89 -331 -89q-174 0 -267.5 77.5t-93.5 214.5q0 77 19 141l37 -8q-17 -54 -17 -127q0 -123 83 -190t240 -67q160 0 290 69v145h-160q-121 0 -195 65.5t-74 172.5q0 106 75 170t190 64q111 0 204 -60v-372h219zM575 40h164v346 q-68 48 -165 48q-95 0 -159.5 -53.5t-64.5 -142.5q0 -92 63.5 -145t161.5 -53z" />
<glyph unicode="&#x6a1;" horiz-adv-x="692" d="M579 466v-420q-109 -46 -289 -46h-290q-16 0 -16 2v38h318q83 0 165 14q-338 21 -338 244q0 102 69 164.5t177 62.5q111 0 204 -59zM539 80v362q-80 44 -167 44q-90 0 -146.5 -52t-56.5 -136q0 -214 370 -218z" />
<glyph unicode="&#x6a1;" horiz-adv-x="748" d="M764 40v-38q0 -2 -16 -2h-748q-16 0 -16 2v38h318q-67 33 -122 100q-51 66 -51 155q0 99 69.5 163t175.5 64q108 0 176.5 -64t68.5 -163q0 -90 -52 -155q-51 -66 -121 -100h318zM375 45q75 23 140 90.5t64 155.5q0 85 -58 138.5t-147 53.5t-147 -53.5t-58 -138.5 q-2 -88 64 -155.5t142 -90.5z" />
<glyph unicode="&#x6a1;" horiz-adv-x="1349" d="M1365 40v-38q0 -2 -16 -2h-994q-120 0 -192 48q-71 50 -71 172q0 60 20 154l38 -7q-18 -83 -18 -139q0 -188 223 -188h581q-116 27 -180.5 91.5t-64.5 161.5q0 104 71 168t181 64q108 0 204 -59v-426h218zM1106 48v395q-75 43 -165 43q-93 0 -151.5 -53.5t-58.5 -140.5 q0 -111 100 -175q101 -65 275 -69z" />
<glyph unicode="&#x6c2;" horiz-adv-x="589" d="M589 40h16v-38q0 -2 -16 -2q-55 3 -83 15t-53.5 44.5t-70.5 114.5l-71 133h-15q-40 0 -72 -21q-31 -21 -58 -91l-75 -195l-38 14l79 202q29 74 66.5 103t92.5 29h43l90 -168q52 -94 76.5 -115t88.5 -25zM299 509h61v-32h-182v32h54q-32 26 -32 66q0 37 24.5 61.5 t61.5 24.5q36 0 64 -21l-17 -21q-18 13 -45 13q-26 0 -43 -17.5t-17 -43.5q0 -27 19.5 -44.5t51.5 -17.5z" />
<glyph unicode="&#x6c3;" horiz-adv-x="589" d="M589 40h16v-38q0 -2 -16 -2q-55 3 -83 15t-53.5 44.5t-70.5 114.5l-71 133h-15q-40 0 -72 -21q-31 -21 -58 -91l-75 -195l-38 14l79 202q29 74 66.5 103t92.5 29h43l90 -168q52 -94 76.5 -115t88.5 -25zM142 513q0 16 10 26t26 10q15 0 25 -10t10 -26q0 -15 -10 -25.5 t-25 -10.5q-16 0 -26 10.5t-10 25.5zM325 513q0 16 10 26t26 10q15 0 25 -10t10 -26q0 -15 -10 -25.5t-25 -10.5q-16 0 -26 10.5t-10 25.5z" />
<glyph unicode="&#x671;" horiz-adv-x="383" arabic-form="final" d="M383 40h16v-38q0 -2 -16 -2h-1q-122 0 -224 58q-20 11 -20 33v639h41v-637q92 -53 204 -53zM275 922v-63h-266v29h50q23 52 57.5 82t78.5 30q37 0 58.5 -21.5t21.5 -56.5zM89 888h157v31q0 25 -14 39.5t-41 14.5q-65 0 -102 -85z" />
<glyph unicode="&#x67e;" horiz-adv-x="1245" arabic-form="final" d="M1245 40h16v-38q0 -2 -16 -2h-1q-124 0 -225 58q-100 -58 -263 -58h-401q-120 0 -192 48q-71 50 -71 172q0 60 20 154l38 -7q-18 -83 -18 -139q0 -188 223 -188h407q137 0 239 50v388h40v-387q88 -51 204 -51zM461 -162q0 15 10 25t25 10q14 0 24 -10t10 -25 q0 -14 -10 -24.5t-24 -10.5q-15 0 -25 10.5t-10 24.5zM640 -163q0 15 10 25t25 10t24.5 -10t9.5 -25t-9.5 -25t-24.5 -10t-25 10t-10 25zM551 -284q0 15 10 25t25 10q14 0 24 -10t10 -25q0 -14 -10 -24.5t-24 -10.5q-15 0 -25 10.5t-10 24.5z" />
<glyph unicode="&#x67e;" horiz-adv-x="358" arabic-form="initial" d="M244 478v-417q-104 -61 -243 -61h-1q-16 0 -16 2v38h16q122 0 204 48v390h40zM45 -162q0 15 10 25t25 10q14 0 24 -10t10 -25q0 -14 -10 -24.5t-24 -10.5q-15 0 -25 10.5t-10 24.5zM224 -163q0 15 10 25t25 10t24.5 -10t9.5 -25t-9.5 -25t-24.5 -10t-25 10t-10 25z M135 -284q0 15 10 25t25 10q14 0 24 -10t10 -25q0 -14 -10 -24.5t-24 -10.5q-15 0 -25 10.5t-10 24.5z" />
<glyph unicode="&#x67e;" horiz-adv-x="448" arabic-form="medial" d="M448 40h16v-38q0 -2 -16 -2h-1q-123 0 -223 57q-100 -57 -223 -57h-1q-16 0 -16 2v38h16q116 0 204 51v387h40v-387q88 -51 204 -51zM101 -162q0 15 10 25t25 10q14 0 24 -10t10 -25q0 -14 -10 -24.5t-24 -10.5q-15 0 -25 10.5t-10 24.5zM280 -163q0 15 10 25t25 10 t24.5 -10t9.5 -25t-9.5 -25t-24.5 -10t-25 10t-10 25zM191 -284q0 15 10 25t25 10q14 0 24 -10t10 -25q0 -14 -10 -24.5t-24 -10.5q-15 0 -25 10.5t-10 24.5z" />
<glyph unicode="&#x679;" horiz-adv-x="1245" arabic-form="final" d="M1245 40h16v-38q0 -2 -16 -2h-1q-124 0 -225 58q-100 -58 -263 -58h-401q-120 0 -192 48q-71 50 -71 172q0 60 20 154l38 -7q-18 -83 -18 -139q0 -188 223 -188h407q137 0 239 50v388h40v-387q88 -51 204 -51zM700 532v-68h-260v29h36v187h29v-126q60 60 118 60 q35 0 56 -22.5t21 -59.5zM505 493h166v35q0 27 -15 43.5t-39 16.5q-52 0 -112 -66v-29z" />
<glyph unicode="&#x679;" horiz-adv-x="358" arabic-form="initial" d="M244 478v-417q-104 -61 -243 -61h-1q-16 0 -16 2v38h16q122 0 204 48v390h40zM342 682v-68h-260v29h36v187h29v-126q60 60 118 60q35 0 56 -22.5t21 -59.5zM147 643h166v35q0 27 -15 43.5t-39 16.5q-52 0 -112 -66v-29z" />
<glyph unicode="&#x679;" horiz-adv-x="448" arabic-form="medial" d="M448 40h16v-38q0 -2 -16 -2h-1q-123 0 -223 57q-100 -57 -223 -57h-1q-16 0 -16 2v38h16q116 0 204 51v387h40v-387q88 -51 204 -51zM344 682v-68h-260v29h36v187h29v-126q60 60 118 60q35 0 56 -22.5t21 -59.5zM149 643h166v35q0 27 -15 43.5t-39 16.5q-52 0 -112 -66 v-29z" />
<glyph unicode="&#x6a4;" horiz-adv-x="1349" arabic-form="final" d="M1365 40v-38q0 -2 -16 -2h-994q-120 0 -192 48q-71 50 -71 172q0 60 20 154l38 -7q-18 -83 -18 -139q0 -188 223 -188h581q-116 27 -180.5 91.5t-64.5 161.5q0 104 71 168t181 64q108 0 204 -59v-426h218zM1106 48v395q-75 43 -165 43q-93 0 -151.5 -53.5t-58.5 -140.5 q0 -111 100 -175q101 -65 275 -69zM908 811q0 15 10 25t25 10q14 0 24 -10t10 -25q0 -14 -10 -24.5t-24 -10.5q-15 0 -25 10.5t-10 24.5zM819 689q0 15 10 25t25 10q14 0 24 -10t10 -25q0 -14 -10 -24.5t-24 -10.5q-15 0 -25 10.5t-10 24.5zM998 689q0 16 10 25.5t25 9.5 t24.5 -9.5t9.5 -25.5q0 -15 -9.5 -25t-24.5 -10t-25 10.5t-10 24.5z" />
<glyph unicode="&#x6a4;" horiz-adv-x="692" arabic-form="initial" d="M579 466v-420q-109 -46 -289 -46h-290q-16 0 -16 2v38h318q83 0 165 14q-338 21 -338 244q0 102 69 164.5t177 62.5q111 0 204 -59zM539 80v362q-80 44 -167 44q-90 0 -146.5 -52t-56.5 -136q0 -214 370 -218zM338 811q0 15 10 25t25 10q14 0 24 -10t10 -25 q0 -14 -10 -24.5t-24 -10.5q-15 0 -25 10.5t-10 24.5zM249 689q0 15 10 25t25 10q14 0 24 -10t10 -25q0 -14 -10 -24.5t-24 -10.5q-15 0 -25 10.5t-10 24.5zM428 689q0 16 10 25.5t25 9.5t24.5 -9.5t9.5 -25.5q0 -15 -9.5 -25t-24.5 -10t-25 10.5t-10 24.5z" />
<glyph unicode="&#x6a4;" horiz-adv-x="748" arabic-form="medial" d="M764 40v-38q0 -2 -16 -2h-748q-16 0 -16 2v38h318q-67 33 -122 100q-51 66 -51 155q0 99 69.5 163t175.5 64q108 0 176.5 -64t68.5 -163q0 -90 -52 -155q-51 -66 -121 -100h318zM375 45q75 23 140 90.5t64 155.5q0 85 -58 138.5t-147 53.5t-147 -53.5t-58 -138.5 q-2 -88 64 -155.5t142 -90.5zM338 808q0 15 10 25t25 10q14 0 24 -10t10 -25q0 -14 -10 -24.5t-24 -10.5q-15 0 -25 10.5t-10 24.5zM249 686q0 15 10 25t25 10q14 0 24 -10t10 -25q0 -14 -10 -24.5t-24 -10.5q-15 0 -25 10.5t-10 24.5zM428 686q0 16 10 25.5t25 9.5 t24.5 -9.5t9.5 -25.5q0 -15 -9.5 -25t-24.5 -10t-25 10.5t-10 24.5z" />
<glyph unicode="&#x686;" horiz-adv-x="679" arabic-form="final" d="M695 40v-38q0 -2 -16 -2h-432q-77 0 -122 -39t-45 -106q0 -70 45 -110t123 -40h131v-41h-126q-97 0 -155 51.5t-58 139.5q0 86 58 135.5t155 49.5h279q-38 34 -58.5 78.5t-40.5 124.5q-19 71 -36 113q-38 91 -140 91q-66 0 -132 -48l-23 28q69 59 156 59q67 0 108 -29 q39 -27 60.5 -71.5t43.5 -129.5t45 -132.5t62 -76.5q10 -7 36 -7h82zM257 -66q14 0 24 -10t10 -25q0 -14 -10 -24.5t-24 -10.5q-15 0 -25 10.5t-10 24.5q0 15 10 25t25 10zM445 -102q0 -15 -10 -25t-24 -10q-15 0 -25 10t-10 25t10 25t25 10q14 0 24 -10t10 -25zM368 -207 q0 -14 -10 -24.5t-24 -10.5q-15 0 -25 10.5t-10 24.5q0 15 10 25t25 10q14 0 24 -10t10 -25z" />
<glyph unicode="&#x686;" horiz-adv-x="628" arabic-form="initial" d="M555 36l-11 -36h-544q-16 0 -16 2v38h510q-38 34 -59 79t-41 124q-19 71 -36 113q-38 91 -140 91q-66 0 -132 -48l-24 28q72 59 157 59q68 0 109 -29q39 -27 60 -71t43 -130q26 -96 51.5 -145t72.5 -75zM140 -162q0 15 10 25t25 10q14 0 24 -10t10 -25q0 -14 -10 -24.5 t-24 -10.5q-15 0 -25 10.5t-10 24.5zM319 -163q0 15 10 25t25 10t24.5 -10t9.5 -25t-9.5 -25t-24.5 -10t-25 10t-10 25zM230 -284q0 15 10 25t25 10q14 0 24 -10t10 -25q0 -14 -10 -24.5t-24 -10.5q-15 0 -25 10.5t-10 24.5z" />
<glyph unicode="&#x686;" horiz-adv-x="640" arabic-form="medial" d="M656 40v-38q0 -2 -16 -2h-640q-16 0 -16 2v38h509q-41 36 -60 82q-23 54 -40 122q-19 71 -36 112q-35 91 -139 91q-66 0 -132 -48l-24 28q74 59 157 59q67 0 108 -29q39 -27 60.5 -71.5t43.5 -129.5q23 -84 45 -131t58 -76v1q11 -10 44 -10h78zM139 -162q0 15 10 25 t25 10q14 0 24 -10t10 -25q0 -14 -10 -24.5t-24 -10.5q-15 0 -25 10.5t-10 24.5zM318 -163q0 15 10 25t25 10t24.5 -10t9.5 -25t-9.5 -25t-24.5 -10t-25 10t-10 25zM229 -284q0 15 10 25t25 10q14 0 24 -10t10 -25q0 -14 -10 -24.5t-24 -10.5q-15 0 -25 10.5t-10 24.5z" />
<glyph unicode="&#x688;" horiz-adv-x="657" arabic-form="final" d="M673 40v-38q0 -2 -16 -2h-607v40h390v182q0 103 -42.5 140.5t-155.5 37.5h-82v41h75q138 0 191.5 -48.5t53.5 -169.5v-183h193zM355 645v-68h-260v29h36v187h29v-126q60 60 118 60q35 0 56 -22.5t21 -59.5zM160 606h166v35q0 27 -15 43.5t-39 16.5q-52 0 -112 -66v-29z " />
<glyph unicode="&#x698;" horiz-adv-x="424" arabic-form="final" d="M424 40h16v-38q0 -2 -16 -2h-1q-110 0 -204 49v-30q0 -274 -243 -274q-26 0 -59 4l7 40q28 -3 51 -3q105 0 154 57t49 175v456h41v-381q85 -53 205 -53zM164 763q0 15 10 25t25 10q14 0 24 -10t10 -25q0 -14 -10 -24.5t-24 -10.5q-15 0 -25 10.5t-10 24.5zM75 641 q0 15 10 25t25 10q14 0 24 -10t10 -25q0 -14 -10 -24.5t-24 -10.5q-15 0 -25 10.5t-10 24.5zM254 641q0 16 10 25.5t25 9.5t24.5 -9.5t9.5 -25.5q0 -15 -9.5 -25t-24.5 -10t-25 10.5t-10 24.5z" />
<glyph unicode="&#x691;" horiz-adv-x="424" arabic-form="final" d="M424 40h16v-38q0 -2 -16 -2h-1q-110 0 -204 49v-30q0 -274 -243 -274q-26 0 -59 4l7 40q28 -3 51 -3q105 0 154 57t49 175v456h41v-381q85 -53 205 -53zM318 682v-68h-260v29h36v187h29v-126q60 60 118 60q35 0 56 -22.5t21 -59.5zM123 643h166v35q0 27 -15 43.5 t-39 16.5q-52 0 -112 -66v-29z" />
<glyph unicode="&#x6a9;" horiz-adv-x="1157" arabic-form="final" d="M1157 40h16v-38q0 -2 -16 -2q-100 0 -182 41q-103 -41 -257 -41h-363q-120 0 -192 48q-71 50 -71 172q0 60 20 154l38 -7q-18 -83 -18 -139q0 -188 223 -188h369q134 0 229 37v61q0 98 -56 151q-55 53 -177 84l-99 25l-10 35l348 287l22 -28l-321 -264l74 -19 q134 -34 196.5 -97.5t62.5 -172.5v-63q66 -36 164 -36z" />
<glyph unicode="&#x6a9;" horiz-adv-x="567" arabic-form="initial" d="M472 142v-91q-113 -51 -275 -51h-197q-16 0 -16 2v38h218q131 0 229 40v61q0 97 -54 148.5t-179 83.5l-98 25l-11 35l348 287l22 -28l-320 -264l74 -19q135 -34 197 -96t62 -171z" />
<glyph unicode="&#x6a9;" horiz-adv-x="649" arabic-form="medial" d="M649 40h16v-38q0 -2 -16 -2h-1q-98 0 -180 41q-105 -41 -258 -41h-210q-16 0 -16 2v38h231q135 0 230 37v61q0 98 -56 151q-55 53 -177 84l-99 25l-10 35l348 287l22 -28l-321 -264l74 -19q134 -34 196.5 -97.5t62.5 -172.5v-63q66 -36 164 -36z" />
<glyph unicode="&#x6af;" horiz-adv-x="1157" arabic-form="final" d="M878 729l-288 -238l-8 27l280 231zM1157 40h16v-38q0 -2 -16 -2q-100 0 -180 41q-105 -41 -259 -41h-363q-120 0 -192 48q-71 50 -71 172q0 60 20 154l38 -7q-18 -83 -18 -139q0 -188 223 -188h369q134 0 229 37v61q0 98 -56 151q-55 53 -177 84l-99 25l-10 35l348 287 l22 -28l-321 -264l74 -19q134 -34 196.5 -97.5t62.5 -172.5v-64q70 -35 164 -35z" />
<glyph unicode="&#x6af;" horiz-adv-x="567" arabic-form="initial" d="M357 729l-288 -238l-9 27l280 231zM472 142v-91q-113 -51 -275 -51h-197q-16 0 -16 2v38h218q131 0 229 40v61q0 97 -54 148.5t-179 83.5l-98 25l-11 35l348 287l22 -28l-320 -264l74 -19q135 -34 197 -96t62 -171z" />
<glyph unicode="&#x6af;" horiz-adv-x="649" arabic-form="medial" d="M370 729l-288 -238l-8 27l280 231zM649 40h16v-38q0 -2 -16 -2h-1q-98 0 -180 41q-105 -41 -258 -41h-210q-16 0 -16 2v38h231q135 0 230 37v61q0 98 -56 151q-55 53 -177 84l-99 25l-10 35l348 287l22 -28l-321 -264l74 -19q134 -34 196.5 -97.5t62.5 -172.5v-63 q66 -36 164 -36z" />
<glyph unicode="&#x6ba;" horiz-adv-x="940" arabic-form="final" d="M940 40h16v-38q0 -2 -16 -2h-1q-121 0 -204 50v-218q-143 -87 -309 -87q-162 0 -250.5 77.5t-88.5 214.5q0 77 18 141l37 -7q-16 -66 -16 -128q0 -123 77.5 -190t223.5 -67q143 0 269 69v494h40v-245q0 -13 13 -20q80 -44 191 -44z" />
<glyph unicode="&#x6c1;" horiz-adv-x="589" arabic-form="final" d="M589 40h16v-38q0 -2 -16 -2q-55 3 -83 15t-53.5 44.5t-70.5 114.5l-71 133h-15q-40 0 -72 -21q-31 -21 -58 -91l-75 -195l-38 14l79 202q29 74 66.5 103t92.5 29h43l90 -168q52 -94 76.5 -115t88.5 -25z" />
<glyph unicode="&#x6c1;" horiz-adv-x="358" arabic-form="initial" d="M204 474h40v-406q-100 -68 -243 -68h-1q-16 0 -16 2v38h16q115 0 204 50v384zM206 -181h7l-3 -31h-6q-45 0 -70 22t-25 58q0 65 65 95l7 -10q-45 -29 -45 -77q0 -26 18 -41.5t52 -15.5z" />
<glyph unicode="&#x6c1;" horiz-adv-x="680" arabic-form="medial" d="M696 40v-38q0 -2 -16 -2h-43q-84 0 -111.5 -37t-27.5 -119v-132h-53q-119 0 -188.5 69.5t-69.5 187.5v80q-83 -49 -186 -49h-1q-16 0 -16 2v38h16q105 0 187 54v176h40v-295q0 -94 50 -159q51 -64 168 -64h13v98q0 91 37 140q38 50 138 50h63z" />
<glyph unicode="&#x6be;" horiz-adv-x="1007" arabic-form="final" d="M1023 40v-38q0 -2 -16 -2h-927q-16 0 -16 2v38h253q-111 60 -111 195q0 90 61 149t148 59t148 -59t61 -149q0 -66 -29 -116.5t-83 -78.5h278v200q0 94 -29 163t-79.5 105.5t-107.5 53.5t-123 17q-63 0 -114 -9v39q59 8 114 8q79 0 145.5 -20.5t120 -63.5t84 -118.5 t30.5 -176.5v-198h192zM415 40q81 9 125.5 61t44.5 131q0 75 -49 124t-121 49t-121 -49t-49 -124q0 -79 45 -130.5t125 -61.5z" />
<glyph unicode="&#x6be;" horiz-adv-x="829" arabic-form="initial" d="M751 238v-238h-751q-16 0 -16 2v38h253q-111 60 -111 195q0 90 61 149t148 59t148 -59t61 -149q0 -66 -29 -116.5t-83 -78.5h278v200q0 94 -29 163t-79.5 105.5t-107.5 53.5t-123 17q-63 0 -114 -9v39q59 8 114 8q79 0 145.5 -20.5t120 -63.5t84 -118.5t30.5 -176.5z M335 40q81 9 125.5 61t44.5 131q0 75 -49 124t-121 49t-121 -49t-49 -124q0 -79 45 -130.5t125 -61.5z" />
<glyph unicode="&#x6be;" horiz-adv-x="926" arabic-form="medial" d="M942 40v-38q0 -2 -16 -2h-926q-16 0 -16 2v38h253q-111 60 -111 195q0 90 61 149t148 59t148 -59t61 -149q0 -66 -29 -116.5t-83 -78.5h278v200q0 94 -29 163t-79.5 105.5t-107.5 53.5t-123 17q-63 0 -114 -9v39q59 8 114 8q79 0 145.5 -20.5t120 -63.5t84 -118.5 t30.5 -176.5v-198h191zM335 40q81 9 125.5 61t44.5 131q0 75 -49 124t-121 49t-121 -49t-49 -124q0 -79 45 -130.5t125 -61.5z" />
<glyph unicode="&#x6d2;" horiz-adv-x="742" arabic-form="final" d="M758 40v-38q0 -2 -16 -2h-516q-93 0 -93 -69q0 -68 93 -68h242v-41h-235q-140 0 -140 110q0 108 140 108h525z" />
<glyph unicode="&#x6d3;" horiz-adv-x="742" arabic-form="final" d="M758 40v-38q0 -2 -16 -2h-516q-93 0 -93 -69q0 -68 93 -68h242v-41h-235q-140 0 -140 110q0 108 140 108h525zM310 214h61v-32h-182v32h54q-32 26 -32 66q0 37 24.5 61.5t61.5 24.5q36 0 64 -21l-17 -21q-18 13 -45 13q-26 0 -43 -17.5t-17 -43.5q0 -27 19.5 -44.5 t51.5 -17.5z" />
<glyph unicode="&#x649;" horiz-adv-x="358" arabic-form="initial" d="M244 478v-417q-104 -61 -243 -61h-1q-16 0 -16 2v38h16q122 0 204 48v390h40z" />
<glyph unicode="&#x649;" horiz-adv-x="448" arabic-form="medial" d="M448 40h16v-38q0 -2 -16 -2h-1q-123 0 -223 57q-100 -57 -223 -57h-1q-16 0 -16 2v38h16q116 0 204 51v387h40v-387q88 -51 204 -51z" />
<glyph unicode="&#x6cc;" horiz-adv-x="1222" arabic-form="final" d="M1222 40h16v-38q0 -2 -16 -2q-80 2 -123 18t-66 50t-45 106l-53 185h-135q-56 0 -89.5 -26.5t-33.5 -72.5q0 -20 6 -41l108 -376q-64 -39 -160 -68q-99 -30 -200 -30q-162 0 -253 78t-91 214q0 77 19 141l37 -8q-17 -56 -17 -127q0 -121 80 -189t224 -68q90 0 178 24 q84 21 139 52l-103 352q-8 30 -8 52q0 60 43.5 95.5t113.5 35.5h171l61 -211q19 -63 38 -90.5t54 -40.5t105 -15z" />
<glyph unicode="&#x6cc;" horiz-adv-x="358" arabic-form="initial" d="M244 478v-417q-104 -61 -243 -61h-1q-16 0 -16 2v38h16q122 0 204 48v390h40zM42 -163q0 16 10 26t26 10q15 0 25 -10t10 -26q0 -15 -10 -25.5t-25 -10.5q-16 0 -26 10.5t-10 25.5zM225 -163q0 16 10 26t26 10q15 0 25 -10t10 -26q0 -15 -10 -25.5t-25 -10.5 q-16 0 -26 10.5t-10 25.5z" />
<glyph unicode="&#x6cc;" horiz-adv-x="448" arabic-form="medial" d="M448 40h16v-38q0 -2 -16 -2h-1q-123 0 -223 57q-100 -57 -223 -57h-1q-16 0 -16 2v38h16q116 0 204 51v387h40v-387q88 -51 204 -51zM98 -163q0 16 10 26t26 10q15 0 25 -10t10 -26q0 -15 -10 -25.5t-25 -10.5q-16 0 -26 10.5t-10 25.5zM281 -163q0 16 10 26t26 10 q15 0 25 -10t10 -26q0 -15 -10 -25.5t-25 -10.5q-16 0 -26 10.5t-10 25.5z" />
<glyph unicode="&#x622;" horiz-adv-x="383" arabic-form="final" d="M383 40h16v-38q0 -2 -16 -2h-1q-122 0 -224 58q-20 11 -20 33v639h41v-637q92 -53 204 -53zM249 919l20 -5q-7 -64 -69 -61l-86 4q-20 1 -33 -8.5t-17 -25.5l-20 4q8 65 70 61l85 -4q20 -1 33.5 9t16.5 26z" />
<glyph unicode="&#x623;" horiz-adv-x="383" arabic-form="final" d="M383 40h16v-38q0 -2 -16 -2h-1q-122 0 -224 58q-20 11 -20 33v639h41v-637q92 -53 204 -53zM189 885h61v-32h-182v32h54q-32 26 -32 66q0 37 24.5 61.5t61.5 24.5q36 0 64 -21l-17 -21q-18 13 -45 13q-26 0 -43 -17.5t-17 -43.5q0 -27 19.5 -44.5t51.5 -17.5z" />
<glyph unicode="&#x624;" horiz-adv-x="740" arabic-form="final" d="M756 40v-38q0 -2 -16 -2h-196q-5 -125 -76 -190t-196 -65q-94 0 -168 33l7 38q66 -32 162 -32q109 0 168 54.5t63 161.5h-160q-121 0 -195 64.5t-74 170.5q0 108 75 172.5t190 64.5q111 0 204 -60v-372h212zM340 40h164v346q-68 48 -165 48q-95 0 -159.5 -53.5 t-64.5 -144.5q0 -92 63.5 -144t161.5 -52zM370 633h61v-32h-182v32h54q-32 26 -32 66q0 37 24.5 61.5t61.5 24.5q36 0 64 -21l-17 -21q-18 13 -45 13q-26 0 -43 -17.5t-17 -43.5q0 -27 19.5 -44.5t51.5 -17.5z" />
<glyph unicode="&#x625;" horiz-adv-x="383" arabic-form="final" d="M383 40h16v-38q0 -2 -16 -2h-1q-122 0 -224 58q-20 11 -20 33v639h41v-637q92 -53 204 -53zM240 -279h61v-31h-182v31h55q-33 25 -33 67q0 37 24.5 61.5t61.5 24.5q36 0 64 -21l-17 -21q-20 13 -45 13q-26 0 -43 -17.5t-17 -44.5t19.5 -44.5t51.5 -17.5z" />
<glyph unicode="&#x626;" horiz-adv-x="1222" arabic-form="final" d="M1222 40h16v-38q0 -2 -16 -2q-80 2 -123 18t-66 50t-45 106l-53 185h-135q-56 0 -89.5 -26.5t-33.5 -72.5q0 -20 6 -41l108 -376q-64 -39 -160 -68q-99 -30 -200 -30q-162 0 -253 78t-91 214q0 77 19 141l37 -8q-17 -56 -17 -127q0 -121 80 -189t224 -68q90 0 178 24 q84 21 139 52l-103 352q-8 30 -8 52q0 60 43.5 95.5t113.5 35.5h171l61 -211q19 -63 38 -90.5t54 -40.5t105 -15zM224 354h61v-32h-182v32h54q-32 26 -32 66q0 37 24.5 61.5t61.5 24.5q36 0 64 -21l-17 -21q-18 13 -45 13q-26 0 -43 -17.5t-17 -43.5q0 -27 19.5 -44.5 t51.5 -17.5z" />
<glyph unicode="&#x626;" horiz-adv-x="358" arabic-form="initial" d="M244 478v-417q-104 -61 -243 -61h-1q-16 0 -16 2v38h16q122 0 204 48v390h40zM253 639h61v-32h-182v32h54q-32 26 -32 66q0 37 24.5 61.5t61.5 24.5q36 0 64 -21l-17 -21q-18 13 -45 13q-26 0 -43 -17.5t-17 -43.5q0 -27 19.5 -44.5t51.5 -17.5z" />
<glyph unicode="&#x626;" horiz-adv-x="448" arabic-form="medial" d="M448 40h16v-38q0 -2 -16 -2h-1q-123 0 -223 57q-100 -57 -223 -57h-1q-16 0 -16 2v38h16q116 0 204 51v387h40v-387q88 -51 204 -51zM255 639h61v-32h-182v32h54q-32 26 -32 66q0 37 24.5 61.5t61.5 24.5q36 0 64 -21l-17 -21q-18 13 -45 13q-26 0 -43 -17.5t-17 -43.5 q0 -27 19.5 -44.5t51.5 -17.5z" />
<glyph unicode="&#x627;" horiz-adv-x="383" arabic-form="final" d="M383 40h16v-38q0 -2 -16 -2h-1q-122 0 -224 58q-20 11 -20 33v639h41v-637q92 -53 204 -53z" />
<glyph unicode="&#x628;" horiz-adv-x="1245" arabic-form="final" d="M1245 40h16v-38q0 -2 -16 -2h-1q-124 0 -225 58q-100 -58 -263 -58h-401q-120 0 -192 48q-71 50 -71 172q0 60 20 154l38 -7q-18 -83 -18 -139q0 -188 223 -188h407q137 0 239 50v388h40v-387q88 -51 204 -51zM548 -163q0 16 10.5 26t26.5 10q15 0 25 -10t10 -26 q0 -15 -10 -25.5t-25 -10.5q-16 0 -26.5 10.5t-10.5 25.5z" />
<glyph unicode="&#x628;" horiz-adv-x="358" arabic-form="initial" d="M244 478v-417q-104 -61 -243 -61h-1q-16 0 -16 2v38h16q122 0 204 48v390h40zM133 -163q0 16 10.5 26t26.5 10q15 0 25 -10t10 -26q0 -15 -10 -25.5t-25 -10.5q-16 0 -26.5 10.5t-10.5 25.5z" />
<glyph unicode="&#x628;" horiz-adv-x="448" arabic-form="medial" d="M448 40h16v-38q0 -2 -16 -2h-1q-123 0 -223 57q-100 -57 -223 -57h-1q-16 0 -16 2v38h16q116 0 204 51v387h40v-387q88 -51 204 -51zM188 -163q0 16 10.5 26t26.5 10q15 0 25 -10t10 -26q0 -15 -10 -25.5t-25 -10.5q-16 0 -26.5 10.5t-10.5 25.5z" />
<glyph unicode="&#x629;" horiz-adv-x="739" arabic-form="final" d="M755 40v-38q0 -2 -16 -2h-396q-119 0 -193.5 68t-74.5 181q0 124 74 192.5t191 68.5q55 0 110 -17t93 -43v-410h212zM340 40h163v385q-70 46 -166 46q-97 0 -159.5 -57t-62.5 -165q0 -99 63.5 -154t161.5 -55zM213 676q0 16 10 26t26 10q15 0 25 -10t10 -26 q0 -15 -10 -25.5t-25 -10.5q-16 0 -26 10.5t-10 25.5zM396 676q0 16 10 26t26 10q15 0 25 -10t10 -26q0 -15 -10 -25.5t-25 -10.5q-16 0 -26 10.5t-10 25.5z" />
<glyph unicode="&#x62a;" horiz-adv-x="1245" arabic-form="final" d="M1245 40h16v-38q0 -2 -16 -2h-1q-124 0 -225 58q-100 -58 -263 -58h-401q-120 0 -192 48q-71 50 -71 172q0 60 20 154l38 -7q-18 -83 -18 -139q0 -188 223 -188h407q137 0 239 50v388h40v-387q88 -51 204 -51zM454 493q0 16 10 26t26 10q15 0 25 -10t10 -26 q0 -15 -10 -25.5t-25 -10.5q-16 0 -26 10.5t-10 25.5zM637 493q0 16 10 26t26 10q15 0 25 -10t10 -26q0 -15 -10 -25.5t-25 -10.5q-16 0 -26 10.5t-10 25.5z" />
<glyph unicode="&#x62a;" horiz-adv-x="358" arabic-form="initial" d="M244 478v-417q-104 -61 -243 -61h-1q-16 0 -16 2v38h16q122 0 204 48v390h40zM96 643q0 16 10 26t26 10q15 0 25 -10t10 -26q0 -15 -10 -25.5t-25 -10.5q-16 0 -26 10.5t-10 25.5zM279 643q0 16 10 26t26 10q15 0 25 -10t10 -26q0 -15 -10 -25.5t-25 -10.5 q-16 0 -26 10.5t-10 25.5z" />
<glyph unicode="&#x62a;" horiz-adv-x="448" arabic-form="medial" d="M448 40h16v-38q0 -2 -16 -2h-1q-123 0 -223 57q-100 -57 -223 -57h-1q-16 0 -16 2v38h16q116 0 204 51v387h40v-387q88 -51 204 -51zM98 643q0 16 10 26t26 10q15 0 25 -10t10 -26q0 -15 -10 -25.5t-25 -10.5q-16 0 -26 10.5t-10 25.5zM281 643q0 16 10 26t26 10 q15 0 25 -10t10 -26q0 -15 -10 -25.5t-25 -10.5q-16 0 -26 10.5t-10 25.5z" />
<glyph unicode="&#x62b;" horiz-adv-x="1245" arabic-form="final" d="M1245 40h16v-38q0 -2 -16 -2h-1q-124 0 -225 58q-100 -58 -263 -58h-401q-120 0 -192 48q-71 50 -71 172q0 60 20 154l38 -7q-18 -83 -18 -139q0 -188 223 -188h407q137 0 239 50v388h40v-387q88 -51 204 -51zM546 613q0 15 10 25t25 10q14 0 24 -10t10 -25 q0 -14 -10 -24.5t-24 -10.5q-15 0 -25 10.5t-10 24.5zM457 491q0 15 10 25t25 10q14 0 24 -10t10 -25q0 -14 -10 -24.5t-24 -10.5q-15 0 -25 10.5t-10 24.5zM636 491q0 16 10 25.5t25 9.5t24.5 -9.5t9.5 -25.5q0 -15 -9.5 -25t-24.5 -10t-25 10.5t-10 24.5z" />
<glyph unicode="&#x62b;" horiz-adv-x="358" arabic-form="initial" d="M244 478v-417q-104 -61 -243 -61h-1q-16 0 -16 2v38h16q122 0 204 48v390h40zM188 763q0 15 10 25t25 10q14 0 24 -10t10 -25q0 -14 -10 -24.5t-24 -10.5q-15 0 -25 10.5t-10 24.5zM99 641q0 15 10 25t25 10q14 0 24 -10t10 -25q0 -14 -10 -24.5t-24 -10.5 q-15 0 -25 10.5t-10 24.5zM278 641q0 16 10 25.5t25 9.5t24.5 -9.5t9.5 -25.5q0 -15 -9.5 -25t-24.5 -10t-25 10.5t-10 24.5z" />
<glyph unicode="&#x62b;" horiz-adv-x="448" arabic-form="medial" d="M448 40h16v-38q0 -2 -16 -2h-1q-123 0 -223 57q-100 -57 -223 -57h-1q-16 0 -16 2v38h16q116 0 204 51v387h40v-387q88 -51 204 -51zM190 763q0 15 10 25t25 10q14 0 24 -10t10 -25q0 -14 -10 -24.5t-24 -10.5q-15 0 -25 10.5t-10 24.5zM101 641q0 15 10 25t25 10 q14 0 24 -10t10 -25q0 -14 -10 -24.5t-24 -10.5q-15 0 -25 10.5t-10 24.5zM280 641q0 16 10 25.5t25 9.5t24.5 -9.5t9.5 -25.5q0 -15 -9.5 -25t-24.5 -10t-25 10.5t-10 24.5z" />
<glyph unicode="&#x62c;" horiz-adv-x="679" arabic-form="final" d="M695 40v-38q0 -2 -16 -2h-431q-77 0 -122.5 -39.5t-45.5 -106.5q0 -68 45.5 -108t123.5 -40h163v-40h-158q-98 0 -156 51t-58 138q0 86 58 135.5t155 49.5h279q-38 34 -58.5 78.5t-40.5 124.5q-19 71 -36 113q-38 91 -140 91q-66 0 -132 -48l-23 28q69 59 156 59 q67 0 108 -29q39 -27 60.5 -71.5t43.5 -129.5t45 -132.5t62 -76.5q10 -7 36 -7h82zM301 -150q0 15 10 25.5t26 10.5q14 0 24.5 -10.5t10.5 -25.5t-10.5 -25.5t-24.5 -10.5q-16 0 -26 10.5t-10 25.5z" />
<glyph unicode="&#x62c;" horiz-adv-x="628" arabic-form="initial" d="M555 36l-11 -36h-544q-16 0 -16 2v38h510q-38 34 -59 79t-41 124q-19 71 -36 113q-38 91 -140 91q-66 0 -132 -48l-24 28q72 59 157 59q68 0 109 -29q39 -27 60 -71t43 -130q26 -96 51.5 -145t72.5 -75zM227 -163q0 16 10.5 26t26.5 10q15 0 25 -10t10 -26 q0 -15 -10 -25.5t-25 -10.5q-16 0 -26.5 10.5t-10.5 25.5z" />
<glyph unicode="&#x62c;" horiz-adv-x="640" arabic-form="medial" d="M656 40v-38q0 -2 -16 -2h-640q-16 0 -16 2v38h509q-41 36 -60 82q-23 54 -40 122q-19 71 -36 112q-35 91 -139 91q-66 0 -132 -48l-24 28q74 59 157 59q67 0 108 -29q39 -27 60.5 -71.5t43.5 -129.5q23 -84 45 -131t58 -76v1q11 -10 44 -10h78zM227 -163q0 16 10.5 26 t26.5 10q15 0 25 -10t10 -26q0 -15 -10 -25.5t-25 -10.5q-16 0 -26.5 10.5t-10.5 25.5z" />
<glyph unicode="&#x62d;" horiz-adv-x="679" arabic-form="final" d="M695 40v-38q0 -2 -16 -2h-431q-77 0 -122.5 -39.5t-45.5 -106.5q0 -68 45.5 -108t123.5 -40h163v-40h-158q-98 0 -156 51t-58 138q0 86 58 135.5t155 49.5h279q-38 34 -58.5 78.5t-40.5 124.5q-19 71 -36 113q-38 91 -140 91q-66 0 -132 -48l-23 28q69 59 156 59 q67 0 108 -29q39 -27 60.5 -71.5t43.5 -129.5t45 -132.5t62 -76.5q10 -7 36 -7h82z" />
<glyph unicode="&#x62d;" horiz-adv-x="628" arabic-form="initial" d="M555 36l-11 -36h-544q-16 0 -16 2v38h510q-38 34 -59 79t-41 124q-19 71 -36 113q-38 91 -140 91q-66 0 -132 -48l-24 28q72 59 157 59q68 0 109 -29q39 -27 60 -71t43 -130q26 -96 51.5 -145t72.5 -75z" />
<glyph unicode="&#x62d;" horiz-adv-x="640" arabic-form="medial" d="M656 40v-38q0 -2 -16 -2h-640q-16 0 -16 2v38h509q-41 36 -60 82q-23 54 -40 122q-19 71 -36 112q-35 91 -139 91q-66 0 -132 -48l-24 28q74 59 157 59q67 0 108 -29q39 -27 60.5 -71.5t43.5 -129.5q23 -84 45 -131t58 -76v1q11 -10 44 -10h78z" />
<glyph unicode="&#x62e;" horiz-adv-x="679" arabic-form="final" d="M695 40v-38q0 -2 -16 -2h-431q-77 0 -122.5 -39.5t-45.5 -106.5q0 -68 45.5 -108t123.5 -40h163v-40h-158q-98 0 -156 51t-58 138q0 86 58 135.5t155 49.5h279q-38 34 -58.5 78.5t-40.5 124.5q-19 71 -36 113q-38 91 -140 91q-66 0 -132 -48l-23 28q69 59 156 59 q67 0 108 -29q39 -27 60.5 -71.5t43.5 -129.5t45 -132.5t62 -76.5q10 -7 36 -7h82zM232 646q0 16 10.5 26.5t26.5 10.5q15 0 25 -10.5t10 -26.5q0 -15 -10 -25.5t-25 -10.5q-16 0 -26.5 10.5t-10.5 25.5z" />
<glyph unicode="&#x62e;" horiz-adv-x="628" arabic-form="initial" d="M555 36l-11 -36h-544q-16 0 -16 2v38h510q-38 34 -59 79t-41 124q-19 71 -36 113q-38 91 -140 91q-66 0 -132 -48l-24 28q72 59 157 59q68 0 109 -29q39 -27 60 -71t43 -130q26 -96 51.5 -145t72.5 -75zM192 646q0 16 10.5 26.5t26.5 10.5q15 0 25 -10.5t10 -26.5 q0 -15 -10 -25.5t-25 -10.5q-16 0 -26.5 10.5t-10.5 25.5z" />
<glyph unicode="&#x62e;" horiz-adv-x="640" arabic-form="medial" d="M656 40v-38q0 -2 -16 -2h-640q-16 0 -16 2v38h509q-41 36 -60 82q-23 54 -40 122q-19 71 -36 112q-35 91 -139 91q-66 0 -132 -48l-24 28q74 59 157 59q67 0 108 -29q39 -27 60.5 -71.5t43.5 -129.5q23 -84 45 -131t58 -76v1q11 -10 44 -10h78zM192 646q0 16 10.5 26.5 t26.5 10.5q15 0 25 -10.5t10 -26.5q0 -15 -10 -25.5t-25 -10.5q-16 0 -26.5 10.5t-10.5 25.5z" />
<glyph unicode="&#x62f;" horiz-adv-x="657" arabic-form="final" d="M673 40v-38q0 -2 -16 -2h-607v40h390v182q0 103 -42.5 140.5t-155.5 37.5h-82v41h75q138 0 191.5 -48.5t53.5 -169.5v-183h193z" />
<glyph unicode="&#x630;" horiz-adv-x="657" arabic-form="final" d="M673 40v-38q0 -2 -16 -2h-607v40h390v182q0 103 -42.5 140.5t-155.5 37.5h-82v41h75q138 0 191.5 -48.5t53.5 -169.5v-183h193zM199 606q0 16 10.5 26.5t26.5 10.5q15 0 25 -10.5t10 -26.5q0 -15 -10 -25.5t-25 -10.5q-16 0 -26.5 10.5t-10.5 25.5z" />
<glyph unicode="&#x631;" horiz-adv-x="424" arabic-form="final" d="M424 40h16v-38q0 -2 -16 -2h-1q-110 0 -204 49v-30q0 -274 -243 -274q-26 0 -59 4l7 40q28 -3 51 -3q105 0 154 57t49 175v456h41v-381q85 -53 205 -53z" />
<glyph unicode="&#x632;" horiz-adv-x="424" arabic-form="final" d="M424 40h16v-38q0 -2 -16 -2h-1q-110 0 -204 49v-30q0 -274 -243 -274q-26 0 -59 4l7 40q28 -3 51 -3q105 0 154 57t49 175v456h41v-381q85 -53 205 -53zM162 643q0 16 10.5 26.5t26.5 10.5q15 0 25 -10.5t10 -26.5q0 -15 -10 -25.5t-25 -10.5q-16 0 -26.5 10.5 t-10.5 25.5z" />
<glyph unicode="&#x633;" horiz-adv-x="1588" arabic-form="final" d="M1588 40h16v-38q0 -2 -16 -2h-1q-120 0 -219 55q-75 -59 -165 -59q-86 0 -162 59q-74 -59 -160 -59q-81 0 -145 49v-26l-1 -20v-167q-141 -87 -309 -87q-162 0 -250.5 77.5t-88.5 214.5q0 77 18 141l37 -7q-16 -66 -16 -128q0 -123 77.5 -190t223.5 -67q143 0 269 69v494 h40v-259q63 -54 142 -54q77 0 142 53v260h40v-260q65 -53 142 -53q79 0 142 54v308h40v-307q88 -51 204 -51z" />
<glyph unicode="&#x633;" horiz-adv-x="1006" arabic-form="initial" d="M852 474h40v-401q-76 -73 -181 -73q-86 0 -161 59q-76 -59 -162 -59q-91 0 -164 61q-95 -61 -223 -61h-1q-16 0 -16 2v38h16q106 0 204 54v255h40v-255q63 -54 142 -54q76 0 142 53v256h40v-256q66 -53 142 -53q79 0 142 54v380z" />
<glyph unicode="&#x633;" horiz-adv-x="1096" arabic-form="medial" d="M1096 40h16v-38q0 -2 -16 -2h-1q-121 0 -222 57q-72 -57 -162 -57q-86 0 -161 59q-76 -59 -162 -59q-91 0 -164 61q-95 -61 -223 -61h-1q-16 0 -16 2v38h16q106 0 204 54v255h40v-255q63 -54 142 -54q76 0 142 53v256h40v-256q66 -53 142 -53q79 0 142 54v304h40v-307 q88 -51 204 -51z" />
<glyph unicode="&#x634;" horiz-adv-x="1588" arabic-form="final" d="M1588 40h16v-38q0 -2 -16 -2h-1q-120 0 -219 55q-75 -59 -165 -59q-86 0 -162 59q-74 -59 -160 -59q-81 0 -145 49v-26l-1 -20v-167q-141 -87 -309 -87q-162 0 -250.5 77.5t-88.5 214.5q0 77 18 141l37 -7q-16 -66 -16 -128q0 -123 77.5 -190t223.5 -67q143 0 269 69v494 h40v-259q63 -54 142 -54q77 0 142 53v260h40v-260q65 -53 142 -53q79 0 142 54v308h40v-307q88 -51 204 -51zM1004 642q0 15 10 25t25 10q14 0 24 -10t10 -25q0 -14 -10 -24.5t-24 -10.5q-15 0 -25 10.5t-10 24.5zM915 520q0 15 10 25t25 10q14 0 24 -10t10 -25 q0 -14 -10 -24.5t-24 -10.5q-15 0 -25 10.5t-10 24.5zM1094 520q0 16 10 25.5t25 9.5t24.5 -9.5t9.5 -25.5q0 -15 -9.5 -25t-24.5 -10t-25 10.5t-10 24.5z" />
<glyph unicode="&#x634;" horiz-adv-x="1006" arabic-form="initial" d="M852 474h40v-401q-76 -73 -181 -73q-86 0 -161 59q-76 -59 -162 -59q-91 0 -164 61q-95 -61 -223 -61h-1q-16 0 -16 2v38h16q106 0 204 54v255h40v-255q63 -54 142 -54q76 0 142 53v256h40v-256q66 -53 142 -53q79 0 142 54v380zM512 642q0 15 10 25t25 10q14 0 24 -10 t10 -25q0 -14 -10 -24.5t-24 -10.5q-15 0 -25 10.5t-10 24.5zM423 520q0 15 10 25t25 10q14 0 24 -10t10 -25q0 -14 -10 -24.5t-24 -10.5q-15 0 -25 10.5t-10 24.5zM602 520q0 16 10 25.5t25 9.5t24.5 -9.5t9.5 -25.5q0 -15 -9.5 -25t-24.5 -10t-25 10.5t-10 24.5z" />
<glyph unicode="&#x634;" horiz-adv-x="1096" arabic-form="medial" d="M1096 40h16v-38q0 -2 -16 -2h-1q-121 0 -222 57q-72 -57 -162 -57q-86 0 -161 59q-76 -59 -162 -59q-91 0 -164 61q-95 -61 -223 -61h-1q-16 0 -16 2v38h16q106 0 204 54v255h40v-255q63 -54 142 -54q76 0 142 53v256h40v-256q66 -53 142 -53q79 0 142 54v304h40v-307 q88 -51 204 -51zM512 642q0 15 10 25t25 10q14 0 24 -10t10 -25q0 -14 -10 -24.5t-24 -10.5q-15 0 -25 10.5t-10 24.5zM423 520q0 15 10 25t25 10q14 0 24 -10t10 -25q0 -14 -10 -24.5t-24 -10.5q-15 0 -25 10.5t-10 24.5zM602 520q0 16 10 25.5t25 9.5t24.5 -9.5t9.5 -25.5 q0 -15 -9.5 -25t-24.5 -10t-25 10.5t-10 24.5z" />
<glyph unicode="&#x635;" horiz-adv-x="1551" arabic-form="final" d="M1567 40v-38q0 -2 -16 -2h-815v-167q-145 -88 -310 -88q-162 0 -250.5 77.5t-88.5 214.5q0 77 18 141l37 -7q-16 -66 -16 -128q0 -123 77.5 -190t223.5 -67q143 0 269 69v568h40v-172q195 235 385 235q111 0 173 -68t62 -192v-186h211zM736 40h580v182q0 106 -52.5 165.5 t-148.5 59.5q-95 0 -186.5 -62t-192.5 -191v-154z" />
<glyph unicode="&#x635;" horiz-adv-x="970" arabic-form="initial" d="M865 226v-226h-865q-16 0 -16 2v38h220v383h40v-172q195 235 385 235q111 0 173.5 -68.5t62.5 -191.5zM244 40h580v182q0 106 -52 165.5t-148 59.5q-97 0 -188 -62t-192 -191v-154z" />
<glyph unicode="&#x635;" horiz-adv-x="1059" arabic-form="medial" d="M1075 40v-38q0 -2 -16 -2h-1059q-16 0 -16 2v38h220v383h40v-172q195 235 385 235q111 0 173.5 -68.5t62.5 -191.5v-186h210zM244 40h580v182q0 106 -52 165.5t-148 59.5q-97 0 -188 -62t-192 -191v-154z" />
<glyph unicode="&#x636;" horiz-adv-x="1551" arabic-form="final" d="M1567 40v-38q0 -2 -16 -2h-815v-167q-145 -88 -310 -88q-162 0 -250.5 77.5t-88.5 214.5q0 77 18 141l37 -7q-16 -66 -16 -128q0 -123 77.5 -190t223.5 -67q143 0 269 69v568h40v-172q195 235 385 235q111 0 173 -68t62 -192v-186h211zM736 40h580v182q0 106 -52.5 165.5 t-148.5 59.5q-95 0 -186.5 -62t-192.5 -191v-154zM865 653q0 16 10.5 26.5t26.5 10.5q15 0 25 -10.5t10 -26.5q0 -15 -10 -25.5t-25 -10.5q-16 0 -26.5 10.5t-10.5 25.5z" />
<glyph unicode="&#x636;" horiz-adv-x="970" arabic-form="initial" d="M865 226v-226h-865q-16 0 -16 2v38h220v383h40v-172q195 235 385 235q111 0 173.5 -68.5t62.5 -191.5zM244 40h580v182q0 106 -52 165.5t-148 59.5q-97 0 -188 -62t-192 -191v-154zM349 653q0 16 10.5 26.5t26.5 10.5q15 0 25 -10.5t10 -26.5q0 -15 -10 -25.5t-25 -10.5 q-16 0 -26.5 10.5t-10.5 25.5z" />
<glyph unicode="&#x636;" horiz-adv-x="1059" arabic-form="medial" d="M1075 40v-38q0 -2 -16 -2h-1059q-16 0 -16 2v38h220v383h40v-172q195 235 385 235q111 0 173.5 -68.5t62.5 -191.5v-186h210zM244 40h580v182q0 106 -52 165.5t-148 59.5q-97 0 -188 -62t-192 -191v-154zM349 653q0 16 10.5 26.5t26.5 10.5q15 0 25 -10.5t10 -26.5 q0 -15 -10 -25.5t-25 -10.5q-16 0 -26.5 10.5t-10.5 25.5z" />
<glyph unicode="&#x637;" horiz-adv-x="1036" arabic-form="final" d="M1052 40v-38q0 -2 -16 -2h-995v40h140v664h40v-454q87 107 178 170q93 66 209 66q110 0 172 -69.5t62 -190.5v-186h210zM221 40h581v182q0 107 -53 166t-147 59q-113 0 -204 -70q-92 -71 -177 -184v-153z" />
<glyph unicode="&#x637;" horiz-adv-x="970" arabic-form="initial" d="M865 226v-226h-865q-16 0 -16 2v38h220v664h40v-454q87 107 178 170q93 66 209 66q110 0 172 -69.5t62 -190.5zM244 40h581v182q0 107 -52.5 166t-146.5 59q-114 0 -205 -70q-92 -71 -177 -184v-153z" />
<glyph unicode="&#x637;" horiz-adv-x="1059" arabic-form="medial" d="M1075 40v-38q0 -2 -16 -2h-1059q-16 0 -16 2v38h220v664h40v-454q87 107 178 170q93 66 209 66q110 0 172 -69.5t62 -190.5v-186h210zM244 40h581v182q0 107 -52.5 166t-146.5 59q-114 0 -205 -70q-92 -71 -177 -184v-153z" />
<glyph unicode="&#x638;" horiz-adv-x="1036" arabic-form="final" d="M1052 40v-38q0 -2 -16 -2h-995v40h140v664h40v-454q87 107 178 170q93 66 209 66q110 0 172 -69.5t62 -190.5v-186h210zM221 40h581v182q0 107 -53 166t-147 59q-113 0 -204 -70q-92 -71 -177 -184v-153zM426 658q0 16 10.5 26.5t26.5 10.5q15 0 25 -10.5t10 -26.5 q0 -15 -10 -25.5t-25 -10.5q-16 0 -26.5 10.5t-10.5 25.5z" />
<glyph unicode="&#x638;" horiz-adv-x="970" arabic-form="initial" d="M865 226v-226h-865q-16 0 -16 2v38h220v664h40v-454q87 107 178 170q93 66 209 66q110 0 172 -69.5t62 -190.5zM244 40h581v182q0 107 -52.5 166t-146.5 59q-114 0 -205 -70q-92 -71 -177 -184v-153zM449 658q0 16 10.5 26.5t26.5 10.5q15 0 25 -10.5t10 -26.5 q0 -15 -10 -25.5t-25 -10.5q-16 0 -26.5 10.5t-10.5 25.5z" />
<glyph unicode="&#x638;" horiz-adv-x="1059" arabic-form="medial" d="M1075 40v-38q0 -2 -16 -2h-1059q-16 0 -16 2v38h220v664h40v-454q87 107 178 170q93 66 209 66q110 0 172 -69.5t62 -190.5v-186h210zM244 40h581v182q0 107 -52.5 166t-146.5 59q-114 0 -205 -70q-92 -71 -177 -184v-153zM449 658q0 16 10.5 26.5t26.5 10.5 q15 0 25 -10.5t10 -26.5q0 -15 -10 -25.5t-25 -10.5q-16 0 -26.5 10.5t-10.5 25.5z" />
<glyph unicode="&#x639;" horiz-adv-x="750" arabic-form="final" d="M766 40v-38q0 -2 -16 -2h-468q-78 0 -124.5 -40t-46.5 -106q0 -68 46 -108t126 -40h145v-40h-142q-99 0 -157.5 50.5t-58.5 135.5t60.5 135t164.5 51h7l-205 337l5 33q132 78 278 78q112 0 175.5 -49t63.5 -138q0 -83 -57 -153t-145 -106h349zM141 383l202 -343h3v4 q101 34 166 100q67 66 67 150q0 74 -53 113.5t-147 39.5q-129 0 -238 -64z" />
<glyph unicode="&#x639;" horiz-adv-x="677" arabic-form="initial" d="M387 40h214v-40h-601q-16 0 -16 2v38h273q-63 27 -97.5 81t-34.5 126q0 103 69 171t173 68q48 0 95 -15t77 -39l-25 -32q-59 47 -146 47t-145 -57.5t-58 -145.5t63.5 -146t158.5 -58z" />
<glyph unicode="&#x639;" horiz-adv-x="706" arabic-form="medial" d="M712 40v-40h-717v40h275l-204 335l6 32q136 79 278 79q112 0 175 -49t63 -138q0 -83 -57 -154q-55 -69 -144 -105h325zM110 383l202 -343h3v4q101 35 167 99q66 66 66 151q0 73 -53 113t-146 40q-129 0 -239 -64z" />
<glyph unicode="&#x63a;" horiz-adv-x="750" arabic-form="final" d="M766 40v-38q0 -2 -16 -2h-468q-78 0 -124.5 -40t-46.5 -106q0 -68 46 -108t126 -40h145v-40h-142q-99 0 -157.5 50.5t-58.5 135.5t60.5 135t164.5 51h7l-205 337l5 33q132 78 278 78q112 0 175.5 -49t63.5 -138q0 -83 -57 -153t-145 -106h349zM141 383l202 -343h3v4 q101 34 166 100q67 66 67 150q0 74 -53 113.5t-147 39.5q-129 0 -238 -64zM346 653q0 16 10.5 26.5t26.5 10.5q15 0 25 -10.5t10 -26.5q0 -15 -10 -25.5t-25 -10.5q-16 0 -26.5 10.5t-10.5 25.5z" />
<glyph unicode="&#x63a;" horiz-adv-x="677" arabic-form="initial" d="M387 40h214v-40h-601q-16 0 -16 2v38h273q-63 27 -97.5 81t-34.5 126q0 103 69 171t173 68q48 0 95 -15t77 -39l-25 -32q-59 47 -146 47t-145 -57.5t-58 -145.5t63.5 -146t158.5 -58zM329 653q0 16 10.5 26.5t26.5 10.5q15 0 25 -10.5t10 -26.5q0 -15 -10 -25.5 t-25 -10.5q-16 0 -26.5 10.5t-10.5 25.5z" />
<glyph unicode="&#x63a;" horiz-adv-x="706" arabic-form="medial" d="M712 40v-40h-717v40h275l-204 335l6 32q136 79 278 79q112 0 175 -49t63 -138q0 -83 -57 -154q-55 -69 -144 -105h325zM110 383l202 -343h3v4q101 35 167 99q66 66 66 151q0 73 -53 113t-146 40q-129 0 -239 -64zM311 653q0 16 10.5 26.5t26.5 10.5q15 0 25 -10.5 t10 -26.5q0 -15 -10 -25.5t-25 -10.5q-16 0 -26.5 10.5t-10.5 25.5z" />
<glyph unicode="&#x641;" horiz-adv-x="1349" arabic-form="final" d="M1365 40v-38q0 -2 -16 -2h-994q-120 0 -192 48q-71 50 -71 172q0 60 20 154l38 -7q-18 -83 -18 -139q0 -188 223 -188h581q-116 27 -180.5 91.5t-64.5 161.5q0 104 71 168t181 64q108 0 204 -59v-426h218zM1106 48v395q-75 43 -165 43q-93 0 -151.5 -53.5t-58.5 -140.5 q0 -111 100 -175q101 -65 275 -69zM906 691q0 16 10.5 26.5t26.5 10.5q15 0 25 -10.5t10 -26.5q0 -15 -10 -25.5t-25 -10.5q-16 0 -26.5 10.5t-10.5 25.5z" />
<glyph unicode="&#x641;" horiz-adv-x="692" arabic-form="initial" d="M579 466v-420q-109 -46 -289 -46h-290q-16 0 -16 2v38h318q83 0 165 14q-338 21 -338 244q0 102 69 164.5t177 62.5q111 0 204 -59zM539 80v362q-80 44 -167 44q-90 0 -146.5 -52t-56.5 -136q0 -214 370 -218zM336 691q0 16 10.5 26.5t26.5 10.5q15 0 25 -10.5t10 -26.5 q0 -15 -10 -25.5t-25 -10.5q-16 0 -26.5 10.5t-10.5 25.5z" />
<glyph unicode="&#x641;" horiz-adv-x="748" arabic-form="medial" d="M764 40v-38q0 -2 -16 -2h-748q-16 0 -16 2v38h318q-67 33 -122 100q-51 66 -51 155q0 99 69.5 163t175.5 64q108 0 176.5 -64t68.5 -163q0 -90 -52 -155q-51 -66 -121 -100h318zM375 45q75 23 140 90.5t64 155.5q0 85 -58 138.5t-147 53.5t-147 -53.5t-58 -138.5 q-2 -88 64 -155.5t142 -90.5zM336 687q0 16 10.5 26.5t26.5 10.5q15 0 25 -10.5t10 -26.5q0 -15 -10 -25.5t-25 -10.5q-16 0 -26.5 10.5t-10.5 25.5z" />
<glyph unicode="&#x642;" horiz-adv-x="982" arabic-form="final" d="M998 40v-38q0 -2 -16 -2h-203v-166q-139 -89 -331 -89q-174 0 -267.5 77.5t-93.5 214.5q0 77 19 141l37 -8q-17 -54 -17 -127q0 -123 83 -190t240 -67q160 0 290 69v145h-160q-121 0 -195 65.5t-74 172.5q0 106 75 170t190 64q111 0 204 -60v-372h219zM575 40h164v346 q-68 48 -165 48q-95 0 -159.5 -53.5t-64.5 -142.5q0 -92 63.5 -145t161.5 -53zM452 638q0 16 10 26t26 10q15 0 25 -10t10 -26q0 -15 -10 -25.5t-25 -10.5q-16 0 -26 10.5t-10 25.5zM635 638q0 16 10 26t26 10q15 0 25 -10t10 -26q0 -15 -10 -25.5t-25 -10.5q-16 0 -26 10.5 t-10 25.5z" />
<glyph unicode="&#x642;" horiz-adv-x="692" arabic-form="initial" d="M579 466v-420q-109 -46 -289 -46h-290q-16 0 -16 2v38h318q83 0 165 14q-338 21 -338 244q0 102 69 164.5t177 62.5q111 0 204 -59zM539 80v362q-80 44 -167 44q-90 0 -146.5 -52t-56.5 -136q0 -214 370 -218zM246 691q0 16 10 26t26 10q15 0 25 -10t10 -26 q0 -15 -10 -25.5t-25 -10.5q-16 0 -26 10.5t-10 25.5zM429 691q0 16 10 26t26 10q15 0 25 -10t10 -26q0 -15 -10 -25.5t-25 -10.5q-16 0 -26 10.5t-10 25.5z" />
<glyph unicode="&#x642;" horiz-adv-x="748" arabic-form="medial" d="M764 40v-38q0 -2 -16 -2h-748q-16 0 -16 2v38h318q-67 33 -122 100q-51 66 -51 155q0 99 69.5 163t175.5 64q108 0 176.5 -64t68.5 -163q0 -90 -52 -155q-51 -66 -121 -100h318zM375 45q75 23 140 90.5t64 155.5q0 85 -58 138.5t-147 53.5t-147 -53.5t-58 -138.5 q-2 -88 64 -155.5t142 -90.5zM246 687q0 16 10 26t26 10q15 0 25 -10t10 -26q0 -15 -10 -25.5t-25 -10.5q-16 0 -26 10.5t-10 25.5zM429 687q0 16 10 26t26 10q15 0 25 -10t10 -26q0 -15 -10 -25.5t-25 -10.5q-16 0 -26 10.5t-10 25.5z" />
<glyph unicode="&#x643;" horiz-adv-x="1173" arabic-form="final" d="M1173 40h16v-38q0 -2 -16 -2h-1q-124 0 -222 56q-109 -56 -267 -56h-328q-120 0 -192 48q-71 50 -71 172q0 60 20 154l38 -7q-18 -83 -18 -139q0 -188 223 -188h334q147 0 239 50v640h41v-639q87 -51 204 -51zM629 350v-32h-183v32h55q-32 26 -32 66q0 37 24 61.5 t62 24.5q36 0 64 -21l-17 -21q-18 13 -45 13t-43.5 -17t-16.5 -44t19.5 -44.5t51.5 -17.5h61z" />
<glyph unicode="&#x643;" horiz-adv-x="567" arabic-form="initial" d="M472 142v-91q-113 -51 -275 -51h-197q-16 0 -16 2v38h218q131 0 229 40v61q0 97 -54 148.5t-179 83.5l-98 25l-11 35l348 287l22 -28l-320 -264l74 -19q135 -34 197 -96t62 -171z" />
<glyph unicode="&#x643;" horiz-adv-x="649" arabic-form="medial" d="M649 40h16v-38q0 -2 -16 -2h-1q-98 0 -180 41q-105 -41 -258 -41h-210q-16 0 -16 2v38h231q135 0 230 37v61q0 98 -56 151q-55 53 -177 84l-99 25l-10 35l348 287l22 -28l-321 -264l74 -19q134 -34 196.5 -97.5t62.5 -172.5v-63q66 -36 164 -36z" />
<glyph unicode="&#x644;" horiz-adv-x="938" arabic-form="final" d="M938 40h16v-38q0 -2 -16 -2h-1q-109 0 -204 46v-212q-135 -89 -310 -89q-162 0 -249 76.5t-87 216.5q0 78 18 142l37 -8q-16 -66 -16 -128q0 -125 76.5 -191.5t221.5 -66.5q143 0 269 69v875h40v-639q91 -51 205 -51z" />
<glyph unicode="&#x644;" horiz-adv-x="383" arabic-form="initial" d="M244 730v-659q-102 -71 -243 -71h-1q-16 0 -16 2v38h16q117 0 204 51v639h40z" />
<glyph unicode="&#x644;" horiz-adv-x="448" arabic-form="medial" d="M448 40h16v-38q0 -2 -16 -2h-1q-123 0 -223 57q-100 -57 -223 -57h-1q-16 0 -16 2v38h16q116 0 204 51v639h40v-639q88 -51 204 -51z" />
<glyph unicode="&#x645;" horiz-adv-x="796" arabic-form="final" d="M796 40h16v-38q0 -2 -16 -2h-1q-100 0 -186 46q-69 -96 -194 -96q-93 0 -156 54q-35 29 -58 75q-12 4 -32 4q-91 0 -91 -100q0 -63 7 -147q6 -68 19 -171h-38q-13 104 -19 172q-7 83 -7 147q0 130 119 130q14 0 28 -3q-16 47 -16 99q0 115 68.5 187.5t175.5 72.5 t175 -72.5t68 -187.5q0 -72 -29 -132q76 -38 167 -38zM618 210q0 98 -56.5 159.5t-147.5 61.5q-90 0 -146.5 -61.5t-56.5 -159.5t56.5 -159.5t146.5 -61.5q91 0 147.5 61.5t56.5 159.5z" />
<glyph unicode="&#x645;" horiz-adv-x="701" arabic-form="initial" d="M626 210q0 -115 -68 -187.5t-175 -72.5q-124 0 -194 95q-87 -45 -188 -45h-1q-16 0 -16 2v38h16q95 0 169 37q-30 60 -30 133q0 115 68.5 187.5t175.5 72.5t175 -72.5t68 -187.5zM586 210q0 98 -56.5 159.5t-147.5 61.5q-90 0 -146.5 -61.5t-56.5 -159.5t56.5 -159.5 t146.5 -61.5q91 0 147.5 61.5t56.5 159.5z" />
<glyph unicode="&#x645;" horiz-adv-x="763" arabic-form="medial" d="M763 40h16v-38q0 -2 -16 -2h-1q-101 0 -187 44q-69 -94 -194 -94q-123 0 -192 93q-85 -43 -188 -43h-1q-16 0 -16 2v38h16q94 0 169 36q-31 58 -31 134q0 115 68 187.5t175 72.5t175.5 -72.5t68.5 -187.5q0 -76 -31 -134q75 -36 169 -36zM585 210q0 98 -56.5 159.5 t-147.5 61.5q-90 0 -146.5 -61.5t-56.5 -159.5t56.5 -159.5t146.5 -61.5q91 0 147.5 61.5t56.5 159.5z" />
<glyph unicode="&#x646;" horiz-adv-x="937" arabic-form="final" d="M940 40h16v-38q0 -2 -16 -2h-1q-121 0 -204 50v-218q-143 -87 -309 -87q-162 0 -250.5 77.5t-88.5 214.5q0 77 18 141l37 -7q-16 -66 -16 -128q0 -123 77.5 -190t223.5 -67q143 0 269 69v494h40v-245q0 -13 13 -20q80 -44 191 -44zM375 343q0 16 10.5 26.5t26.5 10.5 q15 0 25 -10.5t10 -26.5q0 -15 -10 -25.5t-25 -10.5q-16 0 -26.5 10.5t-10.5 25.5z" />
<glyph unicode="&#x646;" horiz-adv-x="358" arabic-form="initial" d="M244 478v-417q-104 -61 -243 -61h-1q-16 0 -16 2v38h16q122 0 204 48v390h40zM186 643q0 16 10.5 26.5t26.5 10.5q15 0 25 -10.5t10 -26.5q0 -15 -10 -25.5t-25 -10.5q-16 0 -26.5 10.5t-10.5 25.5z" />
<glyph unicode="&#x646;" horiz-adv-x="448" arabic-form="medial" d="M448 40h16v-38q0 -2 -16 -2h-1q-123 0 -223 57q-100 -57 -223 -57h-1q-16 0 -16 2v38h16q116 0 204 51v387h40v-387q88 -51 204 -51zM188 643q0 16 10.5 26.5t26.5 10.5q15 0 25 -10.5t10 -26.5q0 -15 -10 -25.5t-25 -10.5q-16 0 -26.5 10.5t-10.5 25.5z" />
<glyph unicode="&#x647;" horiz-adv-x="739" arabic-form="final" d="M755 40v-38q0 -2 -16 -2h-396q-119 0 -193.5 68t-74.5 181q0 124 74 192.5t191 68.5q55 0 110 -17t93 -43v-410h212zM340 40h163v385q-70 46 -166 46q-97 0 -159.5 -57t-62.5 -165q0 -99 63.5 -154t161.5 -55z" />
<glyph unicode="&#x647;" horiz-adv-x="829" arabic-form="initial" d="M751 238v-238h-751q-16 0 -16 2v38h253q-111 60 -111 195q0 90 61 149t148 59t148 -59t61 -149q0 -66 -29 -116.5t-83 -78.5h278v200q0 94 -29 163t-79.5 105.5t-107.5 53.5t-123 17q-63 0 -114 -9v39q59 8 114 8q79 0 145.5 -20.5t120 -63.5t84 -118.5t30.5 -176.5z M335 40q81 9 125.5 61t44.5 131q0 75 -49 124t-121 49t-121 -49t-49 -124q0 -79 45 -130.5t125 -61.5z" />
<glyph unicode="&#x647;" horiz-adv-x="926" arabic-form="medial" d="M942 40v-38q0 -2 -16 -2h-926q-16 0 -16 2v38h253q-111 60 -111 195q0 90 61 149t148 59t148 -59t61 -149q0 -66 -29 -116.5t-83 -78.5h278v200q0 94 -29 163t-79.5 105.5t-107.5 53.5t-123 17q-63 0 -114 -9v39q59 8 114 8q79 0 145.5 -20.5t120 -63.5t84 -118.5 t30.5 -176.5v-198h191zM335 40q81 9 125.5 61t44.5 131q0 75 -49 124t-121 49t-121 -49t-49 -124q0 -79 45 -130.5t125 -61.5z" />
<glyph unicode="&#x648;" horiz-adv-x="740" arabic-form="final" d="M756 40v-38q0 -2 -16 -2h-196q-5 -125 -76 -190t-196 -65q-94 0 -168 33l7 38q66 -32 162 -32q109 0 168 54.5t63 161.5h-160q-121 0 -195 64.5t-74 170.5q0 108 75 172.5t190 64.5q111 0 204 -60v-372h212zM340 40h164v346q-68 48 -165 48q-95 0 -159.5 -53.5 t-64.5 -144.5q0 -92 63.5 -144t161.5 -52z" />
<glyph unicode="&#x649;" horiz-adv-x="1222" arabic-form="final" d="M1222 40h16v-38q0 -2 -16 -2q-80 2 -123 18t-66 50t-45 106l-53 185h-135q-56 0 -89.5 -26.5t-33.5 -72.5q0 -20 6 -41l108 -376q-64 -39 -160 -68q-99 -30 -200 -30q-162 0 -253 78t-91 214q0 77 19 141l37 -8q-17 -56 -17 -127q0 -121 80 -189t224 -68q90 0 178 24 q84 21 139 52l-103 352q-8 30 -8 52q0 60 43.5 95.5t113.5 35.5h171l61 -211q19 -63 38 -90.5t54 -40.5t105 -15z" />
<glyph unicode="&#x64a;" horiz-adv-x="1222" arabic-form="final" d="M1222 40h16v-38q0 -2 -16 -2q-80 2 -123 18t-66 50t-45 106l-53 185h-135q-56 0 -89.5 -26.5t-33.5 -72.5q0 -20 6 -41l108 -376q-64 -39 -160 -68q-99 -30 -200 -30q-162 0 -253 78t-91 214q0 77 19 141l37 -8q-17 -56 -17 -127q0 -121 80 -189t224 -68q90 0 178 24 q84 21 139 52l-103 352q-8 30 -8 52q0 60 43.5 95.5t113.5 35.5h171l61 -211q19 -63 38 -90.5t54 -40.5t105 -15zM301 -426q0 16 10 26t26 10q15 0 25 -10t10 -26q0 -15 -10 -25.5t-25 -10.5q-16 0 -26 10.5t-10 25.5zM484 -426q0 16 10 26t26 10q15 0 25 -10t10 -26 q0 -15 -10 -25.5t-25 -10.5q-16 0 -26 10.5t-10 25.5z" />
<glyph unicode="&#x64a;" horiz-adv-x="358" arabic-form="initial" d="M244 478v-417q-104 -61 -243 -61h-1q-16 0 -16 2v38h16q122 0 204 48v390h40zM42 -163q0 16 10 26t26 10q15 0 25 -10t10 -26q0 -15 -10 -25.5t-25 -10.5q-16 0 -26 10.5t-10 25.5zM225 -163q0 16 10 26t26 10q15 0 25 -10t10 -26q0 -15 -10 -25.5t-25 -10.5 q-16 0 -26 10.5t-10 25.5z" />
<glyph unicode="&#x64a;" horiz-adv-x="448" arabic-form="medial" d="M448 40h16v-38q0 -2 -16 -2h-1q-123 0 -223 57q-100 -57 -223 -57h-1q-16 0 -16 2v38h16q116 0 204 51v387h40v-387q88 -51 204 -51zM98 -163q0 16 10 26t26 10q15 0 25 -10t10 -26q0 -15 -10 -25.5t-25 -10.5q-16 0 -26 10.5t-10 25.5zM281 -163q0 16 10 26t26 10 q15 0 25 -10t10 -26q0 -15 -10 -25.5t-25 -10.5q-16 0 -26 10.5t-10 25.5z" />
<glyph unicode=" "  horiz-adv-x="250" />
<glyph unicode="&#x09;" horiz-adv-x="250" />
<glyph unicode="&#xa0;" horiz-adv-x="250" />
<glyph unicode="!" horiz-adv-x="166" d="M104 700l-5 -553h-33l-4 553h42zM111 17q0 -12 -8 -20t-20 -8t-20 8t-8 20t8 20t20 8t20 -8t8 -20z" />
<glyph unicode="&#x22;" horiz-adv-x="287" d="M90 710l-4 -249h-29l-3 249h36zM234 710l-4 -249h-29l-3 249h36z" />
<glyph unicode="#" horiz-adv-x="756" d="M612 700l-34 -190h126l-6 -34h-125l-43 -241h126l-7 -33h-125l-36 -202h-34l35 202h-274l-35 -202h-35l36 202h-129l6 33h129l43 241h-129l6 34h128l34 190h35l-34 -190h274l34 190h34zM538 476h-274l-42 -241h274z" />
<glyph unicode="$" horiz-adv-x="600" d="M321 -10v-108h-36v110q-150 11 -241 81l20 32q51 -35 119 -56t136 -21q93 0 146 40.5t53 112.5q0 53 -30 85q-28 29 -67.5 44.5t-118.5 31.5q-113 25 -169.5 64.5t-59.5 123.5q0 78 57 126.5t155 52.5v109h36v-109q123 -5 220 -71l-20 -34q-96 69 -223 69 q-83 0 -132 -37.5t-49 -100.5q3 -69 51 -100t148 -53q74 -15 129 -37q116 -43 116 -160q0 -90 -64 -141.5t-176 -53.5z" />
<glyph unicode="%" horiz-adv-x="816" d="M694 717l-537 -734h-40l537 734h40zM352 528q0 -82 -41 -130.5t-112 -48.5t-112 48.5t-41 130.5t41 130.5t112 48.5t112 -48.5t41 -130.5zM79 528q0 -68 32.5 -108.5t87.5 -40.5t87.5 40.5t32.5 108.5t-32.5 108.5t-87.5 40.5t-87.5 -40.5t-32.5 -108.5zM771 172 q0 -82 -41 -130t-113 -48q-70 0 -111.5 48t-41.5 130t41.5 130.5t111.5 48.5q72 0 113 -48.5t41 -130.5zM497 172q0 -68 32.5 -108.5t87.5 -40.5q56 0 88.5 40.5t32.5 108.5q0 69 -32.5 109.5t-88.5 40.5q-55 0 -87.5 -41t-32.5 -109z" />
<glyph unicode="&#x26;" horiz-adv-x="746" d="M563 97l73 -82l-30 -25l-70 80q-92 -80 -220 -80q-107 0 -173.5 51t-66.5 132q0 62 43.5 108t147.5 94l-31 36q-63 72 -63 139t52.5 113.5t127.5 46.5q71 0 117 -42q47 -41 47 -106q-4 -71 -40 -106t-154 -91l215 -241q62 68 101 178l32 -13q-42 -120 -108 -192zM265 430 l36 -40q81 38 109 55q70 42 70 117q0 51 -35.5 82.5t-92.5 31.5q-59 0 -100 -36t-41 -88q0 -63 54 -122zM511 98l-221 252q-96 -45 -135 -84q-38 -40 -38 -91q0 -66 55.5 -108t144.5 -42q111 0 194 73z" />
<glyph unicode="'" horiz-adv-x="144" d="M90 710l-4 -249h-29l-3 249h36z" />
<glyph unicode="(" horiz-adv-x="234" d="M168 717l36 -20q-44 -88 -76 -214q-30 -123 -30 -240q0 -121 31 -245q31 -127 78 -217l-36 -20q-48 90 -83 226q-34 130 -34 256q0 121 33 251t81 223z" />
<glyph unicode=")" horiz-adv-x="234" d="M180 243q0 -126 -34 -256q-35 -136 -83 -226l-36 20q45 87 77 217q32 128 32 245q0 119 -31 240q-30 124 -75 214l35 20q48 -89 82 -223q33 -131 33 -251z" />
<glyph unicode="*" horiz-adv-x="423" d="M227 710l-1 -142l135 45l10 -29l-137 -43l85 -114l-25 -18l-82 116l-82 -116l-25 18l84 114l-136 43l10 29l135 -45l-2 142h31z" />
<glyph unicode="+" horiz-adv-x="600" d="M508 280v-33h-191v-191h-33v191h-192v33h192v192h33v-192h191z" />
<glyph unicode="," horiz-adv-x="163" d="M110 18q0 -8 -6 -20l-52 -111l-16 8l34 97q-16 6 -16 25q0 12 8 20t20 8t20 -8t8 -19z" />
<glyph unicode="-" horiz-adv-x="449" d="M395 277v-35h-341v35h341z" />
<glyph unicode="." horiz-adv-x="163" d="M110 17q0 -12 -8 -20t-20 -8t-20 8t-8 20t8 20t20 8t20 -8t8 -20z" />
<glyph unicode="/" horiz-adv-x="475" d="M434 717l-350 -734h-42l350 734h42z" />
<glyph unicode="0" horiz-adv-x="744" d="M672 340q0 -161 -81 -255.5t-218 -94.5t-218 94.5t-81 255.5t81 255.5t218 94.5t218 -94.5t81 -255.5zM117 340q0 -143 69 -226.5t187 -83.5q117 0 186 83.5t69 226.5t-69 226.5t-186 83.5q-118 0 -187 -83.5t-69 -226.5z" />
<glyph unicode="1" horiz-adv-x="343" d="M234 680v-680h-43v642l-141 -32l-6 34l153 36h37z" />
<glyph unicode="2" horiz-adv-x="591" d="M122 39h415v-39h-476v36l303 287q64 63 87 99q23 37 23 77q0 67 -50.5 109t-131.5 42q-127 0 -208 -120l-30 23q90 137 239 137q100 0 162.5 -52.5t62.5 -136.5q0 -50 -28 -93q-26 -42 -104 -117z" />
<glyph unicode="3" horiz-adv-x="612" d="M539 201q0 -93 -70 -152t-182 -59q-122 0 -232 75l24 32q98 -68 206 -68q95 0 153 47.5t58 124.5q0 70 -50 110.5t-135 40.5q-59 0 -119 -22l-10 29l271 282h-360v39h415v-36l-259 -268q36 9 75 9q97 0 156 -50t59 -134z" />
<glyph unicode="4" horiz-adv-x="645" d="M467 239h133v-39h-133v-200h-43v200h-375l-4 39l372 441h50v-441zM94 239h330v391z" />
<glyph unicode="5" horiz-adv-x="610" d="M539 215q0 -97 -74.5 -161t-188.5 -64q-137 0 -223 92l27 31q78 -84 196 -84q96 0 158 53.5t62 134.5q0 77 -56.5 126.5t-145.5 49.5q-108 0 -179 -69l-29 19l9 337h401v-39h-362l-6 -266q77 53 173 53q103 0 170.5 -60.5t67.5 -152.5z" />
<glyph unicode="6" horiz-adv-x="635" d="M575 219q0 -100 -68.5 -164.5t-177.5 -64.5q-123 0 -190.5 87t-67.5 249q0 172 72 268t200 96q115 0 208 -72l-21 -32q-86 65 -187 65q-111 0 -170 -83.5t-59 -241.5v-11q66 122 225 122q105 0 170.5 -61.5t65.5 -156.5zM533 218q0 82 -53.5 132.5t-143.5 50.5 q-77 0 -135 -38.5t-83 -106.5q26 -227 213 -227q90 0 146 53.5t56 135.5z" />
<glyph unicode="7" horiz-adv-x="561" d="M46 680h488v-38l-374 -642h-49l375 641h-440v39z" />
<glyph unicode="8" horiz-adv-x="665" d="M592 182q0 -84 -72.5 -138t-186.5 -54t-186.5 54t-72.5 138q0 69 43.5 116t122.5 65q-67 17 -104.5 58t-37.5 98q0 74 67 122.5t168 48.5t168 -48.5t67 -122.5q0 -57 -37.5 -98t-104.5 -58q78 -17 122 -64.5t44 -116.5zM333 380q88 0 140.5 36.5t52.5 100.5 q0 58 -54 96.5t-139 38.5t-139.5 -38.5t-54.5 -96.5q0 -64 53 -100.5t141 -36.5zM549 185q0 74 -58.5 116.5t-158.5 42.5q-38 0 -73.5 -8t-68.5 -25.5t-53 -50t-20 -75.5q0 -68 59.5 -112.5t156.5 -44.5t156.5 44.5t59.5 112.5z" />
<glyph unicode="9" horiz-adv-x="635" d="M559 354q0 -172 -72 -268t-200 -96q-115 0 -208 72l21 32q86 -65 187 -65q111 0 170 83.5t59 241.5v11q-66 -122 -225 -122q-105 0 -170.5 61.5t-65.5 156.5q0 100 68.5 164.5t177.5 64.5q123 0 190.5 -87t67.5 -249zM512 424q-26 227 -213 227q-90 0 -146 -53.5 t-56 -135.5t53.5 -132.5t143.5 -50.5q77 0 135 38.5t83 106.5z" />
<glyph unicode=":" horiz-adv-x="163" d="M110 17q0 -12 -8 -20t-20 -8t-20 8t-8 20t8 20t20 8t20 -8t8 -20zM110 484q0 -12 -8 -20t-20 -8t-20 8t-8 20t8 20t20 8t20 -8t8 -20z" />
<glyph unicode=";" horiz-adv-x="163" d="M110 18q0 -8 -6 -20l-52 -111l-16 8l34 97q-16 6 -16 25q0 12 8 20t20 8t20 -8t8 -19zM110 484q0 -12 -8 -20t-20 -8t-20 8t-8 20t8 20t20 8t20 -8t8 -20z" />
<glyph unicode="&#x3c;" horiz-adv-x="600" d="M508 492v-41l-375 -188l375 -188v-41l-416 208v42z" />
<glyph unicode="=" horiz-adv-x="600" d="M508 371v-33h-416v33h416zM508 190v-33h-416v33h416z" />
<glyph unicode="&#x3e;" horiz-adv-x="600" d="M92 492l416 -208v-42l-416 -208v41l375 188l-375 188v41z" />
<glyph unicode="?" horiz-adv-x="546" d="M489 524q0 -46 -20.5 -83t-71.5 -82l-18 -16q-52 -47 -67 -74t-19 -85l-1 -35h-35l-1 40q1 60 18.5 91t76.5 85l21 20q42 37 59 67.5t17 68.5q0 70 -46 111.5t-123 41.5q-79 0 -128.5 -43t-57.5 -118l-39 4q11 89 72 141t156 52q94 0 150.5 -51t56.5 -135zM303 17 q0 -12 -8.5 -20t-19.5 -8q-12 0 -20 8t-8 20t8 20t20 8q11 0 19.5 -8t8.5 -20z" />
<glyph unicode="@" horiz-adv-x="1076" d="M989 291q0 -128 -57.5 -203t-157.5 -75q-64 0 -110 28v57q-60 -66 -152 -66q-86 0 -145.5 59.5t-59.5 146.5q0 88 59.5 148t145.5 60q92 0 152 -66v64h33v-382q33 -18 74 -18q85 0 134 66t49 180q2 171 -111.5 280t-293.5 107q-191 0 -307 -119.5t-116 -315.5 q-2 -192 113.5 -312.5t300.5 -118.5q64 0 124 15l9 -31q-73 -17 -136 -17q-200 -2 -324.5 127.5t-122.5 337.5q-2 209 125.5 339t333.5 128q196 2 319 -115t121 -304zM340 239q0 -76 50.5 -127t124.5 -51q93 0 149 72v213q-52 71 -148 71q-75 0 -125.5 -51t-50.5 -127z" />
<glyph unicode="A" horiz-adv-x="793" d="M700 0l-92 200h-424l-92 -200h-46l322 700h57l322 -700h-47zM202 238h388l-194 421z" />
<glyph unicode="B" horiz-adv-x="767" d="M699 186q0 -79 -57 -133q-58 -53 -183 -53h-331v700h304q111 0 170 -44.5t59 -128.5q0 -126 -134 -161q87 -14 129.5 -62t42.5 -118zM171 663v-283h252q93 0 143.5 36t50.5 105t-50 105.5t-144 36.5h-252zM655 190q0 70 -50.5 112t-153.5 42h-280v-307h280 q103 0 153.5 41.5t50.5 111.5z" />
<glyph unicode="C" horiz-adv-x="801" d="M736 583l-34 -25q-95 112 -244 112q-131 3 -227 -93.5t-94 -226.5q-2 -130 94 -226.5t227 -93.5q145 0 245 113l33 -26q-51 -60 -123 -93.5t-155 -33.5q-149 -3 -259 105.5t-107 254.5q-3 146 107 254.5t259 105.5q83 0 155 -33.5t123 -93.5z" />
<glyph unicode="D" horiz-adv-x="848" d="M756 350q3 -145 -107 -248.5t-260 -101.5h-261v700h261q150 2 260 -101.5t107 -248.5zM388 661h-217v-622h217q132 -3 229.5 90t94.5 221q3 128 -94.5 221t-229.5 90z" />
<glyph unicode="E" horiz-adv-x="707" d="M633 700v-39h-462v-288h426v-38h-426v-296h473v-39h-516v700h505z" />
<glyph unicode="F" horiz-adv-x="671" d="M608 700v-39h-437v-303h400v-38h-400v-320h-43v700h480z" />
<glyph unicode="G" horiz-adv-x="862" d="M709 616l-28 -29q-95 83 -220 83q-132 3 -229.5 -93t-94.5 -227q-3 -130 94 -226.5t228 -93.5q142 0 243 87v195h-241v38h282v-252q-119 -108 -284 -108q-148 -3 -259 105.5t-108 254.5q-3 148 108.5 255.5t260.5 104.5q143 0 248 -94z" />
<glyph unicode="H" horiz-adv-x="853" d="M724 700v-700h-43v334h-510v-334h-43v700h43v-327h510v327h43z" />
<glyph unicode="I" horiz-adv-x="300" d="M171 700v-700h-43v700h43z" />
<glyph unicode="J" horiz-adv-x="610" d="M482 700v-455q0 -124 -61.5 -189.5t-168.5 -65.5q-134 0 -215 91l34 24q72 -75 179 -75q88 0 138.5 56t50.5 159v455h43z" />
<glyph unicode="K" horiz-adv-x="744" d="M647 0l-271 397l-205 -204v-193h-43v700h43v-449l453 449h57l-275 -274l293 -426h-52z" />
<glyph unicode="L" horiz-adv-x="628" d="M171 700v-661h412v-39h-455v700h43z" />
<glyph unicode="M" horiz-adv-x="1056" d="M868 700h60v-700h-43v649l-346 -583h-24l-345 581v-647h-42v700h60l340 -572z" />
<glyph unicode="N" horiz-adv-x="853" d="M682 700h42v-700h-50l-503 644v-644h-43v700h51l503 -644v644z" />
<glyph unicode="O" horiz-adv-x="917" d="M825 350q3 -146 -107.5 -254.5t-258.5 -105.5q-148 -3 -259 105.5t-108 254.5q-3 146 108 254.5t259 105.5q148 3 258.5 -105.5t107.5 -254.5zM137 350q-3 -130 94 -226.5t228 -93.5q131 -3 228 93.5t94 226.5q3 130 -94 226.5t-228 93.5q-131 3 -228 -93.5t-94 -226.5z " />
<glyph unicode="P" horiz-adv-x="757" d="M128 700h274q145 0 213 -55.5t68 -172.5t-68.5 -173t-210.5 -56h-233v-243h-43v700zM401 661h-230v-380h231q123 0 180 45.5t57 144.5q0 98 -57 144t-181 46z" />
<glyph unicode="Q" horiz-adv-x="917" d="M834 -25l-31 -29l-119 119q-98 -75 -225 -75q-148 -3 -259 105.5t-108 254.5q-3 146 108 254.5t259 105.5q148 3 258.5 -105.5t107.5 -254.5q0 -150 -109 -257zM654 95l-128 128l31 28l129 -129q95 93 95 228q3 130 -94 226.5t-228 93.5q-131 3 -228 -93.5t-94 -226.5 q-3 -130 94 -226.5t228 -93.5q109 0 195 65z" />
<glyph unicode="R" horiz-adv-x="771" d="M727 0h-52l-195 278q-48 -2 -60 -2h-249v-276h-43v700h290q148 0 214 -50t66 -160q0 -89 -41.5 -139t-129.5 -66zM171 314h249q124 0 179 41t55 133t-54.5 132.5t-179.5 40.5h-249v-347z" />
<glyph unicode="S" horiz-adv-x="703" d="M609 638l-20 -35q-108 68 -248 68q-92 0 -146.5 -38t-54.5 -104q0 -51 39 -80.5t140 -55.5l93 -24q82 -22 122 -40q97 -40 97 -140q0 -94 -74 -147q-73 -52 -194 -52q-81 0 -161.5 22.5t-137.5 62.5l21 32q56 -36 132 -57t149 -21q103 0 161.5 41.5t58.5 117.5 q0 55 -37 83.5t-139 54.5l-94 24q-126 33 -174 70t-48 105q0 87 67.5 136t181.5 49q152 0 266 -72z" />
<glyph unicode="T" horiz-adv-x="641" d="M597 700v-39h-254v-661h-43v661h-254v39h551z" />
<glyph unicode="U" horiz-adv-x="857" d="M729 700v-393q0 -146 -81 -231.5t-219 -85.5q-139 0 -220 85.5t-81 231.5v393h43v-393q0 -128 69.5 -202.5t188.5 -74.5t188 74.5t69 202.5v393h43z" />
<glyph unicode="V" horiz-adv-x="775" d="M682 700h47l-314 -700h-56l-313 700h46l295 -656z" />
<glyph unicode="W" horiz-adv-x="1100" d="M1008 700h47l-243 -700h-49l-212 641l-213 -641h-50l-242 700h46l222 -643l212 643h48l212 -643z" />
<glyph unicode="X" horiz-adv-x="735" d="M689 0h-53l-270 325l-268 -325h-52l292 358l-281 342h54l258 -311l256 311h53l-281 -343z" />
<glyph unicode="Y" horiz-adv-x="751" d="M654 700h51l-308 -440v-260h-43v260l-308 440h51l278 -395z" />
<glyph unicode="Z" horiz-adv-x="687" d="M613 700v-35l-492 -626h502v-39h-559v36l490 625h-472v39h531z" />
<glyph unicode="[" horiz-adv-x="286" d="M252 700v-31h-159v-860h159v-31h-198v922h198z" />
<glyph unicode="\" horiz-adv-x="475" d="M42 717h41l350 -734h-41z" />
<glyph unicode="]" horiz-adv-x="286" d="M233 700v-922h-198v31h159v860h-159v31h198z" />
<glyph unicode="^" horiz-adv-x="457" d="M255 710l155 -344h-40l-141 310l-141 -310h-41l156 344h52z" />
<glyph unicode="_" horiz-adv-x="676" d="M629 -96v-27h-582v27h582z" />
<glyph unicode="`" horiz-adv-x="247" d="M20 713l106 -150h-38l-116 150h48z" />
<glyph unicode="a" horiz-adv-x="612" d="M521 323v-323h-40v62q-96 -72 -216 -72q-93 0 -147 44.5t-54 117.5t53.5 112.5t149.5 39.5h214v16q0 76 -44.5 116t-128.5 40q-103 0 -190 -66l-16 30q94 70 213 70q99 0 152.5 -49t53.5 -138zM481 93v181h-209q-81 0 -124.5 -31.5t-43.5 -89.5q0 -60 44 -94.5t122 -34.5 q113 0 211 69z" />
<glyph unicode="b" horiz-adv-x="664" d="M591 250q2 -106 -76 -184t-184 -76q-116 0 -190 82v-72h-40v700h40v-272q74 82 190 82q106 2 184 -76t76 -184zM551 250q0 94 -65.5 159.5t-158.5 65.5q-113 0 -186 -89v-272q73 -89 186 -89q93 0 158.5 65.5t65.5 159.5z" />
<glyph unicode="c" horiz-adv-x="615" d="M540 420l-31 -19q-66 74 -170 74q-92 2 -160.5 -66t-66.5 -159q-2 -92 66.5 -159.5t160.5 -65.5q108 0 177 81l31 -19q-39 -45 -93.5 -71t-114.5 -26q-107 -2 -187.5 76t-78.5 184q-2 106 78.5 184t187.5 76q120 0 201 -90z" />
<glyph unicode="d" horiz-adv-x="664" d="M523 700h40v-700h-40v72q-74 -82 -190 -82q-106 -2 -184 76t-76 184q-2 106 76 184t184 76q116 0 190 -82v272zM523 114v272q-73 89 -186 89q-91 2 -158.5 -66t-65.5 -159q0 -94 65.5 -159.5t158.5 -65.5q113 0 186 89z" />
<glyph unicode="e" horiz-adv-x="650" d="M582 250v-20h-469q7 -88 70 -147t149 -59q111 0 188 75l24 -23q-88 -86 -212 -86q-106 -2 -183.5 76t-75.5 184q-2 106 74.5 184t180.5 76q113 0 183.5 -74t70.5 -186zM112 262h431q0 92 -60 153t-155 61q-87 0 -150 -62t-66 -152z" />
<glyph unicode="f" horiz-adv-x="396" d="M160 543v-43h180v-34h-180v-466h-40v466h-91v34h91v44q0 79 44 122.5t117 43.5q43 0 78 -12l-8 -31q-26 10 -66 10q-57 0 -91 -35t-34 -99z" />
<glyph unicode="g" horiz-adv-x="664" d="M523 500h40v-444q0 -126 -67.5 -193.5t-183.5 -67.5q-120 0 -212 69l17 29q86 -65 192 -65q99 0 156.5 59t57.5 169v16q-74 -82 -190 -82q-106 -2 -184 76t-76 184q-2 106 76 184t184 76q116 0 190 -82v72zM523 114v272q-73 89 -186 89q-93 0 -158.5 -65.5t-65.5 -159.5 t65.5 -159.5t158.5 -65.5q113 0 186 89z" />
<glyph unicode="h" horiz-adv-x="666" d="M575 314v-314h-40v305q0 81 -44 126t-124 45q-59 0 -119 -24t-107 -68v-384h-40v700h40v-281q110 91 239 91q92 0 143.5 -52t51.5 -144z" />
<glyph unicode="i" horiz-adv-x="261" d="M157 641q0 -11 -8 -19t-19 -8t-19 8t-8 19t8 19t19 8t19 -8t8 -19zM151 500v-500h-40v500h40z" />
<glyph unicode="j" horiz-adv-x="268" d="M167 641q0 -11 -8 -19t-19 -8t-19 8t-8 19t8 19t19 8t19 -8t8 -19zM161 500v-533q0 -77 -47.5 -124.5t-117.5 -47.5q-35 0 -62 10l6 27q20 -7 45 -7q58 0 96.5 40t38.5 104v531h41z" />
<glyph unicode="k" horiz-adv-x="587" d="M561 0h-44l-200 291l-176 -164v-127h-40v700h40v-524l351 324h50l-196 -183z" />
<glyph unicode="l" horiz-adv-x="242" d="M141 700v-700h-40v700h40z" />
<glyph unicode="m" horiz-adv-x="1037" d="M522 417q106 93 241 93q83 0 132.5 -52t49.5 -144v-314h-40v305q0 81 -41 126t-113 45q-122 0 -222 -86q14 -37 14 -87v-303h-40v305q0 81 -41 126t-113 45q-58 0 -105 -20t-103 -68v-388h-40v500h40v-80q108 90 221 90q115 0 160 -93z" />
<glyph unicode="n" horiz-adv-x="666" d="M575 314v-314h-40v305q0 81 -44 126t-124 45q-59 0 -119 -24t-107 -68v-384h-40v500h40v-81q110 91 239 91q92 0 143.5 -52t51.5 -144z" />
<glyph unicode="o" horiz-adv-x="682" d="M609 250q2 -106 -78.5 -184t-189.5 -76q-109 -2 -189.5 76t-78.5 184q-2 106 78.5 184t189.5 76q109 2 189.5 -76t78.5 -184zM113 250q-2 -91 67 -159t161 -66q92 -2 161 66t68 159q2 91 -67.5 159t-161.5 66q-92 2 -161 -66t-67 -159z" />
<glyph unicode="p" horiz-adv-x="670" d="M596 250q2 -106 -75 -184t-182 -76q-58 0 -109 22t-84 61v-268h-40v695h40v-72q72 82 193 82q105 2 182 -76t75 -184zM556 250q0 94 -64 159.5t-156 65.5q-56 0 -106.5 -23t-83.5 -66v-271q32 -42 82.5 -66t107.5 -24q92 0 156 65.5t64 159.5z" />
<glyph unicode="q" horiz-adv-x="664" d="M523 500h40v-695h-40v268q-70 -83 -190 -83q-106 -2 -184 76t-76 184q-2 106 76 184t184 76q118 0 190 -82v72zM523 115v271q-67 89 -186 89q-93 0 -158.5 -65.5t-65.5 -159.5t65.5 -159.5t158.5 -65.5q56 0 105 24t81 66z" />
<glyph unicode="r" horiz-adv-x="419" d="M385 510v-37q-139 0 -244 -107v-366h-40v500h40v-97q109 107 244 107z" />
<glyph unicode="s" horiz-adv-x="532" d="M445 458l-16 -28q-78 48 -177 48q-66 0 -103 -26.5t-37 -73.5q0 -35 28 -55.5t106 -41.5l67 -18q88 -22 119.5 -51t31.5 -85q0 -64 -53 -100.5t-143 -36.5q-127 0 -218 61l16 28q84 -57 203 -57q74 0 115 26.5t41 75.5q0 44 -23.5 64.5t-98.5 41.5l-68 19 q-93 26 -127.5 52.5t-34.5 73.5q0 63 48.5 99t131.5 36q109 0 192 -52z" />
<glyph unicode="t" horiz-adv-x="433" d="M378 44l8 -30q-45 -24 -93 -24q-71 0 -118 47.5t-47 125.5v303h-99v34h99v153h40v-153h172v-34h-172v-298q0 -65 37.5 -104t95.5 -39q38 0 77 19z" />
<glyph unicode="u" horiz-adv-x="666" d="M525 500h40v-500h-40v81q-110 -91 -239 -91q-92 0 -143.5 52t-51.5 144v314h40v-305q0 -81 44 -126t124 -45q59 0 119 24t107 68v384z" />
<glyph unicode="v" horiz-adv-x="559" d="M489 500h43l-227 -500h-50l-228 500h43l210 -459z" />
<glyph unicode="w" horiz-adv-x="817" d="M791 500l-183 -500h-46l-153 446l-152 -446h-47l-183 500h41l167 -458l155 458h38l155 -458l167 458h41z" />
<glyph unicode="x" horiz-adv-x="533" d="M507 0h-48l-193 234l-192 -234h-47l215 262l-197 238h48l175 -213l175 213h47l-197 -241z" />
<glyph unicode="y" horiz-adv-x="551" d="M525 500l-240 -553q-35 -82 -77 -117t-101 -35q-41 0 -80 16l12 30q32 -13 65 -13q47 0 80 28.5t65 98.5l14 29l-234 516h43l209 -466l202 466h42z" />
<glyph unicode="z" horiz-adv-x="538" d="M460 500v-31l-357 -435h368v-34h-420v31l356 435h-335v34h388z" />
<glyph unicode="{" horiz-adv-x="341" d="M307 700v-30h-28q-44 0 -64.5 -18.5t-20.5 -57.5v-290q0 -45 -38 -65q38 -20 38 -64v-290q0 -77 85 -77h28v-30h-39q-113 0 -113 104v293q0 21 -13.5 35t-35.5 14h-52v31h52q22 0 35.5 13.5t13.5 35.5v293q0 103 113 103h39z" />
<glyph unicode="|" horiz-adv-x="298" d="M170 750v-903h-41v903h41z" />
<glyph unicode="}" horiz-adv-x="341" d="M34 700h39q114 0 114 -103v-293q0 -22 13.5 -35.5t35.5 -13.5h52v-31h-52q-22 0 -35.5 -14t-13.5 -35v-293q0 -104 -114 -104h-39v30h28q85 0 85 77v290q0 45 39 64q-39 19 -39 65v290q0 39 -20.5 57.5t-64.5 18.5h-28v30z" />
<glyph unicode="~" horiz-adv-x="600" d="M302 280q56 -49 95 -49q67 0 84 99l27 -4q-7 -61 -36.5 -95.5t-73.5 -34.5q-49 0 -107 52q-54 46 -90 46q-65 0 -82 -98l-27 4q7 61 36 95.5t73 34.5q41 0 101 -50z" />
<glyph unicode="&#xa1;" horiz-adv-x="166" d="M111 482q0 -12 -8 -20t-20 -8t-20 8t-8 20t8 20t20 8t20 -8t8 -20zM100 351l5 -552h-44l5 552h34z" />
<glyph unicode="&#xa2;" horiz-adv-x="600" d="M315 -118v110q-102 5 -176 81t-72 177q-2 101 72 177t176 81v110h34v-109q111 -8 185 -89l-30 -19q-68 74 -170 74q-91 2 -159.5 -66t-67.5 -159q-1 -91 67.5 -159t159.5 -66q108 0 176 81l31 -19q-71 -88 -192 -96v-109h-34z" />
<glyph unicode="&#xa3;" horiz-adv-x="600" d="M543 606l-26 -25q-57 92 -165 92q-87 0 -133 -47.5t-46 -141.5v-130h251v-34h-251v-284h374v-36h-501v36h84v284h-84v34h84v134q0 109 57 165.5t160 56.5q131 0 196 -104z" />
<glyph unicode="&#xa5;" horiz-adv-x="600" d="M571 700l-186 -329h137v-34h-156l-44 -77v-75h200v-34h-200v-151h-44v151h-200v34h200v75l-43 77h-157v34h137l-185 329h46l225 -396l224 396h46z" />
<glyph unicode="&#xa6;" horiz-adv-x="298" d="M170 750v-341h-41v341h41zM170 188v-341h-41v341h41z" />
<glyph unicode="&#xa7;" horiz-adv-x="625" d="M553 3q0 -77 -66 -121q-65 -43 -166 -43q-148 0 -257 72l19 31q46 -31 111.5 -49.5t128.5 -18.5q85 0 136.5 33t51.5 94q-4 61 -34 82t-134 49l-57 15q-112 30 -153.5 62.5t-41.5 88.5q0 90 90 135q-48 20 -69 47t-21 69q0 76 59.5 118.5t157.5 42.5q120 0 224 -62 l-18 -30q-92 57 -207 57q-79 0 -126.5 -32.5t-47.5 -91.5q0 -42 33.5 -67t128.5 -48l53 -13q116 -29 158.5 -61.5t46.5 -107.5q0 -78 -75 -127q39 -19 57 -48t18 -76zM297 183l55 -15q55 -14 85 -25q75 37 75 108q-4 62 -36.5 85t-137.5 51l-53 13q-24 5 -60 17 q-94 -32 -94 -116q0 -44 34 -68.5t132 -49.5z" />
<glyph unicode="&#xa8;" horiz-adv-x="247" d="M1 648q0 -10 -7 -17.5t-17 -7.5q-25 0 -25 25q0 10 7 17t18 7q10 0 17 -7t7 -17zM196 648q0 -25 -25 -25q-10 0 -17 7t-7 18q0 10 7 17t17 7q11 0 18 -7t7 -17z" />
<glyph unicode="&#xa9;" horiz-adv-x="865" d="M793 350q3 -146 -106 -254.5t-254 -105.5q-145 -3 -254 106t-106 254q-3 146 106 254.5t254 105.5q145 3 254 -105.5t106 -254.5zM103 350q-2 -133 97.5 -232.5t232.5 -97.5q133 -3 233 97t97 233q3 134 -97 234t-233 97q-133 3 -232.5 -97t-97.5 -234zM586 470l-23 -15 q-52 60 -127 60q-68 0 -116.5 -48.5t-48.5 -116.5q0 -69 48.5 -117t116.5 -48q75 0 127 60l23 -15q-58 -71 -150 -71q-80 0 -137.5 56.5t-57.5 134.5t57.5 134.5t137.5 56.5q92 0 150 -71z" />
<glyph unicode="&#xaa;" horiz-adv-x="401" d="M353 580v-217h-31v42q-65 -49 -156 -49q-53 0 -87 30.5t-34 79.5q0 48 35.5 74t99.5 26h142v12q0 103 -113 103q-69 0 -127 -45l-12 21q65 49 145 49q65 0 101.5 -32.5t36.5 -93.5zM322 427v116h-137q-109 0 -109 -77q0 -38 27 -60.5t73 -22.5q87 0 146 44z" />
<glyph unicode="&#xab;" horiz-adv-x="541" d="M197 451l31 -18l-138 -168l138 -168l-31 -18l-153 186zM467 451l31 -18l-138 -168l138 -168l-31 -18l-153 186z" />
<glyph unicode="&#xad;" horiz-adv-x="449" d="M395 277v-35h-341v35h341z" />
<glyph unicode="&#xae;" horiz-adv-x="865" d="M793 350q3 -146 -106 -254.5t-254 -105.5q-145 -3 -254 106t-106 254q-3 146 106 254.5t254 105.5q145 3 254 -105.5t106 -254.5zM103 350q-2 -133 97.5 -232.5t232.5 -97.5q133 -3 233 97t97 233q3 134 -97 234t-233 97q-133 3 -232.5 -97t-97.5 -234zM588 423 q0 -89 -89 -105l106 -150h-31l-102 146q-7 -1 -32 -1h-124v-145h-26v366h153q75 0 110 -27t35 -84zM316 510v-175h128q64 0 90.5 20t26.5 67q0 48 -26.5 68t-90.5 20h-128z" />
<glyph unicode="&#xaf;" horiz-adv-x="247" d="M209 662v-28h-270v28h270z" />
<glyph unicode="&#xb0;" horiz-adv-x="415" d="M368 595q0 -66 -47.5 -113t-112.5 -47q-67 0 -114 47t-47 113t47 113t114 47q65 0 112.5 -47t47.5 -113zM75 595q0 -54 39.5 -93.5t93.5 -39.5q53 0 92.5 39.5t39.5 93.5t-39.5 93.5t-92.5 39.5q-54 0 -93.5 -39.5t-39.5 -93.5z" />
<glyph unicode="&#xb1;" horiz-adv-x="600" d="M508 33v-33h-416v33h416zM508 327v-33h-191v-191h-33v191h-192v33h192v192h33v-192h191z" />
<glyph unicode="&#xb2;" horiz-adv-x="340" d="M68 372h236v-30h-281v28l171 167q39 38 52.5 59t13.5 43q0 39 -27 62.5t-72 23.5q-70 0 -121 -69l-23 18q58 82 146 82q58 0 95 -32t37 -82q0 -28 -17 -56q-15 -23 -64 -72z" />
<glyph unicode="&#xb3;" horiz-adv-x="353" d="M308 462q0 -56 -43 -91.5t-110 -35.5q-75 0 -136 45l17 25q58 -39 117 -39q55 0 88 26.5t33 69.5q0 40 -28.5 63t-77.5 23q-34 0 -69 -13l-7 23l153 162h-203v30h247v-25l-149 -156q21 6 44 6q56 0 90 -31.5t34 -81.5z" />
<glyph unicode="&#xb4;" horiz-adv-x="247" d="M163 713l-116 -150h-38l106 150h48z" />
<glyph unicode="&#xb6;" horiz-adv-x="764" d="M321 700h314v-854h-36v821h-173v-821h-36v443h-73q-116 0 -179.5 57t-63.5 149q0 93 64.5 149t182.5 56z" />
<glyph unicode="&#xb7;" horiz-adv-x="163" d="M110 17q0 -12 -8 -20t-20 -8t-20 8t-8 20t8 20t20 8t20 -8t8 -20z" />
<glyph unicode="&#xb8;" horiz-adv-x="247" d="M176 -122q0 -38 -29.5 -62.5t-74.5 -24.5q-56 0 -96 22l9 19q34 -18 85 -18q34 0 55.5 18.5t21.5 46.5q0 27 -17.5 42.5t-45.5 15.5q-36 0 -58 -21l-14 12l35 74h27l-24 -51q21 7 41 7q37 0 61 -22t24 -58z" />
<glyph unicode="&#xb9;" horiz-adv-x="201" d="M133 754v-412h-35v381l-84 -19l-4 28l96 22h27z" />
<glyph unicode="&#xba;" horiz-adv-x="457" d="M409 531q0 -72 -53 -123.5t-127 -51.5t-127.5 51.5t-53.5 123.5t53.5 123.5t127.5 51.5t127 -51.5t53 -123.5zM78 531q0 -61 44 -105t107 -44q61 0 105.5 44t44.5 105t-44.5 105t-105.5 44q-63 0 -107 -43.5t-44 -105.5z" />
<glyph unicode="&#xbb;" horiz-adv-x="541" d="M75 451l153 -186l-152 -186l-31 18l137 168l-137 168zM345 451l153 -186l-152 -186l-31 18l137 168l-137 168z" />
<glyph unicode="&#xbc;" horiz-adv-x="667" d="M133 684v-412h-35v381l-84 -19l-4 28l96 22h27zM527 688l-444 -705h-38l444 705h38zM560 149h80v-30h-80v-119h-34v119h-220l-2 30l220 259h36v-259zM342 149h184v217z" />
<glyph unicode="&#xbd;" horiz-adv-x="663" d="M133 684v-412h-35v381l-84 -19l-4 28l96 22h27zM504 688l-444 -705h-38l444 705h38zM391 30h236v-30h-281v28l171 167q39 38 52.5 59t13.5 43q0 39 -27 62.5t-72 23.5q-70 0 -121 -69l-23 18q58 82 146 82q58 0 95 -32t37 -82q0 -28 -17 -56q-15 -23 -64 -72z" />
<glyph unicode="&#xbe;" horiz-adv-x="782" d="M308 392q0 -56 -43 -91.5t-110 -35.5q-75 0 -136 45l17 25q58 -39 117 -39q55 0 88 26.5t33 69.5q0 40 -28.5 63t-77.5 23q-34 0 -69 -13l-7 23l153 162h-203v30h247v-25l-149 -156q21 6 44 6q56 0 90 -31.5t34 -81.5zM653 688l-444 -705h-38l444 705h38zM676 149h80v-30 h-80v-119h-34v119h-220l-2 30l220 259h36v-259zM458 149h184v217z" />
<glyph unicode="&#xbf;" horiz-adv-x="546" d="M299 488q0 -13 -8 -20.5t-20 -7.5t-20 8t-8 20t8.5 20t19.5 8q12 0 20 -8t8 -20zM56 -19q0 46 21 83t71 82l18 16q53 47 68.5 74.5t18.5 84.5l1 35h35l1 -40q-1 -60 -18.5 -91t-76.5 -85l-22 -20q-41 -37 -58 -67.5t-17 -68.5q0 -71 45.5 -112t123.5 -41t128 43t58 118 l38 -4q-11 -90 -71.5 -141.5t-155.5 -51.5q-94 0 -151 51t-57 135z" />
<glyph unicode="&#xc0;" horiz-adv-x="793" d="M700 0l-92 200h-424l-92 -200h-46l322 700h57l322 -700h-47zM202 238h388l-194 421zM343 913l106 -150h-38l-116 150h48z" />
<glyph unicode="&#xc1;" horiz-adv-x="793" d="M700 0l-92 200h-424l-92 -200h-46l322 700h57l322 -700h-47zM202 238h388l-194 421zM499 913l-116 -150h-38l106 150h48z" />
<glyph unicode="&#xc2;" horiz-adv-x="793" d="M700 0l-92 200h-424l-92 -200h-46l322 700h57l322 -700h-47zM202 238h388l-194 421zM420 913l120 -150h-36l-107 124l-105 -124h-37l120 150h45z" />
<glyph unicode="&#xc3;" horiz-adv-x="793" d="M700 0l-92 200h-424l-92 -200h-46l322 700h57l322 -700h-47zM202 238h388l-194 421zM315 904q35 0 91 -38q46 -32 72 -32q24 0 41 17t22 48l25 -4q-6 -42 -29.5 -67t-56.5 -25q-35 0 -90 37q-47 33 -73 33q-24 0 -41 -17.5t-22 -47.5l-25 3q6 42 29.5 67.5t56.5 25.5z " />
<glyph unicode="&#xc4;" horiz-adv-x="793" d="M700 0l-92 200h-424l-92 -200h-46l322 700h57l322 -700h-47zM202 238h388l-194 421zM324 848q0 -10 -7 -17.5t-17 -7.5q-25 0 -25 25q0 10 7 17t18 7q10 0 17 -7t7 -17zM519 848q0 -25 -25 -25q-10 0 -17 7t-7 18q0 10 7 17t17 7q11 0 18 -7t7 -17z" />
<glyph unicode="&#xc5;" horiz-adv-x="793" d="M700 0l-92 200h-424l-92 -200h-46l322 700h57l322 -700h-47zM202 238h388l-194 421zM510 849q0 -45 -33 -78q-34 -32 -79 -32q-46 0 -80 32q-33 33 -33 78q0 47 33 78q34 32 80 32q47 0 79 -32q33 -31 33 -78zM312 849q0 -34 25.5 -59t60.5 -25t60 25t25 59 q0 35 -25 59.5t-60 24.5t-60.5 -24.5t-25.5 -59.5z" />
<glyph unicode="&#xc6;" horiz-adv-x="992" d="M480 39h449v-39h-492v200h-246l-106 -200h-46l369 700h510v-39h-438v-289h402v-37h-402v-296zM210 236h227v430z" />
<glyph unicode="&#xc7;" horiz-adv-x="801" d="M703 143l33 -26q-50 -59 -121 -92.5t-152 -34.5l-18 -39q20 7 40 7q37 0 61 -22t24 -58q0 -38 -29.5 -62.5t-74.5 -24.5q-56 0 -96 22l10 19q34 -18 84 -18q34 0 55.5 18.5t21.5 46.5q0 27 -17.5 42.5t-45.5 15.5q-34 0 -58 -21l-14 12l30 63q-92 3 -172 53.5 t-126.5 132.5t-45.5 173q-3 146 107 254.5t259 105.5q83 0 155 -33.5t123 -93.5l-34 -25q-95 112 -244 112q-131 3 -227 -93.5t-94 -226.5q-2 -130 94 -226.5t227 -93.5q145 0 245 113z" />
<glyph unicode="&#xc8;" horiz-adv-x="707" d="M633 700v-39h-462v-288h426v-38h-426v-296h473v-39h-516v700h505zM323 913l106 -150h-38l-116 150h48z" />
<glyph unicode="&#xc9;" horiz-adv-x="707" d="M633 700v-39h-462v-288h426v-38h-426v-296h473v-39h-516v700h505zM479 913l-116 -150h-38l106 150h48z" />
<glyph unicode="&#xca;" horiz-adv-x="707" d="M633 700v-39h-462v-288h426v-38h-426v-296h473v-39h-516v700h505zM400 913l120 -150h-36l-107 124l-105 -124h-37l120 150h45z" />
<glyph unicode="&#xcb;" horiz-adv-x="707" d="M633 700v-39h-462v-288h426v-38h-426v-296h473v-39h-516v700h505zM304 848q0 -10 -7 -17.5t-17 -7.5q-25 0 -25 25q0 10 7 17t18 7q10 0 17 -7t7 -17zM499 848q0 -25 -25 -25q-10 0 -17 7t-7 18q0 10 7 17t17 7q11 0 18 -7t7 -17z" />
<glyph unicode="&#xcc;" horiz-adv-x="300" d="M171 700v-700h-43v700h43zM97 913l106 -150h-38l-116 150h48z" />
<glyph unicode="&#xcd;" horiz-adv-x="300" d="M171 700v-700h-43v700h43zM253 913l-116 -150h-38l106 150h48z" />
<glyph unicode="&#xce;" horiz-adv-x="300" d="M171 700v-700h-43v700h43zM174 913l120 -150h-36l-107 124l-105 -124h-37l120 150h45z" />
<glyph unicode="&#xcf;" horiz-adv-x="300" d="M171 700v-700h-43v700h43zM78 848q0 -10 -7 -17.5t-17 -7.5q-25 0 -25 25q0 10 7 17t18 7q10 0 17 -7t7 -17zM273 848q0 -25 -25 -25q-10 0 -17 7t-7 18q0 10 7 17t17 7q11 0 18 -7t7 -17z" />
<glyph unicode="&#xd0;" horiz-adv-x="848" d="M756 350q3 -145 -107 -248.5t-260 -101.5h-261v333h-84v35h84v332h261q150 2 260 -101.5t107 -248.5zM712 350q3 128 -94.5 221t-229.5 90h-217v-293h216v-35h-216v-294h217q132 -3 229.5 90t94.5 221z" />
<glyph unicode="&#xd1;" horiz-adv-x="853" d="M682 700h42v-700h-50l-503 644v-644h-43v700h51l503 -644v644zM347 904q35 0 91 -38q46 -32 72 -32q24 0 41 17t22 48l25 -4q-6 -42 -29.5 -67t-56.5 -25q-35 0 -90 37q-47 33 -73 33q-24 0 -41 -17.5t-22 -47.5l-25 3q6 42 29.5 67.5t56.5 25.5z" />
<glyph unicode="&#xd2;" horiz-adv-x="917" d="M825 350q3 -146 -107.5 -254.5t-258.5 -105.5q-148 -3 -259 105.5t-108 254.5q-3 146 108 254.5t259 105.5q148 3 258.5 -105.5t107.5 -254.5zM137 350q-3 -130 94 -226.5t228 -93.5q131 -3 228 93.5t94 226.5q3 130 -94 226.5t-228 93.5q-131 3 -228 -93.5t-94 -226.5z M405 913l106 -150h-38l-116 150h48z" />
<glyph unicode="&#xd3;" horiz-adv-x="917" d="M825 350q3 -146 -107.5 -254.5t-258.5 -105.5q-148 -3 -259 105.5t-108 254.5q-3 146 108 254.5t259 105.5q148 3 258.5 -105.5t107.5 -254.5zM137 350q-3 -130 94 -226.5t228 -93.5q131 -3 228 93.5t94 226.5q3 130 -94 226.5t-228 93.5q-131 3 -228 -93.5t-94 -226.5z M561 913l-116 -150h-38l106 150h48z" />
<glyph unicode="&#xd4;" horiz-adv-x="917" d="M825 350q3 -146 -107.5 -254.5t-258.5 -105.5q-148 -3 -259 105.5t-108 254.5q-3 146 108 254.5t259 105.5q148 3 258.5 -105.5t107.5 -254.5zM137 350q-3 -130 94 -226.5t228 -93.5q131 -3 228 93.5t94 226.5q3 130 -94 226.5t-228 93.5q-131 3 -228 -93.5t-94 -226.5z M482 913l120 -150h-36l-107 124l-105 -124h-37l120 150h45z" />
<glyph unicode="&#xd5;" horiz-adv-x="917" d="M825 350q3 -146 -107.5 -254.5t-258.5 -105.5q-148 -3 -259 105.5t-108 254.5q-3 146 108 254.5t259 105.5q148 3 258.5 -105.5t107.5 -254.5zM137 350q-3 -130 94 -226.5t228 -93.5q131 -3 228 93.5t94 226.5q3 130 -94 226.5t-228 93.5q-131 3 -228 -93.5t-94 -226.5z M377 904q35 0 91 -38q46 -32 72 -32q24 0 41 17t22 48l25 -4q-6 -42 -29.5 -67t-56.5 -25q-35 0 -90 37q-47 33 -73 33q-24 0 -41 -17.5t-22 -47.5l-25 3q6 42 29.5 67.5t56.5 25.5z" />
<glyph unicode="&#xd6;" horiz-adv-x="917" d="M825 350q3 -146 -107.5 -254.5t-258.5 -105.5q-148 -3 -259 105.5t-108 254.5q-3 146 108 254.5t259 105.5q148 3 258.5 -105.5t107.5 -254.5zM137 350q-3 -130 94 -226.5t228 -93.5q131 -3 228 93.5t94 226.5q3 130 -94 226.5t-228 93.5q-131 3 -228 -93.5t-94 -226.5z M386 848q0 -10 -7 -17.5t-17 -7.5q-25 0 -25 25q0 10 7 17t18 7q10 0 17 -7t7 -17zM581 848q0 -25 -25 -25q-10 0 -17 7t-7 18q0 10 7 17t17 7q11 0 18 -7t7 -17z" />
<glyph unicode="&#xd7;" horiz-adv-x="600" d="M474 414l-150 -150l149 -150l-23 -24l-150 150l-150 -150l-23 24l150 150l-151 150l24 23l150 -150l150 150z" />
<glyph unicode="&#xd8;" horiz-adv-x="917" d="M825 350q3 -146 -107.5 -254.5t-258.5 -105.5q-71 0 -139 27l-32 -67h-39l39 81q-90 47 -143 131q-53 86 -53 188q-3 146 108 254.5t259 105.5q71 0 139 -27l32 67h38l-39 -81q91 -48 142 -131q54 -86 54 -188zM305 68l276 579q-60 23 -122 23q-131 3 -228 -93.5 t-94 -226.5q0 -89 45.5 -164.5t122.5 -117.5zM781 350q0 91 -46 165q-47 77 -123 117l-275 -579q60 -23 122 -23q131 -3 228 93.5t94 226.5z" />
<glyph unicode="&#xd9;" horiz-adv-x="857" d="M729 700v-393q0 -146 -81 -231.5t-219 -85.5q-139 0 -220 85.5t-81 231.5v393h43v-393q0 -128 69.5 -202.5t188.5 -74.5t188 74.5t69 202.5v393h43zM374 913l106 -150h-38l-116 150h48z" />
<glyph unicode="&#xda;" horiz-adv-x="857" d="M729 700v-393q0 -146 -81 -231.5t-219 -85.5q-139 0 -220 85.5t-81 231.5v393h43v-393q0 -128 69.5 -202.5t188.5 -74.5t188 74.5t69 202.5v393h43zM530 913l-116 -150h-38l106 150h48z" />
<glyph unicode="&#xdb;" horiz-adv-x="857" d="M729 700v-393q0 -146 -81 -231.5t-219 -85.5q-139 0 -220 85.5t-81 231.5v393h43v-393q0 -128 69.5 -202.5t188.5 -74.5t188 74.5t69 202.5v393h43zM451 913l120 -150h-36l-107 124l-105 -124h-37l120 150h45z" />
<glyph unicode="&#xdc;" horiz-adv-x="857" d="M729 700v-393q0 -146 -81 -231.5t-219 -85.5q-139 0 -220 85.5t-81 231.5v393h43v-393q0 -128 69.5 -202.5t188.5 -74.5t188 74.5t69 202.5v393h43zM355 848q0 -10 -7 -17.5t-17 -7.5q-25 0 -25 25q0 10 7 17t18 7q10 0 17 -7t7 -17zM550 848q0 -25 -25 -25q-10 0 -17 7 t-7 18q0 10 7 17t17 7q11 0 18 -7t7 -17z" />
<glyph unicode="&#xdd;" horiz-adv-x="751" d="M654 700h51l-308 -440v-260h-43v260l-308 440h51l278 -395zM477 913l-116 -150h-38l106 150h48z" />
<glyph unicode="&#xde;" horiz-adv-x="757" d="M171 700v-106h231q145 0 213 -55t68 -172q0 -118 -67.5 -173.5t-211.5 -55.5h-233v-138h-43v700h43zM401 556h-230v-380h231q123 0 180 45.5t57 144.5q0 98 -57 144t-181 46z" />
<glyph unicode="&#xdf;" horiz-adv-x="707" d="M101 0v503q0 93 63 150t170 57q88 0 144 -39q56 -38 56 -100q0 -34 -22 -63.5t-75 -66.5q-37 -25 -50 -41t-13 -36q0 -25 23.5 -41.5t89.5 -37.5q88 -28 124.5 -60.5t36.5 -82.5q0 -69 -55.5 -110.5t-148.5 -41.5q-102 0 -197 54l14 33q91 -52 184 -52q75 0 118.5 30.5 t43.5 83.5q0 40 -31.5 66t-109.5 51q-75 24 -103.5 46.5t-28.5 57.5q0 30 18 52t64 53q41 29 60 52.5t19 51.5q0 48 -44 77.5t-116 29.5q-90 0 -141.5 -46t-51.5 -127v-503h-41z" />
<glyph unicode="&#xe0;" horiz-adv-x="612" d="M521 323v-323h-40v62q-96 -72 -216 -72q-93 0 -147 44.5t-54 117.5t53.5 112.5t149.5 39.5h214v16q0 76 -44.5 116t-128.5 40q-103 0 -190 -66l-16 30q94 70 213 70q99 0 152.5 -49t53.5 -138zM481 93v181h-209q-81 0 -124.5 -31.5t-43.5 -89.5q0 -60 44 -94.5t122 -34.5 q113 0 211 69zM256 713l106 -150h-38l-116 150h48z" />
<glyph unicode="&#xe1;" horiz-adv-x="612" d="M521 323v-323h-40v62q-96 -72 -216 -72q-93 0 -147 44.5t-54 117.5t53.5 112.5t149.5 39.5h214v16q0 76 -44.5 116t-128.5 40q-103 0 -190 -66l-16 30q94 70 213 70q99 0 152.5 -49t53.5 -138zM481 93v181h-209q-81 0 -124.5 -31.5t-43.5 -89.5q0 -60 44 -94.5t122 -34.5 q113 0 211 69zM412 713l-116 -150h-38l106 150h48z" />
<glyph unicode="&#xe2;" horiz-adv-x="612" d="M521 323v-323h-40v62q-96 -72 -216 -72q-93 0 -147 44.5t-54 117.5t53.5 112.5t149.5 39.5h214v16q0 76 -44.5 116t-128.5 40q-103 0 -190 -66l-16 30q94 70 213 70q99 0 152.5 -49t53.5 -138zM481 93v181h-209q-81 0 -124.5 -31.5t-43.5 -89.5q0 -60 44 -94.5t122 -34.5 q113 0 211 69zM333 713l120 -150h-36l-107 124l-105 -124h-37l120 150h45z" />
<glyph unicode="&#xe3;" horiz-adv-x="612" d="M521 323v-323h-40v62q-96 -72 -216 -72q-93 0 -147 44.5t-54 117.5t53.5 112.5t149.5 39.5h214v16q0 76 -44.5 116t-128.5 40q-103 0 -190 -66l-16 30q94 70 213 70q99 0 152.5 -49t53.5 -138zM481 93v181h-209q-81 0 -124.5 -31.5t-43.5 -89.5q0 -60 44 -94.5t122 -34.5 q113 0 211 69zM228 704q35 0 91 -38q46 -32 72 -32q24 0 41 17t22 48l25 -4q-6 -42 -29.5 -67t-56.5 -25q-35 0 -90 37q-47 33 -73 33q-24 0 -41 -17.5t-22 -47.5l-25 3q6 42 29.5 67.5t56.5 25.5z" />
<glyph unicode="&#xe4;" horiz-adv-x="612" d="M521 323v-323h-40v62q-96 -72 -216 -72q-93 0 -147 44.5t-54 117.5t53.5 112.5t149.5 39.5h214v16q0 76 -44.5 116t-128.5 40q-103 0 -190 -66l-16 30q94 70 213 70q99 0 152.5 -49t53.5 -138zM481 93v181h-209q-81 0 -124.5 -31.5t-43.5 -89.5q0 -60 44 -94.5t122 -34.5 q113 0 211 69zM237 648q0 -10 -7 -17.5t-17 -7.5q-25 0 -25 25q0 10 7 17t18 7q10 0 17 -7t7 -17zM432 648q0 -25 -25 -25q-10 0 -17 7t-7 18q0 10 7 17t17 7q11 0 18 -7t7 -17z" />
<glyph unicode="&#xe5;" horiz-adv-x="612" d="M521 323v-323h-40v62q-96 -72 -216 -72q-93 0 -147 44.5t-54 117.5t53.5 112.5t149.5 39.5h214v16q0 76 -44.5 116t-128.5 40q-103 0 -190 -66l-16 30q94 70 213 70q99 0 152.5 -49t53.5 -138zM481 93v181h-209q-81 0 -124.5 -31.5t-43.5 -89.5q0 -60 44 -94.5t122 -34.5 q113 0 211 69zM423 649q0 -45 -33 -78q-34 -32 -79 -32q-46 0 -80 32q-33 33 -33 78q0 47 33 78q34 32 80 32q47 0 79 -32q33 -31 33 -78zM225 649q0 -34 25.5 -59t60.5 -25t60 25t25 59q0 35 -25 59.5t-60 24.5t-60.5 -24.5t-25.5 -59.5z" />
<glyph unicode="&#xe6;" horiz-adv-x="1059" d="M991 250v-20h-469q8 -88 70.5 -147t147.5 -59q112 0 189 75l24 -23q-88 -86 -213 -86q-65 0 -121 30t-92 82q-118 -112 -249 -112q-99 0 -156.5 44.5t-57.5 117.5t53.5 112.5t150.5 39.5h214v16q0 76 -44.5 116t-128.5 40q-103 0 -190 -66l-17 30q94 70 214 70 q81 0 132 -33t67 -96q34 60 92.5 94.5t128.5 34.5q113 0 184 -74t71 -186zM521 261h431q0 92 -60 153.5t-156 61.5q-88 0 -150 -62t-65 -153zM514 124q-32 56 -32 126v24h-209q-81 0 -124.5 -31.5t-43.5 -89.5q0 -60 47 -94.5t130 -34.5q123 0 232 100z" />
<glyph unicode="&#xe7;" horiz-adv-x="615" d="M339 -10h-14l-19 -39q21 7 41 7q37 0 61 -22t24 -58q0 -38 -30 -62.5t-75 -24.5q-56 0 -96 22l10 19q35 -18 85 -18q34 0 55.5 18.5t21.5 46.5q0 26 -17.5 42t-45.5 16q-35 0 -59 -21l-13 12l31 65q-96 14 -161 87.5t-65 169.5q-2 106 78.5 184t187.5 76q120 0 201 -90 l-31 -19q-66 74 -170 74q-92 2 -160.5 -66t-66.5 -159q-2 -92 66.5 -159.5t160.5 -65.5q108 0 177 81l31 -19q-39 -45 -93.5 -71t-114.5 -26z" />
<glyph unicode="&#xe8;" horiz-adv-x="650" d="M582 250v-20h-469q7 -88 70 -147t149 -59q111 0 188 75l24 -23q-88 -86 -212 -86q-106 -2 -183.5 76t-75.5 184q-2 106 74.5 184t180.5 76q113 0 183.5 -74t70.5 -186zM112 262h431q0 92 -60 153t-155 61q-87 0 -150 -62t-66 -152zM276 713l106 -150h-38l-116 150h48z " />
<glyph unicode="&#xe9;" horiz-adv-x="650" d="M582 250v-20h-469q7 -88 70 -147t149 -59q111 0 188 75l24 -23q-88 -86 -212 -86q-106 -2 -183.5 76t-75.5 184q-2 106 74.5 184t180.5 76q113 0 183.5 -74t70.5 -186zM112 262h431q0 92 -60 153t-155 61q-87 0 -150 -62t-66 -152zM432 713l-116 -150h-38l106 150h48z " />
<glyph unicode="&#xea;" horiz-adv-x="650" d="M582 250v-20h-469q7 -88 70 -147t149 -59q111 0 188 75l24 -23q-88 -86 -212 -86q-106 -2 -183.5 76t-75.5 184q-2 106 74.5 184t180.5 76q113 0 183.5 -74t70.5 -186zM112 262h431q0 92 -60 153t-155 61q-87 0 -150 -62t-66 -152zM353 713l120 -150h-36l-107 124 l-105 -124h-37l120 150h45z" />
<glyph unicode="&#xeb;" horiz-adv-x="650" d="M582 250v-20h-469q7 -88 70 -147t149 -59q111 0 188 75l24 -23q-88 -86 -212 -86q-106 -2 -183.5 76t-75.5 184q-2 106 74.5 184t180.5 76q113 0 183.5 -74t70.5 -186zM112 262h431q0 92 -60 153t-155 61q-87 0 -150 -62t-66 -152zM257 648q0 -10 -7 -17.5t-17 -7.5 q-25 0 -25 25q0 10 7 17t18 7q10 0 17 -7t7 -17zM452 648q0 -25 -25 -25q-10 0 -17 7t-7 18q0 10 7 17t17 7q11 0 18 -7t7 -17z" />
<glyph unicode="&#xec;" horiz-adv-x="261" d="M151 500v-500h-40v500h40zM80 713l106 -150h-38l-116 150h48z" />
<glyph unicode="&#xed;" horiz-adv-x="261" d="M151 500v-500h-40v500h40zM236 713l-116 -150h-38l106 150h48z" />
<glyph unicode="&#xee;" horiz-adv-x="261" d="M151 500v-500h-40v500h40zM157 713l120 -150h-36l-107 124l-105 -124h-37l120 150h45z" />
<glyph unicode="&#xef;" horiz-adv-x="261" d="M151 500v-500h-40v500h40zM61 648q0 -10 -7 -17.5t-17 -7.5q-25 0 -25 25q0 10 7 17t18 7q10 0 17 -7t7 -17zM256 648q0 -25 -25 -25q-10 0 -17 7t-7 18q0 10 7 17t17 7q11 0 18 -7t7 -17z" />
<glyph unicode="&#xf0;" horiz-adv-x="655" d="M571 284q0 -133 -68 -213t-184 -80q-110 0 -178 64.5t-68 167.5q0 105 70 173.5t178 68.5q122 0 200 -84q-24 131 -115 210l-80 -74l-23 22l77 72q-70 52 -168 65l5 34q108 -13 191 -73l78 73l23 -23l-75 -70q137 -120 137 -333zM530 284q0 29 -1 37q-32 52 -86.5 80.5 t-121.5 28.5q-91 0 -148.5 -58.5t-57.5 -149.5q0 -88 56.5 -142.5t147.5 -54.5q101 0 156 68t55 191z" />
<glyph unicode="&#xf1;" horiz-adv-x="666" d="M575 314v-314h-40v305q0 81 -44 126t-124 45q-59 0 -119 -24t-107 -68v-384h-40v500h40v-81q110 91 239 91q92 0 143.5 -52t51.5 -144zM256 704q35 0 91 -38q46 -32 72 -32q24 0 41 17t22 48l25 -4q-6 -42 -29.5 -67t-56.5 -25q-35 0 -90 37q-47 33 -73 33 q-24 0 -41 -17.5t-22 -47.5l-25 3q6 42 29.5 67.5t56.5 25.5z" />
<glyph unicode="&#xf2;" horiz-adv-x="682" d="M609 250q2 -106 -78.5 -184t-189.5 -76q-109 -2 -189.5 76t-78.5 184q-2 106 78.5 184t189.5 76q109 2 189.5 -76t78.5 -184zM113 250q-2 -91 67 -159t161 -66q92 -2 161 66t68 159q2 91 -67.5 159t-161.5 66q-92 2 -161 -66t-67 -159zM287 713l106 -150h-38l-116 150h48 z" />
<glyph unicode="&#xf3;" horiz-adv-x="682" d="M609 250q2 -106 -78.5 -184t-189.5 -76q-109 -2 -189.5 76t-78.5 184q-2 106 78.5 184t189.5 76q109 2 189.5 -76t78.5 -184zM113 250q-2 -91 67 -159t161 -66q92 -2 161 66t68 159q2 91 -67.5 159t-161.5 66q-92 2 -161 -66t-67 -159zM443 713l-116 -150h-38l106 150h48 z" />
<glyph unicode="&#xf4;" horiz-adv-x="682" d="M609 250q2 -106 -78.5 -184t-189.5 -76q-109 -2 -189.5 76t-78.5 184q-2 106 78.5 184t189.5 76q109 2 189.5 -76t78.5 -184zM113 250q-2 -91 67 -159t161 -66q92 -2 161 66t68 159q2 91 -67.5 159t-161.5 66q-92 2 -161 -66t-67 -159zM364 713l120 -150h-36l-107 124 l-105 -124h-37l120 150h45z" />
<glyph unicode="&#xf5;" horiz-adv-x="682" d="M609 250q2 -106 -78.5 -184t-189.5 -76q-109 -2 -189.5 76t-78.5 184q-2 106 78.5 184t189.5 76q109 2 189.5 -76t78.5 -184zM113 250q-2 -91 67 -159t161 -66q92 -2 161 66t68 159q2 91 -67.5 159t-161.5 66q-92 2 -161 -66t-67 -159zM259 704q35 0 91 -38 q46 -32 72 -32q24 0 41 17t22 48l25 -4q-6 -42 -29.5 -67t-56.5 -25q-35 0 -90 37q-47 33 -73 33q-24 0 -41 -17.5t-22 -47.5l-25 3q6 42 29.5 67.5t56.5 25.5z" />
<glyph unicode="&#xf6;" horiz-adv-x="682" d="M609 250q2 -106 -78.5 -184t-189.5 -76q-109 -2 -189.5 76t-78.5 184q-2 106 78.5 184t189.5 76q109 2 189.5 -76t78.5 -184zM113 250q-2 -91 67 -159t161 -66q92 -2 161 66t68 159q2 91 -67.5 159t-161.5 66q-92 2 -161 -66t-67 -159zM268 648q0 -10 -7 -17.5t-17 -7.5 q-25 0 -25 25q0 10 7 17t18 7q10 0 17 -7t7 -17zM463 648q0 -25 -25 -25q-10 0 -17 7t-7 18q0 10 7 17t17 7q11 0 18 -7t7 -17z" />
<glyph unicode="&#xf7;" horiz-adv-x="600" d="M328 435q0 -12 -8 -19.5t-20 -7.5t-20 7.5t-8 19.5q0 13 8 21t20 8t20 -8t8 -21zM508 280v-33h-416v33h416zM328 92q0 -12 -8 -20t-20 -8t-20 8t-8 20t8 20t20 8t20 -8t8 -20z" />
<glyph unicode="&#xf8;" horiz-adv-x="682" d="M609 250q2 -106 -78.5 -184t-189.5 -76q-53 0 -99 18l-28 -58h-32l34 69q-66 34 -104.5 95.5t-38.5 135.5q-2 106 78.5 184t189.5 76q54 0 100 -18l27 58h32l-33 -70q66 -33 104 -94.5t38 -135.5zM231 52l194 407q-41 16 -84 16q-92 2 -161 -66t-67 -159q0 -62 31.5 -115 t86.5 -83zM570 250q0 62 -32 114.5t-87 82.5l-194 -406q41 -16 84 -16q92 -2 161 66t68 159z" />
<glyph unicode="&#xf9;" horiz-adv-x="666" d="M525 500h40v-500h-40v81q-110 -91 -239 -91q-92 0 -143.5 52t-51.5 144v314h40v-305q0 -81 44 -126t124 -45q59 0 119 24t107 68v384zM275 713l106 -150h-38l-116 150h48z" />
<glyph unicode="&#xfa;" horiz-adv-x="666" d="M525 500h40v-500h-40v81q-110 -91 -239 -91q-92 0 -143.5 52t-51.5 144v314h40v-305q0 -81 44 -126t124 -45q59 0 119 24t107 68v384zM431 713l-116 -150h-38l106 150h48z" />
<glyph unicode="&#xfb;" horiz-adv-x="666" d="M525 500h40v-500h-40v81q-110 -91 -239 -91q-92 0 -143.5 52t-51.5 144v314h40v-305q0 -81 44 -126t124 -45q59 0 119 24t107 68v384zM352 713l120 -150h-36l-107 124l-105 -124h-37l120 150h45z" />
<glyph unicode="&#xfc;" horiz-adv-x="666" d="M525 500h40v-500h-40v81q-110 -91 -239 -91q-92 0 -143.5 52t-51.5 144v314h40v-305q0 -81 44 -126t124 -45q59 0 119 24t107 68v384zM256 648q0 -10 -7 -17.5t-17 -7.5q-25 0 -25 25q0 10 7 17t18 7q10 0 17 -7t7 -17zM451 648q0 -25 -25 -25q-10 0 -17 7t-7 18 q0 10 7 17t17 7q11 0 18 -7t7 -17z" />
<glyph unicode="&#xfd;" horiz-adv-x="551" d="M525 500l-240 -553q-35 -82 -77 -117t-101 -35q-41 0 -80 16l12 30q32 -13 65 -13q47 0 80 28.5t65 98.5l14 29l-234 516h43l209 -466l202 466h42zM380 713l-116 -150h-38l106 150h48z" />
<glyph unicode="&#xfe;" horiz-adv-x="670" d="M596 250q2 -106 -76 -184t-184 -76q-120 0 -190 83v-268h-40v895h40v-272q72 82 190 82q106 2 184 -76t76 -184zM556 250q0 94 -66 159.5t-158 65.5q-119 0 -186 -89v-271q32 -42 81 -66t105 -24q92 0 158 65.5t66 159.5z" />
<glyph unicode="&#xff;" horiz-adv-x="551" d="M525 500l-240 -553q-35 -82 -77 -117t-101 -35q-41 0 -80 16l12 30q32 -13 65 -13q47 0 80 28.5t65 98.5l14 29l-234 516h43l209 -466l202 466h42zM205 648q0 -10 -7 -17.5t-17 -7.5q-25 0 -25 25q0 10 7 17t18 7q10 0 17 -7t7 -17zM400 648q0 -25 -25 -25q-10 0 -17 7 t-7 18q0 10 7 17t17 7q11 0 18 -7t7 -17z" />
<glyph unicode="&#x100;" horiz-adv-x="793" d="M700 0l-92 200h-424l-92 -200h-46l322 700h57l322 -700h-47zM202 238h388l-194 421zM532 862v-28h-270v28h270z" />
<glyph unicode="&#x101;" horiz-adv-x="612" d="M521 323v-323h-40v62q-96 -72 -216 -72q-93 0 -147 44.5t-54 117.5t53.5 112.5t149.5 39.5h214v16q0 76 -44.5 116t-128.5 40q-103 0 -190 -66l-16 30q94 70 213 70q99 0 152.5 -49t53.5 -138zM481 93v181h-209q-81 0 -124.5 -31.5t-43.5 -89.5q0 -60 44 -94.5t122 -34.5 q113 0 211 69zM445 662v-28h-270v28h270z" />
<glyph unicode="&#x102;" horiz-adv-x="793" d="M700 0l-92 200h-424l-92 -200h-46l322 700h57l322 -700h-47zM202 238h388l-194 421zM398 774q-67 0 -109.5 36t-46.5 98h31q4 -50 37 -77.5t88 -27.5q54 0 87 27.5t37 77.5h31q-4 -62 -46 -98t-109 -36z" />
<glyph unicode="&#x103;" horiz-adv-x="612" d="M521 323v-323h-40v62q-96 -72 -216 -72q-93 0 -147 44.5t-54 117.5t53.5 112.5t149.5 39.5h214v16q0 76 -44.5 116t-128.5 40q-103 0 -190 -66l-16 30q94 70 213 70q99 0 152.5 -49t53.5 -138zM481 93v181h-209q-81 0 -124.5 -31.5t-43.5 -89.5q0 -60 44 -94.5t122 -34.5 q113 0 211 69zM311 574q-67 0 -109.5 36t-46.5 98h31q4 -50 37 -77.5t88 -27.5q54 0 87 27.5t37 77.5h31q-4 -62 -46 -98t-109 -36z" />
<glyph unicode="&#x104;" horiz-adv-x="793" d="M827 -154l11 -21q-35 -29 -84 -29q-43 0 -71.5 24.5t-28.5 65.5q0 42 35 88l21 26h-10l-92 200h-424l-92 -200h-46l322 700h57l322 -700h-9l-25 -32q-29 -41 -29 -76q0 -30 22 -50t53 -20q38 0 68 24zM202 238h388l-194 421z" />
<glyph unicode="&#x105;" horiz-adv-x="612" d="M601 -153l11 -22q-35 -29 -83 -29q-43 0 -71.5 25.5t-28.5 64.5q0 42 38 89l19 25h-5v62q-96 -72 -216 -72q-93 0 -147 44.5t-54 117.5t53.5 112.5t149.5 39.5h214v16q0 76 -44.5 116t-128.5 40q-103 0 -190 -66l-16 30q94 70 213 70q99 0 152.5 -49t53.5 -138v-323h-7 l-25 -32q-30 -38 -30 -75q0 -31 21.5 -51t53.5 -20q36 0 67 25zM481 93v181h-209q-81 0 -124.5 -31.5t-43.5 -89.5q0 -60 44 -94.5t122 -34.5q113 0 211 69z" />
<glyph unicode="&#x106;" horiz-adv-x="801" d="M736 583l-34 -25q-95 112 -244 112q-131 3 -227 -93.5t-94 -226.5q-2 -130 94 -226.5t227 -93.5q145 0 245 113l33 -26q-51 -60 -123 -93.5t-155 -33.5q-149 -3 -259 105.5t-107 254.5q-3 146 107 254.5t259 105.5q83 0 155 -33.5t123 -93.5zM547 913l-116 -150h-38 l106 150h48z" />
<glyph unicode="&#x107;" horiz-adv-x="615" d="M540 420l-31 -19q-66 74 -170 74q-92 2 -160.5 -66t-66.5 -159q-2 -92 66.5 -159.5t160.5 -65.5q108 0 177 81l31 -19q-39 -45 -93.5 -71t-114.5 -26q-107 -2 -187.5 76t-78.5 184q-2 106 78.5 184t187.5 76q120 0 201 -90zM434 713l-116 -150h-38l106 150h48z" />
<glyph unicode="&#x108;" horiz-adv-x="801" d="M736 583l-34 -25q-95 112 -244 112q-131 3 -227 -93.5t-94 -226.5q-2 -130 94 -226.5t227 -93.5q145 0 245 113l33 -26q-51 -60 -123 -93.5t-155 -33.5q-149 -3 -259 105.5t-107 254.5q-3 146 107 254.5t259 105.5q83 0 155 -33.5t123 -93.5zM468 913l120 -150h-36 l-107 124l-105 -124h-37l120 150h45z" />
<glyph unicode="&#x109;" horiz-adv-x="615" d="M540 420l-31 -19q-66 74 -170 74q-92 2 -160.5 -66t-66.5 -159q-2 -92 66.5 -159.5t160.5 -65.5q108 0 177 81l31 -19q-39 -45 -93.5 -71t-114.5 -26q-107 -2 -187.5 76t-78.5 184q-2 106 78.5 184t187.5 76q120 0 201 -90zM355 713l120 -150h-36l-107 124l-105 -124h-37 l120 150h45z" />
<glyph unicode="&#x10a;" horiz-adv-x="801" d="M736 583l-34 -25q-95 112 -244 112q-131 3 -227 -93.5t-94 -226.5q-2 -130 94 -226.5t227 -93.5q145 0 245 113l33 -26q-51 -60 -123 -93.5t-155 -33.5q-149 -3 -259 105.5t-107 254.5q-3 146 107 254.5t259 105.5q83 0 155 -33.5t123 -93.5zM470 848q0 -10 -7 -17.5 t-17 -7.5q-11 0 -18 7.5t-7 17.5t7.5 17t17.5 7t17 -7t7 -17z" />
<glyph unicode="&#x10b;" horiz-adv-x="615" d="M540 420l-31 -19q-66 74 -170 74q-92 2 -160.5 -66t-66.5 -159q-2 -92 66.5 -159.5t160.5 -65.5q108 0 177 81l31 -19q-39 -45 -93.5 -71t-114.5 -26q-107 -2 -187.5 76t-78.5 184q-2 106 78.5 184t187.5 76q120 0 201 -90zM357 648q0 -10 -7 -17.5t-17 -7.5 q-11 0 -18 7.5t-7 17.5t7.5 17t17.5 7t17 -7t7 -17z" />
<glyph unicode="&#x10c;" horiz-adv-x="801" d="M736 583l-34 -25q-95 112 -244 112q-131 3 -227 -93.5t-94 -226.5q-2 -130 94 -226.5t227 -93.5q145 0 245 113l33 -26q-51 -60 -123 -93.5t-155 -33.5q-149 -3 -259 105.5t-107 254.5q-3 146 107 254.5t259 105.5q83 0 155 -33.5t123 -93.5zM588 913l-120 -150h-45 l-120 150h37l105 -125l107 125h36z" />
<glyph unicode="&#x10d;" horiz-adv-x="615" d="M540 420l-31 -19q-66 74 -170 74q-92 2 -160.5 -66t-66.5 -159q-2 -92 66.5 -159.5t160.5 -65.5q108 0 177 81l31 -19q-39 -45 -93.5 -71t-114.5 -26q-107 -2 -187.5 76t-78.5 184q-2 106 78.5 184t187.5 76q120 0 201 -90zM475 713l-120 -150h-45l-120 150h37l105 -125 l107 125h36z" />
<glyph unicode="&#x10e;" horiz-adv-x="848" d="M756 350q3 -145 -107 -248.5t-260 -101.5h-261v700h261q150 2 260 -101.5t107 -248.5zM388 661h-217v-622h217q132 -3 229.5 90t94.5 221q3 128 -94.5 221t-229.5 90zM529 913l-120 -150h-45l-120 150h37l105 -125l107 125h36z" />
<glyph unicode="&#x10f;" horiz-adv-x="743" d="M523 700h40v-700h-40v72q-74 -82 -190 -82q-106 -2 -184 76t-76 184q-2 106 76 184t184 76q116 0 190 -82v272zM523 114v272q-73 89 -186 89q-91 2 -158.5 -66t-65.5 -159q0 -94 65.5 -159.5t158.5 -65.5q113 0 186 89zM746 694q0 -8 -6 -20l-52 -111l-16 8l34 97 q-16 6 -16 25q0 12 8 20t20 8t20 -8t8 -19z" />
<glyph unicode="&#x110;" horiz-adv-x="848" d="M756 350q3 -145 -107 -248.5t-260 -101.5h-261v333h-84v35h84v332h261q150 2 260 -101.5t107 -248.5zM712 350q3 128 -94.5 221t-229.5 90h-217v-293h216v-35h-216v-294h217q132 -3 229.5 90t94.5 221z" />
<glyph unicode="&#x111;" horiz-adv-x="664" d="M656 623v-32h-93v-591h-40v72q-74 -82 -190 -82q-106 -2 -184 76t-76 184q-2 106 76 184t184 76q116 0 190 -82v163h-136v32h136v77h40v-77h93zM523 114v272q-73 89 -186 89q-91 2 -158.5 -66t-65.5 -159q0 -94 65.5 -159.5t158.5 -65.5q113 0 186 89z" />
<glyph unicode="&#x112;" horiz-adv-x="707" d="M633 700v-39h-462v-288h426v-38h-426v-296h473v-39h-516v700h505zM512 862v-28h-270v28h270z" />
<glyph unicode="&#x114;" horiz-adv-x="707" d="M633 700v-39h-462v-288h426v-38h-426v-296h473v-39h-516v700h505zM378 774q-67 0 -109.5 36t-46.5 98h31q4 -50 37 -77.5t88 -27.5q54 0 87 27.5t37 77.5h31q-4 -62 -46 -98t-109 -36z" />
<glyph unicode="&#x115;" horiz-adv-x="650" d="M582 250v-20h-469q7 -88 70 -147t149 -59q111 0 188 75l24 -23q-88 -86 -212 -86q-106 -2 -183.5 76t-75.5 184q-2 106 74.5 184t180.5 76q113 0 183.5 -74t70.5 -186zM112 262h431q0 92 -60 153t-155 61q-87 0 -150 -62t-66 -152zM331 574q-67 0 -109.5 36t-46.5 98h31 q4 -50 37 -77.5t88 -27.5q54 0 87 27.5t37 77.5h31q-4 -62 -46 -98t-109 -36z" />
<glyph unicode="&#x116;" horiz-adv-x="707" d="M633 700v-39h-462v-288h426v-38h-426v-296h473v-39h-516v700h505zM402 848q0 -10 -7 -17.5t-17 -7.5q-11 0 -18 7.5t-7 17.5t7.5 17t17.5 7t17 -7t7 -17z" />
<glyph unicode="&#x118;" horiz-adv-x="707" d="M672 -155l11 -21q-35 -29 -83 -29q-43 0 -71.5 25.5t-28.5 64.5q0 44 35 88l20 27h-427v700h505v-39h-462v-288h426v-38h-426v-296h473v-39h-58l-26 -33q-30 -37 -30 -76q0 -31 21.5 -50.5t53.5 -19.5q35 0 67 24z" />
<glyph unicode="&#x119;" horiz-adv-x="650" d="M582 250v-20h-469q7 -88 70 -147t149 -59q111 0 188 75l24 -23q-32 -30 -69 -51l-47 -58q-31 -38 -31 -76q0 -30 22 -50t53 -20q36 0 68 24l11 -21q-35 -29 -83 -29q-43 0 -71.5 25.5t-28.5 64.5q0 45 35 88l26 33q-42 -16 -97 -16q-106 -2 -183.5 76t-75.5 184 q-2 106 74.5 184t180.5 76q113 0 183.5 -74t70.5 -186zM112 262h431q0 92 -60 153t-155 61q-87 0 -150 -62t-66 -152z" />
<glyph unicode="&#x11a;" horiz-adv-x="707" d="M633 700v-39h-462v-288h426v-38h-426v-296h473v-39h-516v700h505zM520 913l-120 -150h-45l-120 150h37l105 -125l107 125h36z" />
<glyph unicode="&#x11b;" horiz-adv-x="650" d="M582 250v-20h-469q7 -88 70 -147t149 -59q111 0 188 75l24 -23q-88 -86 -212 -86q-106 -2 -183.5 76t-75.5 184q-2 106 74.5 184t180.5 76q113 0 183.5 -74t70.5 -186zM112 262h431q0 92 -60 153t-155 61q-87 0 -150 -62t-66 -152zM473 713l-120 -150h-45l-120 150h37 l105 -125l107 125h36z" />
<glyph unicode="&#x11c;" horiz-adv-x="862" d="M709 616l-28 -29q-95 83 -220 83q-132 3 -229.5 -93t-94.5 -227q-3 -130 94 -226.5t228 -93.5q142 0 243 87v195h-241v38h282v-252q-119 -108 -284 -108q-148 -3 -259 105.5t-108 254.5q-3 148 108.5 255.5t260.5 104.5q143 0 248 -94zM465 913l120 -150h-36l-107 124 l-105 -124h-37l120 150h45z" />
<glyph unicode="&#x11d;" horiz-adv-x="664" d="M523 500h40v-444q0 -126 -67.5 -193.5t-183.5 -67.5q-120 0 -212 69l17 29q86 -65 192 -65q99 0 156.5 59t57.5 169v16q-74 -82 -190 -82q-106 -2 -184 76t-76 184q-2 106 76 184t184 76q116 0 190 -82v72zM523 114v272q-73 89 -186 89q-93 0 -158.5 -65.5t-65.5 -159.5 t65.5 -159.5t158.5 -65.5q113 0 186 89zM367 713l120 -150h-36l-107 124l-105 -124h-37l120 150h45z" />
<glyph unicode="&#x11e;" horiz-adv-x="862" d="M709 616l-28 -29q-95 83 -220 83q-132 3 -229.5 -93t-94.5 -227q-3 -130 94 -226.5t228 -93.5q142 0 243 87v195h-241v38h282v-252q-119 -108 -284 -108q-148 -3 -259 105.5t-108 254.5q-3 148 108.5 255.5t260.5 104.5q143 0 248 -94zM443 774q-67 0 -109.5 36t-46.5 98 h31q4 -50 37 -77.5t88 -27.5q54 0 87 27.5t37 77.5h31q-4 -62 -46 -98t-109 -36z" />
<glyph unicode="&#x11f;" horiz-adv-x="664" d="M523 500h40v-444q0 -126 -67.5 -193.5t-183.5 -67.5q-120 0 -212 69l17 29q86 -65 192 -65q99 0 156.5 59t57.5 169v16q-74 -82 -190 -82q-106 -2 -184 76t-76 184q-2 106 76 184t184 76q116 0 190 -82v72zM523 114v272q-73 89 -186 89q-93 0 -158.5 -65.5t-65.5 -159.5 t65.5 -159.5t158.5 -65.5q113 0 186 89zM345 574q-67 0 -109.5 36t-46.5 98h31q4 -50 37 -77.5t88 -27.5q54 0 87 27.5t37 77.5h31q-4 -62 -46 -98t-109 -36z" />
<glyph unicode="&#x120;" horiz-adv-x="862" d="M709 616l-28 -29q-95 83 -220 83q-132 3 -229.5 -93t-94.5 -227q-3 -130 94 -226.5t228 -93.5q142 0 243 87v195h-241v38h282v-252q-119 -108 -284 -108q-148 -3 -259 105.5t-108 254.5q-3 148 108.5 255.5t260.5 104.5q143 0 248 -94zM467 848q0 -10 -7 -17.5t-17 -7.5 q-11 0 -18 7.5t-7 17.5t7.5 17t17.5 7t17 -7t7 -17z" />
<glyph unicode="&#x121;" horiz-adv-x="664" d="M523 500h40v-444q0 -126 -67.5 -193.5t-183.5 -67.5q-120 0 -212 69l17 29q86 -65 192 -65q99 0 156.5 59t57.5 169v16q-74 -82 -190 -82q-106 -2 -184 76t-76 184q-2 106 76 184t184 76q116 0 190 -82v72zM523 114v272q-73 89 -186 89q-93 0 -158.5 -65.5t-65.5 -159.5 t65.5 -159.5t158.5 -65.5q113 0 186 89zM369 648q0 -10 -7 -17.5t-17 -7.5q-11 0 -18 7.5t-7 17.5t7.5 17t17.5 7t17 -7t7 -17z" />
<glyph unicode="&#x122;" horiz-adv-x="862" d="M709 616l-28 -29q-95 83 -220 83q-132 3 -229.5 -93t-94.5 -227q-3 -130 94 -226.5t228 -93.5q142 0 243 87v195h-241v38h282v-252q-119 -108 -284 -108q-148 -3 -259 105.5t-108 254.5q-3 148 108.5 255.5t260.5 104.5q143 0 248 -94zM480 -102q0 -8 -4 -15l-52 -108 l-15 7l34 94q-15 8 -15 22q0 10 7.5 17t18.5 7t18.5 -7t7.5 -17z" />
<glyph unicode="&#x123;" horiz-adv-x="664" d="M523 500h40v-444q0 -126 -67.5 -193.5t-183.5 -67.5q-120 0 -212 69l17 29q86 -65 192 -65q99 0 156.5 59t57.5 169v16q-74 -82 -190 -82q-106 -2 -184 76t-76 184q-2 106 76 184t184 76q116 0 190 -82v72zM523 114v272q-73 89 -186 89q-93 0 -158.5 -65.5t-65.5 -159.5 t65.5 -159.5t158.5 -65.5q113 0 186 89zM313 599q0 6 4 15l53 108l14 -7l-34 -94q15 -6 15 -22q0 -10 -7.5 -17t-18.5 -7t-18.5 7t-7.5 17z" />
<glyph unicode="&#x124;" horiz-adv-x="853" d="M724 700v-700h-43v334h-510v-334h-43v700h43v-327h510v327h43zM451 913l120 -150h-36l-107 124l-105 -124h-37l120 150h45z" />
<glyph unicode="&#x125;" horiz-adv-x="666" d="M575 314v-314h-40v305q0 81 -44 126t-124 45q-59 0 -119 -24t-107 -68v-384h-40v700h40v-281q110 91 239 91q92 0 143.5 -52t51.5 -144zM147 913l120 -150h-36l-107 124l-105 -124h-37l120 150h45z" />
<glyph unicode="&#x126;" horiz-adv-x="853" d="M804 572v-37h-80v-535h-43v334h-510v-334h-43v535h-78v37h78v128h43v-128h510v128h43v-128h80zM681 373v162h-510v-162h510z" />
<glyph unicode="&#x127;" horiz-adv-x="666" d="M575 314v-314h-40v305q0 81 -44 126t-124 45q-59 0 -119 -24t-107 -68v-384h-40v591h-82v32h82v77h40v-77h194v-32h-194v-172q110 91 239 91q92 0 143.5 -52t51.5 -144z" />
<glyph unicode="&#x128;" horiz-adv-x="300" d="M171 700v-700h-43v700h43zM69 904q35 0 91 -38q46 -32 72 -32q24 0 41 17t22 48l25 -4q-6 -42 -29.5 -67t-56.5 -25q-35 0 -90 37q-47 33 -73 33q-24 0 -41 -17.5t-22 -47.5l-25 3q6 42 29.5 67.5t56.5 25.5z" />
<glyph unicode="&#x129;" horiz-adv-x="261" d="M151 500v-500h-40v500h40zM52 704q35 0 91 -38q46 -32 72 -32q24 0 41 17t22 48l25 -4q-6 -42 -29.5 -67t-56.5 -25q-35 0 -90 37q-47 33 -73 33q-24 0 -41 -17.5t-22 -47.5l-25 3q6 42 29.5 67.5t56.5 25.5z" />
<glyph unicode="&#x12a;" horiz-adv-x="300" d="M171 700v-700h-43v700h43zM286 862v-28h-270v28h270z" />
<glyph unicode="&#x12b;" horiz-adv-x="261" d="M151 500v-500h-40v500h40zM269 662v-28h-270v28h270z" />
<glyph unicode="&#x12e;" horiz-adv-x="300" d="M254 -154l11 -21q-35 -29 -83 -29q-43 0 -71.5 24.5t-28.5 65.5q0 42 36 88l20 26h-10v700h43v-700h-5l-25 -32q-29 -41 -29 -76q0 -31 21.5 -50.5t53.5 -19.5q37 0 67 24z" />
<glyph unicode="&#x12f;" horiz-adv-x="261" d="M103 641q0 11 8 19t19 8t19 -8t8 -19t-8 -19t-19 -8t-19 8t-8 19zM232 -153l11 -22q-35 -29 -83 -29q-43 0 -71.5 25.5t-28.5 64.5q0 42 37 89l19 25h-5v500h40v-500h-6l-25 -32q-31 -37 -31 -75q0 -30 22 -50.5t53 -20.5q37 0 68 25z" />
<glyph unicode="&#x130;" horiz-adv-x="300" d="M171 700v-700h-43v700h43zM176 848q0 -10 -7 -17.5t-17 -7.5q-11 0 -18 7.5t-7 17.5t7.5 17t17.5 7t17 -7t7 -17z" />
<glyph unicode="&#x131;" horiz-adv-x="261" d="M151 500v-500h-40v500h40z" />
<glyph unicode="&#x132;" horiz-adv-x="910" d="M171 700v-700h-43v700h43zM782 700v-455q0 -124 -61.5 -189.5t-168.5 -65.5q-134 0 -215 91l34 24q72 -75 179 -75q88 0 138.5 56t50.5 159v455h43z" />
<glyph unicode="&#x133;" horiz-adv-x="529" d="M157 641q0 -11 -8 -19t-19 -8t-19 8t-8 19t8 19t19 8t19 -8t8 -19zM151 500v-500h-40v500h40zM428 641q0 -11 -8 -19t-19 -8t-19 8t-8 19t8 19t19 8t19 -8t8 -19zM422 500v-533q0 -77 -47.5 -124.5t-117.5 -47.5q-35 0 -62 10l6 27q20 -7 45 -7q58 0 96.5 40t38.5 104 v531h41z" />
<glyph unicode="&#x134;" horiz-adv-x="610" d="M482 700v-455q0 -124 -61.5 -189.5t-168.5 -65.5q-134 0 -215 91l34 24q72 -75 179 -75q88 0 138.5 56t50.5 159v455h43zM483 913l120 -150h-36l-107 124l-105 -124h-37l120 150h45z" />
<glyph unicode="&#x135;" horiz-adv-x="268" d="M161 500v-533q0 -77 -47.5 -124.5t-117.5 -47.5q-35 0 -62 10l6 27q20 -7 45 -7q58 0 96.5 40t38.5 104v531h41zM154 713l120 -150h-36l-107 124l-105 -124h-37l120 150h45z" />
<glyph unicode="&#x136;" horiz-adv-x="744" d="M647 0l-271 397l-205 -204v-193h-43v700h43v-449l453 449h57l-275 -274l293 -426h-52zM407 -102q0 -8 -4 -15l-52 -108l-15 7l34 94q-15 8 -15 22q0 10 7.5 17t18.5 7t18.5 -7t7.5 -17z" />
<glyph unicode="&#x137;" horiz-adv-x="587" d="M561 0h-44l-200 291l-176 -164v-127h-40v700h40v-524l351 324h50l-196 -183zM328 -102q0 -8 -4 -15l-52 -108l-15 7l34 94q-15 8 -15 22q0 10 7.5 17t18.5 7t18.5 -7t7.5 -17z" />
<glyph unicode="&#x139;" horiz-adv-x="628" d="M171 700v-661h412v-39h-455v700h43zM254 913l-116 -150h-38l106 150h48z" />
<glyph unicode="&#x13a;" horiz-adv-x="242" d="M141 700v-700h-40v700h40zM224 913l-116 -150h-38l106 150h48z" />
<glyph unicode="&#x13b;" horiz-adv-x="628" d="M171 700v-661h412v-39h-455v700h43zM394 -102q0 -8 -4 -15l-52 -108l-15 7l34 94q-15 8 -15 22q0 10 7.5 17t18.5 7t18.5 -7t7.5 -17z" />
<glyph unicode="&#x13c;" horiz-adv-x="242" d="M141 700v-700h-40v700h40zM156 -102q0 -8 -4 -15l-52 -108l-15 7l34 94q-15 8 -15 22q0 10 7.5 17t18.5 7t18.5 -7t7.5 -17z" />
<glyph unicode="&#x13d;" horiz-adv-x="628" d="M171 700v-661h412v-39h-455v700h43zM500 694q0 -8 -6 -20l-52 -111l-16 8l34 97q-16 6 -16 25q0 12 8 20t20 8t20 -8t8 -19z" />
<glyph unicode="&#x13e;" horiz-adv-x="327" d="M141 700v-700h-40v700h40zM329 694q0 -8 -6 -20l-52 -111l-16 8l34 97q-16 6 -16 25q0 12 8 20t20 8t20 -8t8 -19z" />
<glyph unicode="&#x13f;" horiz-adv-x="628" d="M171 700v-661h412v-39h-455v700h43zM468 366q0 -12 -8 -20t-20 -8t-20 8t-8 20t8 20t20 8t20 -8t8 -20z" />
<glyph unicode="&#x140;" horiz-adv-x="355" d="M141 700v-700h-40v700h40zM332 367q0 -12 -8 -20t-20 -8t-20 8t-8 20t8 20t20 8t20 -8t8 -20z" />
<glyph unicode="&#x141;" horiz-adv-x="628" d="M171 39h412v-39h-455v317l-92 -69v43l92 69v340h43v-308l197 147v-43l-197 -147v-310z" />
<glyph unicode="&#x142;" horiz-adv-x="242" d="M250 484v-43l-109 -82v-359h-40v329l-110 -83v43l110 83v328h40v-298z" />
<glyph unicode="&#x143;" horiz-adv-x="853" d="M682 700h42v-700h-50l-503 644v-644h-43v700h51l503 -644v644zM531 913l-116 -150h-38l106 150h48z" />
<glyph unicode="&#x144;" horiz-adv-x="666" d="M575 314v-314h-40v305q0 81 -44 126t-124 45q-59 0 -119 -24t-107 -68v-384h-40v500h40v-81q110 91 239 91q92 0 143.5 -52t51.5 -144zM440 713l-116 -150h-38l106 150h48z" />
<glyph unicode="&#x145;" horiz-adv-x="853" d="M682 700h42v-700h-50l-503 644v-644h-43v700h51l503 -644v644zM464 -102q0 -8 -4 -15l-52 -108l-15 7l34 94q-15 8 -15 22q0 10 7.5 17t18.5 7t18.5 -7t7.5 -17z" />
<glyph unicode="&#x146;" horiz-adv-x="666" d="M575 314v-314h-40v305q0 81 -44 126t-124 45q-59 0 -119 -24t-107 -68v-384h-40v500h40v-81q110 91 239 91q92 0 143.5 -52t51.5 -144zM373 -102q0 -8 -4 -15l-52 -108l-15 7l34 94q-15 8 -15 22q0 10 7.5 17t18.5 7t18.5 -7t7.5 -17z" />
<glyph unicode="&#x147;" horiz-adv-x="853" d="M682 700h42v-700h-50l-503 644v-644h-43v700h51l503 -644v644zM572 913l-120 -150h-45l-120 150h37l105 -125l107 125h36z" />
<glyph unicode="&#x148;" horiz-adv-x="666" d="M575 314v-314h-40v305q0 81 -44 126t-124 45q-59 0 -119 -24t-107 -68v-384h-40v500h40v-81q110 91 239 91q92 0 143.5 -52t51.5 -144zM481 713l-120 -150h-45l-120 150h37l105 -125l107 125h36z" />
<glyph unicode="&#x14a;" horiz-adv-x="853" d="M682 700h42v-659q0 -124 -60.5 -188t-168.5 -64q-133 0 -214 91l33 23q72 -75 179 -75q77 0 125.5 42.5t60.5 122.5l-508 648v-641h-43v700h51l503 -641v641z" />
<glyph unicode="&#x14b;" horiz-adv-x="666" d="M575 314v-347q0 -77 -47.5 -124.5t-117.5 -47.5q-35 0 -61 10l6 27q18 -7 44 -7q59 0 97.5 40t38.5 104v336q0 81 -42.5 126t-117.5 45q-137 0 -234 -91v-385h-40v500h40v-82q108 92 246 92q86 0 137 -52t51 -144z" />
<glyph unicode="&#x14c;" horiz-adv-x="917" d="M825 350q3 -146 -107.5 -254.5t-258.5 -105.5q-148 -3 -259 105.5t-108 254.5q-3 146 108 254.5t259 105.5q148 3 258.5 -105.5t107.5 -254.5zM137 350q-3 -130 94 -226.5t228 -93.5q131 -3 228 93.5t94 226.5q3 130 -94 226.5t-228 93.5q-131 3 -228 -93.5t-94 -226.5z M594 862v-28h-270v28h270z" />
<glyph unicode="&#x14d;" horiz-adv-x="682" d="M609 250q2 -106 -78.5 -184t-189.5 -76q-109 -2 -189.5 76t-78.5 184q-2 106 78.5 184t189.5 76q109 2 189.5 -76t78.5 -184zM113 250q-2 -91 67 -159t161 -66q92 -2 161 66t68 159q2 91 -67.5 159t-161.5 66q-92 2 -161 -66t-67 -159zM476 662v-28h-270v28h270z" />
<glyph unicode="&#x150;" horiz-adv-x="917" d="M825 350q3 -146 -107.5 -254.5t-258.5 -105.5q-148 -3 -259 105.5t-108 254.5q-3 146 108 254.5t259 105.5q148 3 258.5 -105.5t107.5 -254.5zM137 350q-3 -130 94 -226.5t228 -93.5q131 -3 228 93.5t94 226.5q3 130 -94 226.5t-228 93.5q-131 3 -228 -93.5t-94 -226.5z M505 913l-116 -150h-38l106 150h48zM676 913l-116 -150h-37l106 150h47z" />
<glyph unicode="&#x151;" horiz-adv-x="682" d="M609 250q2 -106 -78.5 -184t-189.5 -76q-109 -2 -189.5 76t-78.5 184q-2 106 78.5 184t189.5 76q109 2 189.5 -76t78.5 -184zM113 250q-2 -91 67 -159t161 -66q92 -2 161 66t68 159q2 91 -67.5 159t-161.5 66q-92 2 -161 -66t-67 -159zM387 713l-116 -150h-38l106 150h48 zM558 713l-116 -150h-37l106 150h47z" />
<glyph unicode="&#x152;" horiz-adv-x="1337" d="M825 39h449v-39h-492v180q-46 -85 -134 -138q-85 -52 -189 -52q-148 -3 -259 105.5t-108 254.5q-3 146 108 254.5t259 105.5q104 0 189 -52q88 -53 134 -138v180h481v-39h-438v-289h402v-37h-402v-296zM781 350q3 130 -94 226.5t-228 93.5q-130 3 -227.5 -93.5 t-95.5 -226.5q-2 -130 95.5 -226.5t227.5 -93.5q131 -3 228 93.5t94 226.5z" />
<glyph unicode="&#x153;" horiz-adv-x="1147" d="M1079 250v-20h-469q7 -88 70 -147t149 -59q111 0 188 75l24 -23q-88 -86 -212 -86q-80 0 -145 44t-95 117q-30 -73 -97.5 -117t-150.5 -44q-109 -2 -189.5 76t-78.5 184q-2 106 78.5 184t189.5 76q82 0 150 -44q66 -42 98 -116q30 73 93.5 116.5t142.5 43.5 q113 0 183.5 -74t70.5 -186zM609 261h431q0 92 -60 153.5t-155 61.5q-89 0 -151 -62t-65 -153zM570 250q2 91 -67.5 159t-161.5 66q-92 2 -161 -66t-67 -159q-2 -91 67 -159t161 -66q92 -2 161 66t68 159z" />
<glyph unicode="&#x154;" horiz-adv-x="771" d="M727 0h-52l-195 278q-48 -2 -60 -2h-249v-276h-43v700h290q148 0 214 -50t66 -160q0 -89 -41.5 -139t-129.5 -66zM171 314h249q124 0 179 41t55 133t-54.5 132.5t-179.5 40.5h-249v-347zM491 913l-116 -150h-38l106 150h48z" />
<glyph unicode="&#x155;" horiz-adv-x="419" d="M385 510v-37q-139 0 -244 -107v-366h-40v500h40v-97q109 107 244 107zM313 713l-116 -150h-38l106 150h48z" />
<glyph unicode="&#x156;" horiz-adv-x="771" d="M727 0h-52l-195 278q-48 -2 -60 -2h-249v-276h-43v700h290q148 0 214 -50t66 -160q0 -89 -41.5 -139t-129.5 -66zM171 314h249q124 0 179 41t55 133t-54.5 132.5t-179.5 40.5h-249v-347zM424 -102q0 -8 -4 -15l-52 -108l-15 7l34 94q-15 8 -15 22q0 10 7.5 17t18.5 7 t18.5 -7t7.5 -17z" />
<glyph unicode="&#x157;" horiz-adv-x="419" d="M385 510v-37q-139 0 -244 -107v-366h-40v500h40v-97q109 107 244 107zM157 -102q0 -8 -4 -15l-52 -108l-15 7l34 94q-15 8 -15 22q0 10 7.5 17t18.5 7t18.5 -7t7.5 -17z" />
<glyph unicode="&#x158;" horiz-adv-x="771" d="M727 0h-52l-195 278q-48 -2 -60 -2h-249v-276h-43v700h290q148 0 214 -50t66 -160q0 -89 -41.5 -139t-129.5 -66zM171 314h249q124 0 179 41t55 133t-54.5 132.5t-179.5 40.5h-249v-347zM532 913l-120 -150h-45l-120 150h37l105 -125l107 125h36z" />
<glyph unicode="&#x159;" horiz-adv-x="419" d="M385 510v-37q-139 0 -244 -107v-366h-40v500h40v-97q109 107 244 107zM354 713l-120 -150h-45l-120 150h37l105 -125l107 125h36z" />
<glyph unicode="&#x15a;" horiz-adv-x="703" d="M609 638l-20 -35q-108 68 -248 68q-92 0 -146.5 -38t-54.5 -104q0 -51 39 -80.5t140 -55.5l93 -24q82 -22 122 -40q97 -40 97 -140q0 -94 -74 -147q-73 -52 -194 -52q-81 0 -161.5 22.5t-137.5 62.5l21 32q56 -36 132 -57t149 -21q103 0 161.5 41.5t58.5 117.5 q0 55 -37 83.5t-139 54.5l-94 24q-126 33 -174 70t-48 105q0 87 67.5 136t181.5 49q152 0 266 -72zM454 913l-116 -150h-38l106 150h48z" />
<glyph unicode="&#x15b;" horiz-adv-x="532" d="M445 458l-16 -28q-78 48 -177 48q-66 0 -103 -26.5t-37 -73.5q0 -35 28 -55.5t106 -41.5l67 -18q88 -22 119.5 -51t31.5 -85q0 -64 -53 -100.5t-143 -36.5q-127 0 -218 61l16 28q84 -57 203 -57q74 0 115 26.5t41 75.5q0 44 -23.5 64.5t-98.5 41.5l-68 19 q-93 26 -127.5 52.5t-34.5 73.5q0 63 48.5 99t131.5 36q109 0 192 -52zM368 713l-116 -150h-38l106 150h48z" />
<glyph unicode="&#x15c;" horiz-adv-x="703" d="M609 638l-20 -35q-108 68 -248 68q-92 0 -146.5 -38t-54.5 -104q0 -51 39 -80.5t140 -55.5l93 -24q82 -22 122 -40q97 -40 97 -140q0 -94 -74 -147q-73 -52 -194 -52q-81 0 -161.5 22.5t-137.5 62.5l21 32q56 -36 132 -57t149 -21q103 0 161.5 41.5t58.5 117.5 q0 55 -37 83.5t-139 54.5l-94 24q-126 33 -174 70t-48 105q0 87 67.5 136t181.5 49q152 0 266 -72zM375 913l120 -150h-36l-107 124l-105 -124h-37l120 150h45z" />
<glyph unicode="&#x15d;" horiz-adv-x="532" d="M445 458l-16 -28q-78 48 -177 48q-66 0 -103 -26.5t-37 -73.5q0 -35 28 -55.5t106 -41.5l67 -18q88 -22 119.5 -51t31.5 -85q0 -64 -53 -100.5t-143 -36.5q-127 0 -218 61l16 28q84 -57 203 -57q74 0 115 26.5t41 75.5q0 44 -23.5 64.5t-98.5 41.5l-68 19 q-93 26 -127.5 52.5t-34.5 73.5q0 63 48.5 99t131.5 36q109 0 192 -52zM289 713l120 -150h-36l-107 124l-105 -124h-37l120 150h45z" />
<glyph unicode="&#x15e;" horiz-adv-x="703" d="M364 -10l-18 -39q20 7 40 7q37 0 61 -22t24 -58q0 -38 -29.5 -62.5t-74.5 -24.5q-56 0 -96 22l10 19q35 -18 84 -18q34 0 55.5 18.5t21.5 46.5q0 27 -17.5 42.5t-45.5 15.5q-34 0 -58 -21l-14 12l30 63q-75 3 -147.5 25t-125.5 59l21 32q56 -36 132 -57t149 -21 q103 0 161.5 41.5t58.5 117.5q0 55 -37 83.5t-139 54.5l-94 24q-126 33 -174 70t-48 105q0 87 67.5 136t181.5 49q152 0 266 -72l-20 -35q-108 68 -248 68q-92 0 -146.5 -38t-54.5 -104q0 -51 39 -80.5t140 -55.5l93 -24q82 -22 122 -40q97 -40 97 -140q0 -95 -73 -147 t-194 -52z" />
<glyph unicode="&#x15f;" horiz-adv-x="532" d="M274 -10l-18 -39q21 7 41 7q37 0 61 -22t24 -58q0 -38 -30 -62.5t-75 -24.5q-56 0 -96 22l10 19q35 -18 85 -18q34 0 55.5 18.5t21.5 46.5q0 26 -17.5 42t-45.5 16q-35 0 -59 -21l-13 12l30 63q-121 5 -198 60l16 28q84 -57 203 -57q74 0 115 26.5t41 75.5 q0 44 -23.5 64.5t-98.5 41.5l-68 19q-93 26 -127.5 52.5t-34.5 73.5q0 63 48.5 99t131.5 36q109 0 192 -52l-16 -28q-78 48 -177 48q-66 0 -103 -26.5t-37 -73.5q0 -35 28 -55.5t106 -41.5l67 -18q88 -22 119.5 -51t31.5 -85q0 -62 -51 -98.5t-139 -38.5z" />
<glyph unicode="&#x160;" horiz-adv-x="703" d="M609 638l-20 -35q-108 68 -248 68q-92 0 -146.5 -38t-54.5 -104q0 -51 39 -80.5t140 -55.5l93 -24q82 -22 122 -40q97 -40 97 -140q0 -94 -74 -147q-73 -52 -194 -52q-81 0 -161.5 22.5t-137.5 62.5l21 32q56 -36 132 -57t149 -21q103 0 161.5 41.5t58.5 117.5 q0 55 -37 83.5t-139 54.5l-94 24q-126 33 -174 70t-48 105q0 87 67.5 136t181.5 49q152 0 266 -72zM495 913l-120 -150h-45l-120 150h37l105 -125l107 125h36z" />
<glyph unicode="&#x161;" horiz-adv-x="532" d="M445 458l-16 -28q-78 48 -177 48q-66 0 -103 -26.5t-37 -73.5q0 -35 28 -55.5t106 -41.5l67 -18q88 -22 119.5 -51t31.5 -85q0 -64 -53 -100.5t-143 -36.5q-127 0 -218 61l16 28q84 -57 203 -57q74 0 115 26.5t41 75.5q0 44 -23.5 64.5t-98.5 41.5l-68 19 q-93 26 -127.5 52.5t-34.5 73.5q0 63 48.5 99t131.5 36q109 0 192 -52zM409 713l-120 -150h-45l-120 150h37l105 -125l107 125h36z" />
<glyph unicode="&#x164;" horiz-adv-x="641" d="M597 700v-39h-254v-661h-43v661h-254v39h551zM463 913l-120 -150h-45l-120 150h37l105 -125l107 125h36z" />
<glyph unicode="&#x165;" horiz-adv-x="467" d="M297 570l-15 7l34 94q-15 5 -15 22q0 10 7.5 17t18.5 7t18.5 -6.5t7.5 -16.5q0 -8 -5 -18zM378 44l8 -30q-45 -24 -93 -24q-71 0 -118 47.5t-47 125.5v303h-99v34h99v153h40v-153h172v-34h-172v-298q0 -65 37.5 -104t95.5 -39q38 0 77 19z" />
<glyph unicode="&#x166;" horiz-adv-x="641" d="M597 661h-254v-283h116v-37h-116v-341h-43v341h-117v37h117v283h-254v39h551v-39z" />
<glyph unicode="&#x167;" horiz-adv-x="433" d="M378 44l8 -30q-45 -24 -93 -24q-71 0 -118 47.5t-47 125.5v91h-81v32h81v180h-99v34h99v153h40v-153h172v-34h-172v-180h148v-32h-148v-86q0 -65 37.5 -104t95.5 -39q38 0 77 19z" />
<glyph unicode="&#x168;" horiz-adv-x="857" d="M729 700v-393q0 -146 -81 -231.5t-219 -85.5q-139 0 -220 85.5t-81 231.5v393h43v-393q0 -128 69.5 -202.5t188.5 -74.5t188 74.5t69 202.5v393h43zM346 904q35 0 91 -38q46 -32 72 -32q24 0 41 17t22 48l25 -4q-6 -42 -29.5 -67t-56.5 -25q-35 0 -90 37q-47 33 -73 33 q-24 0 -41 -17.5t-22 -47.5l-25 3q6 42 29.5 67.5t56.5 25.5z" />
<glyph unicode="&#x169;" horiz-adv-x="666" d="M525 500h40v-500h-40v81q-110 -91 -239 -91q-92 0 -143.5 52t-51.5 144v314h40v-305q0 -81 44 -126t124 -45q59 0 119 24t107 68v384zM247 704q35 0 91 -38q46 -32 72 -32q24 0 41 17t22 48l25 -4q-6 -42 -29.5 -67t-56.5 -25q-35 0 -90 37q-47 33 -73 33 q-24 0 -41 -17.5t-22 -47.5l-25 3q6 42 29.5 67.5t56.5 25.5z" />
<glyph unicode="&#x16a;" horiz-adv-x="857" d="M729 700v-393q0 -146 -81 -231.5t-219 -85.5q-139 0 -220 85.5t-81 231.5v393h43v-393q0 -128 69.5 -202.5t188.5 -74.5t188 74.5t69 202.5v393h43zM563 862v-28h-270v28h270z" />
<glyph unicode="&#x16b;" horiz-adv-x="666" d="M525 500h40v-500h-40v81q-110 -91 -239 -91q-92 0 -143.5 52t-51.5 144v314h40v-305q0 -81 44 -126t124 -45q59 0 119 24t107 68v384zM464 662v-28h-270v28h270z" />
<glyph unicode="&#x16c;" horiz-adv-x="857" d="M729 700v-393q0 -146 -81 -231.5t-219 -85.5q-139 0 -220 85.5t-81 231.5v393h43v-393q0 -128 69.5 -202.5t188.5 -74.5t188 74.5t69 202.5v393h43zM429 774q-67 0 -109.5 36t-46.5 98h31q4 -50 37 -77.5t88 -27.5q54 0 87 27.5t37 77.5h31q-4 -62 -46 -98t-109 -36z" />
<glyph unicode="&#x16d;" horiz-adv-x="666" d="M525 500h40v-500h-40v81q-110 -91 -239 -91q-92 0 -143.5 52t-51.5 144v314h40v-305q0 -81 44 -126t124 -45q59 0 119 24t107 68v384zM330 574q-67 0 -109.5 36t-46.5 98h31q4 -50 37 -77.5t88 -27.5q54 0 87 27.5t37 77.5h31q-4 -62 -46 -98t-109 -36z" />
<glyph unicode="&#x16e;" horiz-adv-x="857" d="M729 700v-393q0 -146 -81 -231.5t-219 -85.5q-139 0 -220 85.5t-81 231.5v393h43v-393q0 -128 69.5 -202.5t188.5 -74.5t188 74.5t69 202.5v393h43zM541 849q0 -45 -33 -78q-34 -32 -79 -32q-46 0 -80 32q-33 33 -33 78q0 47 33 78q34 32 80 32q47 0 79 -32 q33 -31 33 -78zM343 849q0 -34 25.5 -59t60.5 -25t60 25t25 59q0 35 -25 59.5t-60 24.5t-60.5 -24.5t-25.5 -59.5z" />
<glyph unicode="&#x16f;" horiz-adv-x="666" d="M525 500h40v-500h-40v81q-110 -91 -239 -91q-92 0 -143.5 52t-51.5 144v314h40v-305q0 -81 44 -126t124 -45q59 0 119 24t107 68v384zM442 649q0 -45 -33 -78q-34 -32 -79 -32q-46 0 -80 32q-33 33 -33 78q0 47 33 78q34 32 80 32q47 0 79 -32q33 -31 33 -78zM244 649 q0 -34 25.5 -59t60.5 -25t60 25t25 59q0 35 -25 59.5t-60 24.5t-60.5 -24.5t-25.5 -59.5z" />
<glyph unicode="&#x170;" horiz-adv-x="857" d="M729 700v-393q0 -146 -81 -231.5t-219 -85.5q-139 0 -220 85.5t-81 231.5v393h43v-393q0 -128 69.5 -202.5t188.5 -74.5t188 74.5t69 202.5v393h43zM474 913l-116 -150h-38l106 150h48zM645 913l-116 -150h-37l106 150h47z" />
<glyph unicode="&#x171;" horiz-adv-x="666" d="M525 500h40v-500h-40v81q-110 -91 -239 -91q-92 0 -143.5 52t-51.5 144v314h40v-305q0 -81 44 -126t124 -45q59 0 119 24t107 68v384zM375 713l-116 -150h-38l106 150h48zM546 713l-116 -150h-37l106 150h47z" />
<glyph unicode="&#x172;" horiz-adv-x="857" d="M686 700h43v-393q0 -144 -79 -230t-214 -87l-18 -23q-30 -37 -30 -76q0 -31 21.5 -50.5t53.5 -19.5q35 0 67 24l11 -21q-35 -29 -83 -29q-43 0 -71.5 25.5t-28.5 64.5q0 44 35 88l13 18q-128 6 -203 91t-75 225v393h43v-393q0 -128 69.5 -202.5t188.5 -74.5t188 74.5 t69 202.5v393z" />
<glyph unicode="&#x173;" horiz-adv-x="666" d="M647 -153l11 -22q-35 -29 -84 -29q-43 0 -71.5 25.5t-28.5 64.5q0 42 38 89l19 25h-6v81q-110 -91 -239 -91q-92 0 -143.5 52t-51.5 144v314h40v-305q0 -81 44 -126t124 -45q59 0 119 24t107 68v384h40v-500h-6l-24 -32q-31 -37 -31 -75q0 -30 22 -50.5t53 -20.5 q37 0 68 25z" />
<glyph unicode="&#x174;" horiz-adv-x="1100" d="M1008 700h47l-243 -700h-49l-212 641l-213 -641h-50l-242 700h46l222 -643l212 643h48l212 -643zM575 913l120 -150h-36l-107 124l-105 -124h-37l120 150h45z" />
<glyph unicode="&#x175;" horiz-adv-x="817" d="M791 500l-183 -500h-46l-153 446l-152 -446h-47l-183 500h41l167 -458l155 458h38l155 -458l167 458h41zM431 713l120 -150h-36l-107 124l-105 -124h-37l120 150h45z" />
<glyph unicode="&#x176;" horiz-adv-x="751" d="M654 700h51l-308 -440v-260h-43v260l-308 440h51l278 -395zM398 913l120 -150h-36l-107 124l-105 -124h-37l120 150h45z" />
<glyph unicode="&#x177;" horiz-adv-x="551" d="M525 500l-240 -553q-35 -82 -77 -117t-101 -35q-41 0 -80 16l12 30q32 -13 65 -13q47 0 80 28.5t65 98.5l14 29l-234 516h43l209 -466l202 466h42zM301 713l120 -150h-36l-107 124l-105 -124h-37l120 150h45z" />
<glyph unicode="&#x178;" horiz-adv-x="751" d="M654 700h51l-308 -440v-260h-43v260l-308 440h51l278 -395zM302 848q0 -10 -7 -17.5t-17 -7.5q-25 0 -25 25q0 10 7 17t18 7q10 0 17 -7t7 -17zM497 848q0 -25 -25 -25q-10 0 -17 7t-7 18q0 10 7 17t17 7q11 0 18 -7t7 -17z" />
<glyph unicode="&#x179;" horiz-adv-x="687" d="M613 700v-35l-492 -626h502v-39h-559v36l490 625h-472v39h531zM446 913l-116 -150h-38l106 150h48z" />
<glyph unicode="&#x17a;" horiz-adv-x="538" d="M460 500v-31l-357 -435h368v-34h-420v31l356 435h-335v34h388zM373 713l-116 -150h-38l106 150h48z" />
<glyph unicode="&#x17b;" horiz-adv-x="687" d="M613 700v-35l-492 -626h502v-39h-559v36l490 625h-472v39h531zM369 848q0 -10 -7 -17.5t-17 -7.5q-11 0 -18 7.5t-7 17.5t7.5 17t17.5 7t17 -7t7 -17z" />
<glyph unicode="&#x17c;" horiz-adv-x="538" d="M460 500v-31l-357 -435h368v-34h-420v31l356 435h-335v34h388zM296 648q0 -10 -7 -17.5t-17 -7.5q-11 0 -18 7.5t-7 17.5t7.5 17t17.5 7t17 -7t7 -17z" />
<glyph unicode="&#x17d;" horiz-adv-x="687" d="M613 700v-35l-492 -626h502v-39h-559v36l490 625h-472v39h531zM487 913l-120 -150h-45l-120 150h37l105 -125l107 125h36z" />
<glyph unicode="&#x17e;" horiz-adv-x="538" d="M460 500v-31l-357 -435h368v-34h-420v31l356 435h-335v34h388zM414 713l-120 -150h-45l-120 150h37l105 -125l107 125h36z" />
<glyph unicode="&#x192;" horiz-adv-x="396" d="M359 698l-7 -28q-26 10 -56 10q-59 0 -97.5 -39.5t-38.5 -104.5v-128h180v-32h-180v-409q0 -59 -36.5 -104t-94.5 -60v28q42 13 66.5 50t24.5 88v407h-91v32h91v129q0 79 47.5 126t119.5 47q37 0 72 -12z" />
<glyph unicode="&#x218;" horiz-adv-x="703" d="M609 638l-20 -35q-108 68 -248 68q-92 0 -146.5 -38t-54.5 -104q0 -51 39 -80.5t140 -55.5l93 -24q82 -22 122 -40q97 -40 97 -140q0 -94 -74 -147q-73 -52 -194 -52q-81 0 -161.5 22.5t-137.5 62.5l21 32q56 -36 132 -57t149 -21q103 0 161.5 41.5t58.5 117.5 q0 55 -37 83.5t-139 54.5l-94 24q-126 33 -174 70t-48 105q0 87 67.5 136t181.5 49q152 0 266 -72zM391 -102q0 -8 -4 -15l-52 -108l-15 7l34 94q-15 8 -15 22q0 10 7.5 17t18.5 7t18.5 -7t7.5 -17z" />
<glyph unicode="&#x219;" horiz-adv-x="532" d="M445 458l-16 -28q-78 48 -177 48q-66 0 -103 -26.5t-37 -73.5q0 -35 28 -55.5t106 -41.5l67 -18q88 -22 119.5 -51t31.5 -85q0 -64 -53 -100.5t-143 -36.5q-127 0 -218 61l16 28q84 -57 203 -57q74 0 115 26.5t41 75.5q0 44 -23.5 64.5t-98.5 41.5l-68 19 q-93 26 -127.5 52.5t-34.5 73.5q0 63 48.5 99t131.5 36q109 0 192 -52zM302 -102q0 -8 -4 -15l-52 -108l-15 7l34 94q-15 8 -15 22q0 10 7.5 17t18.5 7t18.5 -7t7.5 -17z" />
<glyph unicode="&#x21a;" horiz-adv-x="641" d="M597 700v-39h-254v-661h-43v661h-254v39h551zM355 -102q0 -8 -4 -15l-52 -108l-15 7l34 94q-15 8 -15 22q0 10 7.5 17t18.5 7t18.5 -7t7.5 -17z" />
<glyph unicode="&#x21b;" horiz-adv-x="433" d="M378 44l8 -30q-45 -24 -93 -24q-71 0 -118 47.5t-47 125.5v303h-99v34h99v153h40v-153h172v-34h-172v-298q0 -65 37.5 -104t95.5 -39q38 0 77 19zM306 -102q0 -8 -4 -15l-52 -108l-15 7l34 94q-15 8 -15 22q0 10 7.5 17t18.5 7t18.5 -7t7.5 -17z" />
<glyph unicode="&#x237;" horiz-adv-x="268" d="M161 500v-533q0 -77 -47.5 -124.5t-117.5 -47.5q-35 0 -62 10l6 27q20 -7 45 -7q58 0 96.5 40t38.5 104v531h41z" />
<glyph unicode="&#x2c6;" horiz-adv-x="247" d="M97 713l120 -150h-36l-107 124l-105 -124h-37l120 150h45z" />
<glyph unicode="&#x2c7;" horiz-adv-x="247" d="M217 713l-120 -150h-45l-120 150h37l105 -125l107 125h36z" />
<glyph unicode="&#x2d8;" horiz-adv-x="247" d="M75 574q-67 0 -109.5 36t-46.5 98h31q4 -50 37 -77.5t88 -27.5q54 0 87 27.5t37 77.5h31q-4 -62 -46 -98t-109 -36z" />
<glyph unicode="&#x2d9;" horiz-adv-x="247" d="M99 648q0 -10 -7 -17.5t-17 -7.5q-11 0 -18 7.5t-7 17.5t7.5 17t17.5 7t17 -7t7 -17z" />
<glyph unicode="&#x2da;" horiz-adv-x="247" d="M187 649q0 -45 -33 -78q-34 -32 -79 -32q-46 0 -80 32q-33 33 -33 78q0 47 33 78q34 32 80 32q47 0 79 -32q33 -31 33 -78zM-11 649q0 -34 25.5 -59t60.5 -25t60 25t25 59q0 35 -25 59.5t-60 24.5t-60.5 -24.5t-25.5 -59.5z" />
<glyph unicode="&#x2db;" horiz-adv-x="247" d="M57 2h31l-28 -35q-30 -37 -30 -76q0 -31 21.5 -50.5t53.5 -19.5q35 0 67 24l11 -21q-35 -29 -83 -29q-43 0 -71.5 25.5t-28.5 64.5q0 44 35 88z" />
<glyph unicode="&#x2dc;" horiz-adv-x="247" d="M-8 704q35 0 91 -38q46 -32 72 -32q24 0 41 17t22 48l25 -4q-6 -42 -29.5 -67t-56.5 -25q-35 0 -90 37q-47 33 -73 33q-24 0 -41 -17.5t-22 -47.5l-25 3q6 42 29.5 67.5t56.5 25.5z" />
<glyph unicode="&#x2dd;" horiz-adv-x="247" d="M120 713l-116 -150h-38l106 150h48zM291 713l-116 -150h-37l106 150h47z" />
<glyph unicode="&#x300;" d="M-54 713l106 -150h-38l-116 150h48z" />
<glyph unicode="&#x301;" d="M102 713l-116 -150h-38l106 150h48z" />
<glyph unicode="&#x302;" d="M23 713l120 -150h-36l-107 124l-105 -124h-37l120 150h45z" />
<glyph unicode="&#x303;" d="M-82 704q35 0 91 -38q46 -32 72 -32q24 0 41 17t22 48l25 -4q-6 -42 -29.5 -67t-56.5 -25q-35 0 -90 37q-47 33 -73 33q-24 0 -41 -17.5t-22 -47.5l-25 3q6 42 29.5 67.5t56.5 25.5z" />
<glyph unicode="&#x304;" d="M135 662v-28h-270v28h270z" />
<glyph unicode="&#x306;" d="M1 574q-67 0 -109.5 36t-46.5 98h31q4 -50 37 -77.5t88 -27.5q54 0 87 27.5t37 77.5h31q-4 -62 -46 -98t-109 -36z" />
<glyph unicode="&#x307;" d="M25 648q0 -10 -7 -17.5t-17 -7.5q-11 0 -18 7.5t-7 17.5t7.5 17t17.5 7t17 -7t7 -17z" />
<glyph unicode="&#x308;" d="M-73 648q0 -10 -7 -17.5t-17 -7.5q-25 0 -25 25q0 10 7 17t18 7q10 0 17 -7t7 -17zM122 648q0 -25 -25 -25q-10 0 -17 7t-7 18q0 10 7 17t17 7q11 0 18 -7t7 -17z" />
<glyph unicode="&#x30a;" d="M113 649q0 -45 -33 -78q-34 -32 -79 -32q-46 0 -80 32q-33 33 -33 78q0 47 33 78q34 32 80 32q47 0 79 -32q33 -31 33 -78zM-85 649q0 -34 25.5 -59t60.5 -25t60 25t25 59q0 35 -25 59.5t-60 24.5t-60.5 -24.5t-25.5 -59.5z" />
<glyph unicode="&#x30b;" d="M46 713l-116 -150h-38l106 150h48zM217 713l-116 -150h-37l106 150h47z" />
<glyph unicode="&#x30c;" d="M143 713l-120 -150h-45l-120 150h37l105 -125l107 125h36z" />
<glyph unicode="&#x312;" d="M-31 606q0 6 4 15l53 108l14 -7l-34 -94q15 -6 15 -22q0 -10 -7.5 -17t-18.5 -7t-18.5 7t-7.5 17z" />
<glyph unicode="&#x326;" d="M35 -102q0 -8 -4 -15l-52 -108l-15 7l34 94q-15 8 -15 22q0 10 7.5 17t18.5 7t18.5 -7t7.5 -17z" />
<glyph unicode="&#x327;" d="M115 -122q0 -38 -29.5 -62.5t-74.5 -24.5q-56 0 -96 22l9 19q35 -18 85 -18q34 0 55.5 18.5t21.5 46.5q0 27 -17.5 42.5t-45.5 15.5q-35 0 -58 -21l-14 12l35 74h27l-24 -51q21 7 41 7q37 0 61 -22t24 -58z" />
<glyph unicode="&#x328;" d="M-17 2h31l-28 -35q-30 -37 -30 -76q0 -31 21.5 -50.5t53.5 -19.5q35 0 67 24l11 -21q-35 -29 -83 -29q-43 0 -71.5 25.5t-28.5 64.5q0 44 35 88z" />
<glyph unicode="&#x3c0;" horiz-adv-x="746" d="M712 466h-120v-355q0 -89 68 -89q22 0 37 7l6 -29q-26 -10 -53 -10q-99 0 -99 117v359h-371v-466h-40v466h-110v34h682v-34z" />
<glyph unicode="&#x58f;" horiz-adv-x="600" d="M567 321h-109v-140h109v-32h-109v-149h-43v149h-163v32h163v140h-163v32h163v133q0 91 -45.5 139t-131.5 48t-131.5 -48t-45.5 -139v-38h-43v40q0 107 57 164.5t163 57.5t163 -57.5t57 -164.5v-135h109v-32z" />
<glyph unicode="&#x60c;" horiz-adv-x="271" d="M100 24q0 12 6 31l41 131h24l-24 -128q22 -7 22 -32q0 -15 -10 -25.5t-24 -10.5q-15 0 -25 10t-10 24z" />
<glyph unicode="&#x615;" d="M119 575v-68h-260v29h36v187h29v-126q60 60 118 60q35 0 56 -22.5t21 -59.5zM-76 536h166v35q0 27 -15 43.5t-39 16.5q-52 0 -112 -66v-29z" />
<glyph unicode="&#x61b;" horiz-adv-x="259" d="M97 360q0 10 6 28l38 127h21l-22 -123q21 -8 21 -30q0 -14 -9 -23.5t-22 -9.5q-14 0 -23.5 9t-9.5 22zM97 22q0 14 9.5 23.5t23.5 9.5q13 0 22 -9.5t9 -23.5q0 -13 -9 -22.5t-22 -9.5q-14 0 -23.5 9.5t-9.5 22.5z" />
<glyph unicode="&#x61f;" horiz-adv-x="553" d="M495 517l-41 -4q-7 74 -57 116.5t-126 42.5q-78 0 -123.5 -40.5t-45.5 -112.5q0 -38 17 -67t58 -66q49 -46 67 -66q49 -55 49 -130v-40h-38v35q0 36 -12 63q-11 26 -30 48t-63 63q-49 45 -70 80t-21 83q0 86 57.5 137t151.5 51q93 0 154.5 -51.5t72.5 -141.5zM241 22 q0 14 9.5 23.5t23.5 9.5q13 0 22 -9.5t9 -23.5q0 -13 -9 -22.5t-22 -9.5q-14 0 -23.5 9.5t-9.5 22.5z" />
<glyph unicode="&#x621;" horiz-adv-x="563" d="M331 40h139v-40h-377v40h123q-82 52 -82 152q0 80 52.5 133t130.5 53q76 0 132 -41l-28 -29q-43 32 -103 32q-63 0 -103.5 -42t-40.5 -108t44.5 -107t112.5 -43z" />
<glyph unicode="&#x622;" horiz-adv-x="317" d="M138 0v730h41v-730h-41zM249 919l20 -5q-7 -64 -69 -61l-86 4q-20 1 -33 -8.5t-17 -25.5l-20 4q8 65 70 61l85 -4q20 -1 33.5 9t16.5 26z" />
<glyph unicode="&#x623;" horiz-adv-x="317" d="M138 0v730h41v-730h-41zM189 885h61v-32h-182v32h54q-32 26 -32 66q0 37 24.5 61.5t61.5 24.5q36 0 64 -21l-17 -21q-18 13 -45 13q-26 0 -43 -17.5t-17 -43.5q0 -27 19.5 -44.5t51.5 -17.5z" />
<glyph unicode="&#x624;" horiz-adv-x="657" d="M544 412v-394q0 -135 -71.5 -204t-200.5 -69q-94 0 -168 33l7 38q66 -32 162 -32q109 0 168 54.5t63 161.5h-160q-121 0 -195 64.5t-74 170.5q0 108 75 172.5t190 64.5q111 0 204 -60zM340 40h164v346q-68 48 -165 48q-95 0 -159.5 -53.5t-64.5 -144.5q0 -92 63.5 -144 t161.5 -52zM370 633h61v-32h-182v32h54q-32 26 -32 66q0 37 24.5 61.5t61.5 24.5q36 0 64 -21l-17 -21q-18 13 -45 13q-26 0 -43 -17.5t-17 -43.5q0 -27 19.5 -44.5t51.5 -17.5z" />
<glyph unicode="&#x625;" horiz-adv-x="317" d="M138 0v730h41v-730h-41zM189 -279h61v-31h-182v31h55q-33 25 -33 67q0 37 24.5 61.5t61.5 24.5q36 0 64 -21l-17 -21q-19 13 -45 13t-43 -17.5t-17 -44.5t19.5 -44.5t51.5 -17.5z" />
<glyph unicode="&#x626;" horiz-adv-x="1146" d="M1074 12l-36 -10l-103 357h-135q-56 0 -89.5 -26.5t-33.5 -72.5q0 -20 6 -41l108 -376q-64 -39 -160 -68q-99 -30 -200 -30q-162 0 -253 78t-91 214q0 77 19 141l37 -8q-17 -56 -17 -127q0 -121 80 -189t224 -68q90 0 178 24q84 21 139 52l-103 352q-8 30 -8 52 q0 60 43.5 95.5t113.5 35.5h171zM225 354h61v-32h-182v32h54q-32 26 -32 66q0 37 24.5 61.5t61.5 24.5q36 0 64 -21l-17 -21q-18 13 -45 13q-26 0 -43 -17.5t-17 -43.5q0 -27 19.5 -44.5t51.5 -17.5z" />
<glyph unicode="&#x627;" horiz-adv-x="317" d="M138 0v730h41v-730h-41z" />
<glyph unicode="&#x628;" horiz-adv-x="1159" d="M92 220q0 60 20 154l38 -7q-18 -83 -18 -139q0 -188 223 -188h408q151 0 242 36v402h40v-431q-99 -47 -288 -47h-402q-120 0 -192 48q-71 50 -71 172zM548 -163q0 16 10.5 26t26.5 10q15 0 25 -10t10 -26q0 -15 -10 -25.5t-25 -10.5q-16 0 -26.5 10.5t-10.5 25.5z" />
<glyph unicode="&#x629;" horiz-adv-x="637" d="M75 250q0 115 68 187.5t175 72.5t175.5 -72.5t68.5 -187.5t-68.5 -187.5t-175.5 -72.5t-175 72.5t-68 187.5zM522 250q0 98 -56.5 159.5t-147.5 61.5q-90 0 -146.5 -61.5t-56.5 -159.5t56.5 -159.5t146.5 -61.5q91 0 147.5 61.5t56.5 159.5zM191 676q0 16 10 26t26 10 q15 0 25 -10t10 -26q0 -15 -10 -25.5t-25 -10.5q-16 0 -26 10.5t-10 25.5zM374 676q0 16 10 26t26 10q15 0 25 -10t10 -26q0 -15 -10 -25.5t-25 -10.5q-16 0 -26 10.5t-10 25.5z" />
<glyph unicode="&#x62a;" horiz-adv-x="1159" d="M92 220q0 60 20 154l38 -7q-18 -83 -18 -139q0 -188 223 -188h408q151 0 242 36v402h40v-431q-99 -47 -288 -47h-402q-120 0 -192 48q-71 50 -71 172zM454 493q0 16 10 26t26 10q15 0 25 -10t10 -26q0 -15 -10 -25.5t-25 -10.5q-16 0 -26 10.5t-10 25.5zM637 493 q0 16 10 26t26 10q15 0 25 -10t10 -26q0 -15 -10 -25.5t-25 -10.5q-16 0 -26 10.5t-10 25.5z" />
<glyph unicode="&#x62b;" horiz-adv-x="1159" d="M92 220q0 60 20 154l38 -7q-18 -83 -18 -139q0 -188 223 -188h408q151 0 242 36v402h40v-431q-99 -47 -288 -47h-402q-120 0 -192 48q-71 50 -71 172zM546 613q0 15 10 25t25 10q14 0 24 -10t10 -25q0 -14 -10 -24.5t-24 -10.5q-15 0 -25 10.5t-10 24.5zM457 491 q0 15 10 25t25 10q14 0 24 -10t10 -25q0 -14 -10 -24.5t-24 -10.5q-15 0 -25 10.5t-10 24.5zM636 491q0 16 10 25.5t25 9.5t24.5 -9.5t9.5 -25.5q0 -15 -9.5 -25t-24.5 -10t-25 10.5t-10 24.5z" />
<glyph unicode="&#x62c;" horiz-adv-x="668" d="M594 36l-10 -36h-336q-77 0 -122.5 -39.5t-45.5 -106.5q0 -68 46 -108t124 -40h162v-40h-158q-98 0 -156 51t-58 138q0 86 57.5 135.5t156.5 49.5h279q-41 36 -60 82q-23 54 -40 122q-19 71 -36 112q-35 91 -139 91q-66 0 -133 -48l-24 28q74 59 158 59q67 0 108 -29 t62 -76q22 -48 42 -125q24 -92 50.5 -143t72.5 -77zM302 -150q0 15 10 25.5t26 10.5q14 0 24.5 -10.5t10.5 -25.5t-10.5 -25.5t-24.5 -10.5q-16 0 -26 10.5t-10 25.5z" />
<glyph unicode="&#x62d;" horiz-adv-x="668" d="M594 36l-10 -36h-336q-77 0 -122.5 -39.5t-45.5 -106.5q0 -68 46 -108t124 -40h162v-40h-158q-98 0 -156 51t-58 138q0 86 57.5 135.5t156.5 49.5h279q-41 36 -60 82q-23 54 -40 122q-19 71 -36 112q-35 91 -139 91q-66 0 -133 -48l-24 28q74 59 158 59q67 0 108 -29 t62 -76q22 -48 42 -125q24 -92 50.5 -143t72.5 -77z" />
<glyph unicode="&#x62e;" horiz-adv-x="668" d="M594 36l-10 -36h-336q-77 0 -122.5 -39.5t-45.5 -106.5q0 -68 46 -108t124 -40h162v-40h-158q-98 0 -156 51t-58 138q0 86 57.5 135.5t156.5 49.5h279q-41 36 -60 82q-23 54 -40 122q-19 71 -36 112q-35 91 -139 91q-66 0 -133 -48l-24 28q74 59 158 59q67 0 108 -29 t62 -76q22 -48 42 -125q24 -92 50.5 -143t72.5 -77zM233 646q0 16 10.5 26.5t26.5 10.5q15 0 25 -10.5t10 -26.5q0 -15 -10 -25.5t-25 -10.5q-16 0 -26.5 10.5t-10.5 25.5z" />
<glyph unicode="&#x62f;" horiz-adv-x="587" d="M480 223v-223h-430v40h390v182q0 103 -42.5 140.5t-155.5 37.5h-82v41h75q138 0 191.5 -48.5t53.5 -169.5z" />
<glyph unicode="&#x630;" horiz-adv-x="587" d="M480 223v-223h-430v40h390v182q0 103 -42.5 140.5t-155.5 37.5h-82v41h75q138 0 191.5 -48.5t53.5 -169.5zM199 606q0 16 10.5 26.5t26.5 10.5q15 0 25 -10.5t10 -26.5q0 -15 -10 -25.5t-25 -10.5q-16 0 -26.5 10.5t-10.5 25.5z" />
<glyph unicode="&#x631;" horiz-adv-x="342" d="M-83 -251l7 40q28 -3 51 -3q105 0 154 57t49 175v456h41v-455q0 -274 -243 -274q-26 0 -59 4z" />
<glyph unicode="&#x632;" horiz-adv-x="342" d="M-83 -251l7 40q28 -3 51 -3q105 0 154 57t49 175v456h41v-455q0 -274 -243 -274q-26 0 -59 4zM162 643q0 16 10.5 26.5t26.5 10.5q15 0 25 -10.5t10 -26.5q0 -15 -10 -25.5t-25 -10.5q-16 0 -26.5 10.5t-10.5 25.5z" />
<glyph unicode="&#x633;" horiz-adv-x="1497" d="M1344 474h40v-405q-76 -73 -181 -73q-86 0 -162 59q-74 -59 -160 -59q-78 0 -146 50v-214q-141 -87 -309 -87q-162 0 -250.5 77.5t-88.5 214.5q0 77 18 141l37 -7q-16 -66 -16 -128q0 -123 77.5 -190t223.5 -67q143 0 269 69v494h40v-259q63 -54 142 -54q77 0 142 53v260 h40v-260q65 -53 142 -53q79 0 142 54v384z" />
<glyph unicode="&#x634;" horiz-adv-x="1497" d="M1344 474h40v-405q-76 -73 -181 -73q-86 0 -162 59q-74 -59 -160 -59q-78 0 -146 50v-214q-141 -87 -309 -87q-162 0 -250.5 77.5t-88.5 214.5q0 77 18 141l37 -7q-16 -66 -16 -128q0 -123 77.5 -190t223.5 -67q143 0 269 69v494h40v-259q63 -54 142 -54q77 0 142 53v260 h40v-260q65 -53 142 -53q79 0 142 54v384zM1004 642q0 15 10 25t25 10q14 0 24 -10t10 -25q0 -14 -10 -24.5t-24 -10.5q-15 0 -25 10.5t-10 24.5zM915 520q0 15 10 25t25 10q14 0 24 -10t10 -25q0 -14 -10 -24.5t-24 -10.5q-15 0 -25 10.5t-10 24.5zM1094 520q0 16 10 25.5 t25 9.5t24.5 -9.5t9.5 -25.5q0 -15 -9.5 -25t-24.5 -10t-25 10.5t-10 24.5z" />
<glyph unicode="&#x635;" horiz-adv-x="1461" d="M1356 226v-226h-620v-167q-145 -88 -310 -88q-162 0 -250.5 77.5t-88.5 214.5q0 77 18 141l37 -7q-16 -66 -16 -128q0 -123 77.5 -190t223.5 -67q143 0 269 69v568h40v-172q195 235 385 235q111 0 173 -68t62 -192zM736 40h580v182q0 106 -52.5 165.5t-148.5 59.5 q-95 0 -186.5 -62t-192.5 -191v-154z" />
<glyph unicode="&#x636;" horiz-adv-x="1461" d="M1356 226v-226h-620v-167q-145 -88 -310 -88q-162 0 -250.5 77.5t-88.5 214.5q0 77 18 141l37 -7q-16 -66 -16 -128q0 -123 77.5 -190t223.5 -67q143 0 269 69v568h40v-172q195 235 385 235q111 0 173 -68t62 -192zM736 40h580v182q0 106 -52.5 165.5t-148.5 59.5 q-95 0 -186.5 -62t-192.5 -191v-154zM865 653q0 16 10.5 26.5t26.5 10.5q15 0 25 -10.5t10 -26.5q0 -15 -10 -25.5t-25 -10.5q-16 0 -26.5 10.5t-10.5 25.5z" />
<glyph unicode="&#x637;" horiz-adv-x="947" d="M842 226v-226h-801v40h140v664h40v-454q87 107 178 170q93 66 209 66q110 0 172 -69.5t62 -190.5zM221 40h581v182q0 107 -53 166t-147 59q-113 0 -204 -70q-92 -71 -177 -184v-153z" />
<glyph unicode="&#x638;" horiz-adv-x="947" d="M842 226v-226h-801v40h140v664h40v-454q87 107 178 170q93 66 209 66q110 0 172 -69.5t62 -190.5zM221 40h581v182q0 107 -53 166t-147 59q-113 0 -204 -70q-92 -71 -177 -184v-153zM426 658q0 16 10.5 26.5t26.5 10.5q15 0 25 -10.5t10 -26.5q0 -15 -10 -25.5t-25 -10.5 q-16 0 -26.5 10.5t-10.5 25.5z" />
<glyph unicode="&#x639;" horiz-adv-x="677" d="M213 244q0 -88 66 -146t166 -58h116v-40h-339q-79 0 -125 -39t-46 -106q0 -69 46 -109t126 -40h146v-40h-143q-100 0 -158 50.5t-58 136.5t60.5 135.5t165.5 49.5h79q-67 27 -105 82t-38 127q0 103 72 171t180 68q97 0 177 -56l-25 -32q-67 49 -151 49 q-91 0 -151.5 -57.5t-60.5 -145.5z" />
<glyph unicode="&#x63a;" horiz-adv-x="677" d="M213 244q0 -88 66 -146t166 -58h116v-40h-339q-79 0 -125 -39t-46 -106q0 -69 46 -109t126 -40h146v-40h-143q-100 0 -158 50.5t-58 136.5t60.5 135.5t165.5 49.5h79q-67 27 -105 82t-38 127q0 103 72 171t180 68q97 0 177 -56l-25 -32q-67 49 -151 49 q-91 0 -151.5 -57.5t-60.5 -145.5zM387 653q0 16 10.5 26.5t26.5 10.5q15 0 25 -10.5t10 -26.5q0 -15 -10 -25.5t-25 -10.5q-16 0 -26.5 10.5t-10.5 25.5z" />
<glyph unicode="&#x640;" horiz-adv-x="250" d="M266 40v-38q0 -2 -16 -2h-250q-16 0 -16 2v38h282z" />
<glyph unicode="&#x641;" horiz-adv-x="1255" d="M1141 466v-420q-120 -46 -288 -46h-498q-120 0 -192 48q-71 50 -71 172q0 60 20 154l38 -7q-18 -83 -18 -139q0 -188 223 -188h510q83 0 165 14q-339 21 -339 244q0 102 69 164.5t177 62.5q111 0 204 -59zM1101 80v363q-82 43 -166 43q-91 0 -147.5 -52t-56.5 -136 q0 -214 370 -218zM898 691q0 16 10.5 26.5t26.5 10.5q15 0 25 -10.5t10 -26.5q0 -15 -10 -25.5t-25 -10.5q-16 0 -26.5 10.5t-10.5 25.5z" />
<glyph unicode="&#x642;" horiz-adv-x="892" d="M779 412v-578q-139 -89 -331 -89q-174 0 -267.5 77.5t-93.5 214.5q0 77 19 141l37 -8q-17 -54 -17 -127q0 -123 83 -190t240 -67q160 0 290 69v145h-160q-121 0 -195 65.5t-74 172.5q0 106 75 170t190 64q111 0 204 -60zM575 40h164v346q-68 48 -165 48 q-95 0 -159.5 -53.5t-64.5 -142.5q0 -92 63.5 -145t161.5 -53zM452 638q0 16 10 26t26 10q15 0 25 -10t10 -26q0 -15 -10 -25.5t-25 -10.5q-16 0 -26 10.5t-10 25.5zM635 638q0 16 10 26t26 10q15 0 25 -10t10 -26q0 -15 -10 -25.5t-25 -10.5q-16 0 -26 10.5t-10 25.5z" />
<glyph unicode="&#x643;" horiz-adv-x="1107" d="M928 730h41v-683q-101 -47 -288 -47h-326q-120 0 -192 48q-71 50 -71 172q0 60 20 154l38 -7q-18 -83 -18 -139q0 -188 223 -188h331q150 0 242 36v654zM615 350v-32h-182v32h54q-32 26 -32 66q0 37 24.5 61.5t61.5 24.5t65 -21l-17 -21q-18 13 -45 13t-43.5 -17 t-16.5 -44t19 -44.5t51 -17.5h61z" />
<glyph unicode="&#x644;" horiz-adv-x="871" d="M693 730h40v-896q-135 -89 -310 -89q-162 0 -249 76.5t-87 216.5q0 78 18 142l37 -8q-16 -66 -16 -128q0 -125 76.5 -191.5t221.5 -66.5q143 0 269 69v875z" />
<glyph unicode="&#x645;" horiz-adv-x="733" d="M658 250q0 -115 -68 -187.5t-175 -72.5q-93 0 -156 54q-45 39 -90 39q-91 0 -91 -100q0 -63 7 -147q6 -68 19 -171h-38q-13 104 -19 172q-7 83 -7 147q0 130 119 130q26 0 48 -7q-36 63 -36 143q0 115 68.5 187.5t175.5 72.5t175 -72.5t68 -187.5zM618 250 q0 98 -56.5 159.5t-147.5 61.5q-90 0 -146.5 -61.5t-56.5 -159.5t56.5 -159.5t146.5 -61.5q91 0 147.5 61.5t56.5 159.5z" />
<glyph unicode="&#x646;" horiz-adv-x="846" d="M87 37q0 77 18 141l37 -7q-16 -66 -16 -128q0 -123 77.5 -190t223.5 -67q143 0 269 69v494h40v-517q-143 -87 -310 -87q-162 0 -250.5 77.5t-88.5 214.5zM375 343q0 16 10.5 26.5t26.5 10.5q15 0 25 -10.5t10 -26.5q0 -15 -10 -25.5t-25 -10.5q-16 0 -26.5 10.5 t-10.5 25.5z" />
<glyph unicode="&#x647;" horiz-adv-x="637" d="M75 250q0 115 68 187.5t175 72.5t175.5 -72.5t68.5 -187.5t-68.5 -187.5t-175.5 -72.5t-175 72.5t-68 187.5zM522 250q0 98 -56.5 159.5t-147.5 61.5q-90 0 -146.5 -61.5t-56.5 -159.5t56.5 -159.5t146.5 -61.5q91 0 147.5 61.5t56.5 159.5z" />
<glyph unicode="&#x648;" horiz-adv-x="657" d="M544 412v-394q0 -135 -71.5 -204t-200.5 -69q-94 0 -168 33l7 38q66 -32 162 -32q109 0 168 54.5t63 161.5h-160q-121 0 -195 64.5t-74 170.5q0 108 75 172.5t190 64.5q111 0 204 -60zM340 40h164v346q-68 48 -165 48q-95 0 -159.5 -53.5t-64.5 -144.5q0 -92 63.5 -144 t161.5 -52z" />
<glyph unicode="&#x649;" horiz-adv-x="1146" d="M1074 12l-36 -10l-103 357h-135q-56 0 -89.5 -26.5t-33.5 -72.5q0 -20 6 -41l108 -376q-64 -39 -160 -68q-99 -30 -200 -30q-162 0 -253 78t-91 214q0 77 19 141l37 -8q-17 -56 -17 -127q0 -121 80 -189t224 -68q90 0 178 24q84 21 139 52l-103 352q-8 30 -8 52 q0 60 43.5 95.5t113.5 35.5h171z" />
<glyph unicode="&#x64a;" horiz-adv-x="1146" d="M1074 12l-36 -10l-103 357h-135q-56 0 -89.5 -26.5t-33.5 -72.5q0 -20 6 -41l108 -376q-64 -39 -160 -68q-99 -30 -200 -30q-162 0 -253 78t-91 214q0 77 19 141l37 -8q-17 -56 -17 -127q0 -121 80 -189t224 -68q90 0 178 24q84 21 139 52l-103 352q-8 30 -8 52 q0 60 43.5 95.5t113.5 35.5h171zM302 -426q0 16 10 26t26 10q15 0 25 -10t10 -26q0 -15 -10 -25.5t-25 -10.5q-16 0 -26 10.5t-10 25.5zM485 -426q0 16 10 26t26 10q15 0 25 -10t10 -26q0 -15 -10 -25.5t-25 -10.5q-16 0 -26 10.5t-10 25.5z" />
<glyph unicode="&#x64b;" d="M-108 652v26l215 64v-27zM-108 580v26l215 64v-27z" />
<glyph unicode="&#x64c;" d="M123 717q0 -70 -98 -109q-63 -24 -155 -28l-8 17q36 31 36 67q0 44 -46 44v25q33 0 53 -16t20 -45q0 -42 -32 -69q70 8 114 22q24 9 39 18q-39 5 -60.5 26t-21.5 51q0 32 23.5 52.5t57.5 20.5t56 -21t22 -55zM95 715q0 23 -14 37.5t-37 14.5t-37.5 -14t-14.5 -36 q0 -24 20.5 -39.5t55.5 -18.5q27 25 27 56z" />
<glyph unicode="&#x64d;" d="M-108 -167v26l215 64v-26zM-108 -239v26l215 64v-26z" />
<glyph unicode="&#x64e;" d="M-108 580v26l215 64v-26z" />
<glyph unicode="&#x64f;" d="M104 712q0 -115 -227 -130l-5 23q102 9 152 33q-39 6 -60.5 26.5t-21.5 51.5q0 33 23 53.5t59 20.5t58 -21.5t22 -56.5zM76 709q0 25 -14.5 40t-38.5 15q-23 0 -38 -14.5t-15 -36.5q0 -53 79 -60q27 23 27 56z" />
<glyph unicode="&#x650;" d="M-106 -170v27l213 63v-27z" />
<glyph unicode="&#x651;" d="M107 780h28v-114q0 -31 -21 -46.5t-51 -15.5q-35 0 -56 18q-11 -42 -70 -42q-30 0 -51 15.5t-21 46.5v101h28v-95q0 -19 12.5 -29.5t33.5 -10.5q22 0 34.5 10.5t12.5 29.5v111h27v-89q0 -17 13 -27t35 -10q46 0 46 39v108z" />
<glyph unicode="&#x652;" d="M-91 669q0 39 25.5 64.5t65.5 25.5t65.5 -25.5t25.5 -64.5t-25.5 -64.5t-65.5 -25.5t-65.5 25.5t-25.5 64.5zM64 669q0 28 -18 46t-47 18q-28 0 -45.5 -18t-17.5 -46t17.5 -46t45.5 -18q29 0 47 18t18 46z" />
<glyph unicode="&#x653;" d="M91 566l20 -5q-7 -64 -69 -61l-86 4q-20 1 -33 -8.5t-17 -25.5l-20 4q8 65 70 61l85 -4q20 -1 33.5 9t16.5 26z" />
<glyph unicode="&#x654;" d="M30 532h61v-32h-182v32h54q-32 26 -32 66q0 37 24.5 61.5t61.5 24.5q36 0 64 -21l-17 -21q-18 13 -45 13q-26 0 -43 -17.5t-17 -43.5q0 -27 19.5 -44.5t51.5 -17.5z" />
<glyph unicode="&#x655;" d="M30 -152h61v-31h-182v31h55q-33 26 -33 67q0 37 24.5 61.5t61.5 24.5q36 0 64 -21l-17 -21q-20 13 -45 13q-26 0 -43 -17.5t-17 -44.5t19.5 -44.5t51.5 -17.5z" />
<glyph unicode="&#x656;" d="M-14 -300v207h28v-207h-28z" />
<glyph unicode="&#x658;" d="M79 728h29v-137q-46 -28 -106 -28q-53 0 -82.5 25.5t-29.5 69.5q0 26 7 44l26 -5q-5 -18 -5 -34q0 -34 23 -52.5t64 -18.5t74 16v120z" />
<glyph unicode="&#x660;" horiz-adv-x="296" d="M148 296l-61 61l61 61l61 -61z" />
<glyph unicode="&#x661;" horiz-adv-x="285" d="M148 0l-51 700h40l52 -700h-41z" />
<glyph unicode="&#x662;" horiz-adv-x="519" d="M459 700v-40h-319l49 -660h-41l-51 700h362z" />
<glyph unicode="&#x663;" horiz-adv-x="677" d="M578 701h39v-203q-19 -19 -55.5 -32t-77.5 -13q-75 0 -118 35q-50 -35 -116 -35q-54 0 -94 22l40 -475h-40l-59 700h40l16 -184q37 -25 93 -25q62 0 99 27v183h38v-183q41 -27 99 -27q60 0 96 27v183z" />
<glyph unicode="&#x664;" horiz-adv-x="534" d="M476 46l12 -35q-59 -21 -161 -21q-122 0 -186 48t-64 141q0 146 159 179q-144 36 -144 171q0 87 60.5 134t169.5 47q82 0 149 -21l-14 -34q-65 16 -135 16q-92 0 -141.5 -37t-49.5 -105q0 -75 59 -115t170 -40h44v-35h-56q-232 0 -232 -159q0 -151 212 -151q78 0 148 17z " />
<glyph unicode="&#x665;" horiz-adv-x="624" d="M68 215q0 85 32 175q32 88 87 147q56 59 125 59t124 -58q57 -60 88 -147q32 -90 32 -176q0 -223 -244 -223t-244 223zM517 219q0 76 -28 154q-29 80 -76 132q-46 52 -101 52q-51 2 -100 -52t-77 -133.5t-27 -153.5q0 -96 50.5 -141.5t153.5 -45.5q104 0 154.5 45.5 t50.5 142.5z" />
<glyph unicode="&#x666;" horiz-adv-x="519" d="M423 0h-41l-29 660h-323v40h361z" />
<glyph unicode="&#x667;" horiz-adv-x="585" d="M504 700h44q-67 -156 -124 -331q-55 -174 -104 -369h-54q-51 198 -107 372q-52 161 -122 328h44q65 -153 113 -303q50 -155 99 -345q51 200 99 348q50 153 112 300z" />
<glyph unicode="&#x668;" horiz-adv-x="585" d="M548 0h-44q-62 147 -112 300q-48 148 -99 348q-49 -190 -99 -345q-48 -150 -113 -303h-44q70 166 122 327q57 178 107 373h54q49 -195 104 -369q57 -175 124 -331z" />
<glyph unicode="&#x669;" horiz-adv-x="585" d="M488 0h-40l-17 244h-114q-125 0 -196 61t-71 173q0 109 68 170.5t178 61.5q80 0 145 -30zM315 283h113l-25 369q-45 19 -106 19q-94 0 -150.5 -49.5t-56.5 -142.5q0 -97 60 -146.5t165 -49.5z" />
<glyph unicode="&#x66a;" horiz-adv-x="816" d="M694 717l-537 -734h-40l537 734h40zM352 528q0 -82 -41 -130.5t-112 -48.5t-112 48.5t-41 130.5t41 130.5t112 48.5t112 -48.5t41 -130.5zM79 528q0 -68 32.5 -108.5t87.5 -40.5t87.5 40.5t32.5 108.5t-32.5 108.5t-87.5 40.5t-87.5 -40.5t-32.5 -108.5zM771 172 q0 -82 -41 -130t-113 -48q-70 0 -111.5 48t-41.5 130t41.5 130.5t111.5 48.5q72 0 113 -48.5t41 -130.5zM497 172q0 -68 32.5 -108.5t87.5 -40.5q56 0 88.5 40.5t32.5 108.5q0 69 -32.5 109.5t-88.5 40.5q-55 0 -87.5 -41t-32.5 -109z" />
<glyph unicode="&#x66b;" horiz-adv-x="226" d="M146 38q0 -11 -6 -29l-46 -127h-21l30 124q-21 6 -21 30q0 14 9.5 23t22.5 9q14 0 23 -8.5t9 -21.5z" />
<glyph unicode="&#x66c;" horiz-adv-x="246" d="M166 57l-65 -175h-21l43 175h43z" />
<glyph unicode="&#x66d;" horiz-adv-x="417" d="M126 348l-25 19l85 114l-136 43l10 29l135 -45l-2 142h31l-2 -142l136 45l9 -29l-136 -43l85 -114l-25 -19l-83 117z" />
<glyph unicode="&#x66e;" horiz-adv-x="1159" d="M92 220q0 60 20 154l38 -7q-18 -83 -18 -139q0 -188 223 -188h408q151 0 242 36v402h40v-431q-99 -47 -288 -47h-402q-120 0 -192 48q-71 50 -71 172z" />
<glyph unicode="&#x66f;" horiz-adv-x="892" d="M779 412v-578q-139 -89 -331 -89q-174 0 -267.5 77.5t-93.5 214.5q0 77 19 141l37 -8q-17 -54 -17 -127q0 -123 83 -190t240 -67q160 0 290 69v145h-160q-121 0 -195 65.5t-74 172.5q0 106 75 170t190 64q111 0 204 -60zM575 40h164v346q-68 48 -165 48 q-95 0 -159.5 -53.5t-64.5 -142.5q0 -92 63.5 -145t161.5 -53z" />
<glyph unicode="&#x670;" d="M-14 582v195h28v-195h-28z" />
<glyph unicode="&#x671;" horiz-adv-x="317" d="M138 0v730h41v-730h-41zM275 922v-63h-266v29h50q23 52 57.5 82t78.5 30q37 0 58.5 -21.5t21.5 -56.5zM89 888h157v31q0 25 -14 39.5t-41 14.5q-65 0 -102 -85z" />
<glyph unicode="&#x679;" horiz-adv-x="1159" d="M92 220q0 60 20 154l38 -7q-18 -83 -18 -139q0 -188 223 -188h408q151 0 242 36v402h40v-431q-99 -47 -288 -47h-402q-120 0 -192 48q-71 50 -71 172zM700 532v-68h-260v29h36v187h29v-126q60 60 118 60q35 0 56 -22.5t21 -59.5zM505 493h166v35q0 27 -15 43.5t-39 16.5 q-52 0 -112 -66v-29z" />
<glyph unicode="&#x67e;" horiz-adv-x="1159" d="M92 220q0 60 20 154l38 -7q-18 -83 -18 -139q0 -188 223 -188h408q151 0 242 36v402h40v-431q-99 -47 -288 -47h-402q-120 0 -192 48q-71 50 -71 172zM461 -162q0 15 10 25t25 10q14 0 24 -10t10 -25q0 -14 -10 -24.5t-24 -10.5q-15 0 -25 10.5t-10 24.5zM640 -163 q0 15 10 25t25 10t24.5 -10t9.5 -25t-9.5 -25t-24.5 -10t-25 10t-10 25zM551 -284q0 15 10 25t25 10q14 0 24 -10t10 -25q0 -14 -10 -24.5t-24 -10.5q-15 0 -25 10.5t-10 24.5z" />
<glyph unicode="&#x686;" horiz-adv-x="664" d="M589 36l-10 -36h-332q-77 0 -122 -39t-45 -106q0 -70 45 -110t123 -40h131v-41h-126q-97 0 -155 51.5t-58 139.5q0 86 58 135.5t155 49.5h275q-36 32 -57 78t-42 125q-18 70 -35 112q-38 92 -137 92q-68 0 -126 -46l-28 26q74 59 158 59q65 0 104 -30q37 -28 58.5 -72.5 t43.5 -127.5q23 -93 49.5 -143.5t72.5 -76.5zM257 -66q14 0 24 -10t10 -25q0 -14 -10 -24.5t-24 -10.5q-15 0 -25 10.5t-10 24.5q0 15 10 25t25 10zM445 -102q0 -15 -10 -25t-24 -10q-15 0 -25 10t-10 25t10 25.5t25 9.5q14 0 24 -10t10 -25zM334 -172q14 0 24 -10t10 -25 q0 -14 -10 -24.5t-24 -10.5q-15 0 -25 10.5t-10 24.5q0 15 10 25t25 10z" />
<glyph unicode="&#x688;" horiz-adv-x="585" d="M480 223v-223h-430v40h390v182q0 103 -42.5 140.5t-155.5 37.5h-82v41h75q138 0 191.5 -48.5t53.5 -169.5zM355 645v-68h-260v29h36v187h29v-126q60 60 118 60q35 0 56 -22.5t21 -59.5zM160 606h166v35q0 27 -15 43.5t-39 16.5q-52 0 -112 -66v-29z" />
<glyph unicode="&#x691;" horiz-adv-x="342" d="M-83 -251l7 40q28 -3 51 -3q105 0 154 57t49 175v456h41v-455q0 -274 -243 -274q-26 0 -59 4zM318 682v-68h-260v29h36v187h29v-126q60 60 118 60q35 0 56 -22.5t21 -59.5zM123 643h166v35q0 27 -15 43.5t-39 16.5q-52 0 -112 -66v-29z" />
<glyph unicode="&#x698;" horiz-adv-x="342" d="M-83 -251l7 40q28 -3 51 -3q105 0 154 57t49 175v456h41v-455q0 -274 -243 -274q-26 0 -59 4zM164 763q0 15 10 25t25 10q14 0 24 -10t10 -25q0 -14 -10 -24.5t-24 -10.5q-15 0 -25 10.5t-10 24.5zM75 641q0 15 10 25t25 10q14 0 24 -10t10 -25q0 -14 -10 -24.5 t-24 -10.5q-15 0 -25 10.5t-10 24.5zM254 641q0 16 10 25.5t25 9.5t24.5 -9.5t9.5 -25.5q0 -15 -9.5 -25t-24.5 -10t-25 10.5t-10 24.5z" />
<glyph unicode="&#x6a1;" horiz-adv-x="1255" d="M1141 466v-420q-120 -46 -288 -46h-498q-120 0 -192 48q-71 50 -71 172q0 60 20 154l38 -7q-18 -83 -18 -139q0 -188 223 -188h510q83 0 165 14q-339 21 -339 244q0 102 69 164.5t177 62.5q111 0 204 -59zM1101 80v363q-82 43 -166 43q-91 0 -147.5 -52t-56.5 -136 q0 -214 370 -218z" />
<glyph unicode="&#x6a4;" horiz-adv-x="1255" d="M1141 466v-420q-120 -46 -288 -46h-498q-120 0 -192 48q-71 50 -71 172q0 60 20 154l38 -7q-18 -83 -18 -139q0 -188 223 -188h510q83 0 165 14q-339 21 -339 244q0 102 69 164.5t177 62.5q111 0 204 -59zM1101 80v363q-82 43 -166 43q-91 0 -147.5 -52t-56.5 -136 q0 -214 370 -218zM900 811q0 15 10 25t25 10q14 0 24 -10t10 -25q0 -14 -10 -24.5t-24 -10.5q-15 0 -25 10.5t-10 24.5zM811 689q0 15 10 25t25 10q14 0 24 -10t10 -25q0 -14 -10 -24.5t-24 -10.5q-15 0 -25 10.5t-10 24.5zM990 689q0 16 10 25.5t25 9.5t24.5 -9.5 t9.5 -25.5q0 -15 -9.5 -25t-24.5 -10t-25 10.5t-10 24.5z" />
<glyph unicode="&#x6a9;" horiz-adv-x="1088" d="M993 139v-91q-107 -48 -275 -48h-363q-120 0 -192 48q-71 50 -71 172q0 60 20 154l38 -7q-18 -83 -18 -139q0 -188 223 -188h369q134 0 229 37v61q0 98 -56 151q-55 53 -177 84l-99 25l-10 35l348 287l22 -28l-321 -264l74 -19q134 -34 196.5 -97.5t62.5 -172.5z" />
<glyph unicode="&#x6af;" horiz-adv-x="1088" d="M878 729l-288 -238l-8 27l280 231zM993 139v-91q-107 -48 -275 -48h-363q-120 0 -192 48q-71 50 -71 172q0 60 20 154l38 -7q-18 -83 -18 -139q0 -188 223 -188h369q134 0 229 37v61q0 98 -56 151q-55 53 -177 84l-99 25l-10 35l348 287l22 -28l-321 -264l74 -19 q134 -34 196.5 -97.5t62.5 -172.5z" />
<glyph unicode="&#x6ba;" horiz-adv-x="849" d="M87 37q0 77 18 141l37 -7q-16 -66 -16 -128q0 -123 77.5 -190t223.5 -67q143 0 269 69v494h40v-517q-143 -87 -310 -87q-162 0 -250.5 77.5t-88.5 214.5z" />
<glyph unicode="&#x6be;" horiz-adv-x="909" d="M831 238v-238h-751q-16 0 -16 2v38h253q-111 60 -111 195q0 90 61 149t148 59t148 -59t61 -149q0 -66 -29 -116.5t-83 -78.5h278v200q0 94 -29 163t-79.5 105.5t-107.5 53.5t-123 17q-63 0 -114 -9v39q59 8 114 8q79 0 145.5 -20.5t120 -63.5t84 -118.5t30.5 -176.5z M415 40q81 9 125.5 61t44.5 131q0 75 -49 124t-121 49t-121 -49t-49 -124q0 -79 45 -130.5t125 -61.5z" />
<glyph unicode="&#x6c1;" horiz-adv-x="637" d="M75 250q0 115 68 187.5t175 72.5t175.5 -72.5t68.5 -187.5t-68.5 -187.5t-175.5 -72.5t-175 72.5t-68 187.5zM522 250q0 98 -56.5 159.5t-147.5 61.5q-90 0 -146.5 -61.5t-56.5 -159.5t56.5 -159.5t146.5 -61.5q91 0 147.5 61.5t56.5 159.5z" />
<glyph unicode="&#x6c2;" horiz-adv-x="637" d="M75 250q0 115 68 187.5t175 72.5t175.5 -72.5t68.5 -187.5t-68.5 -187.5t-175.5 -72.5t-175 72.5t-68 187.5zM522 250q0 98 -56.5 159.5t-147.5 61.5q-90 0 -146.5 -61.5t-56.5 -159.5t56.5 -159.5t146.5 -61.5q91 0 147.5 61.5t56.5 159.5zM348 672h61v-32h-182v32h54 q-32 26 -32 66q0 37 24.5 61.5t61.5 24.5q36 0 64 -21l-17 -21q-18 13 -45 13q-26 0 -43 -17.5t-17 -43.5q0 -27 19.5 -44.5t51.5 -17.5z" />
<glyph unicode="&#x6c3;" horiz-adv-x="637" d="M75 250q0 115 68 187.5t175 72.5t175.5 -72.5t68.5 -187.5t-68.5 -187.5t-175.5 -72.5t-175 72.5t-68 187.5zM522 250q0 98 -56.5 159.5t-147.5 61.5q-90 0 -146.5 -61.5t-56.5 -159.5t56.5 -159.5t146.5 -61.5q91 0 147.5 61.5t56.5 159.5zM191 676q0 16 10 26t26 10 q15 0 25 -10t10 -26q0 -15 -10 -25.5t-25 -10.5q-16 0 -26 10.5t-10 25.5zM374 676q0 16 10 26t26 10q15 0 25 -10t10 -26q0 -15 -10 -25.5t-25 -10.5q-16 0 -26 10.5t-10 25.5z" />
<glyph unicode="&#x6cc;" horiz-adv-x="1149" d="M1074 12l-36 -10l-103 357h-135q-56 0 -89.5 -26.5t-33.5 -72.5q0 -20 6 -41l108 -376q-64 -39 -160 -68q-99 -30 -200 -30q-162 0 -253 78t-91 214q0 77 19 141l37 -8q-17 -56 -17 -127q0 -121 80 -189t224 -68q90 0 178 24q84 21 139 52l-103 352q-8 30 -8 52 q0 60 43.5 95.5t113.5 35.5h171z" />
<glyph unicode="&#x6d2;" horiz-adv-x="798" d="M93 104q0 105 124 135l144 35q36 8 51 33t15 77v90h41v-97q0 -63 -20.5 -95t-69.5 -44l-155 -39q-90 -21 -90 -94q0 -78 120 -78h489v-40h-482q-167 0 -167 117z" />
<glyph unicode="&#x6d3;" horiz-adv-x="798" d="M93 104q0 105 124 135l144 35q36 8 51 33t15 77v90h41v-97q0 -63 -20.5 -95t-69.5 -44l-155 -39q-90 -21 -90 -94q0 -78 120 -78h489v-40h-482q-167 0 -167 117zM226 432h61v-32h-182v32h54q-32 26 -32 66q0 37 24.5 61.5t61.5 24.5q36 0 64 -21l-17 -21q-18 13 -45 13 q-26 0 -43 -17.5t-17 -43.5q0 -27 19.5 -44.5t51.5 -17.5z" />
<glyph unicode="&#x6d4;" horiz-adv-x="267" d="M100 24q0 15 10 24.5t24 9.5t23.5 -9.5t9.5 -24.5q0 -14 -9.5 -24t-23.5 -10t-24 10t-10 24z" />
<glyph unicode="&#x6f0;" horiz-adv-x="296" d="M148 296l-61 61l61 61l61 -61z" />
<glyph unicode="&#x6f1;" horiz-adv-x="285" d="M148 0l-51 700h40l52 -700h-41z" />
<glyph unicode="&#x6f2;" horiz-adv-x="519" d="M459 700v-40h-319l49 -660h-41l-51 700h362z" />
<glyph unicode="&#x6f3;" horiz-adv-x="677" d="M578 701h39v-203q-19 -19 -55.5 -32t-77.5 -13q-75 0 -118 35q-50 -35 -116 -35q-54 0 -94 22l40 -475h-40l-59 700h40l16 -184q37 -25 93 -25q62 0 99 27v183h38v-183q41 -27 99 -27q60 0 96 27v183z" />
<glyph unicode="&#x6f4;" horiz-adv-x="547" d="M496 479v-38h-340l32 -441h-40l-51 700h40l16 -221h146q-45 37 -45 99q0 57 37.5 94.5t95.5 37.5q53 0 95 -28l-23 -28q-28 20 -72 20q-42 0 -69 -28t-27 -70q0 -43 30 -70t77 -27h98z" />
<glyph unicode="&#x6f5;" horiz-adv-x="624" d="M556 200q0 -100 -38.5 -154t-106.5 -54q-64 0 -99 52q-35 -52 -99 -52q-68 0 -106.5 54t-38.5 154q-2 94 30 186t90 152.5t124 57.5q66 3 124 -57.5t90 -152.5t30 -186zM516 203q1 82 -27.5 165.5t-76.5 137.5t-100 51q-78 4 -142 -111.5t-62 -242.5q0 -173 110 -173 q55 0 85 52h18q30 -52 85 -52q53 0 81.5 44t28.5 129z" />
<glyph unicode="&#x6f6;" horiz-adv-x="492" d="M437 399l5 -39l-107 -14q-57 -10 -88.5 -22t-57.5 -42t-41.5 -76t-32.5 -129l-15 -77l-40 2l14 77q27 137 61 196.5t108 89.5q-53 21 -83 64.5t-30 101.5q0 79 50.5 129t127.5 50q70 0 125 -37l-27 -29q-41 27 -97 27q-63 0 -101 -39t-38 -102q0 -62 41 -102t109 -45 q1 1 5 1z" />
<glyph unicode="&#x6f7;" horiz-adv-x="585" d="M504 700h44q-67 -156 -124 -331q-55 -174 -104 -369h-54q-51 198 -107 372q-52 161 -122 328h44q65 -153 113 -303q50 -155 99 -345q51 200 99 348q50 153 112 300z" />
<glyph unicode="&#x6f8;" horiz-adv-x="585" d="M548 0h-44q-62 147 -112 300q-48 148 -99 348q-49 -190 -99 -345q-48 -150 -113 -303h-44q70 166 122 327q57 178 107 373h54q49 -195 104 -369q57 -175 124 -331z" />
<glyph unicode="&#x6f9;" horiz-adv-x="585" d="M488 0h-40l-17 244h-114q-125 0 -196 61t-71 173q0 109 68 170.5t178 61.5q80 0 145 -30zM315 283h113l-25 369q-45 19 -106 19q-94 0 -150.5 -49.5t-56.5 -142.5q0 -97 60 -146.5t165 -49.5z" />
<glyph unicode="&#x1e80;" horiz-adv-x="1100" d="M1008 700h47l-243 -700h-49l-212 641l-213 -641h-50l-242 700h46l222 -643l212 643h48l212 -643zM498 913l106 -150h-38l-116 150h48z" />
<glyph unicode="&#x1e81;" horiz-adv-x="817" d="M791 500l-183 -500h-46l-153 446l-152 -446h-47l-183 500h41l167 -458l155 458h38l155 -458l167 458h41zM354 713l106 -150h-38l-116 150h48z" />
<glyph unicode="&#x1e82;" horiz-adv-x="1100" d="M1008 700h47l-243 -700h-49l-212 641l-213 -641h-50l-242 700h46l222 -643l212 643h48l212 -643zM654 913l-116 -150h-38l106 150h48z" />
<glyph unicode="&#x1e83;" horiz-adv-x="817" d="M791 500l-183 -500h-46l-153 446l-152 -446h-47l-183 500h41l167 -458l155 458h38l155 -458l167 458h41zM510 713l-116 -150h-38l106 150h48z" />
<glyph unicode="&#x1e84;" horiz-adv-x="1100" d="M1008 700h47l-243 -700h-49l-212 641l-213 -641h-50l-242 700h46l222 -643l212 643h48l212 -643zM479 848q0 -10 -7 -17.5t-17 -7.5q-25 0 -25 25q0 10 7 17t18 7q10 0 17 -7t7 -17zM674 848q0 -25 -25 -25q-10 0 -17 7t-7 18q0 10 7 17t17 7q11 0 18 -7t7 -17z" />
<glyph unicode="&#x1e85;" horiz-adv-x="817" d="M791 500l-183 -500h-46l-153 446l-152 -446h-47l-183 500h41l167 -458l155 458h38l155 -458l167 458h41zM335 648q0 -10 -7 -17.5t-17 -7.5q-25 0 -25 25q0 10 7 17t18 7q10 0 17 -7t7 -17zM530 648q0 -25 -25 -25q-10 0 -17 7t-7 18q0 10 7 17t17 7q11 0 18 -7t7 -17z " />
<glyph unicode="&#x1e9e;" horiz-adv-x="797" d="M725 187q0 -91 -61.5 -144t-166.5 -53q-63 0 -126 20t-109 54l18 34q91 -70 212 -70q86 0 138 43t52 114q0 56 -38.5 89t-133.5 58l-31 8v31l159 222q-100 77 -227 77q-112 0 -176 -56t-64 -154v-460h-43v461q0 118 75 183.5t209 65.5q160 0 282 -105l-170 -238l3 -1 q108 -27 153 -68t45 -111z" />
<glyph unicode="&#x1ef2;" horiz-adv-x="751" d="M654 700h51l-308 -440v-260h-43v260l-308 440h51l278 -395zM321 913l106 -150h-38l-116 150h48z" />
<glyph unicode="&#x1ef3;" horiz-adv-x="551" d="M525 500l-240 -553q-35 -82 -77 -117t-101 -35q-41 0 -80 16l12 30q32 -13 65 -13q47 0 80 28.5t65 98.5l14 29l-234 516h43l209 -466l202 466h42zM224 713l106 -150h-38l-116 150h48z" />
<glyph unicode="&#x2000;" horiz-adv-x="518" />
<glyph unicode="&#x2001;" horiz-adv-x="1037" />
<glyph unicode="&#x2002;" horiz-adv-x="518" />
<glyph unicode="&#x2003;" horiz-adv-x="1037" />
<glyph unicode="&#x2004;" horiz-adv-x="345" />
<glyph unicode="&#x2005;" horiz-adv-x="259" />
<glyph unicode="&#x2006;" horiz-adv-x="172" />
<glyph unicode="&#x2007;" horiz-adv-x="172" />
<glyph unicode="&#x2008;" horiz-adv-x="129" />
<glyph unicode="&#x2009;" horiz-adv-x="100" />
<glyph unicode="&#x200a;" horiz-adv-x="57" />
<glyph unicode="&#x2010;" horiz-adv-x="449" d="M395 277v-35h-341v35h341z" />
<glyph unicode="&#x2011;" horiz-adv-x="449" d="M395 277v-35h-341v35h341z" />
<glyph unicode="&#x2012;" horiz-adv-x="449" d="M395 277v-35h-341v35h341z" />
<glyph unicode="&#x2013;" horiz-adv-x="556" d="M504 277v-35h-450v35h450z" />
<glyph unicode="&#x2014;" horiz-adv-x="725" d="M54 242v35h618v-35h-618z" />
<glyph unicode="&#x2018;" horiz-adv-x="163" d="M42 586q0 9 6 21l53 110l16 -7l-34 -97q16 -7 16 -26q0 -12 -8 -20t-20 -8t-20.5 8t-8.5 19z" />
<glyph unicode="&#x2019;" horiz-adv-x="163" d="M117 694q0 -8 -6 -20l-52 -111l-16 8l34 97q-16 6 -16 25q0 12 8 20t20 8t20 -8t8 -19z" />
<glyph unicode="&#x201a;" horiz-adv-x="163" d="M117 18q0 -8 -6 -20l-52 -111l-16 8l34 97q-16 6 -16 25q0 12 8 20t20 8t20 -8t8 -19z" />
<glyph unicode="&#x201c;" horiz-adv-x="327" d="M42 586q0 9 6 21l53 110l16 -7l-34 -97q16 -7 16 -26q0 -12 -8 -20t-20 -8t-20.5 8t-8.5 19zM205 586q0 9 6 21l53 110l16 -7l-34 -97q16 -7 16 -26q0 -12 -8 -20t-20 -8t-20.5 8t-8.5 19z" />
<glyph unicode="&#x201d;" horiz-adv-x="327" d="M117 694q0 -8 -6 -20l-52 -111l-16 8l34 97q-16 6 -16 25q0 12 8 20t20 8t20 -8t8 -19zM280 694q0 -8 -6 -20l-52 -111l-16 8l34 97q-16 6 -16 25q0 12 8 20t20 8t20 -8t8 -19z" />
<glyph unicode="&#x201e;" horiz-adv-x="327" d="M117 18q0 -8 -6 -20l-52 -111l-16 8l34 97q-16 6 -16 25q0 12 8 20t20 8t20 -8t8 -19zM280 18q0 -8 -6 -20l-52 -111l-16 8l34 97q-16 6 -16 25q0 12 8 20t20 8t20 -8t8 -19z" />
<glyph unicode="&#x2020;" horiz-adv-x="584" d="M310 710v-240h210v-33h-210v-590h-36v590h-210v33h210v240h36z" />
<glyph unicode="&#x2021;" horiz-adv-x="584" d="M310 710v-240h210v-33h-210v-317h210v-33h-210v-240h-36v240h-210v33h210v317h-210v33h210v240h36z" />
<glyph unicode="&#x2022;" horiz-adv-x="364" d="M317 312q0 -55 -39.5 -95t-95.5 -40q-55 0 -95.5 40.5t-40.5 94.5q0 56 40 96t96 40t95.5 -40t39.5 -96z" />
<glyph unicode="&#x2026;" horiz-adv-x="618" d="M138 17q0 -12 -8 -20t-20 -8t-20 8t-8 20t8 20t20 8t20 -8t8 -20zM344 17q0 -12 -8 -20t-20 -8t-20 8t-8 20t8 20t20 8t20 -8t8 -20zM550 17q0 -12 -8 -20t-20 -8t-20 8t-8 20t8 20t20 8t20 -8t8 -20z" />
<glyph unicode="&#x202f;" horiz-adv-x="207" />
<glyph unicode="&#x2030;" horiz-adv-x="1202" d="M694 717l-537 -734h-40l537 734h40zM352 528q0 -82 -41 -130.5t-112 -48.5t-112 48.5t-41 130.5t41 130.5t112 48.5t112 -48.5t41 -130.5zM79 528q0 -68 32.5 -108.5t87.5 -40.5t87.5 40.5t32.5 108.5t-32.5 108.5t-87.5 40.5t-87.5 -40.5t-32.5 -108.5zM771 172 q0 -82 -41 -130t-113 -48q-70 0 -111.5 48t-41.5 130t41.5 130.5t111.5 48.5q72 0 113 -48.5t41 -130.5zM1158 172q0 -82 -41.5 -130t-112.5 -48t-112 48t-41 130t41 130.5t112 48.5t112.5 -48.5t41.5 -130.5zM497 172q0 -68 32.5 -108.5t87.5 -40.5q56 0 88.5 40.5 t32.5 108.5q0 69 -32.5 109.5t-88.5 40.5q-55 0 -87.5 -41t-32.5 -109zM884 172q0 -68 32.5 -108.5t87.5 -40.5t88 40.5t33 108.5t-33 109t-88 41t-87.5 -40.5t-32.5 -109.5z" />
<glyph unicode="&#x2039;" horiz-adv-x="272" d="M197 451l31 -18l-138 -168l138 -168l-31 -18l-153 186z" />
<glyph unicode="&#x203a;" horiz-adv-x="272" d="M75 451l153 -186l-152 -186l-31 18l137 168l-137 168z" />
<glyph unicode="&#x2044;" horiz-adv-x="118" d="M300 688l-444 -705h-38l444 705h38z" />
<glyph unicode="&#x205f;" horiz-adv-x="259" />
<glyph unicode="&#x2070;" horiz-adv-x="439" d="M395 546q0 -96 -48 -153t-128 -57t-127.5 57t-47.5 153t47.5 153t127.5 57t128 -57t48 -153zM78 546q0 -82 38 -130.5t103 -48.5t103 48.5t38 130.5t-38 130.5t-103 48.5t-103 -48.5t-38 -130.5z" />
<glyph unicode="&#x2074;" horiz-adv-x="376" d="M269 492h80v-30h-80v-119h-34v119h-220l-2 30l220 259h36v-259zM51 492h184v217z" />
<glyph unicode="&#x2075;" horiz-adv-x="339" d="M305 471q0 -59 -45 -96q-44 -38 -111 -38q-77 0 -132 52l19 24q50 -45 111 -45q55 0 89.5 29t34.5 75q0 44 -31.5 71.5t-80.5 27.5q-58 0 -99 -38l-21 15l4 203h237v-30h-206l-4 -150q40 28 94 28q61 0 101 -36t40 -92z" />
<glyph unicode="&#x2076;" horiz-adv-x="375" d="M340 474q0 -61 -40 -99t-102 -38q-73 0 -114 54.5t-41 150.5q0 101 44 158t121 57q67 0 119 -43l-16 -25q-49 37 -103 37q-62 0 -97 -48t-35 -135v-3q17 30 50.5 47.5t75.5 17.5q62 0 100 -36.5t38 -94.5zM307 473q0 47 -31 76t-82 29q-84 0 -116 -78q7 -64 38 -99 t82 -35q48 0 78.5 29.5t30.5 77.5z" />
<glyph unicode="&#x2077;" horiz-adv-x="332" d="M18 751h296v-29l-220 -379h-38l220 377h-258v31z" />
<glyph unicode="&#x2078;" horiz-adv-x="388" d="M346 455q0 -52 -43 -85.5t-109 -33.5t-109 33.5t-43 85.5q0 38 25 66t69 39q-37 11 -58.5 35.5t-21.5 55.5q0 45 39.5 75t98.5 30q58 0 99 -30q40 -30 40 -75q0 -31 -21.5 -55.5t-58.5 -35.5q43 -10 68 -38.5t25 -66.5zM195 573q48 0 76.5 20.5t28.5 54.5q0 35 -29.5 57 t-75.5 22q-47 0 -76.5 -22t-29.5 -57q0 -34 28.5 -54.5t77.5 -20.5zM313 457q0 40 -32.5 64t-85.5 24q-54 0 -87 -24.5t-33 -64.5t33.5 -65.5t85.5 -25.5t85.5 25.5t33.5 66.5z" />
<glyph unicode="&#x2079;" horiz-adv-x="375" d="M332 552q0 -101 -44 -158t-121 -57q-67 0 -119 43l16 24q51 -36 103 -36q62 0 97 48t35 135v3q-17 -30 -50.5 -47.5t-75.5 -17.5q-62 0 -100 36.5t-38 94.5q0 61 40 99t102 38q73 0 114 -54.5t41 -150.5zM297 594q-7 64 -38 99t-82 35q-48 0 -78.5 -29.5t-30.5 -77.5 q0 -47 31 -76t82 -29q84 0 116 78z" />
<glyph unicode="&#x2080;" horiz-adv-x="439" d="M395 204q0 -96 -48 -153t-128 -57t-127.5 57t-47.5 153t47.5 153t127.5 57t128 -57t48 -153zM78 204q0 -82 38 -130.5t103 -48.5t103 48.5t38 130.5t-38 130.5t-103 48.5t-103 -48.5t-38 -130.5z" />
<glyph unicode="&#x2081;" horiz-adv-x="201" d="M133 412v-412h-35v381l-84 -19l-4 28l96 22h27z" />
<glyph unicode="&#x2082;" horiz-adv-x="340" d="M68 30h236v-30h-281v28l171 167q39 38 52.5 59t13.5 43q0 39 -27 62.5t-72 23.5q-70 0 -121 -69l-23 18q58 82 146 82q58 0 95 -32t37 -82q0 -28 -17 -56q-15 -23 -64 -72z" />
<glyph unicode="&#x2083;" horiz-adv-x="353" d="M308 120q0 -56 -43 -91.5t-110 -35.5q-75 0 -136 45l17 25q58 -39 117 -39q55 0 88 26.5t33 69.5q0 40 -28.5 63t-77.5 23q-34 0 -69 -13l-7 23l153 162h-203v30h247v-25l-149 -156q21 6 44 6q56 0 90 -31.5t34 -81.5z" />
<glyph unicode="&#x2084;" horiz-adv-x="376" d="M269 149h80v-30h-80v-119h-34v119h-220l-2 30l220 259h36v-259zM51 149h184v217z" />
<glyph unicode="&#x2085;" horiz-adv-x="339" d="M305 128q0 -58 -45 -96q-44 -38 -111 -38q-77 0 -132 52l19 24q50 -45 111 -45q55 0 89.5 29t34.5 75q0 44 -31.5 71.5t-80.5 27.5q-58 0 -99 -38l-21 15l4 203h237v-30h-206l-4 -150q40 28 94 28q61 0 101 -36t40 -92z" />
<glyph unicode="&#x2086;" horiz-adv-x="375" d="M340 131q0 -61 -40 -99t-102 -38q-73 0 -114 54.5t-41 150.5q0 101 44 158t121 57q67 0 119 -43l-16 -25q-49 37 -103 37q-62 0 -97 -48t-35 -135v-3q17 30 50.5 47.5t75.5 17.5q62 0 100 -36.5t38 -94.5zM307 130q0 47 -31 76t-82 29q-84 0 -116 -78q7 -64 38 -99 t82 -35q48 0 78.5 29.5t30.5 77.5z" />
<glyph unicode="&#x2087;" horiz-adv-x="332" d="M18 408h296v-29l-220 -379h-38l220 377h-258v31z" />
<glyph unicode="&#x2088;" horiz-adv-x="388" d="M346 113q0 -52 -43 -85.5t-109 -33.5t-109 33.5t-43 85.5q0 38 25 66t69 39q-37 11 -58.5 35.5t-21.5 55.5q0 45 39.5 75t98.5 30q58 0 99 -30q40 -30 40 -75q0 -31 -21.5 -55.5t-58.5 -35.5q43 -10 68 -38.5t25 -66.5zM195 231q48 0 76.5 20.5t28.5 54.5q0 35 -29.5 57 t-75.5 22q-47 0 -76.5 -22t-29.5 -57q0 -34 28.5 -54.5t77.5 -20.5zM313 115q0 40 -32.5 64t-85.5 24q-54 0 -87 -24.5t-33 -64.5t33.5 -65.5t85.5 -25.5t85.5 25.5t33.5 66.5z" />
<glyph unicode="&#x2089;" horiz-adv-x="375" d="M332 209q0 -101 -44 -158t-121 -57q-67 0 -119 43l16 24q51 -36 103 -36q62 0 97 48t35 135v3q-17 -30 -50.5 -47.5t-75.5 -17.5q-62 0 -100 36.5t-38 94.5q0 61 40 99t102 38q73 0 114 -54.5t41 -150.5zM297 251q-7 64 -38 99t-82 35q-48 0 -78.5 -29.5t-30.5 -77.5 q0 -47 31 -76t82 -29q84 0 116 78z" />
<glyph unicode="&#x20ac;" horiz-adv-x="600" d="M554 134l32 -21q-42 -58 -101.5 -90.5t-125.5 -32.5q-100 0 -179.5 72t-106.5 184h-66v32h60q-6 34 -6 72q0 36 4 59h-58v33h64q24 117 104.5 192.5t183.5 75.5q66 0 125.5 -32.5t101.5 -90.5l-33 -21q-78 106 -193 106q-87 0 -155 -64.5t-91 -165.5h302v-33h-308 q-4 -23 -4 -59q0 -38 6 -72h306v-32h-299q25 -96 92 -158q66 -60 151 -60q116 0 194 106z" />
<glyph unicode="&#x20b4;" horiz-adv-x="600" d="M485 439h103v-31h-576v31h412q49 39 49 95q0 65 -47 102t-123 37q-115 0 -205 -69l-16 34q98 72 224 72q93 0 152 -46q61 -45 61 -128q0 -54 -34 -97zM12 249v31h576v-31h-458q-23 -31 -23 -78q0 -69 52 -106t133 -37q62 0 124.5 21t107.5 57l17 -31q-48 -39 -116.5 -62 t-136.5 -23q-97 0 -160.5 48.5t-63.5 133.5q0 40 14 77h-66z" />
<glyph unicode="&#x20b8;" horiz-adv-x="600" d="M573 700v-38h-546v38h546zM573 519v-38h-251v-481h-44v481h-251v38h546z" />
<glyph unicode="&#x20bd;" horiz-adv-x="600" d="M299 245h-177v-96h245v-33h-245v-116h-43v116h-106v33h106v96h-106v35h106v420h218q146 0 213.5 -56t67.5 -174q0 -116 -68.5 -170.5t-210.5 -54.5zM122 662v-382h178q122 0 179.5 45.5t57.5 143.5q0 100 -57 146.5t-181 46.5h-177z" />
<glyph unicode="&#x2116;" horiz-adv-x="1571" d="M907 450q-2 106 78.5 184t189.5 76q109 2 189.5 -76t78.5 -184q2 -106 -78.5 -184t-189.5 -76q-109 -2 -189.5 76t-78.5 184zM682 56v644h42v-700h-50l-503 644v-644h-43v700h51zM946 450q-2 -92 67 -159.5t162 -65.5q92 -2 161 66t67 159q2 91 -67 159t-161 66 q-93 2 -162 -66t-67 -159zM961 0v32h428v-32h-428z" />
<glyph unicode="&#x2122;" horiz-adv-x="889" d="M328 700v-27h-135v-350h-30v350h-134v27h299zM842 700v-377h-30v332l-177 -297h-17l-177 297v-332h-31v377h39l177 -298l178 298h38z" />
<glyph unicode="&#x215b;" horiz-adv-x="728" d="M133 684v-412h-35v381l-84 -19l-4 28l96 22h27zM521 688l-444 -705h-38l444 705h38zM685 113q0 -52 -43 -85.5t-109 -33.5t-109 33.5t-43 85.5q0 38 25 66t69 39q-37 11 -58.5 35.5t-21.5 55.5q0 45 39.5 75t98.5 30t99 -30t40 -75q0 -31 -21.5 -55.5t-58.5 -35.5 q43 -10 68 -38.5t25 -66.5zM534 231q48 0 76.5 20.5t28.5 54.5q0 35 -29.5 57t-75.5 22q-47 0 -76.5 -22t-29.5 -57q0 -34 29 -54.5t77 -20.5zM652 115q0 40 -32.5 64t-85.5 24q-54 0 -87 -24.5t-33 -64.5t33.5 -65.5t85.5 -25.5t85.5 25.5t33.5 66.5z" />
<glyph unicode="&#x215c;" horiz-adv-x="860" d="M308 392q0 -56 -43 -91.5t-110 -35.5q-75 0 -136 45l17 25q58 -39 117 -39q55 0 88 26.5t33 69.5q0 40 -28.5 63t-77.5 23q-34 0 -69 -13l-7 23l153 162h-203v30h247v-25l-149 -156q21 6 44 6q56 0 90 -31.5t34 -81.5zM653 688l-444 -705h-38l444 705h38zM817 113 q0 -52 -43 -85.5t-109 -33.5t-109 33.5t-43 85.5q0 38 25 66t69 39q-37 11 -58.5 35.5t-21.5 55.5q0 45 39.5 75t98.5 30t99 -30t40 -75q0 -31 -21.5 -55.5t-58.5 -35.5q43 -10 68 -38.5t25 -66.5zM666 231q48 0 76.5 20.5t28.5 54.5q0 35 -29.5 57t-75.5 22 q-47 0 -76.5 -22t-29.5 -57q0 -34 29 -54.5t77 -20.5zM784 115q0 40 -32.5 64t-85.5 24q-54 0 -87 -24.5t-33 -64.5t33.5 -65.5t85.5 -25.5t85.5 25.5t33.5 66.5z" />
<glyph unicode="&#x215d;" horiz-adv-x="846" d="M305 400q0 -58 -45 -96q-44 -38 -111 -38q-77 0 -132 52l19 24q50 -45 111 -45q55 0 89.5 29t34.5 75q0 44 -31.5 71.5t-80.5 27.5q-58 0 -99 -38l-21 15l4 203h237v-30h-206l-4 -150q40 28 94 28q61 0 101 -36t40 -92zM639 688l-444 -705h-38l444 705h38zM803 113 q0 -52 -43 -85.5t-109 -33.5t-109 33.5t-43 85.5q0 38 25 66t69 39q-37 11 -58.5 35.5t-21.5 55.5q0 45 39.5 75t98.5 30t99 -30t40 -75q0 -31 -21.5 -55.5t-58.5 -35.5q43 -10 68 -38.5t25 -66.5zM652 231q48 0 76.5 20.5t28.5 54.5q0 35 -29.5 57t-75.5 22 q-47 0 -76.5 -22t-29.5 -57q0 -34 29 -54.5t77 -20.5zM770 115q0 40 -32.5 64t-85.5 24q-54 0 -87 -24.5t-33 -64.5t33.5 -65.5t85.5 -25.5t85.5 25.5t33.5 66.5z" />
<glyph unicode="&#x215e;" horiz-adv-x="777" d="M18 680h296v-29l-220 -379h-38l220 377h-258v31zM570 688l-444 -705h-38l444 705h38zM735 113q0 -52 -43 -85.5t-109 -33.5t-109 33.5t-43 85.5q0 38 25 66t69 39q-37 11 -58.5 35.5t-21.5 55.5q0 45 39.5 75t98.5 30t99 -30t40 -75q0 -31 -21.5 -55.5t-58.5 -35.5 q43 -10 68 -38.5t25 -66.5zM584 231q48 0 76.5 20.5t28.5 54.5q0 35 -29.5 57t-75.5 22q-47 0 -76.5 -22t-29.5 -57q0 -34 29 -54.5t77 -20.5zM702 115q0 40 -32.5 64t-85.5 24q-54 0 -87 -24.5t-33 -64.5t33.5 -65.5t85.5 -25.5t85.5 25.5t33.5 66.5z" />
<glyph unicode="&#x2212;" horiz-adv-x="600" d="M508 280v-33h-416v33h416z" />
<glyph unicode="&#x2248;" horiz-adv-x="600" d="M302 384q56 -49 95 -49q67 0 84 99l27 -4q-7 -61 -36.5 -95.5t-73.5 -34.5q-49 0 -107 52q-54 46 -90 46q-65 0 -82 -98l-27 4q7 61 36 95.5t73 34.5q41 0 101 -50zM302 176q56 -49 95 -49q67 0 84 99l27 -4q-7 -61 -36.5 -95.5t-73.5 -34.5q-49 0 -107 52q-54 46 -90 46 q-65 0 -82 -98l-27 4q7 61 36 95.5t73 34.5q41 0 101 -50z" />
<glyph unicode="&#x2260;" horiz-adv-x="600" d="M508 338h-153l-71 -148h224v-33h-240l-83 -174h-38l83 174h-138v33h154l71 148h-225v33h241l83 174h38l-83 -174h137v-33z" />
<glyph unicode="&#x2264;" horiz-adv-x="600" d="M508 535v-38l-375 -187l375 -187v-38l-416 205v40zM508 33v-33h-416v33h416z" />
<glyph unicode="&#x2265;" horiz-adv-x="600" d="M92 535l416 -205v-40l-416 -205v38l375 187l-375 187v38zM508 33v-33h-416v33h416z" />
<glyph unicode="&#x25cc;" horiz-adv-x="625" d="M311 571q14 0 23.5 -9t9.5 -24t-9 -23.5t-24 -8.5q-14 0 -23 8.5t-9 23.5t9 24t23 9zM212 554q14 0 23.5 -9t9.5 -24t-9 -23.5t-24 -8.5q-14 0 -23 8.5t-9 23.5t9 24t23 9zM411 554q14 0 23.5 -9t9.5 -24t-9 -23.5t-24 -8.5q-14 0 -23 8.5t-9 23.5t9 24t23 9zM126 498 q14 0 23.5 -9t9.5 -24t-9 -23.5t-24 -8.5q-14 0 -23 8.5t-9 23.5t9 24t23 9zM496 498q14 0 23.5 -9t9.5 -24t-9 -23.5t-24 -8.5q-14 0 -23 8.5t-9 23.5t9 24t23 9zM75 410q14 0 23.5 -9t9.5 -24t-9 -23.5t-24 -8.5q-14 0 -23 8.5t-9 23.5t9 24t23 9zM550 410q14 0 23.5 -9 t9.5 -24t-9 -23.5t-24 -8.5q-14 0 -23 8.5t-9 23.5t9 24t23 9zM58 315q14 0 23.5 -9t9.5 -24t-9 -23.5t-24 -8.5q-14 0 -23 8.5t-9 23.5t9 24t23 9zM566 315q14 0 23.5 -9t9.5 -24t-9 -23.5t-24 -8.5q-14 0 -23 8.5t-9 23.5t9 24t23 9zM75 223q14 0 23.5 -9t9.5 -24 t-9 -23.5t-24 -8.5q-14 0 -23 8.5t-9 23.5t9 24t23 9zM550 223q14 0 23.5 -9t9.5 -24t-9 -23.5t-24 -8.5q-14 0 -23 8.5t-9 23.5t9 24t23 9zM126 133q14 0 23.5 -9t9.5 -24t-9 -23.5t-24 -8.5q-14 0 -23 8.5t-9 23.5t9 24t23 9zM496 133q14 0 23.5 -9t9.5 -24t-9 -23.5 t-24 -8.5q-14 0 -23 8.5t-9 23.5t9 24t23 9zM212 78q14 0 23.5 -9t9.5 -24t-9 -23.5t-24 -8.5q-14 0 -23 8.5t-9 23.5t9 24t23 9zM411 78q14 0 23.5 -9t9.5 -24t-9 -23.5t-24 -8.5q-14 0 -23 8.5t-9 23.5t9 24t23 9zM311 61q14 0 23.5 -9t9.5 -24t-9 -23.5t-24 -8.5 q-14 0 -23 8.5t-9 23.5t9 24t23 9z" />
<glyph unicode="&#x25fc;" horiz-adv-x="500" d="M0 500h500v-500h-500v500z" />
<glyph unicode="&#xfb00;" horiz-adv-x="792" d="M359 698l-8 -31q-26 10 -66 10q-57 0 -91 -35t-34 -99v-43h356v44q0 79 44 122.5t117 43.5q43 0 78 -12l-8 -31q-26 10 -66 10q-57 0 -91 -35t-34 -99v-43h180v-34h-180v-466h-40v466h-356v-466h-40v466h-91v34h91v44q0 79 44 122.5t117 43.5q43 0 78 -12z" />
<glyph unicode="&#xfb03;" horiz-adv-x="1056" d="M359 698l-8 -31q-26 10 -66 10q-57 0 -91 -35t-34 -99v-43h356v44q0 79 44 122.5t117 43.5q43 0 78 -12l-8 -31q-26 10 -66 10q-57 0 -91 -35t-34 -99v-43h390v-500h-40v466h-350v-466h-40v466h-356v-466h-40v466h-91v34h91v44q0 79 44 122.5t117 43.5q43 0 78 -12z M953 641q0 -11 -8 -19t-19 -8q-12 0 -20 8t-8 19t8 19t20 8q11 0 19 -8t8 -19z" />
<glyph unicode="&#xfb04;" horiz-adv-x="1039" d="M359 698l-8 -31q-26 10 -66 10q-57 0 -91 -35t-34 -99v-43h356v44q0 79 44 122.5t117 43.5q42 0 71 -10h191v-700h-41v667h-151q-26 10 -66 10q-57 0 -91 -35t-34 -99v-43h180v-34h-180v-466h-40v466h-356v-466h-40v466h-91v34h91v44q0 79 44 122.5t117 43.5q43 0 78 -12 z" />
<glyph unicode="&#xfb06;" horiz-adv-x="964" d="M909 44l9 -30q-45 -24 -94 -24q-71 0 -117.5 47.5t-46.5 125.5v303h-100v34h100v63q0 139 -188 139q-78 0 -124.5 -34t-46.5 -93q0 -36 27 -72q68 -13 117 -45l-16 -28q-78 48 -177 48q-66 0 -103 -26.5t-37 -73.5q0 -35 28 -55.5t106 -41.5l67 -18q88 -22 119.5 -51 t31.5 -85q0 -64 -53 -100.5t-143 -36.5q-127 0 -218 61l16 28q84 -57 203 -57q74 0 115 26.5t41 75.5q0 44 -23.5 64.5t-98.5 41.5l-68 19q-93 26 -127.5 52.5t-34.5 73.5q0 63 48.5 99t131.5 36q6 0 40 -2q-27 38 -27 76q0 70 56 110t150 40q228 0 228 -168v-66h172v-34 h-172v-298q0 -65 37.5 -104t95.5 -39q39 0 76 19z" />
<glyph unicode="&#xfbb2;" d="M164 666q0 16 10.5 26.5t26.5 10.5q15 0 25 -10.5t10 -26.5q0 -15 -10 -25.5t-25 -10.5q-16 0 -26.5 10.5t-10.5 25.5z" />
<glyph unicode="&#xfbb3;" d="M165 -135q0 16 10.5 26t26.5 10q15 0 25 -10t10 -26q0 -15 -10 -25.5t-25 -10.5q-16 0 -26.5 10.5t-10.5 25.5z" />
<glyph unicode="&#xfbb4;" d="M73 666q0 16 10 26t26 10q15 0 25 -10t10 -26q0 -15 -10 -25.5t-25 -10.5q-16 0 -26 10.5t-10 25.5zM256 666q0 16 10 26t26 10q15 0 25 -10t10 -26q0 -15 -10 -25.5t-25 -10.5q-16 0 -26 10.5t-10 25.5z" />
<glyph unicode="&#xfbb5;" d="M73 -137q0 16 10 26t26 10q15 0 25 -10t10 -26q0 -15 -10 -25.5t-25 -10.5q-16 0 -26 10.5t-10 25.5zM256 -137q0 16 10 26t26 10q15 0 25 -10t10 -26q0 -15 -10 -25.5t-25 -10.5q-16 0 -26 10.5t-10 25.5z" />
<glyph unicode="&#xfbb6;" d="M165 778q0 15 10 25t25 10q14 0 24 -10t10 -25q0 -14 -10 -24.5t-24 -10.5q-15 0 -25 10.5t-10 24.5zM76 656q0 15 10 25t25 10q14 0 24 -10t10 -25q0 -14 -10 -24.5t-24 -10.5q-15 0 -25 10.5t-10 24.5zM255 656q0 16 10 25.5t25 9.5t24.5 -9.5t9.5 -25.5 q0 -15 -9.5 -25t-24.5 -10t-25 10.5t-10 24.5z" />
<glyph unicode="&#xfbb7;" d="M170 -126q0 13 8.5 21.5t21.5 8.5q12 0 20.5 -8.5t8.5 -21.5t-8.5 -21.5t-20.5 -8.5q-13 0 -21.5 8.5t-8.5 21.5zM80 -248q0 13 9 21.5t22 8.5q12 0 20.5 -8.5t8.5 -21.5t-8.5 -22t-20.5 -9q-13 0 -22 9t-9 22zM260 -248q0 13 8.5 21.5t21.5 8.5t21.5 -8.5t8.5 -21.5 t-8.5 -22t-21.5 -9t-21.5 9t-8.5 22z" />
<glyph unicode="&#xfbb8;" d="M76 778q0 15 10 25t25 10q14 0 24 -10t10 -25q0 -14 -10 -24.5t-24 -10.5q-15 0 -25 10.5t-10 24.5zM255 777q0 15 10 25t25 10t24.5 -10t9.5 -25t-9.5 -25t-24.5 -10t-25 10t-10 25zM166 656q0 15 10 25t25 10q14 0 24 -10t10 -25q0 -14 -10 -24.5t-24 -10.5 q-15 0 -25 10.5t-10 24.5z" />
<glyph unicode="&#xfbb9;" d="M76 -131q0 15 10 25t25 10q14 0 24 -10t10 -25q0 -14 -10 -24.5t-24 -10.5q-15 0 -25 10.5t-10 24.5zM255 -132q0 15 10 25t25 10t24.5 -10t9.5 -25t-9.5 -25t-24.5 -10t-25 10t-10 25zM166 -253q0 15 10 25t25 10q14 0 24 -10t10 -25q0 -14 -10 -24.5t-24 -10.5 q-15 0 -25 10.5t-10 24.5z" />
<glyph unicode="&#xfbbd;" d="M166 785q0 15 10 25.5t26 10.5q15 0 25 -10.5t10 -25.5t-10 -25.5t-25 -10.5q-16 0 -26 10.5t-10 25.5zM166 661q0 16 10 26t26 10q15 0 25 -10t10 -26q0 -15 -10 -25.5t-25 -10.5q-16 0 -26 10.5t-10 25.5z" />
<glyph unicode="&#xfbbe;" d="M166 -138q0 15 10 25.5t26 10.5q15 0 25 -10.5t10 -25.5t-10 -25.5t-25 -10.5q-16 0 -26 10.5t-10 25.5zM166 -262q0 16 10 26t26 10q15 0 25 -10t10 -26q0 -15 -10 -25.5t-25 -10.5q-16 0 -26 10.5t-10 25.5z" />
<glyph unicode="&#xfd3e;" horiz-adv-x="452" d="M248 124q25 -202 104 -353l-22 -10q-114 197 -136 361q-41 8 -67.5 40t-26.5 74t26 74t67 40q21 162 137 366l22 -10q-80 -154 -105 -357q37 -10 61.5 -42t24.5 -71t-24 -70.5t-61 -41.5zM213 353h6q8 0 11 -1q11 101 41 198h-1q-47 -110 -57 -197zM217 138q40 0 68.5 29 t28.5 69t-28.5 69t-68.5 29t-69 -28.5t-29 -69.5q0 -40 29 -69t69 -29zM184 206q-22 22 -57 30q36 10 58 32q23 22 32 58q9 -36 31 -58q27 -23 58 -32q-34 -8 -57 -30q-24 -27 -32 -59q-9 35 -33 59zM193 291l-32 -31l-4 36zM276 296l-3 -37l-33 32zM195 237q0 -9 6 -15.5 t16 -6.5q9 0 15.5 6.5t6.5 15.5q0 10 -6.5 16t-15.5 6q-22 0 -22 -22zM157 177l5 37l32 -33zM240 181l32 31l6 -36zM230 121q-3 -1 -12 -1h-5q15 -97 56 -190h1q-30 97 -40 191z" />
<glyph unicode="&#xfd3f;" horiz-adv-x="452" d="M259 122q-24 -167 -137 -361l-21 10q78 153 103 353q-37 11 -60.5 42t-23.5 70t24 71t61 42q-25 205 -104 357l21 10q114 -194 137 -366q41 -8 67 -40t26 -74t-26.5 -74t-66.5 -40zM223 353h10h7q-13 92 -58 197h-1q30 -91 42 -197zM334 236q0 41 -28.5 69.5t-69.5 28.5 q-40 0 -69 -28.5t-29 -69.5q0 -40 29 -69t69 -29q41 0 69.5 29t28.5 69zM325 236q-35 -8 -57 -30q-24 -27 -32 -59q-9 34 -33 59q-23 22 -57 30q35 9 58 32t32 58q9 -36 31 -58t58 -32zM212 291l-32 -32l-4 37zM296 296l-5 -36l-31 31zM258 237q0 10 -6.5 16t-15.5 6 q-22 0 -22 -22q0 -9 6 -15.5t16 -6.5q9 0 15.5 6.5t6.5 15.5zM258 181l33 33l4 -37zM175 176l6 36l31 -31zM239 120h-4q-10 0 -13 1q-10 -94 -40 -191h1q41 93 56 190z" />
<glyph horiz-adv-x="664" d="M523 500h40v-500h-40v72q-34 -39 -84 -60.5t-105 -21.5q-106 -2 -184.5 76t-76.5 184q-2 106 76.5 184t184.5 76q55 0 105 -21.5t84 -60.5v72zM523 114v272q-73 89 -184 89q-94 0 -160 -65.5t-66 -159.5t66 -159.5t160 -65.5q111 0 184 89z" />
<glyph horiz-adv-x="664" d="M523 500h40v-500h-40v72q-34 -39 -84 -60.5t-105 -21.5q-106 -2 -184.5 76t-76.5 184q-2 106 76.5 184t184.5 76q55 0 105 -21.5t84 -60.5v72zM523 114v272q-73 89 -184 89q-94 0 -160 -65.5t-66 -159.5t66 -159.5t160 -65.5q111 0 184 89zM441 713l-116 -150h-38 l106 150h48z" />
<glyph horiz-adv-x="664" d="M523 500h40v-500h-40v72q-34 -39 -84 -60.5t-105 -21.5q-106 -2 -184.5 76t-76.5 184q-2 106 76.5 184t184.5 76q55 0 105 -21.5t84 -60.5v72zM523 114v272q-73 89 -184 89q-94 0 -160 -65.5t-66 -159.5t66 -159.5t160 -65.5q111 0 184 89zM340 574q-67 0 -109.5 36 t-46.5 98h31q4 -50 37 -77.5t88 -27.5q54 0 87 27.5t37 77.5h31q-4 -62 -46 -98t-109 -36z" />
<glyph horiz-adv-x="664" d="M523 500h40v-500h-40v72q-34 -39 -84 -60.5t-105 -21.5q-106 -2 -184.5 76t-76.5 184q-2 106 76.5 184t184.5 76q55 0 105 -21.5t84 -60.5v72zM523 114v272q-73 89 -184 89q-94 0 -160 -65.5t-66 -159.5t66 -159.5t160 -65.5q111 0 184 89zM362 713l120 -150h-36 l-107 124l-105 -124h-37l120 150h45z" />
<glyph horiz-adv-x="664" d="M523 500h40v-500h-40v72q-34 -39 -84 -60.5t-105 -21.5q-106 -2 -184.5 76t-76.5 184q-2 106 76.5 184t184.5 76q55 0 105 -21.5t84 -60.5v72zM523 114v272q-73 89 -184 89q-94 0 -160 -65.5t-66 -159.5t66 -159.5t160 -65.5q111 0 184 89zM266 648q0 -10 -7 -17.5 t-17 -7.5q-25 0 -25 25q0 10 7 17t18 7q10 0 17 -7t7 -17zM461 648q0 -25 -25 -25q-10 0 -17 7t-7 18q0 10 7 17t17 7q11 0 18 -7t7 -17z" />
<glyph horiz-adv-x="664" d="M523 500h40v-500h-40v72q-34 -39 -84 -60.5t-105 -21.5q-106 -2 -184.5 76t-76.5 184q-2 106 76.5 184t184.5 76q55 0 105 -21.5t84 -60.5v72zM523 114v272q-73 89 -184 89q-94 0 -160 -65.5t-66 -159.5t66 -159.5t160 -65.5q111 0 184 89zM285 713l106 -150h-38 l-116 150h48z" />
<glyph horiz-adv-x="664" d="M523 500h40v-500h-40v72q-34 -39 -84 -60.5t-105 -21.5q-106 -2 -184.5 76t-76.5 184q-2 106 76.5 184t184.5 76q55 0 105 -21.5t84 -60.5v72zM523 114v272q-73 89 -184 89q-94 0 -160 -65.5t-66 -159.5t66 -159.5t160 -65.5q111 0 184 89zM474 662v-28h-270v28h270z" />
<glyph horiz-adv-x="664" d="M645 -153l11 -22q-35 -29 -83 -29q-43 0 -71.5 25.5t-28.5 64.5q0 42 38 89l19 25h-7v72q-34 -39 -84 -60.5t-105 -21.5q-106 -2 -184.5 76t-76.5 184q-2 106 76.5 184t184.5 76q55 0 105 -21.5t84 -60.5v72h40v-500h-5l-25 -32q-31 -37 -31 -75q0 -30 22 -50.5t53 -20.5 q37 0 68 25zM523 114v272q-73 89 -184 89q-94 0 -160 -65.5t-66 -159.5t66 -159.5t160 -65.5q111 0 184 89z" />
<glyph horiz-adv-x="664" d="M523 500h40v-500h-40v72q-34 -39 -84 -60.5t-105 -21.5q-106 -2 -184.5 76t-76.5 184q-2 106 76.5 184t184.5 76q55 0 105 -21.5t84 -60.5v72zM523 114v272q-73 89 -184 89q-94 0 -160 -65.5t-66 -159.5t66 -159.5t160 -65.5q111 0 184 89zM452 649q0 -45 -33 -78 q-34 -32 -79 -32q-46 0 -80 32q-33 33 -33 78q0 47 33 78q34 32 80 32q47 0 79 -32q33 -31 33 -78zM254 649q0 -34 25.5 -59t60.5 -25t60 25t25 59q0 35 -25 59.5t-60 24.5t-60.5 -24.5t-25.5 -59.5z" />
<glyph horiz-adv-x="664" d="M523 500h40v-500h-40v72q-34 -39 -84 -60.5t-105 -21.5q-106 -2 -184.5 76t-76.5 184q-2 106 76.5 184t184.5 76q55 0 105 -21.5t84 -60.5v72zM523 114v272q-73 89 -184 89q-94 0 -160 -65.5t-66 -159.5t66 -159.5t160 -65.5q111 0 184 89zM257 704q35 0 91 -38 q46 -32 72 -32q24 0 41 17t22 48l25 -4q-6 -42 -29.5 -67t-56.5 -25q-35 0 -90 37q-47 33 -73 33q-24 0 -41 -17.5t-22 -47.5l-25 3q6 42 29.5 67.5t56.5 25.5z" />
<glyph horiz-adv-x="1100" d="M1032 230h-469v-1q7 -88 70 -146.5t149 -58.5q111 0 188 75l24 -23q-88 -86 -212 -86q-67 0 -125 32.5t-94 87.5v-110h-40v72q-34 -39 -84 -60.5t-105 -21.5q-106 -2 -184.5 76t-76.5 184q-2 106 76.5 184t184.5 76q55 0 105 -21.5t84 -60.5v72h40v-109q34 55 91.5 87 t123.5 32q113 0 183.5 -74t70.5 -186v-20zM563 274v-13h430q0 92 -60 153.5t-155 61.5q-85 0 -146 -58t-69 -144zM523 114v272q-73 89 -183 89q-95 0 -161 -65.5t-66 -159.5t66 -159.5t161 -65.5q110 0 183 89z" />
<glyph horiz-adv-x="1059" d="M929 99l24 -23q-88 -86 -213 -86q-65 0 -121 30t-92 82q-118 -112 -249 -112q-99 0 -156.5 44.5t-57.5 117.5t53.5 112.5t150.5 39.5h214v16q0 76 -44.5 116t-128.5 40q-103 0 -190 -66l-17 30q94 70 214 70q81 0 132 -33t67 -96q34 60 92.5 94.5t128.5 34.5 q102 0 171 -61.5t81 -157.5l-450 -130q25 -63 79.5 -100t122.5 -37q112 0 189 75zM521 251q0 -34 7 -58l418 121q-15 73 -72 117.5t-138 44.5q-90 0 -152.5 -65t-62.5 -160zM514 124q-32 56 -32 126v24h-209q-81 0 -124.5 -31.5t-43.5 -89.5q0 -60 47 -94.5t130 -34.5 q123 0 232 100z" />
<glyph horiz-adv-x="1101" d="M971 99l23 -23q-88 -86 -212 -86q-67 0 -125 32.5t-94 87.5v-110h-40v72q-34 -39 -84 -60.5t-105 -21.5q-106 -2 -184.5 76t-76.5 184q-2 106 76.5 184t184.5 76q55 0 105 -21.5t84 -60.5v72h40v-109q34 55 91.5 87t123.5 32q101 0 169.5 -61t82.5 -158l-450 -130 q25 -63 79.5 -100t122.5 -37q111 0 189 75zM563 251q0 -33 7 -58l417 120q-15 74 -71.5 118.5t-137.5 44.5q-90 0 -152.5 -65t-62.5 -160zM523 114v272q-73 89 -183 89q-95 0 -161 -65.5t-66 -159.5t66 -159.5t161 -65.5q110 0 183 89z" />
<glyph horiz-adv-x="650" d="M520 99l24 -23q-88 -86 -212 -86q-106 -2 -183.5 76t-75.5 184q-2 106 74.5 184t180.5 76q101 0 170 -61t81 -158l-450 -130q26 -63 80.5 -100t122.5 -37q111 0 188 75zM112 251q0 -34 7 -58l418 120q-15 74 -71.5 118.5t-137.5 44.5q-91 0 -153.5 -65t-62.5 -160z" />
<glyph horiz-adv-x="650" d="M520 99l24 -23q-88 -86 -212 -86q-106 -2 -183.5 76t-75.5 184q-2 106 74.5 184t180.5 76q101 0 170 -61t81 -158l-450 -130q26 -63 80.5 -100t122.5 -37q111 0 188 75zM112 251q0 -34 7 -58l418 120q-15 74 -71.5 118.5t-137.5 44.5q-91 0 -153.5 -65t-62.5 -160z M432 713l-116 -150h-38l106 150h48z" />
<glyph horiz-adv-x="650" d="M520 99l24 -23q-88 -86 -212 -86q-106 -2 -183.5 76t-75.5 184q-2 106 74.5 184t180.5 76q101 0 170 -61t81 -158l-450 -130q26 -63 80.5 -100t122.5 -37q111 0 188 75zM112 251q0 -34 7 -58l418 120q-15 74 -71.5 118.5t-137.5 44.5q-91 0 -153.5 -65t-62.5 -160z M331 574q-67 0 -109.5 36t-46.5 98h31q4 -50 37 -77.5t88 -27.5q54 0 87 27.5t37 77.5h31q-4 -62 -46 -98t-109 -36z" />
<glyph horiz-adv-x="650" d="M520 99l24 -23q-88 -86 -212 -86q-106 -2 -183.5 76t-75.5 184q-2 106 74.5 184t180.5 76q101 0 170 -61t81 -158l-450 -130q26 -63 80.5 -100t122.5 -37q111 0 188 75zM112 251q0 -34 7 -58l418 120q-15 74 -71.5 118.5t-137.5 44.5q-91 0 -153.5 -65t-62.5 -160z M473 713l-120 -150h-45l-120 150h37l105 -125l107 125h36z" />
<glyph horiz-adv-x="650" d="M520 99l24 -23q-88 -86 -212 -86q-106 -2 -183.5 76t-75.5 184q-2 106 74.5 184t180.5 76q101 0 170 -61t81 -158l-450 -130q26 -63 80.5 -100t122.5 -37q111 0 188 75zM112 251q0 -34 7 -58l418 120q-15 74 -71.5 118.5t-137.5 44.5q-91 0 -153.5 -65t-62.5 -160z M353 713l120 -150h-36l-107 124l-105 -124h-37l120 150h45z" />
<glyph horiz-adv-x="650" d="M520 99l24 -23q-88 -86 -212 -86q-106 -2 -183.5 76t-75.5 184q-2 106 74.5 184t180.5 76q101 0 170 -61t81 -158l-450 -130q26 -63 80.5 -100t122.5 -37q111 0 188 75zM112 251q0 -34 7 -58l418 120q-15 74 -71.5 118.5t-137.5 44.5q-91 0 -153.5 -65t-62.5 -160z M257 648q0 -10 -7 -17.5t-17 -7.5q-25 0 -25 25q0 10 7 17t18 7q10 0 17 -7t7 -17zM452 648q0 -25 -25 -25q-10 0 -17 7t-7 18q0 10 7 17t17 7q11 0 18 -7t7 -17z" />
<glyph horiz-adv-x="650" d="M520 99l24 -23q-88 -86 -212 -86q-106 -2 -183.5 76t-75.5 184q-2 106 74.5 184t180.5 76q101 0 170 -61t81 -158l-450 -130q26 -63 80.5 -100t122.5 -37q111 0 188 75zM112 251q0 -34 7 -58l418 120q-15 74 -71.5 118.5t-137.5 44.5q-91 0 -153.5 -65t-62.5 -160z M276 713l106 -150h-38l-116 150h48z" />
<glyph horiz-adv-x="650" d="M540 -155l11 -21q-35 -29 -83 -29q-43 0 -71.5 25.5t-28.5 64.5q0 45 35 88l26 33q-42 -16 -97 -16q-106 -2 -183.5 76t-75.5 184q-2 106 74.5 184t180.5 76q101 0 170 -61t81 -158l-450 -130q26 -63 80.5 -100t122.5 -37q111 0 188 75l24 -23q-32 -30 -69 -51l-47 -58 q-31 -38 -31 -76q0 -30 22 -50t53 -20q36 0 68 24zM112 251q0 -34 7 -58l418 120q-15 74 -71.5 118.5t-137.5 44.5q-91 0 -153.5 -65t-62.5 -160z" />
<glyph horiz-adv-x="666" d="M616 -92q0 -68 -76.5 -108t-206.5 -40q-129 0 -206 40t-77 107q0 82 109 123q-61 23 -61 70q0 46 61 84q-84 52 -84 143q0 79 69 131t175 52q49 0 85 -10h193v-27l-123 -1q42 -25 65.5 -63t23.5 -83q0 -79 -69 -131t-175 -52q-74 0 -132 26q-24 -13 -38.5 -32t-14.5 -36 q0 -39 65 -59q64 14 136 14q129 0 205 -40t76 -108zM319 175q88 0 145 43t57 109q0 65 -57 108t-145 43t-145 -43t-57 -108q0 -66 57 -109t145 -43zM575 -92q0 54 -64.5 86t-175.5 32t-177 -32.5t-66 -86.5t65 -85t176 -31q112 0 177 31.5t65 85.5z" />
<glyph horiz-adv-x="666" d="M616 -92q0 -68 -76.5 -108t-206.5 -40q-129 0 -206 40t-77 107q0 82 109 123q-61 23 -61 70q0 46 61 84q-84 52 -84 143q0 79 69 131t175 52q49 0 85 -10h193v-27l-123 -1q42 -25 65.5 -63t23.5 -83q0 -79 -69 -131t-175 -52q-74 0 -132 26q-24 -13 -38.5 -32t-14.5 -36 q0 -39 65 -59q64 14 136 14q129 0 205 -40t76 -108zM319 175q88 0 145 43t57 109q0 65 -57 108t-145 43t-145 -43t-57 -108q0 -66 57 -109t145 -43zM575 -92q0 54 -64.5 86t-175.5 32t-177 -32.5t-66 -86.5t65 -85t176 -31q112 0 177 31.5t65 85.5zM326 574q-67 0 -109.5 36 t-46.5 98h31q4 -50 37 -77.5t88 -27.5q54 0 87 27.5t37 77.5h31q-4 -62 -46 -98t-109 -36z" />
<glyph horiz-adv-x="666" d="M616 -92q0 -68 -76.5 -108t-206.5 -40q-129 0 -206 40t-77 107q0 82 109 123q-61 23 -61 70q0 46 61 84q-84 52 -84 143q0 79 69 131t175 52q49 0 85 -10h193v-27l-123 -1q42 -25 65.5 -63t23.5 -83q0 -79 -69 -131t-175 -52q-74 0 -132 26q-24 -13 -38.5 -32t-14.5 -36 q0 -39 65 -59q64 14 136 14q129 0 205 -40t76 -108zM319 175q88 0 145 43t57 109q0 65 -57 108t-145 43t-145 -43t-57 -108q0 -66 57 -109t145 -43zM575 -92q0 54 -64.5 86t-175.5 32t-177 -32.5t-66 -86.5t65 -85t176 -31q112 0 177 31.5t65 85.5zM348 713l120 -150h-36 l-107 124l-105 -124h-37l120 150h45z" />
<glyph horiz-adv-x="666" d="M616 -92q0 -68 -76.5 -108t-206.5 -40q-129 0 -206 40t-77 107q0 82 109 123q-61 23 -61 70q0 46 61 84q-84 52 -84 143q0 79 69 131t175 52q49 0 85 -10h193v-27l-123 -1q42 -25 65.5 -63t23.5 -83q0 -79 -69 -131t-175 -52q-74 0 -132 26q-24 -13 -38.5 -32t-14.5 -36 q0 -39 65 -59q64 14 136 14q129 0 205 -40t76 -108zM319 175q88 0 145 43t57 109q0 65 -57 108t-145 43t-145 -43t-57 -108q0 -66 57 -109t145 -43zM575 -92q0 54 -64.5 86t-175.5 32t-177 -32.5t-66 -86.5t65 -85t176 -31q112 0 177 31.5t65 85.5zM294 599q0 6 4 15l53 108 l14 -7l-34 -94q15 -6 15 -22q0 -10 -7.5 -17t-18.5 -7t-18.5 7t-7.5 17z" />
<glyph horiz-adv-x="666" d="M616 -92q0 -68 -76.5 -108t-206.5 -40q-129 0 -206 40t-77 107q0 82 109 123q-61 23 -61 70q0 46 61 84q-84 52 -84 143q0 79 69 131t175 52q49 0 85 -10h193v-27l-123 -1q42 -25 65.5 -63t23.5 -83q0 -79 -69 -131t-175 -52q-74 0 -132 26q-24 -13 -38.5 -32t-14.5 -36 q0 -39 65 -59q64 14 136 14q129 0 205 -40t76 -108zM319 175q88 0 145 43t57 109q0 65 -57 108t-145 43t-145 -43t-57 -108q0 -66 57 -109t145 -43zM575 -92q0 54 -64.5 86t-175.5 32t-177 -32.5t-66 -86.5t65 -85t176 -31q112 0 177 31.5t65 85.5zM350 648q0 -10 -7 -17.5 t-17 -7.5q-11 0 -18 7.5t-7 17.5t7.5 17t17.5 7t17 -7t7 -17z" />
<glyph horiz-adv-x="261" d="M151 500v-500h-40v500h40zM159 648q0 -10 -7 -17.5t-17 -7.5q-11 0 -18 7.5t-7 17.5t7.5 17t17.5 7t17 -7t7 -17z" />
<glyph horiz-adv-x="302" d="M101 97v603h40v-603q0 -33 17 -52.5t47 -19.5q28 0 54 16l9 -32q-30 -19 -71 -19q-96 0 -96 107z" />
<glyph horiz-adv-x="302" d="M101 97v603h40v-603q0 -33 17 -52.5t47 -19.5q28 0 54 16l9 -32q-30 -19 -71 -19q-96 0 -96 107zM224 913l-116 -150h-38l106 150h48z" />
<glyph horiz-adv-x="302" d="M101 97v603h40v-603q0 -33 17 -52.5t47 -19.5q28 0 54 16l9 -32q-30 -19 -71 -19q-96 0 -96 107zM329 694q0 -8 -6 -20l-52 -111l-16 8l34 97q-16 6 -16 25q0 12 8 20t20 8t20 -8t8 -19z" />
<glyph horiz-adv-x="302" d="M101 97v603h40v-603q0 -33 17 -52.5t47 -19.5q28 0 54 16l9 -32q-30 -19 -71 -19q-96 0 -96 107zM213 -102q0 -8 -4 -15l-52 -108l-15 7l34 94q-15 8 -15 22q0 10 7.5 17t18.5 7t18.5 -7t7.5 -17z" />
<glyph horiz-adv-x="336" d="M101 97v603h40v-603q0 -33 17 -52.5t47 -19.5q28 0 54 16l9 -32q-30 -19 -71 -19q-96 0 -96 107zM332 367q0 -12 -8 -20t-20 -8t-20 8t-8 20t8 20t20 8t20 -8t8 -20z" />
<glyph horiz-adv-x="302" d="M259 41l9 -32q-30 -19 -71 -19q-96 0 -96 107v232l-110 -83v43l110 83v328h40v-298l109 82v-43l-109 -82v-262q0 -33 17 -52.5t47 -19.5q28 0 54 16z" />
<glyph horiz-adv-x="1147" d="M1017 99l24 -23q-88 -86 -212 -86q-80 0 -145 44t-95 117q-30 -73 -97.5 -117t-150.5 -44q-109 -2 -189.5 76t-78.5 184q-2 106 78.5 184t189.5 76q82 0 150 -44q66 -42 98 -116q30 73 93.5 116.5t142.5 43.5q101 0 170 -61t81 -158l-450 -130q26 -63 80.5 -100 t122.5 -37q111 0 188 75zM609 251q0 -34 7 -58l417 120q-15 74 -71 118.5t-137 44.5q-91 0 -153.5 -65t-62.5 -160zM570 250q2 91 -67.5 159t-161.5 66q-92 2 -161 -66t-67 -159q-2 -91 67 -159t161 -66q92 -2 161 66t68 159z" />
<glyph horiz-adv-x="1252" d="M1161 314v-314h-40v305q0 81 -43.5 126t-123.5 45q-60 0 -121 -24.5t-106 -68.5v-383h-40v661h-344v-661h-43v661h-254v39h681v-281q106 91 239 91q92 0 143.5 -52t51.5 -144z" />
<glyph horiz-adv-x="1286" d="M1194 314v-314h-40v305q0 81 -43.5 126t-123.5 45q-59 0 -119 -24t-107 -68v-384h-41v679q-72 23 -165 23q-76 0 -120.5 -34t-44.5 -94q0 -44 24 -74q74 -22 126 -80l-31 -19q-66 74 -170 74q-92 2 -160.5 -66t-66.5 -159q-2 -92 66.5 -159.5t160.5 -65.5q108 0 177 81 l31 -19q-39 -45 -93.5 -71t-114.5 -26q-107 -2 -187.5 76t-78.5 184q-2 106 78.5 184t187.5 76q20 0 38 -3q-22 31 -22 76q0 69 54.5 110t145.5 41q110 0 206 -32v-283q110 91 238 91q93 0 144 -51.5t51 -144.5z" />
<glyph horiz-adv-x="1047" d="M992 44l9 -30q-45 -24 -94 -24q-71 0 -117.5 47.5t-46.5 125.5v303h-100v34h100v63q0 139 -188 139q-78 0 -124.5 -34t-46.5 -93q0 -41 30 -75q74 -22 126 -80l-31 -19q-66 74 -170 74q-92 2 -160.5 -66t-66.5 -159q-2 -92 66.5 -159.5t160.5 -65.5q108 0 177 81l31 -19 q-39 -45 -93.5 -71t-114.5 -26q-107 -2 -187.5 76t-78.5 184q-2 106 78.5 184t187.5 76q19 0 38 -3q-28 35 -28 77q0 70 56 110t150 40q228 0 228 -168v-66h172v-34h-172v-298q0 -65 37.5 -104t95.5 -39q39 0 76 19z" />
<glyph horiz-adv-x="1060" d="M987 250q2 -106 -76.5 -184t-184.5 -76q-115 0 -189 82v-72h-41v667h-145q-26 10 -59 10q-58 0 -95 -38t-37 -102v-37h180v-34h-180v-466h-40v466h-91v34h91v37q0 79 47.5 126t119.5 47q37 0 66 -10h184v-272q74 82 189 82q106 2 184.5 -76t76.5 -184zM947 250 q0 94 -65.5 159.5t-159.5 65.5q-115 0 -185 -89v-272q70 -89 185 -89q94 0 159.5 65.5t65.5 159.5z" />
<glyph horiz-adv-x="1060" d="M359 698l-8 -31q-26 10 -66 10q-57 0 -91 -35t-34 -99v-43h356v44q0 79 44 122.5t117 43.5q43 0 78 -12l-8 -31q-26 10 -66 10q-57 0 -91 -35t-34 -99v-43h397v-533q0 -77 -47.5 -124.5t-117.5 -47.5q-35 0 -62 10l6 25q20 -7 45 -7q57 0 96 41q39 40 39 105v497h-356 v-466h-40v466h-356v-466h-40v466h-91v34h91v44q0 79 44 122.5t117 43.5q43 0 78 -12zM959 641q0 -11 -8 -19t-19 -8t-19 8t-8 19t8 19t19 8t19 -8t8 -19z" />
<glyph horiz-adv-x="1099" d="M1057 41l9 -32q-32 -19 -71 -19q-97 0 -97 107v570h-151q-26 10 -66 10q-57 0 -91 -35t-34 -99v-43h180v-34h-180v-466h-40v466h-356v-466h-40v466h-91v34h91v44q0 79 44 122.5t117 43.5q43 0 78 -12l-8 -31q-26 10 -66 10q-57 0 -91 -35t-34 -99v-43h356v44 q0 79 44 122.5t117 43.5q42 0 71 -10h191v-603q0 -34 16.5 -53t47.5 -19q28 0 54 16z" />
<glyph horiz-adv-x="1067" d="M352 700h190v-282q108 92 246 92q86 0 137 -52t51 -144v-314h-40v305q0 81 -42.5 126t-117.5 45q-137 0 -234 -91v-385h-40v667h-151q-26 10 -66 10q-57 0 -91 -35t-34 -99v-43h180v-34h-180v-466h-40v466h-91v34h91v44q0 79 44 122.5t117 43.5q42 0 71 -10z" />
<glyph horiz-adv-x="664" d="M359 698l-8 -31q-26 10 -66 10q-57 0 -91 -35t-34 -99v-43h397v-533q0 -77 -47.5 -124.5t-117.5 -47.5q-35 0 -62 10l6 25q20 -7 45 -7q57 0 96 41q39 40 39 105v497h-356v-466h-40v466h-91v34h91v44q0 79 44 122.5t117 43.5q43 0 78 -12zM563 641q0 -11 -8 -19t-19 -8 t-19 8t-8 19t8 19t19 8t19 -8t8 -19z" />
<glyph horiz-adv-x="988" d="M352 700h190v-524l351 324h50l-195 -185l214 -315h-44l-198 287l-178 -162v-125h-40v667h-151q-26 10 -66 10q-57 0 -91 -35t-34 -99v-43h180v-34h-180v-466h-40v466h-91v34h91v44q0 79 44 122.5t117 43.5q42 0 71 -10z" />
<glyph horiz-adv-x="703" d="M661 41l9 -32q-32 -19 -71 -19q-97 0 -97 107v570h-151q-26 10 -66 10q-57 0 -91 -35t-34 -99v-43h180v-34h-180v-466h-40v466h-91v34h91v44q0 79 44 122.5t117 43.5q42 0 71 -10h191v-603q0 -34 16.5 -53t47.5 -19q28 0 54 16z" />
<glyph horiz-adv-x="1202" d="M1128 250q2 -106 -76 -184t-184 -76q-120 0 -190 83v-268h-40v775q0 56 -45 88.5t-120 32.5q-76 0 -121 -34t-45 -93q0 -42 24 -72q68 -15 114 -44l-16 -28q-78 48 -177 48q-66 0 -103 -26.5t-37 -73.5q0 -35 28 -55.5t106 -41.5l67 -18q88 -22 119.5 -51t31.5 -85 q0 -64 -53 -100.5t-143 -36.5q-127 0 -218 61l16 28q84 -57 203 -57q74 0 115 26.5t41 75.5q0 44 -23.5 64.5t-98.5 41.5l-68 19q-93 26 -127.5 52.5t-34.5 73.5q0 63 48.5 99t131.5 36q3 0 41 -2q-22 31 -22 75q0 70 54.5 110.5t146.5 40.5q94 0 149.5 -39.5t55.5 -108.5 v-158q72 82 190 82q106 2 184 -76t76 -184zM1088 250q0 94 -66 159.5t-158 65.5q-119 0 -186 -89v-271q32 -42 81 -66t105 -24q92 0 158 65.5t66 159.5z" />
<glyph horiz-adv-x="317" d="M138 0v580h41v-580h-41z" />
<glyph horiz-adv-x="383" d="M383 40h16v-38q0 -2 -16 -2h-1q-122 0 -224 58q-20 11 -20 33v489h41v-487q92 -53 204 -53z" />
<glyph horiz-adv-x="745" d="M672 340q0 -161 -81 -255.5t-218 -94.5t-218 94.5t-81 255.5t81 255.5t218 94.5t218 -94.5t81 -255.5zM117 340q0 -143 69 -226.5t187 -83.5q117 0 186 83.5t69 226.5t-69 226.5t-186 83.5q-118 0 -187 -83.5t-69 -226.5z" />
<glyph horiz-adv-x="670" d="M603 250q2 -106 -78.5 -184t-189.5 -76q-109 -2 -189.5 76t-78.5 184q-2 106 78.5 184t189.5 76q109 2 189.5 -76t78.5 -184zM109 250q0 -92 66 -156.5t160 -64.5t159.5 64.5t65.5 156.5t-65.5 156.5t-159.5 64.5t-160 -64.5t-66 -156.5z" />
<glyph horiz-adv-x="600" d="M576 340q0 -161 -75.5 -255.5t-201.5 -94.5q-127 0 -201.5 94.5t-74.5 255.5t74.5 255.5t201.5 94.5q126 0 201.5 -94.5t75.5 -255.5zM66 340q0 -143 63 -226.5t170 -83.5t170.5 83.5t63.5 226.5t-63.5 226.5t-170.5 83.5t-170 -83.5t-63 -226.5z" />
<glyph horiz-adv-x="623" d="M580 250q2 -106 -78.5 -184t-189.5 -76q-109 -2 -189.5 76t-78.5 184q-2 106 78.5 184t189.5 76q109 2 189.5 -76t78.5 -184zM86 250q0 -92 66 -156.5t160 -64.5t159.5 64.5t65.5 156.5t-65.5 156.5t-159.5 64.5t-160 -64.5t-66 -156.5z" />
<glyph horiz-adv-x="343" d="M234 680v-680h-43v642l-141 -32l-6 34l153 36h37z" />
<glyph horiz-adv-x="296" d="M216 500v-500h-43v461l-141 -31l-5 34l153 36h36z" />
<glyph horiz-adv-x="524" d="M341 680v-680h-43v642l-141 -32l-6 34l153 36h37z" />
<glyph horiz-adv-x="512" d="M333 500v-500h-43v461l-141 -31l-5 34l153 36h36z" />
<glyph horiz-adv-x="591" d="M122 39h415v-39h-476v36l303 287q64 63 87 99q23 37 23 77q0 67 -50.5 109t-131.5 42q-127 0 -208 -120l-30 23q90 137 239 137q100 0 162.5 -52.5t62.5 -136.5q0 -50 -28 -93q-26 -42 -104 -117z" />
<glyph horiz-adv-x="529" d="M120 37h353v-37h-425v28l274 201q53 39 74 69t21 65q0 52 -41 81.5t-111 29.5q-117 0 -193 -90l-26 26q88 100 219 100q87 0 141 -39t54 -103q0 -44 -26 -81.5t-90 -84.5z" />
<glyph horiz-adv-x="599" d="M126 39h415v-39h-476v36l303 287q64 63 87 99q23 37 23 77q0 67 -50.5 109t-131.5 42q-127 0 -208 -120l-30 23q90 137 239 137q100 0 162.5 -52.5t62.5 -136.5q0 -50 -28 -93q-26 -42 -104 -117z" />
<glyph horiz-adv-x="597" d="M159 37h353v-37h-425v28l274 201q53 39 74 69t21 65q0 52 -41 81.5t-111 29.5q-116 0 -193 -90l-26 26q88 100 219 100q87 0 141 -39t54 -103q0 -44 -26 -81.5t-90 -84.5z" />
<glyph horiz-adv-x="612" d="M539 201q0 -93 -70 -152t-182 -59q-122 0 -232 75l24 32q98 -68 206 -68q95 0 153 47.5t58 124.5q0 70 -50 110.5t-135 40.5q-59 0 -119 -22l-10 29l271 282h-360v39h415v-36l-259 -268q36 9 75 9q97 0 156 -50t59 -134z" />
<glyph horiz-adv-x="606" d="M539 11q0 -95 -70 -155.5t-182 -60.5q-119 0 -232 77l24 32q101 -71 206 -71q94 0 152.5 49.5t58.5 127.5q0 72 -50 114t-135 42q-58 0 -118 -22l-9 30l270 287h-361v39h415v-36l-260 -273q36 9 76 9q97 0 156 -51t59 -138z" />
<glyph horiz-adv-x="606" d="M542 201q0 -93 -70 -152t-182 -59q-122 0 -232 75l24 32q98 -68 206 -68q95 0 153 47.5t58 124.5q0 70 -50 110.5t-135 40.5q-59 0 -119 -22l-10 29l271 282h-360v39h415v-36l-259 -268q36 9 75 9q97 0 156 -50t59 -134z" />
<glyph horiz-adv-x="606" d="M538 11q0 -95 -70 -155.5t-182 -60.5q-119 0 -232 77l24 32q101 -71 206 -71q94 0 152.5 49.5t58.5 127.5q0 72 -50 114t-135 42q-58 0 -118 -22l-9 30l270 287h-361v39h415v-36l-260 -273q36 9 76 9q97 0 156 -51t59 -138z" />
<glyph horiz-adv-x="645" d="M467 239h133v-39h-133v-200h-43v200h-375l-4 39l372 441h50v-441zM94 239h330v391z" />
<glyph horiz-adv-x="619" d="M454 39h133v-39h-133v-195h-43v195h-375l-4 38l372 462h50v-461zM80 39h331v410z" />
<glyph horiz-adv-x="600" d="M445 239h133v-39h-133v-200h-43v200h-375l-4 39l372 441h50v-441zM72 239h330v392z" />
<glyph horiz-adv-x="600" d="M445 39h133v-39h-133v-195h-43v195h-375l-4 38l372 462h50v-461zM71 39h331v410z" />
</font>
</defs>
</svg>
