<?xml version="1.0" standalone="no"?>
<!DOCTYPE svg PUBLIC "-//W3C//DTD SVG 1.1//EN" "http://www.w3.org/Graphics/SVG/1.1/DTD/svg11.dtd" >
<svg xmlns="http://www.w3.org/2000/svg" xmlns:xlink="http://www.w3.org/1999/xlink" version="1.1">
<metadata></metadata>
<defs>
<font id="loew_next_arabicblack" horiz-adv-x="0" >
<font-face units-per-em="1000" ascent="750" descent="-250" />
<missing-glyph horiz-adv-x="250" />
<glyph unicode="fi" horiz-adv-x="723" d="M419 685l-25 -124q-35 13 -65 13q-47 0 -47 -43v-31h388v-500h-203v346h-185v-346h-204v346h-58v154h58v37q0 173 188 173q71 0 153 -25zM674 621q0 -37 -31 -62.5t-75 -25.5t-74.5 25.5t-30.5 62.5t31 63t74 26q44 0 75 -26t31 -63z" />
<glyph unicode="fl" horiz-adv-x="716" d="M359 700h307v-700h-203v561h-69q-35 13 -65 13q-47 0 -47 -43v-31h113v-154h-113v-346h-204v346h-58v154h58v37q0 173 188 173q46 0 93 -10z" />
<glyph unicode="&#x627;&#xfedf;&#xfee0;&#xfeea;" horiz-adv-x="1615" arabic-form="isolated" d="M839 1025v-172h-69v172h69zM665 705v94h66v-74q0 -19 21 -19q9 0 15.5 5t6.5 14v90h59v-68q0 -9 7 -15.5t16 -6.5t15 6t6 16v89h66v-111q0 -34 -22 -50t-57 -16q-30 0 -50 14q-19 -34 -70 -34q-35 0 -57 16t-22 50zM1325 730h190v-730h-190v730zM1025 219v451h190v-558 q-75 -112 -226 -112q-102 0 -169 48q-80 -48 -280 -48h-125q-150 0 -232.5 70t-82.5 182q0 116 73.5 187t208.5 71q120 0 233 -51v-254h31q54 0 79 20v335h190v-341q15 -22 54 -22q46 0 56 22zM427 205v116q-27 12 -56 12q-79 0 -79 -68q0 -60 80 -60h55z" />
<glyph unicode="&#xfedf;&#xfe82;" horiz-adv-x="762" arabic-form="isolated" d="M512 730h190v-588q-40 -60 -121 -101q-82 -41 -182 -41h-359v205h159l-94 405h189l97 -405h12q72 0 109 14v511zM290 784l52 -10q0 -56 -21 -82t-74 -24l-98 4q-43 1 -55 -22l-52 10q0 57 22 83t78 23l93 -4q24 -1 35 4t20 18z" />
<glyph unicode="&#xfee0;&#xfe82;" horiz-adv-x="811" arabic-form="final" d="M811 205h16v-203q0 -2 -16 -2h-1q-112 0 -204 55q-91 -55 -207 -55h-359v205h159l-94 405h189l97 -405h12q72 0 109 14v511h190v-511q37 -14 109 -14zM290 784l52 -10q0 -56 -21 -82t-74 -24l-98 4q-43 1 -55 -22l-52 10q0 57 22 83t78 23l93 -4q24 -1 35 4t20 18z" />
<glyph unicode="&#xfedf;&#xfe84;" horiz-adv-x="762" arabic-form="isolated" d="M512 730h190v-588q-40 -60 -121 -101q-82 -41 -182 -41h-359v205h159l-94 405h189l97 -405h12q72 0 109 14v511zM221 770h67v-100h-225v100h48q-21 22 -21 57q0 40 27 66.5t71 26.5q57 0 93 -41l-56 -56q-14 11 -28 11q-13 0 -21 -8t-8 -21q0 -35 53 -35z" />
<glyph unicode="&#xfee0;&#xfe84;" horiz-adv-x="811" arabic-form="final" d="M288 770v-100h-225v100h48q-21 22 -21 57q0 40 27 66.5t71 26.5q57 0 93 -41l-56 -56q-14 11 -28 11q-13 0 -21 -8t-8 -21q0 -35 53 -35h67zM811 205h16v-203q0 -2 -16 -2h-1q-112 0 -204 55q-91 -55 -207 -55h-359v205h159l-94 405h189l97 -405h12q72 0 109 14v511h190 v-511q37 -14 109 -14z" />
<glyph unicode="&#xfedf;&#xfe88;" horiz-adv-x="762" arabic-form="isolated" d="M512 730h190v-588q-40 -60 -121 -101q-82 -41 -182 -41h-359v205h159l-94 405h189l97 -405h12q72 0 109 14v511zM251 -200h67v-100h-225v100h48q-21 22 -21 57q0 40 27 66.5t71 26.5q57 0 93 -41l-56 -56q-14 11 -28 11q-13 0 -21 -8t-8 -21q0 -35 53 -35z" />
<glyph unicode="&#xfee0;&#xfe88;" horiz-adv-x="811" arabic-form="final" d="M811 205h16v-203q0 -2 -16 -2h-1q-112 0 -204 55q-91 -55 -207 -55h-359v205h159l-94 405h189l97 -405h12q72 0 109 14v511h190v-511q37 -14 109 -14zM251 -200h67v-100h-225v100h48q-21 22 -21 57q0 40 27 66.5t71 26.5q57 0 93 -41l-56 -56q-14 11 -28 11q-13 0 -21 -8 t-8 -21q0 -35 53 -35z" />
<glyph unicode="&#xfedf;&#xfe8e;" horiz-adv-x="762" arabic-form="isolated" d="M512 730h190v-588q-40 -60 -121 -101q-82 -41 -182 -41h-359v205h159l-94 405h189l97 -405h12q72 0 109 14v511z" />
<glyph unicode="&#xfee0;&#xfe8e;" horiz-adv-x="811" arabic-form="final" d="M811 205h16v-203q0 -2 -16 -2h-1q-112 0 -204 55q-91 -55 -207 -55h-359v205h159l-94 405h189l97 -405h12q72 0 109 14v511h190v-511q37 -14 109 -14z" />
<glyph unicode="&#xfedf;&#xfb51;" horiz-adv-x="762" d="M512 730h190v-588q-40 -60 -121 -101q-82 -41 -182 -41h-359v205h159l-94 405h189l97 -405h12q72 0 109 14v511zM362 782v-112h-309v90h50q50 121 156 121q48 0 75.5 -26t27.5 -73zM181 760h94v13q0 29 -33 29q-38 0 -61 -42z" />
<glyph unicode="&#xfee0;&#xfb51;" horiz-adv-x="811" d="M811 205h16v-203q0 -2 -16 -2h-1q-112 0 -204 55q-91 -55 -207 -55h-359v205h159l-94 405h189l97 -405h12q72 0 109 14v511h190v-511q37 -14 109 -14zM362 782v-112h-309v90h50q50 121 156 121q48 0 75.5 -26t27.5 -73zM181 760h94v13q0 29 -33 29q-38 0 -61 -42z" />
<glyph unicode="&#x66e;" horiz-adv-x="359" d="M109 522h190v-411q-40 -50 -119 -80.5t-179 -30.5h-1q-16 0 -16 2v203h16q72 0 109 14v303z" />
<glyph unicode="&#x66e;" horiz-adv-x="408" d="M408 205h16v-203q0 -2 -16 -2h-1q-114 0 -203 55q-89 -55 -203 -55h-1q-16 0 -16 2v203h16q72 0 109 14v303h190v-303q37 -14 109 -14z" />
<glyph unicode="&#x66e;" horiz-adv-x="1229" d="M1229 205h16v-203q0 -2 -16 -2h-1q-117 0 -203 55q-100 -55 -270 -55h-383q-159 0 -238 62.5t-79 200.5q0 90 35 192l174 -32q-20 -58 -20 -100q0 -60 32.5 -89t103.5 -29h416q97 0 134 23v294h190v-303q37 -14 109 -14z" />
<glyph unicode="&#x66f;" horiz-adv-x="943" d="M959 204v-203q0 -2 -16 -2h-106v-156q-67 -48 -174 -78q-106 -30 -218 -30q-181 0 -285.5 95.5t-104.5 254.5q0 70 23 156l172 -34q-11 -42 -11 -80q0 -94 60 -141.5t170 -47.5q91 0 178 21v51h-18q-151 0 -229 63t-78 177q0 117 74 188.5t208 71.5q120 0 233 -51v-255 h122zM596 205h51v117q-27 11 -56 11q-77 0 -77 -66q0 -62 82 -62z" />
<glyph unicode="&#x6a1;" horiz-adv-x="636" d="M576 521v-446q-56 -34 -151 -54.5t-208 -20.5h-217q-16 0 -16 2v203h168q-74 56 -74 155q0 102 74.5 158t193.5 56q110 0 230 -53zM271 323q0 -73 115 -92v148q-18 7 -44 7q-32 0 -51.5 -17t-19.5 -46z" />
<glyph unicode="&#x6a1;" horiz-adv-x="677" d="M693 205v-203q0 -2 -16 -2h-677q-16 0 -16 2v203h158q-65 65 -65 154q0 100 72.5 160.5t188.5 60.5q117 0 189.5 -60.5t72.5 -160.5q0 -89 -65 -154h158zM272 323q0 -58 67 -90q66 32 66 90q0 32 -18 51t-48 19t-48.5 -19t-18.5 -51z" />
<glyph unicode="&#x6a1;" horiz-adv-x="1307" d="M1323 205v-203q0 -2 -16 -2h-935q-159 0 -238 62.5t-79 200.5q0 90 35 192l174 -32q-20 -58 -20 -100q0 -60 32.5 -89t103.5 -29h394q-74 56 -74 155q0 102 74.5 158t193.5 56q110 0 230 -53v-316h125zM893 323q0 -35 31.5 -58t83.5 -32v146q-18 7 -44 7q-33 0 -52 -17.5 t-19 -45.5z" />
<glyph unicode="&#x6c2;" horiz-adv-x="656" d="M656 205h16v-203q0 -2 -16 -2q-83 0 -125 16q-43 16 -75 57q-34 43 -82 137l-19 37q-12 -5 -20.5 -18.5t-24.5 -53.5l-69 -175l-181 60l94 236q32 83 75 113.5t121 30.5h109l118 -221q30 -14 79 -14zM395 600h67v-100h-225v100h48q-21 22 -21 57q0 40 27 66.5t71 26.5 q57 0 93 -41l-56 -56q-14 11 -28 11q-13 0 -21 -8t-8 -21q0 -35 53 -35z" />
<glyph unicode="&#x6c3;" horiz-adv-x="656" d="M656 205h16v-203q0 -2 -16 -2q-83 0 -125 16q-43 16 -75 57q-34 43 -82 137l-19 37q-12 -5 -20.5 -18.5t-24.5 -53.5l-69 -175l-181 60l94 236q32 83 75 113.5t121 30.5h109l118 -221q30 -14 79 -14zM151 585q0 40 27.5 67.5t67.5 27.5q39 0 66.5 -27.5t27.5 -67.5 t-27.5 -67.5t-66.5 -27.5q-40 0 -67.5 27.5t-27.5 67.5zM360 585q0 40 27.5 67.5t67.5 27.5q39 0 66.5 -27.5t27.5 -67.5t-27.5 -67.5t-66.5 -27.5q-40 0 -67.5 27.5t-27.5 67.5z" />
<glyph unicode="&#x671;" horiz-adv-x="359" arabic-form="final" d="M359 205h16v-203q0 -2 -16 -2h-1q-132 0 -223 49q-42 23 -58.5 52t-16.5 81v548h190v-511q37 -14 109 -14zM301 902v-112h-309v90h50q50 121 156 121q48 0 75.5 -26t27.5 -73zM120 880h94v13q0 29 -33 29q-38 0 -61 -42z" />
<glyph unicode="&#x67e;" horiz-adv-x="1229" arabic-form="final" d="M1229 205h16v-203q0 -2 -16 -2h-1q-117 0 -203 55q-100 -55 -270 -55h-383q-159 0 -238 62.5t-79 200.5q0 90 35 192l174 -32q-20 -58 -20 -100q0 -60 32.5 -89t103.5 -29h416q97 0 134 23v294h190v-303q37 -14 109 -14zM426 -129q0 33 23 56t56 23t56 -23t23 -56 t-23 -56t-56 -23t-56 23t-23 56zM610 -129q0 33 23 56t57 23q32 0 55 -23t23 -56t-23 -56t-55 -23q-34 0 -57 23t-23 56zM517 -289q0 34 23 57t56 23q32 0 55 -23t23 -57q0 -33 -23 -56t-55 -23q-33 0 -56 23t-23 56z" />
<glyph unicode="&#x67e;" horiz-adv-x="359" arabic-form="initial" d="M109 522h190v-411q-40 -50 -119 -80.5t-179 -30.5h-1q-16 0 -16 2v203h16q72 0 109 14v303zM7 -129q0 33 23 56t56 23t56 -23t23 -56t-23 -56t-56 -23t-56 23t-23 56zM191 -129q0 33 23 56t57 23q32 0 55 -23t23 -56t-23 -56t-55 -23q-34 0 -57 23t-23 56zM98 -289 q0 34 23 57t56 23q32 0 55 -23t23 -57q0 -33 -23 -56t-55 -23q-33 0 -56 23t-23 56z" />
<glyph unicode="&#x67e;" horiz-adv-x="408" arabic-form="medial" d="M408 205h16v-203q0 -2 -16 -2h-1q-114 0 -203 55q-89 -55 -203 -55h-1q-16 0 -16 2v203h16q72 0 109 14v303h190v-303q37 -14 109 -14zM35 -129q0 33 23 56t56 23t56 -23t23 -56t-23 -56t-56 -23t-56 23t-23 56zM219 -129q0 33 23 56t57 23q32 0 55 -23t23 -56t-23 -56 t-55 -23q-34 0 -57 23t-23 56zM126 -289q0 34 23 57t56 23q32 0 55 -23t23 -57q0 -33 -23 -56t-55 -23q-33 0 -56 23t-23 56z" />
<glyph unicode="&#x679;" horiz-adv-x="1229" arabic-form="final" d="M1229 205h16v-203q0 -2 -16 -2h-1q-117 0 -203 55q-100 -55 -270 -55h-383q-159 0 -238 62.5t-79 200.5q0 90 35 192l174 -32q-20 -58 -20 -100q0 -60 32.5 -89t103.5 -29h416q97 0 134 23v294h190v-303q37 -14 109 -14zM713 656v-116h-296v90h18v178h83v-87 q52 40 102 40q44 0 68.5 -28.5t24.5 -76.5zM518 630h108v15q0 37 -31 37q-32 0 -77 -42v-10z" />
<glyph unicode="&#x679;" horiz-adv-x="359" arabic-form="initial" d="M109 522h190v-411q-40 -50 -119 -80.5t-179 -30.5h-1q-16 0 -16 2v203h16q72 0 109 14v303zM339 728v-116h-296v90h18v178h83v-87q52 40 102 40q44 0 68.5 -28.5t24.5 -76.5zM144 702h108v15q0 37 -31 37q-32 0 -77 -42v-10z" />
<glyph unicode="&#x679;" horiz-adv-x="408" arabic-form="medial" d="M408 205h16v-203q0 -2 -16 -2h-1q-114 0 -203 55q-89 -55 -203 -55h-1q-16 0 -16 2v203h16q72 0 109 14v303h190v-303q37 -14 109 -14zM342 728v-116h-296v90h18v178h83v-87q52 40 102 40q44 0 68.5 -28.5t24.5 -76.5zM147 702h108v15q0 37 -31 37q-32 0 -77 -42v-10z " />
<glyph unicode="&#x6a4;" horiz-adv-x="1307" arabic-form="final" d="M1323 205v-203q0 -2 -16 -2h-935q-159 0 -238 62.5t-79 200.5q0 90 35 192l174 -32q-20 -58 -20 -100q0 -60 32.5 -89t103.5 -29h394q-74 56 -74 155q0 102 74.5 158t193.5 56q110 0 230 -53v-316h125zM893 323q0 -35 31.5 -58t83.5 -32v146q-18 7 -44 7q-33 0 -52 -17.5 t-19 -45.5zM888 862q0 34 23 57t56 23q32 0 55 -23t23 -57q0 -33 -23 -56t-55 -23q-33 0 -56 23t-23 56zM797 703q0 33 23 56t56 23t56 -23t23 -56t-23 -56t-56 -23t-56 23t-23 56zM981 703q0 33 23 56t57 23q32 0 55 -23t23 -56t-23 -56t-55 -23q-34 0 -57 23t-23 56z" />
<glyph unicode="&#x6a4;" horiz-adv-x="636" arabic-form="initial" d="M576 521v-446q-56 -34 -151 -54.5t-208 -20.5h-217q-16 0 -16 2v203h168q-74 56 -74 155q0 102 74.5 158t193.5 56q110 0 230 -53zM271 323q0 -73 115 -92v148q-18 7 -44 7q-32 0 -51.5 -17t-19.5 -46zM266 862q0 34 23 57t56 23q32 0 55 -23t23 -57q0 -33 -23 -56 t-55 -23q-33 0 -56 23t-23 56zM175 703q0 33 23 56t56 23t56 -23t23 -56t-23 -56t-56 -23t-56 23t-23 56zM359 703q0 33 23 56t57 23q32 0 55 -23t23 -56t-23 -56t-55 -23q-34 0 -57 23t-23 56z" />
<glyph unicode="&#x6a4;" horiz-adv-x="677" arabic-form="medial" d="M693 205v-203q0 -2 -16 -2h-677q-16 0 -16 2v203h158q-65 65 -65 154q0 100 72.5 160.5t188.5 60.5q117 0 189.5 -60.5t72.5 -160.5q0 -89 -65 -154h158zM272 323q0 -58 67 -90q66 32 66 90q0 32 -18 51t-48 19t-48.5 -19t-18.5 -51zM258 868q0 34 23 57t56 23 q32 0 55 -23t23 -57q0 -33 -23 -56t-55 -23q-33 0 -56 23t-23 56zM167 709q0 33 23 56t56 23t56 -23t23 -56t-23 -56t-56 -23t-56 23t-23 56zM351 709q0 33 23 56t57 23q32 0 55 -23t23 -56t-23 -56t-55 -23q-34 0 -57 23t-23 56z" />
<glyph unicode="&#x686;" horiz-adv-x="746" arabic-form="final" d="M762 205v-203q0 -2 -16 -2h-438q-35 0 -56.5 -17t-21.5 -47t21.5 -47.5t56.5 -17.5h62v-205h-11q-165 0 -252 67.5t-87 193.5q0 129 89.5 201t249.5 72h95q-26 31 -46 88q-23 67 -41.5 88.5t-68.5 25.5q-55 0 -114 -37l-102 130q106 85 236 85q105 0 164 -50 q58 -49 93 -163q30 -101 61 -142q15 -20 67 -20h59zM479 -208q-33 0 -56 23t-23 56t23 56t56 23t56 -23t23 -56t-23 -56t-56 -23zM742 -129q0 -33 -23 -56t-55 -23q-34 0 -57 23t-23 56t23 56t57 23q32 0 55 -23t23 -56zM648 -289q0 -33 -23 -56t-55 -23q-33 0 -56 23 t-23 56q0 34 23 57t56 23q32 0 55 -23t23 -57z" />
<glyph unicode="&#x686;" horiz-adv-x="670" arabic-form="initial" d="M635 175l-53 -175h-582q-16 0 -16 2v203h394q-23 28 -42 82q-25 70 -43 90.5t-69 24.5q-55 0 -114 -37l-103 130q106 85 238 85q104 0 162.5 -49t94.5 -162q16 -49 32 -92q36 -85 101 -102zM127 -129q0 33 23 56t56 23t56 -23t23 -56t-23 -56t-56 -23t-56 23t-23 56z M311 -129q0 33 23 56t57 23q32 0 55 -23t23 -56t-23 -56t-55 -23q-34 0 -57 23t-23 56zM218 -289q0 34 23 57t56 23q32 0 55 -23t23 -57q0 -33 -23 -56t-55 -23q-33 0 -56 23t-23 56z" />
<glyph unicode="&#x686;" horiz-adv-x="671" arabic-form="medial" d="M687 205v-203q0 -2 -15 -2h-672q-16 0 -16 2v203h394q-23 28 -42 82q-25 70 -43 90.5t-69 24.5q-55 0 -114 -37l-103 130q106 85 238 85q105 0 164 -50q58 -49 93 -161q32 -107 63 -145q16 -19 66 -19h56zM125 -129q0 33 23 56t56 23t56 -23t23 -56t-23 -56t-56 -23 t-56 23t-23 56zM309 -129q0 33 23 56t57 23q32 0 55 -23t23 -56t-23 -56t-55 -23q-34 0 -57 23t-23 56zM216 -289q0 34 23 57t56 23q32 0 55 -23t23 -57q0 -33 -23 -56t-55 -23q-33 0 -56 23t-23 56z" />
<glyph unicode="&#x688;" horiz-adv-x="632" arabic-form="final" d="M648 205v-203q0 -2 -16 -2h-592v205h300v94q0 61 -85 61h-139v190h92q97 -1 156 -12t97 -39.5t52.5 -72.5t16.5 -117v-104h118zM354 751v-116h-296v90h18v178h83v-87q52 40 102 40q44 0 68.5 -28.5t24.5 -76.5zM159 725h108v15q0 37 -31 37q-32 0 -77 -42v-10z" />
<glyph unicode="&#x698;" horiz-adv-x="449" arabic-form="final" d="M449 205h16v-203q0 -2 -16 -2h-1q-60 0 -109 15q-7 -148 -90 -214q-82 -66 -211 -66q-46 0 -78 6l37 194h34q67 0 93 25.5t26 84.5v455h190v-281q37 -14 109 -14zM165 808q0 34 23 57t56 23q32 0 55 -23t23 -57q0 -33 -23 -56t-55 -23q-33 0 -56 23t-23 56zM74 649 q0 33 23 56t56 23t56 -23t23 -56t-23 -56t-56 -23t-56 23t-23 56zM258 649q0 33 23 56t57 23q32 0 55 -23t23 -56t-23 -56t-55 -23q-34 0 -57 23t-23 56z" />
<glyph unicode="&#x691;" horiz-adv-x="449" arabic-form="final" d="M449 205h16v-203q0 -2 -16 -2h-1q-60 0 -109 15q-7 -148 -90 -214q-82 -66 -211 -66q-46 0 -78 6l37 194h34q67 0 93 25.5t26 84.5v455h190v-281q37 -14 109 -14zM381 706v-116h-296v90h18v178h83v-87q52 40 102 40q44 0 68.5 -28.5t24.5 -76.5zM186 680h108v15 q0 37 -31 37q-32 0 -77 -42v-10z" />
<glyph unicode="&#x6a9;" horiz-adv-x="1138" arabic-form="final" d="M1138 205h16v-203q0 -2 -16 -2h-1q-83 0 -155 36q-118 -36 -262 -36h-348q-159 0 -238 62.5t-79 200.5q0 90 35 192l174 -32q-20 -58 -20 -100q0 -60 32.5 -89t103.5 -29h360q105 0 140 23v15q-4 27 -23.5 38t-101.5 35l-169 47l-39 147l372 270l95 -120l-232 -167 l78 -23q91 -29 132 -53.5t58 -61.5t20 -110v-26q28 -14 68 -14z" />
<glyph unicode="&#x6a9;" horiz-adv-x="632" arabic-form="initial" d="M572 253v-174q-64 -40 -161 -59q-100 -20 -189 -20h-222q-16 0 -16 2v203h258q95 0 140 27v15q-4 29 -26.5 41t-128.5 41l-139 38l-39 147l372 270l95 -120l-232 -167l48 -14q103 -30 144 -50q49 -23 72.5 -64.5t23.5 -115.5z" />
<glyph unicode="&#x6a9;" horiz-adv-x="640" arabic-form="medial" d="M640 205h16v-203q0 -2 -16 -2h-1q-85 0 -159 38q-122 -38 -258 -38h-222q-16 0 -16 2v203h258q95 0 140 27v15q-4 29 -26.5 41t-128.5 41l-139 38l-39 147l372 270l95 -120l-232 -167l48 -14q103 -30 144 -50q49 -23 72.5 -64.5t23.5 -115.5v-34q33 -14 68 -14z" />
<glyph unicode="&#x6af;" horiz-adv-x="1138" arabic-form="final" d="M845 793l-313 -224l-20 74l288 207zM1138 205h16v-203q0 -2 -16 -2h-1q-83 0 -155 36q-118 -36 -262 -36h-348q-159 0 -238 62.5t-79 200.5q0 90 35 192l174 -32q-20 -58 -20 -100q0 -60 32.5 -89t103.5 -29h360q105 0 140 23v15q-4 27 -23.5 38t-101.5 35l-169 47 l-39 147l372 270l95 -120l-232 -167l78 -23q91 -29 132 -53.5t58 -61.5t20 -110v-26q28 -14 68 -14z" />
<glyph unicode="&#x6af;" horiz-adv-x="632" arabic-form="initial" d="M347 794l-312 -225l-20 74l288 207zM572 253v-174q-64 -40 -161 -59q-100 -20 -189 -20h-222q-16 0 -16 2v203h258q95 0 140 27v15q-4 29 -26.5 41t-128.5 41l-139 38l-39 147l372 270l95 -120l-232 -167l48 -14q103 -30 144 -50q49 -23 72.5 -64.5t23.5 -115.5z" />
<glyph unicode="&#x6af;" horiz-adv-x="640" arabic-form="medial" d="M348 793l-313 -224l-20 74l288 207zM640 205h16v-203q0 -2 -16 -2h-1q-85 0 -159 38q-122 -38 -258 -38h-222q-16 0 -16 2v203h258q95 0 140 27v15q-4 29 -26.5 41t-128.5 41l-139 38l-39 147l372 270l95 -120l-232 -167l48 -14q103 -30 144 -50q49 -23 72.5 -64.5 t23.5 -115.5v-34q33 -14 68 -14z" />
<glyph unicode="&#x6ba;" horiz-adv-x="873" arabic-form="final" d="M873 205h16v-203q0 -2 -16 -2h-1q-63 0 -114 21v-189q-68 -40 -156 -67q-90 -30 -192 -30q-165 0 -260 94t-95 254q0 74 22 158l173 -34q-11 -46 -11 -81q0 -92 52 -140t148 -48q82 0 148 23v444h177v-154q0 -34 30 -40q36 -6 79 -6z" />
<glyph unicode="&#x6c1;" horiz-adv-x="656" arabic-form="final" d="M656 205h16v-203q0 -2 -16 -2q-83 0 -125 16q-43 16 -75 57q-34 43 -82 137l-19 37q-12 -5 -20.5 -18.5t-24.5 -53.5l-69 -175l-181 60l94 236q32 83 75 113.5t121 30.5h109l118 -221q30 -14 79 -14z" />
<glyph unicode="&#x6c1;" horiz-adv-x="359" arabic-form="initial" d="M109 500h190v-389q-40 -50 -119 -80.5t-179 -30.5h-1q-16 0 -16 2v203h16q72 0 109 14v281zM261 -110h14l-10 -105h-18q-61 0 -95 27t-34 77q0 74 81 114l23 -30q-20 -26 -20 -45q0 -38 59 -38z" />
<glyph unicode="&#x6c1;" horiz-adv-x="700" arabic-form="medial" d="M716 205v-203q0 -2 -16 -2h-16q-76 0 -76 -69v-258h-102q-164 0 -267 94t-125 249q-52 -16 -113 -16h-1q-16 0 -16 2v203h16q72 0 109 14v161h190v-248q0 -104 28 -163t91 -79v93q0 99 61 160.5t163 61.5h74z" />
<glyph unicode="&#x6be;" horiz-adv-x="897" arabic-form="final" d="M913 205v-203q0 -2 -16 -2h-846q-16 0 -16 2v203h125q-29 44 -29 100q0 83 59 130q58 46 148 46q91 0 150 -47q58 -46 58 -129q0 -61 -31 -102l93 -1v64q0 131 -71 197.5t-202 66.5q-76 0 -131 -15v175q59 10 137 10q221 0 339 -111.5t118 -333.5v-50h115zM295 267 q0 -48 44 -60q43 10 43 60q0 54 -43 54q-44 0 -44 -54z" />
<glyph unicode="&#x6be;" horiz-adv-x="807" arabic-form="initial" d="M747 255v-255h-747q-16 0 -16 2v203h125q-29 44 -29 100q0 83 59 130q58 46 148 46q91 0 150 -47q58 -46 58 -129q0 -61 -31 -102l93 -1v64q0 131 -71 197.5t-202 66.5q-76 0 -131 -15v175q59 10 137 10q221 0 339 -111.5t118 -333.5zM244 267q0 -48 44 -60q43 10 43 60 q0 54 -43 54q-44 0 -44 -54z" />
<glyph unicode="&#x6be;" horiz-adv-x="834" arabic-form="medial" d="M850 205v-203q0 -2 -16 -2h-834q-16 0 -16 2v203h125q-29 44 -29 100q0 83 59 130q58 46 148 46q91 0 150 -47q58 -46 58 -129q0 -61 -31 -102l93 -1v64q0 131 -71 197.5t-202 66.5q-76 0 -131 -15v175q59 10 137 10q221 0 339 -111.5t118 -333.5v-50h103zM244 267 q0 -48 44 -60q43 10 43 60q0 54 -43 54q-44 0 -44 -54z" />
<glyph unicode="&#x6d2;" horiz-adv-x="840" arabic-form="final" d="M856 205v-203q0 -2 -16 -2h-552q-38 0 -38 -25t38 -25h282v-200h-230q-139 0 -209.5 58.5t-70.5 169.5t71 169t209 58h516z" />
<glyph unicode="&#x6d3;" horiz-adv-x="840" arabic-form="final" d="M856 205v-203q0 -2 -16 -2h-552q-38 0 -38 -25t38 -25h282v-200h-230q-139 0 -209.5 58.5t-70.5 169.5t71 169t209 58h516zM366 375h67v-100h-225v100h48q-21 23 -21 57q0 40 27 66.5t71 26.5q57 0 93 -41l-56 -56q-14 11 -28 11q-13 0 -21 -8t-8 -21q0 -35 53 -35z" />
<glyph unicode="&#x649;" horiz-adv-x="359" arabic-form="initial" d="M109 522h190v-411q-40 -50 -119 -80.5t-179 -30.5h-1q-16 0 -16 2v203h16q72 0 109 14v303z" />
<glyph unicode="&#x649;" horiz-adv-x="408" arabic-form="medial" d="M408 205h16v-203q0 -2 -16 -2h-1q-114 0 -203 55q-89 -55 -203 -55h-1q-16 0 -16 2v203h16q72 0 109 14v303h190v-303q37 -14 109 -14z" />
<glyph unicode="&#x6cc;" horiz-adv-x="1136" arabic-form="final" d="M1136 205h16v-203q0 -2 -16 -2q-123 0 -182 34.5t-88 133.5l-24 82h-75q-46 0 -46 -34q0 -12 4 -23l101 -335q-68 -42 -185 -83q-114 -40 -223 -40q-166 0 -264.5 94t-98.5 254q0 74 22 158l173 -33q-11 -46 -11 -82q0 -92 52 -140t148 -48q37 0 85 6q46 6 80 17l-68 213 q-15 48 -15 87q0 85 57 132q59 47 147 47h256l47 -167q12 -41 31.5 -54.5t76.5 -13.5z" />
<glyph unicode="&#x6cc;" horiz-adv-x="359" arabic-form="initial" d="M109 522h190v-411q-40 -50 -119 -80.5t-179 -30.5h-1q-16 0 -16 2v203h16q72 0 109 14v303zM-21 -145q0 40 27.5 67.5t67.5 27.5q39 0 66.5 -27.5t27.5 -67.5t-27.5 -67.5t-66.5 -27.5q-40 0 -67.5 27.5t-27.5 67.5zM188 -145q0 40 27.5 67.5t67.5 27.5q39 0 66.5 -27.5 t27.5 -67.5t-27.5 -67.5t-66.5 -27.5q-40 0 -67.5 27.5t-27.5 67.5z" />
<glyph unicode="&#x6cc;" horiz-adv-x="408" arabic-form="medial" d="M408 205h16v-203q0 -2 -16 -2h-1q-114 0 -203 55q-89 -55 -203 -55h-1q-16 0 -16 2v203h16q72 0 109 14v303h190v-303q37 -14 109 -14zM7 -145q0 40 27.5 67.5t67.5 27.5q39 0 66.5 -27.5t27.5 -67.5t-27.5 -67.5t-66.5 -27.5q-40 0 -67.5 27.5t-27.5 67.5zM216 -145 q0 40 27.5 67.5t67.5 27.5q39 0 66.5 -27.5t27.5 -67.5t-27.5 -67.5t-66.5 -27.5q-40 0 -67.5 27.5t-27.5 67.5z" />
<glyph unicode="&#x622;" horiz-adv-x="359" arabic-form="final" d="M359 205h16v-203q0 -2 -16 -2h-1q-132 0 -223 49q-42 23 -58.5 52t-16.5 81v548h190v-511q37 -14 109 -14zM250 904l52 -10q0 -56 -21 -82t-74 -24l-98 4q-43 1 -55 -22l-52 10q0 57 22 83t78 23l93 -4q24 -1 35 4t20 18z" />
<glyph unicode="&#x623;" horiz-adv-x="359" arabic-form="final" d="M359 205h16v-203q0 -2 -16 -2h-1q-132 0 -223 49q-42 23 -58.5 52t-16.5 81v548h190v-511q37 -14 109 -14zM200 890h67v-100h-225v100h48q-21 22 -21 57q0 40 27 66.5t71 26.5q57 0 93 -41l-56 -56q-14 11 -28 11q-13 0 -21 -8t-8 -21q0 -35 53 -35z" />
<glyph unicode="&#x624;" horiz-adv-x="669" arabic-form="final" d="M685 205v-203q0 -2 -16 -2h-116q-14 -142 -96 -203q-83 -62 -217 -62q-96 0 -189 26l35 183q88 -24 160 -24q65 0 91.5 20t27.5 60h-18q-149 0 -228 69t-79 181q0 117 74 188.5t208 71.5q120 0 233 -51v-254h130zM314 205h51v117q-27 11 -56 11q-77 0 -77 -65 q0 -63 82 -63zM367 670h67v-100h-225v100h48q-21 22 -21 57q0 40 27 66.5t71 26.5q57 0 93 -41l-56 -56q-14 11 -28 11q-13 0 -21 -8t-8 -21q0 -35 53 -35z" />
<glyph unicode="&#x625;" horiz-adv-x="359" arabic-form="final" d="M359 205h16v-203q0 -2 -16 -2h-1q-132 0 -223 49q-42 23 -58.5 52t-16.5 81v548h190v-511q37 -14 109 -14zM201 -200h67v-100h-225v100h48q-21 22 -21 57q0 40 27 66.5t71 26.5q57 0 93 -41l-56 -56q-14 11 -28 11q-13 0 -21 -8t-8 -21q0 -35 53 -35z" />
<glyph unicode="&#x626;" horiz-adv-x="1136" arabic-form="final" d="M1136 205h16v-203q0 -2 -16 -2q-123 0 -182 34.5t-88 133.5l-24 82h-75q-46 0 -46 -34q0 -12 4 -23l101 -335q-68 -42 -185 -83q-114 -40 -223 -40q-166 0 -264.5 94t-98.5 254q0 74 22 158l173 -33q-11 -46 -11 -82q0 -92 52 -140t148 -48q37 0 85 6q46 6 80 17l-68 213 q-15 48 -15 87q0 85 57 132q59 47 147 47h256l47 -167q12 -41 31.5 -54.5t76.5 -13.5zM239 405h67v-100h-225v100h48q-21 23 -21 57q0 40 27 66.5t71 26.5q57 0 93 -41l-56 -56q-14 11 -28 11q-13 0 -21 -8t-8 -21q0 -35 53 -35z" />
<glyph unicode="&#x626;" horiz-adv-x="359" arabic-form="initial" d="M109 522h190v-411q-40 -50 -119 -80.5t-179 -30.5h-1q-16 0 -16 2v203h16q72 0 109 14v303zM248 702h67v-100h-225v100h48q-21 22 -21 57q0 40 27 66.5t71 26.5q57 0 93 -41l-56 -56q-14 11 -28 11q-13 0 -21 -8t-8 -21q0 -35 53 -35z" />
<glyph unicode="&#x626;" horiz-adv-x="408" arabic-form="medial" d="M408 205h16v-203q0 -2 -16 -2h-1q-114 0 -203 55q-89 -55 -203 -55h-1q-16 0 -16 2v203h16q72 0 109 14v303h190v-303q37 -14 109 -14zM251 702h67v-100h-225v100h48q-21 22 -21 57q0 40 27 66.5t71 26.5q57 0 93 -41l-56 -56q-14 11 -28 11q-13 0 -21 -8t-8 -21 q0 -35 53 -35z" />
<glyph unicode="&#x627;" horiz-adv-x="359" arabic-form="final" d="M359 205h16v-203q0 -2 -16 -2h-1q-132 0 -223 49q-42 23 -58.5 52t-16.5 81v548h190v-511q37 -14 109 -14z" />
<glyph unicode="&#x628;" horiz-adv-x="1229" arabic-form="final" d="M1229 205h16v-203q0 -2 -16 -2h-1q-117 0 -203 55q-100 -55 -270 -55h-383q-159 0 -238 62.5t-79 200.5q0 90 35 192l174 -32q-20 -58 -20 -100q0 -60 32.5 -89t103.5 -29h416q97 0 134 23v294h190v-303q37 -14 109 -14zM502 -145q0 40 27.5 67.5t67.5 27.5 q39 0 67 -27.5t28 -67.5t-28 -67.5t-67 -27.5q-40 0 -67.5 27.5t-27.5 67.5z" />
<glyph unicode="&#x628;" horiz-adv-x="359" arabic-form="initial" d="M109 522h190v-411q-40 -50 -119 -80.5t-179 -30.5h-1q-16 0 -16 2v203h16q72 0 109 14v303zM83 -145q0 40 27.5 67.5t67.5 27.5q39 0 67 -27.5t28 -67.5t-28 -67.5t-67 -27.5q-40 0 -67.5 27.5t-27.5 67.5z" />
<glyph unicode="&#x628;" horiz-adv-x="408" arabic-form="medial" d="M408 205h16v-203q0 -2 -16 -2h-1q-114 0 -203 55q-89 -55 -203 -55h-1q-16 0 -16 2v203h16q72 0 109 14v303h190v-303q37 -14 109 -14zM111 -145q0 40 27.5 67.5t67.5 27.5q39 0 67 -27.5t28 -67.5t-28 -67.5t-67 -27.5q-40 0 -67.5 27.5t-27.5 67.5z" />
<glyph unicode="&#x629;" horiz-adv-x="664" arabic-form="final" d="M680 205v-203q0 -2 -16 -2h-309q-150 0 -232.5 70t-82.5 182q0 116 73.5 187t208.5 71q120 0 233 -51v-254h125zM314 205h51v112q-25 13 -57 13q-35 0 -55.5 -16.5t-20.5 -48.5q0 -60 82 -60zM123 655q0 40 27.5 67.5t67.5 27.5q39 0 66.5 -27.5t27.5 -67.5t-27.5 -67.5 t-66.5 -27.5q-40 0 -67.5 27.5t-27.5 67.5zM332 655q0 40 27.5 67.5t67.5 27.5q39 0 66.5 -27.5t27.5 -67.5t-27.5 -67.5t-66.5 -27.5q-40 0 -67.5 27.5t-27.5 67.5z" />
<glyph unicode="&#x62a;" horiz-adv-x="1229" arabic-form="final" d="M1229 205h16v-203q0 -2 -16 -2h-1q-117 0 -203 55q-100 -55 -270 -55h-383q-159 0 -238 62.5t-79 200.5q0 90 35 192l174 -32q-20 -58 -20 -100q0 -60 32.5 -89t103.5 -29h416q97 0 134 23v294h190v-303q37 -14 109 -14zM378 615q0 40 27.5 67.5t67.5 27.5 q39 0 66.5 -27.5t27.5 -67.5t-27.5 -67.5t-66.5 -27.5q-40 0 -67.5 27.5t-27.5 67.5zM587 615q0 40 27.5 67.5t67.5 27.5q39 0 66.5 -27.5t27.5 -67.5t-27.5 -67.5t-66.5 -27.5q-40 0 -67.5 27.5t-27.5 67.5z" />
<glyph unicode="&#x62a;" horiz-adv-x="359" arabic-form="initial" d="M109 522h190v-411q-40 -50 -119 -80.5t-179 -30.5h-1q-16 0 -16 2v203h16q72 0 109 14v303zM4 687q0 40 27.5 67.5t67.5 27.5q39 0 66.5 -27.5t27.5 -67.5t-27.5 -67.5t-66.5 -27.5q-40 0 -67.5 27.5t-27.5 67.5zM213 687q0 40 27.5 67.5t67.5 27.5q39 0 66.5 -27.5 t27.5 -67.5t-27.5 -67.5t-66.5 -27.5q-40 0 -67.5 27.5t-27.5 67.5z" />
<glyph unicode="&#x62a;" horiz-adv-x="408" arabic-form="medial" d="M408 205h16v-203q0 -2 -16 -2h-1q-114 0 -203 55q-89 -55 -203 -55h-1q-16 0 -16 2v203h16q72 0 109 14v303h190v-303q37 -14 109 -14zM7 687q0 40 27.5 67.5t67.5 27.5q39 0 66.5 -27.5t27.5 -67.5t-27.5 -67.5t-66.5 -27.5q-40 0 -67.5 27.5t-27.5 67.5zM216 687 q0 40 27.5 67.5t67.5 27.5q39 0 66.5 -27.5t27.5 -67.5t-27.5 -67.5t-66.5 -27.5q-40 0 -67.5 27.5t-27.5 67.5z" />
<glyph unicode="&#x62b;" horiz-adv-x="1229" arabic-form="final" d="M1229 205h16v-203q0 -2 -16 -2h-1q-117 0 -203 55q-100 -55 -270 -55h-383q-159 0 -238 62.5t-79 200.5q0 90 35 192l174 -32q-20 -58 -20 -100q0 -60 32.5 -89t103.5 -29h416q97 0 134 23v294h190v-303q37 -14 109 -14zM497 758q0 34 23 57t56 23q32 0 55 -23t23 -57 q0 -33 -23 -56t-55 -23q-33 0 -56 23t-23 56zM406 599q0 33 23 56t56 23t56 -23t23 -56t-23 -56t-56 -23t-56 23t-23 56zM590 599q0 33 23 56t57 23q32 0 55 -23t23 -56t-23 -56t-55 -23q-34 0 -57 23t-23 56z" />
<glyph unicode="&#x62b;" horiz-adv-x="359" arabic-form="initial" d="M109 522h190v-411q-40 -50 -119 -80.5t-179 -30.5h-1q-16 0 -16 2v203h16q72 0 109 14v303zM123 830q0 34 23 57t56 23q32 0 55 -23t23 -57q0 -33 -23 -56t-55 -23q-33 0 -56 23t-23 56zM32 671q0 33 23 56t56 23t56 -23t23 -56t-23 -56t-56 -23t-56 23t-23 56zM216 671 q0 33 23 56t57 23q32 0 55 -23t23 -56t-23 -56t-55 -23q-34 0 -57 23t-23 56z" />
<glyph unicode="&#x62b;" horiz-adv-x="408" arabic-form="medial" d="M408 205h16v-203q0 -2 -16 -2h-1q-114 0 -203 55q-89 -55 -203 -55h-1q-16 0 -16 2v203h16q72 0 109 14v303h190v-303q37 -14 109 -14zM126 830q0 34 23 57t56 23q32 0 55 -23t23 -57q0 -33 -23 -56t-55 -23q-33 0 -56 23t-23 56zM35 671q0 33 23 56t56 23t56 -23t23 -56 t-23 -56t-56 -23t-56 23t-23 56zM219 671q0 33 23 56t57 23q32 0 55 -23t23 -56t-23 -56t-55 -23q-34 0 -57 23t-23 56z" />
<glyph unicode="&#x62c;" horiz-adv-x="746" arabic-form="final" d="M762 205v-203q0 -2 -16 -2h-432q-37 0 -60.5 -17t-23.5 -47t23.5 -47.5t60.5 -17.5h147v-205h-97q-167 0 -255.5 67.5t-88.5 193.5q0 133 81 203t239 70h114q-26 31 -46 88q-24 69 -42 90t-68 24q-55 0 -114 -37l-102 130q106 85 236 85q105 0 164 -50q58 -49 93 -163 q30 -101 61 -142q15 -20 67 -20h59zM523 -150q0 40 27.5 67.5t67.5 27.5q39 0 67 -27.5t28 -67.5t-28 -67.5t-67 -27.5q-40 0 -67.5 27.5t-27.5 67.5z" />
<glyph unicode="&#x62c;" horiz-adv-x="670" arabic-form="initial" d="M635 175l-53 -175h-582q-16 0 -16 2v203h394q-23 28 -42 82q-25 70 -43 90.5t-69 24.5q-55 0 -114 -37l-103 130q106 85 238 85q104 0 162.5 -49t94.5 -162q16 -49 32 -92q36 -85 101 -102zM203 -145q0 40 27.5 67.5t67.5 27.5q39 0 67 -27.5t28 -67.5t-28 -67.5 t-67 -27.5q-40 0 -67.5 27.5t-27.5 67.5z" />
<glyph unicode="&#x62c;" horiz-adv-x="671" arabic-form="medial" d="M687 205v-203q0 -2 -15 -2h-672q-16 0 -16 2v203h394q-23 28 -42 82q-25 70 -43 90.5t-69 24.5q-55 0 -114 -37l-103 130q106 85 238 85q105 0 164 -50q58 -49 93 -161q32 -107 63 -145q16 -19 66 -19h56zM201 -145q0 40 27.5 67.5t67.5 27.5q39 0 67 -27.5t28 -67.5 t-28 -67.5t-67 -27.5q-40 0 -67.5 27.5t-27.5 67.5z" />
<glyph unicode="&#x62d;" horiz-adv-x="746" arabic-form="final" d="M762 205v-203q0 -2 -16 -2h-432q-37 0 -60.5 -17t-23.5 -47t23.5 -47.5t60.5 -17.5h147v-205h-97q-167 0 -255.5 67.5t-88.5 193.5q0 133 81 203t239 70h114q-26 31 -46 88q-24 69 -42 90t-68 24q-55 0 -114 -37l-102 130q106 85 236 85q105 0 164 -50q58 -49 93 -163 q30 -101 61 -142q15 -20 67 -20h59z" />
<glyph unicode="&#x62d;" horiz-adv-x="670" arabic-form="initial" d="M635 175l-53 -175h-582q-16 0 -16 2v203h394q-23 28 -42 82q-25 70 -43 90.5t-69 24.5q-55 0 -114 -37l-103 130q106 85 238 85q104 0 162.5 -49t94.5 -162q16 -49 32 -92q36 -85 101 -102z" />
<glyph unicode="&#x62d;" horiz-adv-x="671" arabic-form="medial" d="M687 205v-203q0 -2 -15 -2h-672q-16 0 -16 2v203h394q-23 28 -42 82q-25 70 -43 90.5t-69 24.5q-55 0 -114 -37l-103 130q106 85 238 85q105 0 164 -50q58 -49 93 -161q32 -107 63 -145q16 -19 66 -19h56z" />
<glyph unicode="&#x62e;" horiz-adv-x="746" arabic-form="final" d="M762 205v-203q0 -2 -16 -2h-432q-37 0 -60.5 -17t-23.5 -47t23.5 -47.5t60.5 -17.5h147v-205h-97q-167 0 -255.5 67.5t-88.5 193.5q0 133 81 203t239 70h114q-26 31 -46 88q-24 69 -42 90t-68 24q-55 0 -114 -37l-102 130q106 85 236 85q105 0 164 -50q58 -49 93 -163 q30 -101 61 -142q15 -20 67 -20h59zM241 725q0 40 28 67.5t68 27.5q39 0 66.5 -27.5t27.5 -67.5t-27.5 -67.5t-66.5 -27.5q-40 0 -68 27.5t-28 67.5z" />
<glyph unicode="&#x62e;" horiz-adv-x="670" arabic-form="initial" d="M635 175l-53 -175h-582q-16 0 -16 2v203h394q-23 28 -42 82q-25 70 -43 90.5t-69 24.5q-55 0 -114 -37l-103 130q106 85 238 85q104 0 162.5 -49t94.5 -162q16 -49 32 -92q36 -85 101 -102zM163 725q0 40 28 67.5t68 27.5q39 0 66.5 -27.5t27.5 -67.5t-27.5 -67.5 t-66.5 -27.5q-40 0 -68 27.5t-28 67.5z" />
<glyph unicode="&#x62e;" horiz-adv-x="671" arabic-form="medial" d="M687 205v-203q0 -2 -15 -2h-672q-16 0 -16 2v203h394q-23 28 -42 82q-25 70 -43 90.5t-69 24.5q-55 0 -114 -37l-103 130q106 85 238 85q105 0 164 -50q58 -49 93 -161q32 -107 63 -145q16 -19 66 -19h56zM162 725q0 40 28 67.5t68 27.5q39 0 66.5 -27.5t27.5 -67.5 t-27.5 -67.5t-66.5 -27.5q-40 0 -68 27.5t-28 67.5z" />
<glyph unicode="&#x62f;" horiz-adv-x="632" arabic-form="final" d="M648 205v-203q0 -2 -16 -2h-592v205h300v94q0 61 -85 61h-139v190h92q97 -1 156 -12t97 -39.5t52.5 -72.5t16.5 -117v-104h118z" />
<glyph unicode="&#x630;" horiz-adv-x="632" arabic-form="final" d="M648 205v-203q0 -2 -16 -2h-592v205h300v94q0 61 -85 61h-139v190h92q97 -1 156 -12t97 -39.5t52.5 -72.5t16.5 -117v-104h118zM122 710q0 40 28 67.5t68 27.5q39 0 66.5 -27.5t27.5 -67.5t-27.5 -67.5t-66.5 -27.5q-40 0 -68 27.5t-28 67.5z" />
<glyph unicode="&#x631;" horiz-adv-x="449" arabic-form="final" d="M449 205h16v-203q0 -2 -16 -2h-1q-60 0 -109 15q-7 -148 -90 -214q-82 -66 -211 -66q-46 0 -78 6l37 194h34q67 0 93 25.5t26 84.5v455h190v-281q37 -14 109 -14z" />
<glyph unicode="&#x632;" horiz-adv-x="449" arabic-form="final" d="M449 205h16v-203q0 -2 -16 -2h-1q-60 0 -109 15q-7 -148 -90 -214q-82 -66 -211 -66q-46 0 -78 6l37 194h34q67 0 93 25.5t26 84.5v455h190v-281q37 -14 109 -14zM149 665q0 40 28 67.5t68 27.5q39 0 66.5 -27.5t27.5 -67.5t-27.5 -67.5t-66.5 -27.5q-40 0 -68 27.5 t-28 67.5z" />
<glyph unicode="&#x633;" horiz-adv-x="1522" arabic-form="final" d="M1522 205h16v-203q0 -2 -16 -2h-1q-93 0 -164 46q-74 -50 -157 -50t-154 50q-70 -50 -155 -50q-81 0 -137 52v-214q-54 -35 -147 -67q-91 -32 -191 -32q-166 0 -263.5 94t-97.5 254q0 74 22 158l173 -33q-11 -46 -11 -82q0 -92 52 -140t148 -48q82 0 148 23v444h190v-193 q28 -11 64 -11t64 11v193h190v-193q30 -11 64 -11q36 0 64 11v238h190v-231q37 -14 109 -14z" />
<glyph unicode="&#x633;" horiz-adv-x="995" arabic-form="initial" d="M745 510h190v-408q-90 -102 -254 -102q-83 0 -157 48q-70 -48 -161 -48q-90 0 -163 49q-83 -49 -199 -49h-1q-16 0 -16 2v203h16q72 0 109 14v186h190v-189q30 -11 64 -11q36 0 64 11v189h190v-189q30 -11 64 -11q36 0 64 11v294z" />
<glyph unicode="&#x633;" horiz-adv-x="1044" arabic-form="medial" d="M1044 205h16v-203q0 -2 -16 -2h-1q-100 0 -182 43q-76 -43 -180 -43q-83 0 -157 48q-70 -48 -161 -48q-90 0 -163 49q-83 -49 -199 -49h-1q-16 0 -16 2v203h16q72 0 109 14v186h190v-189q30 -11 64 -11q36 0 64 11v189h190v-189q30 -11 64 -11q36 0 64 11v234h190v-231 q37 -14 109 -14z" />
<glyph unicode="&#x634;" horiz-adv-x="1522" arabic-form="final" d="M1522 205h16v-203q0 -2 -16 -2h-1q-93 0 -164 46q-74 -50 -157 -50t-154 50q-70 -50 -155 -50q-81 0 -137 52v-214q-54 -35 -147 -67q-91 -32 -191 -32q-166 0 -263.5 94t-97.5 254q0 74 22 158l173 -33q-11 -46 -11 -82q0 -92 52 -140t148 -48q82 0 148 23v444h190v-193 q28 -11 64 -11t64 11v193h190v-193q30 -11 64 -11q36 0 64 11v238h190v-231q37 -14 109 -14zM919 723q0 34 23 57t56 23q32 0 55 -23t23 -57q0 -33 -23 -56t-55 -23q-33 0 -56 23t-23 56zM828 564q0 33 23 56t56 23t56 -23t23 -56t-23 -56t-56 -23t-56 23t-23 56zM1012 564 q0 33 23 56t57 23q32 0 55 -23t23 -56t-23 -56t-55 -23q-34 0 -57 23t-23 56z" />
<glyph unicode="&#x634;" horiz-adv-x="995" arabic-form="initial" d="M745 510h190v-408q-90 -102 -254 -102q-83 0 -157 48q-70 -48 -161 -48q-90 0 -163 49q-83 -49 -199 -49h-1q-16 0 -16 2v203h16q72 0 109 14v186h190v-189q30 -11 64 -11q36 0 64 11v189h190v-189q30 -11 64 -11q36 0 64 11v294zM442 723q0 34 23 57t56 23q32 0 55 -23 t23 -57q0 -33 -23 -56t-55 -23q-33 0 -56 23t-23 56zM351 564q0 33 23 56t56 23t56 -23t23 -56t-23 -56t-56 -23t-56 23t-23 56zM535 564q0 33 23 56t57 23q32 0 55 -23t23 -56t-23 -56t-55 -23q-34 0 -57 23t-23 56z" />
<glyph unicode="&#x634;" horiz-adv-x="1044" arabic-form="medial" d="M1044 205h16v-203q0 -2 -16 -2h-1q-100 0 -182 43q-76 -43 -180 -43q-83 0 -157 48q-70 -48 -161 -48q-90 0 -163 49q-83 -49 -199 -49h-1q-16 0 -16 2v203h16q72 0 109 14v186h190v-189q30 -11 64 -11q36 0 64 11v189h190v-189q30 -11 64 -11q36 0 64 11v234h190v-231 q37 -14 109 -14zM442 723q0 34 23 57t56 23q32 0 55 -23t23 -57q0 -33 -23 -56t-55 -23q-33 0 -56 23t-23 56zM351 564q0 33 23 56t56 23t56 -23t23 -56t-23 -56t-56 -23t-56 23t-23 56zM535 564q0 33 23 56t57 23q32 0 55 -23t23 -56t-23 -56t-55 -23q-34 0 -57 23t-23 56z " />
<glyph unicode="&#x635;" horiz-adv-x="1458" arabic-form="final" d="M1474 205v-203q0 -2 -16 -2h-681v-153q-65 -45 -161 -78q-93 -34 -198 -34q-167 0 -265 94.5t-98 255.5q0 72 22 156l173 -33q-11 -46 -11 -82q0 -92 52 -140t148 -48q82 0 148 23v539h190v-87q85 87 159.5 127t156.5 40q117 0 190.5 -74.5t73.5 -217.5v-83h117zM785 205 h382v48q0 56 -19 95q-20 42 -84 42q-111 0 -279 -185z" />
<glyph unicode="&#x635;" horiz-adv-x="939" arabic-form="initial" d="M879 288v-288h-879q-16 0 -16 2v203h125v295h190v-87q85 87 159.5 127t156.5 40q117 0 190.5 -74.5t73.5 -217.5zM307 205h382v48q0 58 -19 97q-18 40 -82 40q-113 0 -281 -185z" />
<glyph unicode="&#x635;" horiz-adv-x="980" arabic-form="medial" d="M996 205v-203q0 -2 -16 -2h-980q-16 0 -16 2v203h125v295h190v-87q85 87 159.5 127t156.5 40q117 0 190.5 -74.5t73.5 -217.5v-83h117zM307 205h382v48q0 58 -19 97q-18 40 -82 40q-113 0 -281 -185z" />
<glyph unicode="&#x636;" horiz-adv-x="1458" arabic-form="final" d="M1474 205v-203q0 -2 -16 -2h-681v-153q-65 -45 -161 -78q-93 -34 -198 -34q-167 0 -265 94.5t-98 255.5q0 72 22 156l173 -33q-11 -46 -11 -82q0 -92 52 -140t148 -48q82 0 148 23v539h190v-87q85 87 159.5 127t156.5 40q117 0 190.5 -74.5t73.5 -217.5v-83h117zM785 205 h382v48q0 56 -19 95q-20 42 -84 42q-111 0 -279 -185zM823 725q0 40 28 67.5t68 27.5q39 0 66.5 -27.5t27.5 -67.5t-27.5 -67.5t-66.5 -27.5q-40 0 -68 27.5t-28 67.5z" />
<glyph unicode="&#x636;" horiz-adv-x="939" arabic-form="initial" d="M879 288v-288h-879q-16 0 -16 2v203h125v295h190v-87q85 87 159.5 127t156.5 40q117 0 190.5 -74.5t73.5 -217.5zM307 205h382v48q0 58 -19 97q-18 40 -82 40q-113 0 -281 -185zM307 725q0 40 28 67.5t68 27.5q39 0 66.5 -27.5t27.5 -67.5t-27.5 -67.5t-66.5 -27.5 q-40 0 -68 27.5t-28 67.5z" />
<glyph unicode="&#x636;" horiz-adv-x="980" arabic-form="medial" d="M996 205v-203q0 -2 -16 -2h-980q-16 0 -16 2v203h125v295h190v-87q85 87 159.5 127t156.5 40q117 0 190.5 -74.5t73.5 -217.5v-83h117zM307 205h382v48q0 58 -19 97q-18 40 -82 40q-113 0 -281 -185zM307 725q0 40 28 67.5t68 27.5q39 0 66.5 -27.5t27.5 -67.5 t-27.5 -67.5t-66.5 -27.5q-40 0 -68 27.5t-28 67.5z" />
<glyph unicode="&#x637;" horiz-adv-x="991" arabic-form="final" d="M1007 205v-203q0 -2 -16 -2h-951v205h80v525h190v-317q85 87 159.5 127t156.5 40q117 0 190.5 -74.5t73.5 -217.5v-83h117zM318 205h382v48q0 56 -19 95q-19 42 -84 42q-111 0 -279 -185z" />
<glyph unicode="&#x637;" horiz-adv-x="939" arabic-form="initial" d="M879 288v-288h-879q-16 0 -16 2v203h125v525h190v-317q85 87 159.5 127t156.5 40q117 0 190.5 -74.5t73.5 -217.5zM307 205h382v48q0 57 -19 96q-20 41 -84 41q-111 0 -279 -185z" />
<glyph unicode="&#x637;" horiz-adv-x="980" arabic-form="medial" d="M996 205v-203q0 -2 -16 -2h-980q-16 0 -16 2v203h125v525h190v-317q85 87 159.5 127t156.5 40q117 0 190.5 -74.5t73.5 -217.5v-83h117zM307 205h382v48q0 57 -19 96q-20 41 -84 41q-111 0 -279 -185z" />
<glyph unicode="&#x638;" horiz-adv-x="991" arabic-form="final" d="M1007 205v-203q0 -2 -16 -2h-951v205h80v525h190v-317q85 87 159.5 127t156.5 40q117 0 190.5 -74.5t73.5 -217.5v-83h117zM318 205h382v48q0 56 -19 95q-19 42 -84 42q-111 0 -279 -185zM428 740q0 40 28 67.5t68 27.5q39 0 66.5 -27.5t27.5 -67.5t-27.5 -67.5 t-66.5 -27.5q-40 0 -68 27.5t-28 67.5z" />
<glyph unicode="&#x638;" horiz-adv-x="939" arabic-form="initial" d="M879 288v-288h-879q-16 0 -16 2v203h125v525h190v-317q85 87 159.5 127t156.5 40q117 0 190.5 -74.5t73.5 -217.5zM307 205h382v48q0 57 -19 96q-20 41 -84 41q-111 0 -279 -185zM424 740q0 40 28 67.5t68 27.5q39 0 66.5 -27.5t27.5 -67.5t-27.5 -67.5t-66.5 -27.5 q-40 0 -68 27.5t-28 67.5z" />
<glyph unicode="&#x638;" horiz-adv-x="980" arabic-form="medial" d="M996 205v-203q0 -2 -16 -2h-980q-16 0 -16 2v203h125v525h190v-317q85 87 159.5 127t156.5 40q117 0 190.5 -74.5t73.5 -217.5v-83h117zM307 205h382v48q0 57 -19 96q-20 41 -84 41q-111 0 -279 -185zM424 740q0 40 28 67.5t68 27.5q39 0 66.5 -27.5t27.5 -67.5 t-27.5 -67.5t-66.5 -27.5q-40 0 -68 27.5t-28 67.5z" />
<glyph unicode="&#x639;" horiz-adv-x="767" arabic-form="final" d="M783 205v-203q0 -2 -16 -2h-470q-40 0 -63.5 -17t-23.5 -47t23.5 -47.5t63.5 -17.5h158v-205h-102q-172 0 -257.5 67.5t-85.5 194.5q0 94 59.5 160t171.5 95l-134 199l34 151q125 49 254 49q116 0 189 -47q73 -46 73 -144q0 -111 -88 -186h214zM389 392q-27 0 -63 -13 l67 -141q31 15 50 40.5t19 53.5t-19.5 44t-53.5 16z" />
<glyph unicode="&#x639;" horiz-adv-x="656" arabic-form="initial" d="M416 205h200v-205h-616q-16 0 -16 2v203h138q-46 61 -46 144q0 106 78.5 168.5t196.5 62.5q141 0 231 -96l-132 -125q-30 40 -85 40q-42 0 -67.5 -25t-25.5 -67q0 -102 144 -102z" />
<glyph unicode="&#x639;" horiz-adv-x="686" arabic-form="medial" d="M702 205v-203q0 -2 -16 -2h-686q-16 0 -16 2v203h190l-118 175l34 151q125 49 254 49q116 0 189 -47q73 -46 73 -144q0 -110 -86 -184h182zM338 390q-27 0 -63 -13l67 -141q31 15 50 40.5t19 53.5t-19.5 44t-53.5 16z" />
<glyph unicode="&#x63a;" horiz-adv-x="767" arabic-form="final" d="M783 205v-203q0 -2 -16 -2h-470q-40 0 -63.5 -17t-23.5 -47t23.5 -47.5t63.5 -17.5h158v-205h-102q-172 0 -257.5 67.5t-85.5 194.5q0 94 59.5 160t171.5 95l-134 199l34 151q125 49 254 49q116 0 189 -47q73 -46 73 -144q0 -111 -88 -186h214zM389 392q-27 0 -63 -13 l67 -141q31 15 50 40.5t19 53.5t-19.5 44t-53.5 16zM319 725q0 40 28 67.5t68 27.5q39 0 66.5 -27.5t27.5 -67.5t-27.5 -67.5t-66.5 -27.5q-40 0 -68 27.5t-28 67.5z" />
<glyph unicode="&#x63a;" horiz-adv-x="656" arabic-form="initial" d="M416 205h200v-205h-616q-16 0 -16 2v203h138q-46 61 -46 144q0 106 78.5 168.5t196.5 62.5q141 0 231 -96l-132 -125q-30 40 -85 40q-42 0 -67.5 -25t-25.5 -67q0 -102 144 -102zM255 725q0 40 28 67.5t68 27.5q39 0 66.5 -27.5t27.5 -67.5t-27.5 -67.5t-66.5 -27.5 q-40 0 -68 27.5t-28 67.5z" />
<glyph unicode="&#x63a;" horiz-adv-x="686" arabic-form="medial" d="M702 205v-203q0 -2 -16 -2h-686q-16 0 -16 2v203h190l-118 175l34 151q125 49 254 49q116 0 189 -47q73 -46 73 -144q0 -110 -86 -184h182zM338 390q-27 0 -63 -13l67 -141q31 15 50 40.5t19 53.5t-19.5 44t-53.5 16zM246 725q0 40 28 67.5t68 27.5q39 0 66.5 -27.5 t27.5 -67.5t-27.5 -67.5t-66.5 -27.5q-40 0 -68 27.5t-28 67.5z" />
<glyph unicode="&#x641;" horiz-adv-x="1307" arabic-form="final" d="M1323 205v-203q0 -2 -16 -2h-935q-159 0 -238 62.5t-79 200.5q0 90 35 192l174 -32q-20 -58 -20 -100q0 -60 32.5 -89t103.5 -29h394q-74 56 -74 155q0 102 74.5 158t193.5 56q110 0 230 -53v-316h125zM893 323q0 -35 31.5 -58t83.5 -32v146q-18 7 -44 7q-33 0 -52 -17.5 t-19 -45.5zM872 719q0 40 28 67.5t68 27.5q39 0 66.5 -27.5t27.5 -67.5t-27.5 -67.5t-66.5 -27.5q-40 0 -68 27.5t-28 67.5z" />
<glyph unicode="&#x641;" horiz-adv-x="636" arabic-form="initial" d="M576 521v-446q-56 -34 -151 -54.5t-208 -20.5h-217q-16 0 -16 2v203h168q-74 56 -74 155q0 102 74.5 158t193.5 56q110 0 230 -53zM271 323q0 -73 115 -92v148q-18 7 -44 7q-32 0 -51.5 -17t-19.5 -46zM250 719q0 40 28 67.5t68 27.5q39 0 66.5 -27.5t27.5 -67.5 t-27.5 -67.5t-66.5 -27.5q-40 0 -68 27.5t-28 67.5z" />
<glyph unicode="&#x641;" horiz-adv-x="677" arabic-form="medial" d="M693 205v-203q0 -2 -16 -2h-677q-16 0 -16 2v203h158q-65 65 -65 154q0 100 72.5 160.5t188.5 60.5q117 0 189.5 -60.5t72.5 -160.5q0 -89 -65 -154h158zM272 323q0 -58 67 -90q66 32 66 90q0 32 -18 51t-48 19t-48.5 -19t-18.5 -51zM242 725q0 40 28 67.5t68 27.5 q39 0 66.5 -27.5t27.5 -67.5t-27.5 -67.5t-66.5 -27.5q-40 0 -68 27.5t-28 67.5z" />
<glyph unicode="&#x642;" horiz-adv-x="943" arabic-form="final" d="M959 204v-203q0 -2 -16 -2h-106v-156q-67 -48 -174 -78q-106 -30 -218 -30q-181 0 -285.5 95.5t-104.5 254.5q0 70 23 156l172 -34q-11 -42 -11 -80q0 -94 60 -141.5t170 -47.5q91 0 178 21v51h-18q-151 0 -229 63t-78 177q0 117 74 188.5t208 71.5q120 0 233 -51v-255 h122zM596 205h51v117q-27 11 -56 11q-77 0 -77 -66q0 -62 82 -62zM405 655q0 40 27.5 67.5t67.5 27.5q39 0 66.5 -27.5t27.5 -67.5t-27.5 -67.5t-66.5 -27.5q-40 0 -67.5 27.5t-27.5 67.5zM614 655q0 40 27.5 67.5t67.5 27.5q39 0 66.5 -27.5t27.5 -67.5t-27.5 -67.5 t-66.5 -27.5q-40 0 -67.5 27.5t-27.5 67.5z" />
<glyph unicode="&#x642;" horiz-adv-x="636" arabic-form="initial" d="M576 521v-446q-56 -34 -151 -54.5t-208 -20.5h-217q-16 0 -16 2v203h168q-74 56 -74 155q0 102 74.5 158t193.5 56q110 0 230 -53zM271 323q0 -73 115 -92v148q-18 7 -44 7q-32 0 -51.5 -17t-19.5 -46zM147 719q0 40 27.5 67.5t67.5 27.5q39 0 66.5 -27.5t27.5 -67.5 t-27.5 -67.5t-66.5 -27.5q-40 0 -67.5 27.5t-27.5 67.5zM356 719q0 40 27.5 67.5t67.5 27.5q39 0 66.5 -27.5t27.5 -67.5t-27.5 -67.5t-66.5 -27.5q-40 0 -67.5 27.5t-27.5 67.5z" />
<glyph unicode="&#x642;" horiz-adv-x="677" arabic-form="medial" d="M693 205v-203q0 -2 -16 -2h-677q-16 0 -16 2v203h158q-65 65 -65 154q0 100 72.5 160.5t188.5 60.5q117 0 189.5 -60.5t72.5 -160.5q0 -89 -65 -154h158zM272 323q0 -58 67 -90q66 32 66 90q0 32 -18 51t-48 19t-48.5 -19t-18.5 -51zM139 725q0 40 27.5 67.5t67.5 27.5 q39 0 66.5 -27.5t27.5 -67.5t-27.5 -67.5t-66.5 -27.5q-40 0 -67.5 27.5t-27.5 67.5zM348 725q0 40 27.5 67.5t67.5 27.5q39 0 66.5 -27.5t27.5 -67.5t-27.5 -67.5t-66.5 -27.5q-40 0 -67.5 27.5t-27.5 67.5z" />
<glyph unicode="&#x643;" horiz-adv-x="1159" arabic-form="final" d="M1159 205h16v-203q0 -2 -16 -2h-1q-117 0 -203 55q-100 -55 -270 -55h-313q-159 0 -238 62.5t-79 200.5q0 90 35 192l174 -32q-20 -58 -20 -100q0 -60 32.5 -89t103.5 -29h346q97 0 134 23v502h190v-511q37 -14 109 -14zM663 477v-100h-225v100h48q-21 23 -21 57 q0 40 27 66.5t71 26.5q57 0 93 -41l-56 -56q-14 11 -28 11q-13 0 -21 -8t-8 -21q0 -35 53 -35h67z" />
<glyph unicode="&#x643;" horiz-adv-x="632" arabic-form="initial" d="M572 253v-174q-64 -40 -161 -59q-100 -20 -189 -20h-222q-16 0 -16 2v203h258q95 0 140 27v15q-4 29 -26.5 41t-128.5 41l-139 38l-39 147l372 270l95 -120l-232 -167l48 -14q103 -30 144 -50q49 -23 72.5 -64.5t23.5 -115.5z" />
<glyph unicode="&#x643;" horiz-adv-x="640" arabic-form="medial" d="M640 205h16v-203q0 -2 -16 -2h-1q-85 0 -159 38q-122 -38 -258 -38h-222q-16 0 -16 2v203h258q95 0 140 27v15q-4 29 -26.5 41t-128.5 41l-139 38l-39 147l372 270l95 -120l-232 -167l48 -14q103 -30 144 -50q49 -23 72.5 -64.5t23.5 -115.5v-34q33 -14 68 -14z" />
<glyph unicode="&#x644;" horiz-adv-x="886" arabic-form="final" d="M886 205h16v-203q0 -2 -16 -2h-1q-55 0 -108 14v-178q-65 -37 -159 -68q-96 -33 -200 -33q-166 0 -264.5 94t-98.5 254q0 74 22 158l173 -33q-11 -46 -11 -82q0 -92 52 -140t148 -48q82 0 148 23v769h190v-511q37 -14 109 -14z" />
<glyph unicode="&#x644;" horiz-adv-x="359" arabic-form="initial" d="M109 730h190v-588q-42 -60 -119 -101q-79 -41 -179 -41h-1q-16 0 -16 2v203h16q72 0 109 14v511z" />
<glyph unicode="&#x644;" horiz-adv-x="408" arabic-form="medial" d="M408 205h16v-203q0 -2 -16 -2h-1q-114 0 -203 55q-89 -55 -203 -55h-1q-16 0 -16 2v203h16q72 0 109 14v511h190v-511q37 -14 109 -14z" />
<glyph unicode="&#x645;" horiz-adv-x="792" arabic-form="final" d="M792 205h16v-203q0 -2 -16 -2h-1q-85 0 -161 35q-77 -85 -198 -85q-58 0 -108 21q-48 21 -80 53q-39 -4 -39 -42q0 -142 20 -325h-190q-20 186 -20 331q0 85 38.5 126.5t119.5 46.5q-4 17 -4 49q0 112 75 186t188 74q112 0 187 -72.5t76 -181.5q38 -11 97 -11zM503 210 q0 30 -19.5 50t-53.5 20q-31 0 -50 -20t-19 -50t19 -50t50 -20q34 0 53.5 20t19.5 50z" />
<glyph unicode="&#x645;" horiz-adv-x="671" arabic-form="initial" d="M631 210q0 -112 -75 -186t-188 -74q-123 0 -200 86q-75 -36 -167 -36h-1q-16 0 -16 2v203h16q66 0 105 11q1 109 76 181.5t187 72.5q113 0 188 -74t75 -186zM439 210q0 30 -19.5 50t-53.5 20q-31 0 -50 -20t-19 -50t19 -50t50 -20q34 0 53.5 20t19.5 50z" />
<glyph unicode="&#x645;" horiz-adv-x="720" arabic-form="medial" d="M720 205h16v-203q0 -2 -16 -2h-1q-87 0 -159 36q-75 -86 -200 -86q-123 0 -200 86q-70 -36 -159 -36h-1q-16 0 -16 2v203h16q59 0 97 11q1 109 76 181.5t187 72.5t187 -72.5t76 -181.5q38 -11 97 -11zM431 210q0 30 -19.5 50t-53.5 20q-31 0 -50 -20t-19 -50t19 -50 t50 -20q34 0 53.5 20t19.5 50z" />
<glyph unicode="&#x646;" horiz-adv-x="873" arabic-form="final" d="M873 205h16v-203q0 -2 -16 -2h-1q-63 0 -114 21v-189q-68 -40 -156 -67q-90 -30 -192 -30q-165 0 -260 94t-95 254q0 74 22 158l173 -34q-11 -46 -11 -81q0 -92 52 -140t148 -48q82 0 148 23v444h177v-154q0 -34 30 -40q36 -6 79 -6zM291 426q0 40 28 67.5t68 27.5 q39 0 66.5 -27.5t27.5 -67.5t-27.5 -67.5t-66.5 -27.5q-40 0 -68 27.5t-28 67.5z" />
<glyph unicode="&#x646;" horiz-adv-x="359" arabic-form="initial" d="M109 522h190v-411q-40 -50 -119 -80.5t-179 -30.5h-1q-16 0 -16 2v203h16q72 0 109 14v303zM107 687q0 40 28 67.5t68 27.5q39 0 66.5 -27.5t27.5 -67.5t-27.5 -67.5t-66.5 -27.5q-40 0 -68 27.5t-28 67.5z" />
<glyph unicode="&#x646;" horiz-adv-x="408" arabic-form="medial" d="M408 205h16v-203q0 -2 -16 -2h-1q-114 0 -203 55q-89 -55 -203 -55h-1q-16 0 -16 2v203h16q72 0 109 14v303h190v-303q37 -14 109 -14zM110 687q0 40 28 67.5t68 27.5q39 0 66.5 -27.5t27.5 -67.5t-27.5 -67.5t-66.5 -27.5q-40 0 -68 27.5t-28 67.5z" />
<glyph unicode="&#x647;" horiz-adv-x="664" arabic-form="final" d="M680 205v-203q0 -2 -16 -2h-309q-150 0 -232.5 70t-82.5 182q0 116 73.5 187t208.5 71q120 0 233 -51v-254h125zM314 205h51v112q-25 13 -57 13q-35 0 -55.5 -16.5t-20.5 -48.5q0 -60 82 -60z" />
<glyph unicode="&#x647;" horiz-adv-x="807" arabic-form="initial" d="M747 255v-255h-747q-16 0 -16 2v203h125q-29 44 -29 100q0 83 59 130q58 46 148 46q91 0 150 -47q58 -46 58 -129q0 -61 -31 -102l93 -1v64q0 131 -71 197.5t-202 66.5q-76 0 -131 -15v175q59 10 137 10q221 0 339 -111.5t118 -333.5zM244 267q0 -48 44 -60q43 10 43 60 q0 54 -43 54q-44 0 -44 -54z" />
<glyph unicode="&#x647;" horiz-adv-x="834" arabic-form="medial" d="M850 205v-203q0 -2 -16 -2h-834q-16 0 -16 2v203h125q-29 44 -29 100q0 83 59 130q58 46 148 46q91 0 150 -47q58 -46 58 -129q0 -61 -31 -102l93 -1v64q0 131 -71 197.5t-202 66.5q-76 0 -131 -15v175q59 10 137 10q221 0 339 -111.5t118 -333.5v-50h103zM244 267 q0 -48 44 -60q43 10 43 60q0 54 -43 54q-44 0 -44 -54z" />
<glyph unicode="&#x648;" horiz-adv-x="669" arabic-form="final" d="M685 205v-203q0 -2 -16 -2h-116q-14 -142 -96 -203q-83 -62 -217 -62q-96 0 -189 26l35 183q88 -24 160 -24q65 0 91.5 20t27.5 60h-18q-149 0 -228 69t-79 181q0 117 74 188.5t208 71.5q120 0 233 -51v-254h130zM314 205h51v117q-27 11 -56 11q-77 0 -77 -65 q0 -63 82 -63z" />
<glyph unicode="&#x649;" horiz-adv-x="1136" arabic-form="final" d="M1136 205h16v-203q0 -2 -16 -2q-123 0 -182 34.5t-88 133.5l-24 82h-75q-46 0 -46 -34q0 -12 4 -23l101 -335q-68 -42 -185 -83q-114 -40 -223 -40q-166 0 -264.5 94t-98.5 254q0 74 22 158l173 -33q-11 -46 -11 -82q0 -92 52 -140t148 -48q37 0 85 6q46 6 80 17l-68 213 q-15 48 -15 87q0 85 57 132q59 47 147 47h256l47 -167q12 -41 31.5 -54.5t76.5 -13.5z" />
<glyph unicode="&#x64a;" horiz-adv-x="1136" arabic-form="final" d="M1136 205h16v-203q0 -2 -16 -2q-123 0 -182 34.5t-88 133.5l-24 82h-75q-46 0 -46 -34q0 -12 4 -23l101 -335q-68 -42 -185 -83q-114 -40 -223 -40q-166 0 -264.5 94t-98.5 254q0 74 22 158l173 -33q-11 -46 -11 -82q0 -92 52 -140t148 -48q37 0 85 6q46 6 80 17l-68 213 q-15 48 -15 87q0 85 57 132q59 47 147 47h256l47 -167q12 -41 31.5 -54.5t76.5 -13.5zM208 -410q0 40 27.5 67.5t67.5 27.5q39 0 66.5 -27.5t27.5 -67.5t-27.5 -67.5t-66.5 -27.5q-40 0 -67.5 27.5t-27.5 67.5zM417 -410q0 40 27.5 67.5t67.5 27.5q39 0 66.5 -27.5 t27.5 -67.5t-27.5 -67.5t-66.5 -27.5q-40 0 -67.5 27.5t-27.5 67.5z" />
<glyph unicode="&#x64a;" horiz-adv-x="359" arabic-form="initial" d="M109 522h190v-411q-40 -50 -119 -80.5t-179 -30.5h-1q-16 0 -16 2v203h16q72 0 109 14v303zM-21 -145q0 40 27.5 67.5t67.5 27.5q39 0 66.5 -27.5t27.5 -67.5t-27.5 -67.5t-66.5 -27.5q-40 0 -67.5 27.5t-27.5 67.5zM188 -145q0 40 27.5 67.5t67.5 27.5q39 0 66.5 -27.5 t27.5 -67.5t-27.5 -67.5t-66.5 -27.5q-40 0 -67.5 27.5t-27.5 67.5z" />
<glyph unicode="&#x64a;" horiz-adv-x="408" arabic-form="medial" d="M408 205h16v-203q0 -2 -16 -2h-1q-114 0 -203 55q-89 -55 -203 -55h-1q-16 0 -16 2v203h16q72 0 109 14v303h190v-303q37 -14 109 -14zM7 -145q0 40 27.5 67.5t67.5 27.5q39 0 66.5 -27.5t27.5 -67.5t-27.5 -67.5t-66.5 -27.5q-40 0 -67.5 27.5t-27.5 67.5zM216 -145 q0 40 27.5 67.5t67.5 27.5q39 0 66.5 -27.5t27.5 -67.5t-27.5 -67.5t-66.5 -27.5q-40 0 -67.5 27.5t-27.5 67.5z" />
<glyph unicode=" "  horiz-adv-x="250" />
<glyph unicode="&#x09;" horiz-adv-x="250" />
<glyph unicode="&#xa0;" horiz-adv-x="250" />
<glyph unicode="!" horiz-adv-x="287" d="M258 700l-21 -482h-186l-21 482h228zM250 80q0 -38 -31 -64.5t-75 -26.5t-75.5 26.5t-31.5 64.5t31.5 64.5t75.5 26.5t75 -27t31 -64z" />
<glyph unicode="&#x22;" horiz-adv-x="434" d="M188 710l-14 -265h-131l-13 265h158zM405 710l-14 -265h-131l-13 265h158z" />
<glyph unicode="#" horiz-adv-x="754" d="M652 700l-24 -133h106l-27 -154h-106l-21 -117h106l-27 -154h-106l-25 -142h-157l25 142h-113l-25 -142h-157l25 142h-106l27 154h106l21 117h-106l27 154h106l23 133h157l-23 -133h113l24 133h157zM444 413h-113l-21 -117h113z" />
<glyph unicode="$" horiz-adv-x="600" d="M386 -6v-112h-164v117q-149 27 -221 78l94 168q109 -69 230 -69q56 0 56 27q0 18 -15 26t-82 26q-144 39 -195.5 84.5t-51.5 134.5q0 90 48 149t137 78v117h164v-113q111 -16 202 -74l-83 -168q-48 28 -106 46q-57 18 -98 18q-40 0 -40 -21q0 -14 15 -22t78 -27 q142 -44 194 -93t52 -141q0 -197 -214 -229z" />
<glyph unicode="%" horiz-adv-x="946" d="M817 717l-523 -734h-164l522 734h165zM395 509q0 -93 -50 -147.5t-137 -54.5t-137.5 54.5t-50.5 147.5t50.5 147t137.5 54t137 -54t50 -147zM160 509q0 -36 13.5 -58t34.5 -22t34 22t13 58t-13 57.5t-34 21.5t-34.5 -21.5t-13.5 -57.5zM927 192q0 -93 -50.5 -147 t-137.5 -54t-137.5 54t-50.5 147t50.5 147.5t137.5 54.5t137.5 -54.5t50.5 -147.5zM691 192q0 -36 13.5 -57.5t34.5 -21.5t34.5 21.5t13.5 57.5t-13.5 58t-34.5 22t-34.5 -22t-13.5 -58z" />
<glyph unicode="&#x26;" horiz-adv-x="778" d="M657 183l72 -71l-142 -122l-56 61q-91 -61 -209 -61q-131 0 -201.5 50.5t-70.5 144.5q0 65 37.5 114t125.5 97q-52 57 -52 116q0 84 64.5 141t159.5 57q88 0 147.5 -50.5t59.5 -125.5q0 -101 -117 -172l60 -58q25 36 48 81l146 -67q-33 -76 -72 -135zM332 526 q0 -22 34 -56q39 19 51 30.5t12 28.5q0 44 -45 44q-22 0 -37 -13.5t-15 -33.5zM412 180l-92 100q-35 -21 -48.5 -36.5t-13.5 -33.5q0 -27 18 -41.5t51 -14.5q41 0 85 26z" />
<glyph unicode="'" horiz-adv-x="217" d="M188 710l-14 -265h-131l-13 265h158z" />
<glyph unicode="(" horiz-adv-x="342" d="M151 717l172 -88q-29 -75 -52 -186q-21 -107 -21 -206q0 -104 22 -211q24 -116 53 -188l-173 -88q-50 94 -87 229q-35 135 -35 258q0 121 35 255q34 130 86 225z" />
<glyph unicode=")" horiz-adv-x="342" d="M312 237q0 -125 -36 -258q-35 -134 -86 -229l-173 88q29 72 53 188q22 107 22 211q0 102 -22 206q-21 108 -51 186l172 88q52 -95 86 -225q35 -134 35 -255z" />
<glyph unicode="*" horiz-adv-x="433" d="M276 712l-2 -101l95 34l37 -113l-97 -30l61 -79l-96 -70l-57 84l-57 -84l-97 70l62 79l-98 30l37 113l96 -34l-3 101h119z" />
<glyph unicode="+" horiz-adv-x="600" d="M559 366v-155h-181v-182h-155v182h-182v155h182v181h155v-181h181z" />
<glyph unicode="," horiz-adv-x="272" d="M243 80q0 -25 -14 -45l-141 -205l-57 26l58 143q-59 25 -59 81q0 37 31 64t75 27t75.5 -26.5t31.5 -64.5z" />
<glyph unicode="-" horiz-adv-x="408" d="M378 344v-169h-348v169h348z" />
<glyph unicode="." horiz-adv-x="272" d="M243 80q0 -38 -31.5 -64.5t-75.5 -26.5t-75 26.5t-31 64.5q0 37 31 64t75 27t75.5 -26.5t31.5 -64.5z" />
<glyph unicode="/" horiz-adv-x="568" d="M549 717l-350 -734h-179l350 734h179z" />
<glyph unicode="0" horiz-adv-x="716" d="M681 340q0 -161 -87 -255.5t-236 -94.5t-236 94.5t-87 255.5t87 255.5t236 94.5t236 -94.5t87 -255.5zM258 340q0 -72 27 -113.5t73 -41.5q47 0 74 41.5t27 113.5t-27 113.5t-74 41.5q-46 0 -73 -41.5t-27 -113.5z" />
<glyph unicode="1" horiz-adv-x="432" d="M383 681v-681h-218v489l-116 -26l-39 162l202 56h171z" />
<glyph unicode="2" horiz-adv-x="611" d="M360 177h231v-177h-571v163l300 217q40 30 40 66q0 25 -15.5 39t-42.5 14q-34 0 -74 -20.5t-72 -54.5l-136 117q45 67 127 109q79 40 171 40q118 0 192 -64.5t74 -165.5q0 -66 -39.5 -121t-146.5 -134z" />
<glyph unicode="3" horiz-adv-x="630" d="M595 214q0 -99 -77 -161.5t-201 -62.5q-152 0 -297 107l133 138q29 -26 70 -42.5t77 -16.5q35 0 55.5 16t20.5 43q0 51 -78 51q-34 0 -103 -13l-34 114l149 117h-241v176h509v-155l-144 -114q69 -13 115 -68q46 -53 46 -129z" />
<glyph unicode="4" horiz-adv-x="678" d="M577 278h82v-161h-82v-117h-218v117h-315l-29 168l312 395h250v-402zM245 278h115v153z" />
<glyph unicode="5" horiz-adv-x="619" d="M600 230q0 -110 -75.5 -175t-203.5 -65q-178 0 -295 115l105 131q36 -28 83 -45.5t86 -17.5t60.5 17.5t21.5 47.5t-21.5 48t-57.5 18q-62 0 -103 -43l-132 68l19 351h483v-176h-300l-4 -70q50 11 93 11q113 0 177 -57t64 -158z" />
<glyph unicode="6" horiz-adv-x="633" d="M614 238q0 -106 -80.5 -177t-203.5 -71q-137 0 -216 92.5t-79 253.5q0 168 82.5 261t231.5 93q133 0 240 -71l-90 -137q-56 35 -120 35q-53 0 -82.5 -28t-39.5 -89q61 37 140 37q97 0 157 -55t60 -144zM410 227q0 34 -20.5 55t-53.5 21q-50 0 -80 -47q7 -56 26.5 -80.5 t55.5 -24.5q34 0 53 20.5t19 55.5z" />
<glyph unicode="7" horiz-adv-x="582" d="M20 680h548v-170l-286 -510h-246l284 493h-300v187z" />
<glyph unicode="8" horiz-adv-x="657" d="M623 190q0 -86 -82.5 -143t-211.5 -57t-211.5 57t-82.5 143q0 113 116 167q-94 50 -94 148q0 79 78 132t194 53t194 -53t78 -132q0 -98 -94 -148q116 -54 116 -167zM257 471q0 -30 19.5 -47.5t52.5 -17.5t52 17.5t19 47.5q0 29 -20 47.5t-51 18.5t-51.5 -18.5 t-20.5 -47.5zM407 214q0 31 -21.5 49.5t-56.5 18.5t-56.5 -18.5t-21.5 -49.5q0 -29 21.5 -48t56.5 -19t56.5 19t21.5 48z" />
<glyph unicode="9" horiz-adv-x="633" d="M599 344q0 -168 -82.5 -261t-231.5 -93q-133 0 -240 71l90 137q56 -35 120 -35q53 0 82.5 28t39.5 89q-61 -37 -140 -37q-97 0 -157 55t-60 144q0 106 80.5 177t203.5 71q137 0 216 -92.5t79 -253.5zM378 424q-7 56 -26.5 80.5t-55.5 24.5q-34 0 -53 -20.5t-19 -55.5 q0 -34 20.5 -55t53.5 -21q50 0 80 47z" />
<glyph unicode=":" horiz-adv-x="272" d="M243 80q0 -38 -31.5 -64.5t-75.5 -26.5t-75 26.5t-31 64.5q0 37 31 64t75 27t75.5 -26.5t31.5 -64.5zM243 424q0 -38 -31.5 -64.5t-75.5 -26.5t-75 26.5t-31 64.5q0 37 31 64t75 27t75.5 -26.5t31.5 -64.5z" />
<glyph unicode=";" horiz-adv-x="272" d="M243 80q0 -25 -14 -45l-141 -205l-57 26l58 143q-59 25 -59 81q0 37 31 64t75 27t75.5 -26.5t31.5 -64.5zM243 424q0 -38 -31.5 -64.5t-75.5 -26.5t-75 26.5t-31 64.5q0 37 31 64t75 27t75.5 -26.5t31.5 -64.5z" />
<glyph unicode="&#x3c;" horiz-adv-x="600" d="M559 579v-199l-312 -92l312 -92v-199l-518 184v214z" />
<glyph unicode="=" horiz-adv-x="600" d="M559 476v-155h-518v155h518zM559 256v-155h-518v155h518z" />
<glyph unicode="&#x3e;" horiz-adv-x="600" d="M41 579l518 -184v-214l-518 -184v199l312 92l-312 92v199z" />
<glyph unicode="?" horiz-adv-x="587" d="M558 497q0 -52 -26 -96q-26 -43 -89 -94l-11 -9q-24 -19 -31.5 -31.5t-7.5 -33.5l-1 -15h-185l-3 47q0 47 16 76t67 74l24 21q26 22 26 43t-15.5 33t-42.5 12q-26 0 -42.5 -12.5t-19.5 -34.5l-197 20q16 99 91 156t191 57t186 -58.5t70 -154.5zM406 80q0 -38 -31.5 -64.5 t-75.5 -26.5t-75 26.5t-31 64.5q0 37 31 64t75 27t75.5 -26.5t31.5 -64.5z" />
<glyph unicode="@" horiz-adv-x="995" d="M968 302q0 -134 -69 -214t-184 -80q-96 0 -176 44v44q-47 -51 -115 -51q-70 0 -112.5 53.5t-42.5 141.5t42.5 141.5t112.5 53.5q67 0 115 -51v44h153v-272q14 -2 15 -2q39 0 64.5 40.5t25.5 103.5q0 112 -79.5 184t-204.5 72q-137 0 -224 -87.5t-87 -225.5 q-2 -133 83 -221.5t213 -86.5q50 0 89 10l39 -151q-67 -14 -129 -14q-208 -2 -338.5 127.5t-128.5 336.5q-2 209 132 339.5t351 128.5q204 0 329.5 -112.5t125.5 -295.5zM419 240q0 -29 17.5 -47.5t44.5 -18.5q40 0 58 35v62q-18 35 -57 35q-27 0 -45 -19t-18 -47z" />
<glyph unicode="A" horiz-adv-x="862" d="M582 0l-36 107h-231l-35 -107h-260l267 700h285l270 -700h-260zM372 280h117l-59 178z" />
<glyph unicode="B" horiz-adv-x="737" d="M707 193q0 -83 -57 -138q-56 -55 -183 -55h-407v700h392q110 0 169.5 -46t59.5 -133q0 -111 -98 -154q124 -44 124 -174zM278 523v-98h109q67 0 67 49t-67 49h-109zM481 229q0 23 -17.5 37.5t-51.5 14.5h-134v-104h134q34 0 51.5 14.5t17.5 37.5z" />
<glyph unicode="C" horiz-adv-x="750" d="M720 551l-189 -105q-41 60 -115 60q-64 0 -104 -45q-40 -44 -40 -111t40 -111q41 -45 104 -45q74 0 115 60l189 -105q-51 -74 -132 -116.5t-174 -42.5q-149 -3 -261 106t-108 254q-4 145 108 254t261 106q93 0 174 -42.5t132 -116.5z" />
<glyph unicode="D" horiz-adv-x="790" d="M745 350q3 -145 -110 -248.5t-267 -101.5h-308v700h308q154 2 267 -101.5t110 -248.5zM360 506h-82v-312h82q66 0 114 45.5t48 110.5t-47.5 110.5t-114.5 45.5z" />
<glyph unicode="E" horiz-adv-x="682" d="M647 700v-193h-369v-62h344v-181h-344v-71h374v-193h-592v700h587z" />
<glyph unicode="F" horiz-adv-x="655" d="M625 700v-195h-347v-92h311v-185h-311v-228h-218v700h565z" />
<glyph unicode="G" horiz-adv-x="792" d="M716 606l-142 -148q-58 52 -139 52q-69 0 -116 -43t-47 -117q0 -66 42 -111t108 -45q58 0 109 24v41h-96v154h303v-317q-139 -106 -316 -106q-152 -3 -266 106t-111 254q-2 109 54 193t145 126t191 41q163 0 281 -104z" />
<glyph unicode="H" horiz-adv-x="795" d="M735 700v-700h-217v254h-240v-254h-218v700h218v-251h240v251h217z" />
<glyph unicode="I" horiz-adv-x="338" d="M278 700v-700h-218v700h218z" />
<glyph unicode="J" horiz-adv-x="619" d="M560 700v-410q0 -166 -71 -233t-216 -67q-98 0 -159.5 28.5t-93.5 93.5l175 112q18 -35 67 -35q80 0 80 101v410h218z" />
<glyph unicode="K" horiz-adv-x="774" d="M475 0l-113 230l-84 -102v-128h-218v700h218v-251l180 251h291l-244 -296l249 -404h-279z" />
<glyph unicode="L" horiz-adv-x="626" d="M278 700v-505h328v-195h-546v700h218z" />
<glyph unicode="M" horiz-adv-x="988" d="M644 700h284v-700h-214v409l-184 -311h-72l-184 311v-409h-214v700h284l150 -246z" />
<glyph unicode="N" horiz-adv-x="795" d="M522 700h213v-700h-223l-238 341v-341h-214v700h224l238 -341v341z" />
<glyph unicode="O" horiz-adv-x="843" d="M798 350q2 -95 -49.5 -179t-139 -133.5t-187.5 -47.5q-152 -3 -266 106t-111 254q-3 145 111 254t266 106q100 2 187.5 -47.5t139 -133.5t49.5 -179zM272 350q0 -66 42 -111t108 -45q65 0 107.5 45.5t42.5 110.5t-42.5 110.5t-107.5 45.5q-66 0 -108 -45t-42 -111z" />
<glyph unicode="P" horiz-adv-x="727" d="M60 700h313q161 0 237.5 -62t76.5 -192q0 -256 -288 -256h-121v-190h-218v700zM372 513h-94v-136h95q50 0 73 16t23 51q0 36 -23.5 52.5t-73.5 16.5z" />
<glyph unicode="Q" horiz-adv-x="843" d="M829 40l-116 -107l-104 104q-89 -47 -187 -47q-152 -3 -266 106t-111 254q-3 145 111 254t266 106q100 2 187.5 -47.5t139 -133.5t49.5 -179q0 -116 -70 -209zM450 196l-68 68l116 107l68 -68q6 23 6 47q0 65 -42.5 110.5t-107.5 45.5q-66 0 -108 -45t-42 -111t42 -111 t108 -45q4 0 28 2z" />
<glyph unicode="R" horiz-adv-x="743" d="M724 0h-250l-123 200h-73v-200h-218v700h319q174 0 251 -57.5t77 -187.5q0 -169 -132 -224zM278 514v-137h112q49 0 70 15.5t21 52.5t-21 53t-70 16h-112z" />
<glyph unicode="S" horiz-adv-x="710" d="M668 631l-91 -168q-65 31 -124 46q-64 18 -107 18q-50 0 -50 -28q0 -8 12.5 -14t56.5 -19l58 -16q91 -25 140 -49q118 -54 118 -179q0 -110 -80.5 -171t-228.5 -61q-190 0 -342 100l97 162q138 -76 264 -76q32 0 46 7.5t14 25.5q0 11 -13.5 18t-65.5 20l-64 16 q-75 18 -134 43q-114 51 -114 174q0 112 84 171q85 59 221 59q173 0 303 -79z" />
<glyph unicode="T" horiz-adv-x="643" d="M624 700v-185h-193v-515h-218v515h-193v185h604z" />
<glyph unicode="U" horiz-adv-x="771" d="M711 700v-375q0 -166 -82 -250.5t-243 -84.5t-243.5 85t-82.5 250v375h218v-375q0 -136 108 -136t108 136v375h217z" />
<glyph unicode="V" horiz-adv-x="838" d="M558 700h260l-258 -700h-285l-255 700h260l138 -453z" />
<glyph unicode="W" horiz-adv-x="1156" d="M893 700h243l-227 -700h-222l-109 362l-109 -362h-222l-227 700h243l106 -367l104 367h211l103 -367z" />
<glyph unicode="X" horiz-adv-x="790" d="M770 0h-266l-111 182l-112 -182h-261l237 356l-227 344h266l101 -167l102 167h261l-227 -342z" />
<glyph unicode="Y" horiz-adv-x="802" d="M525 700h257l-272 -463v-237h-218v234l-272 466h260l122 -233z" />
<glyph unicode="Z" horiz-adv-x="689" d="M647 700v-152l-304 -356h316v-192h-629v155l291 353h-266v192h592z" />
<glyph unicode="[" horiz-adv-x="357" d="M337 700v-139h-114v-655h114v-139h-307v933h307z" />
<glyph unicode="\" horiz-adv-x="568" d="M20 717h179l350 -734h-179z" />
<glyph unicode="]" horiz-adv-x="357" d="M327 700v-933h-307v139h114v655h-114v139h307z" />
<glyph unicode="^" horiz-adv-x="579" d="M416 710l134 -372h-195l-66 211l-66 -211h-193l134 372h252z" />
<glyph unicode="_" horiz-adv-x="664" d="M634 -52v-116h-604v116h604z" />
<glyph unicode="`" horiz-adv-x="391" d="M184 728l123 -178h-174l-158 178h209z" />
<glyph unicode="a" horiz-adv-x="585" d="M545 323v-323h-203v58q-68 -68 -150 -68q-73 0 -117.5 43t-44.5 111q0 69 47 108t130 39h135v12q0 51 -70 51q-64 0 -137 -39l-57 129q124 66 253 66q102 0 158 -48.5t56 -138.5zM342 127v83h-54q-57 0 -57 -47q0 -24 15 -38.5t42 -14.5q28 0 54 17z" />
<glyph unicode="b" horiz-adv-x="644" d="M614 250q0 -116 -59 -188t-152 -72q-87 0 -150 65v-55h-203v700h203v-255q63 65 150 65q93 0 152 -72t59 -188zM414 250q0 37 -23.5 62.5t-58.5 25.5q-52 0 -79 -45v-86q27 -45 79 -45q35 0 58.5 25.5t23.5 62.5z" />
<glyph unicode="c" horiz-adv-x="558" d="M534 392l-155 -85q-25 31 -70 31q-34 0 -57 -25t-23 -63t23 -63t57 -25q45 0 70 31l155 -85q-37 -55 -98 -86.5t-132 -31.5q-110 -2 -193 76t-81 184q-2 106 81 184t193 76q71 0 132 -31.5t98 -86.5z" />
<glyph unicode="d" horiz-adv-x="639" d="M391 700h203v-700h-203v55q-63 -65 -150 -65q-93 0 -152 72t-59 188t59 188t152 72q87 0 150 -65v255zM391 207v86q-27 45 -79 45q-35 0 -58.5 -25.5t-23.5 -62.5t23.5 -62.5t58.5 -25.5q52 0 79 45z" />
<glyph unicode="e" horiz-adv-x="601" d="M575 250v-48h-341q13 -66 92 -66q60 0 99 34l109 -94q-92 -86 -226 -86q-120 0 -199 75t-79 185t77.5 185t195.5 75q123 0 197.5 -74t74.5 -186zM233 296h144q0 31 -19 51t-51 20q-62 0 -74 -71z" />
<glyph unicode="f" horiz-adv-x="408" d="M282 531v-31h113v-154h-113v-346h-204v346h-58v154h58v37q0 173 188 173q71 0 153 -25l-25 -124q-35 13 -65 13q-47 0 -47 -43z" />
<glyph unicode="g" horiz-adv-x="639" d="M391 500h203v-480q0 -117 -74 -173q-73 -55 -192 -55q-167 0 -292 64l57 131q85 -42 192 -42q106 0 106 75v41q-63 -63 -150 -63q-93 0 -152 71t-59 185t59 185t152 71q86 0 150 -64v54zM391 212v84q-27 45 -79 45q-35 0 -58.5 -25.5t-23.5 -61.5t23.5 -61.5t58.5 -25.5 q52 0 79 45z" />
<glyph unicode="h" horiz-adv-x="636" d="M596 351v-351h-203v289q0 27 -15 42t-43 15q-41 0 -82 -29v-317h-203v700h203v-249q83 59 176 59q76 0 121.5 -42.5t45.5 -116.5z" />
<glyph unicode="i" horiz-adv-x="310" d="M261 621q0 -37 -31 -62.5t-75 -25.5t-74.5 25.5t-30.5 62.5t31 63t74 26q44 0 75 -26t31 -63zM257 500v-500h-203v500h203z" />
<glyph unicode="j" horiz-adv-x="302" d="M257 621q0 -37 -30.5 -62.5t-74.5 -25.5t-74.5 25.5t-30.5 62.5t31 63t74 26t74 -26t31 -63zM254 500v-533q0 -86 -48.5 -129t-130.5 -43q-58 0 -115 20l19 110q9 -3 17 -3q24 0 39 16t15 42v520h204z" />
<glyph unicode="k" horiz-adv-x="630" d="M620 0h-211l-91 158l-65 -76v-82h-203v700h203v-371l127 171h230l-164 -192z" />
<glyph unicode="l" horiz-adv-x="303" d="M253 700v-700h-203v700h203z" />
<glyph unicode="m" horiz-adv-x="950" d="M556 442q50 39 90 53.5t91 14.5q78 0 126 -41t48 -118v-351h-204v289q0 27 -14.5 42t-38.5 15q-42 0 -76 -21q1 -14 1 -54v-271h-203v289q0 27 -14.5 42t-38.5 15q-41 0 -75 -21v-325h-203v500h203v-56q74 66 168 66q98 0 140 -68z" />
<glyph unicode="n" horiz-adv-x="636" d="M596 351v-351h-203v289q0 27 -15 42t-43 15q-41 0 -82 -29v-317h-203v500h203v-49q83 59 176 59q76 0 121.5 -42.5t45.5 -116.5z" />
<glyph unicode="o" horiz-adv-x="636" d="M606 250q2 -110 -82.5 -186t-205.5 -74q-121 -2 -205.5 74t-82.5 186q-2 110 82.5 186t205.5 74q121 2 205.5 -74t82.5 -186zM230 250q0 -40 24 -64t63 -24q40 0 64 24t24 64t-24 64t-64 24q-39 0 -63 -24t-24 -64z" />
<glyph unicode="p" horiz-adv-x="654" d="M614 250q0 -116 -59 -188t-152 -72q-87 0 -150 65v-250h-203v695h203v-55q63 65 150 65q93 0 152 -72t59 -188zM414 250q0 37 -23.5 62.5t-58.5 25.5q-52 0 -79 -45v-86q27 -45 79 -45q35 0 58.5 25.5t23.5 62.5z" />
<glyph unicode="q" horiz-adv-x="639" d="M391 500h203v-695h-203v250q-63 -65 -150 -65q-93 0 -152 72t-59 188t59 188t152 72q87 0 150 -65v55zM391 207v86q-27 45 -79 45q-35 0 -58.5 -25.5t-23.5 -62.5t23.5 -62.5t58.5 -25.5q52 0 79 45z" />
<glyph unicode="r" horiz-adv-x="419" d="M410 510v-164q-89 0 -157 -85v-261h-203v500h203v-91q34 48 75.5 74.5t81.5 26.5z" />
<glyph unicode="s" horiz-adv-x="520" d="M481 453l-66 -123q-83 46 -151 46q-33 0 -33 -19q0 -7 7.5 -11t33.5 -11l44 -11q92 -24 133 -62.5t41 -102.5q0 -81 -58 -125t-164 -44q-138 0 -248 72l70 117q93 -55 183 -55q29 0 29 20q0 8 -6 12t-28 10l-60 16q-90 25 -128 60.5t-38 96.5q0 81 58 126t162 45 q119 0 219 -57z" />
<glyph unicode="t" horiz-adv-x="448" d="M399 173l25 -137q-83 -46 -170 -46q-79 0 -127 45.5t-48 129.5v181h-59v154h59v125h203v-125h113v-154h-113v-146q0 -46 52 -46q33 0 65 19z" />
<glyph unicode="u" horiz-adv-x="636" d="M383 500h203v-500h-203v49q-83 -59 -176 -59q-76 0 -121.5 42.5t-45.5 116.5v351h203v-289q0 -27 15 -42t43 -15q41 0 82 29v317z" />
<glyph unicode="v" horiz-adv-x="631" d="M406 500h216l-180 -500h-252l-180 500h216l90 -292z" />
<glyph unicode="w" horiz-adv-x="838" d="M829 500l-142 -500h-217l-51 207l-50 -207h-218l-141 500h202l58 -281l72 281h155l71 -281l58 281h203z" />
<glyph unicode="x" horiz-adv-x="600" d="M591 0h-231l-61 114l-62 -114h-227l173 250l-173 250h230l61 -113l62 113h227l-172 -250z" />
<glyph unicode="y" horiz-adv-x="625" d="M616 500l-203 -544q-60 -161 -219 -161q-80 0 -184 40l56 132q60 -23 95 -23q48 0 73 37l3 4l-211 515h214l86 -282l79 282h211z" />
<glyph unicode="z" horiz-adv-x="540" d="M506 500v-130l-199 -207h209v-163h-491v130l198 207h-178v163h461z" />
<glyph unicode="{" horiz-adv-x="377" d="M357 700v-131h-35q-35 0 -35 -32v-194q0 -76 -48 -109q48 -33 48 -109v-194q0 -33 35 -33h35v-131h-110q-152 0 -152 139v219q0 17 -10.5 27.5t-27.5 10.5h-27v142h27q17 0 27.5 11t10.5 27v218q0 139 152 139h110z" />
<glyph unicode="|" horiz-adv-x="325" d="M266 750v-903h-206v903h206z" />
<glyph unicode="}" horiz-adv-x="377" d="M20 700h110q152 0 152 -139v-218q0 -16 11 -27t27 -11h27v-142h-27q-16 0 -27 -10.5t-11 -27.5v-219q0 -139 -152 -139h-110v131h35q35 0 35 33v194q0 76 48 109q-48 33 -48 109v194q0 32 -35 32h-35v131z" />
<glyph unicode="~" horiz-adv-x="600" d="M308 368q48 -22 75 -22q41 0 56 53l120 -18q0 -90 -41 -147t-105 -57q-46 0 -120 30q-60 23 -76 23q-19 0 -34 -14.5t-22 -38.5l-120 14q0 98 40 153t112 55q45 0 115 -31z" />
<glyph unicode="&#xa1;" horiz-adv-x="287" d="M250 419q0 -37 -31 -64t-75 -27t-75.5 26.5t-31.5 64.5t31.5 64.5t75.5 26.5t75 -27t31 -64zM237 281l21 -482h-228l21 482h186z" />
<glyph unicode="&#xa2;" horiz-adv-x="600" d="M239 -118v121q-85 26 -137 93t-52 154q0 86 52 153q53 69 137 94v121h160v-118q98 -26 155 -108l-155 -85q-25 31 -70 31q-34 0 -57 -25t-23 -63t23 -63t57 -25q45 0 70 31l155 -85q-57 -82 -155 -108v-118h-160z" />
<glyph unicode="&#xa3;" horiz-adv-x="600" d="M693 616l-127 -117q-27 28 -80 28q-44 0 -71 -19t-33 -53l-9 -54h212l-26 -143h-212l-14 -84h287l-31 -174h-570l31 174h66l14 84h-66l26 144h66l16 94q19 105 93 159.5t198 54.5q157 0 230 -94z" />
<glyph unicode="&#xa5;" horiz-adv-x="600" d="M620 700l-125 -274h67v-145h-133l-20 -44v-16h153v-145h-153v-76h-218v76h-153v145h153v13l-21 47h-132v145h66l-124 274h231l89 -226l90 226h230z" />
<glyph unicode="&#xa6;" horiz-adv-x="325" d="M266 750v-384h-206v384h206zM266 231v-384h-206v384h206z" />
<glyph unicode="&#xa7;" horiz-adv-x="628" d="M599 35q0 -92 -69 -147.5t-182 -55.5q-168 0 -317 86l81 149q52 -31 116 -50q68 -20 115 -20q50 0 50 25q0 12 -14.5 19.5t-54.5 15.5l-29 6q-242 50 -242 197q0 67 47 131q-44 44 -44 115q0 95 70 149.5t192 54.5q71 0 131 -16q58 -14 139 -53l-79 -152q-116 56 -195 56 q-52 0 -52 -26q0 -11 10.5 -17t43.5 -13l28 -6q132 -28 193.5 -77.5t61.5 -127.5q0 -69 -46 -127q46 -46 46 -116zM344 235l24 -5l12 -3q18 15 18 32t-20.5 27.5t-75.5 21.5l-24 5l-8 2q-16 -15 -16 -30q0 -18 18.5 -28.5t71.5 -21.5z" />
<glyph unicode="&#xa8;" horiz-adv-x="391" d="M166 648q0 -36 -23.5 -59.5t-58.5 -23.5q-36 0 -59.5 23.5t-23.5 59.5q0 35 23.5 58.5t59.5 23.5q35 0 58.5 -23.5t23.5 -58.5zM391 648q0 -36 -24 -59.5t-59 -23.5t-58.5 23.5t-23.5 59.5q0 35 23.5 58.5t58.5 23.5t59 -23.5t24 -58.5z" />
<glyph unicode="&#xa9;" horiz-adv-x="779" d="M750 350q2 -95 -47.5 -179t-133.5 -133.5t-179 -47.5q-145 -3 -254 106t-106 254q-3 146 106 254.5t254 105.5q95 2 179 -47.5t133.5 -133.5t47.5 -179zM156 352q-2 -94 69.5 -166.5t164.5 -70.5q92 -2 163.5 70.5t69.5 166.5q2 92 -69.5 163.5t-163.5 69.5 q-94 2 -165 -69.5t-69 -163.5zM551 449l-105 -59q-20 32 -56 32q-30 0 -48 -20.5t-18 -51.5t18 -51.5t48 -20.5q36 0 56 32l105 -59q-25 -39 -68.5 -63t-93.5 -24q-77 0 -134 55t-57 131t57 131t134 55q50 0 93.5 -24t68.5 -63z" />
<glyph unicode="&#xaa;" horiz-adv-x="401" d="M359 581v-215h-136v37q-44 -44 -102 -44q-46 0 -75.5 28.5t-29.5 75.5q0 46 31.5 73t86.5 27h89v8q0 34 -47 34q-44 0 -91 -26l-37 83q83 44 165 44q68 0 107 -31t39 -94zM223 453v53h-36q-38 0 -38 -30q0 -15 9.5 -24t24.5 -9q21 0 40 10z" />
<glyph unicode="&#xab;" horiz-adv-x="744" d="M218 510l150 -77l-129 -168l129 -168l-152 -75l-191 243zM570 510l150 -77l-129 -168l129 -168l-152 -75l-191 243z" />
<glyph unicode="&#xad;" horiz-adv-x="408" d="M378 344v-169h-348v169h348z" />
<glyph unicode="&#xae;" horiz-adv-x="779" d="M750 350q2 -95 -47.5 -179t-133.5 -133.5t-179 -47.5q-145 -3 -254 106t-106 254q-3 146 106 254.5t254 105.5q95 2 179 -47.5t133.5 -133.5t47.5 -179zM156 352q-2 -94 69.5 -166.5t164.5 -70.5q92 -2 163.5 70.5t69.5 166.5q2 92 -69.5 163.5t-163.5 69.5 q-94 2 -165 -69.5t-69 -163.5zM538 400q0 -74 -54 -99l66 -102h-123l-53 87h-21v-87h-108v315h145q77 0 112.5 -27.5t35.5 -86.5zM353 417v-47h42q18 0 25 5t7 18q0 14 -6.5 19t-25.5 5h-42z" />
<glyph unicode="&#xaf;" horiz-adv-x="391" d="M376 710v-125h-361v125h361z" />
<glyph unicode="&#xb0;" horiz-adv-x="445" d="M415 595q0 -77 -56.5 -132.5t-135.5 -55.5t-136 55.5t-57 132.5t57 132.5t136 55.5t135.5 -55.5t56.5 -132.5zM143 595q0 -32 23.5 -55t56.5 -23q32 0 55.5 23t23.5 55t-23.5 55t-55.5 23q-33 0 -56.5 -23t-23.5 -55z" />
<glyph unicode="&#xb1;" horiz-adv-x="600" d="M559 155v-155h-518v155h518zM559 516v-155h-181v-182h-155v182h-182v155h182v181h155v-181h181z" />
<glyph unicode="&#xb2;" horiz-adv-x="391" d="M271 476l-9 -7h108v-127h-355v101l173 129q25 18 25 34q0 24 -26 24q-39 0 -84 -50l-90 82q74 94 188 94q73 0 122.5 -40.5t49.5 -100.5q0 -36 -22.5 -66t-79.5 -73z" />
<glyph unicode="&#xb3;" horiz-adv-x="387" d="M369 483q0 -65 -51.5 -106t-134.5 -41q-100 0 -168 59l76 88q34 -26 76 -26q43 0 43 27q0 31 -46 31q-28 0 -52 -7l-19 67l69 54h-119v121h318v-102l-67 -56q75 -30 75 -109z" />
<glyph unicode="&#xb4;" horiz-adv-x="391" d="M362 728l-158 -178h-174l123 178h209z" />
<glyph unicode="&#xb6;" horiz-adv-x="803" d="M341 700h402v-863h-170v710h-62v-710h-170v400h-27q-131 0 -202.5 64t-71.5 168q0 109 75.5 170t225.5 61z" />
<glyph unicode="&#xb7;" horiz-adv-x="272" d="M243 80q0 -38 -31.5 -64.5t-75.5 -26.5t-75 26.5t-31 64.5q0 37 31 64t75 27t75.5 -26.5t31.5 -64.5z" />
<glyph unicode="&#xb8;" horiz-adv-x="391" d="M317 -135q0 -49 -36 -75t-94 -26q-60 0 -114 28l25 66q24 -12 58 -12q22 0 34.5 10t12.5 26q0 29 -30 29q-10 0 -20 -5l-30 34l32 63h83l-21 -43q45 -2 72.5 -28.5t27.5 -66.5z" />
<glyph unicode="&#xb9;" horiz-adv-x="296" d="M252 750v-408h-152v275l-62 -14l-28 113l128 34h114z" />
<glyph unicode="&#xba;" horiz-adv-x="457" d="M421 533q0 -71 -56.5 -122.5t-135.5 -51.5t-135.5 51.5t-56.5 122.5q0 72 56.5 122.5t135.5 50.5t135.5 -50.5t56.5 -122.5zM169 533q0 -25 17.5 -42t41.5 -17t41 17t17 42q0 24 -17 41t-41 17t-41.5 -17t-17.5 -41z" />
<glyph unicode="&#xbb;" horiz-adv-x="744" d="M175 510l193 -245l-192 -243l-151 75l129 168l-129 168zM527 510l193 -245l-192 -243l-151 75l129 168l-129 168z" />
<glyph unicode="&#xbc;" horiz-adv-x="876" d="M252 680v-408h-152v275l-62 -14l-28 113l128 34h114zM722 691l-447 -708h-157l446 708h158zM815 189h47v-120h-47v-69h-149v69h-184l-18 114l177 225h174v-219zM616 189h50v82z" />
<glyph unicode="&#xbd;" horiz-adv-x="891" d="M252 680v-408h-152v275l-62 -14l-28 113l128 34h114zM705 691l-447 -708h-157l446 708h158zM771 134l-9 -7h108v-127h-355v101l173 129q25 18 25 34q0 24 -26 24q-39 0 -84 -50l-90 82q74 94 188 94q73 0 122.5 -40.5t49.5 -100.5q0 -36 -22.5 -66t-79.5 -73z" />
<glyph unicode="&#xbe;" horiz-adv-x="940" d="M369 413q0 -65 -51.5 -106t-134.5 -41q-100 0 -168 59l76 88q34 -26 76 -26q43 0 43 27q0 31 -46 31q-28 0 -52 -7l-19 67l69 54h-119v121h318v-102l-67 -56q75 -30 75 -109zM786 691l-447 -708h-157l446 708h158zM879 189h47v-120h-47v-69h-149v69h-184l-18 114l177 225 h174v-219zM680 189h50v82z" />
<glyph unicode="&#xbf;" horiz-adv-x="587" d="M395 425q0 -38 -31 -64.5t-75 -26.5t-75.5 26.5t-31.5 64.5t31.5 64.5t75.5 26.5t75 -27t31 -64zM30 8q0 54 25 95q24 42 90 95l11 9q24 19 31.5 31.5t7.5 33.5l1 15h185l3 -47q0 -45 -17 -76t-66 -74l-24 -21q-26 -22 -26 -43t15.5 -33t42.5 -12q26 0 42.5 12.5 t19.5 34.5l197 -20q-16 -99 -91 -156t-191 -57t-186 58.5t-70 154.5z" />
<glyph unicode="&#xc0;" horiz-adv-x="862" d="M582 0l-36 107h-231l-35 -107h-260l267 700h285l270 -700h-260zM372 280h117l-59 178zM418 928l123 -178h-174l-158 178h209z" />
<glyph unicode="&#xc1;" horiz-adv-x="862" d="M582 0l-36 107h-231l-35 -107h-260l267 700h285l270 -700h-260zM372 280h117l-59 178zM651 928l-158 -178h-174l123 178h209z" />
<glyph unicode="&#xc2;" horiz-adv-x="862" d="M582 0l-36 107h-231l-35 -107h-260l267 700h285l270 -700h-260zM372 280h117l-59 178zM536 928l123 -178h-167l-62 74l-61 -74h-168l123 178h212z" />
<glyph unicode="&#xc3;" horiz-adv-x="862" d="M582 0l-36 107h-231l-35 -107h-260l267 700h285l270 -700h-260zM372 280h117l-59 178zM344 928q27 0 77 -18q59 -22 82 -22q27 0 37 33l86 -11q0 -72 -26.5 -115t-82.5 -43q-29 0 -92 23q-48 17 -67 17q-27 0 -37 -33l-86 11q0 72 26.5 115t82.5 43z" />
<glyph unicode="&#xc4;" horiz-adv-x="862" d="M582 0l-36 107h-231l-35 -107h-260l267 700h285l270 -700h-260zM372 280h117l-59 178zM400 848q0 -36 -23.5 -59.5t-58.5 -23.5q-36 0 -59.5 23.5t-23.5 59.5q0 35 23.5 58.5t59.5 23.5q35 0 58.5 -23.5t23.5 -58.5zM625 848q0 -36 -24 -59.5t-59 -23.5t-58.5 23.5 t-23.5 59.5q0 35 23.5 58.5t58.5 23.5t59 -23.5t24 -58.5z" />
<glyph unicode="&#xc5;" horiz-adv-x="862" d="M582 0l-36 107h-231l-35 -107h-260l267 700h285l270 -700h-260zM372 280h117l-59 178zM573 875q0 -57 -42 -98.5t-101 -41.5t-101 41.5t-42 98.5t42 98.5t101 41.5t101 -41.5t42 -98.5zM382 875q0 -19 14 -33t34 -14t34 14t14 33t-14 33t-34 14t-34 -14t-14 -33z" />
<glyph unicode="&#xc6;" horiz-adv-x="1092" d="M708 193h354v-193h-572v107h-164l-46 -107h-260l327 700h710v-193h-349v-62h324v-181h-324v-71zM400 280h90v209z" />
<glyph unicode="&#xc7;" horiz-adv-x="750" d="M531 254l189 -105q-49 -70 -124 -112t-162 -46l-15 -31q45 -2 72.5 -28.5t27.5 -66.5q0 -49 -36 -75t-94 -26q-60 0 -114 28l25 66q24 -12 58 -12q22 0 34.5 10t12.5 26q0 29 -30 29q-10 0 -20 -5l-30 34l28 55q-130 19 -219.5 121.5t-88.5 233.5q-4 145 108 254t261 106 q93 0 174 -42.5t132 -116.5l-189 -105q-41 60 -115 60q-64 0 -104 -45q-40 -44 -40 -111t40 -111q41 -45 104 -45q74 0 115 60z" />
<glyph unicode="&#xc8;" horiz-adv-x="682" d="M647 700v-193h-369v-62h344v-181h-344v-71h374v-193h-592v700h587zM339 928l123 -178h-174l-158 178h209z" />
<glyph unicode="&#xc9;" horiz-adv-x="682" d="M647 700v-193h-369v-62h344v-181h-344v-71h374v-193h-592v700h587zM572 928l-158 -178h-174l123 178h209z" />
<glyph unicode="&#xca;" horiz-adv-x="682" d="M647 700v-193h-369v-62h344v-181h-344v-71h374v-193h-592v700h587zM457 928l123 -178h-167l-62 74l-61 -74h-168l123 178h212z" />
<glyph unicode="&#xcb;" horiz-adv-x="682" d="M647 700v-193h-369v-62h344v-181h-344v-71h374v-193h-592v700h587zM321 848q0 -36 -23.5 -59.5t-58.5 -23.5q-36 0 -59.5 23.5t-23.5 59.5q0 35 23.5 58.5t59.5 23.5q35 0 58.5 -23.5t23.5 -58.5zM546 848q0 -36 -24 -59.5t-59 -23.5t-58.5 23.5t-23.5 59.5 q0 35 23.5 58.5t58.5 23.5t59 -23.5t24 -58.5z" />
<glyph unicode="&#xcc;" horiz-adv-x="338" d="M278 700v-700h-218v700h218zM164 928l123 -178h-174l-158 178h209z" />
<glyph unicode="&#xcd;" horiz-adv-x="338" d="M278 700v-700h-218v700h218zM397 928l-158 -178h-174l123 178h209z" />
<glyph unicode="&#xce;" horiz-adv-x="338" d="M278 700v-700h-218v700h218zM282 928l123 -178h-167l-62 74l-61 -74h-168l123 178h212z" />
<glyph unicode="&#xcf;" horiz-adv-x="338" d="M278 700v-700h-218v700h218zM146 848q0 -36 -23.5 -59.5t-58.5 -23.5q-36 0 -59.5 23.5t-23.5 59.5q0 35 23.5 58.5t59.5 23.5q35 0 58.5 -23.5t23.5 -58.5zM371 848q0 -36 -24 -59.5t-59 -23.5t-58.5 23.5t-23.5 59.5q0 35 23.5 58.5t58.5 23.5t59 -23.5t24 -58.5z" />
<glyph unicode="&#xd0;" horiz-adv-x="790" d="M745 350q3 -145 -110 -248.5t-267 -101.5h-308v265h-50v170h50v265h308q154 2 267 -101.5t110 -248.5zM522 350q0 65 -47.5 110.5t-114.5 45.5h-82v-71h122v-170h-122v-71h82q66 0 114 45.5t48 110.5z" />
<glyph unicode="&#xd1;" horiz-adv-x="795" d="M522 700h213v-700h-223l-238 341v-341h-214v700h224l238 -341v341zM334 928q27 0 77 -18q59 -22 82 -22q27 0 37 33l86 -11q0 -72 -26.5 -115t-82.5 -43q-29 0 -92 23q-48 17 -67 17q-27 0 -37 -33l-86 11q0 72 26.5 115t82.5 43z" />
<glyph unicode="&#xd2;" horiz-adv-x="843" d="M798 350q2 -95 -49.5 -179t-139 -133.5t-187.5 -47.5q-152 -3 -266 106t-111 254q-3 145 111 254t266 106q100 2 187.5 -47.5t139 -133.5t49.5 -179zM272 350q0 -66 42 -111t108 -45q65 0 107.5 45.5t42.5 110.5t-42.5 110.5t-107.5 45.5q-66 0 -108 -45t-42 -111z M410 928l123 -178h-174l-158 178h209z" />
<glyph unicode="&#xd3;" horiz-adv-x="843" d="M798 350q2 -95 -49.5 -179t-139 -133.5t-187.5 -47.5q-152 -3 -266 106t-111 254q-3 145 111 254t266 106q100 2 187.5 -47.5t139 -133.5t49.5 -179zM272 350q0 -66 42 -111t108 -45q65 0 107.5 45.5t42.5 110.5t-42.5 110.5t-107.5 45.5q-66 0 -108 -45t-42 -111z M643 928l-158 -178h-174l123 178h209z" />
<glyph unicode="&#xd4;" horiz-adv-x="843" d="M798 350q2 -95 -49.5 -179t-139 -133.5t-187.5 -47.5q-152 -3 -266 106t-111 254q-3 145 111 254t266 106q100 2 187.5 -47.5t139 -133.5t49.5 -179zM272 350q0 -66 42 -111t108 -45q65 0 107.5 45.5t42.5 110.5t-42.5 110.5t-107.5 45.5q-66 0 -108 -45t-42 -111z M528 928l123 -178h-167l-62 74l-61 -74h-168l123 178h212z" />
<glyph unicode="&#xd5;" horiz-adv-x="843" d="M798 350q2 -95 -49.5 -179t-139 -133.5t-187.5 -47.5q-152 -3 -266 106t-111 254q-3 145 111 254t266 106q100 2 187.5 -47.5t139 -133.5t49.5 -179zM272 350q0 -66 42 -111t108 -45q65 0 107.5 45.5t42.5 110.5t-42.5 110.5t-107.5 45.5q-66 0 -108 -45t-42 -111z M336 928q27 0 77 -18q59 -22 82 -22q27 0 37 33l86 -11q0 -72 -26.5 -115t-82.5 -43q-29 0 -92 23q-48 17 -67 17q-27 0 -37 -33l-86 11q0 72 26.5 115t82.5 43z" />
<glyph unicode="&#xd6;" horiz-adv-x="843" d="M798 350q2 -95 -49.5 -179t-139 -133.5t-187.5 -47.5q-152 -3 -266 106t-111 254q-3 145 111 254t266 106q100 2 187.5 -47.5t139 -133.5t49.5 -179zM272 350q0 -66 42 -111t108 -45q65 0 107.5 45.5t42.5 110.5t-42.5 110.5t-107.5 45.5q-66 0 -108 -45t-42 -111z M392 848q0 -36 -23.5 -59.5t-58.5 -23.5q-36 0 -59.5 23.5t-23.5 59.5q0 35 23.5 58.5t59.5 23.5q35 0 58.5 -23.5t23.5 -58.5zM617 848q0 -36 -24 -59.5t-59 -23.5t-58.5 23.5t-23.5 59.5q0 35 23.5 58.5t58.5 23.5t59 -23.5t24 -58.5z" />
<glyph unicode="&#xd7;" horiz-adv-x="600" d="M552 430l-142 -142l142 -142l-109 -110l-142 143l-143 -143l-110 109l143 143l-143 143l110 109l143 -142l142 142z" />
<glyph unicode="&#xd8;" horiz-adv-x="843" d="M798 350q2 -95 -49.5 -179t-139 -133.5t-187.5 -47.5q-48 0 -87 10l-24 -50h-169l54 112q-71 51 -111 126.5t-40 161.5q-3 145 111 254t266 106q44 0 86 -9l24 49h169l-54 -111q71 -52 111 -127.5t40 -161.5zM295 264l118 242q-63 -4 -102 -48t-39 -108q0 -48 23 -86z M572 350q0 50 -24 87l-118 -243q63 3 102 47q40 44 40 109z" />
<glyph unicode="&#xd9;" horiz-adv-x="771" d="M711 700v-375q0 -166 -82 -250.5t-243 -84.5t-243.5 85t-82.5 250v375h218v-375q0 -136 108 -136t108 136v375h217zM374 928l123 -178h-174l-158 178h209z" />
<glyph unicode="&#xda;" horiz-adv-x="771" d="M711 700v-375q0 -166 -82 -250.5t-243 -84.5t-243.5 85t-82.5 250v375h218v-375q0 -136 108 -136t108 136v375h217zM607 928l-158 -178h-174l123 178h209z" />
<glyph unicode="&#xdb;" horiz-adv-x="771" d="M711 700v-375q0 -166 -82 -250.5t-243 -84.5t-243.5 85t-82.5 250v375h218v-375q0 -136 108 -136t108 136v375h217zM492 928l123 -178h-167l-62 74l-61 -74h-168l123 178h212z" />
<glyph unicode="&#xdc;" horiz-adv-x="771" d="M711 700v-375q0 -166 -82 -250.5t-243 -84.5t-243.5 85t-82.5 250v375h218v-375q0 -136 108 -136t108 136v375h217zM356 848q0 -36 -23.5 -59.5t-58.5 -23.5q-36 0 -59.5 23.5t-23.5 59.5q0 35 23.5 58.5t59.5 23.5q35 0 58.5 -23.5t23.5 -58.5zM581 848q0 -36 -24 -59.5 t-59 -23.5t-58.5 23.5t-23.5 59.5q0 35 23.5 58.5t58.5 23.5t59 -23.5t24 -58.5z" />
<glyph unicode="&#xdd;" horiz-adv-x="802" d="M525 700h257l-272 -463v-237h-218v234l-272 466h260l122 -233zM622 928l-158 -178h-174l123 178h209z" />
<glyph unicode="&#xde;" horiz-adv-x="727" d="M278 700v-79h95q161 0 237.5 -62t76.5 -193t-76 -193t-236 -62h-97v-111h-218v700h218zM372 434h-94v-136h95q50 0 73 16.5t23 51.5q0 68 -97 68z" />
<glyph unicode="&#xdf;" horiz-adv-x="711" d="M50 0v474q0 103 83 169.5t211 66.5q111 0 184.5 -50.5t73.5 -129.5q0 -31 -11.5 -53t-36.5 -48q-29 -31 -37 -41.5t-8 -19.5q0 -10 14 -21q13 -11 66 -36q53 -26 73.5 -57t20.5 -85q0 -76 -60.5 -127.5t-151.5 -51.5q-72 0 -158 28l44 163q47 -21 87 -21q38 0 38 27 q0 12 -14 21.5t-58 27.5q-53 22 -76 44.5t-23 53.5q0 46 54 103q34 34 34 58q0 19 -18 31.5t-47 12.5q-37 0 -59 -21t-22 -55v-463h-203z" />
<glyph unicode="&#xe0;" horiz-adv-x="585" d="M545 323v-323h-203v58q-68 -68 -150 -68q-73 0 -117.5 43t-44.5 111q0 69 47 108t130 39h135v12q0 51 -70 51q-64 0 -137 -39l-57 129q124 66 253 66q102 0 158 -48.5t56 -138.5zM342 127v83h-54q-57 0 -57 -47q0 -24 15 -38.5t42 -14.5q28 0 54 17zM311 728l123 -178 h-174l-158 178h209z" />
<glyph unicode="&#xe1;" horiz-adv-x="585" d="M545 323v-323h-203v58q-68 -68 -150 -68q-73 0 -117.5 43t-44.5 111q0 69 47 108t130 39h135v12q0 51 -70 51q-64 0 -137 -39l-57 129q124 66 253 66q102 0 158 -48.5t56 -138.5zM342 127v83h-54q-57 0 -57 -47q0 -24 15 -38.5t42 -14.5q28 0 54 17zM544 728l-158 -178 h-174l123 178h209z" />
<glyph unicode="&#xe2;" horiz-adv-x="585" d="M545 323v-323h-203v58q-68 -68 -150 -68q-73 0 -117.5 43t-44.5 111q0 69 47 108t130 39h135v12q0 51 -70 51q-64 0 -137 -39l-57 129q124 66 253 66q102 0 158 -48.5t56 -138.5zM342 127v83h-54q-57 0 -57 -47q0 -24 15 -38.5t42 -14.5q28 0 54 17zM429 728l123 -178 h-167l-62 74l-61 -74h-168l123 178h212z" />
<glyph unicode="&#xe3;" horiz-adv-x="585" d="M545 323v-323h-203v58q-68 -68 -150 -68q-73 0 -117.5 43t-44.5 111q0 69 47 108t130 39h135v12q0 51 -70 51q-64 0 -137 -39l-57 129q124 66 253 66q102 0 158 -48.5t56 -138.5zM342 127v83h-54q-57 0 -57 -47q0 -24 15 -38.5t42 -14.5q28 0 54 17zM237 728q27 0 77 -18 q59 -22 82 -22q27 0 37 33l86 -11q0 -72 -26.5 -115t-82.5 -43q-29 0 -92 23q-48 17 -67 17q-27 0 -37 -33l-86 11q0 72 26.5 115t82.5 43z" />
<glyph unicode="&#xe4;" horiz-adv-x="585" d="M545 323v-323h-203v58q-68 -68 -150 -68q-73 0 -117.5 43t-44.5 111q0 69 47 108t130 39h135v12q0 51 -70 51q-64 0 -137 -39l-57 129q124 66 253 66q102 0 158 -48.5t56 -138.5zM342 127v83h-54q-57 0 -57 -47q0 -24 15 -38.5t42 -14.5q28 0 54 17zM293 648 q0 -36 -23.5 -59.5t-58.5 -23.5q-36 0 -59.5 23.5t-23.5 59.5q0 35 23.5 58.5t59.5 23.5q35 0 58.5 -23.5t23.5 -58.5zM518 648q0 -36 -24 -59.5t-59 -23.5t-58.5 23.5t-23.5 59.5q0 35 23.5 58.5t58.5 23.5t59 -23.5t24 -58.5z" />
<glyph unicode="&#xe5;" horiz-adv-x="585" d="M545 323v-323h-203v58q-68 -68 -150 -68q-73 0 -117.5 43t-44.5 111q0 69 47 108t130 39h135v12q0 51 -70 51q-64 0 -137 -39l-57 129q124 66 253 66q102 0 158 -48.5t56 -138.5zM342 127v83h-54q-57 0 -57 -47q0 -24 15 -38.5t42 -14.5q28 0 54 17zM466 675 q0 -57 -42 -98.5t-101 -41.5t-101 41.5t-42 98.5t42 98.5t101 41.5t101 -41.5t42 -98.5zM275 675q0 -19 14 -33t34 -14t34 14t14 33t-14 33t-34 14t-34 -14t-14 -33z" />
<glyph unicode="&#xe6;" horiz-adv-x="914" d="M888 250v-48h-341q13 -66 92 -66q60 0 99 34l109 -94q-92 -86 -226 -86q-124 0 -204 80q-85 -80 -203 -80q-86 0 -135 42t-49 112q0 69 47 108t130 39h135v12q0 51 -70 51q-64 0 -137 -39l-57 129q124 66 253 66q88 0 141 -37q61 37 144 37q123 0 197.5 -74t74.5 -186z M546 296h144q0 31 -19 51t-51 20q-62 0 -74 -71zM294 110q35 0 76 26q-18 35 -24 74h-58q-57 0 -57 -47q0 -53 63 -53z" />
<glyph unicode="&#xe7;" horiz-adv-x="558" d="M379 193l155 -85q-34 -51 -89.5 -82t-118.5 -35l-15 -31q45 -2 72.5 -28.5t27.5 -66.5q0 -49 -36 -75t-94 -26q-60 0 -114 28l25 66q24 -12 58 -12q22 0 34.5 10t12.5 26q0 29 -30 29q-10 0 -20 -5l-30 34l28 56q-92 18 -153.5 90t-61.5 164q-2 106 81 184t193 76 q71 0 132 -31.5t98 -86.5l-155 -85q-25 31 -70 31q-34 0 -57 -25t-23 -63t23 -63t57 -25q45 0 70 31z" />
<glyph unicode="&#xe8;" horiz-adv-x="601" d="M575 250v-48h-341q13 -66 92 -66q60 0 99 34l109 -94q-92 -86 -226 -86q-120 0 -199 75t-79 185t77.5 185t195.5 75q123 0 197.5 -74t74.5 -186zM233 296h144q0 31 -19 51t-51 20q-62 0 -74 -71zM291 728l123 -178h-174l-158 178h209z" />
<glyph unicode="&#xe9;" horiz-adv-x="601" d="M575 250v-48h-341q13 -66 92 -66q60 0 99 34l109 -94q-92 -86 -226 -86q-120 0 -199 75t-79 185t77.5 185t195.5 75q123 0 197.5 -74t74.5 -186zM233 296h144q0 31 -19 51t-51 20q-62 0 -74 -71zM524 728l-158 -178h-174l123 178h209z" />
<glyph unicode="&#xea;" horiz-adv-x="601" d="M575 250v-48h-341q13 -66 92 -66q60 0 99 34l109 -94q-92 -86 -226 -86q-120 0 -199 75t-79 185t77.5 185t195.5 75q123 0 197.5 -74t74.5 -186zM233 296h144q0 31 -19 51t-51 20q-62 0 -74 -71zM409 728l123 -178h-167l-62 74l-61 -74h-168l123 178h212z" />
<glyph unicode="&#xeb;" horiz-adv-x="601" d="M575 250v-48h-341q13 -66 92 -66q60 0 99 34l109 -94q-92 -86 -226 -86q-120 0 -199 75t-79 185t77.5 185t195.5 75q123 0 197.5 -74t74.5 -186zM233 296h144q0 31 -19 51t-51 20q-62 0 -74 -71zM273 648q0 -36 -23.5 -59.5t-58.5 -23.5q-36 0 -59.5 23.5t-23.5 59.5 q0 35 23.5 58.5t59.5 23.5q35 0 58.5 -23.5t23.5 -58.5zM498 648q0 -36 -24 -59.5t-59 -23.5t-58.5 23.5t-23.5 59.5q0 35 23.5 58.5t58.5 23.5t59 -23.5t24 -58.5z" />
<glyph unicode="&#xec;" horiz-adv-x="310" d="M257 500v-500h-203v500h203zM145 728l123 -178h-174l-158 178h209z" />
<glyph unicode="&#xed;" horiz-adv-x="310" d="M257 500v-500h-203v500h203zM378 728l-158 -178h-174l123 178h209z" />
<glyph unicode="&#xee;" horiz-adv-x="310" d="M257 500v-500h-203v500h203zM263 728l123 -178h-167l-62 74l-61 -74h-168l123 178h212z" />
<glyph unicode="&#xef;" horiz-adv-x="310" d="M257 500v-500h-203v500h203zM127 648q0 -36 -23.5 -59.5t-58.5 -23.5q-36 0 -59.5 23.5t-23.5 59.5q0 35 23.5 58.5t59.5 23.5q35 0 58.5 -23.5t23.5 -58.5zM352 648q0 -36 -24 -59.5t-59 -23.5t-58.5 23.5t-23.5 59.5q0 35 23.5 58.5t58.5 23.5t59 -23.5t24 -58.5z" />
<glyph unicode="&#xf0;" horiz-adv-x="649" d="M609 294q0 -129 -82.5 -216.5t-212.5 -87.5q-133 0 -208.5 61.5t-75.5 164.5q0 99 67.5 159.5t178.5 60.5q58 0 109 -18q-16 35 -39 61l-32 -31l-68 53l31 30q-43 21 -97 33l37 146q104 -15 184 -59l60 58l68 -55l-55 -52q135 -116 135 -308zM410 267q-37 37 -95 37 q-41 0 -63.5 -21.5t-22.5 -60.5q0 -81 99 -81q34 0 57 36.5t25 89.5z" />
<glyph unicode="&#xf1;" horiz-adv-x="636" d="M596 351v-351h-203v289q0 27 -15 42t-43 15q-41 0 -82 -29v-317h-203v500h203v-49q83 59 176 59q76 0 121.5 -42.5t45.5 -116.5zM237 728q27 0 77 -18q59 -22 82 -22q27 0 37 33l86 -11q0 -72 -26.5 -115t-82.5 -43q-29 0 -92 23q-48 17 -67 17q-27 0 -37 -33l-86 11 q0 72 26.5 115t82.5 43z" />
<glyph unicode="&#xf2;" horiz-adv-x="636" d="M606 250q2 -110 -82.5 -186t-205.5 -74q-121 -2 -205.5 74t-82.5 186q-2 110 82.5 186t205.5 74q121 2 205.5 -74t82.5 -186zM230 250q0 -40 24 -64t63 -24q40 0 64 24t24 64t-24 64t-64 24q-39 0 -63 -24t-24 -64zM306 728l123 -178h-174l-158 178h209z" />
<glyph unicode="&#xf3;" horiz-adv-x="636" d="M606 250q2 -110 -82.5 -186t-205.5 -74q-121 -2 -205.5 74t-82.5 186q-2 110 82.5 186t205.5 74q121 2 205.5 -74t82.5 -186zM230 250q0 -40 24 -64t63 -24q40 0 64 24t24 64t-24 64t-64 24q-39 0 -63 -24t-24 -64zM539 728l-158 -178h-174l123 178h209z" />
<glyph unicode="&#xf4;" horiz-adv-x="636" d="M606 250q2 -110 -82.5 -186t-205.5 -74q-121 -2 -205.5 74t-82.5 186q-2 110 82.5 186t205.5 74q121 2 205.5 -74t82.5 -186zM230 250q0 -40 24 -64t63 -24q40 0 64 24t24 64t-24 64t-64 24q-39 0 -63 -24t-24 -64zM424 728l123 -178h-167l-62 74l-61 -74h-168l123 178 h212z" />
<glyph unicode="&#xf5;" horiz-adv-x="636" d="M606 250q2 -110 -82.5 -186t-205.5 -74q-121 -2 -205.5 74t-82.5 186q-2 110 82.5 186t205.5 74q121 2 205.5 -74t82.5 -186zM230 250q0 -40 24 -64t63 -24q40 0 64 24t24 64t-24 64t-64 24q-39 0 -63 -24t-24 -64zM232 728q27 0 77 -18q59 -22 82 -22q27 0 37 33l86 -11 q0 -72 -26.5 -115t-82.5 -43q-29 0 -92 23q-48 17 -67 17q-27 0 -37 -33l-86 11q0 72 26.5 115t82.5 43z" />
<glyph unicode="&#xf6;" horiz-adv-x="636" d="M606 250q2 -110 -82.5 -186t-205.5 -74q-121 -2 -205.5 74t-82.5 186q-2 110 82.5 186t205.5 74q121 2 205.5 -74t82.5 -186zM230 250q0 -40 24 -64t63 -24q40 0 64 24t24 64t-24 64t-64 24q-39 0 -63 -24t-24 -64zM288 648q0 -36 -23.5 -59.5t-58.5 -23.5 q-36 0 -59.5 23.5t-23.5 59.5q0 35 23.5 58.5t59.5 23.5q35 0 58.5 -23.5t23.5 -58.5zM513 648q0 -36 -24 -59.5t-59 -23.5t-58.5 23.5t-23.5 59.5q0 35 23.5 58.5t58.5 23.5t59 -23.5t24 -58.5z" />
<glyph unicode="&#xf7;" horiz-adv-x="600" d="M406 498q0 -38 -31 -64.5t-75 -26.5t-75 26.5t-31 64.5t31 64.5t75 26.5t75 -26.5t31 -64.5zM559 366v-155h-518v155h518zM406 79q0 -38 -31 -64.5t-75 -26.5t-75 26.5t-31 64.5t31 64.5t75 26.5t75 -26.5t31 -64.5z" />
<glyph unicode="&#xf8;" horiz-adv-x="636" d="M606 250q2 -110 -82.5 -186t-205.5 -74q-42 0 -71 7l-25 -47h-130l48 92q-110 75 -110 208q-2 110 82.5 186t205.5 74q42 0 71 -7l25 47h131l-49 -92q110 -75 110 -208zM230 250q0 -37 21 -61l72 149h-6q-39 0 -63 -24t-24 -64zM405 250q0 38 -24 64l-74 -152h10 q40 0 64 24t24 64z" />
<glyph unicode="&#xf9;" horiz-adv-x="636" d="M383 500h203v-500h-203v49q-83 -59 -176 -59q-76 0 -121.5 42.5t-45.5 116.5v351h203v-289q0 -27 15 -42t43 -15q41 0 82 29v317zM304 728l123 -178h-174l-158 178h209z" />
<glyph unicode="&#xfa;" horiz-adv-x="636" d="M383 500h203v-500h-203v49q-83 -59 -176 -59q-76 0 -121.5 42.5t-45.5 116.5v351h203v-289q0 -27 15 -42t43 -15q41 0 82 29v317zM537 728l-158 -178h-174l123 178h209z" />
<glyph unicode="&#xfb;" horiz-adv-x="636" d="M383 500h203v-500h-203v49q-83 -59 -176 -59q-76 0 -121.5 42.5t-45.5 116.5v351h203v-289q0 -27 15 -42t43 -15q41 0 82 29v317zM422 728l123 -178h-167l-62 74l-61 -74h-168l123 178h212z" />
<glyph unicode="&#xfc;" horiz-adv-x="636" d="M383 500h203v-500h-203v49q-83 -59 -176 -59q-76 0 -121.5 42.5t-45.5 116.5v351h203v-289q0 -27 15 -42t43 -15q41 0 82 29v317zM286 648q0 -36 -23.5 -59.5t-58.5 -23.5q-36 0 -59.5 23.5t-23.5 59.5q0 35 23.5 58.5t59.5 23.5q35 0 58.5 -23.5t23.5 -58.5zM511 648 q0 -36 -24 -59.5t-59 -23.5t-58.5 23.5t-23.5 59.5q0 35 23.5 58.5t58.5 23.5t59 -23.5t24 -58.5z" />
<glyph unicode="&#xfd;" horiz-adv-x="625" d="M616 500l-203 -544q-60 -161 -219 -161q-80 0 -184 40l56 132q60 -23 95 -23q48 0 73 37l3 4l-211 515h214l86 -282l79 282h211zM547 728l-158 -178h-174l123 178h209z" />
<glyph unicode="&#xfe;" horiz-adv-x="654" d="M614 250q0 -116 -59 -188t-152 -72q-87 0 -150 65v-250h-203v895h203v-255q63 65 150 65q93 0 152 -72t59 -188zM414 250q0 37 -23.5 62.5t-58.5 25.5q-52 0 -79 -45v-86q27 -45 79 -45q35 0 58.5 25.5t23.5 62.5z" />
<glyph unicode="&#xff;" horiz-adv-x="625" d="M616 500l-203 -544q-60 -161 -219 -161q-80 0 -184 40l56 132q60 -23 95 -23q48 0 73 37l3 4l-211 515h214l86 -282l79 282h211zM296 648q0 -36 -23.5 -59.5t-58.5 -23.5q-36 0 -59.5 23.5t-23.5 59.5q0 35 23.5 58.5t59.5 23.5q35 0 58.5 -23.5t23.5 -58.5zM521 648 q0 -36 -24 -59.5t-59 -23.5t-58.5 23.5t-23.5 59.5q0 35 23.5 58.5t58.5 23.5t59 -23.5t24 -58.5z" />
<glyph unicode="&#x100;" horiz-adv-x="862" d="M582 0l-36 107h-231l-35 -107h-260l267 700h285l270 -700h-260zM372 280h117l-59 178zM611 910v-125h-361v125h361z" />
<glyph unicode="&#x101;" horiz-adv-x="585" d="M545 323v-323h-203v58q-68 -68 -150 -68q-73 0 -117.5 43t-44.5 111q0 69 47 108t130 39h135v12q0 51 -70 51q-64 0 -137 -39l-57 129q124 66 253 66q102 0 158 -48.5t56 -138.5zM342 127v83h-54q-57 0 -57 -47q0 -24 15 -38.5t42 -14.5q28 0 54 17zM504 710v-125h-361 v125h361z" />
<glyph unicode="&#x102;" horiz-adv-x="862" d="M582 0l-36 107h-231l-35 -107h-260l267 700h285l270 -700h-260zM372 280h117l-59 178zM430 760q-83 0 -141.5 50t-58.5 124h133q0 -24 19 -38.5t48 -14.5q30 0 49 14.5t19 38.5h133q0 -74 -58.5 -124t-142.5 -50z" />
<glyph unicode="&#x103;" horiz-adv-x="585" d="M545 323v-323h-203v58q-68 -68 -150 -68q-73 0 -117.5 43t-44.5 111q0 69 47 108t130 39h135v12q0 51 -70 51q-64 0 -137 -39l-57 129q124 66 253 66q102 0 158 -48.5t56 -138.5zM342 127v83h-54q-57 0 -57 -47q0 -24 15 -38.5t42 -14.5q28 0 54 17zM323 560 q-83 0 -141.5 50t-58.5 124h133q0 -24 19 -38.5t48 -14.5q30 0 49 14.5t19 38.5h133q0 -74 -58.5 -124t-142.5 -50z" />
<glyph unicode="&#x104;" horiz-adv-x="862" d="M812 -98l23 -91q-41 -16 -98 -16q-61 0 -94 23.5t-33 68.5q0 48 37 107l4 6h-69l-36 107h-231l-35 -107h-260l267 700h285l270 -700h-81l-1 -2q-25 -37 -25 -58q0 -41 54 -41q11 0 23 3zM372 280h117l-59 178z" />
<glyph unicode="&#x105;" horiz-adv-x="585" d="M553 -98l23 -91q-41 -16 -98 -16q-61 0 -94 23.5t-33 68.5q0 52 37 107l4 6h-50v58q-68 -68 -150 -68q-73 0 -117.5 43t-44.5 111q0 69 47 108t130 39h135v12q0 51 -70 51q-64 0 -137 -39l-57 129q124 66 253 66q102 0 158 -48.5t56 -138.5v-323h-43l-1 -2 q-25 -43 -25 -58q0 -41 54 -41q11 0 23 3zM342 127v83h-54q-57 0 -57 -47q0 -24 15 -38.5t42 -14.5q28 0 54 17z" />
<glyph unicode="&#x106;" horiz-adv-x="750" d="M720 551l-189 -105q-41 60 -115 60q-64 0 -104 -45q-40 -44 -40 -111t40 -111q41 -45 104 -45q74 0 115 60l189 -105q-51 -74 -132 -116.5t-174 -42.5q-149 -3 -261 106t-108 254q-4 145 108 254t261 106q93 0 174 -42.5t132 -116.5zM624 928l-158 -178h-174l123 178h209 z" />
<glyph unicode="&#x107;" horiz-adv-x="558" d="M534 392l-155 -85q-25 31 -70 31q-34 0 -57 -25t-23 -63t23 -63t57 -25q45 0 70 31l155 -85q-37 -55 -98 -86.5t-132 -31.5q-110 -2 -193 76t-81 184q-2 106 81 184t193 76q71 0 132 -31.5t98 -86.5zM513 728l-158 -178h-174l123 178h209z" />
<glyph unicode="&#x108;" horiz-adv-x="750" d="M720 551l-189 -105q-41 60 -115 60q-64 0 -104 -45q-40 -44 -40 -111t40 -111q41 -45 104 -45q74 0 115 60l189 -105q-51 -74 -132 -116.5t-174 -42.5q-149 -3 -261 106t-108 254q-4 145 108 254t261 106q93 0 174 -42.5t132 -116.5zM509 928l123 -178h-167l-62 74 l-61 -74h-168l123 178h212z" />
<glyph unicode="&#x109;" horiz-adv-x="558" d="M534 392l-155 -85q-25 31 -70 31q-34 0 -57 -25t-23 -63t23 -63t57 -25q45 0 70 31l155 -85q-37 -55 -98 -86.5t-132 -31.5q-110 -2 -193 76t-81 184q-2 106 81 184t193 76q71 0 132 -31.5t98 -86.5zM398 728l123 -178h-167l-62 74l-61 -74h-168l123 178h212z" />
<glyph unicode="&#x10a;" horiz-adv-x="750" d="M720 551l-189 -105q-41 60 -115 60q-64 0 -104 -45q-40 -44 -40 -111t40 -111q41 -45 104 -45q74 0 115 60l189 -105q-51 -74 -132 -116.5t-174 -42.5q-149 -3 -261 106t-108 254q-4 145 108 254t261 106q93 0 174 -42.5t132 -116.5zM485 848q0 -36 -23.5 -59.5 t-58.5 -23.5q-36 0 -59.5 23.5t-23.5 59.5q0 35 23.5 58.5t59.5 23.5q35 0 58.5 -23.5t23.5 -58.5z" />
<glyph unicode="&#x10b;" horiz-adv-x="558" d="M534 392l-155 -85q-25 31 -70 31q-34 0 -57 -25t-23 -63t23 -63t57 -25q45 0 70 31l155 -85q-37 -55 -98 -86.5t-132 -31.5q-110 -2 -193 76t-81 184q-2 106 81 184t193 76q71 0 132 -31.5t98 -86.5zM374 648q0 -36 -23.5 -59.5t-58.5 -23.5q-36 0 -59.5 23.5t-23.5 59.5 q0 35 23.5 58.5t59.5 23.5q35 0 58.5 -23.5t23.5 -58.5z" />
<glyph unicode="&#x10c;" horiz-adv-x="750" d="M720 551l-189 -105q-41 60 -115 60q-64 0 -104 -45q-40 -44 -40 -111t40 -111q41 -45 104 -45q74 0 115 60l189 -105q-51 -74 -132 -116.5t-174 -42.5q-149 -3 -261 106t-108 254q-4 145 108 254t261 106q93 0 174 -42.5t132 -116.5zM632 928l-123 -178h-212l-123 178 h168l61 -74l62 74h167z" />
<glyph unicode="&#x10d;" horiz-adv-x="558" d="M534 392l-155 -85q-25 31 -70 31q-34 0 -57 -25t-23 -63t23 -63t57 -25q45 0 70 31l155 -85q-37 -55 -98 -86.5t-132 -31.5q-110 -2 -193 76t-81 184q-2 106 81 184t193 76q71 0 132 -31.5t98 -86.5zM521 728l-123 -178h-212l-123 178h168l61 -74l62 74h167z" />
<glyph unicode="&#x10e;" horiz-adv-x="790" d="M745 350q3 -145 -110 -248.5t-267 -101.5h-308v700h308q154 2 267 -101.5t110 -248.5zM360 506h-82v-312h82q66 0 114 45.5t48 110.5t-47.5 110.5t-114.5 45.5zM575 928l-123 -178h-212l-123 178h168l61 -74l62 74h167z" />
<glyph unicode="&#x10f;" horiz-adv-x="854" d="M391 700h203v-700h-203v55q-63 -65 -150 -65q-93 0 -152 72t-59 188t59 188t152 72q87 0 150 -65v255zM391 207v86q-27 45 -79 45q-35 0 -58.5 -25.5t-23.5 -62.5t23.5 -62.5t58.5 -25.5q52 0 79 45zM854 626q0 -25 -14 -45l-141 -205l-57 26l58 143q-59 25 -59 81 q0 37 31 64t75 27t75.5 -26.5t31.5 -64.5z" />
<glyph unicode="&#x110;" horiz-adv-x="790" d="M745 350q3 -145 -110 -248.5t-267 -101.5h-308v265h-50v170h50v265h308q154 2 267 -101.5t110 -248.5zM522 350q0 65 -47.5 110.5t-114.5 45.5h-82v-71h122v-170h-122v-71h82q66 0 114 45.5t48 110.5z" />
<glyph unicode="&#x111;" horiz-adv-x="639" d="M656 657v-125h-62v-532h-203v55q-63 -65 -150 -65q-93 0 -152 72t-59 188t59 188t152 72q87 0 150 -65v87h-95v125h95v43h203v-43h62zM391 207v86q-27 45 -79 45q-35 0 -58.5 -25.5t-23.5 -62.5t23.5 -62.5t58.5 -25.5q52 0 79 45z" />
<glyph unicode="&#x112;" horiz-adv-x="682" d="M647 700v-193h-369v-62h344v-181h-344v-71h374v-193h-592v700h587zM532 910v-125h-361v125h361z" />
<glyph unicode="&#x114;" horiz-adv-x="682" d="M647 700v-193h-369v-62h344v-181h-344v-71h374v-193h-592v700h587zM351 760q-83 0 -141.5 50t-58.5 124h133q0 -24 19 -38.5t48 -14.5q30 0 49 14.5t19 38.5h133q0 -74 -58.5 -124t-142.5 -50z" />
<glyph unicode="&#x115;" horiz-adv-x="601" d="M575 250v-48h-341q13 -66 92 -66q60 0 99 34l109 -94q-92 -86 -226 -86q-120 0 -199 75t-79 185t77.5 185t195.5 75q123 0 197.5 -74t74.5 -186zM233 296h144q0 31 -19 51t-51 20q-62 0 -74 -71zM303 560q-83 0 -141.5 50t-58.5 124h133q0 -24 19 -38.5t48 -14.5 q30 0 49 14.5t19 38.5h133q0 -74 -58.5 -124t-142.5 -50z" />
<glyph unicode="&#x116;" horiz-adv-x="682" d="M647 700v-193h-369v-62h344v-181h-344v-71h374v-193h-592v700h587zM433 848q0 -36 -23.5 -59.5t-58.5 -23.5q-36 0 -59.5 23.5t-23.5 59.5q0 35 23.5 58.5t59.5 23.5q35 0 58.5 -23.5t23.5 -58.5z" />
<glyph unicode="&#x118;" horiz-adv-x="682" d="M656 -98l23 -91q-41 -16 -98 -16q-61 0 -94 23.5t-33 68.5q0 52 37 107l4 6h-435v700h587v-193h-369v-62h344v-181h-344v-71h374v-193h-47l-1 -2q-25 -43 -25 -58q0 -41 54 -41q11 0 23 3z" />
<glyph unicode="&#x119;" horiz-adv-x="601" d="M575 250v-48h-341q13 -66 92 -66q60 0 99 34l109 -94q-31 -27 -59 -43q-41 -65 -41 -93q0 -41 54 -41q11 0 23 3l23 -91q-41 -16 -98 -16q-61 0 -94 23.5t-33 68.5q0 43 36 105q-32 -2 -37 -2q-120 0 -199 75t-79 185t77.5 185t195.5 75q123 0 197.5 -74t74.5 -186z M233 296h144q0 31 -19 51t-51 20q-62 0 -74 -71z" />
<glyph unicode="&#x11a;" horiz-adv-x="682" d="M647 700v-193h-369v-62h344v-181h-344v-71h374v-193h-592v700h587zM580 928l-123 -178h-212l-123 178h168l61 -74l62 74h167z" />
<glyph unicode="&#x11b;" horiz-adv-x="601" d="M575 250v-48h-341q13 -66 92 -66q60 0 99 34l109 -94q-92 -86 -226 -86q-120 0 -199 75t-79 185t77.5 185t195.5 75q123 0 197.5 -74t74.5 -186zM233 296h144q0 31 -19 51t-51 20q-62 0 -74 -71zM532 728l-123 -178h-212l-123 178h168l61 -74l62 74h167z" />
<glyph unicode="&#x11c;" horiz-adv-x="792" d="M716 606l-142 -148q-58 52 -139 52q-69 0 -116 -43t-47 -117q0 -66 42 -111t108 -45q58 0 109 24v41h-96v154h303v-317q-139 -106 -316 -106q-152 -3 -266 106t-111 254q-2 109 54 193t145 126t191 41q163 0 281 -104zM520 928l123 -178h-167l-62 74l-61 -74h-168 l123 178h212z" />
<glyph unicode="&#x11d;" horiz-adv-x="639" d="M391 500h203v-480q0 -117 -74 -173q-73 -55 -192 -55q-167 0 -292 64l57 131q85 -42 192 -42q106 0 106 75v41q-63 -63 -150 -63q-93 0 -152 71t-59 185t59 185t152 71q86 0 150 -64v54zM391 212v84q-27 45 -79 45q-35 0 -58.5 -25.5t-23.5 -61.5t23.5 -61.5t58.5 -25.5 q52 0 79 45zM448 728l123 -178h-167l-62 74l-61 -74h-168l123 178h212z" />
<glyph unicode="&#x11e;" horiz-adv-x="792" d="M716 606l-142 -148q-58 52 -139 52q-69 0 -116 -43t-47 -117q0 -66 42 -111t108 -45q58 0 109 24v41h-96v154h303v-317q-139 -106 -316 -106q-152 -3 -266 106t-111 254q-2 109 54 193t145 126t191 41q163 0 281 -104zM414 760q-83 0 -141.5 50t-58.5 124h133 q0 -24 19 -38.5t48 -14.5q30 0 49 14.5t19 38.5h133q0 -74 -58.5 -124t-142.5 -50z" />
<glyph unicode="&#x11f;" horiz-adv-x="639" d="M391 500h203v-480q0 -117 -74 -173q-73 -55 -192 -55q-167 0 -292 64l57 131q85 -42 192 -42q106 0 106 75v41q-63 -63 -150 -63q-93 0 -152 71t-59 185t59 185t152 71q86 0 150 -64v54zM391 212v84q-27 45 -79 45q-35 0 -58.5 -25.5t-23.5 -61.5t23.5 -61.5t58.5 -25.5 q52 0 79 45zM342 560q-83 0 -141.5 50t-58.5 124h133q0 -24 19 -38.5t48 -14.5q30 0 49 14.5t19 38.5h133q0 -74 -58.5 -124t-142.5 -50z" />
<glyph unicode="&#x120;" horiz-adv-x="792" d="M716 606l-142 -148q-58 52 -139 52q-69 0 -116 -43t-47 -117q0 -66 42 -111t108 -45q58 0 109 24v41h-96v154h303v-317q-139 -106 -316 -106q-152 -3 -266 106t-111 254q-2 109 54 193t145 126t191 41q163 0 281 -104zM496 848q0 -36 -23.5 -59.5t-58.5 -23.5 q-36 0 -59.5 23.5t-23.5 59.5q0 35 23.5 58.5t59.5 23.5q35 0 58.5 -23.5t23.5 -58.5z" />
<glyph unicode="&#x121;" horiz-adv-x="639" d="M391 500h203v-480q0 -117 -74 -173q-73 -55 -192 -55q-167 0 -292 64l57 131q85 -42 192 -42q106 0 106 75v41q-63 -63 -150 -63q-93 0 -152 71t-59 185t59 185t152 71q86 0 150 -64v54zM391 212v84q-27 45 -79 45q-35 0 -58.5 -25.5t-23.5 -61.5t23.5 -61.5t58.5 -25.5 q52 0 79 45zM424 648q0 -36 -23.5 -59.5t-58.5 -23.5q-36 0 -59.5 23.5t-23.5 59.5q0 35 23.5 58.5t59.5 23.5q35 0 58.5 -23.5t23.5 -58.5z" />
<glyph unicode="&#x122;" horiz-adv-x="792" d="M716 606l-142 -148q-58 52 -139 52q-69 0 -116 -43t-47 -117q0 -66 42 -111t108 -45q58 0 109 24v41h-96v154h303v-317q-139 -106 -316 -106q-152 -3 -266 106t-111 254q-2 109 54 193t145 126t191 41q163 0 281 -104zM521 -113q0 -20 -13 -36l-110 -135l-49 21l38 84 q-23 9 -37 27t-14 39q0 31 27 52t65 21t65.5 -21t27.5 -52z" />
<glyph unicode="&#x123;" horiz-adv-x="639" d="M391 500h203v-480q0 -117 -74 -173q-73 -55 -192 -55q-167 0 -292 64l57 131q85 -42 192 -42q106 0 106 75v41q-63 -63 -150 -63q-93 0 -152 71t-59 185t59 185t152 71q86 0 150 -64v54zM391 212v84q-27 45 -79 45q-35 0 -58.5 -25.5t-23.5 -61.5t23.5 -61.5t58.5 -25.5 q52 0 79 45zM255 630q0 20 13 36l110 135l49 -21l-38 -84q23 -9 37 -27t14 -39q0 -31 -27 -52t-65 -21t-65.5 21t-27.5 52z" />
<glyph unicode="&#x124;" horiz-adv-x="795" d="M735 700v-700h-217v254h-240v-254h-218v700h218v-251h240v251h217zM519 928l123 -178h-167l-62 74l-61 -74h-168l123 178h212z" />
<glyph unicode="&#x125;" horiz-adv-x="636" d="M596 351v-351h-203v289q0 27 -15 42t-43 15q-41 0 -82 -29v-317h-203v700h203v-249q83 59 176 59q76 0 121.5 -42.5t45.5 -116.5zM267 928l123 -178h-167l-62 74l-61 -74h-168l123 178h212z" />
<glyph unicode="&#x126;" horiz-adv-x="795" d="M795 645v-135h-60v-510h-217v254h-240v-254h-218v510h-60v135h60v55h218v-55h240v55h217v-55h60zM518 449v61h-240v-61h240z" />
<glyph unicode="&#x127;" horiz-adv-x="636" d="M596 351v-351h-203v289q0 27 -15 42t-43 15q-41 0 -82 -29v-317h-203v532h-59v125h59v43h203v-43h117v-125h-117v-81q83 59 176 59q76 0 121.5 -42.5t45.5 -116.5z" />
<glyph unicode="&#x128;" horiz-adv-x="338" d="M278 700v-700h-218v700h218zM90 928q27 0 77 -18q59 -22 82 -22q27 0 37 33l86 -11q0 -72 -26.5 -115t-82.5 -43q-29 0 -92 23q-48 17 -67 17q-27 0 -37 -33l-86 11q0 72 26.5 115t82.5 43z" />
<glyph unicode="&#x129;" horiz-adv-x="310" d="M257 500v-500h-203v500h203zM71 728q27 0 77 -18q59 -22 82 -22q27 0 37 33l86 -11q0 -72 -26.5 -115t-82.5 -43q-29 0 -92 23q-48 17 -67 17q-27 0 -37 -33l-86 11q0 72 26.5 115t82.5 43z" />
<glyph unicode="&#x12a;" horiz-adv-x="338" d="M278 700v-700h-218v700h218zM357 910v-125h-361v125h361z" />
<glyph unicode="&#x12b;" horiz-adv-x="310" d="M257 500v-500h-203v500h203zM338 710v-125h-361v125h361z" />
<glyph unicode="&#x12e;" horiz-adv-x="338" d="M285 -98l23 -91q-41 -16 -98 -16q-61 0 -94 23.5t-33 68.5q0 52 37 107l4 6h-64v700h218v-700h-44l-1 -2q-25 -43 -25 -58q0 -41 54 -41q11 0 23 3z" />
<glyph unicode="&#x12f;" horiz-adv-x="310" d="M50 621q0 37 31 63t74 26q44 0 75 -26t31 -63t-31 -62.5t-75 -25.5t-74.5 25.5t-30.5 62.5zM266 -98l23 -91q-41 -16 -98 -16q-61 0 -94 23.5t-33 68.5q0 52 37 107l4 6h-51v500h203v-500h-42l-1 -2q-25 -43 -25 -58q0 -41 54 -41q11 0 23 3z" />
<glyph unicode="&#x130;" horiz-adv-x="338" d="M278 700v-700h-218v700h218zM258 848q0 -36 -23.5 -59.5t-58.5 -23.5q-36 0 -59.5 23.5t-23.5 59.5q0 35 23.5 58.5t59.5 23.5q35 0 58.5 -23.5t23.5 -58.5z" />
<glyph unicode="&#x131;" horiz-adv-x="310" d="M257 500v-500h-203v500h203z" />
<glyph unicode="&#x132;" horiz-adv-x="957" d="M278 700v-700h-218v700h218zM898 700v-410q0 -166 -71 -233t-216 -67q-98 0 -159.5 28.5t-93.5 93.5l175 112q18 -35 67 -35q80 0 80 101v410h218z" />
<glyph unicode="&#x133;" horiz-adv-x="612" d="M261 621q0 -37 -31 -62.5t-75 -25.5t-74.5 25.5t-30.5 62.5t31 63t74 26q44 0 75 -26t31 -63zM257 500v-500h-203v500h203zM567 621q0 -37 -30.5 -62.5t-74.5 -25.5t-74.5 25.5t-30.5 62.5t31 63t74 26t74 -26t31 -63zM564 500v-533q0 -86 -48.5 -129t-130.5 -43 q-58 0 -115 20l19 110q9 -3 17 -3q24 0 39 16t15 42v520h204z" />
<glyph unicode="&#x134;" horiz-adv-x="619" d="M560 700v-410q0 -166 -71 -233t-216 -67q-98 0 -159.5 28.5t-93.5 93.5l175 112q18 -35 67 -35q80 0 80 101v410h218zM556 928l123 -178h-167l-62 74l-61 -74h-168l123 178h212z" />
<glyph unicode="&#x135;" horiz-adv-x="302" d="M254 500v-533q0 -86 -48.5 -129t-130.5 -43q-58 0 -115 20l19 110q9 -3 17 -3q24 0 39 16t15 42v520h204zM256 728l123 -178h-167l-62 74l-61 -74h-168l123 178h212z" />
<glyph unicode="&#x136;" horiz-adv-x="774" d="M475 0l-113 230l-84 -102v-128h-218v700h218v-251l180 251h291l-244 -296l249 -404h-279zM489 -113q0 -20 -13 -36l-110 -135l-49 21l38 84q-23 9 -37 27t-14 39q0 31 27 52t65 21t65.5 -21t27.5 -52z" />
<glyph unicode="&#x137;" horiz-adv-x="630" d="M620 0h-211l-91 158l-65 -76v-82h-203v700h203v-371l127 171h230l-164 -192zM417 -113q0 -20 -13 -36l-110 -135l-49 21l38 84q-23 9 -37 27t-14 39q0 31 27 52t65 21t65.5 -21t27.5 -52z" />
<glyph unicode="&#x139;" horiz-adv-x="626" d="M278 700v-505h328v-195h-546v700h218zM400 928l-158 -178h-174l123 178h209z" />
<glyph unicode="&#x13a;" horiz-adv-x="303" d="M253 700v-700h-203v700h203zM376 928l-158 -178h-174l123 178h209z" />
<glyph unicode="&#x13b;" horiz-adv-x="626" d="M278 700v-505h328v-195h-546v700h218zM430 -113q0 -20 -13 -36l-110 -135l-49 21l38 84q-23 9 -37 27t-14 39q0 31 27 52t65 21t65.5 -21t27.5 -52z" />
<glyph unicode="&#x13c;" horiz-adv-x="303" d="M253 700v-700h-203v700h203zM251 -113q0 -20 -13 -36l-110 -135l-49 21l38 84q-23 9 -37 27t-14 39q0 31 27 52t65 21t65.5 -21t27.5 -52z" />
<glyph unicode="&#x13d;" horiz-adv-x="626" d="M278 700v-505h328v-195h-546v700h218zM606 626q0 -25 -14 -45l-141 -205l-57 26l58 143q-59 25 -59 81q0 37 31 64t75 27t75.5 -26.5t31.5 -64.5z" />
<glyph unicode="&#x13e;" horiz-adv-x="518" d="M253 700v-700h-203v700h203zM518 626q0 -25 -14 -45l-141 -205l-57 26l58 143q-59 25 -59 81q0 37 31 64t75 27t75.5 -26.5t31.5 -64.5z" />
<glyph unicode="&#x13f;" horiz-adv-x="626" d="M278 700v-505h328v-195h-546v700h218zM584 377q0 -38 -31.5 -64.5t-75.5 -26.5t-75 26.5t-31 64.5q0 37 31 64t75 27t75.5 -26.5t31.5 -64.5z" />
<glyph unicode="&#x140;" horiz-adv-x="530" d="M253 700v-700h-203v700h203zM519 377q0 -38 -31.5 -64.5t-75.5 -26.5t-75 26.5t-31 64.5q0 37 31 64t75 27t75.5 -26.5t31.5 -64.5z" />
<glyph unicode="&#x141;" horiz-adv-x="626" d="M278 195h328v-195h-546v239l-45 -20v199l45 20v262h218v-166l94 42v-198l-94 -42v-141z" />
<glyph unicode="&#x142;" horiz-adv-x="303" d="M309 531v-198l-56 -27v-306h-203v206l-56 -27v199l56 27v295h203v-196z" />
<glyph unicode="&#x143;" horiz-adv-x="795" d="M522 700h213v-700h-223l-238 341v-341h-214v700h224l238 -341v341zM641 928l-158 -178h-174l123 178h209z" />
<glyph unicode="&#x144;" horiz-adv-x="636" d="M596 351v-351h-203v289q0 27 -15 42t-43 15q-41 0 -82 -29v-317h-203v500h203v-49q83 59 176 59q76 0 121.5 -42.5t45.5 -116.5zM544 728l-158 -178h-174l123 178h209z" />
<glyph unicode="&#x145;" horiz-adv-x="795" d="M522 700h213v-700h-223l-238 341v-341h-214v700h224l238 -341v341zM518 -113q0 -20 -13 -36l-110 -135l-49 21l38 84q-23 9 -37 27t-14 39q0 31 27 52t65 21t65.5 -21t27.5 -52z" />
<glyph unicode="&#x146;" horiz-adv-x="636" d="M596 351v-351h-203v289q0 27 -15 42t-43 15q-41 0 -82 -29v-317h-203v500h203v-49q83 59 176 59q76 0 121.5 -42.5t45.5 -116.5zM421 -113q0 -20 -13 -36l-110 -135l-49 21l38 84q-23 9 -37 27t-14 39q0 31 27 52t65 21t65.5 -21t27.5 -52z" />
<glyph unicode="&#x147;" horiz-adv-x="795" d="M522 700h213v-700h-223l-238 341v-341h-214v700h224l238 -341v341zM649 928l-123 -178h-212l-123 178h168l61 -74l62 74h167z" />
<glyph unicode="&#x148;" horiz-adv-x="636" d="M596 351v-351h-203v289q0 27 -15 42t-43 15q-41 0 -82 -29v-317h-203v500h203v-49q83 59 176 59q76 0 121.5 -42.5t45.5 -116.5zM552 728l-123 -178h-212l-123 178h168l61 -74l62 74h167z" />
<glyph unicode="&#x14a;" horiz-adv-x="795" d="M521 700h214v-654q0 -162 -69 -228t-212 -66q-192 0 -249 119l171 111q20 -35 66 -35q58 0 73 49l-241 345v-341h-214v700h224l237 -340v340z" />
<glyph unicode="&#x14b;" horiz-adv-x="636" d="M596 351v-384q0 -86 -48.5 -129t-129.5 -43q-58 0 -115 20l19 110q9 -3 17 -3q24 0 39 16t15 42v309q0 27 -14.5 42t-38.5 15q-49 0 -87 -29v-317h-203v500h203v-49q81 59 170 59q78 0 125.5 -41t47.5 -118z" />
<glyph unicode="&#x14c;" horiz-adv-x="843" d="M798 350q2 -95 -49.5 -179t-139 -133.5t-187.5 -47.5q-152 -3 -266 106t-111 254q-3 145 111 254t266 106q100 2 187.5 -47.5t139 -133.5t49.5 -179zM272 350q0 -66 42 -111t108 -45q65 0 107.5 45.5t42.5 110.5t-42.5 110.5t-107.5 45.5q-66 0 -108 -45t-42 -111z M603 910v-125h-361v125h361z" />
<glyph unicode="&#x14d;" horiz-adv-x="636" d="M606 250q2 -110 -82.5 -186t-205.5 -74q-121 -2 -205.5 74t-82.5 186q-2 110 82.5 186t205.5 74q121 2 205.5 -74t82.5 -186zM230 250q0 -40 24 -64t63 -24q40 0 64 24t24 64t-24 64t-64 24q-39 0 -63 -24t-24 -64zM499 710v-125h-361v125h361z" />
<glyph unicode="&#x150;" horiz-adv-x="843" d="M798 350q2 -95 -49.5 -179t-139 -133.5t-187.5 -47.5q-152 -3 -266 106t-111 254q-3 145 111 254t266 106q100 2 187.5 -47.5t139 -133.5t49.5 -179zM272 350q0 -66 42 -111t108 -45q65 0 107.5 45.5t42.5 110.5t-42.5 110.5t-107.5 45.5q-66 0 -108 -45t-42 -111z M556 928l-158 -178h-174l123 178h209zM820 928l-158 -178h-174l124 178h208z" />
<glyph unicode="&#x151;" horiz-adv-x="636" d="M606 250q2 -110 -82.5 -186t-205.5 -74q-121 -2 -205.5 74t-82.5 186q-2 110 82.5 186t205.5 74q121 2 205.5 -74t82.5 -186zM230 250q0 -40 24 -64t63 -24q40 0 64 24t24 64t-24 64t-64 24q-39 0 -63 -24t-24 -64zM452 728l-158 -178h-174l123 178h209zM716 728 l-158 -178h-174l124 178h208z" />
<glyph unicode="&#x152;" horiz-adv-x="1176" d="M791 193h355v-193h-572v25q-68 -35 -152 -35q-152 -3 -266 106t-111 254q-3 145 111 254t266 106q84 0 152 -35v25h567v-193h-350v-62h325v-181h-325v-71zM572 350q0 65 -42.5 110.5t-107.5 45.5q-66 0 -108.5 -45t-42.5 -111t42.5 -111t108.5 -45q65 0 107.5 45.5 t42.5 110.5z" />
<glyph unicode="&#x153;" horiz-adv-x="976" d="M950 250v-48h-341q13 -66 92 -66q60 0 99 34l109 -94q-92 -86 -226 -86q-107 0 -181 60q-78 -60 -184 -60q-117 -2 -204 76.5t-84 183.5q-3 105 84 183.5t204 76.5q102 0 183 -59q75 59 177 59q123 0 197.5 -74t74.5 -186zM608 296h144q0 31 -19 51t-51 20q-62 0 -74 -71 zM404 250q0 37 -25.5 62.5t-61.5 25.5t-62 -25.5t-26 -62.5t26 -62.5t62 -25.5t61.5 25.5t25.5 62.5z" />
<glyph unicode="&#x154;" horiz-adv-x="743" d="M724 0h-250l-123 200h-73v-200h-218v700h319q174 0 251 -57.5t77 -187.5q0 -169 -132 -224zM278 514v-137h112q49 0 70 15.5t21 52.5t-21 53t-70 16h-112zM598 928l-158 -178h-174l123 178h209z" />
<glyph unicode="&#x155;" horiz-adv-x="419" d="M410 510v-164q-89 0 -157 -85v-261h-203v500h203v-91q34 48 75.5 74.5t81.5 26.5zM444 728l-158 -178h-174l123 178h209z" />
<glyph unicode="&#x156;" horiz-adv-x="743" d="M724 0h-250l-123 200h-73v-200h-218v700h319q174 0 251 -57.5t77 -187.5q0 -169 -132 -224zM278 514v-137h112q49 0 70 15.5t21 52.5t-21 53t-70 16h-112zM479 -113q0 -20 -13 -36l-110 -135l-49 21l38 84q-23 9 -37 27t-14 39q0 31 27 52t65 21t65.5 -21t27.5 -52z" />
<glyph unicode="&#x157;" horiz-adv-x="419" d="M410 510v-164q-89 0 -157 -85v-261h-203v500h203v-91q34 48 75.5 74.5t81.5 26.5zM248 -113q0 -20 -13 -36l-110 -135l-49 21l38 84q-23 9 -37 27t-14 39q0 31 27 52t65 21t65.5 -21t27.5 -52z" />
<glyph unicode="&#x158;" horiz-adv-x="743" d="M724 0h-250l-123 200h-73v-200h-218v700h319q174 0 251 -57.5t77 -187.5q0 -169 -132 -224zM278 514v-137h112q49 0 70 15.5t21 52.5t-21 53t-70 16h-112zM606 928l-123 -178h-212l-123 178h168l61 -74l62 74h167z" />
<glyph unicode="&#x159;" horiz-adv-x="419" d="M410 510v-164q-89 0 -157 -85v-261h-203v500h203v-91q34 48 75.5 74.5t81.5 26.5zM452 728l-123 -178h-212l-123 178h168l61 -74l62 74h167z" />
<glyph unicode="&#x15a;" horiz-adv-x="710" d="M668 631l-91 -168q-65 31 -124 46q-64 18 -107 18q-50 0 -50 -28q0 -8 12.5 -14t56.5 -19l58 -16q91 -25 140 -49q118 -54 118 -179q0 -110 -80.5 -171t-228.5 -61q-190 0 -342 100l97 162q138 -76 264 -76q32 0 46 7.5t14 25.5q0 11 -13.5 18t-65.5 20l-64 16 q-75 18 -134 43q-114 51 -114 174q0 112 84 171q85 59 221 59q173 0 303 -79zM582 928l-158 -178h-174l123 178h209z" />
<glyph unicode="&#x15b;" horiz-adv-x="520" d="M481 453l-66 -123q-83 46 -151 46q-33 0 -33 -19q0 -7 7.5 -11t33.5 -11l44 -11q92 -24 133 -62.5t41 -102.5q0 -81 -58 -125t-164 -44q-138 0 -248 72l70 117q93 -55 183 -55q29 0 29 20q0 8 -6 12t-28 10l-60 16q-90 25 -128 60.5t-38 96.5q0 81 58 126t162 45 q119 0 219 -57zM480 728l-158 -178h-174l123 178h209z" />
<glyph unicode="&#x15c;" horiz-adv-x="710" d="M668 631l-91 -168q-65 31 -124 46q-64 18 -107 18q-50 0 -50 -28q0 -8 12.5 -14t56.5 -19l58 -16q91 -25 140 -49q118 -54 118 -179q0 -110 -80.5 -171t-228.5 -61q-190 0 -342 100l97 162q138 -76 264 -76q32 0 46 7.5t14 25.5q0 11 -13.5 18t-65.5 20l-64 16 q-75 18 -134 43q-114 51 -114 174q0 112 84 171q85 59 221 59q173 0 303 -79zM467 928l123 -178h-167l-62 74l-61 -74h-168l123 178h212z" />
<glyph unicode="&#x15d;" horiz-adv-x="520" d="M481 453l-66 -123q-83 46 -151 46q-33 0 -33 -19q0 -7 7.5 -11t33.5 -11l44 -11q92 -24 133 -62.5t41 -102.5q0 -81 -58 -125t-164 -44q-138 0 -248 72l70 117q93 -55 183 -55q29 0 29 20q0 8 -6 12t-28 10l-60 16q-90 25 -128 60.5t-38 96.5q0 81 58 126t162 45 q119 0 219 -57zM365 728l123 -178h-167l-62 74l-61 -74h-168l123 178h212z" />
<glyph unicode="&#x15e;" horiz-adv-x="710" d="M413 -9l-15 -31q45 -2 72.5 -28.5t27.5 -66.5q0 -49 -36 -75t-94 -26q-60 0 -114 28l25 66q24 -12 58 -12q22 0 34.5 10t12.5 26q0 29 -30 29q-10 0 -20 -5l-30 34l26 51q-168 11 -300 99l97 162q138 -76 264 -76q32 0 46 7.5t14 25.5q0 11 -13.5 18t-65.5 20l-64 16 q-75 18 -134 43q-114 51 -114 174q0 112 84 171q85 59 221 59q173 0 303 -79l-91 -168q-65 31 -124 46q-64 18 -107 18q-50 0 -50 -28q0 -8 12.5 -14t56.5 -19l58 -16q91 -25 140 -49q118 -54 118 -179q0 -102 -69.5 -162t-198.5 -69z" />
<glyph unicode="&#x15f;" horiz-adv-x="520" d="M300 -9l-15 -31q45 -2 72.5 -28.5t27.5 -66.5q0 -49 -36 -75t-94 -26q-60 0 -114 28l25 66q24 -12 58 -12q22 0 34.5 10t12.5 26q0 29 -30 29q-10 0 -20 -5l-30 34l27 53q-110 11 -198 69l70 117q93 -55 183 -55q29 0 29 20q0 8 -6 12t-28 10l-60 16q-90 25 -128 60.5 t-38 96.5q0 81 58 126t162 45q119 0 219 -57l-66 -123q-83 46 -151 46q-33 0 -33 -19q0 -7 7.5 -11t33.5 -11l44 -11q92 -24 133 -62.5t41 -102.5q0 -74 -49.5 -117.5t-140.5 -50.5z" />
<glyph unicode="&#x160;" horiz-adv-x="710" d="M668 631l-91 -168q-65 31 -124 46q-64 18 -107 18q-50 0 -50 -28q0 -8 12.5 -14t56.5 -19l58 -16q91 -25 140 -49q118 -54 118 -179q0 -110 -80.5 -171t-228.5 -61q-190 0 -342 100l97 162q138 -76 264 -76q32 0 46 7.5t14 25.5q0 11 -13.5 18t-65.5 20l-64 16 q-75 18 -134 43q-114 51 -114 174q0 112 84 171q85 59 221 59q173 0 303 -79zM590 928l-123 -178h-212l-123 178h168l61 -74l62 74h167z" />
<glyph unicode="&#x161;" horiz-adv-x="520" d="M481 453l-66 -123q-83 46 -151 46q-33 0 -33 -19q0 -7 7.5 -11t33.5 -11l44 -11q92 -24 133 -62.5t41 -102.5q0 -81 -58 -125t-164 -44q-138 0 -248 72l70 117q93 -55 183 -55q29 0 29 20q0 8 -6 12t-28 10l-60 16q-90 25 -128 60.5t-38 96.5q0 81 58 126t162 45 q119 0 219 -57zM488 728l-123 -178h-212l-123 178h168l61 -74l62 74h167z" />
<glyph unicode="&#x164;" horiz-adv-x="643" d="M624 700v-185h-193v-515h-218v515h-193v185h604zM543 928l-123 -178h-212l-123 178h168l61 -74l62 74h167z" />
<glyph unicode="&#x165;" horiz-adv-x="572" d="M562 680q0 -20 -13 -36l-110 -135l-49 21l38 84q-23 9 -37 27t-14 39q0 31 27 52t65 21t65.5 -21t27.5 -52zM399 173l25 -137q-83 -46 -170 -46q-79 0 -127 45.5t-48 129.5v181h-59v154h59v125h203v-125h113v-154h-113v-146q0 -46 52 -46q33 0 65 19z" />
<glyph unicode="&#x166;" horiz-adv-x="643" d="M624 515h-193v-134h94v-135h-94v-246h-218v246h-94v135h94v134h-193v185h604v-185z" />
<glyph unicode="&#x167;" horiz-adv-x="448" d="M399 173l25 -137q-83 -46 -170 -46q-79 0 -127 45.5t-48 129.5v30h-52v125h52v26h-59v154h59v125h203v-125h113v-154h-113v-26h106v-125h-106q1 -20 15 -30.5t37 -10.5q33 0 65 19z" />
<glyph unicode="&#x168;" horiz-adv-x="771" d="M711 700v-375q0 -166 -82 -250.5t-243 -84.5t-243.5 85t-82.5 250v375h218v-375q0 -136 108 -136t108 136v375h217zM300 928q27 0 77 -18q59 -22 82 -22q27 0 37 33l86 -11q0 -72 -26.5 -115t-82.5 -43q-29 0 -92 23q-48 17 -67 17q-27 0 -37 -33l-86 11q0 72 26.5 115 t82.5 43z" />
<glyph unicode="&#x169;" horiz-adv-x="636" d="M383 500h203v-500h-203v49q-83 -59 -176 -59q-76 0 -121.5 42.5t-45.5 116.5v351h203v-289q0 -27 15 -42t43 -15q41 0 82 29v317zM230 728q27 0 77 -18q59 -22 82 -22q27 0 37 33l86 -11q0 -72 -26.5 -115t-82.5 -43q-29 0 -92 23q-48 17 -67 17q-27 0 -37 -33l-86 11 q0 72 26.5 115t82.5 43z" />
<glyph unicode="&#x16a;" horiz-adv-x="771" d="M711 700v-375q0 -166 -82 -250.5t-243 -84.5t-243.5 85t-82.5 250v375h218v-375q0 -136 108 -136t108 136v375h217zM567 910v-125h-361v125h361z" />
<glyph unicode="&#x16b;" horiz-adv-x="636" d="M383 500h203v-500h-203v49q-83 -59 -176 -59q-76 0 -121.5 42.5t-45.5 116.5v351h203v-289q0 -27 15 -42t43 -15q41 0 82 29v317zM497 710v-125h-361v125h361z" />
<glyph unicode="&#x16c;" horiz-adv-x="771" d="M711 700v-375q0 -166 -82 -250.5t-243 -84.5t-243.5 85t-82.5 250v375h218v-375q0 -136 108 -136t108 136v375h217zM386 760q-83 0 -141.5 50t-58.5 124h133q0 -24 19 -38.5t48 -14.5q30 0 49 14.5t19 38.5h133q0 -74 -58.5 -124t-142.5 -50z" />
<glyph unicode="&#x16d;" horiz-adv-x="636" d="M383 500h203v-500h-203v49q-83 -59 -176 -59q-76 0 -121.5 42.5t-45.5 116.5v351h203v-289q0 -27 15 -42t43 -15q41 0 82 29v317zM316 560q-83 0 -141.5 50t-58.5 124h133q0 -24 19 -38.5t48 -14.5q30 0 49 14.5t19 38.5h133q0 -74 -58.5 -124t-142.5 -50z" />
<glyph unicode="&#x16e;" horiz-adv-x="771" d="M711 700v-375q0 -166 -82 -250.5t-243 -84.5t-243.5 85t-82.5 250v375h218v-375q0 -136 108 -136t108 136v375h217zM529 875q0 -57 -42 -98.5t-101 -41.5t-101 41.5t-42 98.5t42 98.5t101 41.5t101 -41.5t42 -98.5zM338 875q0 -19 14 -33t34 -14t34 14t14 33t-14 33 t-34 14t-34 -14t-14 -33z" />
<glyph unicode="&#x16f;" horiz-adv-x="636" d="M383 500h203v-500h-203v49q-83 -59 -176 -59q-76 0 -121.5 42.5t-45.5 116.5v351h203v-289q0 -27 15 -42t43 -15q41 0 82 29v317zM459 675q0 -57 -42 -98.5t-101 -41.5t-101 41.5t-42 98.5t42 98.5t101 41.5t101 -41.5t42 -98.5zM268 675q0 -19 14 -33t34 -14t34 14 t14 33t-14 33t-34 14t-34 -14t-14 -33z" />
<glyph unicode="&#x170;" horiz-adv-x="771" d="M711 700v-375q0 -166 -82 -250.5t-243 -84.5t-243.5 85t-82.5 250v375h218v-375q0 -136 108 -136t108 136v375h217zM520 928l-158 -178h-174l123 178h209zM784 928l-158 -178h-174l124 178h208z" />
<glyph unicode="&#x171;" horiz-adv-x="636" d="M383 500h203v-500h-203v49q-83 -59 -176 -59q-76 0 -121.5 42.5t-45.5 116.5v351h203v-289q0 -27 15 -42t43 -15q41 0 82 29v317zM450 728l-158 -178h-174l123 178h209zM714 728l-158 -178h-174l124 178h208z" />
<glyph unicode="&#x172;" horiz-adv-x="771" d="M494 700h217v-375q0 -153 -70.5 -237t-208.5 -96q-21 -36 -21 -52q0 -41 54 -41q11 0 23 3l23 -91q-41 -16 -98 -16q-61 0 -94 23.5t-33 68.5q0 52 37 107q-130 16 -196.5 99.5t-66.5 231.5v375h218v-375q0 -136 108 -136t108 136v375z" />
<glyph unicode="&#x173;" horiz-adv-x="636" d="M588 -98l23 -91q-41 -16 -98 -16q-61 0 -94 23.5t-33 68.5q0 52 37 107l4 6h-44v49q-83 -59 -176 -59q-76 0 -121.5 42.5t-45.5 116.5v351h203v-289q0 -27 15 -42t43 -15q41 0 82 29v317h203v-500h-49l-1 -2q-25 -43 -25 -58q0 -41 54 -41q11 0 23 3z" />
<glyph unicode="&#x174;" horiz-adv-x="1156" d="M893 700h243l-227 -700h-222l-109 362l-109 -362h-222l-227 700h243l106 -367l104 367h211l103 -367zM686 928l123 -178h-167l-62 74l-61 -74h-168l123 178h212z" />
<glyph unicode="&#x175;" horiz-adv-x="838" d="M829 500l-142 -500h-217l-51 207l-50 -207h-218l-141 500h202l58 -281l72 281h155l71 -281l58 281h203zM524 728l123 -178h-167l-62 74l-61 -74h-168l123 178h212z" />
<glyph unicode="&#x176;" horiz-adv-x="802" d="M525 700h257l-272 -463v-237h-218v234l-272 466h260l122 -233zM507 928l123 -178h-167l-62 74l-61 -74h-168l123 178h212z" />
<glyph unicode="&#x177;" horiz-adv-x="625" d="M616 500l-203 -544q-60 -161 -219 -161q-80 0 -184 40l56 132q60 -23 95 -23q48 0 73 37l3 4l-211 515h214l86 -282l79 282h211zM432 728l123 -178h-167l-62 74l-61 -74h-168l123 178h212z" />
<glyph unicode="&#x178;" horiz-adv-x="802" d="M525 700h257l-272 -463v-237h-218v234l-272 466h260l122 -233zM371 848q0 -36 -23.5 -59.5t-58.5 -23.5q-36 0 -59.5 23.5t-23.5 59.5q0 35 23.5 58.5t59.5 23.5q35 0 58.5 -23.5t23.5 -58.5zM596 848q0 -36 -24 -59.5t-59 -23.5t-58.5 23.5t-23.5 59.5q0 35 23.5 58.5 t58.5 23.5t59 -23.5t24 -58.5z" />
<glyph unicode="&#x179;" horiz-adv-x="689" d="M647 700v-152l-304 -356h316v-192h-629v155l291 353h-266v192h592zM565 928l-158 -178h-174l123 178h209z" />
<glyph unicode="&#x17a;" horiz-adv-x="540" d="M506 500v-130l-199 -207h209v-163h-491v130l198 207h-178v163h461zM502 728l-158 -178h-174l123 178h209z" />
<glyph unicode="&#x17b;" horiz-adv-x="689" d="M647 700v-152l-304 -356h316v-192h-629v155l291 353h-266v192h592zM426 848q0 -36 -23.5 -59.5t-58.5 -23.5q-36 0 -59.5 23.5t-23.5 59.5q0 35 23.5 58.5t59.5 23.5q35 0 58.5 -23.5t23.5 -58.5z" />
<glyph unicode="&#x17c;" horiz-adv-x="540" d="M506 500v-130l-199 -207h209v-163h-491v130l198 207h-178v163h461zM363 648q0 -36 -23.5 -59.5t-58.5 -23.5q-36 0 -59.5 23.5t-23.5 59.5q0 35 23.5 58.5t59.5 23.5q35 0 58.5 -23.5t23.5 -58.5z" />
<glyph unicode="&#x17d;" horiz-adv-x="689" d="M647 700v-152l-304 -356h316v-192h-629v155l291 353h-266v192h592zM573 928l-123 -178h-212l-123 178h168l61 -74l62 74h167z" />
<glyph unicode="&#x17e;" horiz-adv-x="540" d="M506 500v-130l-199 -207h209v-163h-491v130l198 207h-178v163h461zM510 728l-123 -178h-212l-123 178h168l61 -74l62 74h167z" />
<glyph unicode="&#x192;" horiz-adv-x="408" d="M419 685l-25 -124q-35 13 -65 13q-47 0 -47 -43v-87h113v-153h-113v-281q0 -215 -262 -215v127q27 6 42.5 31t15.5 62v276h-58v153h58v93q0 173 188 173q71 0 153 -25z" />
<glyph unicode="&#x218;" horiz-adv-x="710" d="M668 631l-91 -168q-65 31 -124 46q-64 18 -107 18q-50 0 -50 -28q0 -8 12.5 -14t56.5 -19l58 -16q91 -25 140 -49q118 -54 118 -179q0 -110 -80.5 -171t-228.5 -61q-190 0 -342 100l97 162q138 -76 264 -76q32 0 46 7.5t14 25.5q0 11 -13.5 18t-65.5 20l-64 16 q-75 18 -134 43q-114 51 -114 174q0 112 84 171q85 59 221 59q173 0 303 -79zM476 -113q0 -20 -13 -36l-110 -135l-49 21l38 84q-23 9 -37 27t-14 39q0 31 27 52t65 21t65.5 -21t27.5 -52z" />
<glyph unicode="&#x219;" horiz-adv-x="520" d="M481 453l-66 -123q-83 46 -151 46q-33 0 -33 -19q0 -7 7.5 -11t33.5 -11l44 -11q92 -24 133 -62.5t41 -102.5q0 -81 -58 -125t-164 -44q-138 0 -248 72l70 117q93 -55 183 -55q29 0 29 20q0 8 -6 12t-28 10l-60 16q-90 25 -128 60.5t-38 96.5q0 81 58 126t162 45 q119 0 219 -57zM363 -113q0 -20 -13 -36l-110 -135l-49 21l38 84q-23 9 -37 27t-14 39q0 31 27 52t65 21t65.5 -21t27.5 -52z" />
<glyph unicode="&#x21a;" horiz-adv-x="643" d="M624 700v-185h-193v-515h-218v515h-193v185h604zM412 -113q0 -20 -13 -36l-110 -135l-49 21l38 84q-23 9 -37 27t-14 39q0 31 27 52t65 21t65.5 -21t27.5 -52z" />
<glyph unicode="&#x21b;" horiz-adv-x="448" d="M399 173l25 -137q-83 -46 -170 -46q-79 0 -127 45.5t-48 129.5v181h-59v154h59v125h203v-125h113v-154h-113v-146q0 -46 52 -46q33 0 65 19zM341 -113q0 -20 -13 -36l-110 -135l-49 21l38 84q-23 9 -37 27t-14 39q0 31 27 52t65 21t65.5 -21t27.5 -52z" />
<glyph unicode="&#x237;" horiz-adv-x="302" d="M254 500v-533q0 -86 -48.5 -129t-130.5 -43q-58 0 -115 20l19 110q9 -3 17 -3q24 0 39 16t15 42v520h204z" />
<glyph unicode="&#x2c6;" horiz-adv-x="391" d="M302 728l123 -178h-167l-62 74l-61 -74h-168l123 178h212z" />
<glyph unicode="&#x2c7;" horiz-adv-x="391" d="M425 728l-123 -178h-212l-123 178h168l61 -74l62 74h167z" />
<glyph unicode="&#x2d8;" horiz-adv-x="391" d="M195 560q-83 0 -141.5 50t-58.5 124h133q0 -24 19 -38.5t48 -14.5q30 0 49 14.5t19 38.5h133q0 -74 -58.5 -124t-142.5 -50z" />
<glyph unicode="&#x2d9;" horiz-adv-x="391" d="M278 648q0 -36 -23.5 -59.5t-58.5 -23.5q-36 0 -59.5 23.5t-23.5 59.5q0 35 23.5 58.5t59.5 23.5q35 0 58.5 -23.5t23.5 -58.5z" />
<glyph unicode="&#x2da;" horiz-adv-x="391" d="M339 675q0 -57 -42 -98.5t-101 -41.5t-101 41.5t-42 98.5t42 98.5t101 41.5t101 -41.5t42 -98.5zM148 675q0 -19 14 -33t34 -14t34 14t14 33t-14 33t-34 14t-34 -14t-14 -33z" />
<glyph unicode="&#x2db;" horiz-adv-x="391" d="M127 3h110l-3 -5q-25 -43 -25 -58q0 -41 54 -41q11 0 23 3l23 -91q-41 -16 -98 -16q-61 0 -94 23.5t-33 68.5q0 52 37 107z" />
<glyph unicode="&#x2dc;" horiz-adv-x="391" d="M109 728q27 0 77 -18q59 -22 82 -22q27 0 37 33l86 -11q0 -72 -26.5 -115t-82.5 -43q-29 0 -92 23q-48 17 -67 17q-27 0 -37 -33l-86 11q0 72 26.5 115t82.5 43z" />
<glyph unicode="&#x2dd;" horiz-adv-x="391" d="M330 728l-158 -178h-174l123 178h209zM594 728l-158 -178h-174l124 178h208z" />
<glyph unicode="&#x300;" d="M-12 728l123 -178h-174l-158 178h209z" />
<glyph unicode="&#x301;" d="M221 728l-158 -178h-174l123 178h209z" />
<glyph unicode="&#x302;" d="M106 728l123 -178h-167l-62 74l-61 -74h-168l123 178h212z" />
<glyph unicode="&#x303;" d="M-86 728q27 0 77 -18q59 -22 82 -22q27 0 37 33l86 -11q0 -72 -26.5 -115t-82.5 -43q-29 0 -92 23q-48 17 -67 17q-27 0 -37 -33l-86 11q0 72 26.5 115t82.5 43z" />
<glyph unicode="&#x304;" d="M181 710v-125h-361v125h361z" />
<glyph unicode="&#x306;" d="M0 560q-83 0 -141.5 50t-58.5 124h133q0 -24 19 -38.5t48 -14.5q30 0 49 14.5t19 38.5h133q0 -74 -58.5 -124t-142.5 -50z" />
<glyph unicode="&#x307;" d="M82 648q0 -36 -23.5 -59.5t-58.5 -23.5q-36 0 -59.5 23.5t-23.5 59.5q0 35 23.5 58.5t59.5 23.5q35 0 58.5 -23.5t23.5 -58.5z" />
<glyph unicode="&#x308;" d="M-30 648q0 -36 -23.5 -59.5t-58.5 -23.5q-36 0 -59.5 23.5t-23.5 59.5q0 35 23.5 58.5t59.5 23.5q35 0 58.5 -23.5t23.5 -58.5zM195 648q0 -36 -24 -59.5t-59 -23.5t-58.5 23.5t-23.5 59.5q0 35 23.5 58.5t58.5 23.5t59 -23.5t24 -58.5z" />
<glyph unicode="&#x30a;" d="M143 675q0 -57 -42 -98.5t-101 -41.5t-101 41.5t-42 98.5t42 98.5t101 41.5t101 -41.5t42 -98.5zM-48 675q0 -19 14 -33t34 -14t34 14t14 33t-14 33t-34 14t-34 -14t-14 -33z" />
<glyph unicode="&#x30b;" d="M134 728l-158 -178h-174l123 178h209zM398 728l-158 -178h-174l124 178h208z" />
<glyph unicode="&#x30c;" d="M229 728l-123 -178h-212l-123 178h168l61 -74l62 74h167z" />
<glyph unicode="&#x312;" d="M-87 630q0 20 13 36l110 135l49 -21l-38 -84q23 -9 37 -27t14 -39q0 -31 -27 -52t-65 -21t-65.5 21t-27.5 52z" />
<glyph unicode="&#x326;" d="M98 -113q0 -20 -13 -36l-110 -135l-49 21l38 84q-23 9 -37 27t-14 39q0 31 27 52t65 21t65.5 -21t27.5 -52z" />
<glyph unicode="&#x327;" d="M120 -135q0 -49 -36 -75t-94 -26q-60 0 -114 28l25 66q24 -12 58 -12q22 0 34.5 10t12.5 26q0 29 -30 29q-10 0 -20 -5l-30 34l32 63h83l-21 -43q45 -2 72.5 -28.5t27.5 -66.5z" />
<glyph unicode="&#x328;" d="M-69 3h110l-3 -5q-25 -43 -25 -58q0 -41 54 -41q11 0 23 3l23 -91q-41 -16 -98 -16q-61 0 -94 23.5t-33 68.5q0 52 37 107z" />
<glyph unicode="&#x3c0;" horiz-adv-x="791" d="M767 337h-111v-139q0 -55 45 -55q12 0 21 3l18 -133q-54 -24 -109 -24q-82 0 -130.5 46t-48.5 140v162h-128v-337h-203v337h-101v163h747v-163z" />
<glyph unicode="&#x58f;" horiz-adv-x="600" d="M597 258h-46v-38h46v-143h-46v-77h-217v77h-120v143h120v38h-120v143h120v72q0 54 -56 54t-56 -54v-35h-217v50q0 107 70.5 164.5t202.5 57.5t202.5 -57.5t70.5 -164.5v-87h46v-143z" />
<glyph unicode="&#x60c;" horiz-adv-x="390" d="M100 85q0 24 17 56l102 187h68l-38 -165q41 -28 41 -78q0 -40 -28 -67.5t-67 -27.5q-40 0 -67.5 27.5t-27.5 67.5z" />
<glyph unicode="&#x615;" d="M136 636v-116h-296v90h18v178h83v-87q52 40 102 40q44 0 68.5 -28.5t24.5 -76.5zM-59 610h108v15q0 37 -31 37q-32 0 -77 -42v-10z" />
<glyph unicode="&#x61b;" horiz-adv-x="350" d="M80 365q0 24 17 56l102 187h68l-38 -165q41 -28 41 -78q0 -40 -28 -67.5t-67 -27.5q-40 0 -67.5 27.5t-27.5 67.5zM80 85q0 40 27.5 67.5t67.5 27.5q39 0 67 -27.5t28 -67.5t-28 -67.5t-67 -27.5q-40 0 -67.5 27.5t-27.5 67.5z" />
<glyph unicode="&#x61f;" horiz-adv-x="638" d="M588 498l-197 -20q-3 22 -19.5 34.5t-42.5 12.5t-42 -12t-16 -33q0 -19 26 -43q62 -55 82 -85t22 -86v-42h-185v10q0 21 -10.5 35t-40.5 39q-61 50 -88 91.5t-27 95.5q0 101 70 158t188 57q114 0 189 -56.5t91 -155.5zM214 85q0 40 27.5 67.5t67.5 27.5q39 0 67 -27.5 t28 -67.5t-28 -67.5t-67 -27.5q-40 0 -67.5 27.5t-27.5 67.5z" />
<glyph unicode="&#x621;" horiz-adv-x="550" d="M364 205h126v-205h-430v205h91q-36 42 -36 102q0 76 52 127.5t138 51.5q108 0 179 -73l-114 -106q-21 21 -51 21q-26 0 -40.5 -15t-14.5 -41q0 -67 100 -67z" />
<glyph unicode="&#x622;" horiz-adv-x="310" d="M60 0v730h190v-730h-190zM250 904l52 -10q0 -56 -21 -82t-74 -24l-98 4q-43 1 -55 -22l-52 10q0 57 22 83t78 23l93 -4q24 -1 35 4t20 18z" />
<glyph unicode="&#x623;" horiz-adv-x="310" d="M60 0v730h190v-730h-190zM200 890h67v-100h-225v100h48q-21 22 -21 57q0 40 27 66.5t71 26.5q57 0 93 -41l-56 -56q-14 11 -28 11q-13 0 -21 -8t-8 -21q0 -35 53 -35z" />
<glyph unicode="&#x624;" horiz-adv-x="615" d="M555 459v-411q0 -167 -85 -240t-230 -73q-96 0 -189 26l35 183q88 -24 160 -24q65 0 91.5 20t27.5 60h-18q-149 0 -228 69t-79 181q0 117 74 188.5t208 71.5q120 0 233 -51zM314 205h51v117q-27 11 -56 11q-77 0 -77 -65q0 -63 82 -63zM367 670h67v-100h-225v100h48 q-21 22 -21 57q0 40 27 66.5t71 26.5q57 0 93 -41l-56 -56q-14 11 -28 11q-13 0 -21 -8t-8 -21q0 -35 53 -35z" />
<glyph unicode="&#x625;" horiz-adv-x="310" d="M60 0v730h190v-730h-190zM201 -200h67v-100h-225v100h48q-21 22 -21 57q0 40 27 66.5t71 26.5q57 0 93 -41l-56 -56q-14 11 -28 11q-13 0 -21 -8t-8 -21q0 -35 53 -35z" />
<glyph unicode="&#x626;" horiz-adv-x="1130" d="M721 216q0 -12 4 -23l101 -335q-73 -46 -182 -84q-106 -39 -221 -39q-167 0 -267.5 94.5t-100.5 253.5q0 74 22 158l173 -33q-11 -46 -11 -82q0 -92 52 -140t148 -48q37 0 85 6q46 6 80 17l-68 213q-15 48 -15 87q0 85 57 132q59 47 147 47h251l114 -400l-178 -46 l-75 256h-70q-46 0 -46 -34zM246 405h67v-100h-225v100h48q-21 23 -21 57q0 40 27 66.5t71 26.5q57 0 93 -41l-56 -56q-14 11 -28 11q-13 0 -21 -8t-8 -21q0 -35 53 -35z" />
<glyph unicode="&#x627;" horiz-adv-x="310" d="M60 0v730h190v-730h-190z" />
<glyph unicode="&#x628;" horiz-adv-x="1180" d="M55 263q0 90 35 192l174 -32q-20 -58 -20 -100q0 -60 32.5 -89t103.5 -29h416q97 0 134 23v294h190v-447q-56 -34 -151 -54.5t-208 -20.5h-389q-159 0 -238 62.5t-79 200.5zM502 -145q0 40 27.5 67.5t67.5 27.5q39 0 67 -27.5t28 -67.5t-28 -67.5t-67 -27.5 q-40 0 -67.5 27.5t-27.5 67.5z" />
<glyph unicode="&#x629;" horiz-adv-x="606" d="M40 250q0 112 75 186t188 74t188 -74t75 -186t-75 -186t-188 -74q-112 0 -187.5 74.5t-75.5 185.5zM374 250q0 31 -19.5 51.5t-53.5 20.5q-31 0 -50 -20.5t-19 -51.5t19 -51.5t50 -20.5q34 0 53.5 20.5t19.5 51.5zM104 655q0 40 27.5 67.5t67.5 27.5q39 0 66.5 -27.5 t27.5 -67.5t-27.5 -67.5t-66.5 -27.5q-40 0 -67.5 27.5t-27.5 67.5zM313 655q0 40 27.5 67.5t67.5 27.5q39 0 66.5 -27.5t27.5 -67.5t-27.5 -67.5t-66.5 -27.5q-40 0 -67.5 27.5t-27.5 67.5z" />
<glyph unicode="&#x62a;" horiz-adv-x="1180" d="M55 263q0 90 35 192l174 -32q-20 -58 -20 -100q0 -60 32.5 -89t103.5 -29h416q97 0 134 23v294h190v-447q-56 -34 -151 -54.5t-208 -20.5h-389q-159 0 -238 62.5t-79 200.5zM378 615q0 40 27.5 67.5t67.5 27.5q39 0 66.5 -27.5t27.5 -67.5t-27.5 -67.5t-66.5 -27.5 q-40 0 -67.5 27.5t-27.5 67.5zM587 615q0 40 27.5 67.5t67.5 27.5q39 0 66.5 -27.5t27.5 -67.5t-27.5 -67.5t-66.5 -27.5q-40 0 -67.5 27.5t-27.5 67.5z" />
<glyph unicode="&#x62b;" horiz-adv-x="1180" d="M55 263q0 90 35 192l174 -32q-20 -58 -20 -100q0 -60 32.5 -89t103.5 -29h416q97 0 134 23v294h190v-447q-56 -34 -151 -54.5t-208 -20.5h-389q-159 0 -238 62.5t-79 200.5zM497 758q0 34 23 57t56 23q32 0 55 -23t23 -57q0 -33 -23 -56t-55 -23q-33 0 -56 23t-23 56z M406 599q0 33 23 56t56 23t56 -23t23 -56t-23 -56t-56 -23t-56 23t-23 56zM590 599q0 33 23 56t57 23q32 0 55 -23t23 -56t-23 -56t-55 -23q-34 0 -57 23t-23 56z" />
<glyph unicode="&#x62c;" horiz-adv-x="745" d="M710 175l-53 -175h-342q-38 0 -61.5 -17t-23.5 -47t23.5 -47.5t61.5 -17.5h148v-205h-97q-168 0 -257 67.5t-89 193.5q0 133 81.5 203t239.5 70h116q-28 31 -46 87q-25 70 -43 90.5t-69 24.5q-55 0 -115 -37l-102 130q106 85 238 85q104 0 162.5 -49t94.5 -162 q18 -57 33 -93q36 -84 100 -101zM524 -150q0 40 27.5 67.5t67.5 27.5q39 0 67 -27.5t28 -67.5t-28 -67.5t-67 -27.5q-40 0 -67.5 27.5t-27.5 67.5z" />
<glyph unicode="&#x62d;" horiz-adv-x="745" d="M710 175l-53 -175h-342q-38 0 -61.5 -17t-23.5 -47t23.5 -47.5t61.5 -17.5h148v-205h-97q-168 0 -257 67.5t-89 193.5q0 133 81.5 203t239.5 70h116q-28 31 -46 87q-25 70 -43 90.5t-69 24.5q-55 0 -115 -37l-102 130q106 85 238 85q104 0 162.5 -49t94.5 -162 q18 -57 33 -93q36 -84 100 -101z" />
<glyph unicode="&#x62e;" horiz-adv-x="745" d="M710 175l-53 -175h-342q-38 0 -61.5 -17t-23.5 -47t23.5 -47.5t61.5 -17.5h148v-205h-97q-168 0 -257 67.5t-89 193.5q0 133 81.5 203t239.5 70h116q-28 31 -46 87q-25 70 -43 90.5t-69 24.5q-55 0 -115 -37l-102 130q106 85 238 85q104 0 162.5 -49t94.5 -162 q18 -57 33 -93q36 -84 100 -101zM243 725q0 40 28 67.5t68 27.5q39 0 66.5 -27.5t27.5 -67.5t-27.5 -67.5t-66.5 -27.5q-40 0 -68 27.5t-28 67.5z" />
<glyph unicode="&#x62f;" horiz-adv-x="590" d="M530 309v-309h-490v205h300v94q0 61 -85 61h-139v190h92q97 -1 156 -12t97 -39.5t52.5 -72.5t16.5 -117z" />
<glyph unicode="&#x630;" horiz-adv-x="590" d="M530 309v-309h-490v205h300v94q0 61 -85 61h-139v190h92q97 -1 156 -12t97 -39.5t52.5 -72.5t16.5 -117zM122 710q0 40 28 67.5t68 27.5q39 0 66.5 -27.5t27.5 -67.5t-27.5 -67.5t-66.5 -27.5q-40 0 -68 27.5t-28 67.5z" />
<glyph unicode="&#x631;" horiz-adv-x="400" d="M-40 -259l37 194h34q67 0 93 25.5t26 84.5v455h190v-452q0 -165 -83 -239t-219 -74q-46 0 -78 6z" />
<glyph unicode="&#x632;" horiz-adv-x="400" d="M-40 -259l37 194h34q67 0 93 25.5t26 84.5v455h190v-452q0 -165 -83 -239t-219 -74q-46 0 -78 6zM149 665q0 40 28 67.5t68 27.5q39 0 66.5 -27.5t27.5 -67.5t-27.5 -67.5t-66.5 -27.5q-40 0 -68 27.5t-28 67.5z" />
<glyph unicode="&#x633;" horiz-adv-x="1473" d="M1223 510h190v-414q-38 -44 -95 -72t-118 -28q-83 0 -154 50q-70 -50 -155 -50q-73 0 -123 40v-201q-55 -37 -149 -68q-96 -32 -201 -32q-167 0 -265 94t-98 254q0 74 22 158l173 -33q-11 -46 -11 -82q0 -92 52 -140t148 -48q82 0 148 23v444h190v-193q28 -11 64 -11 t64 11v193h190v-193q30 -11 64 -11q36 0 64 11v298z" />
<glyph unicode="&#x634;" horiz-adv-x="1473" d="M1223 510h190v-414q-38 -44 -95 -72t-118 -28q-83 0 -154 50q-70 -50 -155 -50q-73 0 -123 40v-201q-55 -37 -149 -68q-96 -32 -201 -32q-167 0 -265 94t-98 254q0 74 22 158l173 -33q-11 -46 -11 -82q0 -92 52 -140t148 -48q82 0 148 23v444h190v-193q28 -11 64 -11 t64 11v193h190v-193q30 -11 64 -11q36 0 64 11v298zM919 723q0 34 23 57t56 23q32 0 55 -23t23 -57q0 -33 -23 -56t-55 -23q-33 0 -56 23t-23 56zM828 564q0 33 23 56t56 23t56 -23t23 -56t-23 -56t-56 -23t-56 23t-23 56zM1012 564q0 33 23 56t57 23q32 0 55 -23t23 -56 t-23 -56t-55 -23q-34 0 -57 23t-23 56z" />
<glyph unicode="&#x635;" horiz-adv-x="1417" d="M1357 288v-288h-580v-153q-65 -45 -161 -78q-93 -34 -198 -34q-167 0 -265 94.5t-98 255.5q0 72 22 156l173 -33q-11 -46 -11 -82q0 -92 52 -140t148 -48q82 0 148 23v539h190v-87q85 87 159.5 127t156.5 40q117 0 190.5 -74.5t73.5 -217.5zM785 205h382v48q0 56 -19 95 q-20 42 -84 42q-111 0 -279 -185z" />
<glyph unicode="&#x636;" horiz-adv-x="1417" d="M1357 288v-288h-580v-153q-65 -45 -161 -78q-93 -34 -198 -34q-167 0 -265 94.5t-98 255.5q0 72 22 156l173 -33q-11 -46 -11 -82q0 -92 52 -140t148 -48q82 0 148 23v539h190v-87q85 87 159.5 127t156.5 40q117 0 190.5 -74.5t73.5 -217.5zM785 205h382v48q0 56 -19 95 q-20 42 -84 42q-111 0 -279 -185zM823 725q0 40 28 67.5t68 27.5q39 0 66.5 -27.5t27.5 -67.5t-27.5 -67.5t-66.5 -27.5q-40 0 -68 27.5t-28 67.5z" />
<glyph unicode="&#x637;" horiz-adv-x="950" d="M890 288v-288h-850v205h80v525h190v-317q85 87 159.5 127t156.5 40q117 0 190.5 -74.5t73.5 -217.5zM318 205h382v48q0 56 -19 95q-19 42 -84 42q-111 0 -279 -185z" />
<glyph unicode="&#x638;" horiz-adv-x="950" d="M890 288v-288h-850v205h80v525h190v-317q85 87 159.5 127t156.5 40q117 0 190.5 -74.5t73.5 -217.5zM318 205h382v48q0 56 -19 95q-19 42 -84 42q-111 0 -279 -185zM428 740q0 40 28 67.5t68 27.5q39 0 66.5 -27.5t27.5 -67.5t-27.5 -67.5t-66.5 -27.5q-40 0 -68 27.5 t-28 67.5z" />
<glyph unicode="&#x639;" horiz-adv-x="738" d="M525 205h103v-205h-319q-40 0 -64.5 -17t-24.5 -47t24.5 -47.5t64.5 -17.5h159v-205h-104q-169 0 -261.5 68t-92.5 193q0 102 61.5 164.5t176.5 83.5q-77 66 -77 174q0 106 82 168.5t205 62.5q147 0 240 -96l-132 -125q-34 40 -94 40q-47 0 -76 -25t-29 -67 q0 -49 40 -75.5t118 -26.5z" />
<glyph unicode="&#x63a;" horiz-adv-x="738" d="M525 205h103v-205h-319q-40 0 -64.5 -17t-24.5 -47t24.5 -47.5t64.5 -17.5h159v-205h-104q-169 0 -261.5 68t-92.5 193q0 102 61.5 164.5t176.5 83.5q-77 66 -77 174q0 106 82 168.5t205 62.5q147 0 240 -96l-132 -125q-34 40 -94 40q-47 0 -76 -25t-29 -67 q0 -49 40 -75.5t118 -26.5zM362 725q0 40 28 67.5t68 27.5q39 0 66.5 -27.5t27.5 -67.5t-27.5 -67.5t-66.5 -27.5q-40 0 -68 27.5t-28 67.5z" />
<glyph unicode="&#x640;" horiz-adv-x="250" d="M266 205v-203q0 -2 -16 -2h-250q-16 0 -16 2v203h282z" />
<glyph unicode="&#x641;" horiz-adv-x="1258" d="M1198 505v-430q-56 -34 -151 -54.5t-208 -20.5h-467q-159 0 -238 62.5t-79 200.5q0 90 35 192l174 -32q-20 -58 -20 -100q0 -60 32.5 -89t103.5 -29h395q-75 56 -75 157t74 157q73 55 190 55q134 0 234 -69zM893 323q0 -35 31.5 -58t83.5 -32v146q-18 7 -44 7 q-33 0 -52 -17.5t-19 -45.5zM868 719q0 40 28 67.5t68 27.5q39 0 66.5 -27.5t27.5 -67.5t-27.5 -67.5t-66.5 -27.5q-40 0 -68 27.5t-28 67.5z" />
<glyph unicode="&#x642;" horiz-adv-x="897" d="M837 459v-616q-67 -48 -174 -78q-106 -30 -218 -30q-181 0 -285.5 95.5t-104.5 254.5q0 70 23 156l172 -34q-11 -42 -11 -80q0 -94 60 -141.5t170 -47.5q91 0 178 21v51h-18q-151 0 -229 63t-78 177q0 117 74 188.5t208 71.5q120 0 233 -51zM596 205h51v117 q-27 11 -56 11q-77 0 -77 -66q0 -62 82 -62zM405 655q0 40 27.5 67.5t67.5 27.5q39 0 66.5 -27.5t27.5 -67.5t-27.5 -67.5t-66.5 -27.5q-40 0 -67.5 27.5t-27.5 67.5zM614 655q0 40 27.5 67.5t67.5 27.5q39 0 66.5 -27.5t27.5 -67.5t-27.5 -67.5t-66.5 -27.5 q-40 0 -67.5 27.5t-27.5 67.5z" />
<glyph unicode="&#x643;" horiz-adv-x="1110" d="M860 730h190v-655q-56 -34 -151 -54.5t-208 -20.5h-319q-159 0 -238 62.5t-79 200.5q0 90 35 192l174 -32q-20 -58 -20 -100q0 -60 32.5 -89t103.5 -29h346q97 0 134 23v502zM663 477v-100h-225v100h48q-21 23 -21 57q0 40 27 66.5t71 26.5q57 0 93 -41l-56 -56 q-14 11 -28 11q-13 0 -21 -8t-8 -21q0 -35 53 -35h67z" />
<glyph unicode="&#x644;" horiz-adv-x="837" d="M587 730h190v-894q-65 -37 -159 -68q-96 -33 -200 -33q-166 0 -264.5 94t-98.5 254q0 74 22 158l173 -33q-11 -46 -11 -82q0 -92 52 -140t148 -48q82 0 148 23v769z" />
<glyph unicode="&#x645;" horiz-adv-x="735" d="M695 250q0 -112 -75 -186t-188 -74q-58 0 -108 21q-34 14 -67 14q-52 0 -52 -43q0 -142 20 -325h-190q-20 186 -20 331q0 88 41 129.5t127 43.5q-14 44 -14 89q0 112 75 186t188 74t188 -74t75 -186zM503 250q0 30 -19.5 50t-53.5 20q-31 0 -50 -20t-19 -50t19 -50 t50 -20q34 0 53.5 20t19.5 50z" />
<glyph unicode="&#x646;" horiz-adv-x="847" d="M55 85q0 77 22 156l174 -34q-12 -44 -12 -80q0 -94 53 -141.5t148 -47.5q73 0 147 23v444h200v-557q-65 -50 -165 -81q-102 -32 -203 -32q-170 0 -267 95.5t-97 254.5zM292 426q0 40 28 67.5t68 27.5q39 0 66.5 -27.5t27.5 -67.5t-27.5 -67.5t-66.5 -27.5q-40 0 -68 27.5 t-28 67.5z" />
<glyph unicode="&#x647;" horiz-adv-x="606" d="M40 250q0 112 75 186t188 74t188 -74t75 -186t-75 -186t-188 -74q-112 0 -187.5 74.5t-75.5 185.5zM374 250q0 31 -19.5 51.5t-53.5 20.5q-31 0 -50 -20.5t-19 -51.5t19 -51.5t50 -20.5q34 0 53.5 20.5t19.5 51.5z" />
<glyph unicode="&#x648;" horiz-adv-x="615" d="M555 459v-411q0 -167 -85 -240t-230 -73q-96 0 -189 26l35 183q88 -24 160 -24q65 0 91.5 20t27.5 60h-18q-149 0 -228 69t-79 181q0 117 74 188.5t208 71.5q120 0 233 -51zM314 205h51v117q-27 11 -56 11q-77 0 -77 -65q0 -63 82 -63z" />
<glyph unicode="&#x649;" horiz-adv-x="1130" d="M721 216q0 -12 4 -23l101 -335q-73 -46 -182 -84q-106 -39 -221 -39q-167 0 -267.5 94.5t-100.5 253.5q0 74 22 158l173 -33q-11 -46 -11 -82q0 -92 52 -140t148 -48q37 0 85 6q46 6 80 17l-68 213q-15 48 -15 87q0 85 57 132q59 47 147 47h251l114 -400l-178 -46 l-75 256h-70q-46 0 -46 -34z" />
<glyph unicode="&#x64a;" horiz-adv-x="1130" d="M721 216q0 -12 4 -23l101 -335q-73 -46 -182 -84q-106 -39 -221 -39q-167 0 -267.5 94.5t-100.5 253.5q0 74 22 158l173 -33q-11 -46 -11 -82q0 -92 52 -140t148 -48q37 0 85 6q46 6 80 17l-68 213q-15 48 -15 87q0 85 57 132q59 47 147 47h251l114 -400l-178 -46 l-75 256h-70q-46 0 -46 -34zM215 -410q0 40 27.5 67.5t67.5 27.5q39 0 66.5 -27.5t27.5 -67.5t-27.5 -67.5t-66.5 -27.5q-40 0 -67.5 27.5t-27.5 67.5zM424 -410q0 40 27.5 67.5t67.5 27.5q39 0 66.5 -27.5t27.5 -67.5t-27.5 -67.5t-66.5 -27.5q-40 0 -67.5 27.5t-27.5 67.5 z" />
<glyph unicode="&#x64b;" d="M-146 646v73l292 76v-73zM-146 540v73l292 76v-73z" />
<glyph unicode="&#x64c;" d="M153 718q0 -93 -104 -140q-79 -35 -190 -41l-24 47q27 27 27 55q0 32 -27 37v63q93 0 93 -71q0 -32 -20 -63q49 6 89 22q21 9 22 10q-67 23 -67 85q0 39 28 63.5t73 24.5q44 0 72 -24.5t28 -67.5zM77 712q0 28 -25 28q-24 0 -24 -24q0 -28 39 -36q10 16 10 32z" />
<glyph unicode="&#x64d;" d="M-146 -189v73l292 76v-73zM-146 -291v73l292 76v-73z" />
<glyph unicode="&#x64e;" d="M-146 540v73l292 76v-73z" />
<glyph unicode="&#x64f;" d="M132 702q0 -73 -70 -111t-205 -51l-13 69q76 8 122 23q-52 30 -52 78q0 44 30.5 69.5t78.5 25.5q49 0 79 -26.5t30 -76.5zM51 702q0 30 -29 30q-27 0 -27 -26t38 -40q18 16 18 36z" />
<glyph unicode="&#x650;" d="M-146 -194v73l292 76v-73z" />
<glyph unicode="&#x651;" d="M80 777h80v-139q0 -39 -26 -57.5t-66 -18.5q-31 0 -55 11q-23 -33 -81 -33q-41 0 -66.5 18.5t-25.5 57.5v119h80v-94q0 -19 21 -19q23 0 23 19v111h71v-87q0 -22 24 -22q21 0 21 22v112z" />
<glyph unicode="&#x652;" d="M-123 659q0 52 35 85.5t88 33.5t88 -33.5t35 -85.5q0 -51 -35 -85t-88 -34t-88 34t-35 85zM40 659q0 16 -11.5 28.5t-29.5 12.5q-17 0 -28.5 -12.5t-11.5 -28.5t11.5 -28.5t28.5 -12.5q18 0 29.5 12.5t11.5 28.5z" />
<glyph unicode="&#x653;" d="M95 624l52 -10q0 -56 -21 -82t-74 -24l-98 4q-43 1 -55 -22l-52 10q0 57 22 83t78 23l93 -4q24 -1 35 4t20 18z" />
<glyph unicode="&#x654;" d="M45 610h67v-100h-225v100h48q-21 22 -21 57q0 40 27 66.5t71 26.5q57 0 93 -41l-56 -56q-14 11 -28 11q-13 0 -21 -8t-8 -21q0 -35 53 -35z" />
<glyph unicode="&#x655;" d="M45 -150h67v-100h-225v100h48q-21 22 -21 57q0 40 27 66.5t71 26.5q57 0 93 -41l-56 -56q-14 11 -28 11q-13 0 -21 -8t-8 -21q0 -35 53 -35z" />
<glyph unicode="&#x656;" d="M-43 -287v238h86v-238h-86z" />
<glyph unicode="&#x658;" d="M58 756h80v-179q-62 -37 -144 -37q-66 0 -104 34.5t-38 91.5q0 26 9 57l74 -14q-4 -9 -4 -24q0 -60 75 -60q27 0 52 4v127z" />
<glyph unicode="&#x660;" horiz-adv-x="410" d="M205 222l-135 135l135 135l135 -135z" />
<glyph unicode="&#x661;" horiz-adv-x="399" d="M129 0l-49 700h191l48 -700h-190z" />
<glyph unicode="&#x662;" horiz-adv-x="585" d="M525 700v-200h-241l35 -500h-190l-49 700h445z" />
<glyph unicode="&#x663;" horiz-adv-x="744" d="M548 700h136v-254q-21 -26 -60 -42.5t-83 -16.5q-57 0 -104 32q-44 -32 -102 -32q-26 0 -46 7l30 -394h-185l-54 700h186l10 -136q26 -2 30 -2q30 0 52 6v132h105v-132q18 -6 45 -6q24 0 40 6v132z" />
<glyph unicode="&#x664;" horiz-adv-x="555" d="M475 186l60 -147q-89 -49 -207 -49q-126 0 -197 52t-71 143q0 108 110 167q-107 51 -107 158q0 93 66 146.5t182 53.5q108 0 199 -49l-77 -142q-57 22 -107 22q-36 0 -56 -13t-20 -35q0 -33 44.5 -54t121.5 -21h10v-123h-6q-84 0 -128.5 -23t-44.5 -61q0 -52 97 -52 q73 0 131 27z" />
<glyph unicode="&#x665;" horiz-adv-x="685" d="M60 218q-1 89 31 179.5t99.5 156t152.5 62.5q89 0 153 -63t96 -156q33 -93 33 -179q0 -108 -71 -167.5t-211 -59.5q-141 0 -212 59.5t-71 167.5zM444 267q0 61 -29.5 112t-72.5 51q-44 0 -72.5 -50.5t-28.5 -111.5q0 -49 25 -70t77 -21q51 0 76 21t25 69z" />
<glyph unicode="&#x666;" horiz-adv-x="578" d="M498 0h-190l-19 495h-259v205h440z" />
<glyph unicode="&#x667;" horiz-adv-x="709" d="M477 700h212q-55 -150 -114 -336q-51 -162 -104 -364h-232q-42 162 -106 366q-62 200 -113 334h212q32 -105 56 -199q24 -95 67 -300q45 219 67 308q21 86 55 191z" />
<glyph unicode="&#x668;" horiz-adv-x="709" d="M689 0h-212q-34 104 -55 190q-23 92 -67 309q-42 -203 -67 -301q-24 -95 -56 -198h-212q50 131 113 333q65 209 106 367h232q52 -200 104 -365q60 -188 114 -335z" />
<glyph unicode="&#x669;" horiz-adv-x="645" d="M565 0h-186l-14 210h-48q-129 0 -203 68t-74 184t72.5 182t188.5 66q110 0 220 -59zM299 390h54l-8 125q-20 10 -50 10q-70 0 -70 -67q0 -68 74 -68z" />
<glyph unicode="&#x66a;" horiz-adv-x="946" d="M817 717l-523 -734h-164l522 734h165zM395 509q0 -93 -50 -147.5t-137 -54.5t-137.5 54.5t-50.5 147.5t50.5 147t137.5 54t137 -54t50 -147zM160 509q0 -36 13.5 -58t34.5 -22t34 22t13 58t-13 57.5t-34 21.5t-34.5 -21.5t-13.5 -57.5zM927 192q0 -93 -50.5 -147 t-137.5 -54t-137.5 54t-50.5 147t50.5 147.5t137.5 54.5t137.5 -54.5t50.5 -147.5zM691 192q0 -36 13.5 -57.5t34.5 -21.5t34.5 21.5t13.5 57.5t-13.5 58t-34.5 22t-34.5 -22t-13.5 -58z" />
<glyph unicode="&#x66b;" horiz-adv-x="350" d="M270 78q0 -24 -17 -56l-102 -187h-68l38 165q-41 28 -41 78q0 40 28 67.5t67 27.5q40 0 67.5 -27.5t27.5 -67.5z" />
<glyph unicode="&#x66c;" horiz-adv-x="400" d="M320 150l-172 -315h-68l73 315h167z" />
<glyph unicode="&#x66d;" horiz-adv-x="479" d="M183 291l-97 70l62 79l-98 30l37 113l96 -34l-3 101h119l-2 -101l95 34l37 -113l-97 -30l61 -79l-96 -70l-57 84z" />
<glyph unicode="&#x66e;" horiz-adv-x="1180" d="M55 263q0 90 35 192l174 -32q-20 -58 -20 -100q0 -60 32.5 -89t103.5 -29h416q97 0 134 23v294h190v-447q-56 -34 -151 -54.5t-208 -20.5h-389q-159 0 -238 62.5t-79 200.5z" />
<glyph unicode="&#x66f;" horiz-adv-x="897" d="M837 459v-616q-67 -48 -174 -78q-106 -30 -218 -30q-181 0 -285.5 95.5t-104.5 254.5q0 70 23 156l172 -34q-11 -42 -11 -80q0 -94 60 -141.5t170 -47.5q91 0 178 21v51h-18q-151 0 -229 63t-78 177q0 117 74 188.5t208 71.5q120 0 233 -51zM596 205h51v117 q-27 11 -56 11q-77 0 -77 -66q0 -62 82 -62z" />
<glyph unicode="&#x670;" d="M-42 540v218h84v-218h-84z" />
<glyph unicode="&#x671;" horiz-adv-x="310" d="M60 0v730h190v-730h-190zM301 902v-112h-309v90h50q50 121 156 121q48 0 75.5 -26t27.5 -73zM120 880h94v13q0 29 -33 29q-38 0 -61 -42z" />
<glyph unicode="&#x679;" horiz-adv-x="1180" d="M55 263q0 90 35 192l174 -32q-20 -58 -20 -100q0 -60 32.5 -89t103.5 -29h416q97 0 134 23v294h190v-447q-56 -34 -151 -54.5t-208 -20.5h-389q-159 0 -238 62.5t-79 200.5zM713 656v-116h-296v90h18v178h83v-87q52 40 102 40q44 0 68.5 -28.5t24.5 -76.5zM518 630h108 v15q0 37 -31 37q-32 0 -77 -42v-10z" />
<glyph unicode="&#x67e;" horiz-adv-x="1180" d="M55 263q0 90 35 192l174 -32q-20 -58 -20 -100q0 -60 32.5 -89t103.5 -29h416q97 0 134 23v294h190v-447q-56 -34 -151 -54.5t-208 -20.5h-389q-159 0 -238 62.5t-79 200.5zM426 -129q0 33 23 56t56 23t56 -23t23 -56t-23 -56t-56 -23t-56 23t-23 56zM610 -129 q0 33 23 56t57 23q32 0 55 -23t23 -56t-23 -56t-55 -23q-34 0 -57 23t-23 56zM517 -289q0 34 23 57t56 23q32 0 55 -23t23 -57q0 -33 -23 -56t-55 -23q-33 0 -56 23t-23 56z" />
<glyph unicode="&#x686;" horiz-adv-x="742" d="M308 -129h62v-205h-11q-165 0 -252 67.5t-87 193.5q0 129 89.5 201t249.5 72h90q-28 34 -45 88q-11 32 -15.5 43.5t-13 29.5t-16 23.5t-20 10.5t-30.5 7q-47 0 -75 -26l-131 122q100 82 228 82q98 0 153 -50.5t86 -161.5q26 -94 51 -138.5t69 -54.5l-53 -175h-329 q-35 0 -56.5 -17t-21.5 -47t21.5 -47.5t56.5 -17.5zM479 -208q-33 0 -56 23t-23 56t23 56t56 23t56 -23t23 -56t-23 -56t-56 -23zM742 -129q0 -33 -23 -56t-55 -23q-34 0 -57 23t-23 56t23 56t57 23q32 0 55 -23t23 -56zM648 -289q0 -33 -23 -56t-55 -23q-33 0 -56 23 t-23 56q0 34 23 57t56 23q32 0 55 -23t23 -57z" />
<glyph unicode="&#x688;" horiz-adv-x="590" d="M530 309v-309h-490v205h300v94q0 61 -85 61h-139v190h92q97 -1 156 -12t97 -39.5t52.5 -72.5t16.5 -117zM354 751v-116h-296v90h18v178h83v-87q52 40 102 40q44 0 68.5 -28.5t24.5 -76.5zM159 725h108v15q0 37 -31 37q-32 0 -77 -42v-10z" />
<glyph unicode="&#x691;" horiz-adv-x="400" d="M-40 -259l37 194h34q67 0 93 25.5t26 84.5v455h190v-452q0 -165 -83 -239t-219 -74q-46 0 -78 6zM381 706v-116h-296v90h18v178h83v-87q52 40 102 40q44 0 68.5 -28.5t24.5 -76.5zM186 680h108v15q0 37 -31 37q-32 0 -77 -42v-10z" />
<glyph unicode="&#x698;" horiz-adv-x="400" d="M-40 -259l37 194h34q67 0 93 25.5t26 84.5v455h190v-452q0 -165 -83 -239t-219 -74q-46 0 -78 6zM165 808q0 34 23 57t56 23q32 0 55 -23t23 -57q0 -33 -23 -56t-55 -23q-33 0 -56 23t-23 56zM74 649q0 33 23 56t56 23t56 -23t23 -56t-23 -56t-56 -23t-56 23t-23 56z M258 649q0 33 23 56t57 23q32 0 55 -23t23 -56t-23 -56t-55 -23q-34 0 -57 23t-23 56z" />
<glyph unicode="&#x6a1;" horiz-adv-x="1258" d="M1198 505v-430q-56 -34 -151 -54.5t-208 -20.5h-467q-159 0 -238 62.5t-79 200.5q0 90 35 192l174 -32q-20 -58 -20 -100q0 -60 32.5 -89t103.5 -29h395q-75 56 -75 157t74 157q73 55 190 55q134 0 234 -69zM893 323q0 -35 31.5 -58t83.5 -32v146q-18 7 -44 7 q-33 0 -52 -17.5t-19 -45.5z" />
<glyph unicode="&#x6a4;" horiz-adv-x="1258" d="M1198 505v-430q-56 -34 -151 -54.5t-208 -20.5h-467q-159 0 -238 62.5t-79 200.5q0 90 35 192l174 -32q-20 -58 -20 -100q0 -60 32.5 -89t103.5 -29h395q-75 56 -75 157t74 157q73 55 190 55q134 0 234 -69zM893 323q0 -35 31.5 -58t83.5 -32v146q-18 7 -44 7 q-33 0 -52 -17.5t-19 -45.5zM884 862q0 34 23 57t56 23q32 0 55 -23t23 -57q0 -33 -23 -56t-55 -23q-33 0 -56 23t-23 56zM793 703q0 33 23 56t56 23t56 -23t23 -56t-23 -56t-56 -23t-56 23t-23 56zM977 703q0 33 23 56t57 23q32 0 55 -23t23 -56t-23 -56t-55 -23 q-34 0 -57 23t-23 56z" />
<glyph unicode="&#x6a9;" horiz-adv-x="1130" d="M1070 245v-170q-63 -38 -160 -57q-96 -18 -190 -18h-348q-159 0 -238 62.5t-79 200.5q0 90 35 192l174 -32q-20 -58 -20 -100q0 -60 32.5 -89t103.5 -29h360q105 0 140 23v15q-4 27 -23.5 38t-101.5 35l-169 47l-39 147l372 270l95 -120l-232 -167l78 -23 q91 -29 132 -53.5t58 -61.5t20 -110z" />
<glyph unicode="&#x6af;" horiz-adv-x="1130" d="M845 793l-313 -224l-20 74l288 207zM1070 245v-170q-63 -38 -160 -57q-96 -18 -190 -18h-348q-159 0 -238 62.5t-79 200.5q0 90 35 192l174 -32q-20 -58 -20 -100q0 -60 32.5 -89t103.5 -29h360q105 0 140 23v15q-4 27 -23.5 38t-101.5 35l-169 47l-39 147l372 270 l95 -120l-232 -167l78 -23q91 -29 132 -53.5t58 -61.5t20 -110z" />
<glyph unicode="&#x6ba;" horiz-adv-x="847" d="M55 85q0 77 22 156l174 -34q-12 -44 -12 -80q0 -94 53 -141.5t148 -47.5q73 0 147 23v444h200v-557q-65 -50 -165 -81q-102 -32 -203 -32q-170 0 -267 95.5t-97 254.5z" />
<glyph unicode="&#x6be;" horiz-adv-x="858" d="M798 255v-255h-747q-16 0 -16 2v203h125q-29 44 -29 100q0 83 59 130q58 46 148 46q91 0 150 -47q58 -46 58 -129q0 -61 -31 -102l93 -1v64q0 131 -71 197.5t-202 66.5q-76 0 -131 -15v175q59 10 137 10q221 0 339 -111.5t118 -333.5zM295 267q0 -48 44 -60q43 10 43 60 q0 54 -43 54q-44 0 -44 -54z" />
<glyph unicode="&#x6c1;" horiz-adv-x="606" d="M40 250q0 112 75 186t188 74t188 -74t75 -186t-75 -186t-188 -74q-112 0 -187.5 74.5t-75.5 185.5zM374 250q0 31 -19.5 51.5t-53.5 20.5q-31 0 -50 -20.5t-19 -51.5t19 -51.5t50 -20.5q34 0 53.5 20.5t19.5 51.5z" />
<glyph unicode="&#x6c2;" horiz-adv-x="606" d="M40 250q0 112 75 186t188 74t188 -74t75 -186t-75 -186t-188 -74q-112 0 -187.5 74.5t-75.5 185.5zM374 250q0 31 -19.5 51.5t-53.5 20.5q-31 0 -50 -20.5t-19 -51.5t19 -51.5t50 -20.5q34 0 53.5 20.5t19.5 51.5zM348 670h67v-100h-225v100h48q-21 22 -21 57 q0 40 27 66.5t71 26.5q57 0 93 -41l-56 -56q-14 11 -28 11q-13 0 -21 -8t-8 -21q0 -35 53 -35z" />
<glyph unicode="&#x6c3;" horiz-adv-x="606" d="M40 250q0 112 75 186t188 74t188 -74t75 -186t-75 -186t-188 -74q-112 0 -187.5 74.5t-75.5 185.5zM374 250q0 31 -19.5 51.5t-53.5 20.5q-31 0 -50 -20.5t-19 -51.5t19 -51.5t50 -20.5q34 0 53.5 20.5t19.5 51.5zM104 655q0 40 27.5 67.5t67.5 27.5q39 0 66.5 -27.5 t27.5 -67.5t-27.5 -67.5t-66.5 -27.5q-40 0 -67.5 27.5t-27.5 67.5zM313 655q0 40 27.5 67.5t67.5 27.5q39 0 66.5 -27.5t27.5 -67.5t-27.5 -67.5t-66.5 -27.5q-40 0 -67.5 27.5t-27.5 67.5z" />
<glyph unicode="&#x6cc;" horiz-adv-x="1130" d="M721 216q0 -12 4 -23l101 -335q-73 -46 -182 -84q-106 -39 -221 -39q-167 0 -267.5 94.5t-100.5 253.5q0 74 22 158l173 -33q-11 -46 -11 -82q0 -92 52 -140t148 -48q37 0 85 6q46 6 80 17l-68 213q-15 48 -15 87q0 85 57 132q59 47 147 47h251l114 -400l-178 -46 l-75 256h-70q-46 0 -46 -34z" />
<glyph unicode="&#x6d2;" horiz-adv-x="870" d="M60 119q0 79 34 125q32 43 70 63t93 35l80 20q32 8 43.5 23t11.5 48v67h190v-129q0 -67 -27.5 -108t-117.5 -66l-157 -40q-29 -7 -29 -26q0 -21 38 -21h551v-205h-480q-158 0 -229 50.5t-71 163.5z" />
<glyph unicode="&#x6d3;" horiz-adv-x="870" d="M60 119q0 79 34 125q32 43 70 63t93 35l80 20q32 8 43.5 23t11.5 48v67h190v-129q0 -67 -27.5 -108t-117.5 -66l-157 -40q-29 -7 -29 -26q0 -21 38 -21h551v-205h-480q-158 0 -229 50.5t-71 163.5zM180 500h67v-100h-225v100h48q-21 22 -21 57q0 40 27 66.5t71 26.5 q57 0 93 -41l-56 -56q-14 11 -28 11q-13 0 -21 -8t-8 -21q0 -35 53 -35z" />
<glyph unicode="&#x6d4;" horiz-adv-x="390" d="M100 85q0 40 27.5 67.5t67.5 27.5q39 0 67 -27.5t28 -67.5t-28 -67.5t-67 -27.5q-40 0 -67.5 27.5t-27.5 67.5z" />
<glyph unicode="&#x6f0;" horiz-adv-x="410" d="M205 222l-135 135l135 135l135 -135z" />
<glyph unicode="&#x6f1;" horiz-adv-x="399" d="M129 0l-49 700h191l48 -700h-190z" />
<glyph unicode="&#x6f2;" horiz-adv-x="585" d="M525 700v-200h-241l35 -500h-190l-49 700h445z" />
<glyph unicode="&#x6f3;" horiz-adv-x="744" d="M548 700h136v-254q-21 -26 -60 -42.5t-83 -16.5q-57 0 -104 32q-44 -32 -102 -32q-26 0 -46 7l30 -394h-185l-54 700h186l10 -136q26 -2 30 -2q30 0 52 6v132h105v-132q18 -6 45 -6q24 0 40 6v132z" />
<glyph unicode="&#x6f4;" horiz-adv-x="670" d="M537 491h76v-160h-317l23 -331h-190l-49 700h191l14 -209h85q-28 32 -28 80q0 61 41 100.5t107 39.5q87 0 140 -58l-89 -82q-16 16 -40 16q-43 0 -43 -44q0 -52 79 -52z" />
<glyph unicode="&#x6f5;" horiz-adv-x="685" d="M625 227q0 -111 -50 -173.5t-125 -62.5q-35 0 -64 17t-43 47q-15 -30 -45 -47t-63 -17q-75 0 -125 62.5t-50 173.5q0 80 32 173q32 92 96 153q64 63 154 63t154 -63q64 -61 96 -153q33 -92 33 -173zM444 266q0 59 -30 111.5t-72 52.5q-41 0 -71 -52.5t-30 -111.5 q0 -50 12 -70t35 -20q31 0 48 32h13q17 -32 48 -32q23 0 35 20t12 70z" />
<glyph unicode="&#x6f6;" horiz-adv-x="560" d="M486 425l24 -148l-138 -20q-59 -13 -74.5 -37.5t-37.5 -128.5l-17 -91l-188 2l17 91q19 99 46 165q27 62 82 99q-86 56 -86 155q0 85 58 141.5t146 56.5q113 0 190 -76l-104 -97q-28 30 -68 30q-32 0 -51.5 -20t-19.5 -52q0 -38 30 -61t83 -23v-1z" />
<glyph unicode="&#x6f7;" horiz-adv-x="709" d="M477 700h212q-55 -150 -114 -336q-51 -162 -104 -364h-232q-42 162 -106 366q-62 200 -113 334h212q32 -105 56 -199q24 -95 67 -300q45 219 67 308q21 86 55 191z" />
<glyph unicode="&#x6f8;" horiz-adv-x="709" d="M689 0h-212q-34 104 -55 190q-23 92 -67 309q-42 -203 -67 -301q-24 -95 -56 -198h-212q50 131 113 333q65 209 106 367h232q52 -200 104 -365q60 -188 114 -335z" />
<glyph unicode="&#x6f9;" horiz-adv-x="645" d="M565 0h-186l-14 210h-48q-129 0 -203 68t-74 184t72.5 182t188.5 66q110 0 220 -59zM299 390h54l-8 125q-20 10 -50 10q-70 0 -70 -67q0 -68 74 -68z" />
<glyph unicode="&#x1e80;" horiz-adv-x="1156" d="M893 700h243l-227 -700h-222l-109 362l-109 -362h-222l-227 700h243l106 -367l104 367h211l103 -367zM568 928l123 -178h-174l-158 178h209z" />
<glyph unicode="&#x1e81;" horiz-adv-x="838" d="M829 500l-142 -500h-217l-51 207l-50 -207h-218l-141 500h202l58 -281l72 281h155l71 -281l58 281h203zM406 728l123 -178h-174l-158 178h209z" />
<glyph unicode="&#x1e82;" horiz-adv-x="1156" d="M893 700h243l-227 -700h-222l-109 362l-109 -362h-222l-227 700h243l106 -367l104 367h211l103 -367zM801 928l-158 -178h-174l123 178h209z" />
<glyph unicode="&#x1e83;" horiz-adv-x="838" d="M829 500l-142 -500h-217l-51 207l-50 -207h-218l-141 500h202l58 -281l72 281h155l71 -281l58 281h203zM639 728l-158 -178h-174l123 178h209z" />
<glyph unicode="&#x1e84;" horiz-adv-x="1156" d="M893 700h243l-227 -700h-222l-109 362l-109 -362h-222l-227 700h243l106 -367l104 367h211l103 -367zM550 848q0 -36 -23.5 -59.5t-58.5 -23.5q-36 0 -59.5 23.5t-23.5 59.5q0 35 23.5 58.5t59.5 23.5q35 0 58.5 -23.5t23.5 -58.5zM775 848q0 -36 -24 -59.5t-59 -23.5 t-58.5 23.5t-23.5 59.5q0 35 23.5 58.5t58.5 23.5t59 -23.5t24 -58.5z" />
<glyph unicode="&#x1e85;" horiz-adv-x="838" d="M829 500l-142 -500h-217l-51 207l-50 -207h-218l-141 500h202l58 -281l72 281h155l71 -281l58 281h203zM388 648q0 -36 -23.5 -59.5t-58.5 -23.5q-36 0 -59.5 23.5t-23.5 59.5q0 35 23.5 58.5t59.5 23.5q35 0 58.5 -23.5t23.5 -58.5zM613 648q0 -36 -24 -59.5t-59 -23.5 t-58.5 23.5t-23.5 59.5q0 35 23.5 58.5t58.5 23.5t59 -23.5t24 -58.5z" />
<glyph unicode="&#x1e9e;" horiz-adv-x="792" d="M763 216q0 -109 -67 -167.5t-192 -58.5q-76 0 -155 25l71 165q34 -15 64 -15q61 0 61 48q0 19 -13 30t-49 22l-51 16v110l49 107q-29 23 -84 23q-53 0 -86 -28t-33 -72v-421h-218v431q0 133 90.5 206t255.5 73q210 0 323 -132l-91 -186q66 -24 95.5 -65.5t29.5 -110.5z " />
<glyph unicode="&#x1ef2;" horiz-adv-x="802" d="M525 700h257l-272 -463v-237h-218v234l-272 466h260l122 -233zM389 928l123 -178h-174l-158 178h209z" />
<glyph unicode="&#x1ef3;" horiz-adv-x="625" d="M616 500l-203 -544q-60 -161 -219 -161q-80 0 -184 40l56 132q60 -23 95 -23q48 0 73 37l3 4l-211 515h214l86 -282l79 282h211zM314 728l123 -178h-174l-158 178h209z" />
<glyph unicode="&#x2000;" horiz-adv-x="530" />
<glyph unicode="&#x2001;" horiz-adv-x="1060" />
<glyph unicode="&#x2002;" horiz-adv-x="530" />
<glyph unicode="&#x2003;" horiz-adv-x="1060" />
<glyph unicode="&#x2004;" horiz-adv-x="353" />
<glyph unicode="&#x2005;" horiz-adv-x="265" />
<glyph unicode="&#x2006;" horiz-adv-x="176" />
<glyph unicode="&#x2007;" horiz-adv-x="176" />
<glyph unicode="&#x2008;" horiz-adv-x="132" />
<glyph unicode="&#x2009;" horiz-adv-x="100" />
<glyph unicode="&#x200a;" horiz-adv-x="58" />
<glyph unicode="&#x2010;" horiz-adv-x="408" d="M378 344v-169h-348v169h348z" />
<glyph unicode="&#x2011;" horiz-adv-x="408" d="M378 344v-169h-348v169h348z" />
<glyph unicode="&#x2012;" horiz-adv-x="408" d="M378 344v-169h-348v169h348z" />
<glyph unicode="&#x2013;" horiz-adv-x="514" d="M484 344v-169h-454v169h454z" />
<glyph unicode="&#x2014;" horiz-adv-x="683" d="M30 175v169h623v-169h-623z" />
<glyph unicode="&#x2018;" horiz-adv-x="272" d="M30 467q0 25 14 45l141 205l57 -26l-58 -143q59 -25 59 -81q0 -37 -31 -64t-75 -27t-75.5 26.5t-31.5 64.5z" />
<glyph unicode="&#x2019;" horiz-adv-x="272" d="M243 626q0 -25 -14 -45l-141 -205l-57 26l58 143q-59 25 -59 81q0 37 31 64t75 27t75.5 -26.5t31.5 -64.5z" />
<glyph unicode="&#x201a;" horiz-adv-x="272" d="M243 80q0 -25 -14 -45l-141 -205l-57 26l58 143q-59 25 -59 81q0 37 31 64t75 27t75.5 -26.5t31.5 -64.5z" />
<glyph unicode="&#x201c;" horiz-adv-x="544" d="M30 467q0 25 14 45l141 205l57 -26l-58 -143q59 -25 59 -81q0 -37 -31 -64t-75 -27t-75.5 26.5t-31.5 64.5zM302 467q0 25 14 45l141 205l57 -26l-58 -143q59 -25 59 -81q0 -37 -31 -64t-75 -27t-75.5 26.5t-31.5 64.5z" />
<glyph unicode="&#x201d;" horiz-adv-x="544" d="M243 626q0 -25 -14 -45l-141 -205l-57 26l58 143q-59 25 -59 81q0 37 31 64t75 27t75.5 -26.5t31.5 -64.5zM515 626q0 -25 -14 -45l-141 -205l-57 26l58 143q-59 25 -59 81q0 37 31 64t75 27t75.5 -26.5t31.5 -64.5z" />
<glyph unicode="&#x201e;" horiz-adv-x="544" d="M243 80q0 -25 -14 -45l-141 -205l-57 26l58 143q-59 25 -59 81q0 37 31 64t75 27t75.5 -26.5t31.5 -64.5zM515 80q0 -25 -14 -45l-141 -205l-57 26l58 143q-59 25 -59 81q0 37 31 64t75 27t75.5 -26.5t31.5 -64.5z" />
<glyph unicode="&#x2020;" horiz-adv-x="534" d="M352 710v-181h153v-153h-153v-529h-170v529h-152v153h152v181h170z" />
<glyph unicode="&#x2021;" horiz-adv-x="534" d="M352 710v-181h153v-153h-153v-195h153v-153h-153v-181h-170v181h-152v153h152v195h-152v153h152v181h170z" />
<glyph unicode="&#x2022;" horiz-adv-x="437" d="M407 309q0 -77 -55.5 -133t-132.5 -56q-78 0 -133.5 56t-55.5 133t55.5 133t133.5 56q77 0 132.5 -56t55.5 -133z" />
<glyph unicode="&#x2026;" horiz-adv-x="901" d="M256 80q0 -38 -31.5 -64.5t-75.5 -26.5t-75 26.5t-31 64.5q0 37 31 64t75 27t75.5 -26.5t31.5 -64.5zM556 80q0 -38 -31.5 -64.5t-75.5 -26.5t-75 26.5t-31 64.5q0 37 31 64t75 27t75.5 -26.5t31.5 -64.5zM856 80q0 -38 -31.5 -64.5t-75.5 -26.5t-75 26.5t-31 64.5 q0 37 31 64t75 27t75.5 -26.5t31.5 -64.5z" />
<glyph unicode="&#x202f;" horiz-adv-x="212" />
<glyph unicode="&#x2030;" horiz-adv-x="1361" d="M822 717l-528 -734h-169l527 734h170zM395 509q0 -93 -50 -147.5t-137 -54.5t-137.5 54.5t-50.5 147.5t50.5 147t137.5 54t137 -54t50 -147zM160 509q0 -36 13.5 -58t34.5 -22t34 22t13 58t-13 57.5t-34 21.5t-34.5 -21.5t-13.5 -57.5zM927 192q0 -93 -50.5 -147 t-137.5 -54t-137.5 54t-50.5 147t50.5 147.5t137.5 54.5t137.5 -54.5t50.5 -147.5zM1341 192q0 -93 -50 -147t-137 -54t-137.5 54t-50.5 147t50.5 147.5t137.5 54.5t137 -54.5t50 -147.5zM691 192q0 -36 13.5 -57.5t34.5 -21.5t34.5 21.5t13.5 57.5t-13.5 58t-34.5 22 t-34.5 -22t-13.5 -58zM1106 192q0 -36 13.5 -57.5t34.5 -21.5t34 21.5t13 57.5t-13 58t-34 22t-34.5 -22t-13.5 -58z" />
<glyph unicode="&#x2039;" horiz-adv-x="392" d="M218 510l150 -77l-129 -168l129 -168l-152 -75l-191 243z" />
<glyph unicode="&#x203a;" horiz-adv-x="392" d="M175 510l193 -245l-192 -243l-151 75l129 168l-129 168z" />
<glyph unicode="&#x2044;" horiz-adv-x="194" d="M399 691l-447 -708h-157l446 708h158z" />
<glyph unicode="&#x205f;" horiz-adv-x="265" />
<glyph unicode="&#x2070;" horiz-adv-x="425" d="M411 546q0 -93 -54 -151.5t-144 -58.5q-91 0 -145 58.5t-54 151.5t54 151.5t145 58.5q90 0 144 -58.5t54 -151.5zM169 546q0 -79 44 -79q19 0 31 20t12 59t-12 59t-31 20q-44 0 -44 -79z" />
<glyph unicode="&#x2074;" horiz-adv-x="420" d="M359 531h47v-120h-47v-69h-149v69h-184l-18 114l177 225h174v-219zM160 531h50v82z" />
<glyph unicode="&#x2075;" horiz-adv-x="395" d="M379 484q0 -64 -52 -106t-125 -42q-121 0 -194 55l74 92q38 -25 83 -25q50 0 50 33q0 13 -9 21t-23 8q-27 0 -44 -23l-100 51l12 202h305v-114h-171l-1 -27q32 2 33 2q74 0 118 -34.5t44 -92.5z" />
<glyph unicode="&#x2076;" horiz-adv-x="382" d="M368 483q0 -61 -50.5 -104t-123.5 -43q-82 0 -130 55t-48 149q0 98 53 157t142 59t151 -50l-57 -89q-40 24 -73 24q-47 0 -61 -51q35 12 67 12q58 0 94 -33t36 -86zM227 481q0 40 -26 40q-22 0 -35 -18q2 -65 34 -65q27 0 27 43z" />
<glyph unicode="&#x2077;" horiz-adv-x="364" d="M12 750h340v-109l-163 -299h-175l157 279h-159v129z" />
<glyph unicode="&#x2078;" horiz-adv-x="396" d="M382 461q0 -56 -52 -90q-53 -35 -133 -35q-79 0 -132 35q-51 35 -51 90q0 59 57 95q-45 31 -45 82q0 52 48 85q50 33 123 33q75 0 124 -33t49 -85q0 -48 -45 -82q57 -36 57 -95zM172 620q0 -31 25 -31q26 0 26 31q0 32 -26 32q-25 0 -25 -32zM227 474q0 33 -30 33 q-29 0 -29 -33t29 -33q30 0 30 33z" />
<glyph unicode="&#x2079;" horiz-adv-x="382" d="M366 552q0 -98 -53 -157t-142 -59t-151 50l57 89q41 -24 73 -24q47 0 61 51q-35 -12 -67 -12q-58 0 -94 33t-36 86q0 61 50.5 104t123.5 43q82 0 130 -55t48 -149zM181 571q22 0 35 18q-2 65 -34 65q-27 0 -27 -43q0 -40 26 -40z" />
<glyph unicode="&#x2080;" horiz-adv-x="425" d="M411 204q0 -93 -54 -151.5t-144 -58.5q-91 0 -145 58.5t-54 151.5t54 151.5t145 58.5q90 0 144 -58.5t54 -151.5zM169 204q0 -79 44 -79q19 0 31 20t12 59t-12 59t-31 20q-44 0 -44 -79z" />
<glyph unicode="&#x2081;" horiz-adv-x="296" d="M252 408v-408h-152v275l-62 -14l-28 113l128 34h114z" />
<glyph unicode="&#x2082;" horiz-adv-x="391" d="M271 134l-9 -7h108v-127h-355v101l173 129q25 18 25 34q0 24 -26 24q-39 0 -84 -50l-90 82q74 94 188 94q73 0 122.5 -40.5t49.5 -100.5q0 -36 -22.5 -66t-79.5 -73z" />
<glyph unicode="&#x2083;" horiz-adv-x="387" d="M369 141q0 -65 -51.5 -106t-134.5 -41q-100 0 -168 59l76 88q34 -26 76 -26q43 0 43 27q0 31 -46 31q-28 0 -52 -7l-19 67l69 54h-119v121h318v-102l-67 -56q75 -30 75 -109z" />
<glyph unicode="&#x2084;" horiz-adv-x="420" d="M359 189h47v-120h-47v-69h-149v69h-184l-18 114l177 225h174v-219zM160 189h50v82z" />
<glyph unicode="&#x2085;" horiz-adv-x="395" d="M379 142q0 -64 -52 -106t-125 -42q-121 0 -194 55l74 92q38 -25 83 -25q50 0 50 33q0 13 -9 21t-23 8q-27 0 -44 -23l-100 51l12 202h305v-114h-171l-1 -27q32 2 33 2q74 0 118 -34.5t44 -92.5z" />
<glyph unicode="&#x2086;" horiz-adv-x="382" d="M368 141q0 -61 -50.5 -104t-123.5 -43q-82 0 -130 55t-48 149q0 98 53 157t142 59t151 -50l-57 -89q-40 24 -73 24q-47 0 -61 -51q35 12 67 12q58 0 94 -33t36 -86zM227 139q0 40 -26 40q-22 0 -35 -18q2 -65 34 -65q27 0 27 43z" />
<glyph unicode="&#x2087;" horiz-adv-x="364" d="M12 408h340v-109l-163 -299h-175l157 279h-159v129z" />
<glyph unicode="&#x2088;" horiz-adv-x="396" d="M382 119q0 -56 -52 -90q-53 -35 -133 -35q-79 0 -132 35q-51 35 -51 90q0 59 57 95q-45 31 -45 82q0 52 48 85q50 33 123 33q75 0 124 -33t49 -85q0 -48 -45 -82q57 -36 57 -95zM172 278q0 -31 25 -31q26 0 26 31q0 32 -26 32q-25 0 -25 -32zM227 132q0 33 -30 33 q-29 0 -29 -33t29 -33q30 0 30 33z" />
<glyph unicode="&#x2089;" horiz-adv-x="382" d="M366 210q0 -98 -53 -157t-142 -59t-151 50l57 89q40 -24 73 -24q47 0 61 51q-35 -12 -67 -12q-58 0 -94 33t-36 86q0 61 50.5 104t123.5 43q82 0 130 -55t48 -149zM181 229q22 0 35 18q-2 65 -34 65q-27 0 -27 -43q0 -40 26 -40z" />
<glyph unicode="&#x20ac;" horiz-adv-x="600" d="M458 209l142 -94q-95 -125 -253 -125q-112 0 -193 66q-81 67 -109 179h-45v101h31v14v19h-31v101h46q30 110 110 175q82 65 191 65q158 0 253 -125l-142 -94q-33 31 -83 31q-58 0 -94 -52h132v-101h-163q-1 -4 -1 -19v-14h164v-101h-136q36 -57 98 -57q50 0 83 31z" />
<glyph unicode="&#x20b4;" horiz-adv-x="600" d="M544 438h41v-70h-570v70h211q56 24 73.5 37t17.5 27q0 25 -33 25q-62 0 -147 -64l-72 168q104 79 240 79q110 0 179.5 -57.5t69.5 -148.5q0 -37 -10 -66zM15 267v70h570v-70h-214q-52 -24 -68.5 -36.5t-16.5 -27.5q0 -27 39 -27q78 0 166 76l77 -162q-118 -100 -271 -100 q-112 0 -177 55.5t-65 151.5q0 36 14 70h-54z" />
<glyph unicode="&#x20b8;" horiz-adv-x="600" d="M582 700v-185h-564v185h564zM582 451v-185h-173v-266h-218v266h-173v185h564z" />
<glyph unicode="&#x20bd;" horiz-adv-x="600" d="M275 190h-7v-37h132v-86h-132v-67h-218v67h-60v86h60v37h-60v167h60v343h223q162 0 238 -62.5t76 -194.5q0 -130 -76.5 -191.5t-235.5 -61.5zM268 513v-156h17q50 0 73 18.5t23 58.5q0 41 -23 60t-74 19h-16z" />
<glyph unicode="&#x2116;" horiz-adv-x="1451" d="M815 450q-2 110 82.5 186t205.5 74q121 2 205.5 -74t82.5 -186q2 -110 -82.5 -186t-205.5 -74q-121 -2 -205.5 74t-82.5 186zM522 359v341h213v-700h-223l-238 341v-341h-214v700h224zM1015 450q0 -40 24 -64t63 -24q40 0 64 24t24 64t-24 64t-64 24q-39 0 -63 -24 t-24 -64zM865 0v145h476v-145h-476z" />
<glyph unicode="&#x2122;" horiz-adv-x="923" d="M369 700v-116h-107v-286h-135v286h-107v116h349zM893 700v-402h-132v209l-92 -154h-48l-91 154v-209h-133v402h169l79 -130l79 130h169z" />
<glyph unicode="&#x215b;" horiz-adv-x="906" d="M252 680v-408h-152v275l-62 -14l-28 113l128 34h114zM715 691l-447 -708h-157l446 708h158zM892 119q0 -56 -52 -90q-53 -35 -133 -35q-79 0 -132 35q-51 35 -51 90q0 59 57 95q-45 31 -45 82q0 52 48 85q50 33 123 33q75 0 124 -33t49 -85q0 -48 -45 -82q57 -36 57 -95z M682 278q0 -31 25 -31q26 0 26 31q0 32 -26 32q-25 0 -25 -32zM737 132q0 33 -30 33q-29 0 -29 -33t29 -33q30 0 30 33z" />
<glyph unicode="&#x215c;" horiz-adv-x="977" d="M369 413q0 -65 -51.5 -106t-134.5 -41q-100 0 -168 59l76 88q34 -26 76 -26q43 0 43 27q0 31 -46 31q-28 0 -52 -7l-19 67l69 54h-119v121h318v-102l-67 -56q75 -30 75 -109zM786 691l-447 -708h-157l446 708h158zM963 119q0 -56 -52 -90q-53 -35 -133 -35q-79 0 -132 35 q-51 35 -51 90q0 59 57 95q-45 31 -45 82q0 52 48 85q49 33 123 33t124 -33q49 -33 49 -85q0 -48 -45 -82q57 -36 57 -95zM753 278q0 -31 25 -31q26 0 26 31q0 32 -26 32q-25 0 -25 -32zM808 132q0 33 -30 33q-29 0 -29 -33t29 -33q30 0 30 33z" />
<glyph unicode="&#x215d;" horiz-adv-x="985" d="M379 414q0 -64 -52 -106t-125 -42q-121 0 -194 55l74 92q38 -25 83 -25q50 0 50 33q0 13 -9 21t-23 8q-27 0 -44 -23l-100 51l12 202h305v-114h-171l-1 -27q32 2 33 2q74 0 118 -34.5t44 -92.5zM794 691l-447 -708h-157l446 708h158zM971 119q0 -56 -52 -90 q-53 -35 -133 -35q-79 0 -132 35q-51 35 -51 90q0 59 57 95q-45 31 -45 82q0 52 48 85q49 33 123 33t124 -33q49 -33 49 -85q0 -48 -45 -82q57 -36 57 -95zM761 278q0 -31 25 -31q26 0 26 31q0 32 -26 32q-25 0 -25 -32zM816 132q0 33 -30 33q-29 0 -29 -33t29 -33 q30 0 30 33z" />
<glyph unicode="&#x215e;" horiz-adv-x="883" d="M12 680h340v-109l-163 -299h-175l157 279h-159v129zM692 691l-447 -708h-157l446 708h158zM869 119q0 -56 -52 -90q-53 -35 -133 -35q-79 0 -132 35q-51 35 -51 90q0 59 57 95q-45 31 -45 82q0 52 48 85q49 33 123 33t124 -33q49 -33 49 -85q0 -48 -45 -82q57 -36 57 -95 zM659 278q0 -31 25 -31q26 0 26 31q0 32 -26 32q-25 0 -25 -32zM714 132q0 33 -30 33q-29 0 -29 -33t29 -33q30 0 30 33z" />
<glyph unicode="&#x2212;" horiz-adv-x="600" d="M559 366v-155h-518v155h518z" />
<glyph unicode="&#x2248;" horiz-adv-x="600" d="M308 498q48 -22 75 -22q41 0 56 53l120 -18q0 -90 -41 -147t-105 -57q-46 0 -120 30q-60 23 -76 23q-19 0 -34 -14.5t-22 -38.5l-120 14q0 98 40 153t112 55q45 0 115 -31zM308 238q48 -22 75 -22q41 0 56 53l120 -18q0 -90 -41 -147t-105 -57q-46 0 -120 30 q-60 23 -76 23q-19 0 -34 -14.5t-22 -38.5l-120 14q0 98 40 153t112 55q45 0 115 -31z" />
<glyph unicode="&#x2260;" horiz-adv-x="600" d="M559 321h-153l-31 -65h184v-155h-258l-57 -121h-179l57 121h-81v155h155l31 65h-186v155h259l56 117h179l-56 -117h80v-155z" />
<glyph unicode="&#x2264;" horiz-adv-x="600" d="M559 697v-179l-312 -83l312 -83v-179l-518 166v192zM559 155v-155h-518v155h518z" />
<glyph unicode="&#x2265;" horiz-adv-x="600" d="M41 697l518 -166v-192l-518 -166v179l312 83l-312 83v179zM559 155v-155h-518v155h518z" />
<glyph unicode="&#x25cc;" horiz-adv-x="625" d="M311 571q14 0 23.5 -9t9.5 -24t-9 -23.5t-24 -8.5q-14 0 -23 8.5t-9 23.5t9 24t23 9zM212 554q14 0 23.5 -9t9.5 -24t-9 -23.5t-24 -8.5q-14 0 -23 8.5t-9 23.5t9 24t23 9zM411 554q14 0 23.5 -9t9.5 -24t-9 -23.5t-24 -8.5q-14 0 -23 8.5t-9 23.5t9 24t23 9zM126 498 q14 0 23.5 -9t9.5 -24t-9 -23.5t-24 -8.5q-14 0 -23 8.5t-9 23.5t9 24t23 9zM496 498q14 0 23.5 -9t9.5 -24t-9 -23.5t-24 -8.5q-14 0 -23 8.5t-9 23.5t9 24t23 9zM75 410q14 0 23.5 -9t9.5 -24t-9 -23.5t-24 -8.5q-14 0 -23 8.5t-9 23.5t9 24t23 9zM550 410q14 0 23.5 -9 t9.5 -24t-9 -23.5t-24 -8.5q-14 0 -23 8.5t-9 23.5t9 24t23 9zM58 315q14 0 23.5 -9t9.5 -24t-9 -23.5t-24 -8.5q-14 0 -23 8.5t-9 23.5t9 24t23 9zM566 315q14 0 23.5 -9t9.5 -24t-9 -23.5t-24 -8.5q-14 0 -23 8.5t-9 23.5t9 24t23 9zM75 223q14 0 23.5 -9t9.5 -24 t-9 -23.5t-24 -8.5q-14 0 -23 8.5t-9 23.5t9 24t23 9zM550 223q14 0 23.5 -9t9.5 -24t-9 -23.5t-24 -8.5q-14 0 -23 8.5t-9 23.5t9 24t23 9zM126 133q14 0 23.5 -9t9.5 -24t-9 -23.5t-24 -8.5q-14 0 -23 8.5t-9 23.5t9 24t23 9zM496 133q14 0 23.5 -9t9.5 -24t-9 -23.5 t-24 -8.5q-14 0 -23 8.5t-9 23.5t9 24t23 9zM212 78q14 0 23.5 -9t9.5 -24t-9 -23.5t-24 -8.5q-14 0 -23 8.5t-9 23.5t9 24t23 9zM411 78q14 0 23.5 -9t9.5 -24t-9 -23.5t-24 -8.5q-14 0 -23 8.5t-9 23.5t9 24t23 9zM311 61q14 0 23.5 -9t9.5 -24t-9 -23.5t-24 -8.5 q-14 0 -23 8.5t-9 23.5t9 24t23 9z" />
<glyph unicode="&#x25fc;" horiz-adv-x="500" d="M0 500h500v-500h-500v500z" />
<glyph unicode="&#xfb00;" horiz-adv-x="816" d="M419 685l-25 -124q-35 13 -65 13q-47 0 -47 -43v-31h204v37q0 173 188 173q71 0 153 -25l-25 -124q-35 13 -65 13q-47 0 -47 -43v-31h113v-154h-113v-346h-204v346h-204v-346h-204v346h-58v154h58v37q0 173 188 173q71 0 153 -25z" />
<glyph unicode="&#xfb03;" horiz-adv-x="1131" d="M419 685l-25 -124q-35 13 -65 13q-47 0 -47 -43v-31h204v37q0 173 188 173q71 0 153 -25l-25 -124q-35 13 -65 13q-47 0 -47 -43v-31h388v-500h-203v346h-185v-346h-204v346h-204v-346h-204v346h-58v154h58v37q0 173 188 173q71 0 153 -25zM1082 621q0 -37 -31 -62.5 t-75 -25.5t-74.5 25.5t-30.5 62.5t31 63t74 26q44 0 75 -26t31 -63z" />
<glyph unicode="&#xfb04;" horiz-adv-x="1124" d="M419 685l-25 -124q-35 13 -65 13q-47 0 -47 -43v-31h204v37q0 173 188 173q46 0 93 -10h307v-700h-203v561h-69q-35 13 -65 13q-47 0 -47 -43v-31h113v-154h-113v-346h-204v346h-204v-346h-204v346h-58v154h58v37q0 173 188 173q71 0 153 -25z" />
<glyph unicode="&#xfb06;" horiz-adv-x="967" d="M918 173l25 -137q-83 -46 -170 -46q-79 0 -127 45.5t-48 129.5v181h-59v154h59v23q0 32 -25.5 52.5t-66.5 20.5q-43 0 -67 -23t-24 -64q0 -13 3 -27q27 -10 63 -29l-66 -123q-83 46 -151 46q-33 0 -33 -19q0 -7 7.5 -11t33.5 -11l44 -11q92 -24 133 -62.5t41 -102.5 q0 -81 -58 -125t-164 -44q-138 0 -248 72l70 117q93 -55 183 -55q29 0 29 20q0 8 -6 12t-28 10l-60 16q-90 25 -128 60.5t-38 96.5q0 80 56.5 124.5t158.5 46.5q-10 21 -10 55q0 87 71.5 135.5t201.5 48.5q122 0 201.5 -50.5t79.5 -129.5v-69h113v-154h-113v-146 q0 -46 52 -46q33 0 65 19z" />
<glyph unicode="&#xfbb2;" d="M105 665q0 40 28 67.5t68 27.5q39 0 66.5 -27.5t27.5 -67.5t-27.5 -67.5t-66.5 -27.5q-40 0 -68 27.5t-28 67.5z" />
<glyph unicode="&#xfbb3;" d="M105 -185q0 40 27.5 67.5t67.5 27.5q39 0 67 -27.5t28 -67.5t-28 -67.5t-67 -27.5q-40 0 -67.5 27.5t-27.5 67.5z" />
<glyph unicode="&#xfbb4;" d="M1 665q0 40 27.5 67.5t67.5 27.5q39 0 66.5 -27.5t27.5 -67.5t-27.5 -67.5t-66.5 -27.5q-40 0 -67.5 27.5t-27.5 67.5zM210 665q0 40 27.5 67.5t67.5 27.5q39 0 66.5 -27.5t27.5 -67.5t-27.5 -67.5t-66.5 -27.5q-40 0 -67.5 27.5t-27.5 67.5z" />
<glyph unicode="&#xfbb5;" d="M1 -165q0 40 27.5 67.5t67.5 27.5q39 0 66.5 -27.5t27.5 -67.5t-27.5 -67.5t-66.5 -27.5q-40 0 -67.5 27.5t-27.5 67.5zM210 -165q0 40 27.5 67.5t67.5 27.5q39 0 66.5 -27.5t27.5 -67.5t-27.5 -67.5t-66.5 -27.5q-40 0 -67.5 27.5t-27.5 67.5z" />
<glyph unicode="&#xfbb6;" d="M120 808q0 34 23 57t56 23q32 0 55 -23t23 -57q0 -33 -23 -56t-55 -23q-33 0 -56 23t-23 56zM29 649q0 33 23 56t56 23t56 -23t23 -56t-23 -56t-56 -23t-56 23t-23 56zM213 649q0 33 23 56t57 23q32 0 55 -23t23 -56t-23 -56t-55 -23q-34 0 -57 23t-23 56z" />
<glyph unicode="&#xfbb7;" d="M120 -152q0 34 23 57t56 23q32 0 55 -23t23 -57q0 -33 -23 -56t-55 -23q-33 0 -56 23t-23 56zM29 -311q0 33 23 56t56 23t56 -23t23 -56t-23 -56t-56 -23t-56 23t-23 56zM213 -311q0 33 23 56t57 23q32 0 55 -23t23 -56t-23 -56t-55 -23q-34 0 -57 23t-23 56z" />
<glyph unicode="&#xfbb8;" d="M29 809q0 33 23 56t56 23t56 -23t23 -56t-23 -56t-56 -23t-56 23t-23 56zM213 809q0 33 23 56t57 23q32 0 55 -23t23 -56t-23 -56t-55 -23q-34 0 -57 23t-23 56zM120 649q0 34 23 57t56 23q32 0 55 -23t23 -57q0 -33 -23 -56t-55 -23q-33 0 -56 23t-23 56z" />
<glyph unicode="&#xfbb9;" d="M29 -151q0 33 23 56t56 23t56 -23t23 -56t-23 -56t-56 -23t-56 23t-23 56zM213 -151q0 33 23 56t57 23q32 0 55 -23t23 -56t-23 -56t-55 -23q-34 0 -57 23t-23 56zM120 -311q0 34 23 57t56 23q32 0 55 -23t23 -57q0 -33 -23 -56t-55 -23q-33 0 -56 23t-23 56z" />
<glyph unicode="&#xfbbd;" d="M105 872q0 40 28 67.5t68 27.5q39 0 66.5 -27.5t27.5 -67.5t-27.5 -67.5t-66.5 -27.5q-40 0 -68 27.5t-28 67.5zM105 655q0 40 28 67.5t68 27.5q39 0 66.5 -27.5t27.5 -67.5t-27.5 -67.5t-66.5 -27.5q-40 0 -68 27.5t-28 67.5z" />
<glyph unicode="&#xfbbe;" d="M105 -175q0 40 28 67.5t68 27.5q39 0 66.5 -27.5t27.5 -67.5t-27.5 -67.5t-66.5 -27.5q-40 0 -68 27.5t-28 67.5zM105 -392q0 40 28 67.5t68 27.5q39 0 66.5 -27.5t27.5 -67.5t-27.5 -67.5t-66.5 -27.5q-40 0 -68 27.5t-28 67.5z" />
<glyph unicode="&#xfd3e;" horiz-adv-x="538" d="M351 84q20 -176 76 -302l-85 -32q-120 140 -152 333q-41 21 -65.5 61t-24.5 88t24.5 88t65.5 61q32 193 152 333l85 -32q-56 -126 -76 -302q40 -22 63.5 -61.5t23.5 -86.5t-23.5 -86.5t-63.5 -61.5zM250 400q4 1 19 1q4 0 26 -2q16 145 65 263l-1 1q-85 -123 -109 -263z M159 232q0 -44 32 -78q34 -32 78 -32q45 0 77 32q33 33 33 78q0 46 -33 77q-32 33 -77 33t-78 -33q-32 -32 -32 -77zM235 198q-25 25 -63 35q38 9 63 34t34 62q9 -36 35 -62q25 -25 62 -34q-38 -10 -62 -35q-26 -26 -35 -62q-9 37 -34 62zM244 293l-36 -36l-6 42zM336 299 l-6 -42l-36 35zM241 232q0 -12 8 -20t20 -8t20 8t8 20t-8 20t-20 8t-20 -8t-8 -20zM202 165l6 42l36 -36zM294 172l36 35l5 -42zM295 65q-22 -2 -26 -2q-15 0 -19 1q24 -140 109 -263l1 1q-49 118 -65 263z" />
<glyph unicode="&#xfd3f;" horiz-adv-x="531" d="M341 83q-32 -193 -152 -333l-85 32q56 126 76 302q-40 22 -63.5 61.5t-23.5 86.5t23.5 86.5t63.5 61.5q-20 176 -76 302l85 32q120 -140 152 -333q41 -21 65.5 -61t24.5 -88t-24.5 -88t-65.5 -61zM236 399q22 2 26 2q15 0 19 -1q-24 140 -109 263l-1 -1q49 -118 65 -263z M372 232q0 46 -33 77q-32 33 -77 33t-78 -33q-32 -32 -32 -77q0 -44 32 -78q34 -32 78 -32q45 0 77 32q33 33 33 78zM296 267q25 -25 63 -34q-38 -10 -63 -35t-34 -62q-9 36 -35 62q-23 24 -62 35q37 9 62 34q26 26 35 62q9 -37 34 -62zM237 292l-36 -35l-6 42zM329 299 l-6 -42l-36 36zM290 232q0 12 -8 20t-20 8t-20 -8t-8 -20t8 -20t20 -8t20 8t8 20zM196 165l5 42l36 -35zM287 171l36 36l6 -42zM281 64q-4 -1 -19 -1q-4 0 -26 2q-16 -145 -65 -263l1 -1q85 123 109 263z" />
<glyph horiz-adv-x="639" d="M391 500h203v-500h-203v55q-63 -65 -150 -65q-93 0 -152 72t-59 188t59 188t152 72q87 0 150 -65v55zM391 207v86q-27 45 -79 45q-35 0 -58.5 -25.5t-23.5 -62.5t23.5 -62.5t58.5 -25.5q52 0 79 45z" />
<glyph horiz-adv-x="639" d="M391 500h203v-500h-203v55q-63 -65 -150 -65q-93 0 -152 72t-59 188t59 188t152 72q87 0 150 -65v55zM391 207v86q-27 45 -79 45q-35 0 -58.5 -25.5t-23.5 -62.5t23.5 -62.5t58.5 -25.5q52 0 79 45zM547 728l-158 -178h-174l123 178h209z" />
<glyph horiz-adv-x="639" d="M391 500h203v-500h-203v55q-63 -65 -150 -65q-93 0 -152 72t-59 188t59 188t152 72q87 0 150 -65v55zM391 207v86q-27 45 -79 45q-35 0 -58.5 -25.5t-23.5 -62.5t23.5 -62.5t58.5 -25.5q52 0 79 45zM326 560q-83 0 -141.5 50t-58.5 124h133q0 -24 19 -38.5t48 -14.5 q30 0 49 14.5t19 38.5h133q0 -74 -58.5 -124t-142.5 -50z" />
<glyph horiz-adv-x="639" d="M391 500h203v-500h-203v55q-63 -65 -150 -65q-93 0 -152 72t-59 188t59 188t152 72q87 0 150 -65v55zM391 207v86q-27 45 -79 45q-35 0 -58.5 -25.5t-23.5 -62.5t23.5 -62.5t58.5 -25.5q52 0 79 45zM432 728l123 -178h-167l-62 74l-61 -74h-168l123 178h212z" />
<glyph horiz-adv-x="639" d="M391 500h203v-500h-203v55q-63 -65 -150 -65q-93 0 -152 72t-59 188t59 188t152 72q87 0 150 -65v55zM391 207v86q-27 45 -79 45q-35 0 -58.5 -25.5t-23.5 -62.5t23.5 -62.5t58.5 -25.5q52 0 79 45zM296 648q0 -36 -23.5 -59.5t-58.5 -23.5q-36 0 -59.5 23.5t-23.5 59.5 q0 35 23.5 58.5t59.5 23.5q35 0 58.5 -23.5t23.5 -58.5zM521 648q0 -36 -24 -59.5t-59 -23.5t-58.5 23.5t-23.5 59.5q0 35 23.5 58.5t58.5 23.5t59 -23.5t24 -58.5z" />
<glyph horiz-adv-x="639" d="M391 500h203v-500h-203v55q-63 -65 -150 -65q-93 0 -152 72t-59 188t59 188t152 72q87 0 150 -65v55zM391 207v86q-27 45 -79 45q-35 0 -58.5 -25.5t-23.5 -62.5t23.5 -62.5t58.5 -25.5q52 0 79 45zM314 728l123 -178h-174l-158 178h209z" />
<glyph horiz-adv-x="639" d="M391 500h203v-500h-203v55q-63 -65 -150 -65q-93 0 -152 72t-59 188t59 188t152 72q87 0 150 -65v55zM391 207v86q-27 45 -79 45q-35 0 -58.5 -25.5t-23.5 -62.5t23.5 -62.5t58.5 -25.5q52 0 79 45zM507 710v-125h-361v125h361z" />
<glyph horiz-adv-x="639" d="M591 -98l23 -91q-41 -16 -98 -16q-61 0 -94 23.5t-33 68.5q0 52 37 107l4 6h-39v55q-63 -65 -150 -65q-93 0 -152 72t-59 188t59 188t152 72q87 0 150 -65v55h203v-500h-54l-1 -2q-25 -43 -25 -58q0 -41 54 -41q11 0 23 3zM391 207v86q-27 45 -79 45q-35 0 -58.5 -25.5 t-23.5 -62.5t23.5 -62.5t58.5 -25.5q52 0 79 45z" />
<glyph horiz-adv-x="639" d="M391 500h203v-500h-203v55q-63 -65 -150 -65q-93 0 -152 72t-59 188t59 188t152 72q87 0 150 -65v55zM391 207v86q-27 45 -79 45q-35 0 -58.5 -25.5t-23.5 -62.5t23.5 -62.5t58.5 -25.5q52 0 79 45zM469 675q0 -57 -42 -98.5t-101 -41.5t-101 41.5t-42 98.5t42 98.5 t101 41.5t101 -41.5t42 -98.5zM278 675q0 -19 14 -33t34 -14t34 14t14 33t-14 33t-34 14t-34 -14t-14 -33z" />
<glyph horiz-adv-x="639" d="M391 500h203v-500h-203v55q-63 -65 -150 -65q-93 0 -152 72t-59 188t59 188t152 72q87 0 150 -65v55zM391 207v86q-27 45 -79 45q-35 0 -58.5 -25.5t-23.5 -62.5t23.5 -62.5t58.5 -25.5q52 0 79 45zM240 728q27 0 77 -18q59 -22 82 -22q27 0 37 33l86 -11 q0 -72 -26.5 -115t-82.5 -43q-29 0 -92 23q-48 17 -67 17q-27 0 -37 -33l-86 11q0 72 26.5 115t82.5 43z" />
<glyph horiz-adv-x="965" d="M939 250v-48h-341q14 -66 92 -66q60 0 99 34l116 -94q-77 -86 -188 -86q-65 0 -123 40v-30h-203v58q-63 -68 -155 -68q-91 0 -148.5 72t-57.5 188t57.5 188t148.5 72q92 0 155 -68v58h203v-29q56 39 123 39q99 0 160.5 -74.5t61.5 -185.5zM597 296h144q0 31 -19 51 t-51 20q-62 0 -74 -71zM391 209v82q-26 47 -75 47q-35 0 -60.5 -25.5t-25.5 -62.5t25.5 -62.5t60.5 -25.5q49 0 75 47z" />
<glyph horiz-adv-x="913" d="M737 170l109 -94q-92 -86 -226 -86q-124 0 -203 79q-85 -79 -203 -79q-86 0 -135 42t-49 112q0 69 47 108t130 39h135v12q0 51 -70 51q-64 0 -137 -39l-57 129q124 66 253 66q87 0 140 -36q65 36 144 36q123 0 197.5 -74t74.5 -186l-319 -92q22 -22 70 -22q64 0 99 34z M541 265l147 42q-3 27 -21.5 43.5t-47.5 16.5q-39 0 -57.5 -24t-20.5 -78zM294 110q36 0 75 25q-18 35 -24 75h-57q-57 0 -57 -47q0 -53 63 -53z" />
<glyph horiz-adv-x="965" d="M789 170l116 -94q-77 -86 -188 -86q-65 0 -123 40v-30h-203v58q-63 -68 -155 -68q-91 0 -148.5 72t-57.5 188t57.5 188t148.5 72q92 0 155 -68v58h203v-29q56 39 123 39q99 0 160.5 -74.5t61.5 -185.5l-319 -92q25 -22 70 -22q60 0 99 34zM594 265l146 42 q-3 27 -21.5 43.5t-47.5 16.5q-73 0 -77 -102zM391 209v82q-26 47 -75 47q-35 0 -60.5 -25.5t-25.5 -62.5t25.5 -62.5t60.5 -25.5q49 0 75 47z" />
<glyph horiz-adv-x="601" d="M425 170l109 -94q-92 -86 -226 -86q-120 0 -199 75t-79 185t77.5 185t195.5 75q123 0 197.5 -74t74.5 -186l-319 -92q22 -22 70 -22q64 0 99 34zM229 265l147 42q-3 27 -21.5 43.5t-47.5 16.5q-39 0 -57.5 -24t-20.5 -78z" />
<glyph horiz-adv-x="601" d="M425 170l109 -94q-92 -86 -226 -86q-120 0 -199 75t-79 185t77.5 185t195.5 75q123 0 197.5 -74t74.5 -186l-319 -92q22 -22 70 -22q64 0 99 34zM229 265l147 42q-3 27 -21.5 43.5t-47.5 16.5q-39 0 -57.5 -24t-20.5 -78zM524 728l-158 -178h-174l123 178h209z" />
<glyph horiz-adv-x="601" d="M425 170l109 -94q-92 -86 -226 -86q-120 0 -199 75t-79 185t77.5 185t195.5 75q123 0 197.5 -74t74.5 -186l-319 -92q22 -22 70 -22q64 0 99 34zM229 265l147 42q-3 27 -21.5 43.5t-47.5 16.5q-39 0 -57.5 -24t-20.5 -78zM303 560q-83 0 -141.5 50t-58.5 124h133 q0 -24 19 -38.5t48 -14.5q30 0 49 14.5t19 38.5h133q0 -74 -58.5 -124t-142.5 -50z" />
<glyph horiz-adv-x="601" d="M425 170l109 -94q-92 -86 -226 -86q-120 0 -199 75t-79 185t77.5 185t195.5 75q123 0 197.5 -74t74.5 -186l-319 -92q22 -22 70 -22q64 0 99 34zM229 265l147 42q-3 27 -21.5 43.5t-47.5 16.5q-39 0 -57.5 -24t-20.5 -78zM532 728l-123 -178h-212l-123 178h168l61 -74 l62 74h167z" />
<glyph horiz-adv-x="601" d="M425 170l109 -94q-92 -86 -226 -86q-120 0 -199 75t-79 185t77.5 185t195.5 75q123 0 197.5 -74t74.5 -186l-319 -92q22 -22 70 -22q64 0 99 34zM229 265l147 42q-3 27 -21.5 43.5t-47.5 16.5q-39 0 -57.5 -24t-20.5 -78zM409 728l123 -178h-167l-62 74l-61 -74h-168 l123 178h212z" />
<glyph horiz-adv-x="601" d="M425 170l109 -94q-92 -86 -226 -86q-120 0 -199 75t-79 185t77.5 185t195.5 75q123 0 197.5 -74t74.5 -186l-319 -92q22 -22 70 -22q64 0 99 34zM229 265l147 42q-3 27 -21.5 43.5t-47.5 16.5q-39 0 -57.5 -24t-20.5 -78zM273 648q0 -36 -23.5 -59.5t-58.5 -23.5 q-36 0 -59.5 23.5t-23.5 59.5q0 35 23.5 58.5t59.5 23.5q35 0 58.5 -23.5t23.5 -58.5zM498 648q0 -36 -24 -59.5t-59 -23.5t-58.5 23.5t-23.5 59.5q0 35 23.5 58.5t58.5 23.5t59 -23.5t24 -58.5z" />
<glyph horiz-adv-x="601" d="M425 170l109 -94q-92 -86 -226 -86q-120 0 -199 75t-79 185t77.5 185t195.5 75q123 0 197.5 -74t74.5 -186l-319 -92q22 -22 70 -22q64 0 99 34zM229 265l147 42q-3 27 -21.5 43.5t-47.5 16.5q-39 0 -57.5 -24t-20.5 -78zM291 728l123 -178h-174l-158 178h209z" />
<glyph horiz-adv-x="601" d="M475 33q-41 -65 -41 -93q0 -41 54 -41q11 0 23 3l23 -91q-41 -16 -98 -16q-61 0 -94 23.5t-33 68.5q0 43 36 105q-32 -2 -37 -2q-120 0 -199 75t-79 185t77.5 185t195.5 75q123 0 197.5 -74t74.5 -186l-319 -92q22 -22 70 -22q64 0 99 34l109 -94q-31 -27 -59 -43z M229 265l147 42q-3 27 -21.5 43.5t-47.5 16.5q-39 0 -57.5 -24t-20.5 -78z" />
<glyph horiz-adv-x="652" d="M637 -82q0 -77 -83 -122.5t-225 -45.5t-225.5 45.5t-83.5 122.5t83 122q-42 27 -42 60q0 39 51 75q-76 56 -76 139q0 85 78.5 140.5t199.5 55.5q55 0 94 -10h214v-109l-47 -7q16 -31 16 -70q0 -85 -78 -140t-199 -55q-38 0 -72 6q-8 -11 -8 -19q0 -15 17 -24q28 4 78 4 q142 0 225 -45.5t83 -122.5zM240 314q0 -26 20 -40.5t54 -14.5t53.5 15t19.5 40t-20 40.5t-53 15.5q-34 0 -54 -15t-20 -41zM434 -82q0 39 -105 39q-106 0 -106 -39t106 -39q105 0 105 39z" />
<glyph horiz-adv-x="652" d="M637 -82q0 -77 -83 -122.5t-225 -45.5t-225.5 45.5t-83.5 122.5t83 122q-42 27 -42 60q0 39 51 75q-76 56 -76 139q0 85 78.5 140.5t199.5 55.5q55 0 94 -10h214v-109l-47 -7q16 -31 16 -70q0 -85 -78 -140t-199 -55q-38 0 -72 6q-8 -11 -8 -19q0 -15 17 -24q28 4 78 4 q142 0 225 -45.5t83 -122.5zM240 314q0 -26 20 -40.5t54 -14.5t53.5 15t19.5 40t-20 40.5t-53 15.5q-34 0 -54 -15t-20 -41zM434 -82q0 39 -105 39q-106 0 -106 -39t106 -39q105 0 105 39zM321 560q-83 0 -141.5 50t-58.5 124h133q0 -24 19 -38.5t48 -14.5q30 0 49 14.5 t19 38.5h133q0 -74 -58.5 -124t-142.5 -50z" />
<glyph horiz-adv-x="652" d="M637 -82q0 -77 -83 -122.5t-225 -45.5t-225.5 45.5t-83.5 122.5t83 122q-42 27 -42 60q0 39 51 75q-76 56 -76 139q0 85 78.5 140.5t199.5 55.5q55 0 94 -10h214v-109l-47 -7q16 -31 16 -70q0 -85 -78 -140t-199 -55q-38 0 -72 6q-8 -11 -8 -19q0 -15 17 -24q28 4 78 4 q142 0 225 -45.5t83 -122.5zM240 314q0 -26 20 -40.5t54 -14.5t53.5 15t19.5 40t-20 40.5t-53 15.5q-34 0 -54 -15t-20 -41zM434 -82q0 39 -105 39q-106 0 -106 -39t106 -39q105 0 105 39zM427 728l123 -178h-167l-62 74l-61 -74h-168l123 178h212z" />
<glyph horiz-adv-x="652" d="M637 -82q0 -77 -83 -122.5t-225 -45.5t-225.5 45.5t-83.5 122.5t83 122q-42 27 -42 60q0 39 51 75q-76 56 -76 139q0 85 78.5 140.5t199.5 55.5q55 0 94 -10h214v-109l-47 -7q16 -31 16 -70q0 -85 -78 -140t-199 -55q-38 0 -72 6q-8 -11 -8 -19q0 -15 17 -24q28 4 78 4 q142 0 225 -45.5t83 -122.5zM240 314q0 -26 20 -40.5t54 -14.5t53.5 15t19.5 40t-20 40.5t-53 15.5q-34 0 -54 -15t-20 -41zM434 -82q0 39 -105 39q-106 0 -106 -39t106 -39q105 0 105 39zM234 630q0 20 13 36l110 135l49 -21l-38 -84q23 -9 37 -27t14 -39q0 -31 -27 -52 t-65 -21t-65.5 21t-27.5 52z" />
<glyph horiz-adv-x="652" d="M637 -82q0 -77 -83 -122.5t-225 -45.5t-225.5 45.5t-83.5 122.5t83 122q-42 27 -42 60q0 39 51 75q-76 56 -76 139q0 85 78.5 140.5t199.5 55.5q55 0 94 -10h214v-109l-47 -7q16 -31 16 -70q0 -85 -78 -140t-199 -55q-38 0 -72 6q-8 -11 -8 -19q0 -15 17 -24q28 4 78 4 q142 0 225 -45.5t83 -122.5zM240 314q0 -26 20 -40.5t54 -14.5t53.5 15t19.5 40t-20 40.5t-53 15.5q-34 0 -54 -15t-20 -41zM434 -82q0 39 -105 39q-106 0 -106 -39t106 -39q105 0 105 39zM403 648q0 -36 -23.5 -59.5t-58.5 -23.5q-36 0 -59.5 23.5t-23.5 59.5 q0 35 23.5 58.5t59.5 23.5q35 0 58.5 -23.5t23.5 -58.5z" />
<glyph horiz-adv-x="310" d="M257 500v-500h-203v500h203zM239 648q0 -36 -23.5 -59.5t-58.5 -23.5q-36 0 -59.5 23.5t-23.5 59.5q0 35 23.5 58.5t59.5 23.5q35 0 58.5 -23.5t23.5 -58.5z" />
<glyph horiz-adv-x="360" d="M50 165v535h203v-517q0 -36 33 -36q20 0 37 6l28 -139q-52 -25 -130 -25q-171 0 -171 176z" />
<glyph horiz-adv-x="360" d="M50 165v535h203v-517q0 -36 33 -36q20 0 37 6l28 -139q-52 -25 -130 -25q-171 0 -171 176zM376 928l-158 -178h-174l123 178h209z" />
<glyph horiz-adv-x="518" d="M50 165v535h203v-517q0 -36 33 -36q20 0 37 6l28 -139q-52 -25 -130 -25q-171 0 -171 176zM518 626q0 -25 -14 -45l-141 -205l-57 26l58 143q-59 25 -59 81q0 37 31 64t75 27t75.5 -26.5t31.5 -64.5z" />
<glyph horiz-adv-x="360" d="M50 165v535h203v-517q0 -36 33 -36q20 0 37 6l28 -139q-52 -25 -130 -25q-171 0 -171 176zM307 -113q0 -20 -13 -36l-110 -135l-49 21l38 84q-23 9 -37 27t-14 39q0 31 27 52t65 21t65.5 -21t27.5 -52z" />
<glyph horiz-adv-x="530" d="M50 165v535h203v-517q0 -36 33 -36q20 0 37 6l28 -139q-52 -25 -130 -25q-171 0 -171 176zM519 377q0 -38 -31.5 -64.5t-75.5 -26.5t-75 26.5t-31 64.5q0 37 31 64t75 27t75.5 -26.5t31.5 -64.5z" />
<glyph horiz-adv-x="360" d="M323 153l28 -139q-52 -25 -130 -25q-171 0 -171 176v41l-56 -27v199l56 27v295h203v-196l67 32v-198l-67 -33v-122q0 -36 33 -36q20 0 37 6z" />
<glyph horiz-adv-x="978" d="M802 170l109 -94q-92 -86 -226 -86q-104 0 -182 60q-83 -60 -185 -60q-117 -2 -204 76.5t-84 183.5q-3 105 84 183.5t204 76.5q106 0 184 -60q74 60 178 60q123 0 197.5 -74t74.5 -186l-319 -92q22 -22 70 -22q64 0 99 34zM606 265l147 42q-3 27 -21.5 43.5t-47.5 16.5 q-39 0 -57.5 -24t-20.5 -78zM404 250q0 37 -25.5 62.5t-61.5 25.5t-62 -25.5t-26 -62.5t26 -62.5t62 -25.5t61.5 25.5t25.5 62.5z" />
<glyph horiz-adv-x="1219" d="M1179 351v-351h-203v289q0 27 -15 42t-43 15q-41 0 -82 -29v-317h-203v515h-202v-515h-218v515h-193v185h816v-249q83 59 176 59q76 0 121.5 -42.5t45.5 -116.5z" />
<glyph horiz-adv-x="1194" d="M1154 351v-351h-203v289q0 27 -15 42t-43 15q-41 0 -82 -29v-317h-203v587q-34 9 -63 9q-43 0 -67 -23t-24 -64q0 -28 11 -48q43 -30 69 -69l-155 -85q-25 31 -70 31q-34 0 -57 -25t-23 -63t23 -63t57 -25q45 0 70 31l155 -85q-37 -55 -98 -86.5t-132 -31.5 q-110 -2 -193 76t-81 184q-2 103 77.5 181t188.5 79q-10 21 -10 55q0 87 71.5 135.5t201.5 48.5q116 0 252 -34v-264q83 59 176 59q76 0 121.5 -42.5t45.5 -116.5z" />
<glyph horiz-adv-x="1006" d="M957 173l25 -137q-83 -46 -170 -46q-79 0 -127 45.5t-48 129.5v181h-59v154h59v23q0 32 -25.5 52.5t-66.5 20.5q-43 0 -67 -23t-24 -64q0 -28 11 -48q43 -30 69 -69l-155 -85q-25 31 -70 31q-34 0 -57 -25t-23 -63t23 -63t57 -25q45 0 70 31l155 -85q-37 -55 -98 -86.5 t-132 -31.5q-110 -2 -193 76t-81 184q-2 103 77.5 181t188.5 79q-10 21 -10 55q0 87 71.5 135.5t201.5 48.5q122 0 201.5 -50.5t79.5 -129.5v-69h113v-154h-113v-146q0 -46 52 -46q33 0 65 19z" />
<glyph horiz-adv-x="1047" d="M1017 250q0 -113 -56.5 -186.5t-153.5 -73.5q-85 0 -151 68v-58h-203v561h-59q-35 13 -65 13q-47 0 -47 -43v-31h113v-154h-113v-346h-204v346h-58v154h58v37q0 173 188 173q43 0 93 -10h297v-258q66 68 151 68q97 0 153.5 -73.5t56.5 -186.5zM817 250q0 37 -25.5 62.5 t-60.5 25.5q-49 0 -75 -47v-82q26 -47 75 -47q35 0 60.5 25.5t25.5 62.5z" />
<glyph horiz-adv-x="1118" d="M419 685l-25 -124q-35 13 -65 13q-47 0 -47 -43v-31h204v37q0 173 188 173q71 0 153 -25l-25 -124q-35 13 -65 13q-47 0 -47 -43v-31h380v-533q0 -86 -48.5 -129t-130.5 -43q-58 0 -115 20l19 110q9 -3 17 -3q24 0 39 16t15 42v366h-176v-346h-204v346h-204v-346h-204 v346h-58v154h58v37q0 173 188 173q71 0 153 -25zM1073 621q0 -37 -30.5 -62.5t-74.5 -25.5t-74.5 25.5t-30.5 62.5t31 63t74 26t74 -26t31 -63z" />
<glyph horiz-adv-x="1181" d="M1144 153l28 -139q-52 -25 -130 -25q-171 0 -171 176v396h-69q-35 13 -65 13q-47 0 -47 -43v-31h113v-154h-113v-346h-204v346h-204v-346h-204v346h-58v154h58v37q0 173 188 173q71 0 153 -25l-25 -124q-35 13 -65 13q-47 0 -47 -43v-31h204v37q0 173 188 173 q46 0 93 -10h307v-517q0 -36 33 -36q21 0 37 6z" />
<glyph horiz-adv-x="1044" d="M360 700h301v-249q81 59 170 59q78 0 125.5 -41t47.5 -118v-351h-203v289q0 27 -14.5 42t-38.5 15q-49 0 -87 -29v-317h-203v561h-64q-35 13 -65 13q-47 0 -47 -43v-31h113v-154h-113v-346h-204v346h-58v154h58v37q0 173 188 173q44 0 94 -10z" />
<glyph horiz-adv-x="710" d="M419 685l-25 -124q-35 13 -65 13q-47 0 -47 -43v-31h380v-533q0 -86 -48.5 -129t-130.5 -43q-58 0 -115 20l19 110q9 -3 17 -3q24 0 39 16t15 42v366h-176v-346h-204v346h-58v154h58v37q0 173 188 173q71 0 153 -25zM665 621q0 -37 -30.5 -62.5t-74.5 -25.5t-74.5 25.5 t-30.5 62.5t31 63t74 26t74 -26t31 -63z" />
<glyph horiz-adv-x="1038" d="M360 700h301v-361l117 161h240l-157 -204l167 -296h-221l-87 149l-59 -67v-82h-203v561h-64q-35 13 -65 13q-47 0 -47 -43v-31h113v-154h-113v-346h-204v346h-58v154h58v37q0 173 188 173q44 0 94 -10z" />
<glyph horiz-adv-x="773" d="M736 153l28 -139q-52 -25 -130 -25q-171 0 -171 176v396h-69q-35 13 -65 13q-47 0 -47 -43v-31h113v-154h-113v-346h-204v346h-58v154h58v37q0 173 188 173q46 0 93 -10h307v-517q0 -36 33 -36q21 0 37 6z" />
<glyph horiz-adv-x="1174" d="M1134 250q0 -116 -59 -188t-152 -72q-87 0 -150 65v-250h-203v718q0 71 -76 71q-78 0 -78 -85q0 -15 3 -27q30 -11 62 -29l-66 -123q-83 46 -151 46q-33 0 -33 -19q0 -7 7.5 -11t33.5 -11l44 -11q92 -24 133 -62.5t41 -102.5q0 -81 -58 -125t-164 -44q-138 0 -248 72 l70 117q93 -55 183 -55q29 0 29 20q0 8 -6 12t-28 10l-60 16q-90 25 -128 60.5t-38 96.5q0 80 57 125t159 46q-10 24 -10 59q0 83 67 130.5t181 47.5q127 0 202 -48q75 -47 75 -130v-124q63 65 150 65q93 0 152 -72t59 -188zM934 250q0 37 -23.5 62.5t-58.5 25.5 q-52 0 -79 -45v-86q27 -45 79 -45q35 0 58.5 25.5t23.5 62.5z" />
<glyph horiz-adv-x="310" d="M60 0v580h190v-580h-190z" />
<glyph horiz-adv-x="359" d="M359 205h16v-203q0 -2 -16 -2h-1q-132 0 -223 49q-42 23 -58.5 52t-16.5 81v398h190v-361q37 -14 109 -14z" />
<glyph horiz-adv-x="716" d="M681 340q0 -161 -87 -255.5t-236 -94.5t-236 94.5t-87 255.5t87 255.5t236 94.5t236 -94.5t87 -255.5zM258 340q0 -72 27 -113.5t73 -41.5q47 0 74 41.5t27 113.5t-27 113.5t-74 41.5q-46 0 -73 -41.5t-27 -113.5z" />
<glyph horiz-adv-x="636" d="M606 250q2 -110 -82.5 -186t-205.5 -74q-121 -2 -205.5 74t-82.5 186q-2 110 82.5 186t205.5 74q121 2 205.5 -74t82.5 -186zM231 250q0 -40 24 -64t63 -24q40 0 63.5 24t23.5 64t-23.5 64t-63.5 24q-39 0 -63 -24t-24 -64z" />
<glyph horiz-adv-x="600" d="M591 340q0 -161 -78.5 -255.5t-212.5 -94.5t-212.5 94.5t-78.5 255.5t78.5 255.5t212.5 94.5t212.5 -94.5t78.5 -255.5zM218 340q0 -72 22 -113.5t60 -41.5t60 41.5t22 113.5t-22 113.5t-60 41.5t-60 -41.5t-22 -113.5z" />
<glyph horiz-adv-x="600" d="M588 250q2 -110 -82.5 -186t-205.5 -74q-121 -2 -205.5 74t-82.5 186q-2 110 82.5 186t205.5 74q121 2 205.5 -74t82.5 -186zM213 250q0 -40 24 -64t63 -24q40 0 63.5 24t23.5 64t-23.5 64t-63.5 24q-39 0 -63 -24t-24 -64z" />
<glyph horiz-adv-x="432" d="M383 681v-681h-218v489l-116 -26l-39 162l202 56h171z" />
<glyph horiz-adv-x="427" d="M383 500v-500h-218v308l-116 -25l-39 162l202 55h171z" />
<glyph horiz-adv-x="600" d="M451 681v-681h-218v489l-116 -26l-39 162l202 56h171z" />
<glyph horiz-adv-x="600" d="M456 500v-500h-218v308l-116 -25l-39 162l202 55h171z" />
<glyph horiz-adv-x="611" d="M360 177h231v-177h-571v163l300 217q40 30 40 66q0 25 -15.5 39t-42.5 14q-34 0 -74 -20.5t-72 -54.5l-136 117q45 67 127 109q79 40 171 40q118 0 192 -64.5t74 -165.5q0 -66 -39.5 -121t-146.5 -134z" />
<glyph horiz-adv-x="558" d="M362 159h164v-159h-496v129l247 148q34 19 34 48q0 31 -41 31q-58 0 -124 -63l-123 104q102 113 259 113q105 0 171.5 -48.5t66.5 -125.5q0 -46 -32 -84q-31 -37 -116 -87z" />
<glyph horiz-adv-x="600" d="M355 177h231v-177h-571v163l300 217q40 30 40 66q0 25 -15.5 39t-42.5 14q-34 0 -74 -20.5t-72 -54.5l-136 117q45 67 127 109q79 40 171 40q118 0 192 -64.5t74 -165.5q0 -66 -39.5 -121t-146.5 -134z" />
<glyph horiz-adv-x="600" d="M386 159h164v-159h-496v129l247 148q34 19 34 48q0 31 -41 31q-58 0 -124 -63l-123 104q102 113 259 113q105 0 171.5 -48.5t66.5 -125.5q0 -46 -32 -84q-31 -37 -116 -87z" />
<glyph horiz-adv-x="630" d="M595 214q0 -99 -77 -161.5t-201 -62.5q-152 0 -297 107l133 138q29 -26 70 -42.5t77 -16.5q35 0 55.5 16t20.5 43q0 51 -78 51q-34 0 -103 -13l-34 114l149 117h-241v176h509v-155l-144 -114q69 -13 115 -68q46 -53 46 -129z" />
<glyph horiz-adv-x="630" d="M610 22q0 -99 -83.5 -163t-213.5 -64q-152 0 -299 107l131 146q31 -30 73.5 -48.5t80.5 -18.5q37 0 58.5 18t21.5 49q0 58 -83 58q-35 0 -107 -15l-28 116l149 117h-241v176h509v-155l-144 -114q75 -14 125.5 -73.5t50.5 -135.5z" />
<glyph horiz-adv-x="600" d="M587 214q0 -99 -77 -161.5t-201 -62.5q-152 0 -297 107l133 138q29 -26 70 -42.5t77 -16.5q35 0 55.5 16t20.5 43q0 51 -78 51q-34 0 -103 -13l-34 114l149 117h-241v176h509v-155l-144 -114q69 -13 115 -68q46 -53 46 -129z" />
<glyph horiz-adv-x="600" d="M597 22q0 -99 -83.5 -163t-213.5 -64q-152 0 -299 107l131 146q31 -30 73.5 -48.5t80.5 -18.5q37 0 58.5 18t21.5 49q0 58 -83 58q-35 0 -107 -15l-28 116l149 117h-241v176h509v-155l-144 -114q75 -14 125.5 -73.5t50.5 -135.5z" />
<glyph horiz-adv-x="678" d="M577 278h82v-161h-82v-117h-218v117h-315l-29 168l312 395h250v-402zM245 278h115v153z" />
<glyph horiz-adv-x="651" d="M556 158h82v-171h-82v-182h-218v182h-295l-29 168l292 345h250v-342zM238 158h101v123z" />
<glyph horiz-adv-x="600" d="M519 278h70v-161h-70v-117h-210v117h-273l-27 168l281 395h229v-402zM206 278h104v153z" />
<glyph horiz-adv-x="600" d="M536 158h72v-171h-72v-182h-218v182h-295l-29 168l292 345h250v-342zM218 158h101v123z" />
<glyph horiz-adv-x="619" d="M600 230q0 -110 -75.5 -175t-203.5 -65q-178 0 -295 115l105 131q36 -28 83 -45.5t86 -17.5t60.5 17.5t21.5 47.5t-21.5 48t-57.5 18q-62 0 -103 -43l-132 68l19 351h483v-176h-300l-4 -70q50 11 93 11q113 0 177 -57t64 -158z" />
<glyph horiz-adv-x="620" d="M594 35q0 -110 -75.5 -175t-203.5 -65q-178 0 -295 115l105 131q36 -28 83 -45.5t86 -17.5t60.5 17.5t21.5 47.5t-21.5 48t-57.5 18q-62 0 -103 -43l-132 68l19 366h483v-176h-300l-4 -85q50 11 93 11q113 0 177 -57t64 -158z" />
<glyph horiz-adv-x="600" d="M588 230q0 -110 -75.5 -175t-203.5 -65q-178 0 -295 115l105 131q36 -28 83 -45.5t86 -17.5t60.5 17.5t21.5 47.5t-21.5 48t-57.5 18q-62 0 -103 -43l-132 68l19 351h483v-176h-300l-4 -70q50 11 93 11q113 0 177 -57t64 -158z" />
<glyph horiz-adv-x="600" d="M580 35q0 -110 -75.5 -175t-203.5 -65q-178 0 -295 115l105 131q36 -28 83 -45.5t86 -17.5t60.5 17.5t21.5 47.5t-21.5 48t-57.5 18q-62 0 -103 -43l-132 68l19 366h483v-176h-300l-4 -85q50 11 93 11q113 0 177 -57t64 -158z" />
<glyph horiz-adv-x="633" d="M614 238q0 -106 -80.5 -177t-203.5 -71q-137 0 -216 92.5t-79 253.5q0 168 82.5 261t231.5 93q133 0 240 -71l-90 -137q-56 35 -120 35q-53 0 -82.5 -28t-39.5 -89q61 37 140 37q97 0 157 -55t60 -144zM410 227q0 34 -20.5 55t-53.5 21q-50 0 -80 -47q7 -56 26.5 -80.5 t55.5 -24.5q34 0 53 20.5t19 55.5z" />
<glyph horiz-adv-x="634" d="M614 238q0 -106 -80.5 -177t-203.5 -71q-137 0 -216 92.5t-79 253.5q0 168 82.5 261t231.5 93q133 0 240 -71l-90 -137q-56 35 -120 35q-53 0 -82.5 -28t-39.5 -89q61 37 140 37q97 0 157 -55t60 -144zM410 227q0 34 -20.5 55t-53.5 21q-50 0 -80 -47q7 -56 26.5 -80.5 t55.5 -24.5q34 0 53 20.5t19 55.5z" />
<glyph horiz-adv-x="600" d="M590 238q0 -106 -80.5 -177t-203.5 -71q-137 0 -216 92.5t-79 253.5q0 168 82.5 261t231.5 93q133 0 240 -71l-90 -137q-56 35 -120 35q-53 0 -82.5 -28t-39.5 -89q61 37 140 37q97 0 157 -55t60 -144zM386 227q0 34 -20.5 55t-53.5 21q-50 0 -80 -47q7 -56 26.5 -80.5 t55.5 -24.5q34 0 53 20.5t19 55.5z" />
<glyph horiz-adv-x="600" d="M590 238q0 -106 -80.5 -177t-203.5 -71q-137 0 -216 92.5t-79 253.5q0 168 82.5 261t231.5 93q133 0 240 -71l-90 -137q-56 35 -120 35q-53 0 -82.5 -28t-39.5 -89q61 37 140 37q97 0 157 -55t60 -144zM386 227q0 34 -20.5 55t-53.5 21q-50 0 -80 -47q7 -56 26.5 -80.5 t55.5 -24.5q34 0 53 20.5t19 55.5z" />
<glyph horiz-adv-x="582" d="M20 680h548v-170l-286 -510h-246l284 493h-300v187z" />
<glyph horiz-adv-x="583" d="M20 500h548v-170l-286 -525h-246l285 508h-301v187z" />
<glyph horiz-adv-x="600" d="M26 680h548v-170l-286 -510h-246l284 493h-300v187z" />
<glyph horiz-adv-x="600" d="M24 500h548v-170l-286 -525h-246l285 508h-301v187z" />
<glyph horiz-adv-x="657" d="M623 190q0 -86 -82.5 -143t-211.5 -57t-211.5 57t-82.5 143q0 113 116 167q-94 50 -94 148q0 79 78 132t194 53t194 -53t78 -132q0 -98 -94 -148q116 -54 116 -167zM257 471q0 -30 19.5 -47.5t52.5 -17.5t52 17.5t19 47.5q0 29 -20 47.5t-51 18.5t-51.5 -18.5 t-20.5 -47.5zM407 214q0 31 -21.5 49.5t-56.5 18.5t-56.5 -18.5t-21.5 -49.5q0 -29 21.5 -48t56.5 -19t56.5 19t21.5 48z" />
<glyph horiz-adv-x="658" d="M623 190q0 -86 -82.5 -143t-211.5 -57t-211.5 57t-82.5 143q0 113 116 167q-94 50 -94 148q0 79 78 132t194 53t194 -53t78 -132q0 -98 -94 -148q116 -54 116 -167zM257 471q0 -30 19.5 -47.5t52.5 -17.5t52 17.5t19 47.5q0 29 -20 47.5t-51 18.5t-51.5 -18.5 t-20.5 -47.5zM407 214q0 31 -21.5 49.5t-56.5 18.5t-56.5 -18.5t-21.5 -49.5q0 -29 21.5 -48t56.5 -19t56.5 19t21.5 48z" />
<glyph horiz-adv-x="600" d="M594 190q0 -86 -82.5 -143t-211.5 -57t-211.5 57t-82.5 143q0 113 116 167q-94 50 -94 148q0 79 78 132t194 53t194 -53t78 -132q0 -98 -94 -148q116 -54 116 -167zM228 471q0 -30 19.5 -47.5t52.5 -17.5t52 17.5t19 47.5q0 29 -20 47.5t-51 18.5t-51.5 -18.5 t-20.5 -47.5zM378 214q0 31 -21.5 49.5t-56.5 18.5t-56.5 -18.5t-21.5 -49.5q0 -29 21.5 -48t56.5 -19t56.5 19t21.5 48z" />
<glyph horiz-adv-x="600" d="M594 190q0 -86 -82.5 -143t-211.5 -57t-211.5 57t-82.5 143q0 113 116 167q-94 50 -94 148q0 79 78 132t194 53t194 -53t78 -132q0 -98 -94 -148q116 -54 116 -167zM228 471q0 -30 19.5 -47.5t52.5 -17.5t52 17.5t19 47.5q0 29 -20 47.5t-51 18.5t-51.5 -18.5 t-20.5 -47.5zM378 214q0 31 -21.5 49.5t-56.5 18.5t-56.5 -18.5t-21.5 -49.5q0 -29 21.5 -48t56.5 -19t56.5 19t21.5 48z" />
<glyph horiz-adv-x="633" d="M599 344q0 -168 -82.5 -261t-231.5 -93q-133 0 -240 71l90 137q56 -35 120 -35q53 0 82.5 28t39.5 89q-61 -37 -140 -37q-97 0 -157 55t-60 144q0 106 80.5 177t203.5 71q137 0 216 -92.5t79 -253.5zM378 424q-7 56 -26.5 80.5t-55.5 24.5q-34 0 -53 -20.5t-19 -55.5 q0 -34 20.5 -55t53.5 -21q50 0 80 47z" />
<glyph horiz-adv-x="634" d="M599 154q0 -171 -82.5 -265t-231.5 -94q-130 0 -240 71l90 137q58 -35 120 -35q55 0 84.5 31.5t38.5 100.5q-64 -37 -141 -37q-97 0 -157 55.5t-60 145.5q0 106 80.5 176t203.5 70q139 0 217 -94.5t78 -261.5zM378 244q-7 55 -27 80t-56 25q-32 0 -51.5 -20t-19.5 -54 q0 -35 20.5 -56.5t53.5 -21.5q49 0 80 47z" />
<glyph horiz-adv-x="600" d="M589 344q0 -168 -82.5 -261t-231.5 -93q-133 0 -240 71l90 137q56 -35 120 -35q53 0 82.5 28t39.5 89q-61 -37 -140 -37q-97 0 -157 55t-60 144q0 106 80.5 177t203.5 71q137 0 216 -92.5t79 -253.5zM368 424q-7 56 -26.5 80.5t-55.5 24.5q-34 0 -53 -20.5t-19 -55.5 q0 -34 20.5 -55t53.5 -21q50 0 80 47z" />
<glyph horiz-adv-x="600" d="M588 154q0 -171 -82.5 -265t-231.5 -94q-130 0 -240 71l90 137q58 -35 120 -35q55 0 84.5 31.5t38.5 100.5q-64 -37 -141 -37q-97 0 -157 55.5t-60 145.5q0 106 80.5 176t203.5 70q139 0 217 -94.5t78 -261.5zM367 244q-7 55 -27 80t-56 25q-32 0 -51.5 -20t-19.5 -54 q0 -35 20.5 -56.5t53.5 -21.5q49 0 80 47z" />
<glyph horiz-adv-x="425" d="M411 204q0 -93 -54 -151.5t-144 -58.5q-91 0 -145 58.5t-54 151.5t54 151.5t145 58.5q90 0 144 -58.5t54 -151.5zM169 204q0 -79 44 -79q19 0 31 20t12 59t-12 59t-31 20q-44 0 -44 -79z" />
<glyph horiz-adv-x="296" d="M252 408v-408h-152v275l-62 -14l-28 113l128 34h114z" />
<glyph horiz-adv-x="391" d="M271 134l-9 -7h108v-127h-355v101l173 129q25 18 25 34q0 24 -26 24q-39 0 -84 -50l-90 82q74 94 188 94q73 0 122.5 -40.5t49.5 -100.5q0 -36 -22.5 -66t-79.5 -73z" />
<glyph horiz-adv-x="387" d="M369 141q0 -65 -51.5 -106t-134.5 -41q-100 0 -168 59l76 88q34 -26 76 -26q43 0 43 27q0 31 -46 31q-28 0 -52 -7l-19 67l69 54h-119v121h318v-102l-67 -56q75 -30 75 -109z" />
<glyph horiz-adv-x="420" d="M359 189h47v-120h-47v-69h-149v69h-184l-18 114l177 225h174v-219zM160 189h50v82z" />
<glyph horiz-adv-x="395" d="M379 142q0 -64 -52 -106t-125 -42q-121 0 -194 55l74 92q38 -25 83 -25q50 0 50 33q0 13 -9 21t-23 8q-27 0 -44 -23l-100 51l12 202h305v-114h-171l-1 -27q32 2 33 2q74 0 118 -34.5t44 -92.5z" />
</font>
</defs>
</svg>
