<?xml version="1.0" standalone="no"?>
<!DOCTYPE svg PUBLIC "-//W3C//DTD SVG 1.1//EN" "http://www.w3.org/Graphics/SVG/1.1/DTD/svg11.dtd" >
<svg xmlns="http://www.w3.org/2000/svg" xmlns:xlink="http://www.w3.org/1999/xlink" version="1.1">
<metadata></metadata>
<defs>
<font id="loew_next_arabicthin" horiz-adv-x="0" >
<font-face units-per-em="1000" ascent="750" descent="-250" />
<missing-glyph horiz-adv-x="250" />
<glyph unicode="fi" horiz-adv-x="650" d="M349 700l-4 -12q-24 10 -64 10q-66 0 -103.5 -39.5t-37.5 -111.5v-47h390v-500h-13v488h-377v-488h-13v488h-97v12h97v47q0 77 41.5 120t112.5 43q42 0 68 -10zM537 647q0 -14 -14 -14t-14 14t14 14t14 -14z" />
<glyph unicode="fl" horiz-adv-x="632" d="M347 700h175v-700h-13v688h-164q-24 10 -64 10q-66 0 -103.5 -39.5t-37.5 -111.5v-47h191v-12h-191v-488h-13v488h-97v12h97v47q0 77 41.5 120t112.5 43q42 0 66 -10z" />
<glyph unicode="&#x627;&#xfedf;&#xfee0;&#xfeea;" horiz-adv-x="1613" arabic-form="isolated" d="M866 938v-129h-10v129h10zM759 684v66h11v-65q0 -35 42 -35q20 0 32 9.5t12 25.5v77h10v-59q0 -33 44 -33q42 0 42 35v73h11v-75q0 -43 -53 -43q-35 0 -45 19q-5 -39 -53 -39q-21 0 -37 10.5t-16 33.5zM1500 730h13v-730h-13v730zM1187 69v571h13v-578q-76 -62 -174 -62 q-88 0 -165 56q-73 -56 -177 -56h-328q-118 0 -187 65t-69 183q0 125 71.5 193.5t181.5 68.5q112 0 195 -62v-435h136q101 0 171 56v481h13v-481q71 -56 158 -56q90 0 161 56zM535 13v427q-76 57 -182 57q-104 0 -172 -64t-68 -182q0 -115 68.5 -176.5t174.5 -61.5h179z" />
<glyph unicode="&#xfedf;&#xfe82;" horiz-adv-x="685" arabic-form="isolated" d="M522 730h13v-669q-99 -61 -229 -61h-246v13h218l-131 577h13l131 -577h15q121 0 216 56v661zM229 737l11 -3q-4 -22 -20 -34.5t-42 -11.5l-82 4q-20 1 -33.5 -10.5t-15.5 -27.5l-11 3q4 22 20 34.5t42 11.5l82 -4q20 -1 33.5 10.5t15.5 27.5z" />
<glyph unicode="&#xfee0;&#xfe82;" horiz-adv-x="756" arabic-form="final" d="M756 13h16v-11q0 -2 -16 -2h-1q-126 0 -226 57q-101 -57 -223 -57h-246v13h218l-131 577h13l131 -577h15q121 0 216 56v661h13v-661q95 -56 221 -56zM229 737l11 -3q-4 -22 -20 -34.5t-42 -11.5l-82 4q-20 1 -33.5 -10.5t-15.5 -27.5l-11 3q4 22 20 34.5t42 11.5l82 -4 q20 -1 33.5 10.5t15.5 27.5z" />
<glyph unicode="&#xfedf;&#xfe84;" horiz-adv-x="685" arabic-form="isolated" d="M522 730h13v-669q-99 -61 -229 -61h-246v13h218l-131 577h13l131 -577h15q121 0 216 56v661zM141 702h64v-12h-170v12h62q-41 25 -41 69q0 37 23.5 60.5t58.5 23.5q30 0 57 -16l-6 -10q-23 14 -51 14q-31 0 -50.5 -20t-19.5 -52q0 -29 21 -49t52 -20z" />
<glyph unicode="&#xfee0;&#xfe84;" horiz-adv-x="781" arabic-form="final" d="M230 702v-12h-170v12h62q-41 25 -41 69q0 37 23.5 60.5t58.5 23.5q30 0 57 -16l-6 -10q-23 14 -51 14q-31 0 -50.5 -20t-19.5 -52q0 -29 21 -49t52 -20h64zM781 13h16v-11q0 -2 -16 -2h-1q-126 0 -226 57q-101 -57 -223 -57h-246v13h218l-131 577h13l131 -577h15 q121 0 216 56v661h13v-661q95 -56 221 -56z" />
<glyph unicode="&#xfedf;&#xfe88;" horiz-adv-x="685" arabic-form="isolated" d="M522 730h13v-669q-99 -61 -229 -61h-246v13h218l-131 577h13l131 -577h15q121 0 216 56v661zM257 -253h64v-12h-170v12h62q-41 25 -41 69q0 37 23.5 60.5t58.5 23.5q30 0 57 -16l-6 -10q-23 14 -51 14q-31 0 -50.5 -20t-19.5 -52q0 -29 21 -49t52 -20z" />
<glyph unicode="&#xfee0;&#xfe88;" horiz-adv-x="756" arabic-form="final" d="M756 13h16v-11q0 -2 -16 -2h-1q-126 0 -226 57q-101 -57 -223 -57h-246v13h218l-131 577h13l131 -577h15q121 0 216 56v661h13v-661q95 -56 221 -56zM257 -253h64v-12h-170v12h62q-41 25 -41 69q0 37 23.5 60.5t58.5 23.5q30 0 57 -16l-6 -10q-23 14 -51 14 q-31 0 -50.5 -20t-19.5 -52q0 -29 21 -49t52 -20z" />
<glyph unicode="&#xfedf;&#xfe8e;" horiz-adv-x="685" arabic-form="isolated" d="M522 730h13v-669q-99 -61 -229 -61h-246v13h218l-131 577h13l131 -577h15q121 0 216 56v661z" />
<glyph unicode="&#xfee0;&#xfe8e;" horiz-adv-x="756" arabic-form="final" d="M756 13h16v-11q0 -2 -16 -2h-1q-126 0 -226 57q-101 -57 -223 -57h-246v13h218l-131 577h13l131 -577h15q121 0 216 56v661h13v-661q95 -56 221 -56z" />
<glyph unicode="&#xfedf;&#xfb51;" horiz-adv-x="685" d="M522 730h13v-669q-99 -61 -229 -61h-246v13h218l-131 577h13l131 -577h15q121 0 216 56v661zM264 747v-48h-253v11h52q49 109 128 109q33 0 53 -19.5t20 -52.5zM75 710h177v36q0 28 -16.5 45t-45.5 17q-68 0 -115 -98z" />
<glyph unicode="&#xfee0;&#xfb51;" horiz-adv-x="756" d="M756 13h16v-11q0 -2 -16 -2h-1q-126 0 -226 57q-101 -57 -223 -57h-246v13h218l-131 577h13l131 -577h15q121 0 216 56v661h13v-661q95 -56 221 -56zM264 747v-48h-253v11h52q49 109 128 109q33 0 53 -19.5t20 -52.5zM75 710h177v36q0 28 -16.5 45t-45.5 17 q-68 0 -115 -98z" />
<glyph unicode="&#x66e;" horiz-adv-x="354" d="M234 470v-409q-99 -61 -233 -61h-1q-16 0 -16 2v11h16q123 0 221 56v401h13z" />
<glyph unicode="&#x66e;" horiz-adv-x="455" d="M455 13h16v-11q0 -2 -16 -2h-1q-127 0 -227 57q-99 -57 -226 -57h-1q-16 0 -16 2v11h16q123 0 221 56v401h13v-401q98 -56 221 -56z" />
<glyph unicode="&#x66e;" horiz-adv-x="1246" d="M1246 13h16v-11q0 -2 -16 -2h-1q-127 0 -227 57q-109 -57 -265 -57h-404q-115 0 -185 46q-69 46 -69 167q0 60 18 147l13 -2q-18 -86 -18 -146q0 -199 238 -199h410q155 0 256 56v401h13v-401q98 -56 221 -56z" />
<glyph unicode="&#x66f;" horiz-adv-x="987" d="M1003 13v-11q0 -2 -16 -2h-221v-169q-135 -84 -320 -84q-172 0 -264 74t-92 208q0 81 19 138l12 -3q-18 -64 -18 -135q0 -128 87 -198.5t253 -70.5q171 0 310 77v163h-184q-116 0 -189.5 65t-73.5 171q0 105 75.5 167.5t186.5 62.5q115 0 198 -62v-391h237zM569 13h184 v384q-75 56 -185 56q-105 0 -177 -59t-72 -159q0 -103 71.5 -162.5t178.5 -59.5z" />
<glyph unicode="&#x6a1;" horiz-adv-x="698" d="M578 460v-419q-111 -41 -276 -41h-302q-16 0 -16 2v11h321q142 0 245 31q-207 2 -310 61t-103 185q0 101 67 164t173 63q108 0 201 -57zM565 55v398q-93 51 -188 51q-101 0 -164 -59.5t-63 -154.5q0 -121 103.5 -177.5t311.5 -57.5z" />
<glyph unicode="&#x6a1;" horiz-adv-x="758" d="M774 13v-11q0 -2 -16 -2h-758q-16 0 -16 2v11h361q-81 30 -144.5 104.5t-63.5 169.5q0 98 68.5 161.5t173.5 63.5q107 0 174.5 -64t67.5 -161q0 -95 -63 -169.5t-144 -104.5h360zM380 13q36 10 75 34t74.5 58t57.5 82t21 99q0 95 -64.5 154t-164.5 59q-99 0 -164 -59.5 t-65 -153.5q-1 -51 21 -99t58 -82t75.5 -58t75.5 -34z" />
<glyph unicode="&#x6a1;" horiz-adv-x="1357" d="M1373 13v-11q0 -2 -16 -2h-1008q-115 0 -185 46q-69 46 -69 167q0 60 18 147l13 -2q-18 -86 -18 -146q0 -199 238 -199h651q-148 21 -229 91t-81 179q0 103 70 168.5t179 65.5q108 0 200 -57v-447h237zM1123 14v439q-90 51 -187 51q-104 0 -170 -62t-66 -159 q0 -124 114 -196.5t309 -72.5z" />
<glyph unicode="&#x6c2;" horiz-adv-x="575" d="M575 13h16v-11q0 -2 -16 -2q-47 0 -75 12q-28 14 -51 46q-23 31 -66 110l-81 149h-22q-43 0 -78 -23q-36 -23 -64 -96l-76 -198l-12 6l76 197q28 72 64.5 99.5t88.5 27.5h32l84 -157q36 -69 60 -104q22 -31 48.5 -43.5t71.5 -12.5zM270 487h64v-12h-170v12h62 q-41 25 -41 69q0 37 23.5 60.5t58.5 23.5q30 0 57 -16l-6 -10q-23 14 -51 14q-31 0 -50.5 -20t-19.5 -52q0 -29 21 -49t52 -20z" />
<glyph unicode="&#x6c3;" horiz-adv-x="575" d="M575 13h16v-11q0 -2 -16 -2q-47 0 -75 12q-28 14 -51 46q-23 31 -66 110l-81 149h-22q-43 0 -78 -23q-36 -23 -64 -96l-76 -198l-12 6l76 197q28 72 64.5 99.5t88.5 27.5h32l84 -157q36 -69 60 -104q22 -31 48.5 -43.5t71.5 -12.5zM138 497q0 22 22 22q9 0 15 -6t6 -16 q0 -9 -6 -15.5t-15 -6.5q-10 0 -16 6.5t-6 15.5zM317 497q0 22 22 22q9 0 15 -6t6 -16q0 -9 -6 -15.5t-15 -6.5q-10 0 -16 6.5t-6 15.5z" />
<glyph unicode="&#x671;" horiz-adv-x="384" arabic-form="final" d="M384 13h16v-11q0 -2 -16 -2h-1q-120 0 -222 59q-11 6 -11 17v654h13v-657q104 -60 221 -60zM264 932v-48h-253v11h52q49 109 128 109q33 0 53 -20t20 -52zM75 895h177v36q0 28 -16.5 45t-45.5 17q-68 0 -115 -98z" />
<glyph unicode="&#x67e;" horiz-adv-x="1246" arabic-form="final" d="M1246 13h16v-11q0 -2 -16 -2h-1q-127 0 -227 57q-109 -57 -265 -57h-404q-115 0 -185 46q-69 46 -69 167q0 60 18 147l13 -2q-18 -86 -18 -146q0 -199 238 -199h410q155 0 256 56v401h13v-401q98 -56 221 -56zM468 -172q0 22 22 22q9 0 15 -6t6 -16q0 -9 -6 -15.5 t-15 -6.5q-10 0 -16 6.5t-6 15.5zM647 -173q0 22 22 22q9 0 15 -6t6 -16q0 -9 -6 -15.5t-15 -6.5q-10 0 -16 6.5t-6 15.5zM558 -288q0 22 22 22q9 0 15 -6t6 -16q0 -9 -6 -15.5t-15 -6.5q-10 0 -16 6.5t-6 15.5z" />
<glyph unicode="&#x67e;" horiz-adv-x="354" arabic-form="initial" d="M234 470v-409q-99 -61 -233 -61h-1q-16 0 -16 2v11h16q123 0 221 56v401h13zM57 -172q0 22 22 22q9 0 15 -6t6 -16q0 -9 -6 -15.5t-15 -6.5q-10 0 -16 6.5t-6 15.5zM236 -173q0 22 22 22q9 0 15 -6t6 -16q0 -9 -6 -15.5t-15 -6.5q-10 0 -16 6.5t-6 15.5zM147 -288 q0 22 22 22q9 0 15 -6t6 -16q0 -9 -6 -15.5t-15 -6.5q-10 0 -16 6.5t-6 15.5z" />
<glyph unicode="&#x67e;" horiz-adv-x="455" arabic-form="medial" d="M455 13h16v-11q0 -2 -16 -2h-1q-127 0 -227 57q-99 -57 -226 -57h-1q-16 0 -16 2v11h16q123 0 221 56v401h13v-401q98 -56 221 -56zM117 -172q0 22 22 22q9 0 15 -6t6 -16q0 -9 -6 -15.5t-15 -6.5q-10 0 -16 6.5t-6 15.5zM296 -173q0 22 22 22q9 0 15 -6t6 -16 q0 -9 -6 -15.5t-15 -6.5q-10 0 -16 6.5t-6 15.5zM207 -288q0 22 22 22q9 0 15 -6t6 -16q0 -9 -6 -15.5t-15 -6.5q-10 0 -16 6.5t-6 15.5z" />
<glyph unicode="&#x679;" horiz-adv-x="1246" arabic-form="final" d="M1246 13h16v-11q0 -2 -16 -2h-1q-127 0 -227 57q-109 -57 -265 -57h-404q-115 0 -185 46q-69 46 -69 167q0 60 18 147l13 -2q-18 -86 -18 -146q0 -199 238 -199h410q155 0 256 56v401h13v-401q98 -56 221 -56zM692 524v-54h-249v12h42v189h12v-142q59 71 124 71 q32 0 51.5 -21t19.5 -55zM497 482h183v41q0 28 -16.5 47t-43.5 19q-61 0 -123 -74v-33z" />
<glyph unicode="&#x679;" horiz-adv-x="354" arabic-form="initial" d="M234 470v-409q-99 -61 -233 -61h-1q-16 0 -16 2v11h16q123 0 221 56v401h13zM341 679v-54h-249v12h42v189h12v-142q59 71 124 71q32 0 51.5 -21t19.5 -55zM146 637h183v41q0 28 -16.5 47t-43.5 19q-61 0 -123 -74v-33z" />
<glyph unicode="&#x679;" horiz-adv-x="455" arabic-form="medial" d="M455 13h16v-11q0 -2 -16 -2h-1q-127 0 -227 57q-99 -57 -226 -57h-1q-16 0 -16 2v11h16q123 0 221 56v401h13v-401q98 -56 221 -56zM341 679v-54h-249v12h42v189h12v-142q59 71 124 71q32 0 51.5 -21t19.5 -55zM146 637h183v41q0 28 -16.5 47t-43.5 19q-61 0 -123 -74 v-33z" />
<glyph unicode="&#x6a4;" horiz-adv-x="1357" arabic-form="final" d="M1373 13v-11q0 -2 -16 -2h-1008q-115 0 -185 46q-69 46 -69 167q0 60 18 147l13 -2q-18 -86 -18 -146q0 -199 238 -199h651q-148 21 -229 91t-81 179q0 103 70 168.5t179 65.5q108 0 200 -57v-447h237zM1123 14v439q-90 51 -187 51q-104 0 -170 -62t-66 -159 q0 -124 114 -196.5t309 -72.5zM914 800q0 22 22 22q9 0 15 -6t6 -16q0 -9 -6 -15.5t-15 -6.5q-10 0 -16 6.5t-6 15.5zM825 684q0 22 22 22q9 0 15 -6t6 -16q0 -9 -6 -15.5t-15 -6.5q-10 0 -16 6.5t-6 15.5zM1004 684q0 22 22 22q9 0 15 -6t6 -16q0 -9 -6 -15.5t-15 -6.5 q-10 0 -16 6.5t-6 15.5z" />
<glyph unicode="&#x6a4;" horiz-adv-x="698" arabic-form="initial" d="M578 460v-419q-111 -41 -276 -41h-302q-16 0 -16 2v11h321q142 0 245 31q-207 2 -310 61t-103 185q0 101 67 164t173 63q108 0 201 -57zM565 55v398q-93 51 -188 51q-101 0 -164 -59.5t-63 -154.5q0 -121 103.5 -177.5t311.5 -57.5zM355 800q0 22 22 22q9 0 15 -6t6 -16 q0 -9 -6 -15.5t-15 -6.5q-10 0 -16 6.5t-6 15.5zM266 684q0 22 22 22q9 0 15 -6t6 -16q0 -9 -6 -15.5t-15 -6.5q-10 0 -16 6.5t-6 15.5zM445 684q0 22 22 22q9 0 15 -6t6 -16q0 -9 -6 -15.5t-15 -6.5q-10 0 -16 6.5t-6 15.5z" />
<glyph unicode="&#x6a4;" horiz-adv-x="758" arabic-form="medial" d="M774 13v-11q0 -2 -16 -2h-758q-16 0 -16 2v11h361q-81 30 -144.5 104.5t-63.5 169.5q0 98 68.5 161.5t173.5 63.5q107 0 174.5 -64t67.5 -161q0 -95 -63 -169.5t-144 -104.5h360zM380 13q36 10 75 34t74.5 58t57.5 82t21 99q0 95 -64.5 154t-164.5 59q-99 0 -164 -59.5 t-65 -153.5q-1 -51 21 -99t58 -82t75.5 -58t75.5 -34zM356 795q0 22 22 22q9 0 15 -6t6 -16q0 -9 -6 -15.5t-15 -6.5q-10 0 -16 6.5t-6 15.5zM267 679q0 22 22 22q9 0 15 -6t6 -16q0 -9 -6 -15.5t-15 -6.5q-10 0 -16 6.5t-6 15.5zM446 679q0 22 22 22q9 0 15 -6t6 -16 q0 -9 -6 -15.5t-15 -6.5q-10 0 -16 6.5t-6 15.5z" />
<glyph unicode="&#x686;" horiz-adv-x="660" arabic-form="final" d="M676 13v-11q0 -2 -16 -2h-426q-83 0 -132 -43t-49 -116q0 -74 49 -118t132 -44h166v-13h-166q-89 0 -141.5 47.5t-52.5 127.5q0 79 52.5 125.5t141.5 46.5h312q-46 36 -67 86q-21 48 -44 137q-21 80 -37 119q-41 102 -153 102q-68 0 -133 -50l-9 9q64 54 142 54 q66 0 106 -32q39 -31 58 -77q20 -47 39 -124q23 -90 47 -140t66 -78q9 -6 32 -6h83zM232 -95q9 0 15 -6t6 -16q0 -9 -6 -15.5t-15 -6.5q-10 0 -16 6.5t-6 15.5q0 22 22 22zM383 -96q9 0 15 -6t6 -16q0 -9 -6 -15.5t-15 -6.5q-10 0 -16 6.5t-6 15.5q0 22 22 22zM329 -219 q0 -9 -6 -15.5t-15 -6.5q-10 0 -16 6.5t-6 15.5q0 22 22 22q9 0 15 -6t6 -16z" />
<glyph unicode="&#x686;" horiz-adv-x="622" arabic-form="initial" d="M542 13l-4 -13h-538q-16 0 -16 2v11h534q-46 36 -67 86q-21 48 -44 137q-18 71 -38 119q-40 102 -152 102q-68 0 -133 -50l-9 9q64 54 142 54q66 0 106 -32q39 -31 58 -77q20 -47 39 -124q23 -94 49.5 -145t72.5 -79zM146 -172q0 22 22 22q9 0 15 -6t6 -16q0 -9 -6 -15.5 t-15 -6.5q-10 0 -16 6.5t-6 15.5zM325 -173q0 22 22 22q9 0 15 -6t6 -16q0 -9 -6 -15.5t-15 -6.5q-10 0 -16 6.5t-6 15.5zM236 -288q0 22 22 22q9 0 15 -6t6 -16q0 -9 -6 -15.5t-15 -6.5q-10 0 -16 6.5t-6 15.5z" />
<glyph unicode="&#x686;" horiz-adv-x="632" arabic-form="medial" d="M648 13v-11q0 -2 -16 -2h-632q-16 0 -16 2v11h534q-46 36 -67 86q-21 48 -44 137q-18 71 -38 119q-40 102 -152 102q-68 0 -133 -50l-9 9q64 54 142 54q66 0 106 -32q39 -31 58 -77q20 -47 39 -124q23 -90 47 -140t66 -78q9 -6 32 -6h83zM146 -172q0 22 22 22q9 0 15 -6 t6 -16q0 -9 -6 -15.5t-15 -6.5q-10 0 -16 6.5t-6 15.5zM325 -173q0 22 22 22q9 0 15 -6t6 -16q0 -9 -6 -15.5t-15 -6.5q-10 0 -16 6.5t-6 15.5zM236 -288q0 22 22 22q9 0 15 -6t6 -16q0 -9 -6 -15.5t-15 -6.5q-10 0 -16 6.5t-6 15.5z" />
<glyph unicode="&#x688;" horiz-adv-x="661" arabic-form="final" d="M677 13v-11q0 -2 -16 -2h-611v13h407v196q0 113 -47.5 155.5t-171.5 42.5h-72v13h72q132 0 182 -46.5t50 -164.5v-196h207zM351 629v-54h-249v12h42v189h12v-142q59 71 124 71q32 0 51.5 -21t19.5 -55zM156 587h183v41q0 28 -16.5 47t-43.5 19q-61 0 -123 -74v-33z" />
<glyph unicode="&#x698;" horiz-adv-x="420" arabic-form="final" d="M420 13h16v-11q0 -2 -16 -2h-1q-123 0 -220 53v-39q0 -135 -57 -201t-176 -66q-26 0 -56 3l2 13q30 -3 54 -3q113 0 166.5 62.5t53.5 191.5v456h13v-401q98 -56 221 -56zM170 753q0 22 22 22q9 0 15 -6t6 -16q0 -9 -6 -15.5t-15 -6.5q-10 0 -16 6.5t-6 15.5zM81 637 q0 22 22 22q9 0 15 -6t6 -16q0 -9 -6 -15.5t-15 -6.5q-10 0 -16 6.5t-6 15.5zM260 637q0 22 22 22q9 0 15 -6t6 -16q0 -9 -6 -15.5t-15 -6.5q-10 0 -16 6.5t-6 15.5z" />
<glyph unicode="&#x691;" horiz-adv-x="420" arabic-form="final" d="M420 13h16v-11q0 -2 -16 -2h-1q-123 0 -220 53v-39q0 -135 -57 -201t-176 -66q-26 0 -56 3l2 13q30 -3 54 -3q113 0 166.5 62.5t53.5 191.5v456h13v-401q98 -56 221 -56zM305 679v-54h-249v12h42v189h12v-142q59 71 124 71q32 0 51.5 -21t19.5 -55zM110 637h183v41 q0 28 -16.5 47t-43.5 19q-61 0 -123 -74v-33z" />
<glyph unicode="&#x6a9;" horiz-adv-x="1155" arabic-form="final" d="M1155 13h16v-11q0 -2 -16 -2q-107 0 -186 39q-105 -39 -256 -39h-364q-115 0 -185 46q-69 46 -69 167q0 60 18 147l13 -2q-18 -86 -18 -146q0 -199 238 -199h370q149 0 246 38v68q0 107 -62 170.5t-190 94.5l-89 22l-5 13l344 290l8 -10l-334 -283l79 -19 q134 -33 198 -99.5t64 -178.5v-68q75 -38 180 -38z" />
<glyph unicode="&#x6a9;" horiz-adv-x="555" arabic-form="initial" d="M455 123v-77q-113 -46 -262 -46h-193q-16 0 -16 2v11h211q139 0 247 42v68q0 106 -61.5 168t-190.5 93l-89 22l-5 13l344 290l8 -10l-334 -283l79 -19q135 -34 198.5 -98.5t63.5 -175.5z" />
<glyph unicode="&#x6a9;" horiz-adv-x="655" arabic-form="medial" d="M655 13h16v-11q0 -2 -16 -2q-107 0 -186 39q-105 -39 -256 -39h-213q-16 0 -16 2v11h231q150 0 247 38v68q0 107 -62 170.5t-190 94.5l-89 22l-5 13l344 290l8 -10l-334 -283l79 -19q134 -33 198 -99.5t64 -178.5v-68q75 -38 180 -38z" />
<glyph unicode="&#x6af;" horiz-adv-x="1155" arabic-form="final" d="M872 718l-280 -236l-5 13l276 233zM1155 13h16v-11q0 -2 -16 -2q-107 0 -186 39q-105 -39 -256 -39h-364q-115 0 -185 46q-69 46 -69 167q0 60 18 147l13 -2q-18 -86 -18 -146q0 -199 238 -199h370q149 0 246 38v68q0 107 -62 170.5t-190 94.5l-89 22l-5 13l344 290 l8 -10l-334 -283l79 -19q134 -33 198 -99.5t64 -178.5v-68q75 -38 180 -38z" />
<glyph unicode="&#x6af;" horiz-adv-x="555" arabic-form="initial" d="M352 718l-280 -236l-5 13l276 233zM455 123v-77q-113 -46 -262 -46h-193q-16 0 -16 2v11h211q139 0 247 42v68q0 106 -61.5 168t-190.5 93l-89 22l-5 13l344 290l8 -10l-334 -283l79 -19q135 -34 198.5 -98.5t63.5 -175.5z" />
<glyph unicode="&#x6af;" horiz-adv-x="655" arabic-form="medial" d="M372 718l-280 -236l-5 13l276 233zM655 13h16v-11q0 -2 -16 -2q-107 0 -186 39q-105 -39 -256 -39h-213q-16 0 -16 2v11h231q150 0 247 38v68q0 107 -62 170.5t-190 94.5l-89 22l-5 13l344 290l8 -10l-334 -283l79 -19q134 -33 198 -99.5t64 -178.5v-68q75 -38 180 -38z " />
<glyph unicode="&#x6ba;" horiz-adv-x="947" arabic-form="final" d="M947 13h16v-11q0 -2 -16 -2h-1q-130 0 -220 55v-224q-130 -84 -301 -84q-161 0 -248 74.5t-87 207.5q0 81 18 138l12 -3q-17 -60 -17 -135q0 -127 83 -198t237 -71q155 0 290 77v503h13v-260q0 -11 10 -17q88 -50 211 -50z" />
<glyph unicode="&#x6c1;" horiz-adv-x="575" arabic-form="final" d="M575 13h16v-11q0 -2 -16 -2q-47 0 -75 12q-28 14 -51 46q-23 31 -66 110l-81 149h-22q-43 0 -78 -23q-36 -23 -64 -96l-76 -198l-12 6l76 197q28 72 64.5 99.5t88.5 27.5h32l84 -157q36 -69 60 -104q22 -31 48.5 -43.5t71.5 -12.5z" />
<glyph unicode="&#x6c1;" horiz-adv-x="354" arabic-form="initial" d="M221 470h13v-409q-99 -61 -233 -61h-1q-16 0 -16 2v11h16q123 0 221 56v401zM197 -192h6l-2 -13h-4q-41 0 -63 20.5t-22 54.5q0 61 58 89l4 -6q-49 -31 -49 -83q0 -28 18.5 -45t53.5 -17z" />
<glyph unicode="&#x6c1;" horiz-adv-x="677" arabic-form="medial" d="M693 13v-11q0 -2 -16 -2h-48q-49 -1 -78.5 -11.5t-44.5 -34t-20 -51.5t-6 -75v-110h-45q-109 0 -171.5 62t-62.5 169v107q-89 -56 -200 -56h-1q-16 0 -16 2v11h16q112 0 201 60v201h13v-325q0 -89 52 -153q53 -65 169 -65h32v97q0 95 32.5 140t129.5 45h64z" />
<glyph unicode="&#x6be;" horiz-adv-x="1026" arabic-form="final" d="M1042 13v-11q0 -2 -16 -2h-941q-16 0 -16 2v11h299q-69 23 -108 79.5t-39 133.5q0 89 60.5 149t146.5 60t146.5 -60t60.5 -149q0 -78 -38.5 -133t-108.5 -80h334v222q0 136 -54 214q-54 80 -133 108q-79 30 -165 30q-53 0 -111 -8v14q57 7 111 7q74 0 137 -19.5 t115.5 -60t82.5 -113.5t30 -172v-222h207zM420 13h16q88 13 137 70.5t49 142.5q0 83 -56.5 139.5t-137.5 56.5t-137.5 -56.5t-56.5 -139.5q0 -85 49.5 -142.5t136.5 -70.5z" />
<glyph unicode="&#x6be;" horiz-adv-x="830" arabic-form="initial" d="M750 235v-235h-750q-16 0 -16 2v11h299q-69 23 -108 79.5t-39 133.5q0 89 60.5 149t146.5 60t146.5 -60t60.5 -149q0 -78 -38.5 -133t-108.5 -80h334v222q0 136 -54 214q-54 80 -133 108q-80 30 -165 30q-53 0 -111 -8v14q57 7 111 7q74 0 137 -19.5t115.5 -60 t82.5 -113.5t30 -172zM335 13h16q88 13 137 70.5t49 142.5q0 83 -56.5 139.5t-137.5 56.5t-137.5 -56.5t-56.5 -139.5q0 -85 49.5 -142.5t136.5 -70.5z" />
<glyph unicode="&#x6be;" horiz-adv-x="941" arabic-form="medial" d="M957 13v-11q0 -2 -16 -2h-941q-16 0 -16 2v11h299q-69 23 -108 79.5t-39 133.5q0 89 60.5 149t146.5 60t146.5 -60t60.5 -149q0 -78 -38.5 -133t-108.5 -80h334v222q0 136 -54 214q-54 80 -133 108q-80 30 -165 30q-53 0 -111 -8v14q57 7 111 7q74 0 137 -19.5t115.5 -60 t82.5 -113.5t30 -172v-222h207zM335 13h16q88 13 137 70.5t49 142.5q0 83 -56.5 139.5t-137.5 56.5t-137.5 -56.5t-56.5 -139.5q0 -85 49.5 -142.5t136.5 -70.5z" />
<glyph unicode="&#x6d2;" horiz-adv-x="725" arabic-form="final" d="M741 13v-11q0 -2 -16 -2h-510q-102 0 -102 -76t102 -76h236v-13h-236q-115 0 -115 89t115 89h526z" />
<glyph unicode="&#x6d3;" horiz-adv-x="725" arabic-form="final" d="M741 13v-11q0 -2 -16 -2h-510q-102 0 -102 -76t102 -76h236v-13h-236q-115 0 -115 89t115 89h526zM294 182h64v-12h-170v12h62q-41 25 -41 69q0 37 23.5 60.5t58.5 23.5q30 0 57 -16l-6 -10q-23 14 -51 14q-31 0 -50.5 -20t-19.5 -52q0 -29 21 -49t52 -20z" />
<glyph unicode="&#x649;" horiz-adv-x="354" arabic-form="initial" d="M234 470v-409q-99 -61 -233 -61h-1q-16 0 -16 2v11h16q123 0 221 56v401h13z" />
<glyph unicode="&#x649;" horiz-adv-x="455" arabic-form="medial" d="M455 13h16v-11q0 -2 -16 -2h-1q-127 0 -227 57q-99 -57 -226 -57h-1q-16 0 -16 2v11h16q123 0 221 56v401h13v-401q98 -56 221 -56z" />
<glyph unicode="&#x6cc;" horiz-adv-x="1235" arabic-form="final" d="M1235 13h16v-11q0 -2 -16 -2q-80 2 -121.5 18.5t-62.5 49.5t-44 107l-58 202h-145q-63 0 -100 -29.5t-37 -80.5q0 -20 7 -44l110 -383q-55 -35 -157 -65q-96 -28 -197 -28q-160 0 -250 76t-90 206q0 81 19 138l12 -3q-18 -64 -18 -135q0 -125 85.5 -197t238.5 -72 q99 0 193 27q94 25 149 59l-108 375q-7 21 -7 46q0 56 40.5 89.5t108.5 33.5h157l60 -210q17 -56 29.5 -83t36.5 -48t57 -27.5t92 -8.5z" />
<glyph unicode="&#x6cc;" horiz-adv-x="354" arabic-form="initial" d="M234 470v-409q-99 -61 -233 -61h-1q-16 0 -16 2v11h16q123 0 221 56v401h13zM57 -172q0 22 22 22q9 0 15 -6t6 -16q0 -9 -6 -15.5t-15 -6.5q-10 0 -16 6.5t-6 15.5zM236 -172q0 22 22 22q9 0 15 -6t6 -16q0 -9 -6 -15.5t-15 -6.5q-10 0 -16 6.5t-6 15.5z" />
<glyph unicode="&#x6cc;" horiz-adv-x="455" arabic-form="medial" d="M455 13h16v-11q0 -2 -16 -2h-1q-127 0 -227 57q-99 -57 -226 -57h-1q-16 0 -16 2v11h16q123 0 221 56v401h13v-401q98 -56 221 -56zM117 -172q0 22 22 22q9 0 15 -6t6 -16q0 -9 -6 -15.5t-15 -6.5q-10 0 -16 6.5t-6 15.5zM296 -172q0 22 22 22q9 0 15 -6t6 -16 q0 -9 -6 -15.5t-15 -6.5q-10 0 -16 6.5t-6 15.5z" />
<glyph unicode="&#x622;" horiz-adv-x="384" arabic-form="final" d="M384 13h16v-11q0 -2 -16 -2h-1q-120 0 -222 59q-11 6 -11 17v654h13v-657q104 -60 221 -60zM246 922l11 -3q-4 -22 -20 -34.5t-42 -11.5l-82 4q-20 1 -33.5 -10.5t-15.5 -27.5l-11 3q4 22 20 34.5t42 11.5l82 -4q20 -1 33.5 10.5t15.5 27.5z" />
<glyph unicode="&#x623;" horiz-adv-x="384" arabic-form="final" d="M384 13h16v-11q0 -2 -16 -2h-1q-120 0 -222 59q-11 6 -11 17v654h13v-657q104 -60 221 -60zM178 887h64v-12h-170v12h62q-41 25 -41 69q0 37 23.5 60.5t58.5 23.5q30 0 57 -16l-6 -10q-23 14 -51 14q-31 0 -50.5 -20t-19.5 -52q0 -29 21 -49t52 -20z" />
<glyph unicode="&#x624;" horiz-adv-x="751" arabic-form="final" d="M767 13v-11q0 -2 -16 -2h-211q-3 -124 -72 -188.5t-191 -64.5q-95 0 -165 34l2 13q26 -14 72 -24t91 -10q116 0 181.5 61t68.5 179h-184q-116 0 -189.5 63t-73.5 169q0 107 75.5 170.5t186.5 63.5q115 0 198 -62v-391h227zM343 13h184v384q-75 56 -185 56 q-105 0 -177 -60t-72 -162t71 -160t179 -58zM363 623h64v-12h-170v12h62q-41 25 -41 69q0 37 23.5 60.5t58.5 23.5q30 0 57 -16l-6 -10q-23 14 -51 14q-31 0 -50.5 -20t-19.5 -52q0 -29 21 -49t52 -20z" />
<glyph unicode="&#x625;" horiz-adv-x="384" arabic-form="final" d="M384 13h16v-11q0 -2 -16 -2h-1q-120 0 -222 59q-11 6 -11 17v654h13v-657q104 -60 221 -60zM238 -302h64v-12h-170v12h62q-41 25 -41 69q0 37 23.5 60.5t58.5 23.5q30 0 57 -16l-6 -10q-23 14 -51 14q-31 0 -50.5 -20t-19.5 -52q0 -29 21 -49t52 -20z" />
<glyph unicode="&#x626;" horiz-adv-x="1235" arabic-form="final" d="M1235 13h16v-11q0 -2 -16 -2q-80 2 -121.5 18.5t-62.5 49.5t-44 107l-58 202h-145q-63 0 -100 -29.5t-37 -80.5q0 -20 7 -44l110 -383q-55 -35 -157 -65q-96 -28 -197 -28q-160 0 -250 76t-90 206q0 81 19 138l12 -3q-18 -64 -18 -135q0 -125 85.5 -197t238.5 -72 q99 0 193 27q94 25 149 59l-108 375q-7 21 -7 46q0 56 40.5 89.5t108.5 33.5h157l60 -210q17 -56 29.5 -83t36.5 -48t57 -27.5t92 -8.5zM213 339h64v-12h-170v12h62q-41 25 -41 69q0 37 23.5 60.5t58.5 23.5q30 0 57 -16l-6 -10q-23 14 -51 14q-31 0 -50.5 -20t-19.5 -52 q0 -29 21 -49t52 -20z" />
<glyph unicode="&#x626;" horiz-adv-x="354" arabic-form="initial" d="M234 470v-409q-99 -61 -233 -61h-1q-16 0 -16 2v11h16q123 0 221 56v401h13zM249 627h64v-12h-170v12h62q-41 25 -41 69q0 37 23.5 60.5t58.5 23.5q30 0 57 -16l-6 -10q-23 14 -51 14q-31 0 -50.5 -20t-19.5 -52q0 -29 21 -49t52 -20z" />
<glyph unicode="&#x626;" horiz-adv-x="455" arabic-form="medial" d="M455 13h16v-11q0 -2 -16 -2h-1q-127 0 -227 57q-99 -57 -226 -57h-1q-16 0 -16 2v11h16q123 0 221 56v401h13v-401q98 -56 221 -56zM249 627h64v-12h-170v12h62q-41 25 -41 69q0 37 23.5 60.5t58.5 23.5q30 0 57 -16l-6 -10q-23 14 -51 14q-31 0 -50.5 -20t-19.5 -52 q0 -29 21 -49t52 -20z" />
<glyph unicode="&#x627;" horiz-adv-x="384" arabic-form="final" d="M384 13h16v-11q0 -2 -16 -2h-1q-120 0 -222 59q-11 6 -11 17v654h13v-657q104 -60 221 -60z" />
<glyph unicode="&#x628;" horiz-adv-x="1246" arabic-form="final" d="M1246 13h16v-11q0 -2 -16 -2h-1q-127 0 -227 57q-109 -57 -265 -57h-404q-115 0 -185 46q-69 46 -69 167q0 60 18 147l13 -2q-18 -86 -18 -146q0 -199 238 -199h410q155 0 256 56v401h13v-401q98 -56 221 -56zM557 -172q0 22 22 22q9 0 15 -6t6 -16q0 -9 -6 -15.5 t-15 -6.5q-10 0 -16 6.5t-6 15.5z" />
<glyph unicode="&#x628;" horiz-adv-x="354" arabic-form="initial" d="M234 470v-409q-99 -61 -233 -61h-1q-16 0 -16 2v11h16q123 0 221 56v401h13zM146 -172q0 22 22 22q9 0 15 -6t6 -16q0 -9 -6 -15.5t-15 -6.5q-10 0 -16 6.5t-6 15.5z" />
<glyph unicode="&#x628;" horiz-adv-x="455" arabic-form="medial" d="M455 13h16v-11q0 -2 -16 -2h-1q-127 0 -227 57q-99 -57 -226 -57h-1q-16 0 -16 2v11h16q123 0 221 56v401h13v-401q98 -56 221 -56zM206 -172q0 22 22 22q9 0 15 -6t6 -16q0 -9 -6 -15.5t-15 -6.5q-10 0 -16 6.5t-6 15.5z" />
<glyph unicode="&#x629;" horiz-adv-x="751" arabic-form="final" d="M767 13v-11q0 -2 -16 -2h-408q-117 0 -190 66.5t-73 179.5q0 127 74 195.5t188 68.5q115 0 198 -62v-435h227zM343 13h184v427q-76 57 -185 57t-179 -64.5t-70 -187.5q0 -109 71 -170.5t179 -61.5zM231 677q0 22 22 22q9 0 15 -6t6 -16q0 -9 -6 -15.5t-15 -6.5 q-10 0 -16 6.5t-6 15.5zM410 677q0 22 22 22q9 0 15 -6t6 -16q0 -9 -6 -15.5t-15 -6.5q-10 0 -16 6.5t-6 15.5z" />
<glyph unicode="&#x62a;" horiz-adv-x="1246" arabic-form="final" d="M1246 13h16v-11q0 -2 -16 -2h-1q-127 0 -227 57q-109 -57 -265 -57h-404q-115 0 -185 46q-69 46 -69 167q0 60 18 147l13 -2q-18 -86 -18 -146q0 -199 238 -199h410q155 0 256 56v401h13v-401q98 -56 221 -56zM468 482q0 22 22 22q9 0 15 -6t6 -16q0 -9 -6 -15.5 t-15 -6.5q-10 0 -16 6.5t-6 15.5zM647 482q0 22 22 22q9 0 15 -6t6 -16q0 -9 -6 -15.5t-15 -6.5q-10 0 -16 6.5t-6 15.5z" />
<glyph unicode="&#x62a;" horiz-adv-x="354" arabic-form="initial" d="M234 470v-409q-99 -61 -233 -61h-1q-16 0 -16 2v11h16q123 0 221 56v401h13zM117 637q0 22 22 22q9 0 15 -6t6 -16q0 -9 -6 -15.5t-15 -6.5q-10 0 -16 6.5t-6 15.5zM296 637q0 22 22 22q9 0 15 -6t6 -16q0 -9 -6 -15.5t-15 -6.5q-10 0 -16 6.5t-6 15.5z" />
<glyph unicode="&#x62a;" horiz-adv-x="455" arabic-form="medial" d="M455 13h16v-11q0 -2 -16 -2h-1q-127 0 -227 57q-99 -57 -226 -57h-1q-16 0 -16 2v11h16q123 0 221 56v401h13v-401q98 -56 221 -56zM117 637q0 22 22 22q9 0 15 -6t6 -16q0 -9 -6 -15.5t-15 -6.5q-10 0 -16 6.5t-6 15.5zM296 637q0 22 22 22q9 0 15 -6t6 -16 q0 -9 -6 -15.5t-15 -6.5q-10 0 -16 6.5t-6 15.5z" />
<glyph unicode="&#x62b;" horiz-adv-x="1246" arabic-form="final" d="M1246 13h16v-11q0 -2 -16 -2h-1q-127 0 -227 57q-109 -57 -265 -57h-404q-115 0 -185 46q-69 46 -69 167q0 60 18 147l13 -2q-18 -86 -18 -146q0 -199 238 -199h410q155 0 256 56v401h13v-401q98 -56 221 -56zM557 598q0 22 22 22q9 0 15 -6t6 -16q0 -9 -6 -15.5 t-15 -6.5q-10 0 -16 6.5t-6 15.5zM468 482q0 22 22 22q9 0 15 -6t6 -16q0 -9 -6 -15.5t-15 -6.5q-10 0 -16 6.5t-6 15.5zM647 482q0 22 22 22q9 0 15 -6t6 -16q0 -9 -6 -15.5t-15 -6.5q-10 0 -16 6.5t-6 15.5z" />
<glyph unicode="&#x62b;" horiz-adv-x="354" arabic-form="initial" d="M234 470v-409q-99 -61 -233 -61h-1q-16 0 -16 2v11h16q123 0 221 56v401h13zM206 753q0 22 22 22q9 0 15 -6t6 -16q0 -9 -6 -15.5t-15 -6.5q-10 0 -16 6.5t-6 15.5zM117 637q0 22 22 22q9 0 15 -6t6 -16q0 -9 -6 -15.5t-15 -6.5q-10 0 -16 6.5t-6 15.5zM296 637 q0 22 22 22q9 0 15 -6t6 -16q0 -9 -6 -15.5t-15 -6.5q-10 0 -16 6.5t-6 15.5z" />
<glyph unicode="&#x62b;" horiz-adv-x="455" arabic-form="medial" d="M455 13h16v-11q0 -2 -16 -2h-1q-127 0 -227 57q-99 -57 -226 -57h-1q-16 0 -16 2v11h16q123 0 221 56v401h13v-401q98 -56 221 -56zM206 753q0 22 22 22q9 0 15 -6t6 -16q0 -9 -6 -15.5t-15 -6.5q-10 0 -16 6.5t-6 15.5zM117 637q0 22 22 22q9 0 15 -6t6 -16 q0 -9 -6 -15.5t-15 -6.5q-10 0 -16 6.5t-6 15.5zM296 637q0 22 22 22q9 0 15 -6t6 -16q0 -9 -6 -15.5t-15 -6.5q-10 0 -16 6.5t-6 15.5z" />
<glyph unicode="&#x62c;" horiz-adv-x="660" arabic-form="final" d="M676 13v-11q0 -2 -16 -2h-426q-83 0 -132 -43t-49 -116q0 -74 49 -118t132 -44h166v-13h-166q-89 0 -141.5 47.5t-52.5 127.5q0 79 52.5 125.5t141.5 46.5h312q-46 36 -67 86q-21 48 -44 137q-21 80 -37 119q-41 102 -153 102q-68 0 -133 -50l-9 9q64 54 142 54 q66 0 106 -32q39 -31 58 -77q20 -47 39 -124q23 -90 47 -140t66 -78q9 -6 32 -6h83zM265 -165q0 22 22 22q9 0 15 -6t6 -16q0 -9 -6 -15.5t-15 -6.5q-10 0 -16 6.5t-6 15.5z" />
<glyph unicode="&#x62c;" horiz-adv-x="622" arabic-form="initial" d="M542 13l-4 -13h-538q-16 0 -16 2v11h534q-46 36 -67 86q-21 48 -44 137q-18 71 -38 119q-40 102 -152 102q-68 0 -133 -50l-9 9q64 54 142 54q66 0 106 -32q39 -31 58 -77q20 -47 39 -124q23 -94 49.5 -145t72.5 -79zM235 -172q0 22 22 22q9 0 15 -6t6 -16q0 -9 -6 -15.5 t-15 -6.5q-10 0 -16 6.5t-6 15.5z" />
<glyph unicode="&#x62c;" horiz-adv-x="632" arabic-form="medial" d="M648 13v-11q0 -2 -16 -2h-632q-16 0 -16 2v11h534q-46 36 -67 86q-21 48 -44 137q-18 71 -38 119q-40 102 -152 102q-68 0 -133 -50l-9 9q64 54 142 54q66 0 106 -32q39 -31 58 -77q20 -47 39 -124q23 -90 47 -140t66 -78q9 -6 32 -6h83zM235 -172q0 22 22 22q9 0 15 -6 t6 -16q0 -9 -6 -15.5t-15 -6.5q-10 0 -16 6.5t-6 15.5z" />
<glyph unicode="&#x62d;" horiz-adv-x="660" arabic-form="final" d="M676 13v-11q0 -2 -16 -2h-426q-83 0 -132 -43t-49 -116q0 -74 49 -118t132 -44h166v-13h-166q-89 0 -141.5 47.5t-52.5 127.5q0 79 52.5 125.5t141.5 46.5h312q-46 36 -67 86q-21 48 -44 137q-21 80 -37 119q-41 102 -153 102q-68 0 -133 -50l-9 9q64 54 142 54 q66 0 106 -32q39 -31 58 -77q20 -47 39 -124q23 -90 47 -140t66 -78q9 -6 32 -6h83z" />
<glyph unicode="&#x62d;" horiz-adv-x="622" arabic-form="initial" d="M542 13l-4 -13h-538q-16 0 -16 2v11h534q-46 36 -67 86q-21 48 -44 137q-18 71 -38 119q-40 102 -152 102q-68 0 -133 -50l-9 9q64 54 142 54q66 0 106 -32q39 -31 58 -77q20 -47 39 -124q23 -94 49.5 -145t72.5 -79z" />
<glyph unicode="&#x62d;" horiz-adv-x="632" arabic-form="medial" d="M648 13v-11q0 -2 -16 -2h-632q-16 0 -16 2v11h534q-46 36 -67 86q-21 48 -44 137q-18 71 -38 119q-40 102 -152 102q-68 0 -133 -50l-9 9q64 54 142 54q66 0 106 -32q39 -31 58 -77q20 -47 39 -124q23 -90 47 -140t66 -78q9 -6 32 -6h83z" />
<glyph unicode="&#x62e;" horiz-adv-x="660" arabic-form="final" d="M676 13v-11q0 -2 -16 -2h-426q-83 0 -132 -43t-49 -116q0 -74 49 -118t132 -44h166v-13h-166q-89 0 -141.5 47.5t-52.5 127.5q0 79 52.5 125.5t141.5 46.5h312q-46 36 -67 86q-21 48 -44 137q-21 80 -37 119q-41 102 -153 102q-68 0 -133 -50l-9 9q64 54 142 54 q66 0 106 -32q39 -31 58 -77q20 -47 39 -124q23 -90 47 -140t66 -78q9 -6 32 -6h83zM235 637q0 22 22 22q9 0 15 -6t6 -16q0 -9 -6 -15.5t-15 -6.5q-10 0 -16 6.5t-6 15.5z" />
<glyph unicode="&#x62e;" horiz-adv-x="622" arabic-form="initial" d="M542 13l-4 -13h-538q-16 0 -16 2v11h534q-46 36 -67 86q-21 48 -44 137q-18 71 -38 119q-40 102 -152 102q-68 0 -133 -50l-9 9q64 54 142 54q66 0 106 -32q39 -31 58 -77q20 -47 39 -124q23 -94 49.5 -145t72.5 -79zM205 637q0 22 22 22q9 0 15 -6t6 -16q0 -9 -6 -15.5 t-15 -6.5q-10 0 -16 6.5t-6 15.5z" />
<glyph unicode="&#x62e;" horiz-adv-x="632" arabic-form="medial" d="M648 13v-11q0 -2 -16 -2h-632q-16 0 -16 2v11h534q-46 36 -67 86q-21 48 -44 137q-18 71 -38 119q-40 102 -152 102q-68 0 -133 -50l-9 9q64 54 142 54q66 0 106 -32q39 -31 58 -77q20 -47 39 -124q23 -90 47 -140t66 -78q9 -6 32 -6h83zM205 637q0 22 22 22q9 0 15 -6 t6 -16q0 -9 -6 -15.5t-15 -6.5q-10 0 -16 6.5t-6 15.5z" />
<glyph unicode="&#x62f;" horiz-adv-x="661" arabic-form="final" d="M677 13v-11q0 -2 -16 -2h-611v13h407v196q0 113 -47.5 155.5t-171.5 42.5h-72v13h72q132 0 182 -46.5t50 -164.5v-196h207z" />
<glyph unicode="&#x630;" horiz-adv-x="661" arabic-form="final" d="M677 13v-11q0 -2 -16 -2h-611v13h407v196q0 113 -47.5 155.5t-171.5 42.5h-72v13h72q132 0 182 -46.5t50 -164.5v-196h207zM216 587q0 22 22 22q9 0 15 -6t6 -16q0 -9 -6 -15.5t-15 -6.5q-10 0 -16 6.5t-6 15.5z" />
<glyph unicode="&#x631;" horiz-adv-x="420" arabic-form="final" d="M420 13h16v-11q0 -2 -16 -2h-1q-123 0 -220 53v-39q0 -135 -57 -201t-176 -66q-26 0 -56 3l2 13q30 -3 54 -3q113 0 166.5 62.5t53.5 191.5v456h13v-401q98 -56 221 -56z" />
<glyph unicode="&#x632;" horiz-adv-x="420" arabic-form="final" d="M420 13h16v-11q0 -2 -16 -2h-1q-123 0 -220 53v-39q0 -135 -57 -201t-176 -66q-26 0 -56 3l2 13q30 -3 54 -3q113 0 166.5 62.5t53.5 191.5v456h13v-401q98 -56 221 -56zM170 637q0 22 22 22q9 0 15 -6t6 -16q0 -9 -6 -15.5t-15 -6.5q-10 0 -16 6.5t-6 15.5z" />
<glyph unicode="&#x633;" horiz-adv-x="1597" arabic-form="final" d="M1597 13h16v-11q0 -2 -16 -2h-1q-128 0 -227 58q-77 -62 -162 -62q-88 0 -162 62q-77 -62 -163 -62q-84 0 -156 57v-222q-130 -84 -301 -84q-161 0 -248 74.5t-87 207.5q0 81 18 138l12 -3q-17 -60 -17 -135q0 -127 83 -198t237 -71q155 0 290 77v503h13v-270 q69 -61 156 -61t156 61v270h13v-270q69 -61 156 -61t156 61v320h13v-321q98 -56 221 -56z" />
<glyph unicode="&#x633;" horiz-adv-x="1004" arabic-form="initial" d="M871 470h13v-402q-77 -68 -169 -68q-88 0 -162 62q-77 -62 -163 -62q-88 0 -162 62q-103 -62 -227 -62h-1q-16 0 -16 2v11h16q117 0 221 60v267h13v-266q69 -61 156 -61t156 61v266h13v-266q69 -61 156 -61t156 61v396z" />
<glyph unicode="&#x633;" horiz-adv-x="1105" arabic-form="medial" d="M1105 13h16v-11q0 -2 -16 -2h-1q-126 0 -230 59q-74 -59 -159 -59q-88 0 -162 62q-77 -62 -163 -62q-88 0 -162 62q-103 -62 -227 -62h-1q-16 0 -16 2v11h16q117 0 221 60v267h13v-266q69 -61 156 -61t156 61v266h13v-266q69 -61 156 -61t156 61v316h13v-321 q98 -56 221 -56z" />
<glyph unicode="&#x634;" horiz-adv-x="1597" arabic-form="final" d="M1597 13h16v-11q0 -2 -16 -2h-1q-128 0 -227 58q-77 -62 -162 -62q-88 0 -162 62q-77 -62 -163 -62q-84 0 -156 57v-222q-130 -84 -301 -84q-161 0 -248 74.5t-87 207.5q0 81 18 138l12 -3q-17 -60 -17 -135q0 -127 83 -198t237 -71q155 0 290 77v503h13v-270 q69 -61 156 -61t156 61v270h13v-270q69 -61 156 -61t156 61v320h13v-321q98 -56 221 -56zM1022 623q0 22 22 22q9 0 15 -6t6 -16q0 -9 -6 -15.5t-15 -6.5q-10 0 -16 6.5t-6 15.5zM933 507q0 22 22 22q9 0 15 -6t6 -16q0 -9 -6 -15.5t-15 -6.5q-10 0 -16 6.5t-6 15.5z M1112 507q0 22 22 22q9 0 15 -6t6 -16q0 -9 -6 -15.5t-15 -6.5q-10 0 -16 6.5t-6 15.5z" />
<glyph unicode="&#x634;" horiz-adv-x="1004" arabic-form="initial" d="M871 470h13v-402q-77 -68 -169 -68q-88 0 -162 62q-77 -62 -163 -62q-88 0 -162 62q-103 -62 -227 -62h-1q-16 0 -16 2v11h16q117 0 221 60v267h13v-266q69 -61 156 -61t156 61v266h13v-266q69 -61 156 -61t156 61v396zM529 623q0 22 22 22q9 0 15 -6t6 -16 q0 -9 -6 -15.5t-15 -6.5q-10 0 -16 6.5t-6 15.5zM440 507q0 22 22 22q9 0 15 -6t6 -16q0 -9 -6 -15.5t-15 -6.5q-10 0 -16 6.5t-6 15.5zM619 507q0 22 22 22q9 0 15 -6t6 -16q0 -9 -6 -15.5t-15 -6.5q-10 0 -16 6.5t-6 15.5z" />
<glyph unicode="&#x634;" horiz-adv-x="1105" arabic-form="medial" d="M1105 13h16v-11q0 -2 -16 -2h-1q-126 0 -230 59q-74 -59 -159 -59q-88 0 -162 62q-77 -62 -163 -62q-88 0 -162 62q-103 -62 -227 -62h-1q-16 0 -16 2v11h16q117 0 221 60v267h13v-266q69 -61 156 -61t156 61v266h13v-266q69 -61 156 -61t156 61v316h13v-321 q98 -56 221 -56zM529 623q0 22 22 22q9 0 15 -6t6 -16q0 -9 -6 -15.5t-15 -6.5q-10 0 -16 6.5t-6 15.5zM440 507q0 22 22 22q9 0 15 -6t6 -16q0 -9 -6 -15.5t-15 -6.5q-10 0 -16 6.5t-6 15.5zM619 507q0 22 22 22q9 0 15 -6t6 -16q0 -9 -6 -15.5t-15 -6.5q-10 0 -16 6.5 t-6 15.5z" />
<glyph unicode="&#x635;" horiz-adv-x="1565" arabic-form="final" d="M1581 13v-11q0 -2 -16 -2h-839v-169q-130 -84 -301 -84q-161 0 -248 74.5t-87 207.5q0 81 18 138l12 -3q-17 -60 -17 -135q0 -127 83 -198t237 -71q155 0 290 77v573h13v-196q190 256 397 256q110 0 170.5 -67t60.5 -187v-203h227zM726 13h615v203q0 115 -57 178t-161 63 q-203 0 -397 -265v-179z" />
<glyph unicode="&#x635;" horiz-adv-x="972" arabic-form="initial" d="M862 216v-216h-862q-16 0 -16 2v11h237v397h13v-196q190 256 397 256q110 0 170.5 -67t60.5 -187zM234 13h615v203q0 115 -57 178t-161 63q-203 0 -397 -265v-179z" />
<glyph unicode="&#x635;" horiz-adv-x="1073" arabic-form="medial" d="M1089 13v-11q0 -2 -16 -2h-1073q-16 0 -16 2v11h237v397h13v-196q190 256 397 256q110 0 170.5 -67t60.5 -187v-203h227zM234 13h615v203q0 115 -57 178t-161 63q-203 0 -397 -265v-179z" />
<glyph unicode="&#x636;" horiz-adv-x="1565" arabic-form="final" d="M1581 13v-11q0 -2 -16 -2h-839v-169q-130 -84 -301 -84q-161 0 -248 74.5t-87 207.5q0 81 18 138l12 -3q-17 -60 -17 -135q0 -127 83 -198t237 -71q155 0 290 77v573h13v-196q190 256 397 256q110 0 170.5 -67t60.5 -187v-203h227zM726 13h615v203q0 115 -57 178t-161 63 q-203 0 -397 -265v-179zM878 637q0 22 22 22q9 0 15 -6t6 -16q0 -9 -6 -15.5t-15 -6.5q-10 0 -16 6.5t-6 15.5z" />
<glyph unicode="&#x636;" horiz-adv-x="972" arabic-form="initial" d="M862 216v-216h-862q-16 0 -16 2v11h237v397h13v-196q190 256 397 256q110 0 170.5 -67t60.5 -187zM234 13h615v203q0 115 -57 178t-161 63q-203 0 -397 -265v-179zM364 637q0 22 22 22q9 0 15 -6t6 -16q0 -9 -6 -15.5t-15 -6.5q-10 0 -16 6.5t-6 15.5z" />
<glyph unicode="&#x636;" horiz-adv-x="1073" arabic-form="medial" d="M1089 13v-11q0 -2 -16 -2h-1073q-16 0 -16 2v11h237v397h13v-196q190 256 397 256q110 0 170.5 -67t60.5 -187v-203h227zM234 13h615v203q0 115 -57 178t-161 63q-203 0 -397 -265v-179zM364 637q0 22 22 22q9 0 15 -6t6 -16q0 -9 -6 -15.5t-15 -6.5q-10 0 -16 6.5 t-6 15.5z" />
<glyph unicode="&#x637;" horiz-adv-x="1043" arabic-form="final" d="M1059 13v-11q0 -2 -16 -2h-1003v13h150v687h13v-487q73 103 171 180q100 77 229 77q110 0 169.5 -67.5t59.5 -186.5v-203h227zM203 13h616v203q0 117 -57.5 179t-158.5 62q-133 0 -228 -79q-96 -78 -172 -187v-178z" />
<glyph unicode="&#x637;" horiz-adv-x="973" arabic-form="initial" d="M863 216v-216h-863q-16 0 -16 2v11h237v687h13v-487q74 103 171 180q100 77 229 77q110 0 169.5 -67.5t59.5 -186.5zM234 13h616v203q0 117 -57.5 179t-158.5 62q-133 0 -228 -79q-96 -78 -172 -187v-178z" />
<glyph unicode="&#x637;" horiz-adv-x="1074" arabic-form="medial" d="M1090 13v-11q0 -2 -16 -2h-1074q-16 0 -16 2v11h237v687h13v-487q74 103 171 180q100 77 229 77q110 0 169.5 -67.5t59.5 -186.5v-203h227zM234 13h616v203q0 117 -57.5 179t-158.5 62q-133 0 -228 -79q-96 -78 -172 -187v-178z" />
<glyph unicode="&#x638;" horiz-adv-x="1043" arabic-form="final" d="M1059 13v-11q0 -2 -16 -2h-1003v13h150v687h13v-487q73 103 171 180q100 77 229 77q110 0 169.5 -67.5t59.5 -186.5v-203h227zM203 13h616v203q0 117 -57.5 179t-158.5 62q-133 0 -228 -79q-96 -78 -172 -187v-178zM431 637q0 22 22 22q9 0 15 -6t6 -16q0 -9 -6 -15.5 t-15 -6.5q-10 0 -16 6.5t-6 15.5z" />
<glyph unicode="&#x638;" horiz-adv-x="973" arabic-form="initial" d="M863 216v-216h-863q-16 0 -16 2v11h237v687h13v-487q74 103 171 180q100 77 229 77q110 0 169.5 -67.5t59.5 -186.5zM234 13h616v203q0 117 -57.5 179t-158.5 62q-133 0 -228 -79q-96 -78 -172 -187v-178zM462 637q0 22 22 22q9 0 15 -6t6 -16q0 -9 -6 -15.5t-15 -6.5 q-10 0 -16 6.5t-6 15.5z" />
<glyph unicode="&#x638;" horiz-adv-x="1074" arabic-form="medial" d="M1090 13v-11q0 -2 -16 -2h-1074q-16 0 -16 2v11h237v687h13v-487q74 103 171 180q100 77 229 77q110 0 169.5 -67.5t59.5 -186.5v-203h227zM234 13h616v203q0 117 -57.5 179t-158.5 62q-133 0 -228 -79q-96 -78 -172 -187v-178zM462 637q0 22 22 22q9 0 15 -6t6 -16 q0 -9 -6 -15.5t-15 -6.5q-10 0 -16 6.5t-6 15.5z" />
<glyph unicode="&#x639;" horiz-adv-x="742" arabic-form="final" d="M758 13v-11q0 -2 -16 -2h-468q-81 0 -131 -44.5t-50 -115.5q0 -74 49 -117.5t132 -43.5h146v-13h-146q-89 0 -141.5 47t-52.5 127q0 77 53 125t141 48h37l-217 363l1 13q137 81 282 81q111 0 172.5 -47.5t61.5 -134.5q0 -90 -66 -164q-66 -72 -169 -111h382zM106 381 l220 -368h16q109 37 183 110q73 72 73 165q0 81 -58.5 125t-161.5 44q-144 0 -272 -76z" />
<glyph unicode="&#x639;" horiz-adv-x="678" arabic-form="initial" d="M377 13h221v-13h-598q-16 0 -16 2v11h316q-76 21 -121.5 80t-45.5 140q0 101 68 169t167 68q45 0 90.5 -14t70.5 -35l-6 -11q-28 21 -71 34t-84 13q-95 0 -158.5 -64.5t-63.5 -160.5q0 -94 66 -156.5t165 -62.5z" />
<glyph unicode="&#x639;" horiz-adv-x="722" arabic-form="medial" d="M738 13v-11q0 -2 -16 -2h-722q-16 0 -16 2v11h307l-217 363l1 13q137 81 282 81q111 0 172.5 -47.5t61.5 -134.5q0 -90 -66 -164q-66 -72 -169 -111h382zM86 381l220 -368h16q109 37 183 110q73 72 73 165q0 81 -58.5 125t-161.5 44q-144 0 -272 -76z" />
<glyph unicode="&#x63a;" horiz-adv-x="742" arabic-form="final" d="M758 13v-11q0 -2 -16 -2h-468q-81 0 -131 -44.5t-50 -115.5q0 -74 49 -117.5t132 -43.5h146v-13h-146q-89 0 -141.5 47t-52.5 127q0 77 53 125t141 48h37l-217 363l1 13q137 81 282 81q111 0 172.5 -47.5t61.5 -134.5q0 -90 -66 -164q-66 -72 -169 -111h382zM106 381 l220 -368h16q109 37 183 110q73 72 73 165q0 81 -58.5 125t-161.5 44q-144 0 -272 -76zM353 637q0 22 22 22q9 0 15 -6t6 -16q0 -9 -6 -15.5t-15 -6.5q-10 0 -16 6.5t-6 15.5z" />
<glyph unicode="&#x63a;" horiz-adv-x="678" arabic-form="initial" d="M377 13h221v-13h-598q-16 0 -16 2v11h316q-76 21 -121.5 80t-45.5 140q0 101 68 169t167 68q45 0 90.5 -14t70.5 -35l-6 -11q-28 21 -71 34t-84 13q-95 0 -158.5 -64.5t-63.5 -160.5q0 -94 66 -156.5t165 -62.5zM346 637q0 22 22 22q9 0 15 -6t6 -16q0 -9 -6 -15.5 t-15 -6.5q-10 0 -16 6.5t-6 15.5z" />
<glyph unicode="&#x63a;" horiz-adv-x="722" arabic-form="medial" d="M738 13v-11q0 -2 -16 -2h-722q-16 0 -16 2v11h307l-217 363l1 13q137 81 282 81q111 0 172.5 -47.5t61.5 -134.5q0 -90 -66 -164q-66 -72 -169 -111h382zM86 381l220 -368h16q109 37 183 110q73 72 73 165q0 81 -58.5 125t-161.5 44q-144 0 -272 -76zM333 637q0 22 22 22 q9 0 15 -6t6 -16q0 -9 -6 -15.5t-15 -6.5q-10 0 -16 6.5t-6 15.5z" />
<glyph unicode="&#x641;" horiz-adv-x="1357" arabic-form="final" d="M1373 13v-11q0 -2 -16 -2h-1008q-115 0 -185 46q-69 46 -69 167q0 60 18 147l13 -2q-18 -86 -18 -146q0 -199 238 -199h651q-148 21 -229 91t-81 179q0 103 70 168.5t179 65.5q108 0 200 -57v-447h237zM1123 14v439q-90 51 -187 51q-104 0 -170 -62t-66 -159 q0 -124 114 -196.5t309 -72.5zM914 684q0 22 22 22q9 0 15 -6t6 -16q0 -9 -6 -15.5t-15 -6.5q-10 0 -16 6.5t-6 15.5z" />
<glyph unicode="&#x641;" horiz-adv-x="698" arabic-form="initial" d="M578 460v-419q-111 -41 -276 -41h-302q-16 0 -16 2v11h321q142 0 245 31q-207 2 -310 61t-103 185q0 101 67 164t173 63q108 0 201 -57zM565 55v398q-93 51 -188 51q-101 0 -164 -59.5t-63 -154.5q0 -121 103.5 -177.5t311.5 -57.5zM355 684q0 22 22 22q9 0 15 -6t6 -16 q0 -9 -6 -15.5t-15 -6.5q-10 0 -16 6.5t-6 15.5z" />
<glyph unicode="&#x641;" horiz-adv-x="758" arabic-form="medial" d="M774 13v-11q0 -2 -16 -2h-758q-16 0 -16 2v11h361q-81 30 -144.5 104.5t-63.5 169.5q0 98 68.5 161.5t173.5 63.5q107 0 174.5 -64t67.5 -161q0 -95 -63 -169.5t-144 -104.5h360zM380 13q36 10 75 34t74.5 58t57.5 82t21 99q0 95 -64.5 154t-164.5 59q-99 0 -164 -59.5 t-65 -153.5q-1 -51 21 -99t58 -82t75.5 -58t75.5 -34zM356 679q0 22 22 22q9 0 15 -6t6 -16q0 -9 -6 -15.5t-15 -6.5q-10 0 -16 6.5t-6 15.5z" />
<glyph unicode="&#x642;" horiz-adv-x="987" arabic-form="final" d="M1003 13v-11q0 -2 -16 -2h-221v-169q-135 -84 -320 -84q-172 0 -264 74t-92 208q0 81 19 138l12 -3q-18 -64 -18 -135q0 -128 87 -198.5t253 -70.5q171 0 310 77v163h-184q-116 0 -189.5 65t-73.5 171q0 105 75.5 167.5t186.5 62.5q115 0 198 -62v-391h237zM569 13h184 v384q-75 56 -185 56q-105 0 -177 -59t-72 -159q0 -103 71.5 -162.5t178.5 -59.5zM462 633q0 22 22 22q9 0 15 -6t6 -16q0 -9 -6 -15.5t-15 -6.5q-10 0 -16 6.5t-6 15.5zM641 633q0 22 22 22q9 0 15 -6t6 -16q0 -9 -6 -15.5t-15 -6.5q-10 0 -16 6.5t-6 15.5z" />
<glyph unicode="&#x642;" horiz-adv-x="698" arabic-form="initial" d="M578 460v-419q-111 -41 -276 -41h-302q-16 0 -16 2v11h321q142 0 245 31q-207 2 -310 61t-103 185q0 101 67 164t173 63q108 0 201 -57zM565 55v398q-93 51 -188 51q-101 0 -164 -59.5t-63 -154.5q0 -121 103.5 -177.5t311.5 -57.5zM266 684q0 22 22 22q9 0 15 -6t6 -16 q0 -9 -6 -15.5t-15 -6.5q-10 0 -16 6.5t-6 15.5zM445 684q0 22 22 22q9 0 15 -6t6 -16q0 -9 -6 -15.5t-15 -6.5q-10 0 -16 6.5t-6 15.5z" />
<glyph unicode="&#x642;" horiz-adv-x="758" arabic-form="medial" d="M774 13v-11q0 -2 -16 -2h-758q-16 0 -16 2v11h361q-81 30 -144.5 104.5t-63.5 169.5q0 98 68.5 161.5t173.5 63.5q107 0 174.5 -64t67.5 -161q0 -95 -63 -169.5t-144 -104.5h360zM380 13q36 10 75 34t74.5 58t57.5 82t21 99q0 95 -64.5 154t-164.5 59q-99 0 -164 -59.5 t-65 -153.5q-1 -51 21 -99t58 -82t75.5 -58t75.5 -34zM267 679q0 22 22 22q9 0 15 -6t6 -16q0 -9 -6 -15.5t-15 -6.5q-10 0 -16 6.5t-6 15.5zM446 679q0 22 22 22q9 0 15 -6t6 -16q0 -9 -6 -15.5t-15 -6.5q-10 0 -16 6.5t-6 15.5z" />
<glyph unicode="&#x643;" horiz-adv-x="1171" arabic-form="final" d="M1171 13h16v-11q0 -2 -16 -2h-1q-126 0 -227 57q-109 -57 -265 -57h-329q-115 0 -185 46q-69 46 -69 167q0 60 18 147l13 -2q-18 -86 -18 -146q0 -199 238 -199h335q155 0 256 56v661h13v-661q95 -56 221 -56zM621 323v-12h-170v12h62q-41 25 -41 69q0 37 23.5 60.5 t58.5 23.5q30 0 57 -16l-6 -10q-23 14 -51 14q-31 0 -50.5 -20t-19.5 -52q0 -29 21 -49t52 -20h64z" />
<glyph unicode="&#x643;" horiz-adv-x="555" arabic-form="initial" d="M455 123v-77q-113 -46 -262 -46h-193q-16 0 -16 2v11h211q139 0 247 42v68q0 106 -61.5 168t-190.5 93l-89 22l-5 13l344 290l8 -10l-334 -283l79 -19q135 -34 198.5 -98.5t63.5 -175.5z" />
<glyph unicode="&#x643;" horiz-adv-x="655" arabic-form="medial" d="M655 13h16v-11q0 -2 -16 -2q-107 0 -186 39q-105 -39 -256 -39h-213q-16 0 -16 2v11h231q150 0 247 38v68q0 107 -62 170.5t-190 94.5l-89 22l-5 13l344 290l8 -10l-334 -283l79 -19q134 -33 198 -99.5t64 -178.5v-68q75 -38 180 -38z" />
<glyph unicode="&#x644;" horiz-adv-x="947" arabic-form="final" d="M947 13h16v-11q0 -2 -16 -2h-1q-123 0 -220 54v-223q-130 -84 -301 -84q-161 0 -248 74.5t-87 207.5q0 81 18 138l12 -3q-17 -60 -17 -135q0 -127 83 -198t237 -71q155 0 290 77v893h13v-661q95 -56 221 -56z" />
<glyph unicode="&#x644;" horiz-adv-x="384" arabic-form="initial" d="M234 730v-669q-100 -61 -233 -61h-1q-16 0 -16 2v11h16q126 0 221 56v661h13z" />
<glyph unicode="&#x644;" horiz-adv-x="455" arabic-form="medial" d="M455 13h16v-11q0 -2 -16 -2h-1q-127 0 -226 57q-100 -57 -227 -57h-1q-16 0 -16 2v11h16q123 0 221 56v661h13v-661q98 -56 221 -56z" />
<glyph unicode="&#x645;" horiz-adv-x="790" arabic-form="final" d="M790 13h16v-11q0 -2 -16 -2h-1q-102 0 -193 44q-67 -94 -191 -94q-95 0 -160 59q-35 32 -55 78q-16 6 -39 6q-98 0 -98 -110q0 -63 7 -146q6 -71 19 -170h-13q-13 99 -19 170q-7 83 -7 146t30 93t80 30q16 0 34 -5q-19 51 -19 109q0 115 67 187.5t173 72.5t173 -72.5 t67 -187.5q0 -87 -41 -154q87 -43 186 -43zM632 210q0 110 -63 178.5t-164 68.5t-164 -68.5t-63 -178.5t63 -178.5t164 -68.5t164 68.5t63 178.5z" />
<glyph unicode="&#x645;" horiz-adv-x="705" arabic-form="initial" d="M625 210q0 -115 -67 -187.5t-173 -72.5q-122 0 -190 93q-90 -43 -194 -43h-1q-16 0 -16 2v11h16q102 0 187 41q-42 64 -42 156q0 115 67 187.5t173 72.5t173 -72.5t67 -187.5zM612 210q0 110 -63 178.5t-164 68.5t-164 -68.5t-63 -178.5t63 -178.5t164 -68.5t164 68.5 t63 178.5z" />
<glyph unicode="&#x645;" horiz-adv-x="770" arabic-form="medial" d="M770 13h16v-11q0 -2 -16 -2h-1q-104 0 -195 41q-69 -91 -189 -91q-122 0 -189 92q-88 -42 -195 -42h-1q-16 0 -16 2v11h16q101 0 188 39q-43 67 -43 158q0 115 67 187.5t173 72.5t173 -72.5t67 -187.5q0 -93 -43 -157q83 -40 188 -40zM612 210q0 110 -63 178.5t-164 68.5 t-164 -68.5t-63 -178.5t63 -178.5t164 -68.5t164 68.5t63 178.5z" />
<glyph unicode="&#x646;" horiz-adv-x="947" arabic-form="final" d="M947 13h16v-11q0 -2 -16 -2h-1q-130 0 -220 55v-224q-130 -84 -301 -84q-161 0 -248 74.5t-87 207.5q0 81 18 138l12 -3q-17 -60 -17 -135q0 -127 83 -198t237 -71q155 0 290 77v503h13v-260q0 -11 10 -17q88 -50 211 -50zM394 317q0 22 22 22q9 0 15 -6t6 -16 q0 -9 -6 -15.5t-15 -6.5q-10 0 -16 6.5t-6 15.5z" />
<glyph unicode="&#x646;" horiz-adv-x="354" arabic-form="initial" d="M234 470v-409q-99 -61 -233 -61h-1q-16 0 -16 2v11h16q123 0 221 56v401h13zM206 637q0 22 22 22q9 0 15 -6t6 -16q0 -9 -6 -15.5t-15 -6.5q-10 0 -16 6.5t-6 15.5z" />
<glyph unicode="&#x646;" horiz-adv-x="455" arabic-form="medial" d="M455 13h16v-11q0 -2 -16 -2h-1q-127 0 -227 57q-99 -57 -226 -57h-1q-16 0 -16 2v11h16q123 0 221 56v401h13v-401q98 -56 221 -56zM206 637q0 22 22 22q9 0 15 -6t6 -16q0 -9 -6 -15.5t-15 -6.5q-10 0 -16 6.5t-6 15.5z" />
<glyph unicode="&#x647;" horiz-adv-x="751" arabic-form="final" d="M767 13v-11q0 -2 -16 -2h-408q-117 0 -190 66.5t-73 179.5q0 127 74 195.5t188 68.5q115 0 198 -62v-435h227zM343 13h184v427q-76 57 -185 57t-179 -64.5t-70 -187.5q0 -109 71 -170.5t179 -61.5z" />
<glyph unicode="&#x647;" horiz-adv-x="830" arabic-form="initial" d="M750 235v-235h-750q-16 0 -16 2v11h299q-69 23 -108 79.5t-39 133.5q0 89 60.5 149t146.5 60t146.5 -60t60.5 -149q0 -78 -38.5 -133t-108.5 -80h334v222q0 136 -54 214q-54 80 -133 108q-80 30 -165 30q-53 0 -111 -8v14q57 7 111 7q74 0 137 -19.5t115.5 -60 t82.5 -113.5t30 -172zM335 13h16q88 13 137 70.5t49 142.5q0 83 -56.5 139.5t-137.5 56.5t-137.5 -56.5t-56.5 -139.5q0 -85 49.5 -142.5t136.5 -70.5z" />
<glyph unicode="&#x647;" horiz-adv-x="941" arabic-form="medial" d="M957 13v-11q0 -2 -16 -2h-941q-16 0 -16 2v11h299q-69 23 -108 79.5t-39 133.5q0 89 60.5 149t146.5 60t146.5 -60t60.5 -149q0 -78 -38.5 -133t-108.5 -80h334v222q0 136 -54 214q-54 80 -133 108q-80 30 -165 30q-53 0 -111 -8v14q57 7 111 7q74 0 137 -19.5t115.5 -60 t82.5 -113.5t30 -172v-222h207zM335 13h16q88 13 137 70.5t49 142.5q0 83 -56.5 139.5t-137.5 56.5t-137.5 -56.5t-56.5 -139.5q0 -85 49.5 -142.5t136.5 -70.5z" />
<glyph unicode="&#x648;" horiz-adv-x="751" arabic-form="final" d="M767 13v-11q0 -2 -16 -2h-211q-3 -124 -72 -188.5t-191 -64.5q-95 0 -165 34l2 13q26 -14 72 -24t91 -10q116 0 181.5 61t68.5 179h-184q-116 0 -189.5 63t-73.5 169q0 107 75.5 170.5t186.5 63.5q115 0 198 -62v-391h227zM343 13h184v384q-75 56 -185 56 q-105 0 -177 -60t-72 -162t71 -160t179 -58z" />
<glyph unicode="&#x649;" horiz-adv-x="1235" arabic-form="final" d="M1235 13h16v-11q0 -2 -16 -2q-80 2 -121.5 18.5t-62.5 49.5t-44 107l-58 202h-145q-63 0 -100 -29.5t-37 -80.5q0 -20 7 -44l110 -383q-55 -35 -157 -65q-96 -28 -197 -28q-160 0 -250 76t-90 206q0 81 19 138l12 -3q-18 -64 -18 -135q0 -125 85.5 -197t238.5 -72 q99 0 193 27q94 25 149 59l-108 375q-7 21 -7 46q0 56 40.5 89.5t108.5 33.5h157l60 -210q17 -56 29.5 -83t36.5 -48t57 -27.5t92 -8.5z" />
<glyph unicode="&#x64a;" horiz-adv-x="1235" arabic-form="final" d="M1235 13h16v-11q0 -2 -16 -2q-80 2 -121.5 18.5t-62.5 49.5t-44 107l-58 202h-145q-63 0 -100 -29.5t-37 -80.5q0 -20 7 -44l110 -383q-55 -35 -157 -65q-96 -28 -197 -28q-160 0 -250 76t-90 206q0 81 19 138l12 -3q-18 -64 -18 -135q0 -125 85.5 -197t238.5 -72 q99 0 193 27q94 25 149 59l-108 375q-7 21 -7 46q0 56 40.5 89.5t108.5 33.5h157l60 -210q17 -56 29.5 -83t36.5 -48t57 -27.5t92 -8.5zM318 -425q0 22 22 22q9 0 15 -6t6 -16q0 -9 -6 -15.5t-15 -6.5q-10 0 -16 6.5t-6 15.5zM497 -425q0 22 22 22q9 0 15 -6t6 -16 q0 -9 -6 -15.5t-15 -6.5q-10 0 -16 6.5t-6 15.5z" />
<glyph unicode="&#x64a;" horiz-adv-x="354" arabic-form="initial" d="M234 470v-409q-99 -61 -233 -61h-1q-16 0 -16 2v11h16q123 0 221 56v401h13zM57 -172q0 22 22 22q9 0 15 -6t6 -16q0 -9 -6 -15.5t-15 -6.5q-10 0 -16 6.5t-6 15.5zM236 -172q0 22 22 22q9 0 15 -6t6 -16q0 -9 -6 -15.5t-15 -6.5q-10 0 -16 6.5t-6 15.5z" />
<glyph unicode="&#x64a;" horiz-adv-x="455" arabic-form="medial" d="M455 13h16v-11q0 -2 -16 -2h-1q-127 0 -227 57q-99 -57 -226 -57h-1q-16 0 -16 2v11h16q123 0 221 56v401h13v-401q98 -56 221 -56zM117 -172q0 22 22 22q9 0 15 -6t6 -16q0 -9 -6 -15.5t-15 -6.5q-10 0 -16 6.5t-6 15.5zM296 -172q0 22 22 22q9 0 15 -6t6 -16 q0 -9 -6 -15.5t-15 -6.5q-10 0 -16 6.5t-6 15.5z" />
<glyph unicode=" "  horiz-adv-x="250" />
<glyph unicode="&#x09;" horiz-adv-x="250" />
<glyph unicode="&#xa0;" horiz-adv-x="250" />
<glyph unicode="!" horiz-adv-x="150" d="M84 700l-3 -562h-12l-3 562h18zM90 4q0 -15 -15 -15t-15 15t15 15t15 -15z" />
<glyph unicode="&#x22;" horiz-adv-x="272" d="M76 710l-2 -246h-12l-2 246h16zM212 710l-2 -246h-12l-2 246h16z" />
<glyph unicode="#" horiz-adv-x="761" d="M608 700l-36 -200h129l-2 -13h-129l-46 -262h129l-3 -13h-129l-37 -212h-14l37 212h-301l-37 -212h-14l37 212h-132l2 13h133l46 262h-132l2 13h132l36 200h14l-36 -200h301l36 200h14zM556 487h-301l-46 -262h301z" />
<glyph unicode="$" horiz-adv-x="600" d="M296 -118v109q-68 3 -134 25t-111 56l8 10q49 -36 119 -57.5t140 -21.5q103 0 163 46.5t60 127.5q0 62 -34 96q-31 33 -74 49.5t-128 33.5q-99 19 -163 59q-63 39 -63 124q0 77 58.5 123.5t158.5 47.5v108h14v-108q126 -2 223 -71l-9 -11q-95 69 -226 69 q-94 0 -149.5 -43t-55.5 -114q0 -80 61 -116q62 -34 156 -54q79 -15 127 -33q118 -41 118 -158q0 -87 -64.5 -138t-173.5 -51h-7v-108h-14z" />
<glyph unicode="%" horiz-adv-x="794" d="M671 717l-537 -734h-17l537 734h17zM345 531q0 -81 -39.5 -128t-108.5 -47q-68 0 -107.5 47.5t-39.5 127.5t39.5 127.5t107.5 47.5q69 0 108.5 -47t39.5 -128zM64 531q0 -74 36 -118t97 -44q62 0 98 44t36 118t-36 118t-98 44q-61 0 -97 -44t-36 -118zM745 169 q0 -81 -39.5 -128t-108.5 -47q-68 0 -107.5 47.5t-39.5 127.5t39.5 127.5t107.5 47.5q69 0 108.5 -47t39.5 -128zM464 169q0 -74 36 -118t97 -44q62 0 98 44t36 118t-36 118t-98 44q-61 0 -97 -44t-36 -118z" />
<glyph unicode="&#x26;" horiz-adv-x="741" d="M546 83l74 -84l-11 -9l-73 84q-90 -84 -219 -84q-104 0 -170.5 50.5t-66.5 130.5q0 60 44 106q44 45 152 95l-38 43q-63 72 -63 141q0 65 51 109.5t122 44.5q67 0 111.5 -40t44.5 -103q0 -51 -21 -83t-62 -56q-43 -24 -124 -60l240 -274q71 74 111 194l13 -4 q-40 -124 -115 -201zM248 424l41 -47q86 38 122 60q79 44 79 130q0 58 -40 94t-102 36q-65 0 -112 -41.5t-47 -99.5q0 -66 59 -132zM527 84l-243 278q-104 -46 -147 -90q-43 -43 -43 -101q0 -74 62 -121t161 -47q125 0 210 81z" />
<glyph unicode="'" horiz-adv-x="136" d="M76 710l-2 -246h-12l-2 246h16z" />
<glyph unicode="(" horiz-adv-x="220" d="M174 717l13 -7q-49 -93 -80 -219q-32 -130 -32 -247q0 -122 33 -252t82 -221l-13 -8q-47 87 -83 224q-34 130 -34 257q0 120 33 251t81 222z" />
<glyph unicode=")" horiz-adv-x="220" d="M160 244q0 -127 -34 -257q-36 -137 -83 -224l-13 8q49 91 82 221t33 252q0 117 -32 247q-31 126 -80 219l13 7q48 -91 81 -222t33 -251z" />
<glyph unicode="*" horiz-adv-x="426" d="M221 710l-1 -149l142 47l5 -15l-143 -45l89 -120l-13 -10l-87 122l-86 -122l-13 10l88 120l-142 45l5 15l142 -47l-2 149h16z" />
<glyph unicode="+" horiz-adv-x="600" d="M500 266v-13h-193v-193h-13v193h-194v13h194v194h13v-194h193z" />
<glyph unicode="," horiz-adv-x="150" d="M90 5q0 -7 -4 -15l-39 -93l-9 4l31 89q-9 3 -9 14q0 15 15 15t15 -14z" />
<glyph unicode="-" horiz-adv-x="460" d="M400 266v-13h-340v13h340z" />
<glyph unicode="." horiz-adv-x="150" d="M90 4q0 -15 -15 -15t-15 15t15 15t15 -15z" />
<glyph unicode="/" horiz-adv-x="464" d="M415 717l-350 -734h-15l350 734h15z" />
<glyph unicode="0" horiz-adv-x="749" d="M670 340q0 -161 -80 -255.5t-215 -94.5t-215 94.5t-80 255.5t80 255.5t215 94.5t215 -94.5t80 -255.5zM94 340q0 -155 75.5 -246t205.5 -91q129 0 205 91t76 246t-76 246t-205 91q-130 0 -205.5 -91t-75.5 -246z" />
<glyph unicode="1" horiz-adv-x="328" d="M209 680v-680h-14v667l-145 -33v13l145 33h14z" />
<glyph unicode="2" horiz-adv-x="588" d="M84 13h444v-13h-460v15l303 300q74 72 98 110t24 82q0 76 -56.5 123t-148.5 47q-69 0 -120.5 -30t-95.5 -98l-12 7q88 134 229 134q98 0 158 -51t60 -132q0 -45 -26 -86t-100 -115z" />
<glyph unicode="3" horiz-adv-x="609" d="M530 197q0 -92 -69 -149.5t-180 -57.5q-114 0 -221 71l8 11q100 -69 213 -69q105 0 170 53.5t65 139.5q0 78 -55 123.5t-148 45.5q-62 0 -122 -23l-5 12l293 313h-382v13h399v-16l-282 -300q47 14 99 14q99 0 158 -48.5t59 -132.5z" />
<glyph unicode="4" horiz-adv-x="639" d="M449 228h141v-13h-141v-215h-14v215h-385v16l382 449h17v-452zM65 228h370v435z" />
<glyph unicode="5" horiz-adv-x="608" d="M529 213q0 -95 -73 -159t-184 -64q-130 0 -212 90l10 9q77 -86 200 -86q106 0 175.5 60t69.5 150q0 85 -63 141t-161 56q-120 0 -191 -74l-10 10l7 334h387v-13h-373l-7 -308q76 64 188 64q103 0 170 -59.5t67 -150.5z" />
<glyph unicode="6" horiz-adv-x="635" d="M569 216q0 -99 -66 -162.5t-174 -63.5q-122 0 -187 85.5t-65 248.5q0 172 70 269t192 97q113 0 205 -74l-9 -10q-92 71 -196 71q-118 0 -183 -93t-65 -260v-26q30 67 93 103t147 36q106 0 172 -62t66 -159zM555 216q0 93 -61.5 150.5t-162.5 57.5q-88 0 -152 -42 t-86 -116q11 -128 72 -195.5t164 -67.5q100 0 163 61t63 152z" />
<glyph unicode="7" horiz-adv-x="558" d="M50 680h478v-16l-388 -664h-16l390 667h-464v13z" />
<glyph unicode="8" horiz-adv-x="667" d="M587 180q0 -82 -71 -136t-183 -54q-111 0 -182 54t-71 136q0 72 48 121t132 64q-72 15 -113.5 57t-41.5 103q0 71 65 118t163 47t163.5 -47.5t65.5 -117.5q0 -61 -41.5 -103t-114.5 -57q85 -15 133 -64t48 -121zM333 371q97 0 156 41.5t59 112.5q0 65 -61 108.5 t-154 43.5q-92 0 -153 -43.5t-61 -108.5q0 -72 59 -113q61 -41 155 -41zM573 180q0 82 -64.5 129.5t-175.5 48.5q-46 0 -102 -14q-54 -14 -96 -54q-41 -39 -41 -110q0 -76 66.5 -126.5t172.5 -50.5t173 50t67 127z" />
<glyph unicode="9" horiz-adv-x="635" d="M552 356q0 -172 -70 -269t-192 -97q-111 0 -205 74l9 10q92 -71 196 -71q118 0 183 93t65 260v26q-30 -67 -93 -103t-147 -36q-106 0 -172 62t-66 159q0 99 66 162.5t174 63.5q122 0 187 -85.5t65 -248.5zM536 414q-11 128 -72 195.5t-164 67.5q-100 0 -163 -61t-63 -152 q0 -93 61.5 -150.5t162.5 -57.5q88 0 152 42t86 116z" />
<glyph unicode=":" horiz-adv-x="150" d="M90 4q0 -15 -15 -15t-15 15t15 15t15 -15zM90 496q0 -15 -15 -15t-15 15t15 15t15 -15z" />
<glyph unicode=";" horiz-adv-x="150" d="M90 5q0 -7 -4 -15l-39 -93l-9 4l31 89q-9 3 -9 14q0 15 15 15t15 -14zM90 496q0 -15 -15 -15t-15 15t15 15t15 -15z" />
<glyph unicode="&#x3c;" horiz-adv-x="600" d="M500 478v-15l-386 -204l386 -204v-15l-400 212v14z" />
<glyph unicode="=" horiz-adv-x="600" d="M500 354v-13h-400v13h400zM500 179v-13h-400v13h400z" />
<glyph unicode="&#x3e;" horiz-adv-x="600" d="M100 478l400 -212v-14l-400 -212v15l386 204l-386 204v15z" />
<glyph unicode="?" horiz-adv-x="539" d="M479 529q0 -45 -20 -81t-68 -81l-19 -17q-57 -51 -73.5 -80t-20.5 -93l-1 -39h-12l-1 39q-1 40 10 73q11 28 28.5 49t59.5 60l20 18q46 41 64.5 74.5t18.5 76.5q0 77 -50.5 123t-135.5 46q-86 0 -141 -47.5t-64 -130.5l-14 1q10 88 69 139t150 51t145.5 -49.5 t54.5 -131.5zM286 4q0 -15 -15 -15t-15 15t15 15t15 -15z" />
<glyph unicode="@" horiz-adv-x="1090" d="M993 291q0 -129 -56.5 -203t-153.5 -74q-55 0 -98 25v60q-63 -69 -160 -69q-89 0 -150 60t-61 148t61.5 149t149.5 61q96 0 160 -69v68h13v-401q38 -20 84 -20q92 0 145 70.5t53 193.5q2 182 -116.5 296t-306.5 112q-199 2 -322.5 -125t-121.5 -331q-2 -202 119 -328 t315 -124q70 0 130 16l4 -11q-73 -17 -137 -17q-198 -3 -322 127t-122 337q-2 209 125 339.5t332 128.5q194 2 316 -115t120 -304zM327 239q0 -83 57.5 -140t140.5 -57q99 0 160 77v240q-61 77 -160 77q-83 0 -140.5 -57t-57.5 -140z" />
<glyph unicode="A" horiz-adv-x="781" d="M716 0l-102 216h-446l-103 -216h-15l332 700h18l331 -700h-15zM174 229h434l-217 458z" />
<glyph unicode="B" horiz-adv-x="772" d="M698 185q0 -79 -57 -132q-58 -53 -183 -53h-318v700h289q110 0 169.5 -44.5t59.5 -127.5q0 -63 -36.5 -104.5t-103.5 -57.5q90 -12 135 -60.5t45 -120.5zM154 687v-317h275q103 0 159 40.5t56 117.5q0 78 -55 118.5t-160 40.5h-275zM684 185q0 73 -54 123q-52 49 -172 49 h-304v-344h304q120 0 172 49q54 50 54 123z" />
<glyph unicode="C" horiz-adv-x="810" d="M740 587l-11 -9q-106 119 -264 119q-93 2 -175 -45.5t-130 -128.5t-46 -173q-2 -92 46 -173t130 -128.5t175 -45.5q160 0 265 119l10 -9q-51 -58 -123 -90.5t-152 -32.5q-97 -2 -182 47.5t-135 133.5t-48 179q-2 95 48 179t135 133.5t182 47.5q80 0 152 -32.5t123 -90.5z " />
<glyph unicode="D" horiz-adv-x="858" d="M758 350q3 -145 -106.5 -248.5t-258.5 -101.5h-253v700h253q149 2 258.5 -101.5t106.5 -248.5zM393 687h-239v-674h239q142 -2 248 98t103 239q3 139 -103 239t-248 98z" />
<glyph unicode="E" horiz-adv-x="712" d="M631 700v-13h-477v-327h439v-13h-439v-334h489v-13h-503v700h491z" />
<glyph unicode="F" horiz-adv-x="674" d="M605 700v-13h-451v-338h413v-13h-413v-336h-14v700h465z" />
<glyph unicode="G" horiz-adv-x="874" d="M708 618l-9 -10q-100 89 -234 89q-93 2 -175 -45.5t-130 -128.5t-46 -173q-2 -92 46 -173t130 -128.5t175 -45.5q154 0 265 100v220h-265v13h279v-238q-114 -108 -279 -108q-97 -2 -182 47.5t-135 133.5t-48 179q-2 95 48 179t135 133.5t182 47.5q142 0 243 -92z" />
<glyph unicode="H" horiz-adv-x="863" d="M723 700v-700h-14v347h-555v-347h-14v700h14v-340h555v340h14z" />
<glyph unicode="I" horiz-adv-x="294" d="M154 700v-700h-14v700h14z" />
<glyph unicode="J" horiz-adv-x="609" d="M469 700v-466q0 -117 -59.5 -180.5t-161.5 -63.5q-122 0 -208 86l10 9q82 -82 198 -82q96 0 151.5 60t55.5 171v466h14z" />
<glyph unicode="K" horiz-adv-x="739" d="M673 0l-293 420l-226 -219v-201h-14v700h14v-480l497 480h19l-280 -271l300 -429h-17z" />
<glyph unicode="L" horiz-adv-x="629" d="M154 700v-687h426v-13h-440v700h14z" />
<glyph unicode="M" horiz-adv-x="1068" d="M906 700h22v-700h-14v687l-372 -626h-16l-372 626v-687h-14v700h22l372 -626z" />
<glyph unicode="N" horiz-adv-x="863" d="M709 700h14v-700h-22l-547 687v-687h-14v700h22l547 -687v687z" />
<glyph unicode="O" horiz-adv-x="930" d="M830 350q2 -95 -48 -179t-135 -133.5t-182 -47.5q-97 -2 -182 47.5t-135 133.5t-48 179q-2 95 48 179t135 133.5t182 47.5q97 2 182 -47.5t135 -133.5t48 -179zM114 350q-2 -92 46 -173t130 -128.5t175 -45.5q142 -3 248 102t103 245q3 140 -103 245t-248 102 q-93 2 -175 -45.5t-130 -128.5t-46 -173z" />
<glyph unicode="P" horiz-adv-x="762" d="M140 700h267q143 0 209.5 -54t66.5 -168q0 -116 -66.5 -170t-207.5 -54h-255v-254h-14v700zM407 687h-253v-420h255q134 0 197 50.5t63 159.5t-62.5 159.5t-199.5 50.5z" />
<glyph unicode="Q" horiz-adv-x="930" d="M709 82l121 -121l-10 -9l-121 121q-100 -83 -234 -83q-97 -2 -182 47.5t-135 133.5t-48 179q-2 95 48 179t135 133.5t182 47.5q97 2 182 -47.5t135 -133.5t48 -179q0 -77 -31.5 -147t-89.5 -121zM689 83l-134 135l9 9l135 -135q117 103 117 258q3 140 -103 245t-248 102 q-93 2 -175 -45.5t-130 -128.5t-46 -173q-2 -92 46 -173t130 -128.5t175 -45.5q128 0 224 80z" />
<glyph unicode="R" horiz-adv-x="776" d="M727 0h-17l-210 297q-28 -4 -76 -4h-270v-293h-14v700h284q145 0 209 -48t64 -155q0 -90 -43 -137.5t-139 -60.5zM154 305h270q138 0 198.5 45t60.5 146t-60.5 146t-198.5 45h-270v-382z" />
<glyph unicode="S" horiz-adv-x="702" d="M599 639l-8 -11q-108 69 -251 69q-104 0 -165 -44t-61 -118q0 -59 42.5 -92t149.5 -61l99 -26q74 -18 122 -38q96 -39 96 -135q0 -89 -71 -142q-70 -51 -190 -51q-81 0 -159 22q-79 22 -133 60l8 10q53 -36 130 -57.5t155 -21.5q115 0 180.5 48t65.5 134q0 60 -41 93.5 t-153 61.5l-99 25q-124 31 -170 67t-46 100q0 83 64 130.5t175 47.5q149 0 260 -71z" />
<glyph unicode="T" horiz-adv-x="641" d="M592 700v-13h-264v-687h-14v687h-264v13h542z" />
<glyph unicode="U" horiz-adv-x="872" d="M732 700v-396q0 -143 -80 -228.5t-216 -85.5t-216 85.5t-80 228.5v396h14v-396q0 -138 76.5 -219.5t205.5 -81.5t205.5 81.5t76.5 219.5v396h14z" />
<glyph unicode="V" horiz-adv-x="764" d="M699 700h15l-323 -700h-18l-323 700h15l317 -686z" />
<glyph unicode="W" horiz-adv-x="1091" d="M1026 700h15l-245 -700h-20l-230 688l-230 -688h-21l-245 700h15l240 -687l230 687h21l230 -687z" />
<glyph unicode="X" horiz-adv-x="726" d="M676 0h-18l-296 348l-294 -348h-18l303 359l-291 341h18l284 -334l282 334h18l-291 -344z" />
<glyph unicode="Y" horiz-adv-x="742" d="M675 700h17l-314 -436v-264h-14v264l-314 436h17l304 -421z" />
<glyph unicode="Z" horiz-adv-x="687" d="M607 700v-16l-522 -671h532v-13h-547v16l522 671h-506v13h521z" />
<glyph unicode="[" horiz-adv-x="279" d="M240 700v-13h-166v-894h166v-13h-180v920h180z" />
<glyph unicode="\" horiz-adv-x="464" d="M50 717h15l350 -734h-15z" />
<glyph unicode="]" horiz-adv-x="279" d="M220 700v-920h-180v13h166v894h-166v13h180z" />
<glyph unicode="^" horiz-adv-x="437" d="M228 710l159 -339h-15l-153 326l-154 -326h-15l160 339h18z" />
<glyph unicode="_" horiz-adv-x="678" d="M628 -103v-13h-578v13h578z" />
<glyph unicode="`" horiz-adv-x="223" d="M50 710l103 -145h-15l-109 145h21z" />
<glyph unicode="a" horiz-adv-x="616" d="M517 323v-323h-13v66q-103 -76 -231 -76q-94 0 -148.5 44.5t-54.5 118.5q0 72 53 110.5t151 38.5h230v21q0 84 -49.5 129.5t-141.5 45.5q-110 0 -199 -71l-8 10q94 73 209 73q97 0 149.5 -49t52.5 -138zM504 81v209h-230q-92 0 -141.5 -35.5t-49.5 -101.5q0 -69 51 -110 t139 -41q128 0 231 79z" />
<glyph unicode="b" horiz-adv-x="668" d="M588 250q2 -106 -78 -184t-187 -76q-119 0 -200 89v-79h-13v700h13v-279q81 89 200 89q107 2 187 -76t78 -184zM575 250q2 100 -74.5 175t-177.5 73q-119 0 -200 -96v-304q81 -96 200 -96q101 -2 177.5 73t74.5 175z" />
<glyph unicode="c" horiz-adv-x="624" d="M541 425l-10 -8q-75 81 -186 81q-101 2 -177.5 -73t-74.5 -175q-2 -100 74.5 -175t177.5 -73q118 0 194 90l10 -8q-81 -94 -204 -94q-107 -2 -187 76t-78 184q-2 106 78 184t187 76q114 0 196 -85z" />
<glyph unicode="d" horiz-adv-x="668" d="M545 700h13v-700h-13v79q-81 -89 -200 -89q-107 -2 -187 76t-78 184q-2 106 78 184t187 76q119 0 200 -89v279zM545 98v304q-81 96 -200 96q-101 2 -177.5 -73t-74.5 -175q-2 -100 74.5 -175t177.5 -73q119 0 200 96z" />
<glyph unicode="e" horiz-adv-x="659" d="M584 250v-12h-491q3 -95 77 -166.5t167 -69.5q113 0 200 82l9 -8q-86 -86 -209 -86q-103 -2 -181.5 76.5t-75.5 183.5q-2 105 74 183.5t178 76.5q114 0 183 -74t69 -186zM93 250h478q0 107 -65.5 177.5t-173.5 70.5q-95 2 -168 -73t-71 -175z" />
<glyph unicode="f" horiz-adv-x="394" d="M140 547v-47h191v-12h-191v-488h-13v488h-97v12h97v47q0 77 41.5 120t112.5 43q42 0 68 -10l-4 -12q-24 10 -64 10q-66 0 -103.5 -39.5t-37.5 -111.5z" />
<glyph unicode="g" horiz-adv-x="668" d="M545 500h13v-438q0 -128 -66.5 -197.5t-181.5 -69.5q-109 0 -198 71l8 9q85 -68 190 -68q109 0 172 66.5t63 188.5v17q-81 -89 -200 -89q-107 -2 -187 76t-78 184q-2 106 78 184t187 76q119 0 200 -89v79zM545 98v304q-81 96 -200 96q-101 2 -177.5 -73t-74.5 -175 q-2 -100 74.5 -175t177.5 -73q119 0 200 96z" />
<glyph unicode="h" horiz-adv-x="672" d="M572 308v-308h-13v308q0 90 -48.5 140t-137.5 50q-66 0 -132.5 -27t-117.5 -75v-396h-13v700h13v-287q112 97 250 97q94 0 146.5 -53.5t52.5 -148.5z" />
<glyph unicode="i" horiz-adv-x="253" d="M140 647q0 -14 -14 -14t-14 14t14 14t14 -14zM133 500v-500h-13v500h13z" />
<glyph unicode="j" horiz-adv-x="262" d="M152 647q0 -14 -14 -14t-14 14t14 14t14 -14zM145 500v-533q0 -76 -46.5 -124t-115.5 -48q-29 0 -53 8l4 11q21 -7 49 -7q63 0 106 44.5t43 115.5v533h13z" />
<glyph unicode="k" horiz-adv-x="581" d="M552 0h-15l-216 310l-198 -178v-132h-13v700h13v-551l390 351h19l-202 -182z" />
<glyph unicode="l" horiz-adv-x="233" d="M123 700v-700h-13v700h13z" />
<glyph unicode="m" horiz-adv-x="1051" d="M516 413q109 97 251 97q85 0 134.5 -53.5t49.5 -148.5v-308h-13v308q0 90 -46 140t-125 50q-140 0 -246 -97q16 -38 16 -93v-308h-13v308q0 90 -46 140t-125 50q-63 0 -115 -22.5t-115 -76.5v-399h-13v500h13v-84q60 51 113.5 72.5t116.5 21.5q118 0 163 -97z" />
<glyph unicode="n" horiz-adv-x="672" d="M572 308v-308h-13v308q0 90 -48.5 140t-137.5 50q-66 0 -132.5 -27t-117.5 -75v-396h-13v500h13v-87q112 97 250 97q94 0 146.5 -53.5t52.5 -148.5z" />
<glyph unicode="o" horiz-adv-x="690" d="M610 250q2 -106 -78 -184t-187 -76q-107 -2 -187 76t-78 184q-2 106 78 184t187 76q107 2 187 -76t78 -184zM93 250q-2 -100 74.5 -175t177.5 -73q101 -2 177.5 73t74.5 175q2 100 -74.5 175t-177.5 73q-101 2 -177.5 -73t-74.5 -175z" />
<glyph unicode="p" horiz-adv-x="673" d="M593 250q2 -106 -75.5 -184t-184.5 -76q-58 0 -113.5 24t-91.5 66v-275h-13v695h13v-78q85 88 205 88q107 2 184.5 -76t75.5 -184zM580 250q0 102 -72.5 175t-174.5 73q-57 0 -112 -24.5t-93 -71.5v-303q36 -45 91 -71t114 -26q102 0 174.5 73t72.5 175z" />
<glyph unicode="q" horiz-adv-x="668" d="M545 500h13v-695h-13v275q-36 -43 -89 -66.5t-111 -23.5q-107 -2 -187 76t-78 184q-2 106 78 184t187 76q118 0 200 -88v78zM545 99v303q-76 96 -200 96q-101 2 -177.5 -73t-74.5 -175q-2 -100 74.5 -175t177.5 -73q59 0 112 25.5t88 71.5z" />
<glyph unicode="r" horiz-adv-x="420" d="M380 510v-12q-144 0 -257 -113v-385h-13v500h13v-98q113 108 257 108z" />
<glyph unicode="s" horiz-adv-x="534" d="M439 459l-7 -10q-74 49 -180 49q-75 0 -117.5 -31t-42.5 -85q0 -41 31.5 -64.5t118.5 -45.5l71 -19q87 -22 116.5 -49.5t29.5 -85.5t-52 -93t-139 -35q-58 0 -116 16t-97 43l7 10q85 -57 206 -57q83 0 130.5 31t47.5 85q0 53 -27 77t-110 46l-70 19q-93 26 -126.5 51 t-33.5 70q0 60 46.5 94.5t126.5 34.5q108 0 187 -51z" />
<glyph unicode="t" horiz-adv-x="430" d="M374 21l6 -11q-42 -20 -81 -20q-70 0 -116.5 48t-46.5 125v325h-106v12h106v158h13v-158h182v-12h-182v-325q0 -72 43 -116.5t107 -44.5q38 0 75 19z" />
<glyph unicode="u" horiz-adv-x="672" d="M549 500h13v-500h-13v87q-112 -97 -250 -97q-94 0 -146.5 53.5t-52.5 148.5v308h13v-308q0 -90 48.5 -140t137.5 -50q66 0 132.5 27t117.5 75v396z" />
<glyph unicode="v" horiz-adv-x="547" d="M503 500h14l-235 -500h-16l-236 500h14l230 -487z" />
<glyph unicode="w" horiz-adv-x="814" d="M785 500l-190 -500h-18l-170 488l-169 -488h-18l-190 500h14l185 -487l169 487h19l169 -487l185 487h14z" />
<glyph unicode="x" horiz-adv-x="522" d="M493 0h-17l-215 253l-214 -253h-17l222 264l-201 236h17l195 -229l193 229h17l-202 -239z" />
<glyph unicode="y" horiz-adv-x="539" d="M510 500l-246 -554q-37 -83 -77 -117t-94 -34q-31 0 -63 12l5 11q30 -11 58 -11q50 0 87 32.5t72 111.5l15 33l-237 516h14l230 -500l222 500h14z" />
<glyph unicode="z" horiz-adv-x="538" d="M452 500v-15l-383 -473h395v-12h-409v15l383 473h-361v12h375z" />
<glyph unicode="{" horiz-adv-x="340" d="M301 700v-13h-27q-93 0 -93 -84v-305q0 -40 -37 -58q37 -18 37 -57v-305q0 -44 22.5 -64.5t70.5 -20.5h27v-13h-27q-107 0 -107 98v305q0 22 -14.5 36.5t-36.5 14.5h-56v13h56q23 0 37 14.5t14 36.5v305q0 97 107 97h27z" />
<glyph unicode="|" horiz-adv-x="294" d="M154 750v-903h-14v903h14z" />
<glyph unicode="}" horiz-adv-x="340" d="M39 700h27q107 0 107 -97v-305q0 -22 14.5 -36.5t36.5 -14.5h56v-13h-56q-22 0 -36.5 -14.5t-14.5 -36.5v-305q0 -98 -107 -98h-27v13h27q48 0 70.5 20.5t22.5 64.5v305q0 39 37 57q-37 18 -37 58v305q0 84 -93 84h-27v13z" />
<glyph unicode="~" horiz-adv-x="600" d="M300 265q54 -53 96 -53q36 0 60 27.5t32 79.5l12 -2q-8 -56 -35.5 -87t-68.5 -31q-45 0 -105 57q-50 49 -89 49q-73 0 -90 -106l-12 2q8 55 35 86t67 31q42 0 98 -53z" />
<glyph unicode="&#xa1;" horiz-adv-x="150" d="M90 495q0 -15 -15 -15t-15 15t15 15t15 -15zM81 361l3 -562h-18l3 562h12z" />
<glyph unicode="&#xa2;" horiz-adv-x="600" d="M328 -118v108q-106 1 -183 78.5t-75 181.5q-2 104 75 181.5t183 78.5v108h13v-108q111 -2 190 -85l-10 -8q-75 81 -186 81q-101 2 -177.5 -73t-74.5 -175q-2 -100 74.5 -175t177.5 -73q118 0 194 90l10 -8q-78 -92 -198 -94v-108h-13z" />
<glyph unicode="&#xa3;" horiz-adv-x="600" d="M536 603l-12 -7q-59 101 -176 101q-95 0 -146 -52.5t-51 -156.5v-143h258v-13h-258v-319h389v-13h-490v13h87v319h-87v13h87v143q0 110 55.5 166t155.5 56q125 0 188 -107z" />
<glyph unicode="&#xa5;" horiz-adv-x="600" d="M563 700l-200 -340h152v-13h-159l-49 -83v-87h208v-13h-208v-164h-14v164h-208v13h208v87l-49 83h-159v13h152l-199 340h16l247 -420l246 420h16z" />
<glyph unicode="&#xa6;" horiz-adv-x="294" d="M154 750v-334h-14v334h14zM154 181v-334h-14v334h14z" />
<glyph unicode="&#xa7;" horiz-adv-x="624" d="M545 -7q0 -74 -66 -113q-65 -40 -159 -40q-67 0 -135 19t-115 51l8 11q45 -32 110.5 -50t131.5 -18q90 0 150 36q61 36 61 104q0 50 -21 77q-21 28 -57 42q-33 13 -107 33l-62 16q-110 30 -148.5 59.5t-38.5 83.5q0 98 104 137q-56 21 -80 47t-24 68q0 77 59 115 q60 39 149 39q126 0 218 -61l-8 -10q-89 58 -210 58q-83 0 -139 -36q-55 -34 -55 -105q0 -46 37 -74.5t144 -54.5l57 -14q66 -16 110 -34q86 -34 86 -132q0 -80 -83 -124q44 -19 63.5 -49t19.5 -81zM289 174l60 -16q65 -17 96 -28q86 37 86 117q0 49 -22 77 q-20 26 -54.5 41.5t-110.5 34.5l-58 15q-46 12 -66 19q-109 -31 -109 -130q0 -48 36 -75t142 -55z" />
<glyph unicode="&#xa8;" horiz-adv-x="223" d="M30 648q0 -14 -13 -14q-14 0 -14 14q0 13 14 13q13 0 13 -13zM219 648q0 -14 -14 -14q-13 0 -13 14q0 13 13 13q14 0 14 -13z" />
<glyph unicode="&#xa9;" horiz-adv-x="879" d="M800 350q2 -95 -47.5 -179t-133.5 -133.5t-179 -47.5q-145 -3 -254 106t-106 254q-3 146 106 254.5t254 105.5q95 2 179 -47.5t133.5 -133.5t47.5 -179zM94 350q-3 -140 101.5 -245t244.5 -102q138 -3 243.5 102.5t102.5 244.5q3 140 -101.5 245t-244.5 102 q-140 3 -244.5 -102t-101.5 -245zM592 474l-10 -8q-55 64 -138 64q-75 0 -128.5 -53t-53.5 -127q0 -76 53 -128t129 -52q83 0 138 64l10 -8q-60 -68 -148 -68q-80 0 -138 56.5t-58 135.5t58 135.5t138 56.5q88 0 148 -68z" />
<glyph unicode="&#xaa;" horiz-adv-x="401" d="M352 580v-217h-13v41q-71 -48 -166 -48q-54 0 -88.5 30.5t-34.5 80.5q0 48 36 74t102 26h151v13q0 57 -32.5 86t-91.5 29q-73 0 -134 -48l-7 9q62 50 141 50q64 0 100.5 -32t36.5 -94zM339 420v136h-151q-125 0 -125 -89q0 -45 30.5 -72.5t79.5 -27.5q99 0 166 53z" />
<glyph unicode="&#xab;" horiz-adv-x="512" d="M196 441l11 -8l-139 -168l139 -168l-11 -8l-146 176zM452 441l11 -8l-139 -168l139 -168l-11 -8l-146 176z" />
<glyph unicode="&#xad;" horiz-adv-x="460" d="M400 266v-13h-340v13h340z" />
<glyph unicode="&#xae;" horiz-adv-x="879" d="M800 350q2 -95 -47.5 -179t-133.5 -133.5t-179 -47.5q-145 -3 -254 106t-106 254q-3 146 106 254.5t254 105.5q95 2 179 -47.5t133.5 -133.5t47.5 -179zM94 350q-3 -140 101.5 -245t244.5 -102q138 -3 243.5 102.5t102.5 244.5q3 140 -101.5 245t-244.5 102 q-140 3 -244.5 -102t-101.5 -245zM596 427q0 -93 -94 -106l112 -158h-16l-110 156q-30 -2 -36 -2h-142v-154h-13v374h155q75 0 109.5 -26.5t34.5 -83.5zM310 525v-196h142q72 0 101.5 22.5t29.5 75.5t-29.5 75.5t-101.5 22.5h-142z" />
<glyph unicode="&#xaf;" horiz-adv-x="223" d="M238 654v-12h-254v12h254z" />
<glyph unicode="&#xb0;" horiz-adv-x="410" d="M360 595q0 -63 -46 -109t-109 -46t-109 46t-46 109t46 109t109 46t109 -46t46 -109zM64 595q0 -58 41.5 -100t99.5 -42t99.5 42t41.5 100t-41.5 100t-99.5 42t-99.5 -42t-41.5 -100z" />
<glyph unicode="&#xb1;" horiz-adv-x="600" d="M500 13v-13h-400v13h400zM500 296v-13h-193v-193h-13v193h-194v13h194v194h13v-194h193z" />
<glyph unicode="&#xb2;" horiz-adv-x="335" d="M42 355h253v-13h-270v14l174 176q43 44 57 66q14 23 14 46q0 45 -30 72t-80 27q-79 0 -129 -74l-11 6q53 81 140 81q55 0 89.5 -30.5t34.5 -80.5q0 -27 -16 -52q-17 -27 -61 -71z" />
<glyph unicode="&#xb3;" horiz-adv-x="348" d="M298 459q0 -56 -40.5 -90.5t-105.5 -34.5q-70 0 -132 44l7 11q62 -42 124 -42q61 0 97 30.5t36 81.5q0 46 -30.5 72.5t-84.5 26.5q-36 0 -73 -14l-4 13l167 180h-217v13h235v-12l-164 -176q27 9 58 9q58 0 92.5 -30.5t34.5 -81.5z" />
<glyph unicode="&#xb4;" horiz-adv-x="223" d="M174 710l-109 -145h-15l103 145h21z" />
<glyph unicode="&#xb6;" horiz-adv-x="757" d="M318 700h299v-853h-14v840h-191v-840h-14v451h-80q-113 0 -175.5 55t-62.5 146t62.5 146t175.5 55z" />
<glyph unicode="&#xb7;" horiz-adv-x="150" d="M90 4q0 -15 -15 -15t-15 15t15 15t15 -15z" />
<glyph unicode="&#xb8;" horiz-adv-x="223" d="M208 -120q0 -37 -29 -61t-71 -24q-54 0 -93 21l7 11q34 -19 86 -19q37 0 61.5 20.5t24.5 51.5q0 29 -20.5 47.5t-50.5 18.5q-39 0 -64 -25l-10 9l35 71h16l-27 -54q23 12 50 12q36 0 60.5 -22t24.5 -57z" />
<glyph unicode="&#xb9;" horiz-adv-x="187" d="M113 756v-414h-14v401l-89 -20v13l91 20h12z" />
<glyph unicode="&#xba;" horiz-adv-x="457" d="M407 531q0 -72 -52.5 -123.5t-125.5 -51.5q-74 0 -126.5 51.5t-52.5 123.5t52.5 123.5t126.5 51.5q73 0 125.5 -51.5t52.5 -123.5zM63 531q0 -67 49 -115.5t117 -48.5t117 48.5t49 115.5t-49 115.5t-117 48.5t-117 -48.5t-49 -115.5z" />
<glyph unicode="&#xbb;" horiz-adv-x="512" d="M61 441l146 -176l-146 -176l-11 8l139 168l-139 168zM317 441l146 -176l-146 -176l-11 8l139 168l-139 168z" />
<glyph unicode="&#xbc;" horiz-adv-x="638" d="M113 686v-414h-14v401l-89 -20v13l91 20h12zM496 687l-443 -704h-16l443 704h16zM522 141h86v-13h-86v-128h-14v128h-227v14l228 266h13v-267zM297 141h211v246z" />
<glyph unicode="&#xbd;" horiz-adv-x="631" d="M113 686v-414h-14v401l-89 -20v13l91 20h12zM471 687l-443 -704h-16l443 704h16zM338 13h253v-13h-270v14l174 176q43 44 57 66q14 23 14 46q0 45 -30 72t-80 27q-79 0 -129 -74l-11 6q52 81 140 81q55 0 89.5 -30.5t34.5 -80.5q0 -27 -16 -52q-17 -27 -61 -71z" />
<glyph unicode="&#xbe;" horiz-adv-x="759" d="M298 389q0 -56 -40.5 -90.5t-105.5 -34.5q-70 0 -132 44l7 11q62 -42 124 -42q61 0 97 30.5t36 81.5q0 46 -30.5 72.5t-84.5 26.5q-36 0 -73 -14l-4 13l167 180h-217v13h235v-12l-164 -176q27 9 58 9q58 0 92.5 -30.5t34.5 -81.5zM632 687l-443 -704h-16l443 704h16z M643 141h86v-13h-86v-128h-14v128h-227v14l228 266h13v-267zM418 141h211v246z" />
<glyph unicode="&#xbf;" horiz-adv-x="539" d="M283 501q0 -15 -15 -15t-15 15t15 15t15 -15zM60 -24q0 45 20 81t68 81l19 17q57 51 73.5 80t20.5 93l1 39h12l1 -39q1 -40 -10 -73q-11 -28 -28.5 -49t-59.5 -60l-20 -18q-46 -41 -64.5 -74.5t-18.5 -76.5q0 -77 50.5 -123t135.5 -46q86 0 141 47.5t64 130.5l14 -1 q-10 -88 -69 -139t-150 -51t-145.5 49.5t-54.5 131.5z" />
<glyph unicode="&#xc0;" horiz-adv-x="781" d="M716 0l-102 216h-446l-103 -216h-15l332 700h18l331 -700h-15zM174 229h434l-217 458zM330 910l103 -145h-15l-109 145h21z" />
<glyph unicode="&#xc1;" horiz-adv-x="781" d="M716 0l-102 216h-446l-103 -216h-15l332 700h18l331 -700h-15zM174 229h434l-217 458zM473 910l-109 -145h-15l103 145h21z" />
<glyph unicode="&#xc2;" horiz-adv-x="781" d="M716 0l-102 216h-446l-103 -216h-15l332 700h18l331 -700h-15zM174 229h434l-217 458zM400 910l120 -145h-15l-114 135l-113 -135h-15l120 145h17z" />
<glyph unicode="&#xc3;" horiz-adv-x="781" d="M716 0l-102 216h-446l-103 -216h-15l332 700h18l331 -700h-15zM174 229h434l-217 458zM310 900q32 0 86 -39q50 -36 77 -36q26 0 44.5 18.5t23.5 51.5l14 -2q-7 -37 -29.5 -59.5t-52.5 -22.5q-33 0 -85 39q-50 36 -78 36q-26 0 -44.5 -18.5t-23.5 -51.5l-14 2 q7 37 29.5 59.5t52.5 22.5z" />
<glyph unicode="&#xc4;" horiz-adv-x="781" d="M716 0l-102 216h-446l-103 -216h-15l332 700h18l331 -700h-15zM174 229h434l-217 458zM310 848q0 -14 -13 -14q-14 0 -14 14q0 13 14 13q13 0 13 -13zM499 848q0 -14 -14 -14q-13 0 -13 14q0 13 13 13q14 0 14 -13z" />
<glyph unicode="&#xc5;" horiz-adv-x="781" d="M716 0l-102 216h-446l-103 -216h-15l332 700h18l331 -700h-15zM174 229h434l-217 458zM499 845q0 -42 -32 -74q-31 -31 -75 -31q-45 0 -76.5 30.5t-31.5 74.5t31.5 74.5t76.5 30.5q44 0 75 -31q32 -32 32 -74zM298 845q0 -38 27.5 -65t66.5 -27q38 0 65.5 27t27.5 65 t-27.5 65t-65.5 27q-39 0 -66.5 -27t-27.5 -65z" />
<glyph unicode="&#xc6;" horiz-adv-x="983" d="M445 13h469v-13h-483v216h-258l-118 -216h-15l382 700h480v-13h-457v-327h419v-13h-419v-334zM180 229h251v459z" />
<glyph unicode="&#xc7;" horiz-adv-x="810" d="M730 122l10 -9q-107 -121 -268 -123l-22 -43q22 12 50 12q36 0 60.5 -22t24.5 -57q0 -37 -29 -61t-71 -24q-54 0 -93 21l7 11q34 -19 86 -19q37 0 61.5 20.5t24.5 51.5q0 29 -20.5 47.5t-50.5 18.5q-39 0 -64 -25l-10 9l30 60q-145 0 -252 108.5t-104 251.5q-2 95 48 179 t135 133.5t182 47.5q80 0 152 -32.5t123 -90.5l-11 -9q-106 119 -264 119q-93 2 -175 -45.5t-130 -128.5t-46 -173q-2 -92 46 -173t130 -128.5t175 -45.5q160 0 265 119z" />
<glyph unicode="&#xc8;" horiz-adv-x="712" d="M631 700v-13h-477v-327h439v-13h-439v-334h489v-13h-503v700h491zM321 910l103 -145h-15l-109 145h21z" />
<glyph unicode="&#xc9;" horiz-adv-x="712" d="M631 700v-13h-477v-327h439v-13h-439v-334h489v-13h-503v700h491zM464 910l-109 -145h-15l103 145h21z" />
<glyph unicode="&#xca;" horiz-adv-x="712" d="M631 700v-13h-477v-327h439v-13h-439v-334h489v-13h-503v700h491zM391 910l120 -145h-15l-114 135l-113 -135h-15l120 145h17z" />
<glyph unicode="&#xcb;" horiz-adv-x="712" d="M631 700v-13h-477v-327h439v-13h-439v-334h489v-13h-503v700h491zM301 848q0 -14 -13 -14q-14 0 -14 14q0 13 14 13q13 0 13 -13zM490 848q0 -14 -14 -14q-13 0 -13 14q0 13 13 13q14 0 14 -13z" />
<glyph unicode="&#xcc;" horiz-adv-x="294" d="M154 700v-700h-14v700h14zM86 910l103 -145h-15l-109 145h21z" />
<glyph unicode="&#xcd;" horiz-adv-x="294" d="M154 700v-700h-14v700h14zM229 910l-109 -145h-15l103 145h21z" />
<glyph unicode="&#xce;" horiz-adv-x="294" d="M154 700v-700h-14v700h14zM156 910l120 -145h-15l-114 135l-113 -135h-15l120 145h17z" />
<glyph unicode="&#xcf;" horiz-adv-x="294" d="M154 700v-700h-14v700h14zM66 848q0 -14 -13 -14q-14 0 -14 14q0 13 14 13q13 0 13 -13zM255 848q0 -14 -14 -14q-13 0 -13 14q0 13 13 13q14 0 14 -13z" />
<glyph unicode="&#xd0;" horiz-adv-x="858" d="M758 350q3 -145 -106.5 -248.5t-258.5 -101.5h-253v344h-90v13h90v343h253q149 2 258.5 -101.5t106.5 -248.5zM744 350q3 139 -103 239t-248 98h-239v-330h236v-13h-236v-331h239q142 -2 248 98t103 239z" />
<glyph unicode="&#xd1;" horiz-adv-x="863" d="M709 700h14v-700h-22l-547 687v-687h-14v700h22l547 -687v687zM350 900q32 0 86 -39q50 -36 77 -36q26 0 44.5 18.5t23.5 51.5l14 -2q-7 -37 -29.5 -59.5t-52.5 -22.5q-33 0 -85 39q-50 36 -78 36q-26 0 -44.5 -18.5t-23.5 -51.5l-14 2q7 37 29.5 59.5t52.5 22.5z" />
<glyph unicode="&#xd2;" horiz-adv-x="930" d="M830 350q2 -95 -48 -179t-135 -133.5t-182 -47.5q-97 -2 -182 47.5t-135 133.5t-48 179q-2 95 48 179t135 133.5t182 47.5q97 2 182 -47.5t135 -133.5t48 -179zM114 350q-2 -92 46 -173t130 -128.5t175 -45.5q142 -3 248 102t103 245q3 140 -103 245t-248 102 q-93 2 -175 -45.5t-130 -128.5t-46 -173zM404 910l103 -145h-15l-109 145h21z" />
<glyph unicode="&#xd3;" horiz-adv-x="930" d="M830 350q2 -95 -48 -179t-135 -133.5t-182 -47.5q-97 -2 -182 47.5t-135 133.5t-48 179q-2 95 48 179t135 133.5t182 47.5q97 2 182 -47.5t135 -133.5t48 -179zM114 350q-2 -92 46 -173t130 -128.5t175 -45.5q142 -3 248 102t103 245q3 140 -103 245t-248 102 q-93 2 -175 -45.5t-130 -128.5t-46 -173zM547 910l-109 -145h-15l103 145h21z" />
<glyph unicode="&#xd4;" horiz-adv-x="930" d="M830 350q2 -95 -48 -179t-135 -133.5t-182 -47.5q-97 -2 -182 47.5t-135 133.5t-48 179q-2 95 48 179t135 133.5t182 47.5q97 2 182 -47.5t135 -133.5t48 -179zM114 350q-2 -92 46 -173t130 -128.5t175 -45.5q142 -3 248 102t103 245q3 140 -103 245t-248 102 q-93 2 -175 -45.5t-130 -128.5t-46 -173zM474 910l120 -145h-15l-114 135l-113 -135h-15l120 145h17z" />
<glyph unicode="&#xd5;" horiz-adv-x="930" d="M830 350q2 -95 -48 -179t-135 -133.5t-182 -47.5q-97 -2 -182 47.5t-135 133.5t-48 179q-2 95 48 179t135 133.5t182 47.5q97 2 182 -47.5t135 -133.5t48 -179zM114 350q-2 -92 46 -173t130 -128.5t175 -45.5q142 -3 248 102t103 245q3 140 -103 245t-248 102 q-93 2 -175 -45.5t-130 -128.5t-46 -173zM384 900q32 0 86 -39q50 -36 77 -36q26 0 44.5 18.5t23.5 51.5l14 -2q-7 -37 -29.5 -59.5t-52.5 -22.5q-33 0 -85 39q-50 36 -78 36q-26 0 -44.5 -18.5t-23.5 -51.5l-14 2q7 37 29.5 59.5t52.5 22.5z" />
<glyph unicode="&#xd6;" horiz-adv-x="930" d="M830 350q2 -95 -48 -179t-135 -133.5t-182 -47.5q-97 -2 -182 47.5t-135 133.5t-48 179q-2 95 48 179t135 133.5t182 47.5q97 2 182 -47.5t135 -133.5t48 -179zM114 350q-2 -92 46 -173t130 -128.5t175 -45.5q142 -3 248 102t103 245q3 140 -103 245t-248 102 q-93 2 -175 -45.5t-130 -128.5t-46 -173zM384 848q0 -14 -13 -14q-14 0 -14 14q0 13 14 13q13 0 13 -13zM573 848q0 -14 -14 -14q-13 0 -13 14q0 13 13 13q14 0 14 -13z" />
<glyph unicode="&#xd7;" horiz-adv-x="600" d="M461 411l-151 -151l150 -151l-9 -10l-151 151l-151 -151l-9 10l151 151l-152 151l10 9l151 -151l151 151z" />
<glyph unicode="&#xd8;" horiz-adv-x="930" d="M830 350q2 -95 -48 -179t-135 -133.5t-182 -47.5q-80 0 -149 31l-34 -71h-15l37 77q-92 45 -148 131q-56 88 -56 192q-2 95 48 179t135 133.5t182 47.5q80 0 149 -31l34 71h15l-37 -77q93 -46 148 -132q56 -86 56 -191zM309 39l299 628q-68 30 -143 30q-93 2 -175 -45.5 t-130 -128.5t-46 -173q0 -100 53 -185q54 -83 142 -126zM816 350q0 101 -54 184q-52 83 -141 127l-299 -628q68 -30 143 -30q142 -3 248 102t103 245z" />
<glyph unicode="&#xd9;" horiz-adv-x="872" d="M732 700v-396q0 -143 -80 -228.5t-216 -85.5t-216 85.5t-80 228.5v396h14v-396q0 -138 76.5 -219.5t205.5 -81.5t205.5 81.5t76.5 219.5v396h14zM375 910l103 -145h-15l-109 145h21z" />
<glyph unicode="&#xda;" horiz-adv-x="872" d="M732 700v-396q0 -143 -80 -228.5t-216 -85.5t-216 85.5t-80 228.5v396h14v-396q0 -138 76.5 -219.5t205.5 -81.5t205.5 81.5t76.5 219.5v396h14zM518 910l-109 -145h-15l103 145h21z" />
<glyph unicode="&#xdb;" horiz-adv-x="872" d="M732 700v-396q0 -143 -80 -228.5t-216 -85.5t-216 85.5t-80 228.5v396h14v-396q0 -138 76.5 -219.5t205.5 -81.5t205.5 81.5t76.5 219.5v396h14zM445 910l120 -145h-15l-114 135l-113 -135h-15l120 145h17z" />
<glyph unicode="&#xdc;" horiz-adv-x="872" d="M732 700v-396q0 -143 -80 -228.5t-216 -85.5t-216 85.5t-80 228.5v396h14v-396q0 -138 76.5 -219.5t205.5 -81.5t205.5 81.5t76.5 219.5v396h14zM355 848q0 -14 -13 -14q-14 0 -14 14q0 13 14 13q13 0 13 -13zM544 848q0 -14 -14 -14q-13 0 -13 14q0 13 13 13 q14 0 14 -13z" />
<glyph unicode="&#xdd;" horiz-adv-x="742" d="M675 700h17l-314 -436v-264h-14v264l-314 436h17l304 -421zM453 910l-109 -145h-15l103 145h21z" />
<glyph unicode="&#xde;" horiz-adv-x="762" d="M154 700v-110h253q142 0 209 -54t67 -168q0 -115 -66.5 -169.5t-207.5 -54.5h-255v-144h-14v700h14zM407 577h-253v-420h255q134 0 197 50.5t63 159.5t-63 159.5t-199 50.5z" />
<glyph unicode="&#xdf;" horiz-adv-x="708" d="M110 0v510q0 91 60.5 145.5t163.5 54.5q85 0 138 -37t53 -97q0 -33 -21.5 -61t-73.5 -61q-45 -29 -61.5 -48.5t-16.5 -43.5q0 -30 27.5 -49.5t95.5 -37.5q91 -25 129.5 -56.5t38.5 -81.5q0 -67 -55 -107t-148 -40q-103 0 -201 59l7 11q98 -57 194 -57q88 0 139 35.5 t51 96.5q0 46 -35.5 74.5t-120.5 51.5q-75 20 -105 43t-30 58q0 29 19.5 51.5t66.5 51.5q44 29 65.5 54t21.5 57q0 54 -49.5 87.5t-128.5 33.5q-98 0 -154 -51t-56 -136v-510h-14z" />
<glyph unicode="&#xe0;" horiz-adv-x="616" d="M517 323v-323h-13v66q-103 -76 -231 -76q-94 0 -148.5 44.5t-54.5 118.5q0 72 53 110.5t151 38.5h230v21q0 84 -49.5 129.5t-141.5 45.5q-110 0 -199 -71l-8 10q94 73 209 73q97 0 149.5 -49t52.5 -138zM504 81v209h-230q-92 0 -141.5 -35.5t-49.5 -101.5q0 -69 51 -110 t139 -41q128 0 231 79zM247 710l103 -145h-15l-109 145h21z" />
<glyph unicode="&#xe1;" horiz-adv-x="616" d="M517 323v-323h-13v66q-103 -76 -231 -76q-94 0 -148.5 44.5t-54.5 118.5q0 72 53 110.5t151 38.5h230v21q0 84 -49.5 129.5t-141.5 45.5q-110 0 -199 -71l-8 10q94 73 209 73q97 0 149.5 -49t52.5 -138zM504 81v209h-230q-92 0 -141.5 -35.5t-49.5 -101.5q0 -69 51 -110 t139 -41q128 0 231 79zM390 710l-109 -145h-15l103 145h21z" />
<glyph unicode="&#xe2;" horiz-adv-x="616" d="M517 323v-323h-13v66q-103 -76 -231 -76q-94 0 -148.5 44.5t-54.5 118.5q0 72 53 110.5t151 38.5h230v21q0 84 -49.5 129.5t-141.5 45.5q-110 0 -199 -71l-8 10q94 73 209 73q97 0 149.5 -49t52.5 -138zM504 81v209h-230q-92 0 -141.5 -35.5t-49.5 -101.5q0 -69 51 -110 t139 -41q128 0 231 79zM317 710l120 -145h-15l-114 135l-113 -135h-15l120 145h17z" />
<glyph unicode="&#xe3;" horiz-adv-x="616" d="M517 323v-323h-13v66q-103 -76 -231 -76q-94 0 -148.5 44.5t-54.5 118.5q0 72 53 110.5t151 38.5h230v21q0 84 -49.5 129.5t-141.5 45.5q-110 0 -199 -71l-8 10q94 73 209 73q97 0 149.5 -49t52.5 -138zM504 81v209h-230q-92 0 -141.5 -35.5t-49.5 -101.5q0 -69 51 -110 t139 -41q128 0 231 79zM227 700q32 0 86 -39q50 -36 77 -36q26 0 44.5 18.5t23.5 51.5l14 -2q-7 -37 -29.5 -59.5t-52.5 -22.5q-33 0 -85 39q-50 36 -78 36q-26 0 -44.5 -18.5t-23.5 -51.5l-14 2q7 37 29.5 59.5t52.5 22.5z" />
<glyph unicode="&#xe4;" horiz-adv-x="616" d="M517 323v-323h-13v66q-103 -76 -231 -76q-94 0 -148.5 44.5t-54.5 118.5q0 72 53 110.5t151 38.5h230v21q0 84 -49.5 129.5t-141.5 45.5q-110 0 -199 -71l-8 10q94 73 209 73q97 0 149.5 -49t52.5 -138zM504 81v209h-230q-92 0 -141.5 -35.5t-49.5 -101.5q0 -69 51 -110 t139 -41q128 0 231 79zM227 648q0 -14 -13 -14q-14 0 -14 14q0 13 14 13q13 0 13 -13zM416 648q0 -14 -14 -14q-13 0 -13 14q0 13 13 13q14 0 14 -13z" />
<glyph unicode="&#xe5;" horiz-adv-x="616" d="M517 323v-323h-13v66q-103 -76 -231 -76q-94 0 -148.5 44.5t-54.5 118.5q0 72 53 110.5t151 38.5h230v21q0 84 -49.5 129.5t-141.5 45.5q-110 0 -199 -71l-8 10q94 73 209 73q97 0 149.5 -49t52.5 -138zM504 81v209h-230q-92 0 -141.5 -35.5t-49.5 -101.5q0 -69 51 -110 t139 -41q128 0 231 79zM416 645q0 -42 -32 -74q-31 -31 -75 -31q-45 0 -76.5 30.5t-31.5 74.5t31.5 74.5t76.5 30.5q44 0 75 -31q32 -32 32 -74zM215 645q0 -38 27.5 -65t66.5 -27q38 0 65.5 27t27.5 65t-27.5 65t-65.5 27q-39 0 -66.5 -27t-27.5 -65z" />
<glyph unicode="&#xe6;" horiz-adv-x="1084" d="M1009 250v-12h-491q3 -95 77 -166.5t167 -69.5q113 0 200 82l9 -8q-86 -86 -209 -86q-65 0 -122 31.5t-93 85.5q-57 -56 -126.5 -86.5t-133.5 -30.5q-101 0 -159 44t-58 119q0 72 53.5 110.5t151.5 38.5h230v21q0 84 -49.5 129.5t-141.5 45.5q-110 0 -199 -71l-8 10 q94 73 209 73q94 0 146.5 -46t55.5 -132q25 79 91 128q67 50 148 50q114 0 183 -74t69 -186zM518 250h478q0 107 -65.5 177.5t-173.5 70.5q-95 2 -168 -73t-71 -175zM541 117q-36 62 -36 133v40h-230q-92 0 -141.5 -35.5t-49.5 -101.5q0 -69 54 -110t149 -41q62 0 130 30 t124 85z" />
<glyph unicode="&#xe7;" horiz-adv-x="624" d="M322 -9l-22 -44q22 12 50 12q36 0 60.5 -22t24.5 -57q0 -37 -29 -61t-71 -24q-54 0 -93 21l7 11q34 -19 86 -19q37 0 61.5 20.5t24.5 51.5q0 29 -20.5 47.5t-50.5 18.5q-39 0 -64 -25l-10 9l31 63q-96 14 -161.5 87.5t-65.5 169.5q-2 106 78 184t187 76q114 0 196 -85 l-10 -8q-75 81 -186 81q-101 2 -177.5 -73t-74.5 -175q-2 -100 74.5 -175t177.5 -73q118 0 194 90l10 -8q-81 -94 -204 -94q-18 0 -23 1z" />
<glyph unicode="&#xe8;" horiz-adv-x="659" d="M584 250v-12h-491q3 -95 77 -166.5t167 -69.5q113 0 200 82l9 -8q-86 -86 -209 -86q-103 -2 -181.5 76.5t-75.5 183.5q-2 105 74 183.5t178 76.5q114 0 183 -74t69 -186zM93 250h478q0 107 -65.5 177.5t-173.5 70.5q-95 2 -168 -73t-71 -175zM269 710l103 -145h-15 l-109 145h21z" />
<glyph unicode="&#xe9;" horiz-adv-x="659" d="M584 250v-12h-491q3 -95 77 -166.5t167 -69.5q113 0 200 82l9 -8q-86 -86 -209 -86q-103 -2 -181.5 76.5t-75.5 183.5q-2 105 74 183.5t178 76.5q114 0 183 -74t69 -186zM93 250h478q0 107 -65.5 177.5t-173.5 70.5q-95 2 -168 -73t-71 -175zM412 710l-109 -145h-15 l103 145h21z" />
<glyph unicode="&#xea;" horiz-adv-x="659" d="M584 250v-12h-491q3 -95 77 -166.5t167 -69.5q113 0 200 82l9 -8q-86 -86 -209 -86q-103 -2 -181.5 76.5t-75.5 183.5q-2 105 74 183.5t178 76.5q114 0 183 -74t69 -186zM93 250h478q0 107 -65.5 177.5t-173.5 70.5q-95 2 -168 -73t-71 -175zM339 710l120 -145h-15 l-114 135l-113 -135h-15l120 145h17z" />
<glyph unicode="&#xeb;" horiz-adv-x="659" d="M584 250v-12h-491q3 -95 77 -166.5t167 -69.5q113 0 200 82l9 -8q-86 -86 -209 -86q-103 -2 -181.5 76.5t-75.5 183.5q-2 105 74 183.5t178 76.5q114 0 183 -74t69 -186zM93 250h478q0 107 -65.5 177.5t-173.5 70.5q-95 2 -168 -73t-71 -175zM249 648q0 -14 -13 -14 q-14 0 -14 14q0 13 14 13q13 0 13 -13zM438 648q0 -14 -14 -14q-13 0 -13 14q0 13 13 13q14 0 14 -13z" />
<glyph unicode="&#xec;" horiz-adv-x="253" d="M133 500v-500h-13v500h13zM69 710l103 -145h-15l-109 145h21z" />
<glyph unicode="&#xed;" horiz-adv-x="253" d="M133 500v-500h-13v500h13zM212 710l-109 -145h-15l103 145h21z" />
<glyph unicode="&#xee;" horiz-adv-x="253" d="M133 500v-500h-13v500h13zM139 710l120 -145h-15l-114 135l-113 -135h-15l120 145h17z" />
<glyph unicode="&#xef;" horiz-adv-x="253" d="M133 500v-500h-13v500h13zM49 648q0 -14 -13 -14q-14 0 -14 14q0 13 14 13q13 0 13 -13zM238 648q0 -14 -14 -14q-13 0 -13 14q0 13 13 13q14 0 14 -13z" />
<glyph unicode="&#xf0;" horiz-adv-x="653" d="M563 279q0 -135 -65.5 -211.5t-179.5 -76.5q-105 0 -171.5 65t-66.5 167q0 106 70 176.5t176 70.5q66 0 124 -29t92 -78q-26 158 -144 252l-86 -81l-10 10l85 80q-79 60 -182 72l2 14q106 -12 191 -76l81 76l10 -10l-80 -75q132 -107 151 -295l1 -1v-1q2 -42 2 -49z M549 279q0 4 -2 50q-31 59 -90 93.5t-131 34.5q-100 0 -166 -66.5t-66 -167.5q0 -98 62 -158.5t162 -60.5q109 0 170 73t61 202z" />
<glyph unicode="&#xf1;" horiz-adv-x="672" d="M572 308v-308h-13v308q0 90 -48.5 140t-137.5 50q-66 0 -132.5 -27t-117.5 -75v-396h-13v500h13v-87q112 97 250 97q94 0 146.5 -53.5t52.5 -148.5zM260 700q32 0 86 -39q50 -36 77 -36q26 0 44.5 18.5t23.5 51.5l14 -2q-7 -37 -29.5 -59.5t-52.5 -22.5q-33 0 -85 39 q-50 36 -78 36q-26 0 -44.5 -18.5t-23.5 -51.5l-14 2q7 37 29.5 59.5t52.5 22.5z" />
<glyph unicode="&#xf2;" horiz-adv-x="690" d="M610 250q2 -106 -78 -184t-187 -76q-107 -2 -187 76t-78 184q-2 106 78 184t187 76q107 2 187 -76t78 -184zM93 250q-2 -100 74.5 -175t177.5 -73q101 -2 177.5 73t74.5 175q2 100 -74.5 175t-177.5 73q-101 2 -177.5 -73t-74.5 -175zM284 710l103 -145h-15l-109 145h21z " />
<glyph unicode="&#xf3;" horiz-adv-x="690" d="M610 250q2 -106 -78 -184t-187 -76q-107 -2 -187 76t-78 184q-2 106 78 184t187 76q107 2 187 -76t78 -184zM93 250q-2 -100 74.5 -175t177.5 -73q101 -2 177.5 73t74.5 175q2 100 -74.5 175t-177.5 73q-101 2 -177.5 -73t-74.5 -175zM427 710l-109 -145h-15l103 145h21z " />
<glyph unicode="&#xf4;" horiz-adv-x="690" d="M610 250q2 -106 -78 -184t-187 -76q-107 -2 -187 76t-78 184q-2 106 78 184t187 76q107 2 187 -76t78 -184zM93 250q-2 -100 74.5 -175t177.5 -73q101 -2 177.5 73t74.5 175q2 100 -74.5 175t-177.5 73q-101 2 -177.5 -73t-74.5 -175zM354 710l120 -145h-15l-114 135 l-113 -135h-15l120 145h17z" />
<glyph unicode="&#xf5;" horiz-adv-x="690" d="M610 250q2 -106 -78 -184t-187 -76q-107 -2 -187 76t-78 184q-2 106 78 184t187 76q107 2 187 -76t78 -184zM93 250q-2 -100 74.5 -175t177.5 -73q101 -2 177.5 73t74.5 175q2 100 -74.5 175t-177.5 73q-101 2 -177.5 -73t-74.5 -175zM264 700q32 0 86 -39q50 -36 77 -36 q26 0 44.5 18.5t23.5 51.5l14 -2q-7 -37 -29.5 -59.5t-52.5 -22.5q-33 0 -85 39q-50 36 -78 36q-26 0 -44.5 -18.5t-23.5 -51.5l-14 2q7 37 29.5 59.5t52.5 22.5z" />
<glyph unicode="&#xf6;" horiz-adv-x="690" d="M610 250q2 -106 -78 -184t-187 -76q-107 -2 -187 76t-78 184q-2 106 78 184t187 76q107 2 187 -76t78 -184zM93 250q-2 -100 74.5 -175t177.5 -73q101 -2 177.5 73t74.5 175q2 100 -74.5 175t-177.5 73q-101 2 -177.5 -73t-74.5 -175zM264 648q0 -14 -13 -14 q-14 0 -14 14q0 13 14 13q13 0 13 -13zM453 648q0 -14 -14 -14q-13 0 -13 14q0 13 13 13q14 0 14 -13z" />
<glyph unicode="&#xf7;" horiz-adv-x="600" d="M315 425q0 -15 -15 -15t-15 15t15 15t15 -15zM500 266v-13h-400v13h400zM315 94q0 -15 -15 -15t-15 15t15 15t15 -15z" />
<glyph unicode="&#xf8;" horiz-adv-x="690" d="M610 250q2 -106 -78 -184t-187 -76q-53 0 -106 21l-29 -61h-16l32 67q-67 33 -106.5 96t-39.5 137q-2 106 78 184t187 76q55 0 106 -22l29 62h16l-32 -68q67 -33 106.5 -95.5t39.5 -136.5zM231 29l214 448q-46 21 -100 21q-101 2 -177.5 -73t-74.5 -175 q0 -71 37.5 -130.5t100.5 -90.5zM597 250q0 71 -38 130.5t-101 90.5l-213 -448q46 -21 100 -21q101 -2 177.5 73t74.5 175z" />
<glyph unicode="&#xf9;" horiz-adv-x="672" d="M549 500h13v-500h-13v87q-112 -97 -250 -97q-94 0 -146.5 53.5t-52.5 148.5v308h13v-308q0 -90 48.5 -140t137.5 -50q66 0 132.5 27t117.5 75v396zM270 710l103 -145h-15l-109 145h21z" />
<glyph unicode="&#xfa;" horiz-adv-x="672" d="M549 500h13v-500h-13v87q-112 -97 -250 -97q-94 0 -146.5 53.5t-52.5 148.5v308h13v-308q0 -90 48.5 -140t137.5 -50q66 0 132.5 27t117.5 75v396zM413 710l-109 -145h-15l103 145h21z" />
<glyph unicode="&#xfb;" horiz-adv-x="672" d="M549 500h13v-500h-13v87q-112 -97 -250 -97q-94 0 -146.5 53.5t-52.5 148.5v308h13v-308q0 -90 48.5 -140t137.5 -50q66 0 132.5 27t117.5 75v396zM340 710l120 -145h-15l-114 135l-113 -135h-15l120 145h17z" />
<glyph unicode="&#xfc;" horiz-adv-x="672" d="M549 500h13v-500h-13v87q-112 -97 -250 -97q-94 0 -146.5 53.5t-52.5 148.5v308h13v-308q0 -90 48.5 -140t137.5 -50q66 0 132.5 27t117.5 75v396zM250 648q0 -14 -13 -14q-14 0 -14 14q0 13 14 13q13 0 13 -13zM439 648q0 -14 -14 -14q-13 0 -13 14q0 13 13 13 q14 0 14 -13z" />
<glyph unicode="&#xfd;" horiz-adv-x="539" d="M510 500l-246 -554q-37 -83 -77 -117t-94 -34q-31 0 -63 12l5 11q30 -11 58 -11q50 0 87 32.5t72 111.5l15 33l-237 516h14l230 -500l222 500h14zM352 710l-109 -145h-15l103 145h21z" />
<glyph unicode="&#xfe;" horiz-adv-x="673" d="M593 250q2 -106 -78 -184t-187 -76q-58 0 -111 23.5t-89 66.5v-275h-13v895h13v-278q82 88 200 88q107 2 187 -76t78 -184zM580 250q2 100 -74.5 175t-177.5 73q-124 0 -200 -96v-303q35 -46 88 -71.5t112 -25.5q101 -2 177.5 73t74.5 175z" />
<glyph unicode="&#xff;" horiz-adv-x="539" d="M510 500l-246 -554q-37 -83 -77 -117t-94 -34q-31 0 -63 12l5 11q30 -11 58 -11q50 0 87 32.5t72 111.5l15 33l-237 516h14l230 -500l222 500h14zM189 648q0 -14 -13 -14q-14 0 -14 14q0 13 14 13q13 0 13 -13zM378 648q0 -14 -14 -14q-13 0 -13 14q0 13 13 13 q14 0 14 -13z" />
<glyph unicode="&#x100;" horiz-adv-x="781" d="M716 0l-102 216h-446l-103 -216h-15l332 700h18l331 -700h-15zM174 229h434l-217 458zM518 854v-12h-254v12h254z" />
<glyph unicode="&#x101;" horiz-adv-x="616" d="M517 323v-323h-13v66q-103 -76 -231 -76q-94 0 -148.5 44.5t-54.5 118.5q0 72 53 110.5t151 38.5h230v21q0 84 -49.5 129.5t-141.5 45.5q-110 0 -199 -71l-8 10q94 73 209 73q97 0 149.5 -49t52.5 -138zM504 81v209h-230q-92 0 -141.5 -35.5t-49.5 -101.5q0 -69 51 -110 t139 -41q128 0 231 79zM435 654v-12h-254v12h254z" />
<glyph unicode="&#x102;" horiz-adv-x="781" d="M716 0l-102 216h-446l-103 -216h-15l332 700h18l331 -700h-15zM174 229h434l-217 458zM392 776q-64 0 -104 34t-44 93l14 1q4 -54 40 -84.5t94 -30.5t93.5 30.5t39.5 84.5l14 -1q-4 -59 -44 -93t-103 -34z" />
<glyph unicode="&#x103;" horiz-adv-x="616" d="M517 323v-323h-13v66q-103 -76 -231 -76q-94 0 -148.5 44.5t-54.5 118.5q0 72 53 110.5t151 38.5h230v21q0 84 -49.5 129.5t-141.5 45.5q-110 0 -199 -71l-8 10q94 73 209 73q97 0 149.5 -49t52.5 -138zM504 81v209h-230q-92 0 -141.5 -35.5t-49.5 -101.5q0 -69 51 -110 t139 -41q128 0 231 79zM309 576q-64 0 -104 34t-44 93l14 1q4 -54 40 -84.5t94 -30.5t93.5 30.5t39.5 84.5l14 -1q-4 -59 -44 -93t-103 -34z" />
<glyph unicode="&#x104;" horiz-adv-x="781" d="M826 -163l9 -10q-34 -31 -79 -31q-42 0 -70 24.5t-28 63.5q0 43 35 87l23 29l-102 216h-446l-103 -216h-15l332 700h18l331 -700l-29 -37q-30 -40 -30 -79q0 -33 24 -54t60 -21q39 0 70 28zM174 229h434l-217 458z" />
<glyph unicode="&#x105;" horiz-adv-x="616" d="M610 -162l9 -10q-34 -31 -79 -31q-42 0 -70 24.5t-28 63.5q0 40 39 88l23 29v64q-103 -76 -231 -76q-94 0 -148.5 44.5t-54.5 118.5q0 72 53 110.5t151 38.5h230v21q0 84 -49.5 129.5t-141.5 45.5q-110 0 -199 -71l-8 10q94 73 209 73q97 0 149.5 -49t52.5 -138v-323 l-29 -36q-32 -40 -32 -79q0 -33 24 -54t60 -21q39 0 70 28zM504 81v209h-230q-92 0 -141.5 -35.5t-49.5 -101.5q0 -69 51 -110t139 -41q128 0 231 79z" />
<glyph unicode="&#x106;" horiz-adv-x="810" d="M740 587l-11 -9q-106 119 -264 119q-93 2 -175 -45.5t-130 -128.5t-46 -173q-2 -92 46 -173t130 -128.5t175 -45.5q160 0 265 119l10 -9q-51 -58 -123 -90.5t-152 -32.5q-97 -2 -182 47.5t-135 133.5t-48 179q-2 95 48 179t135 133.5t182 47.5q80 0 152 -32.5t123 -90.5z M534 910l-109 -145h-15l103 145h21z" />
<glyph unicode="&#x107;" horiz-adv-x="624" d="M541 425l-10 -8q-75 81 -186 81q-101 2 -177.5 -73t-74.5 -175q-2 -100 74.5 -175t177.5 -73q118 0 194 90l10 -8q-81 -94 -204 -94q-107 -2 -187 76t-78 184q-2 106 78 184t187 76q114 0 196 -85zM419 710l-109 -145h-15l103 145h21z" />
<glyph unicode="&#x108;" horiz-adv-x="810" d="M740 587l-11 -9q-106 119 -264 119q-93 2 -175 -45.5t-130 -128.5t-46 -173q-2 -92 46 -173t130 -128.5t175 -45.5q160 0 265 119l10 -9q-51 -58 -123 -90.5t-152 -32.5q-97 -2 -182 47.5t-135 133.5t-48 179q-2 95 48 179t135 133.5t182 47.5q80 0 152 -32.5t123 -90.5z M461 910l120 -145h-15l-114 135l-113 -135h-15l120 145h17z" />
<glyph unicode="&#x109;" horiz-adv-x="624" d="M541 425l-10 -8q-75 81 -186 81q-101 2 -177.5 -73t-74.5 -175q-2 -100 74.5 -175t177.5 -73q118 0 194 90l10 -8q-81 -94 -204 -94q-107 -2 -187 76t-78 184q-2 106 78 184t187 76q114 0 196 -85zM346 710l120 -145h-15l-114 135l-113 -135h-15l120 145h17z" />
<glyph unicode="&#x10a;" horiz-adv-x="810" d="M740 587l-11 -9q-106 119 -264 119q-93 2 -175 -45.5t-130 -128.5t-46 -173q-2 -92 46 -173t130 -128.5t175 -45.5q160 0 265 119l10 -9q-51 -58 -123 -90.5t-152 -32.5q-97 -2 -182 47.5t-135 133.5t-48 179q-2 95 48 179t135 133.5t182 47.5q80 0 152 -32.5t123 -90.5z M466 848q0 -14 -13 -14q-14 0 -14 14q0 13 14 13q13 0 13 -13z" />
<glyph unicode="&#x10b;" horiz-adv-x="624" d="M541 425l-10 -8q-75 81 -186 81q-101 2 -177.5 -73t-74.5 -175q-2 -100 74.5 -175t177.5 -73q118 0 194 90l10 -8q-81 -94 -204 -94q-107 -2 -187 76t-78 184q-2 106 78 184t187 76q114 0 196 -85zM351 648q0 -14 -13 -14q-14 0 -14 14q0 13 14 13q13 0 13 -13z" />
<glyph unicode="&#x10c;" horiz-adv-x="810" d="M740 587l-11 -9q-106 119 -264 119q-93 2 -175 -45.5t-130 -128.5t-46 -173q-2 -92 46 -173t130 -128.5t175 -45.5q160 0 265 119l10 -9q-51 -58 -123 -90.5t-152 -32.5q-97 -2 -182 47.5t-135 133.5t-48 179q-2 95 48 179t135 133.5t182 47.5q80 0 152 -32.5t123 -90.5z M581 910l-120 -145h-17l-120 145h15l113 -135l114 135h15z" />
<glyph unicode="&#x10d;" horiz-adv-x="624" d="M541 425l-10 -8q-75 81 -186 81q-101 2 -177.5 -73t-74.5 -175q-2 -100 74.5 -175t177.5 -73q118 0 194 90l10 -8q-81 -94 -204 -94q-107 -2 -187 76t-78 184q-2 106 78 184t187 76q114 0 196 -85zM466 710l-120 -145h-17l-120 145h15l113 -135l114 135h15z" />
<glyph unicode="&#x10e;" horiz-adv-x="858" d="M758 350q3 -145 -106.5 -248.5t-258.5 -101.5h-253v700h253q149 2 258.5 -101.5t106.5 -248.5zM393 687h-239v-674h239q142 -2 248 98t103 239q3 139 -103 239t-248 98zM522 910l-120 -145h-17l-120 145h15l113 -135l114 135h15z" />
<glyph unicode="&#x10f;" horiz-adv-x="725" d="M545 700h13v-700h-13v79q-81 -89 -200 -89q-107 -2 -187 76t-78 184q-2 106 78 184t187 76q119 0 200 -89v279zM545 98v304q-81 96 -200 96q-101 2 -177.5 -73t-74.5 -175q-2 -100 74.5 -175t177.5 -73q119 0 200 96zM731 703q0 -7 -4 -15l-39 -93l-9 4l31 89q-9 3 -9 14 q0 15 15 15t15 -14z" />
<glyph unicode="&#x110;" horiz-adv-x="858" d="M758 350q3 -145 -106.5 -248.5t-258.5 -101.5h-253v344h-90v13h90v343h253q149 2 258.5 -101.5t106.5 -248.5zM744 350q3 139 -103 239t-248 98h-239v-330h236v-13h-236v-331h239q142 -2 248 98t103 239z" />
<glyph unicode="&#x111;" horiz-adv-x="668" d="M656 617v-12h-98v-605h-13v79q-81 -89 -200 -89q-107 -2 -187 76t-78 184q-2 106 78 184t187 76q119 0 200 -89v184h-143v12h143v83h13v-83h98zM545 98v304q-81 96 -200 96q-101 2 -177.5 -73t-74.5 -175q-2 -100 74.5 -175t177.5 -73q119 0 200 96z" />
<glyph unicode="&#x112;" horiz-adv-x="712" d="M631 700v-13h-477v-327h439v-13h-439v-334h489v-13h-503v700h491zM509 854v-12h-254v12h254z" />
<glyph unicode="&#x114;" horiz-adv-x="712" d="M631 700v-13h-477v-327h439v-13h-439v-334h489v-13h-503v700h491zM383 776q-64 0 -104 34t-44 93l14 1q4 -54 40 -84.5t94 -30.5t93.5 30.5t39.5 84.5l14 -1q-4 -59 -44 -93t-103 -34z" />
<glyph unicode="&#x115;" horiz-adv-x="659" d="M584 250v-12h-491q3 -95 77 -166.5t167 -69.5q113 0 200 82l9 -8q-86 -86 -209 -86q-103 -2 -181.5 76.5t-75.5 183.5q-2 105 74 183.5t178 76.5q114 0 183 -74t69 -186zM93 250h478q0 107 -65.5 177.5t-173.5 70.5q-95 2 -168 -73t-71 -175zM331 576q-64 0 -104 34 t-44 93l14 1q4 -54 40 -84.5t94 -30.5t93.5 30.5t39.5 84.5l14 -1q-4 -59 -44 -93t-103 -34z" />
<glyph unicode="&#x116;" horiz-adv-x="712" d="M631 700v-13h-477v-327h439v-13h-439v-334h489v-13h-503v700h491zM396 848q0 -14 -13 -14q-14 0 -14 14q0 13 14 13q13 0 13 -13z" />
<glyph unicode="&#x118;" horiz-adv-x="712" d="M672 -164l9 -10q-34 -31 -79 -31q-42 0 -70 24.5t-28 63.5q0 43 35 87l24 30h-423v700h491v-13h-477v-327h439v-13h-439v-334h489v-13h-62l-31 -38q-32 -40 -32 -79q0 -33 24 -54t60 -21q39 0 70 28z" />
<glyph unicode="&#x119;" horiz-adv-x="659" d="M584 250v-12h-491q3 -95 77 -166.5t167 -69.5q113 0 200 82l9 -8q-35 -33 -71 -52l-51 -62q-32 -41 -32 -79q0 -33 24 -54t60 -21q39 0 70 28l9 -10q-34 -31 -79 -31q-42 0 -70 24.5t-28 63.5q0 44 35 87l34 41q-51 -21 -110 -21q-103 -2 -181.5 76.5t-75.5 183.5 q-2 105 74 183.5t178 76.5q114 0 183 -74t69 -186zM93 250h478q0 107 -65.5 177.5t-173.5 70.5q-95 2 -168 -73t-71 -175z" />
<glyph unicode="&#x11a;" horiz-adv-x="712" d="M631 700v-13h-477v-327h439v-13h-439v-334h489v-13h-503v700h491zM511 910l-120 -145h-17l-120 145h15l113 -135l114 135h15z" />
<glyph unicode="&#x11b;" horiz-adv-x="659" d="M584 250v-12h-491q3 -95 77 -166.5t167 -69.5q113 0 200 82l9 -8q-86 -86 -209 -86q-103 -2 -181.5 76.5t-75.5 183.5q-2 105 74 183.5t178 76.5q114 0 183 -74t69 -186zM93 250h478q0 107 -65.5 177.5t-173.5 70.5q-95 2 -168 -73t-71 -175zM459 710l-120 -145h-17 l-120 145h15l113 -135l114 135h15z" />
<glyph unicode="&#x11c;" horiz-adv-x="874" d="M708 618l-9 -10q-100 89 -234 89q-93 2 -175 -45.5t-130 -128.5t-46 -173q-2 -92 46 -173t130 -128.5t175 -45.5q154 0 265 100v220h-265v13h279v-238q-114 -108 -279 -108q-97 -2 -182 47.5t-135 133.5t-48 179q-2 95 48 179t135 133.5t182 47.5q142 0 243 -92zM456 910 l120 -145h-15l-114 135l-113 -135h-15l120 145h17z" />
<glyph unicode="&#x11d;" horiz-adv-x="668" d="M545 500h13v-438q0 -128 -66.5 -197.5t-181.5 -69.5q-109 0 -198 71l8 9q85 -68 190 -68q109 0 172 66.5t63 188.5v17q-81 -89 -200 -89q-107 -2 -187 76t-78 184q-2 106 78 184t187 76q119 0 200 -89v79zM545 98v304q-81 96 -200 96q-101 2 -177.5 -73t-74.5 -175 q-2 -100 74.5 -175t177.5 -73q119 0 200 96zM353 710l120 -145h-15l-114 135l-113 -135h-15l120 145h17z" />
<glyph unicode="&#x11e;" horiz-adv-x="874" d="M708 618l-9 -10q-100 89 -234 89q-93 2 -175 -45.5t-130 -128.5t-46 -173q-2 -92 46 -173t130 -128.5t175 -45.5q154 0 265 100v220h-265v13h279v-238q-114 -108 -279 -108q-97 -2 -182 47.5t-135 133.5t-48 179q-2 95 48 179t135 133.5t182 47.5q142 0 243 -92zM448 776 q-64 0 -104 34t-44 93l14 1q4 -54 40 -84.5t94 -30.5t93.5 30.5t39.5 84.5l14 -1q-4 -59 -44 -93t-103 -34z" />
<glyph unicode="&#x11f;" horiz-adv-x="668" d="M545 500h13v-438q0 -128 -66.5 -197.5t-181.5 -69.5q-109 0 -198 71l8 9q85 -68 190 -68q109 0 172 66.5t63 188.5v17q-81 -89 -200 -89q-107 -2 -187 76t-78 184q-2 106 78 184t187 76q119 0 200 -89v79zM545 98v304q-81 96 -200 96q-101 2 -177.5 -73t-74.5 -175 q-2 -100 74.5 -175t177.5 -73q119 0 200 96zM345 576q-64 0 -104 34t-44 93l14 1q4 -54 40 -84.5t94 -30.5t93.5 30.5t39.5 84.5l14 -1q-4 -59 -44 -93t-103 -34z" />
<glyph unicode="&#x120;" horiz-adv-x="874" d="M708 618l-9 -10q-100 89 -234 89q-93 2 -175 -45.5t-130 -128.5t-46 -173q-2 -92 46 -173t130 -128.5t175 -45.5q154 0 265 100v220h-265v13h279v-238q-114 -108 -279 -108q-97 -2 -182 47.5t-135 133.5t-48 179q-2 95 48 179t135 133.5t182 47.5q142 0 243 -92zM461 848 q0 -14 -13 -14q-14 0 -14 14q0 13 14 13q13 0 13 -13z" />
<glyph unicode="&#x121;" horiz-adv-x="668" d="M545 500h13v-438q0 -128 -66.5 -197.5t-181.5 -69.5q-109 0 -198 71l8 9q85 -68 190 -68q109 0 172 66.5t63 188.5v17q-81 -89 -200 -89q-107 -2 -187 76t-78 184q-2 106 78 184t187 76q119 0 200 -89v79zM545 98v304q-81 96 -200 96q-101 2 -177.5 -73t-74.5 -175 q-2 -100 74.5 -175t177.5 -73q119 0 200 96zM358 648q0 -14 -13 -14q-14 0 -14 14q0 13 14 13q13 0 13 -13z" />
<glyph unicode="&#x122;" horiz-adv-x="874" d="M708 618l-9 -10q-100 89 -234 89q-93 2 -175 -45.5t-130 -128.5t-46 -173q-2 -92 46 -173t130 -128.5t175 -45.5q154 0 265 100v220h-265v13h279v-238q-114 -108 -279 -108q-97 -2 -182 47.5t-135 133.5t-48 179q-2 95 48 179t135 133.5t182 47.5q142 0 243 -92zM473 -98 q0 -4 -3 -12l-40 -95l-9 4l31 89q-9 4 -9 14q0 15 15 15t15 -15z" />
<glyph unicode="&#x123;" horiz-adv-x="668" d="M545 500h13v-438q0 -128 -66.5 -197.5t-181.5 -69.5q-109 0 -198 71l8 9q85 -68 190 -68q109 0 172 66.5t63 188.5v17q-81 -89 -200 -89q-107 -2 -187 76t-78 184q-2 106 78 184t187 76q119 0 200 -89v79zM545 98v304q-81 96 -200 96q-101 2 -177.5 -73t-74.5 -175 q-2 -100 74.5 -175t177.5 -73q119 0 200 96zM323 610q0 4 3 12l40 95l9 -4l-31 -89q9 -4 9 -14q0 -15 -15 -15t-15 15z" />
<glyph unicode="&#x124;" horiz-adv-x="863" d="M723 700v-700h-14v347h-555v-347h-14v700h14v-340h555v340h14zM440 910l120 -145h-15l-114 135l-113 -135h-15l120 145h17z" />
<glyph unicode="&#x125;" horiz-adv-x="672" d="M572 308v-308h-13v308q0 90 -48.5 140t-137.5 50q-66 0 -132.5 -27t-117.5 -75v-396h-13v700h13v-287q112 97 250 97q94 0 146.5 -53.5t52.5 -148.5zM128 910l120 -145h-15l-114 135l-113 -135h-15l120 145h17z" />
<glyph unicode="&#x126;" horiz-adv-x="863" d="M805 556v-13h-82v-543h-14v347h-555v-347h-14v543h-82v13h82v144h14v-144h555v144h14v-144h82zM709 360v183h-555v-183h555z" />
<glyph unicode="&#x127;" horiz-adv-x="672" d="M572 308v-308h-13v308q0 90 -48.5 140t-137.5 50q-66 0 -132.5 -27t-117.5 -75v-396h-13v605h-86v12h86v83h13v-83h206v-12h-206v-192q112 97 250 97q94 0 146.5 -53.5t52.5 -148.5z" />
<glyph unicode="&#x128;" horiz-adv-x="294" d="M154 700v-700h-14v700h14zM66 900q32 0 86 -39q50 -36 77 -36q26 0 44.5 18.5t23.5 51.5l14 -2q-7 -37 -29.5 -59.5t-52.5 -22.5q-33 0 -85 39q-50 36 -78 36q-26 0 -44.5 -18.5t-23.5 -51.5l-14 2q7 37 29.5 59.5t52.5 22.5z" />
<glyph unicode="&#x129;" horiz-adv-x="253" d="M133 500v-500h-13v500h13zM49 700q32 0 86 -39q50 -36 77 -36q26 0 44.5 18.5t23.5 51.5l14 -2q-7 -37 -29.5 -59.5t-52.5 -22.5q-33 0 -85 39q-50 36 -78 36q-26 0 -44.5 -18.5t-23.5 -51.5l-14 2q7 37 29.5 59.5t52.5 22.5z" />
<glyph unicode="&#x12a;" horiz-adv-x="294" d="M154 700v-700h-14v700h14zM274 854v-12h-254v12h254z" />
<glyph unicode="&#x12b;" horiz-adv-x="253" d="M133 500v-500h-13v500h13zM257 654v-12h-254v12h254z" />
<glyph unicode="&#x12e;" horiz-adv-x="294" d="M249 -163l9 -10q-34 -31 -79 -31q-42 0 -70 24.5t-28 63.5q0 42 36 87l23 29v700h14v-700l-29 -37q-30 -40 -30 -79q0 -33 24 -54t60 -21q39 0 70 28z" />
<glyph unicode="&#x12f;" horiz-adv-x="253" d="M112 647q0 14 14 14t14 -14t-14 -14t-14 14zM226 -162l9 -10q-34 -31 -79 -31q-42 0 -70 24.5t-28 63.5q0 40 39 88l23 29v498h13v-500l-29 -36q-32 -40 -32 -79q0 -33 24 -54t60 -21q39 0 70 28z" />
<glyph unicode="&#x130;" horiz-adv-x="294" d="M154 700v-700h-14v700h14zM161 848q0 -14 -13 -14q-14 0 -14 14q0 13 14 13q13 0 13 -13z" />
<glyph unicode="&#x131;" horiz-adv-x="253" d="M133 500v-500h-13v500h13z" />
<glyph unicode="&#x132;" horiz-adv-x="903" d="M154 700v-700h-14v700h14zM763 700v-466q0 -117 -59.5 -180.5t-161.5 -63.5q-122 0 -208 86l10 9q82 -82 198 -82q96 0 151.5 60t55.5 171v466h14z" />
<glyph unicode="&#x133;" horiz-adv-x="515" d="M140 647q0 -14 -14 -14t-14 14t14 14t14 -14zM133 500v-500h-13v500h13zM405 647q0 -14 -14 -14t-14 14t14 14t14 -14zM398 500v-533q0 -76 -46.5 -124t-115.5 -48q-29 0 -53 8l4 11q21 -7 49 -7q63 0 106 44.5t43 115.5v533h13z" />
<glyph unicode="&#x134;" horiz-adv-x="609" d="M469 700v-466q0 -117 -59.5 -180.5t-161.5 -63.5q-122 0 -208 86l10 9q82 -82 198 -82q96 0 151.5 60t55.5 171v466h14zM471 910l120 -145h-15l-114 135l-113 -135h-15l120 145h17z" />
<glyph unicode="&#x135;" horiz-adv-x="262" d="M145 500v-533q0 -76 -46.5 -124t-115.5 -48q-29 0 -53 8l4 11q21 -7 49 -7q63 0 106 44.5t43 115.5v533h13zM137 710l120 -145h-15l-114 135l-113 -135h-15l120 145h17z" />
<glyph unicode="&#x136;" horiz-adv-x="739" d="M673 0l-293 420l-226 -219v-201h-14v700h14v-480l497 480h19l-280 -271l300 -429h-17zM395 -98q0 -4 -3 -12l-40 -95l-9 4l31 89q-9 4 -9 14q0 15 15 15t15 -15z" />
<glyph unicode="&#x137;" horiz-adv-x="581" d="M552 0h-15l-216 310l-198 -178v-132h-13v700h13v-551l390 351h19l-202 -182zM316 -98q0 -4 -3 -12l-40 -95l-9 4l31 89q-9 4 -9 14q0 15 15 15t15 -15z" />
<glyph unicode="&#x139;" horiz-adv-x="629" d="M154 700v-687h426v-13h-440v700h14zM229 910l-109 -145h-15l103 145h21z" />
<glyph unicode="&#x13a;" horiz-adv-x="233" d="M123 700v-700h-13v700h13zM199 910l-109 -145h-15l103 145h21z" />
<glyph unicode="&#x13b;" horiz-adv-x="629" d="M154 700v-687h426v-13h-440v700h14zM389 -98q0 -4 -3 -12l-40 -95l-9 4l31 89q-9 4 -9 14q0 15 15 15t15 -15z" />
<glyph unicode="&#x13c;" horiz-adv-x="233" d="M123 700v-700h-13v700h13zM143 -98q0 -4 -3 -12l-40 -95l-9 4l31 89q-9 4 -9 14q0 15 15 15t15 -15z" />
<glyph unicode="&#x13d;" horiz-adv-x="629" d="M154 700v-687h426v-13h-440v700h14zM488 703q0 -7 -4 -15l-39 -93l-9 4l31 89q-9 3 -9 14q0 15 15 15t15 -14z" />
<glyph unicode="&#x13e;" horiz-adv-x="295" d="M123 700v-700h-13v700h13zM301 703q0 -7 -4 -15l-39 -93l-9 4l31 89q-9 3 -9 14q0 15 15 15t15 -14z" />
<glyph unicode="&#x13f;" horiz-adv-x="629" d="M154 700v-687h426v-13h-440v700h14zM449 365q0 -15 -15 -15t-15 15t15 15t15 -15z" />
<glyph unicode="&#x140;" horiz-adv-x="323" d="M123 700v-700h-13v700h13zM303 365q0 -15 -15 -15t-15 15t15 15t15 -15z" />
<glyph unicode="&#x141;" horiz-adv-x="629" d="M154 13h426v-13h-440v339l-100 -81v17l100 81v344h14v-333l205 166v-17l-205 -166v-337z" />
<glyph unicode="&#x142;" horiz-adv-x="233" d="M245 475v-17l-122 -99v-359h-13v349l-123 -100v17l123 100v334h13v-324z" />
<glyph unicode="&#x143;" horiz-adv-x="863" d="M709 700h14v-700h-22l-547 687v-687h-14v700h22l547 -687v687zM513 910l-109 -145h-15l103 145h21z" />
<glyph unicode="&#x144;" horiz-adv-x="672" d="M572 308v-308h-13v308q0 90 -48.5 140t-137.5 50q-66 0 -132.5 -27t-117.5 -75v-396h-13v500h13v-87q112 97 250 97q94 0 146.5 -53.5t52.5 -148.5zM423 710l-109 -145h-15l103 145h21z" />
<glyph unicode="&#x145;" horiz-adv-x="863" d="M709 700h14v-700h-22l-547 687v-687h-14v700h22l547 -687v687zM457 -98q0 -4 -3 -12l-40 -95l-9 4l31 89q-9 4 -9 14q0 15 15 15t15 -15z" />
<glyph unicode="&#x146;" horiz-adv-x="672" d="M572 308v-308h-13v308q0 90 -48.5 140t-137.5 50q-66 0 -132.5 -27t-117.5 -75v-396h-13v500h13v-87q112 97 250 97q94 0 146.5 -53.5t52.5 -148.5zM367 -98q0 -4 -3 -12l-40 -95l-9 4l31 89q-9 4 -9 14q0 15 15 15t15 -15z" />
<glyph unicode="&#x147;" horiz-adv-x="863" d="M709 700h14v-700h-22l-547 687v-687h-14v700h22l547 -687v687zM560 910l-120 -145h-17l-120 145h15l113 -135l114 135h15z" />
<glyph unicode="&#x148;" horiz-adv-x="672" d="M572 308v-308h-13v308q0 90 -48.5 140t-137.5 50q-66 0 -132.5 -27t-117.5 -75v-396h-13v500h13v-87q112 97 250 97q94 0 146.5 -53.5t52.5 -148.5zM470 710l-120 -145h-17l-120 145h15l113 -135l114 135h15z" />
<glyph unicode="&#x14a;" horiz-adv-x="863" d="M709 700h14v-661q0 -117 -59.5 -180.5t-161.5 -63.5q-122 0 -208 86l10 9q82 -82 198 -82q85 0 139 47.5t65 137.5l-552 694v-687h-14v700h22l546 -687q1 6 1 26v661z" />
<glyph unicode="&#x14b;" horiz-adv-x="672" d="M572 308v-341q0 -76 -46.5 -124t-115.5 -48q-29 0 -53 8l4 11q21 -7 49 -7q63 0 106 44.5t43 115.5v341q0 90 -47.5 140t-129.5 50q-151 0 -259 -102v-396h-13v500h13v-88q114 98 259 98q88 0 139 -53.5t51 -148.5z" />
<glyph unicode="&#x14c;" horiz-adv-x="930" d="M830 350q2 -95 -48 -179t-135 -133.5t-182 -47.5q-97 -2 -182 47.5t-135 133.5t-48 179q-2 95 48 179t135 133.5t182 47.5q97 2 182 -47.5t135 -133.5t48 -179zM114 350q-2 -92 46 -173t130 -128.5t175 -45.5q142 -3 248 102t103 245q3 140 -103 245t-248 102 q-93 2 -175 -45.5t-130 -128.5t-46 -173zM592 854v-12h-254v12h254z" />
<glyph unicode="&#x14d;" horiz-adv-x="690" d="M610 250q2 -106 -78 -184t-187 -76q-107 -2 -187 76t-78 184q-2 106 78 184t187 76q107 2 187 -76t78 -184zM93 250q-2 -100 74.5 -175t177.5 -73q101 -2 177.5 73t74.5 175q2 100 -74.5 175t-177.5 73q-101 2 -177.5 -73t-74.5 -175zM472 654v-12h-254v12h254z" />
<glyph unicode="&#x150;" horiz-adv-x="930" d="M830 350q2 -95 -48 -179t-135 -133.5t-182 -47.5q-97 -2 -182 47.5t-135 133.5t-48 179q-2 95 48 179t135 133.5t182 47.5q97 2 182 -47.5t135 -133.5t48 -179zM114 350q-2 -92 46 -173t130 -128.5t175 -45.5q142 -3 248 102t103 245q3 140 -103 245t-248 102 q-93 2 -175 -45.5t-130 -128.5t-46 -173zM496 910l-109 -145h-15l103 145h21zM652 910l-109 -145h-14l103 145h20z" />
<glyph unicode="&#x151;" horiz-adv-x="690" d="M610 250q2 -106 -78 -184t-187 -76q-107 -2 -187 76t-78 184q-2 106 78 184t187 76q107 2 187 -76t78 -184zM93 250q-2 -100 74.5 -175t177.5 -73q101 -2 177.5 73t74.5 175q2 100 -74.5 175t-177.5 73q-101 2 -177.5 -73t-74.5 -175zM376 710l-109 -145h-15l103 145h21z M532 710l-109 -145h-14l103 145h20z" />
<glyph unicode="&#x152;" horiz-adv-x="1368" d="M830 13h469v-13h-483v251q-33 -114 -130.5 -187.5t-220.5 -73.5q-97 -2 -182 47.5t-135 133.5t-48 179q-2 95 48 179t135 133.5t182 47.5q123 0 220.5 -73.5t130.5 -187.5v251h471v-13h-457v-327h419v-13h-419v-334zM816 350q3 140 -103 245t-248 102q-93 2 -175 -45.5 t-130 -128.5t-46 -173q-2 -92 46 -173t130 -128.5t175 -45.5q142 -3 248 102t103 245z" />
<glyph unicode="&#x153;" horiz-adv-x="1176" d="M1101 250v-12h-491q3 -95 77 -166.5t167 -69.5q113 0 200 82l9 -8q-86 -86 -209 -86q-90 0 -160.5 57t-90.5 145q-20 -87 -92.5 -144.5t-165.5 -57.5q-107 -2 -187 76t-78 184q-2 106 78 184t187 76q93 0 165.5 -57t92.5 -145q20 88 88.5 145t157.5 57q114 0 183 -74 t69 -186zM597 250q2 100 -74.5 175t-177.5 73q-101 2 -177.5 -73t-74.5 -175q-2 -100 74.5 -175t177.5 -73q101 -2 177.5 73t74.5 175zM610 250h478q0 107 -65.5 177.5t-173.5 70.5q-95 2 -168 -73t-71 -175z" />
<glyph unicode="&#x154;" horiz-adv-x="776" d="M727 0h-17l-210 297q-28 -4 -76 -4h-270v-293h-14v700h284q145 0 209 -48t64 -155q0 -90 -43 -137.5t-139 -60.5zM154 305h270q138 0 198.5 45t60.5 146t-60.5 146t-198.5 45h-270v-382zM470 910l-109 -145h-15l103 145h21z" />
<glyph unicode="&#x155;" horiz-adv-x="420" d="M380 510v-12q-144 0 -257 -113v-385h-13v500h13v-98q113 108 257 108zM292 710l-109 -145h-15l103 145h21z" />
<glyph unicode="&#x156;" horiz-adv-x="776" d="M727 0h-17l-210 297q-28 -4 -76 -4h-270v-293h-14v700h284q145 0 209 -48t64 -155q0 -90 -43 -137.5t-139 -60.5zM154 305h270q138 0 198.5 45t60.5 146t-60.5 146t-198.5 45h-270v-382zM414 -98q0 -4 -3 -12l-40 -95l-9 4l31 89q-9 4 -9 14q0 15 15 15t15 -15z" />
<glyph unicode="&#x157;" horiz-adv-x="420" d="M380 510v-12q-144 0 -257 -113v-385h-13v500h13v-98q113 108 257 108zM143 -98q0 -4 -3 -12l-40 -95l-9 4l31 89q-9 4 -9 14q0 15 15 15t15 -15z" />
<glyph unicode="&#x158;" horiz-adv-x="776" d="M727 0h-17l-210 297q-28 -4 -76 -4h-270v-293h-14v700h284q145 0 209 -48t64 -155q0 -90 -43 -137.5t-139 -60.5zM154 305h270q138 0 198.5 45t60.5 146t-60.5 146t-198.5 45h-270v-382zM517 910l-120 -145h-17l-120 145h15l113 -135l114 135h15z" />
<glyph unicode="&#x159;" horiz-adv-x="420" d="M380 510v-12q-144 0 -257 -113v-385h-13v500h13v-98q113 108 257 108zM339 710l-120 -145h-17l-120 145h15l113 -135l114 135h15z" />
<glyph unicode="&#x15a;" horiz-adv-x="702" d="M599 639l-8 -11q-108 69 -251 69q-104 0 -165 -44t-61 -118q0 -59 42.5 -92t149.5 -61l99 -26q74 -18 122 -38q96 -39 96 -135q0 -89 -71 -142q-70 -51 -190 -51q-81 0 -159 22q-79 22 -133 60l8 10q53 -36 130 -57.5t155 -21.5q115 0 180.5 48t65.5 134q0 60 -41 93.5 t-153 61.5l-99 25q-124 31 -170 67t-46 100q0 83 64 130.5t175 47.5q149 0 260 -71zM433 910l-109 -145h-15l103 145h21z" />
<glyph unicode="&#x15b;" horiz-adv-x="534" d="M439 459l-7 -10q-74 49 -180 49q-75 0 -117.5 -31t-42.5 -85q0 -41 31.5 -64.5t118.5 -45.5l71 -19q87 -22 116.5 -49.5t29.5 -85.5t-52 -93t-139 -35q-58 0 -116 16t-97 43l7 10q85 -57 206 -57q83 0 130.5 31t47.5 85q0 53 -27 77t-110 46l-70 19q-93 26 -126.5 51 t-33.5 70q0 60 46.5 94.5t126.5 34.5q108 0 187 -51zM349 710l-109 -145h-15l103 145h21z" />
<glyph unicode="&#x15c;" horiz-adv-x="702" d="M599 639l-8 -11q-108 69 -251 69q-104 0 -165 -44t-61 -118q0 -59 42.5 -92t149.5 -61l99 -26q74 -18 122 -38q96 -39 96 -135q0 -89 -71 -142q-70 -51 -190 -51q-81 0 -159 22q-79 22 -133 60l8 10q53 -36 130 -57.5t155 -21.5q115 0 180.5 48t65.5 134q0 60 -41 93.5 t-153 61.5l-99 25q-124 31 -170 67t-46 100q0 83 64 130.5t175 47.5q149 0 260 -71zM360 910l120 -145h-15l-114 135l-113 -135h-15l120 145h17z" />
<glyph unicode="&#x15d;" horiz-adv-x="534" d="M439 459l-7 -10q-74 49 -180 49q-75 0 -117.5 -31t-42.5 -85q0 -41 31.5 -64.5t118.5 -45.5l71 -19q87 -22 116.5 -49.5t29.5 -85.5t-52 -93t-139 -35q-58 0 -116 16t-97 43l7 10q85 -57 206 -57q83 0 130.5 31t47.5 85q0 53 -27 77t-110 46l-70 19q-93 26 -126.5 51 t-33.5 70q0 60 46.5 94.5t126.5 34.5q108 0 187 -51zM276 710l120 -145h-15l-114 135l-113 -135h-15l120 145h17z" />
<glyph unicode="&#x15e;" horiz-adv-x="702" d="M362 -10h-8l-22 -43q22 12 50 12q36 0 60.5 -22t24.5 -57q0 -37 -29 -61t-71 -24q-54 0 -93 21l7 11q34 -19 86 -19q37 0 61.5 20.5t24.5 51.5q0 29 -20.5 47.5t-50.5 18.5q-39 0 -64 -25l-10 9l30 61q-73 3 -145 25t-123 56l8 10q53 -36 130 -57.5t155 -21.5 q115 0 180.5 48t65.5 134q0 60 -41 93.5t-153 61.5l-99 25q-124 31 -170 67t-46 100q0 83 64 130.5t175 47.5q149 0 260 -71l-8 -11q-108 69 -251 69q-104 0 -165 -44t-61 -118q0 -59 42.5 -92t149.5 -61l99 -26q74 -18 122 -38q96 -39 96 -135q0 -89 -71 -142 q-70 -51 -190 -51z" />
<glyph unicode="&#x15f;" horiz-adv-x="534" d="M270 -10l-22 -43q22 12 50 12q36 0 60.5 -22t24.5 -57q0 -37 -29 -61t-71 -24q-54 0 -93 21l7 11q34 -19 86 -19q37 0 61.5 20.5t24.5 51.5q0 29 -20.5 47.5t-50.5 18.5q-39 0 -64 -25l-10 9l30 60q-120 5 -199 59l7 10q85 -57 206 -57q83 0 130.5 31t47.5 85 q0 53 -27 77t-110 46l-70 19q-93 26 -126.5 51t-33.5 70q0 60 46.5 94.5t126.5 34.5q108 0 187 -51l-7 -10q-74 49 -180 49q-75 0 -117.5 -31t-42.5 -85q0 -41 31.5 -64.5t118.5 -45.5l71 -19q87 -22 116.5 -49.5t29.5 -85.5t-51.5 -93t-137.5 -35z" />
<glyph unicode="&#x160;" horiz-adv-x="702" d="M599 639l-8 -11q-108 69 -251 69q-104 0 -165 -44t-61 -118q0 -59 42.5 -92t149.5 -61l99 -26q74 -18 122 -38q96 -39 96 -135q0 -89 -71 -142q-70 -51 -190 -51q-81 0 -159 22q-79 22 -133 60l8 10q53 -36 130 -57.5t155 -21.5q115 0 180.5 48t65.5 134q0 60 -41 93.5 t-153 61.5l-99 25q-124 31 -170 67t-46 100q0 83 64 130.5t175 47.5q149 0 260 -71zM480 910l-120 -145h-17l-120 145h15l113 -135l114 135h15z" />
<glyph unicode="&#x161;" horiz-adv-x="534" d="M439 459l-7 -10q-74 49 -180 49q-75 0 -117.5 -31t-42.5 -85q0 -41 31.5 -64.5t118.5 -45.5l71 -19q87 -22 116.5 -49.5t29.5 -85.5t-52 -93t-139 -35q-58 0 -116 16t-97 43l7 10q85 -57 206 -57q83 0 130.5 31t47.5 85q0 53 -27 77t-110 46l-70 19q-93 26 -126.5 51 t-33.5 70q0 60 46.5 94.5t126.5 34.5q108 0 187 -51zM396 710l-120 -145h-17l-120 145h15l113 -135l114 135h15z" />
<glyph unicode="&#x164;" horiz-adv-x="641" d="M592 700v-13h-264v-687h-14v687h-264v13h542zM450 910l-120 -145h-17l-120 145h15l113 -135l114 135h15z" />
<glyph unicode="&#x165;" horiz-adv-x="449" d="M270 595l-9 4l31 89q-9 3 -9 14q0 15 15 15t15 -14q0 -7 -4 -15zM374 21l6 -11q-42 -20 -81 -20q-70 0 -116.5 48t-46.5 125v325h-106v12h106v158h13v-158h182v-12h-182v-325q0 -72 43 -116.5t107 -44.5q38 0 75 19z" />
<glyph unicode="&#x166;" horiz-adv-x="641" d="M592 687h-264v-315h120v-12h-120v-360h-14v360h-120v12h120v315h-264v13h542v-13z" />
<glyph unicode="&#x167;" horiz-adv-x="430" d="M374 21l6 -11q-42 -20 -81 -20q-70 0 -116.5 48t-46.5 125v101h-86v12h86v212h-106v12h106v158h13v-158h182v-12h-182v-212h155v-12h-155v-101q0 -72 43 -116.5t107 -44.5q38 0 75 19z" />
<glyph unicode="&#x168;" horiz-adv-x="872" d="M732 700v-396q0 -143 -80 -228.5t-216 -85.5t-216 85.5t-80 228.5v396h14v-396q0 -138 76.5 -219.5t205.5 -81.5t205.5 81.5t76.5 219.5v396h14zM355 900q32 0 86 -39q50 -36 77 -36q26 0 44.5 18.5t23.5 51.5l14 -2q-7 -37 -29.5 -59.5t-52.5 -22.5q-33 0 -85 39 q-50 36 -78 36q-26 0 -44.5 -18.5t-23.5 -51.5l-14 2q7 37 29.5 59.5t52.5 22.5z" />
<glyph unicode="&#x169;" horiz-adv-x="672" d="M549 500h13v-500h-13v87q-112 -97 -250 -97q-94 0 -146.5 53.5t-52.5 148.5v308h13v-308q0 -90 48.5 -140t137.5 -50q66 0 132.5 27t117.5 75v396zM250 700q32 0 86 -39q50 -36 77 -36q26 0 44.5 18.5t23.5 51.5l14 -2q-7 -37 -29.5 -59.5t-52.5 -22.5q-33 0 -85 39 q-50 36 -78 36q-26 0 -44.5 -18.5t-23.5 -51.5l-14 2q7 37 29.5 59.5t52.5 22.5z" />
<glyph unicode="&#x16a;" horiz-adv-x="872" d="M732 700v-396q0 -143 -80 -228.5t-216 -85.5t-216 85.5t-80 228.5v396h14v-396q0 -138 76.5 -219.5t205.5 -81.5t205.5 81.5t76.5 219.5v396h14zM563 854v-12h-254v12h254z" />
<glyph unicode="&#x16b;" horiz-adv-x="672" d="M549 500h13v-500h-13v87q-112 -97 -250 -97q-94 0 -146.5 53.5t-52.5 148.5v308h13v-308q0 -90 48.5 -140t137.5 -50q66 0 132.5 27t117.5 75v396zM458 654v-12h-254v12h254z" />
<glyph unicode="&#x16c;" horiz-adv-x="872" d="M732 700v-396q0 -143 -80 -228.5t-216 -85.5t-216 85.5t-80 228.5v396h14v-396q0 -138 76.5 -219.5t205.5 -81.5t205.5 81.5t76.5 219.5v396h14zM437 776q-64 0 -104 34t-44 93l14 1q4 -54 40 -84.5t94 -30.5t93.5 30.5t39.5 84.5l14 -1q-4 -59 -44 -93t-103 -34z" />
<glyph unicode="&#x16d;" horiz-adv-x="672" d="M549 500h13v-500h-13v87q-112 -97 -250 -97q-94 0 -146.5 53.5t-52.5 148.5v308h13v-308q0 -90 48.5 -140t137.5 -50q66 0 132.5 27t117.5 75v396zM332 576q-64 0 -104 34t-44 93l14 1q4 -54 40 -84.5t94 -30.5t93.5 30.5t39.5 84.5l14 -1q-4 -59 -44 -93t-103 -34z" />
<glyph unicode="&#x16e;" horiz-adv-x="872" d="M732 700v-396q0 -143 -80 -228.5t-216 -85.5t-216 85.5t-80 228.5v396h14v-396q0 -138 76.5 -219.5t205.5 -81.5t205.5 81.5t76.5 219.5v396h14zM544 845q0 -42 -32 -74q-31 -31 -75 -31q-45 0 -76.5 30.5t-31.5 74.5t31.5 74.5t76.5 30.5q44 0 75 -31q32 -32 32 -74z M343 845q0 -38 27.5 -65t66.5 -27q38 0 65.5 27t27.5 65t-27.5 65t-65.5 27q-39 0 -66.5 -27t-27.5 -65z" />
<glyph unicode="&#x16f;" horiz-adv-x="672" d="M549 500h13v-500h-13v87q-112 -97 -250 -97q-94 0 -146.5 53.5t-52.5 148.5v308h13v-308q0 -90 48.5 -140t137.5 -50q66 0 132.5 27t117.5 75v396zM439 645q0 -42 -32 -74q-31 -31 -75 -31q-45 0 -76.5 30.5t-31.5 74.5t31.5 74.5t76.5 30.5q44 0 75 -31q32 -32 32 -74z M238 645q0 -38 27.5 -65t66.5 -27q38 0 65.5 27t27.5 65t-27.5 65t-65.5 27q-39 0 -66.5 -27t-27.5 -65z" />
<glyph unicode="&#x170;" horiz-adv-x="872" d="M732 700v-396q0 -143 -80 -228.5t-216 -85.5t-216 85.5t-80 228.5v396h14v-396q0 -138 76.5 -219.5t205.5 -81.5t205.5 81.5t76.5 219.5v396h14zM467 910l-109 -145h-15l103 145h21zM623 910l-109 -145h-14l103 145h20z" />
<glyph unicode="&#x171;" horiz-adv-x="672" d="M549 500h13v-500h-13v87q-112 -97 -250 -97q-94 0 -146.5 53.5t-52.5 148.5v308h13v-308q0 -90 48.5 -140t137.5 -50q66 0 132.5 27t117.5 75v396zM362 710l-109 -145h-15l103 145h21zM518 710l-109 -145h-14l103 145h20z" />
<glyph unicode="&#x172;" horiz-adv-x="872" d="M718 700h14v-396q0 -143 -80 -228.5t-214 -85.5l-23 -28q-32 -40 -32 -79q0 -33 24 -54t60 -21q39 0 70 28l9 -10q-34 -31 -79 -31q-42 0 -70 24.5t-28 63.5q0 43 35 87l16 20q-128 4 -204 89.5t-76 224.5v396h14v-396q0 -138 76.5 -219.5t205.5 -81.5t205.5 81.5 t76.5 219.5v396z" />
<glyph unicode="&#x173;" horiz-adv-x="672" d="M655 -162l9 -10q-34 -31 -79 -31q-42 0 -70 24.5t-28 63.5q0 40 39 88l23 29v85q-112 -97 -250 -97q-94 0 -146.5 53.5t-52.5 148.5v308h13v-308q0 -90 48.5 -140t137.5 -50q66 0 132.5 27t117.5 75v396h13v-500l-29 -36q-32 -40 -32 -79q0 -33 24 -54t60 -21q39 0 70 28 z" />
<glyph unicode="&#x174;" horiz-adv-x="1091" d="M1026 700h15l-245 -700h-20l-230 688l-230 -688h-21l-245 700h15l240 -687l230 687h21l230 -687zM557 910l120 -145h-15l-114 135l-113 -135h-15l120 145h17z" />
<glyph unicode="&#x175;" horiz-adv-x="814" d="M785 500l-190 -500h-18l-170 488l-169 -488h-18l-190 500h14l185 -487l169 487h19l169 -487l185 487h14zM416 710l120 -145h-15l-114 135l-113 -135h-15l120 145h17z" />
<glyph unicode="&#x176;" horiz-adv-x="742" d="M675 700h17l-314 -436v-264h-14v264l-314 436h17l304 -421zM380 910l120 -145h-15l-114 135l-113 -135h-15l120 145h17z" />
<glyph unicode="&#x177;" horiz-adv-x="539" d="M510 500l-246 -554q-37 -83 -77 -117t-94 -34q-31 0 -63 12l5 11q30 -11 58 -11q50 0 87 32.5t72 111.5l15 33l-237 516h14l230 -500l222 500h14zM279 710l120 -145h-15l-114 135l-113 -135h-15l120 145h17z" />
<glyph unicode="&#x178;" horiz-adv-x="742" d="M675 700h17l-314 -436v-264h-14v264l-314 436h17l304 -421zM290 848q0 -14 -13 -14q-14 0 -14 14q0 13 14 13q13 0 13 -13zM479 848q0 -14 -14 -14q-13 0 -13 14q0 13 13 13q14 0 14 -13z" />
<glyph unicode="&#x179;" horiz-adv-x="687" d="M607 700v-16l-522 -671h532v-13h-547v16l522 671h-506v13h521zM426 910l-109 -145h-15l103 145h21z" />
<glyph unicode="&#x17a;" horiz-adv-x="538" d="M452 500v-15l-383 -473h395v-12h-409v15l383 473h-361v12h375zM351 710l-109 -145h-15l103 145h21z" />
<glyph unicode="&#x17b;" horiz-adv-x="687" d="M607 700v-16l-522 -671h532v-13h-547v16l522 671h-506v13h521zM358 848q0 -14 -13 -14q-14 0 -14 14q0 13 14 13q13 0 13 -13z" />
<glyph unicode="&#x17c;" horiz-adv-x="538" d="M452 500v-15l-383 -473h395v-12h-409v15l383 473h-361v12h375zM283 648q0 -14 -13 -14q-14 0 -14 14q0 13 14 13q13 0 13 -13z" />
<glyph unicode="&#x17d;" horiz-adv-x="687" d="M607 700v-16l-522 -671h532v-13h-547v16l522 671h-506v13h521zM473 910l-120 -145h-17l-120 145h15l113 -135l114 135h15z" />
<glyph unicode="&#x17e;" horiz-adv-x="538" d="M452 500v-15l-383 -473h395v-12h-409v15l383 473h-361v12h375zM398 710l-120 -145h-17l-120 145h15l113 -135l114 135h15z" />
<glyph unicode="&#x192;" horiz-adv-x="394" d="M349 700l-4 -12q-24 10 -54 10q-64 0 -107.5 -45t-43.5 -116v-135h191v-12h-191v-423q0 -60 -28.5 -103t-81.5 -61v13q45 15 71 55t26 96v423h-97v12h97v135q0 77 47 125t117 48q32 0 58 -10z" />
<glyph unicode="&#x218;" horiz-adv-x="702" d="M599 639l-8 -11q-108 69 -251 69q-104 0 -165 -44t-61 -118q0 -59 42.5 -92t149.5 -61l99 -26q74 -18 122 -38q96 -39 96 -135q0 -89 -71 -142q-70 -51 -190 -51q-81 0 -159 22q-79 22 -133 60l8 10q53 -36 130 -57.5t155 -21.5q115 0 180.5 48t65.5 134q0 60 -41 93.5 t-153 61.5l-99 25q-124 31 -170 67t-46 100q0 83 64 130.5t175 47.5q149 0 260 -71zM377 -98q0 -4 -3 -12l-40 -95l-9 4l31 89q-9 4 -9 14q0 15 15 15t15 -15z" />
<glyph unicode="&#x219;" horiz-adv-x="534" d="M439 459l-7 -10q-74 49 -180 49q-75 0 -117.5 -31t-42.5 -85q0 -41 31.5 -64.5t118.5 -45.5l71 -19q87 -22 116.5 -49.5t29.5 -85.5t-52 -93t-139 -35q-58 0 -116 16t-97 43l7 10q85 -57 206 -57q83 0 130.5 31t47.5 85q0 53 -27 77t-110 46l-70 19q-93 26 -126.5 51 t-33.5 70q0 60 46.5 94.5t126.5 34.5q108 0 187 -51zM293 -98q0 -4 -3 -12l-40 -95l-9 4l31 89q-9 4 -9 14q0 15 15 15t15 -15z" />
<glyph unicode="&#x21a;" horiz-adv-x="641" d="M592 700v-13h-264v-687h-14v687h-264v13h542zM347 -98q0 -4 -3 -12l-40 -95l-9 4l31 89q-9 4 -9 14q0 15 15 15t15 -15z" />
<glyph unicode="&#x21b;" horiz-adv-x="430" d="M374 21l6 -11q-42 -20 -81 -20q-70 0 -116.5 48t-46.5 125v325h-106v12h106v158h13v-158h182v-12h-182v-325q0 -72 43 -116.5t107 -44.5q38 0 75 19zM302 -98q0 -4 -3 -12l-40 -95l-9 4l31 89q-9 4 -9 14q0 15 15 15t15 -15z" />
<glyph unicode="&#x237;" horiz-adv-x="262" d="M145 500v-533q0 -76 -46.5 -124t-115.5 -48q-29 0 -53 8l4 11q21 -7 49 -7q63 0 106 44.5t43 115.5v533h13z" />
<glyph unicode="&#x2c6;" horiz-adv-x="223" d="M120 710l120 -145h-15l-114 135l-113 -135h-15l120 145h17z" />
<glyph unicode="&#x2c7;" horiz-adv-x="223" d="M240 710l-120 -145h-17l-120 145h15l113 -135l114 135h15z" />
<glyph unicode="&#x2d8;" horiz-adv-x="223" d="M112 576q-64 0 -104 34t-44 93l14 1q4 -54 40 -84.5t94 -30.5t93.5 30.5t39.5 84.5l14 -1q-4 -59 -44 -93t-103 -34z" />
<glyph unicode="&#x2d9;" horiz-adv-x="223" d="M125 648q0 -14 -13 -14q-14 0 -14 14q0 13 14 13q13 0 13 -13z" />
<glyph unicode="&#x2da;" horiz-adv-x="223" d="M219 645q0 -42 -32 -74q-31 -31 -75 -31q-45 0 -76.5 30.5t-31.5 74.5t31.5 74.5t76.5 30.5q44 0 75 -31q32 -32 32 -74zM18 645q0 -38 27.5 -65t66.5 -27q38 0 65.5 27t27.5 65t-27.5 65t-65.5 27q-39 0 -66.5 -27t-27.5 -65z" />
<glyph unicode="&#x2db;" horiz-adv-x="223" d="M102 1h18l-32 -39q-32 -40 -32 -79q0 -33 24 -54t60 -21q39 0 70 28l9 -10q-34 -31 -79 -31q-42 0 -70 24.5t-28 63.5q0 43 35 87z" />
<glyph unicode="&#x2dc;" horiz-adv-x="223" d="M30 700q32 0 86 -39q50 -36 77 -36q26 0 44.5 18.5t23.5 51.5l14 -2q-7 -37 -29.5 -59.5t-52.5 -22.5q-33 0 -85 39q-50 36 -78 36q-26 0 -44.5 -18.5t-23.5 -51.5l-14 2q7 37 29.5 59.5t52.5 22.5z" />
<glyph unicode="&#x2dd;" horiz-adv-x="223" d="M142 710l-109 -145h-15l103 145h21zM298 710l-109 -145h-14l103 145h20z" />
<glyph unicode="&#x300;" d="M-61 710l103 -145h-15l-109 145h21z" />
<glyph unicode="&#x301;" d="M82 710l-109 -145h-15l103 145h21z" />
<glyph unicode="&#x302;" d="M9 710l120 -145h-15l-114 135l-113 -135h-15l120 145h17z" />
<glyph unicode="&#x303;" d="M-81 700q32 0 86 -39q50 -36 77 -36q26 0 44.5 18.5t23.5 51.5l14 -2q-7 -37 -29.5 -59.5t-52.5 -22.5q-33 0 -85 39q-50 36 -78 36q-26 0 -44.5 -18.5t-23.5 -51.5l-14 2q7 37 29.5 59.5t52.5 22.5z" />
<glyph unicode="&#x304;" d="M127 654v-12h-254v12h254z" />
<glyph unicode="&#x306;" d="M1 576q-64 0 -104 34t-44 93l14 1q4 -54 40 -84.5t94 -30.5t93.5 30.5t39.5 84.5l14 -1q-4 -59 -44 -93t-103 -34z" />
<glyph unicode="&#x307;" d="M14 648q0 -14 -13 -14q-14 0 -14 14q0 13 14 13q13 0 13 -13z" />
<glyph unicode="&#x308;" d="M-81 648q0 -14 -13 -14q-14 0 -14 14q0 13 14 13q13 0 13 -13zM108 648q0 -14 -14 -14q-13 0 -13 14q0 13 13 13q14 0 14 -13z" />
<glyph unicode="&#x30a;" d="M108 645q0 -42 -32 -74q-31 -31 -75 -31q-45 0 -76.5 30.5t-31.5 74.5t31.5 74.5t76.5 30.5q44 0 75 -31q32 -32 32 -74zM-93 645q0 -38 27.5 -65t66.5 -27q38 0 65.5 27t27.5 65t-27.5 65t-65.5 27q-39 0 -66.5 -27t-27.5 -65z" />
<glyph unicode="&#x30b;" d="M31 710l-109 -145h-15l103 145h21zM187 710l-109 -145h-14l103 145h20z" />
<glyph unicode="&#x30c;" d="M129 710l-120 -145h-17l-120 145h15l113 -135l114 135h15z" />
<glyph unicode="&#x312;" d="M-21 610q0 4 3 12l40 95l9 -4l-31 -89q9 -4 9 -14q0 -15 -15 -15t-15 15z" />
<glyph unicode="&#x326;" d="M26 -98q0 -4 -3 -12l-40 -95l-9 4l31 89q-9 4 -9 14q0 15 15 15t15 -15z" />
<glyph unicode="&#x327;" d="M116 -120q0 -37 -29 -61t-71 -24q-54 0 -93 21l7 11q34 -19 86 -19q37 0 61.5 20.5t24.5 51.5q0 29 -20.5 47.5t-50.5 18.5q-39 0 -64 -25l-10 9l35 71h16l-27 -54q23 12 50 12q36 0 60.5 -22t24.5 -57z" />
<glyph unicode="&#x328;" d="M-9 1h18l-32 -39q-32 -40 -32 -79q0 -33 24 -54t60 -21q39 0 70 28l9 -10q-34 -31 -79 -31q-42 0 -70 24.5t-28 63.5q0 43 35 87z" />
<glyph unicode="&#x3c0;" horiz-adv-x="739" d="M703 488h-122v-392q0 -94 72 -94q23 0 40 7l4 -11q-22 -8 -44 -8q-85 0 -85 106v392h-412v-488h-13v488h-111v12h671v-12z" />
<glyph unicode="&#x58f;" horiz-adv-x="600" d="M562 332h-120v-158h120v-13h-120v-161h-14v161h-170v13h170v158h-170v13h170v143q0 102 -50.5 155.5t-146.5 53.5t-146.5 -53.5t-50.5 -155.5v-38h-14v38q0 107 54.5 164.5t156.5 57.5t156.5 -57.5t54.5 -164.5v-143h120v-13z" />
<glyph unicode="&#x60c;" horiz-adv-x="244" d="M100 10q0 9 4 24l27 117h13l-19 -117q18 -3 18 -22q0 -9 -6 -15.5t-15 -6.5q-10 0 -16 6t-6 14z" />
<glyph unicode="&#x615;" d="M113 564v-54h-249v12h42v189h12v-142q59 71 124 71q32 0 51.5 -21t19.5 -55zM-82 522h183v41q0 28 -16.5 47t-43.5 19q-61 0 -123 -74v-33z" />
<glyph unicode="&#x61b;" horiz-adv-x="244" d="M100 359q0 9 4 24l27 117h13l-19 -117q18 -3 18 -22q0 -9 -6 -15.5t-15 -6.5q-10 0 -16 6t-6 14zM100 12q0 22 22 22q9 0 15 -6t6 -16q0 -9 -6 -15.5t-15 -6.5q-10 0 -16 6.5t-6 15.5z" />
<glyph unicode="&#x61f;" horiz-adv-x="539" d="M479 520l-14 -1q-9 83 -64 130.5t-140 47.5t-136 -45.5t-51 -125.5q0 -43 19 -75t64 -74q45 -41 68 -68q50 -56 50 -132v-39h-14v39q0 42 -13 69q-11 28 -32 53t-68 68q-48 44 -68 78.5t-20 80.5q0 85 54.5 134.5t146.5 49.5q90 0 149 -51t69 -139zM246 12q0 22 22 22 q9 0 15 -6t6 -16q0 -9 -6 -15.5t-15 -6.5q-10 0 -16 6.5t-6 15.5z" />
<glyph unicode="&#x621;" horiz-adv-x="560" d="M320 13h140v-13h-360v13h148q-52 20 -82.5 64t-30.5 100q0 79 50.5 131t127.5 52q75 0 124 -36l-8 -11q-47 34 -116 34q-71 0 -118 -48.5t-47 -121.5q0 -70 49.5 -117t122.5 -47z" />
<glyph unicode="&#x622;" horiz-adv-x="313" d="M150 0v730h13v-730h-13zM246 922l11 -3q-4 -22 -20 -34.5t-42 -11.5l-82 4q-20 1 -33.5 -10.5t-15.5 -27.5l-11 3q4 22 20 34.5t42 11.5l82 -4q20 -1 33.5 10.5t15.5 27.5z" />
<glyph unicode="&#x623;" horiz-adv-x="313" d="M150 0v730h13v-730h-13zM178 887h64v-12h-170v12h62q-41 25 -41 69q0 37 23.5 60.5t58.5 23.5q30 0 57 -16l-6 -10q-23 14 -51 14q-31 0 -50.5 -20t-19.5 -52q0 -29 21 -49t52 -20z" />
<glyph unicode="&#x624;" horiz-adv-x="660" d="M540 404v-393q0 -128 -69 -196t-194 -68q-95 0 -165 34l2 13q26 -14 72 -24t91 -10q116 0 181.5 61t68.5 179h-184q-116 0 -189.5 63t-73.5 169q0 107 75.5 170.5t186.5 63.5q115 0 198 -62zM343 13h184v384q-75 56 -185 56q-105 0 -177 -60t-72 -162t71 -160t179 -58z M363 623h64v-12h-170v12h62q-41 25 -41 69q0 37 23.5 60.5t58.5 23.5q30 0 57 -16l-6 -10q-23 14 -51 14q-31 0 -50.5 -20t-19.5 -52q0 -29 21 -49t52 -20z" />
<glyph unicode="&#x625;" horiz-adv-x="313" d="M150 0v730h13v-730h-13zM178 -302h64v-12h-170v12h62q-41 25 -41 69q0 37 23.5 60.5t58.5 23.5q30 0 57 -16l-6 -10q-23 14 -51 14q-31 0 -50.5 -20t-19.5 -52q0 -29 21 -49t52 -20z" />
<glyph unicode="&#x626;" horiz-adv-x="1150" d="M1070 7l-13 -4l-108 374h-145q-63 0 -100 -29.5t-37 -80.5q0 -20 7 -44l110 -383q-55 -35 -157 -65q-96 -28 -197 -28q-160 0 -250 76t-90 206q0 81 19 138l12 -3q-18 -64 -18 -135q0 -125 85.5 -197t238.5 -72q99 0 193 27q94 25 149 59l-108 375q-7 21 -7 46 q0 56 40.5 89.5t108.5 33.5h157zM213 339h64v-12h-170v12h62q-41 25 -41 69q0 37 23.5 60.5t58.5 23.5q30 0 57 -16l-6 -10q-23 14 -51 14q-31 0 -50.5 -20t-19.5 -52q0 -29 21 -49t52 -20z" />
<glyph unicode="&#x627;" horiz-adv-x="313" d="M150 0v730h13v-730h-13z" />
<glyph unicode="&#x628;" horiz-adv-x="1150" d="M95 213q0 60 18 147l13 -2q-18 -86 -18 -146q0 -199 238 -199h411q161 0 260 38v419h13v-428q-98 -42 -276 -42h-405q-115 0 -185 46q-69 46 -69 167zM557 -172q0 22 22 22q9 0 15 -6t6 -16q0 -9 -6 -15.5t-15 -6.5q-10 0 -16 6.5t-6 15.5z" />
<glyph unicode="&#x629;" horiz-adv-x="640" d="M80 250q0 115 67 187.5t173 72.5t173 -72.5t67 -187.5t-67 -187.5t-173 -72.5t-173 72.5t-67 187.5zM547 250q0 110 -63 178.5t-164 68.5t-164 -68.5t-63 -178.5t63 -178.5t164 -68.5t164 68.5t63 178.5zM209 677q0 22 22 22q9 0 15 -6t6 -16q0 -9 -6 -15.5t-15 -6.5 q-10 0 -16 6.5t-6 15.5zM388 677q0 22 22 22q9 0 15 -6t6 -16q0 -9 -6 -15.5t-15 -6.5q-10 0 -16 6.5t-6 15.5z" />
<glyph unicode="&#x62a;" horiz-adv-x="1150" d="M95 213q0 60 18 147l13 -2q-18 -86 -18 -146q0 -199 238 -199h411q161 0 260 38v419h13v-428q-98 -42 -276 -42h-405q-115 0 -185 46q-69 46 -69 167zM468 482q0 22 22 22q9 0 15 -6t6 -16q0 -9 -6 -15.5t-15 -6.5q-10 0 -16 6.5t-6 15.5zM647 482q0 22 22 22q9 0 15 -6 t6 -16q0 -9 -6 -15.5t-15 -6.5q-10 0 -16 6.5t-6 15.5z" />
<glyph unicode="&#x62b;" horiz-adv-x="1150" d="M95 213q0 60 18 147l13 -2q-18 -86 -18 -146q0 -199 238 -199h411q161 0 260 38v419h13v-428q-98 -42 -276 -42h-405q-115 0 -185 46q-69 46 -69 167zM557 598q0 22 22 22q9 0 15 -6t6 -16q0 -9 -6 -15.5t-15 -6.5q-10 0 -16 6.5t-6 15.5zM468 482q0 22 22 22q9 0 15 -6 t6 -16q0 -9 -6 -15.5t-15 -6.5q-10 0 -16 6.5t-6 15.5zM647 482q0 22 22 22q9 0 15 -6t6 -16q0 -9 -6 -15.5t-15 -6.5q-10 0 -16 6.5t-6 15.5z" />
<glyph unicode="&#x62c;" horiz-adv-x="650" d="M570 13l-3 -13h-333q-83 0 -132 -43t-49 -116q0 -74 49 -118t132 -44h166v-13h-166q-89 0 -141.5 47.5t-52.5 127.5q0 79 52.5 125.5t141.5 46.5h312q-46 36 -67 86q-21 48 -44 137q-21 80 -37 119q-41 102 -153 102q-68 0 -133 -50l-9 9q64 54 142 54q66 0 106 -32 q39 -31 58 -77q20 -47 39 -124q23 -94 49.5 -145t72.5 -79zM265 -165q0 22 22 22q9 0 15 -6t6 -16q0 -9 -6 -15.5t-15 -6.5q-10 0 -16 6.5t-6 15.5z" />
<glyph unicode="&#x62d;" horiz-adv-x="650" d="M570 13l-3 -13h-333q-83 0 -132 -43t-49 -116q0 -74 49 -118t132 -44h166v-13h-166q-89 0 -141.5 47.5t-52.5 127.5q0 79 52.5 125.5t141.5 46.5h312q-46 36 -67 86q-21 48 -44 137q-21 80 -37 119q-41 102 -153 102q-68 0 -133 -50l-9 9q64 54 142 54q66 0 106 -32 q39 -31 58 -77q20 -47 39 -124q23 -94 49.5 -145t72.5 -79z" />
<glyph unicode="&#x62e;" horiz-adv-x="650" d="M570 13l-3 -13h-333q-83 0 -132 -43t-49 -116q0 -74 49 -118t132 -44h166v-13h-166q-89 0 -141.5 47.5t-52.5 127.5q0 79 52.5 125.5t141.5 46.5h312q-46 36 -67 86q-21 48 -44 137q-21 80 -37 119q-41 102 -153 102q-68 0 -133 -50l-9 9q64 54 142 54q66 0 106 -32 q39 -31 58 -77q20 -47 39 -124q23 -94 49.5 -145t72.5 -79zM235 637q0 22 22 22q9 0 15 -6t6 -16q0 -9 -6 -15.5t-15 -6.5q-10 0 -16 6.5t-6 15.5z" />
<glyph unicode="&#x62f;" horiz-adv-x="590" d="M470 209v-209h-420v13h407v196q0 113 -47.5 155.5t-171.5 42.5h-72v13h72q132 0 182 -46.5t50 -164.5z" />
<glyph unicode="&#x630;" horiz-adv-x="590" d="M470 209v-209h-420v13h407v196q0 113 -47.5 155.5t-171.5 42.5h-72v13h72q132 0 182 -46.5t50 -164.5zM216 587q0 22 22 22q9 0 15 -6t6 -16q0 -9 -6 -15.5t-15 -6.5q-10 0 -16 6.5t-6 15.5z" />
<glyph unicode="&#x631;" horiz-adv-x="329" d="M-90 -250l2 13q30 -3 54 -3q113 0 166.5 62.5t53.5 191.5v456h13v-456q0 -135 -57 -201t-176 -66q-26 0 -56 3z" />
<glyph unicode="&#x632;" horiz-adv-x="329" d="M-90 -250l2 13q30 -3 54 -3q113 0 166.5 62.5t53.5 191.5v456h13v-456q0 -135 -57 -201t-176 -66q-26 0 -56 3zM170 637q0 22 22 22q9 0 15 -6t6 -16q0 -9 -6 -15.5t-15 -6.5q-10 0 -16 6.5t-6 15.5z" />
<glyph unicode="&#x633;" horiz-adv-x="1496" d="M1363 470h13v-406q-77 -68 -169 -68q-88 0 -162 62q-77 -62 -163 -62q-84 0 -156 57v-222q-130 -84 -301 -84q-161 0 -248 74.5t-87 207.5q0 81 18 138l12 -3q-17 -60 -17 -135q0 -127 83 -198t237 -71q155 0 290 77v503h13v-270q69 -61 156 -61t156 61v270h13v-270 q69 -61 156 -61t156 61v400z" />
<glyph unicode="&#x634;" horiz-adv-x="1496" d="M1363 470h13v-406q-77 -68 -169 -68q-88 0 -162 62q-77 -62 -163 -62q-84 0 -156 57v-222q-130 -84 -301 -84q-161 0 -248 74.5t-87 207.5q0 81 18 138l12 -3q-17 -60 -17 -135q0 -127 83 -198t237 -71q155 0 290 77v503h13v-270q69 -61 156 -61t156 61v270h13v-270 q69 -61 156 -61t156 61v400zM1022 623q0 22 22 22q9 0 15 -6t6 -16q0 -9 -6 -15.5t-15 -6.5q-10 0 -16 6.5t-6 15.5zM933 507q0 22 22 22q9 0 15 -6t6 -16q0 -9 -6 -15.5t-15 -6.5q-10 0 -16 6.5t-6 15.5zM1112 507q0 22 22 22q9 0 15 -6t6 -16q0 -9 -6 -15.5t-15 -6.5 q-10 0 -16 6.5t-6 15.5z" />
<glyph unicode="&#x635;" horiz-adv-x="1464" d="M1354 216v-216h-628v-169q-130 -84 -301 -84q-161 0 -248 74.5t-87 207.5q0 81 18 138l12 -3q-17 -60 -17 -135q0 -127 83 -198t237 -71q155 0 290 77v573h13v-196q190 256 397 256q110 0 170.5 -67t60.5 -187zM726 13h615v203q0 115 -57 178t-161 63q-203 0 -397 -265 v-179z" />
<glyph unicode="&#x636;" horiz-adv-x="1464" d="M1354 216v-216h-628v-169q-130 -84 -301 -84q-161 0 -248 74.5t-87 207.5q0 81 18 138l12 -3q-17 -60 -17 -135q0 -127 83 -198t237 -71q155 0 290 77v573h13v-196q190 256 397 256q110 0 170.5 -67t60.5 -187zM726 13h615v203q0 115 -57 178t-161 63q-203 0 -397 -265 v-179zM878 637q0 22 22 22q9 0 15 -6t6 -16q0 -9 -6 -15.5t-15 -6.5q-10 0 -16 6.5t-6 15.5z" />
<glyph unicode="&#x637;" horiz-adv-x="942" d="M832 216v-216h-792v13h150v687h13v-487q73 103 171 180q100 77 229 77q110 0 169.5 -67.5t59.5 -186.5zM203 13h616v203q0 117 -57.5 179t-158.5 62q-133 0 -228 -79q-96 -78 -172 -187v-178z" />
<glyph unicode="&#x638;" horiz-adv-x="942" d="M832 216v-216h-792v13h150v687h13v-487q73 103 171 180q100 77 229 77q110 0 169.5 -67.5t59.5 -186.5zM203 13h616v203q0 117 -57.5 179t-158.5 62q-133 0 -228 -79q-96 -78 -172 -187v-178zM431 637q0 22 22 22q9 0 15 -6t6 -16q0 -9 -6 -15.5t-15 -6.5q-10 0 -16 6.5 t-6 15.5z" />
<glyph unicode="&#x639;" horiz-adv-x="660" d="M184 232q0 -94 69 -156.5t172 -62.5h121v-13h-342q-83 0 -132 -43t-49 -115q0 -75 49 -119t132 -44h146v-13h-146q-89 0 -141.5 47.5t-52.5 128.5q0 78 52.5 124.5t141.5 46.5h141q-80 21 -127 80t-47 140q0 101 70 169t174 68q89 0 165 -52l-7 -11q-74 50 -158 50 q-99 0 -165 -64.5t-66 -160.5z" />
<glyph unicode="&#x63a;" horiz-adv-x="660" d="M184 232q0 -94 69 -156.5t172 -62.5h121v-13h-342q-83 0 -132 -43t-49 -115q0 -75 49 -119t132 -44h146v-13h-146q-89 0 -141.5 47.5t-52.5 128.5q0 78 52.5 124.5t141.5 46.5h141q-80 21 -127 80t-47 140q0 101 70 169t174 68q89 0 165 -52l-7 -11q-74 50 -158 50 q-99 0 -165 -64.5t-66 -160.5zM393 637q0 22 22 22q9 0 15 -6t6 -16q0 -9 -6 -15.5t-15 -6.5q-10 0 -16 6.5t-6 15.5z" />
<glyph unicode="&#x640;" horiz-adv-x="250" d="M266 13v-11q0 -2 -16 -2h-250q-16 0 -16 2v11h282z" />
<glyph unicode="&#x641;" horiz-adv-x="1248" d="M1128 460v-419q-134 -41 -276 -41h-503q-115 0 -185 46q-69 46 -69 167q0 60 18 147l13 -2q-18 -86 -18 -146q0 -199 238 -199h509q136 0 247 31q-206 1 -310.5 60.5t-104.5 185.5q0 101 67 164t173 63q108 0 201 -57zM1115 55v398q-94 51 -188 51q-101 0 -164 -59.5 t-63 -154.5q0 -121 103.5 -177.5t311.5 -57.5zM905 684q0 22 22 22q9 0 15 -6t6 -16q0 -9 -6 -15.5t-15 -6.5q-10 0 -16 6.5t-6 15.5z" />
<glyph unicode="&#x642;" horiz-adv-x="886" d="M766 404v-573q-135 -84 -320 -84q-172 0 -264 74t-92 208q0 81 19 138l12 -3q-18 -64 -18 -135q0 -128 87 -198.5t253 -70.5q171 0 310 77v163h-184q-116 0 -189.5 65t-73.5 171q0 105 75.5 167.5t186.5 62.5q115 0 198 -62zM569 13h184v384q-75 56 -185 56 q-105 0 -177 -59t-72 -159q0 -103 71.5 -162.5t178.5 -59.5zM462 633q0 22 22 22q9 0 15 -6t6 -16q0 -9 -6 -15.5t-15 -6.5q-10 0 -16 6.5t-6 15.5zM641 633q0 22 22 22q9 0 15 -6t6 -16q0 -9 -6 -15.5t-15 -6.5q-10 0 -16 6.5t-6 15.5z" />
<glyph unicode="&#x643;" horiz-adv-x="1100" d="M937 730h13v-688q-98 -42 -276 -42h-325q-115 0 -185 46q-69 46 -69 167q0 60 18 147l13 -2q-18 -86 -18 -146q0 -199 238 -199h331q161 0 260 38v679zM601 323v-12h-170v12h62q-41 25 -41 69q0 37 23.5 60.5t58.5 23.5q30 0 57 -16l-6 -10q-23 14 -51 14 q-31 0 -50.5 -20t-19.5 -52q0 -29 21 -49t52 -20h64z" />
<glyph unicode="&#x644;" horiz-adv-x="876" d="M713 730h13v-899q-130 -84 -301 -84q-161 0 -248 74.5t-87 207.5q0 81 18 138l12 -3q-17 -60 -17 -135q0 -127 83 -198t237 -71q155 0 290 77v893z" />
<glyph unicode="&#x645;" horiz-adv-x="725" d="M645 250q0 -115 -67 -187.5t-173 -72.5q-95 0 -160 59q-28 25 -47 34.5t-47 9.5q-98 0 -98 -110q0 -63 7 -146q6 -71 19 -170h-13q-13 99 -19 170q-7 83 -7 146q0 64 30 93.5t81 29.5q35 0 58 -14q-44 67 -44 158q0 115 67 187.5t173 72.5t173 -72.5t67 -187.5zM632 250 q0 110 -63 178.5t-164 68.5t-164 -68.5t-63 -178.5t63 -178.5t164 -68.5t164 68.5t63 178.5z" />
<glyph unicode="&#x646;" horiz-adv-x="846" d="M90 29q0 81 18 138l12 -3q-17 -60 -17 -135q0 -127 83 -198t237 -71q155 0 290 77v503h13v-509q-130 -84 -301 -84q-161 0 -248 74.5t-87 207.5zM394 317q0 22 22 22q9 0 15 -6t6 -16q0 -9 -6 -15.5t-15 -6.5q-10 0 -16 6.5t-6 15.5z" />
<glyph unicode="&#x647;" horiz-adv-x="640" d="M80 250q0 115 67 187.5t173 72.5t173 -72.5t67 -187.5t-67 -187.5t-173 -72.5t-173 72.5t-67 187.5zM547 250q0 110 -63 178.5t-164 68.5t-164 -68.5t-63 -178.5t63 -178.5t164 -68.5t164 68.5t63 178.5z" />
<glyph unicode="&#x648;" horiz-adv-x="660" d="M540 404v-393q0 -128 -69 -196t-194 -68q-95 0 -165 34l2 13q26 -14 72 -24t91 -10q116 0 181.5 61t68.5 179h-184q-116 0 -189.5 63t-73.5 169q0 107 75.5 170.5t186.5 63.5q115 0 198 -62zM343 13h184v384q-75 56 -185 56q-105 0 -177 -60t-72 -162t71 -160t179 -58z " />
<glyph unicode="&#x649;" horiz-adv-x="1150" d="M1070 7l-13 -4l-108 374h-145q-63 0 -100 -29.5t-37 -80.5q0 -20 7 -44l110 -383q-55 -35 -157 -65q-96 -28 -197 -28q-160 0 -250 76t-90 206q0 81 19 138l12 -3q-18 -64 -18 -135q0 -125 85.5 -197t238.5 -72q99 0 193 27q94 25 149 59l-108 375q-7 21 -7 46 q0 56 40.5 89.5t108.5 33.5h157z" />
<glyph unicode="&#x64a;" horiz-adv-x="1150" d="M1070 7l-13 -4l-108 374h-145q-63 0 -100 -29.5t-37 -80.5q0 -20 7 -44l110 -383q-55 -35 -157 -65q-96 -28 -197 -28q-160 0 -250 76t-90 206q0 81 19 138l12 -3q-18 -64 -18 -135q0 -125 85.5 -197t238.5 -72q99 0 193 27q94 25 149 59l-108 375q-7 21 -7 46 q0 56 40.5 89.5t108.5 33.5h157zM318 -425q0 22 22 22q9 0 15 -6t6 -16q0 -9 -6 -15.5t-15 -6.5q-10 0 -16 6.5t-6 15.5zM497 -425q0 22 22 22q9 0 15 -6t6 -16q0 -9 -6 -15.5t-15 -6.5q-10 0 -16 6.5t-6 15.5z" />
<glyph unicode="&#x64b;" d="M-100 653v11l200 61v-11zM-100 590v11l200 61v-11z" />
<glyph unicode="&#x64c;" d="M114 715q0 -65 -94 -99q-59 -22 -147 -26l-3 8q40 31 40 71q0 47 -53 47v11q30 0 47.5 -15t17.5 -42q0 -39 -37 -70q65 4 125 22q24 7 44 19q-39 4 -62 24.5t-23 51.5q0 30 21 48.5t52 18.5q32 0 52 -19.5t20 -49.5zM102 713q0 27 -17 43.5t-43 16.5q-27 0 -44 -16 t-17 -42q0 -29 23 -46t63 -19q35 27 35 63z" />
<glyph unicode="&#x64d;" d="M-100 -162v11l200 61v-11zM-100 -225v11l200 61v-11z" />
<glyph unicode="&#x64e;" d="M-100 590v11l200 61v-11z" />
<glyph unicode="&#x64f;" d="M96 712q0 -107 -212 -122l-2 10q112 9 161 40q-42 1 -67 22t-25 54q0 30 20.5 48.5t52.5 18.5q33 0 52.5 -19.5t19.5 -51.5zM84 710q0 28 -16.5 45t-43.5 17t-44 -16t-17 -42q0 -30 25 -47t68 -18q28 25 28 61z" />
<glyph unicode="&#x650;" d="M-100 -162v11l200 61v-11z" />
<glyph unicode="&#x651;" d="M115 778h12v-108q0 -55 -66 -55q-41 0 -57 24q-5 -49 -65 -49q-66 0 -66 55v98h12v-96q0 -46 54 -46q55 0 55 46v111h12v-89q0 -42 55 -42q54 0 54 45v106z" />
<glyph unicode="&#x652;" d="M-83 673q0 37 23 60t60 23t60 -23t23 -60t-23 -60t-60 -23t-60 23t-23 60zM71 673q0 32 -20 52t-52 20q-31 0 -50.5 -20t-19.5 -52t19.5 -52t50.5 -20q32 0 52 20t20 52z" />
<glyph unicode="&#x653;" d="M89 547l11 -3q-4 -22 -20 -34.5t-42 -11.5l-82 4q-20 1 -33.5 -10.5t-15.5 -27.5l-11 3q4 22 20 34.5t42 11.5l82 -4q20 -1 33.5 10.5t15.5 27.5z" />
<glyph unicode="&#x654;" d="M21 512h64v-12h-170v12h62q-41 25 -41 69q0 37 23.5 60.5t58.5 23.5q30 0 57 -16l-6 -10q-23 14 -51 14q-31 0 -50.5 -20t-19.5 -52q0 -29 21 -49t52 -20z" />
<glyph unicode="&#x655;" d="M21 -152h64v-12h-170v12h62q-41 25 -41 69q0 37 23.5 60.5t58.5 23.5q30 0 57 -16l-6 -10q-23 14 -51 14q-31 0 -50.5 -20t-19.5 -52q0 -29 21 -49t52 -20z" />
<glyph unicode="&#x656;" d="M-6 -301v201h12v-201h-12z" />
<glyph unicode="&#x658;" d="M86 719h12v-124q-39 -24 -93 -24q-48 0 -75 22.5t-27 61.5q0 23 6 40l10 -2q-5 -20 -5 -37q0 -35 23.5 -54.5t67.5 -19.5q47 0 81 19v118z" />
<glyph unicode="&#x660;" horiz-adv-x="278" d="M139 308l-49 49l49 49l49 -49z" />
<glyph unicode="&#x661;" horiz-adv-x="265" d="M152 0l-52 700h13l52 -700h-13z" />
<glyph unicode="&#x662;" horiz-adv-x="506" d="M446 700v-13h-332l51 -687h-13l-52 700h346z" />
<glyph unicode="&#x663;" horiz-adv-x="665" d="M590 702h15v-197q-15 -16 -50.5 -28.5t-75.5 -12.5q-75 0 -119 35q-49 -35 -121 -35q-61 0 -108 27l42 -491h-13l-60 700h13l16 -191q44 -32 110 -32q69 0 114 33v191h13v-191q45 -33 113 -33q69 0 111 33v192z" />
<glyph unicode="&#x664;" horiz-adv-x="530" d="M477 19l3 -13q-56 -16 -153 -16q-247 0 -247 186q0 156 180 182q-163 32 -163 176q0 85 59 130.5t168 45.5q74 0 141 -16l-3 -13q-68 16 -139 16q-103 0 -158 -42t-55 -121q0 -84 61 -127.5t180 -43.5h50v-13h-65q-243 0 -243 -174q0 -173 234 -173q86 0 150 16z" />
<glyph unicode="&#x665;" horiz-adv-x="615" d="M70 207q0 84 32 175q32 92 87 150q55 60 118 60t119 -60q55 -58 87 -149t32 -176q0 -215 -238 -215q-237 0 -237 215zM532 207q0 83 -31 169q-32 89 -83 145q-52 58 -111 58q-58 0 -110 -58q-51 -56 -83 -145q-31 -86 -31 -169q0 -104 55.5 -153t168.5 -49 q114 0 169.5 49t55.5 153z" />
<glyph unicode="&#x666;" horiz-adv-x="510" d="M410 0h-13l-31 687h-336v13h348z" />
<glyph unicode="&#x667;" horiz-adv-x="565" d="M510 700h15q-72 -162 -127 -330q-53 -166 -108 -370h-14q-56 209 -111 371q-53 162 -125 329h15q70 -161 123 -322q55 -164 105 -355q52 199 105 358q57 171 122 319z" />
<glyph unicode="&#x668;" horiz-adv-x="565" d="M525 0h-15q-66 151 -122 318q-52 156 -105 359q-50 -189 -105 -356q-54 -162 -123 -321h-15q71 165 125 328q55 165 111 372h14q55 -204 108 -370q55 -168 127 -330z" />
<glyph unicode="&#x669;" horiz-adv-x="573" d="M473 0h-13l-17 250h-127q-124 0 -195 60t-71 171q0 109 67 169t177 60q78 0 131 -25zM316 263h126l-29 412q-53 22 -119 22q-102 0 -166 -54q-65 -54 -65 -161q0 -106 68 -162.5t185 -56.5z" />
<glyph unicode="&#x66a;" horiz-adv-x="794" d="M671 717l-537 -734h-17l537 734h17zM345 531q0 -81 -39.5 -128t-108.5 -47q-68 0 -107.5 47.5t-39.5 127.5t39.5 127.5t107.5 47.5q69 0 108.5 -47t39.5 -128zM64 531q0 -74 36 -118t97 -44q62 0 98 44t36 118t-36 118t-98 44q-61 0 -97 -44t-36 -118zM745 169 q0 -81 -39.5 -128t-108.5 -47q-68 0 -107.5 47.5t-39.5 127.5t39.5 127.5t107.5 47.5q69 0 108.5 -47t39.5 -128zM464 169q0 -74 36 -118t97 -44q62 0 98 44t36 118t-36 118t-98 44q-61 0 -97 -44t-36 -118z" />
<glyph unicode="&#x66b;" horiz-adv-x="204" d="M124 31q0 -9 -4 -24l-37 -117h-13l29 117q-18 3 -18 22q0 9 6 15.5t15 6.5q10 0 16 -6t6 -14z" />
<glyph unicode="&#x66c;" horiz-adv-x="220" d="M140 42l-47 -152h-13l38 152h22z" />
<glyph unicode="&#x66d;" horiz-adv-x="407" d="M117 358l-13 10l88 120l-142 45l5 15l142 -47l-2 149h16l-1 -149l142 47l5 -15l-143 -45l89 -120l-13 -10l-87 122z" />
<glyph unicode="&#x66e;" horiz-adv-x="1150" d="M95 213q0 60 18 147l13 -2q-18 -86 -18 -146q0 -199 238 -199h411q161 0 260 38v419h13v-428q-98 -42 -276 -42h-405q-115 0 -185 46q-69 46 -69 167z" />
<glyph unicode="&#x66f;" horiz-adv-x="886" d="M766 404v-573q-135 -84 -320 -84q-172 0 -264 74t-92 208q0 81 19 138l12 -3q-18 -64 -18 -135q0 -128 87 -198.5t253 -70.5q171 0 310 77v163h-184q-116 0 -189.5 65t-73.5 171q0 105 75.5 167.5t186.5 62.5q115 0 198 -62zM569 13h184v384q-75 56 -185 56 q-105 0 -177 -59t-72 -159q0 -103 71.5 -162.5t178.5 -59.5z" />
<glyph unicode="&#x670;" d="M-6 590v191h12v-191h-12z" />
<glyph unicode="&#x671;" horiz-adv-x="313" d="M150 0v730h13v-730h-13zM264 932v-48h-253v11h52q49 109 128 109q33 0 53 -20t20 -52zM75 895h177v36q0 28 -16.5 45t-45.5 17q-68 0 -115 -98z" />
<glyph unicode="&#x679;" horiz-adv-x="1150" d="M95 213q0 60 18 147l13 -2q-18 -86 -18 -146q0 -199 238 -199h411q161 0 260 38v419h13v-428q-98 -42 -276 -42h-405q-115 0 -185 46q-69 46 -69 167zM692 524v-54h-249v12h42v189h12v-142q59 71 124 71q32 0 51.5 -21t19.5 -55zM497 482h183v41q0 28 -16.5 47t-43.5 19 q-61 0 -123 -74v-33z" />
<glyph unicode="&#x67e;" horiz-adv-x="1150" d="M95 213q0 60 18 147l13 -2q-18 -86 -18 -146q0 -199 238 -199h411q161 0 260 38v419h13v-428q-98 -42 -276 -42h-405q-115 0 -185 46q-69 46 -69 167zM468 -172q0 22 22 22q9 0 15 -6t6 -16q0 -9 -6 -15.5t-15 -6.5q-10 0 -16 6.5t-6 15.5zM647 -173q0 22 22 22 q9 0 15 -6t6 -16q0 -9 -6 -15.5t-15 -6.5q-10 0 -16 6.5t-6 15.5zM558 -288q0 22 22 22q9 0 15 -6t6 -16q0 -9 -6 -15.5t-15 -6.5q-10 0 -16 6.5t-6 15.5z" />
<glyph unicode="&#x686;" horiz-adv-x="650" d="M570 13l-3 -13h-333q-83 0 -132 -43t-49 -116q0 -74 49 -118t132 -44h166v-13h-166q-89 0 -141.5 47.5t-52.5 127.5q0 79 52.5 125.5t141.5 46.5h312q-46 36 -67 86q-21 48 -44 137q-21 80 -37 119q-41 102 -153 102q-68 0 -133 -50l-9 9q64 54 142 54q66 0 106 -32 q39 -31 58 -77q20 -47 39 -124q23 -94 49.5 -145t72.5 -79zM232 -95q9 0 15 -6t6 -16q0 -9 -6 -15.5t-15 -6.5q-10 0 -16 6.5t-6 15.5q0 22 22 22zM383 -96q9 0 15 -6t6 -16q0 -9 -6 -15.5t-15 -6.5q-10 0 -16 6.5t-6 15.5q0 22 22 22zM308 -197q9 0 15 -6t6 -16 q0 -9 -6 -15.5t-15 -6.5q-10 0 -16 6.5t-6 15.5q0 22 22 22z" />
<glyph unicode="&#x688;" horiz-adv-x="590" d="M470 209v-209h-420v13h407v196q0 113 -47.5 155.5t-171.5 42.5h-72v13h72q132 0 182 -46.5t50 -164.5zM351 629v-54h-249v12h42v189h12v-142q59 71 124 71q32 0 51.5 -21t19.5 -55zM156 587h183v41q0 28 -16.5 47t-43.5 19q-61 0 -123 -74v-33z" />
<glyph unicode="&#x691;" horiz-adv-x="329" d="M-90 -250l2 13q30 -3 54 -3q113 0 166.5 62.5t53.5 191.5v456h13v-456q0 -135 -57 -201t-176 -66q-26 0 -56 3zM305 679v-54h-249v12h42v189h12v-142q59 71 124 71q32 0 51.5 -21t19.5 -55zM110 637h183v41q0 28 -16.5 47t-43.5 19q-61 0 -123 -74v-33z" />
<glyph unicode="&#x698;" horiz-adv-x="329" d="M-90 -250l2 13q30 -3 54 -3q113 0 166.5 62.5t53.5 191.5v456h13v-456q0 -135 -57 -201t-176 -66q-26 0 -56 3zM170 753q0 22 22 22q9 0 15 -6t6 -16q0 -9 -6 -15.5t-15 -6.5q-10 0 -16 6.5t-6 15.5zM81 637q0 22 22 22q9 0 15 -6t6 -16q0 -9 -6 -15.5t-15 -6.5 q-10 0 -16 6.5t-6 15.5zM260 637q0 22 22 22q9 0 15 -6t6 -16q0 -9 -6 -15.5t-15 -6.5q-10 0 -16 6.5t-6 15.5z" />
<glyph unicode="&#x6a1;" horiz-adv-x="1248" d="M1128 460v-419q-134 -41 -276 -41h-503q-115 0 -185 46q-69 46 -69 167q0 60 18 147l13 -2q-18 -86 -18 -146q0 -199 238 -199h509q136 0 247 31q-206 1 -310.5 60.5t-104.5 185.5q0 101 67 164t173 63q108 0 201 -57zM1115 55v398q-94 51 -188 51q-101 0 -164 -59.5 t-63 -154.5q0 -121 103.5 -177.5t311.5 -57.5z" />
<glyph unicode="&#x6a4;" horiz-adv-x="1248" d="M1128 460v-419q-134 -41 -276 -41h-503q-115 0 -185 46q-69 46 -69 167q0 60 18 147l13 -2q-18 -86 -18 -146q0 -199 238 -199h509q136 0 247 31q-206 1 -310.5 60.5t-104.5 185.5q0 101 67 164t173 63q108 0 201 -57zM1115 55v398q-94 51 -188 51q-101 0 -164 -59.5 t-63 -154.5q0 -121 103.5 -177.5t311.5 -57.5zM905 800q0 22 22 22q9 0 15 -6t6 -16q0 -9 -6 -15.5t-15 -6.5q-10 0 -16 6.5t-6 15.5zM816 684q0 22 22 22q9 0 15 -6t6 -16q0 -9 -6 -15.5t-15 -6.5q-10 0 -16 6.5t-6 15.5zM995 684q0 22 22 22q9 0 15 -6t6 -16 q0 -9 -6 -15.5t-15 -6.5q-10 0 -16 6.5t-6 15.5z" />
<glyph unicode="&#x6a9;" horiz-adv-x="1075" d="M975 119v-77q-101 -42 -262 -42h-364q-115 0 -185 46q-69 46 -69 167q0 60 18 147l13 -2q-18 -86 -18 -146q0 -199 238 -199h370q149 0 246 38v68q0 107 -62 170.5t-190 94.5l-89 22l-5 13l344 290l8 -10l-334 -283l79 -19q134 -33 198 -99.5t64 -178.5z" />
<glyph unicode="&#x6af;" horiz-adv-x="1075" d="M872 718l-280 -236l-5 13l276 233zM975 119v-77q-101 -42 -262 -42h-364q-115 0 -185 46q-69 46 -69 167q0 60 18 147l13 -2q-18 -86 -18 -146q0 -199 238 -199h370q149 0 246 38v68q0 107 -62 170.5t-190 94.5l-89 22l-5 13l344 290l8 -10l-334 -283l79 -19 q134 -33 198 -99.5t64 -178.5z" />
<glyph unicode="&#x6ba;" horiz-adv-x="846" d="M90 29q0 81 18 138l12 -3q-17 -60 -17 -135q0 -127 83 -198t237 -71q155 0 290 77v503h13v-509q-130 -84 -301 -84q-161 0 -248 74.5t-87 207.5z" />
<glyph unicode="&#x6be;" horiz-adv-x="915" d="M835 235v-235h-750q-16 0 -16 2v11h299q-69 23 -108 79.5t-39 133.5q0 89 60.5 149t146.5 60t146.5 -60t60.5 -149q0 -78 -38.5 -133t-108.5 -80h334v222q0 136 -54 214q-54 80 -133 108q-79 30 -165 30q-53 0 -111 -8v14q57 7 111 7q74 0 137 -19.5t115.5 -60 t82.5 -113.5t30 -172zM420 13h16q88 13 137 70.5t49 142.5q0 83 -56.5 139.5t-137.5 56.5t-137.5 -56.5t-56.5 -139.5q0 -85 49.5 -142.5t136.5 -70.5z" />
<glyph unicode="&#x6c1;" horiz-adv-x="640" d="M80 250q0 115 67 187.5t173 72.5t173 -72.5t67 -187.5t-67 -187.5t-173 -72.5t-173 72.5t-67 187.5zM547 250q0 110 -63 178.5t-164 68.5t-164 -68.5t-63 -178.5t63 -178.5t164 -68.5t164 68.5t63 178.5z" />
<glyph unicode="&#x6c2;" horiz-adv-x="640" d="M80 250q0 115 67 187.5t173 72.5t173 -72.5t67 -187.5t-67 -187.5t-173 -72.5t-173 72.5t-67 187.5zM547 250q0 110 -63 178.5t-164 68.5t-164 -68.5t-63 -178.5t63 -178.5t164 -68.5t164 68.5t63 178.5zM341 667h64v-12h-170v12h62q-41 25 -41 69q0 37 23.5 60.5 t58.5 23.5q30 0 57 -16l-6 -10q-23 14 -51 14q-31 0 -50.5 -20t-19.5 -52q0 -29 21 -49t52 -20z" />
<glyph unicode="&#x6c3;" horiz-adv-x="640" d="M80 250q0 115 67 187.5t173 72.5t173 -72.5t67 -187.5t-67 -187.5t-173 -72.5t-173 72.5t-67 187.5zM547 250q0 110 -63 178.5t-164 68.5t-164 -68.5t-63 -178.5t63 -178.5t164 -68.5t164 68.5t63 178.5zM209 677q0 22 22 22q9 0 15 -6t6 -16q0 -9 -6 -15.5t-15 -6.5 q-10 0 -16 6.5t-6 15.5zM388 677q0 22 22 22q9 0 15 -6t6 -16q0 -9 -6 -15.5t-15 -6.5q-10 0 -16 6.5t-6 15.5z" />
<glyph unicode="&#x6cc;" horiz-adv-x="1150" d="M1070 7l-13 -4l-108 374h-145q-63 0 -100 -29.5t-37 -80.5q0 -20 7 -44l110 -383q-55 -35 -157 -65q-96 -28 -197 -28q-160 0 -250 76t-90 206q0 81 19 138l12 -3q-18 -64 -18 -135q0 -125 85.5 -197t238.5 -72q99 0 193 27q94 25 149 59l-108 375q-7 21 -7 46 q0 56 40.5 89.5t108.5 33.5h157z" />
<glyph unicode="&#x6d2;" horiz-adv-x="785" d="M100 101q0 91 110 119l155 37q36 8 52 36t16 83v94h13v-94q0 -60 -18 -91t-60 -41l-155 -37q-100 -24 -100 -106q0 -88 134 -88h478v-13h-478q-147 0 -147 101z" />
<glyph unicode="&#x6d3;" horiz-adv-x="785" d="M100 101q0 91 110 119l155 37q36 8 52 36t16 83v94h13v-94q0 -60 -18 -91t-60 -41l-155 -37q-100 -24 -100 -106q0 -88 134 -88h478v-13h-478q-147 0 -147 101zM224 417h64v-12h-170v12h62q-41 25 -41 69q0 37 23.5 60.5t58.5 23.5q30 0 57 -16l-6 -10q-23 14 -51 14 q-31 0 -50.5 -20t-19.5 -52q0 -29 21 -49t52 -20z" />
<glyph unicode="&#x6d4;" horiz-adv-x="243" d="M100 12q0 22 22 22q9 0 15 -6t6 -16q0 -9 -6 -15.5t-15 -6.5q-10 0 -16 6.5t-6 15.5z" />
<glyph unicode="&#x6f0;" horiz-adv-x="278" d="M139 308l-49 49l49 49l49 -49z" />
<glyph unicode="&#x6f1;" horiz-adv-x="265" d="M152 0l-52 700h13l52 -700h-13z" />
<glyph unicode="&#x6f2;" horiz-adv-x="506" d="M446 700v-13h-332l51 -687h-13l-52 700h346z" />
<glyph unicode="&#x6f3;" horiz-adv-x="665" d="M590 702h15v-197q-15 -16 -50.5 -28.5t-75.5 -12.5q-75 0 -119 35q-49 -35 -121 -35q-61 0 -108 27l42 -491h-13l-60 700h13l16 -191q44 -32 110 -32q69 0 114 33v191h13v-191q45 -33 113 -33q69 0 111 33v192z" />
<glyph unicode="&#x6f4;" horiz-adv-x="525" d="M374 477h101v-13h-344l34 -464h-13l-52 700h13l17 -223h184q-31 15 -49.5 44t-18.5 65q0 53 35 88q36 36 88 36q49 0 84 -23l-7 -11q-33 21 -78 21q-46 0 -77.5 -32t-31.5 -79q0 -48 33 -78.5t82 -30.5z" />
<glyph unicode="&#x6f5;" horiz-adv-x="615" d="M545 190q0 -96 -35 -147t-101 -51q-63 0 -101 54q-40 -54 -102 -54q-66 0 -101 51t-35 147q-1 94 31.5 188.5t89 155.5t117.5 58q61 3 117.5 -58t88.5 -155.5t31 -188.5zM532 190q1 90 -30 182t-84.5 151t-109.5 56q-56 3 -110 -56t-85 -151t-30 -182q0 -90 32 -137.5 t91 -47.5q58 0 96 55h11q38 -55 96 -55q59 0 91 47.5t32 137.5z" />
<glyph unicode="&#x6f6;" horiz-adv-x="480" d="M428 390l2 -13l-105 -14q-79 -12 -119 -35t-68 -80t-51 -173l-14 -75l-13 2l14 75q29 146 67.5 205t129.5 84q-62 13 -100 59t-38 113q0 77 48.5 124.5t124.5 47.5q68 0 114 -31l-7 -11q-46 29 -108 29q-70 0 -114.5 -44.5t-44.5 -114.5q0 -71 47.5 -116.5t116.5 -47.5 l13 2z" />
<glyph unicode="&#x6f7;" horiz-adv-x="565" d="M510 700h15q-72 -162 -127 -330q-53 -166 -108 -370h-14q-56 209 -111 371q-53 162 -125 329h15q70 -161 123 -322q55 -164 105 -355q52 199 105 358q57 171 122 319z" />
<glyph unicode="&#x6f8;" horiz-adv-x="565" d="M525 0h-15q-66 151 -122 318q-52 156 -105 359q-50 -189 -105 -356q-54 -162 -123 -321h-15q71 165 125 328q55 165 111 372h14q55 -204 108 -370q55 -168 127 -330z" />
<glyph unicode="&#x6f9;" horiz-adv-x="573" d="M473 0h-13l-17 250h-127q-124 0 -195 60t-71 171q0 109 67 169t177 60q78 0 131 -25zM316 263h126l-29 412q-53 22 -119 22q-102 0 -166 -54q-65 -54 -65 -161q0 -106 68 -162.5t185 -56.5z" />
<glyph unicode="&#x1e80;" horiz-adv-x="1091" d="M1026 700h15l-245 -700h-20l-230 688l-230 -688h-21l-245 700h15l240 -687l230 687h21l230 -687zM487 910l103 -145h-15l-109 145h21z" />
<glyph unicode="&#x1e81;" horiz-adv-x="814" d="M785 500l-190 -500h-18l-170 488l-169 -488h-18l-190 500h14l185 -487l169 487h19l169 -487l185 487h14zM346 710l103 -145h-15l-109 145h21z" />
<glyph unicode="&#x1e82;" horiz-adv-x="1091" d="M1026 700h15l-245 -700h-20l-230 688l-230 -688h-21l-245 700h15l240 -687l230 687h21l230 -687zM630 910l-109 -145h-15l103 145h21z" />
<glyph unicode="&#x1e83;" horiz-adv-x="814" d="M785 500l-190 -500h-18l-170 488l-169 -488h-18l-190 500h14l185 -487l169 487h19l169 -487l185 487h14zM489 710l-109 -145h-15l103 145h21z" />
<glyph unicode="&#x1e84;" horiz-adv-x="1091" d="M1026 700h15l-245 -700h-20l-230 688l-230 -688h-21l-245 700h15l240 -687l230 687h21l230 -687zM467 848q0 -14 -13 -14q-14 0 -14 14q0 13 14 13q13 0 13 -13zM656 848q0 -14 -14 -14q-13 0 -13 14q0 13 13 13q14 0 14 -13z" />
<glyph unicode="&#x1e85;" horiz-adv-x="814" d="M785 500l-190 -500h-18l-170 488l-169 -488h-18l-190 500h14l185 -487l169 487h19l169 -487l185 487h14zM326 648q0 -14 -13 -14q-14 0 -14 14q0 13 14 13q13 0 13 -13zM515 648q0 -14 -14 -14q-13 0 -13 14q0 13 13 13q14 0 14 -13z" />
<glyph unicode="&#x1e9e;" horiz-adv-x="798" d="M719 182q0 -88 -61 -140t-164 -52q-67 0 -134 22t-112 60l7 11q44 -36 109 -58t129 -22q94 0 153 49t59 128q0 63 -43.5 100.5t-146.5 63.5l-28 7v17l182 239q-114 90 -254 90q-122 0 -191.5 -61.5t-69.5 -169.5v-466h-14v466q0 115 72 179.5t201 64.5q152 0 276 -100 l-189 -249l17 -4q110 -24 156 -64.5t46 -110.5z" />
<glyph unicode="&#x1ef2;" horiz-adv-x="742" d="M675 700h17l-314 -436v-264h-14v264l-314 436h17l304 -421zM310 910l103 -145h-15l-109 145h21z" />
<glyph unicode="&#x1ef3;" horiz-adv-x="539" d="M510 500l-246 -554q-37 -83 -77 -117t-94 -34q-31 0 -63 12l5 11q30 -11 58 -11q50 0 87 32.5t72 111.5l15 33l-237 516h14l230 -500l222 500h14zM209 710l103 -145h-15l-109 145h21z" />
<glyph unicode="&#x2000;" horiz-adv-x="520" />
<glyph unicode="&#x2001;" horiz-adv-x="1040" />
<glyph unicode="&#x2002;" horiz-adv-x="520" />
<glyph unicode="&#x2003;" horiz-adv-x="1040" />
<glyph unicode="&#x2004;" horiz-adv-x="346" />
<glyph unicode="&#x2005;" horiz-adv-x="260" />
<glyph unicode="&#x2006;" horiz-adv-x="173" />
<glyph unicode="&#x2007;" horiz-adv-x="173" />
<glyph unicode="&#x2008;" horiz-adv-x="130" />
<glyph unicode="&#x2009;" horiz-adv-x="100" />
<glyph unicode="&#x200a;" horiz-adv-x="57" />
<glyph unicode="&#x2010;" horiz-adv-x="460" d="M400 266v-13h-340v13h340z" />
<glyph unicode="&#x2011;" horiz-adv-x="460" d="M400 266v-13h-340v13h340z" />
<glyph unicode="&#x2012;" horiz-adv-x="460" d="M400 266v-13h-340v13h340z" />
<glyph unicode="&#x2013;" horiz-adv-x="568" d="M509 266v-13h-449v13h449z" />
<glyph unicode="&#x2014;" horiz-adv-x="737" d="M60 253v13h617v-13h-617z" />
<glyph unicode="&#x2018;" horiz-adv-x="150" d="M48 609q0 7 4 15l39 93l9 -4l-31 -89q9 -3 9 -14q0 -15 -15 -15t-15 14z" />
<glyph unicode="&#x2019;" horiz-adv-x="150" d="M100 703q0 -7 -4 -15l-39 -93l-9 4l31 89q-9 3 -9 14q0 15 15 15t15 -14z" />
<glyph unicode="&#x201a;" horiz-adv-x="150" d="M100 5q0 -7 -4 -15l-39 -93l-9 4l31 89q-9 3 -9 14q0 15 15 15t15 -14z" />
<glyph unicode="&#x201c;" horiz-adv-x="300" d="M48 609q0 7 4 15l39 93l9 -4l-31 -89q9 -3 9 -14q0 -15 -15 -15t-15 14zM198 609q0 7 4 15l39 93l9 -4l-31 -89q9 -3 9 -14q0 -15 -15 -15t-15 14z" />
<glyph unicode="&#x201d;" horiz-adv-x="300" d="M100 703q0 -7 -4 -15l-39 -93l-9 4l31 89q-9 3 -9 14q0 15 15 15t15 -14zM250 703q0 -7 -4 -15l-39 -93l-9 4l31 89q-9 3 -9 14q0 15 15 15t15 -14z" />
<glyph unicode="&#x201e;" horiz-adv-x="300" d="M100 5q0 -7 -4 -15l-39 -93l-9 4l31 89q-9 3 -9 14q0 15 15 15t15 -14zM250 5q0 -7 -4 -15l-39 -93l-9 4l31 89q-9 3 -9 14q0 15 15 15t15 -14z" />
<glyph unicode="&#x2020;" horiz-adv-x="592" d="M303 710v-250h219v-13h-219v-600h-14v600h-219v13h219v250h14z" />
<glyph unicode="&#x2021;" horiz-adv-x="592" d="M303 710v-250h219v-13h-219v-337h219v-13h-219v-250h-14v250h-219v13h219v337h-219v13h219v250h14z" />
<glyph unicode="&#x2022;" horiz-adv-x="356" d="M304 313q0 -53 -37 -90t-89 -37t-89.5 37.5t-37.5 89.5t37.5 89.5t89.5 37.5t89 -37t37 -90z" />
<glyph unicode="&#x2026;" horiz-adv-x="642" d="M132 4q0 -15 -15 -15t-15 15t15 15t15 -15zM346 4q0 -15 -15 -15t-15 15t15 15t15 -15zM560 4q0 -15 -15 -15t-15 15t15 15t15 -15z" />
<glyph unicode="&#x202f;" horiz-adv-x="208" />
<glyph unicode="&#x2030;" horiz-adv-x="1176" d="M671 717l-537 -734h-17l537 734h17zM345 531q0 -81 -39.5 -128t-108.5 -47q-68 0 -107.5 47.5t-39.5 127.5t39.5 127.5t107.5 47.5q69 0 108.5 -47t39.5 -128zM64 531q0 -74 36 -118t97 -44q62 0 98 44t36 118t-36 118t-98 44q-61 0 -97 -44t-36 -118zM745 169 q0 -81 -39.5 -128t-108.5 -47q-68 0 -107.5 47.5t-39.5 127.5t39.5 127.5t107.5 47.5q69 0 108.5 -47t39.5 -128zM1127 169q0 -81 -39.5 -128t-108.5 -47q-68 0 -107.5 47.5t-39.5 127.5t39.5 127.5t107.5 47.5q69 0 108.5 -47t39.5 -128zM464 169q0 -74 36 -118t97 -44 q62 0 98 44t36 118t-36 118t-98 44q-61 0 -97 -44t-36 -118zM846 169q0 -75 35.5 -118.5t97.5 -43.5t98 44t36 118t-36 118t-98 44t-97.5 -43.5t-35.5 -118.5z" />
<glyph unicode="&#x2039;" horiz-adv-x="256" d="M196 441l11 -8l-139 -168l139 -168l-11 -8l-146 176z" />
<glyph unicode="&#x203a;" horiz-adv-x="256" d="M61 441l146 -176l-146 -176l-11 8l139 168l-139 168z" />
<glyph unicode="&#x2044;" horiz-adv-x="109" d="M284 687l-443 -704h-16l443 704h16z" />
<glyph unicode="&#x205f;" horiz-adv-x="260" />
<glyph unicode="&#x2070;" horiz-adv-x="442" d="M392 546q0 -97 -46 -153.5t-125 -56.5t-125 56.5t-46 153.5t46 153.5t125 56.5t125 -56.5t46 -153.5zM64 546q0 -91 42.5 -144t114.5 -53t114.5 53t42.5 144t-42.5 144t-114.5 53t-114.5 -53t-42.5 -144z" />
<glyph unicode="&#x2074;" horiz-adv-x="371" d="M255 484h86v-13h-86v-128h-14v128h-227v14l228 266h13v-267zM30 484h211v246z" />
<glyph unicode="&#x2075;" horiz-adv-x="332" d="M294 471q0 -59 -43 -96q-43 -38 -107 -38q-76 0 -124 54l10 9q44 -50 113 -50q60 0 98 34q39 34 39 87q0 50 -35 82t-90 32q-64 0 -107 -43l-9 9l4 200h225v-13h-212l-4 -175q43 35 104 35q60 0 99 -36t39 -91z" />
<glyph unicode="&#x2076;" horiz-adv-x="378" d="M338 472q0 -60 -38.5 -97.5t-98.5 -37.5q-71 0 -111 54.5t-40 152.5q0 100 41 156.5t115 56.5q63 0 118 -43l-9 -10q-49 40 -108 40q-67 0 -105 -53t-38 -147v-14q18 35 53.5 55t80.5 20q62 0 101 -37t39 -96zM324 472q0 54 -35.5 87t-93.5 33q-90 0 -129 -86 q7 -74 42 -115t93 -41q54 0 88.5 34t34.5 88z" />
<glyph unicode="&#x2077;" horiz-adv-x="330" d="M20 751h290v-14l-230 -394h-16l231 395h-275v13z" />
<glyph unicode="&#x2078;" horiz-adv-x="390" d="M342 454q0 -52 -41.5 -85t-105.5 -33t-105.5 33t-41.5 85q0 40 27 68.5t74 38.5q-39 9 -62.5 34t-23.5 59q0 44 37 73t95 29q57 0 95 -29t38 -73q0 -34 -23.5 -59t-63.5 -34q47 -10 74 -38.5t27 -68.5zM196 568q53 0 85.5 23.5t32.5 61.5q0 40 -33 65t-85 25 q-53 0 -86 -25t-33 -65q0 -38 32.5 -61.5t86.5 -23.5zM328 453q0 46 -36.5 74t-96.5 28t-96.5 -28t-36.5 -74t37 -75t96 -29t96 29t37 75z" />
<glyph unicode="&#x2079;" horiz-adv-x="378" d="M328 550q0 -100 -41 -156.5t-115 -56.5q-63 0 -118 43l9 10q49 -40 108 -40q67 0 105 53t38 147v14q-18 -35 -53.5 -55t-80.5 -20q-62 0 -101 37t-39 96q0 60 38.5 97.5t98.5 37.5q71 0 111 -54.5t40 -152.5zM312 588q-7 74 -42 115t-93 41q-54 0 -88.5 -34t-34.5 -88 t35.5 -87t93.5 -33q90 0 129 86z" />
<glyph unicode="&#x2080;" horiz-adv-x="442" d="M392 204q0 -97 -46 -153.5t-125 -56.5t-125 56.5t-46 153.5t46 153.5t125 56.5t125 -56.5t46 -153.5zM64 204q0 -91 42.5 -144t114.5 -53t114.5 53t42.5 144t-42.5 144t-114.5 53t-114.5 -53t-42.5 -144z" />
<glyph unicode="&#x2081;" horiz-adv-x="187" d="M113 414v-414h-14v401l-89 -20v13l91 20h12z" />
<glyph unicode="&#x2082;" horiz-adv-x="335" d="M42 13h253v-13h-270v14l174 176q43 44 57 66q14 23 14 46q0 45 -30 72t-80 27q-79 0 -129 -74l-11 6q52 81 140 81q55 0 89.5 -30.5t34.5 -80.5q0 -27 -16 -52q-17 -27 -61 -71z" />
<glyph unicode="&#x2083;" horiz-adv-x="348" d="M298 117q0 -56 -40.5 -90.5t-105.5 -34.5q-70 0 -132 44l7 11q62 -42 124 -42q61 0 97 30.5t36 81.5q0 46 -30.5 72.5t-84.5 26.5q-36 0 -73 -14l-4 13l167 180h-217v13h235v-12l-164 -176q27 9 58 9q58 0 92.5 -30.5t34.5 -81.5z" />
<glyph unicode="&#x2084;" horiz-adv-x="371" d="M255 141h86v-13h-86v-128h-14v128h-227v14l228 266h13v-267zM30 141h211v246z" />
<glyph unicode="&#x2085;" horiz-adv-x="332" d="M294 128q0 -59 -43 -96q-43 -38 -107 -38q-76 0 -124 54l10 9q44 -50 113 -50q60 0 98 34q39 35 39 87q0 50 -35 82t-90 32q-64 0 -107 -43l-9 9l4 200h225v-13h-212l-4 -175q43 35 104 35q60 0 99 -36t39 -91z" />
<glyph unicode="&#x2086;" horiz-adv-x="378" d="M338 129q0 -60 -38.5 -97.5t-98.5 -37.5q-71 0 -111 54.5t-40 152.5q0 100 41 156.5t115 56.5q63 0 118 -43l-9 -10q-49 40 -108 40q-67 0 -105 -53t-38 -147v-14q18 35 53.5 55t80.5 20q62 0 101 -37t39 -96zM324 129q0 54 -35.5 87t-93.5 33q-90 0 -129 -86 q7 -74 42 -115t93 -41q54 0 88.5 34t34.5 88z" />
<glyph unicode="&#x2087;" horiz-adv-x="330" d="M20 408h290v-14l-230 -394h-16l231 395h-275v13z" />
<glyph unicode="&#x2088;" horiz-adv-x="390" d="M342 112q0 -52 -41.5 -85t-105.5 -33t-105.5 33t-41.5 85q0 40 27 68.5t74 38.5q-39 9 -62.5 34t-23.5 59q0 44 37 73t95 29q57 0 95 -29t38 -73q0 -34 -23.5 -59t-63.5 -34q47 -10 74 -38.5t27 -68.5zM196 226q53 0 85.5 23.5t32.5 61.5q0 40 -33 65t-85 25 q-53 0 -86 -25t-33 -65q0 -38 32.5 -61.5t86.5 -23.5zM328 111q0 46 -36.5 74t-96.5 28t-96.5 -28t-36.5 -74t37 -75t96 -29t96 29t37 75z" />
<glyph unicode="&#x2089;" horiz-adv-x="378" d="M328 207q0 -100 -41 -156.5t-115 -56.5q-63 0 -118 43l9 10q49 -40 108 -40q67 0 105 53t38 147v14q-18 -35 -53.5 -55t-80.5 -20q-62 0 -101 37t-39 96q0 60 38.5 97.5t98.5 37.5q71 0 111 -54.5t40 -152.5zM312 245q-7 74 -42 115t-93 41q-54 0 -88.5 -34t-34.5 -88 t35.5 -87t93.5 -33q90 0 129 86z" />
<glyph unicode="&#x20ac;" horiz-adv-x="600" d="M574 121l10 -8q-42 -58 -100.5 -90.5t-122.5 -32.5q-98 0 -178 74.5t-106 187.5h-69v13h66q-8 46 -8 85q0 36 6 70h-64v13h66q23 119 103.5 198t183.5 79q64 0 122.5 -32.5t100.5 -90.5l-11 -8q-83 118 -212 118q-98 0 -174 -74.5t-99 -189.5h329v-13h-331q-6 -34 -6 -70 q0 -39 8 -85h329v-13h-326q26 -109 101.5 -179t168.5 -70q126 0 213 118z" />
<glyph unicode="&#x20b4;" horiz-adv-x="600" d="M470 433h119v-13h-578v13h440q48 43 48 106q0 77 -55 117q-56 41 -138 41q-123 0 -214 -69l-7 11q44 33 103.5 52t117.5 19q88 0 147 -44q60 -43 60 -127q0 -58 -43 -106zM11 252v13h578v-13h-494q-18 -28 -18 -85q0 -80 60 -122t150 -42q65 0 131 21.5t111 57.5l7 -10 q-47 -38 -114.5 -60t-134.5 -22q-94 0 -158 46.5t-64 130.5q0 52 16 85h-70z" />
<glyph unicode="&#x20b8;" horiz-adv-x="600" d="M571 700v-13h-542v13h542zM571 530v-13h-264v-517h-14v517h-264v13h542z" />
<glyph unicode="&#x20bd;" horiz-adv-x="600" d="M303 254h-205v-112h264v-12h-264v-130h-14v130h-114v12h114v112h-114v13h114v433h217q143 0 209.5 -55t66.5 -170q0 -113 -67.5 -167t-206.5 -54zM98 687v-420h205q134 0 197 50t63 158q0 109 -62.5 160.5t-199.5 51.5h-203z" />
<glyph unicode="&#x2116;" horiz-adv-x="1591" d="M922 450q-2 106 78 184t187 76q107 2 187 -76t78 -184q2 -106 -78 -184t-187 -76q-107 -2 -187 76t-78 184zM709 13v687h14v-700h-22l-547 687v-687h-14v700h22zM935 450q-2 -100 74.5 -175t177.5 -73q101 -2 177.5 73t74.5 175q2 100 -74.5 175t-177.5 73 q-101 2 -177.5 -73t-74.5 -175zM977 0v13h420v-13h-420z" />
<glyph unicode="&#x2122;" horiz-adv-x="883" d="M321 700v-12h-139v-361h-13v361h-139v12h291zM833 700v-373h-13v353l-191 -321h-12l-191 321v-353h-14v373h17l194 -326l194 326h16z" />
<glyph unicode="&#x215b;" horiz-adv-x="706" d="M113 686v-414h-14v401l-89 -20v13l91 20h12zM491 687l-443 -704h-16l443 704h16zM658 112q0 -52 -41.5 -85t-105.5 -33t-105.5 33t-41.5 85q0 40 27 68.5t74 38.5q-39 9 -62.5 34t-23.5 59q0 44 37 73t95 29q57 0 95 -29t38 -73q0 -34 -23.5 -59t-63.5 -34 q47 -10 74 -38.5t27 -68.5zM512 226q53 0 85.5 23.5t32.5 61.5q0 40 -33 65t-85 25q-53 0 -86 -25t-33 -65q0 -38 32.5 -61.5t86.5 -23.5zM644 111q0 46 -36.5 74t-96.5 28t-96.5 -28t-36.5 -74t37 -75t96 -29t96 29t37 75z" />
<glyph unicode="&#x215c;" horiz-adv-x="847" d="M298 389q0 -56 -40.5 -90.5t-105.5 -34.5q-70 0 -132 44l7 11q62 -42 124 -42q61 0 97 30.5t36 81.5q0 46 -30.5 72.5t-84.5 26.5q-36 0 -73 -14l-4 13l167 180h-217v13h235v-12l-164 -176q27 9 58 9q58 0 92.5 -30.5t34.5 -81.5zM632 687l-443 -704h-16l443 704h16z M799 112q0 -52 -41.5 -85t-105.5 -33t-105.5 33t-41.5 85q0 40 27 68.5t74 38.5q-39 9 -62.5 34t-23.5 59q0 44 37 73t95 29q57 0 95 -29t38 -73q0 -34 -23.5 -59t-63.5 -34q47 -10 74 -38.5t27 -68.5zM653 226q53 0 85.5 23.5t32.5 61.5q0 40 -33 65t-85 25q-53 0 -86 -25 t-33 -65q0 -38 32.5 -61.5t86.5 -23.5zM785 111q0 46 -36.5 74t-96.5 28t-96.5 -28t-36.5 -74t37 -75t96 -29t96 29t37 75z" />
<glyph unicode="&#x215d;" horiz-adv-x="831" d="M294 400q0 -59 -43 -96q-43 -38 -107 -38q-76 0 -124 54l10 9q44 -50 113 -50q60 0 98 34q39 35 39 87q0 50 -35 82t-90 32q-64 0 -107 -43l-9 9l4 200h225v-13h-212l-4 -175q43 35 104 35q60 0 99 -36t39 -91zM616 687l-443 -704h-16l443 704h16zM783 112 q0 -52 -41.5 -85t-105.5 -33t-105.5 33t-41.5 85q0 40 27 68.5t74 38.5q-39 9 -62.5 34t-23.5 59q0 44 37 73t95 29q57 0 95 -29t38 -73q0 -34 -23.5 -59t-63.5 -34q47 -10 74 -38.5t27 -68.5zM637 226q53 0 85.5 23.5t32.5 61.5q0 40 -33 65t-85 25q-53 0 -86 -25t-33 -65 q0 -38 32.5 -61.5t86.5 -23.5zM769 111q0 46 -36.5 74t-96.5 28t-96.5 -28t-36.5 -74t37 -75t96 -29t96 29t37 75z" />
<glyph unicode="&#x215e;" horiz-adv-x="765" d="M20 680h290v-14l-230 -394h-16l231 395h-275v13zM550 687l-443 -704h-16l443 704h16zM717 112q0 -52 -41.5 -85t-105.5 -33t-105.5 33t-41.5 85q0 40 27 68.5t74 38.5q-39 9 -62.5 34t-23.5 59q0 44 37 73t95 29q57 0 95 -29t38 -73q0 -34 -23.5 -59t-63.5 -34 q47 -10 74 -38.5t27 -68.5zM571 226q53 0 85.5 23.5t32.5 61.5q0 40 -33 65t-85 25q-53 0 -86 -25t-33 -65q0 -38 32.5 -61.5t86.5 -23.5zM703 111q0 46 -36.5 74t-96.5 28t-96.5 -28t-36.5 -74t37 -75t96 -29t96 29t37 75z" />
<glyph unicode="&#x2212;" horiz-adv-x="600" d="M500 266v-13h-400v13h400z" />
<glyph unicode="&#x2248;" horiz-adv-x="600" d="M300 365q54 -53 96 -53q36 0 60 27.5t32 79.5l12 -2q-8 -56 -35.5 -87t-68.5 -31q-45 0 -105 57q-50 49 -89 49q-73 0 -90 -106l-12 2q8 55 35 86t67 31q42 0 98 -53zM300 165q54 -53 96 -53q36 0 60 27.5t32 79.5l12 -2q-8 -56 -35.5 -87t-68.5 -31q-45 0 -105 57 q-50 49 -89 49q-73 0 -90 -106l-12 2q8 55 35 86t67 31q42 0 98 -53z" />
<glyph unicode="&#x2260;" horiz-adv-x="600" d="M500 341h-154l-77 -162h231v-13h-237l-88 -183h-14l88 183h-149v13h155l77 162h-232v13h238l88 183h14l-88 -183h148v-13z" />
<glyph unicode="&#x2264;" horiz-adv-x="600" d="M500 508v-15l-386 -204l386 -204v-15l-400 212v14zM500 13v-13h-400v13h400z" />
<glyph unicode="&#x2265;" horiz-adv-x="600" d="M100 508l400 -212v-14l-400 -212v15l386 204l-386 204v15zM500 13v-13h-400v13h400z" />
<glyph unicode="&#x25cc;" horiz-adv-x="625" d="M311 571q14 0 23.5 -9t9.5 -24t-9 -23.5t-24 -8.5q-14 0 -23 8.5t-9 23.5t9 24t23 9zM212 554q14 0 23.5 -9t9.5 -24t-9 -23.5t-24 -8.5q-14 0 -23 8.5t-9 23.5t9 24t23 9zM411 554q14 0 23.5 -9t9.5 -24t-9 -23.5t-24 -8.5q-14 0 -23 8.5t-9 23.5t9 24t23 9zM126 498 q14 0 23.5 -9t9.5 -24t-9 -23.5t-24 -8.5q-14 0 -23 8.5t-9 23.5t9 24t23 9zM496 498q14 0 23.5 -9t9.5 -24t-9 -23.5t-24 -8.5q-14 0 -23 8.5t-9 23.5t9 24t23 9zM75 410q14 0 23.5 -9t9.5 -24t-9 -23.5t-24 -8.5q-14 0 -23 8.5t-9 23.5t9 24t23 9zM550 410q14 0 23.5 -9 t9.5 -24t-9 -23.5t-24 -8.5q-14 0 -23 8.5t-9 23.5t9 24t23 9zM58 315q14 0 23.5 -9t9.5 -24t-9 -23.5t-24 -8.5q-14 0 -23 8.5t-9 23.5t9 24t23 9zM566 315q14 0 23.5 -9t9.5 -24t-9 -23.5t-24 -8.5q-14 0 -23 8.5t-9 23.5t9 24t23 9zM75 223q14 0 23.5 -9t9.5 -24 t-9 -23.5t-24 -8.5q-14 0 -23 8.5t-9 23.5t9 24t23 9zM550 223q14 0 23.5 -9t9.5 -24t-9 -23.5t-24 -8.5q-14 0 -23 8.5t-9 23.5t9 24t23 9zM126 133q14 0 23.5 -9t9.5 -24t-9 -23.5t-24 -8.5q-14 0 -23 8.5t-9 23.5t9 24t23 9zM496 133q14 0 23.5 -9t9.5 -24t-9 -23.5 t-24 -8.5q-14 0 -23 8.5t-9 23.5t9 24t23 9zM212 78q14 0 23.5 -9t9.5 -24t-9 -23.5t-24 -8.5q-14 0 -23 8.5t-9 23.5t9 24t23 9zM411 78q14 0 23.5 -9t9.5 -24t-9 -23.5t-24 -8.5q-14 0 -23 8.5t-9 23.5t9 24t23 9zM311 61q14 0 23.5 -9t9.5 -24t-9 -23.5t-24 -8.5 q-14 0 -23 8.5t-9 23.5t9 24t23 9z" />
<glyph unicode="&#x25fc;" horiz-adv-x="500" d="M0 500h500v-500h-500v500z" />
<glyph unicode="&#xfb00;" horiz-adv-x="788" d="M349 700l-4 -12q-24 10 -64 10q-66 0 -103.5 -39.5t-37.5 -111.5v-47h381v47q0 77 41.5 120t112.5 43q42 0 68 -10l-4 -12q-24 10 -64 10q-66 0 -103.5 -39.5t-37.5 -111.5v-47h191v-12h-191v-488h-13v488h-381v-488h-13v488h-97v12h97v47q0 77 41.5 120t112.5 43 q42 0 68 -10z" />
<glyph unicode="&#xfb03;" horiz-adv-x="1044" d="M349 700l-4 -12q-24 10 -64 10q-66 0 -103.5 -39.5t-37.5 -111.5v-47h381v47q0 77 41.5 120t112.5 43q42 0 68 -10l-4 -12q-24 10 -64 10q-66 0 -103.5 -39.5t-37.5 -111.5v-47h390v-500h-13v488h-377v-488h-13v488h-381v-488h-13v488h-97v12h97v47q0 77 41.5 120 t112.5 43q42 0 68 -10zM931 647q0 -14 -14 -14t-14 14t14 14t14 -14z" />
<glyph unicode="&#xfb04;" horiz-adv-x="1026" d="M349 700l-4 -12q-24 10 -64 10q-66 0 -103.5 -39.5t-37.5 -111.5v-47h381v47q0 77 41.5 120t112.5 43q42 0 66 -10h175v-700h-13v688h-164q-24 10 -64 10q-66 0 -103.5 -39.5t-37.5 -111.5v-47h191v-12h-191v-488h-13v488h-381v-488h-13v488h-97v12h97v47q0 77 41.5 120 t112.5 43q42 0 68 -10z" />
<glyph unicode="&#xfb06;" horiz-adv-x="964" d="M908 21l6 -11q-42 -20 -81 -20q-70 0 -116.5 48t-46.5 125v325h-106v12h106v69q0 151 -201 151q-85 0 -136 -36t-51 -98q0 -41 35 -82q71 -14 122 -45l-7 -10q-74 49 -180 49q-75 0 -117.5 -31t-42.5 -85q0 -41 31.5 -64.5t118.5 -45.5l71 -19q87 -22 116.5 -49.5 t29.5 -85.5t-52 -93t-139 -35q-58 0 -116 16t-97 43l7 10q85 -57 206 -57q83 0 130.5 31t47.5 85q0 53 -27 77t-110 46l-70 19q-93 26 -126.5 51t-33.5 70q0 60 46.5 94.5t126.5 34.5q23 0 47 -3q-30 37 -30 79q0 69 54.5 107.5t145.5 38.5q214 0 214 -163v-69h182v-12h-182 v-325q0 -72 43 -116.5t107 -44.5q38 0 75 19z" />
<glyph unicode="&#xfbb2;" d="M179 662q0 22 22 22q9 0 15 -6t6 -16q0 -9 -6 -15.5t-15 -6.5q-10 0 -16 6.5t-6 15.5z" />
<glyph unicode="&#xfbb3;" d="M180 -122q0 22 22 22q9 0 15 -6t6 -16q0 -9 -6 -15.5t-15 -6.5q-10 0 -16 6.5t-6 15.5z" />
<glyph unicode="&#xfbb4;" d="M89 662q0 22 22 22q9 0 15 -6t6 -16q0 -9 -6 -15.5t-15 -6.5q-10 0 -16 6.5t-6 15.5zM268 662q0 22 22 22q9 0 15 -6t6 -16q0 -9 -6 -15.5t-15 -6.5q-10 0 -16 6.5t-6 15.5z" />
<glyph unicode="&#xfbb5;" d="M89 -128q0 22 22 22q9 0 15 -6t6 -16q0 -9 -6 -15.5t-15 -6.5q-10 0 -16 6.5t-6 15.5zM268 -128q0 22 22 22q9 0 15 -6t6 -16q0 -9 -6 -15.5t-15 -6.5q-10 0 -16 6.5t-6 15.5z" />
<glyph unicode="&#xfbb6;" d="M178 768q0 22 22 22q9 0 15 -6t6 -16q0 -9 -6 -15.5t-15 -6.5q-10 0 -16 6.5t-6 15.5zM89 652q0 22 22 22q9 0 15 -6t6 -16q0 -9 -6 -15.5t-15 -6.5q-10 0 -16 6.5t-6 15.5zM268 652q0 22 22 22q9 0 15 -6t6 -16q0 -9 -6 -15.5t-15 -6.5q-10 0 -16 6.5t-6 15.5z" />
<glyph unicode="&#xfbb7;" d="M178 -122q0 22 22 22q9 0 15 -6t6 -16q0 -9 -6 -15.5t-15 -6.5q-10 0 -16 6.5t-6 15.5zM89 -238q0 22 22 22q9 0 15 -6t6 -16q0 -9 -6 -15.5t-15 -6.5q-10 0 -16 6.5t-6 15.5zM268 -238q0 22 22 22q9 0 15 -6t6 -16q0 -9 -6 -15.5t-15 -6.5q-10 0 -16 6.5t-6 15.5z" />
<glyph unicode="&#xfbb8;" d="M89 768q0 22 22 22q9 0 15 -6t6 -16q0 -9 -6 -15.5t-15 -6.5q-10 0 -16 6.5t-6 15.5zM268 767q0 22 22 22q9 0 15 -6t6 -16q0 -9 -6 -15.5t-15 -6.5q-10 0 -16 6.5t-6 15.5zM179 652q0 22 22 22q9 0 15 -6t6 -16q0 -9 -6 -15.5t-15 -6.5q-10 0 -16 6.5t-6 15.5z" />
<glyph unicode="&#xfbb9;" d="M89 -122q0 22 22 22q9 0 15 -6t6 -16q0 -9 -6 -15.5t-15 -6.5q-10 0 -16 6.5t-6 15.5zM268 -123q0 22 22 22q9 0 15 -6t6 -16q0 -9 -6 -15.5t-15 -6.5q-10 0 -16 6.5t-6 15.5zM179 -238q0 22 22 22q9 0 15 -6t6 -16q0 -9 -6 -15.5t-15 -6.5q-10 0 -16 6.5t-6 15.5z" />
<glyph unicode="&#xfbbd;" d="M180 769q0 22 22 22q9 0 15 -6t6 -16q0 -9 -6 -15.5t-15 -6.5q-10 0 -16 6.5t-6 15.5zM180 662q0 22 22 22q9 0 15 -6t6 -16q0 -9 -6 -15.5t-15 -6.5q-10 0 -16 6.5t-6 15.5z" />
<glyph unicode="&#xfbbe;" d="M180 -128q0 22 22 22q9 0 15 -6t6 -16q0 -9 -6 -15.5t-15 -6.5q-10 0 -16 6.5t-6 15.5zM180 -235q0 22 22 22q9 0 15 -6t6 -16q0 -9 -6 -15.5t-15 -6.5q-10 0 -16 6.5t-6 15.5z" />
<glyph unicode="&#xfd3e;" horiz-adv-x="440" d="M231 131q24 -200 108 -362l-11 -6q-111 206 -134 367q-41 5 -67.5 35t-26.5 72q0 41 26.5 71t66.5 36q21 160 135 372l11 -6q-84 -158 -109 -367q36 -7 60.5 -38t24.5 -68q0 -38 -23.5 -68t-60.5 -38zM206 345h5h7q11 101 38 186h-1q-39 -104 -49 -186zM208 141 q39 0 67 28t28 68t-28 68t-67 28q-40 0 -68 -28t-28 -68t28 -68t68 -28zM176 207q-23 23 -56 30q33 10 57 31q22 19 31 58q9 -39 31 -58q23 -22 57 -31q-33 -7 -56 -30t-32 -58q-9 35 -32 58zM184 291l-31 -31l-4 36zM266 295l-3 -36l-32 32zM187 238q0 -9 6 -15t15 -6t15 6 t6 15t-6 15t-15 6t-15 -6t-6 -15zM150 179l4 36l32 -32zM231 182l31 31l6 -35zM219 129h-10h-2q10 -78 47 -178h1q-26 84 -36 178z" />
<glyph unicode="&#xfd3f;" horiz-adv-x="440" d="M246 130q-23 -161 -134 -367l-11 6q84 162 108 362q-37 8 -60.5 38t-23.5 68q0 37 24.5 68t60.5 38q-25 209 -109 367l11 6q114 -212 135 -372q40 -6 66.5 -36t26.5 -71q0 -42 -26.5 -72t-67.5 -35zM222 345h7h5q-10 82 -49 186h-1q27 -85 38 -186zM328 237q0 40 -28 68 t-68 28q-39 0 -67 -28t-28 -68t28 -68t67 -28q40 0 68 28t28 68zM320 237q-33 -7 -56 -30t-32 -58q-9 35 -32 58t-56 30q34 9 57 31q22 19 31 58q9 -39 31 -58q24 -21 57 -31zM291 296l-4 -36l-31 31zM209 291l-32 -32l-3 36zM253 238q0 9 -6 15t-15 6t-15 -6t-6 -15t6 -15 t15 -6t15 6t6 15zM254 183l32 32l4 -36zM172 178l6 35l31 -31zM233 129h-2h-10q-10 -94 -36 -178h1q37 100 47 178z" />
<glyph horiz-adv-x="668" d="M545 500h13v-500h-13v79q-80 -89 -200 -89q-107 -2 -187 76t-78 184q-2 106 78 184t187 76q120 0 200 -89v79zM545 98v304q-81 96 -199 96q-103 2 -179 -73t-74 -175q-2 -100 74 -175t179 -73q118 0 199 96z" />
<glyph horiz-adv-x="668" d="M545 500h13v-500h-13v79q-80 -89 -200 -89q-107 -2 -187 76t-78 184q-2 106 78 184t187 76q120 0 200 -89v79zM545 98v304q-81 96 -199 96q-103 2 -179 -73t-74 -175q-2 -100 74 -175t179 -73q118 0 199 96zM423 710l-109 -145h-15l103 145h21z" />
<glyph horiz-adv-x="668" d="M545 500h13v-500h-13v79q-80 -89 -200 -89q-107 -2 -187 76t-78 184q-2 106 78 184t187 76q120 0 200 -89v79zM545 98v304q-81 96 -199 96q-103 2 -179 -73t-74 -175q-2 -100 74 -175t179 -73q118 0 199 96zM342 576q-64 0 -104 34t-44 93l14 1q4 -54 40 -84.5t94 -30.5 t93.5 30.5t39.5 84.5l14 -1q-4 -59 -44 -93t-103 -34z" />
<glyph horiz-adv-x="668" d="M545 500h13v-500h-13v79q-80 -89 -200 -89q-107 -2 -187 76t-78 184q-2 106 78 184t187 76q120 0 200 -89v79zM545 98v304q-81 96 -199 96q-103 2 -179 -73t-74 -175q-2 -100 74 -175t179 -73q118 0 199 96zM350 710l120 -145h-15l-114 135l-113 -135h-15l120 145h17z " />
<glyph horiz-adv-x="668" d="M545 500h13v-500h-13v79q-80 -89 -200 -89q-107 -2 -187 76t-78 184q-2 106 78 184t187 76q120 0 200 -89v79zM545 98v304q-81 96 -199 96q-103 2 -179 -73t-74 -175q-2 -100 74 -175t179 -73q118 0 199 96zM260 648q0 -14 -13 -14q-14 0 -14 14q0 13 14 13q13 0 13 -13z M449 648q0 -14 -14 -14q-13 0 -13 14q0 13 13 13q14 0 14 -13z" />
<glyph horiz-adv-x="668" d="M545 500h13v-500h-13v79q-80 -89 -200 -89q-107 -2 -187 76t-78 184q-2 106 78 184t187 76q120 0 200 -89v79zM545 98v304q-81 96 -199 96q-103 2 -179 -73t-74 -175q-2 -100 74 -175t179 -73q118 0 199 96zM280 710l103 -145h-15l-109 145h21z" />
<glyph horiz-adv-x="668" d="M545 500h13v-500h-13v79q-80 -89 -200 -89q-107 -2 -187 76t-78 184q-2 106 78 184t187 76q120 0 200 -89v79zM545 98v304q-81 96 -199 96q-103 2 -179 -73t-74 -175q-2 -100 74 -175t179 -73q118 0 199 96zM468 654v-12h-254v12h254z" />
<glyph horiz-adv-x="668" d="M651 -162l9 -10q-34 -31 -79 -31q-42 0 -70 24.5t-28 63.5t40 88l22 27v79q-80 -89 -200 -89q-107 -2 -187 76t-78 184q-2 106 78 184t187 76q120 0 200 -89v79h13v-500l-29 -36q-32 -40 -32 -79q0 -33 24 -54t60 -21q39 0 70 28zM545 98v304q-81 96 -199 96 q-103 2 -179 -73t-74 -175q-2 -100 74 -175t179 -73q118 0 199 96z" />
<glyph horiz-adv-x="668" d="M545 500h13v-500h-13v79q-80 -89 -200 -89q-107 -2 -187 76t-78 184q-2 106 78 184t187 76q120 0 200 -89v79zM545 98v304q-81 96 -199 96q-103 2 -179 -73t-74 -175q-2 -100 74 -175t179 -73q118 0 199 96zM449 645q0 -42 -32 -74q-31 -31 -75 -31q-45 0 -76.5 30.5 t-31.5 74.5t31.5 74.5t76.5 30.5q44 0 75 -31q32 -32 32 -74zM248 645q0 -38 27.5 -65t66.5 -27q38 0 65.5 27t27.5 65t-27.5 65t-65.5 27q-39 0 -66.5 -27t-27.5 -65z" />
<glyph horiz-adv-x="668" d="M545 500h13v-500h-13v79q-80 -89 -200 -89q-107 -2 -187 76t-78 184q-2 106 78 184t187 76q120 0 200 -89v79zM545 98v304q-81 96 -199 96q-103 2 -179 -73t-74 -175q-2 -100 74 -175t179 -73q118 0 199 96zM260 700q32 0 86 -39q50 -36 77 -36q26 0 44.5 18.5t23.5 51.5 l14 -2q-7 -37 -29.5 -59.5t-52.5 -22.5q-33 0 -85 39q-50 36 -78 36q-26 0 -44.5 -18.5t-23.5 -51.5l-14 2q7 37 29.5 59.5t52.5 22.5z" />
<glyph horiz-adv-x="1124" d="M1049 250v-12h-491q3 -95 77 -166.5t167 -69.5q113 0 200 82l9 -8q-86 -86 -209 -86q-83 0 -151 50q-67 49 -93 128v-168h-13v79q-80 -89 -200 -89q-107 -2 -187 76t-78 184q-2 106 78 184t187 76q120 0 200 -89v79h13v-167q25 78 91 127q67 50 148 50q114 0 183 -74 t69 -186zM545 98v304q-81 96 -199 96q-103 2 -179 -73t-74 -175q-2 -100 74 -175t179 -73q118 0 199 96zM558 250h478q0 107 -65.5 177.5t-173.5 70.5q-95 2 -168 -73t-71 -175z" />
<glyph horiz-adv-x="1084" d="M962 84l9 -8q-86 -86 -209 -86q-65 0 -122 31.5t-93 85.5q-57 -56 -126.5 -86.5t-133.5 -30.5q-101 0 -159 44t-58 119q0 72 53.5 110.5t151.5 38.5h230v21q0 84 -49.5 129.5t-141.5 45.5q-110 0 -199 -71l-8 10q94 73 209 73q94 0 146.5 -46t55.5 -132q25 79 91 128 q67 50 148 50q100 0 167 -59q66 -59 81 -151l-471 -136q25 -72 89 -117q63 -45 139 -45q113 0 200 82zM518 250q0 -39 12 -75l460 134q-16 85 -78.5 137t-154.5 52q-95 2 -168 -73t-71 -175zM541 117q-36 62 -36 133v40h-230q-92 0 -141.5 -35.5t-49.5 -101.5q0 -69 54 -110 t149 -41q62 0 130 30t124 85z" />
<glyph horiz-adv-x="1124" d="M1002 84l9 -8q-86 -86 -209 -86q-83 0 -151 50q-67 49 -93 128v-168h-13v79q-80 -89 -200 -89q-107 -2 -187 76t-78 184q-2 106 78 184t187 76q120 0 200 -89v79h13v-167q25 78 91 127q67 50 148 50q100 0 167 -59q66 -59 81 -151l-471 -136q25 -72 89 -117 q63 -45 139 -45q113 0 200 82zM545 98v304q-81 96 -199 96q-103 2 -179 -73t-74 -175q-2 -100 74 -175t179 -73q118 0 199 96zM558 250q0 -39 12 -75l460 134q-16 85 -78.5 137t-154.5 52q-95 2 -168 -73t-71 -175z" />
<glyph horiz-adv-x="659" d="M537 84l9 -8q-86 -86 -209 -86q-103 -2 -181.5 76.5t-75.5 183.5q-2 105 74 183.5t178 76.5q100 0 167 -59q66 -59 81 -151l-471 -136q25 -72 89 -117q63 -45 139 -45q113 0 200 82zM93 250q0 -39 12 -75l460 134q-16 85 -78.5 137t-154.5 52q-95 2 -168 -73t-71 -175z " />
<glyph horiz-adv-x="659" d="M537 84l9 -8q-86 -86 -209 -86q-103 -2 -181.5 76.5t-75.5 183.5q-2 105 74 183.5t178 76.5q100 0 167 -59q66 -59 81 -151l-471 -136q25 -72 89 -117q63 -45 139 -45q113 0 200 82zM93 250q0 -39 12 -75l460 134q-16 85 -78.5 137t-154.5 52q-95 2 -168 -73t-71 -175z M412 710l-109 -145h-15l103 145h21z" />
<glyph horiz-adv-x="659" d="M537 84l9 -8q-86 -86 -209 -86q-103 -2 -181.5 76.5t-75.5 183.5q-2 105 74 183.5t178 76.5q100 0 167 -59q66 -59 81 -151l-471 -136q25 -72 89 -117q63 -45 139 -45q113 0 200 82zM93 250q0 -39 12 -75l460 134q-16 85 -78.5 137t-154.5 52q-95 2 -168 -73t-71 -175z M331 576q-64 0 -104 34t-44 93l14 1q4 -54 40 -84.5t94 -30.5t93.5 30.5t39.5 84.5l14 -1q-4 -59 -44 -93t-103 -34z" />
<glyph horiz-adv-x="659" d="M537 84l9 -8q-86 -86 -209 -86q-103 -2 -181.5 76.5t-75.5 183.5q-2 105 74 183.5t178 76.5q100 0 167 -59q66 -59 81 -151l-471 -136q25 -72 89 -117q63 -45 139 -45q113 0 200 82zM93 250q0 -39 12 -75l460 134q-16 85 -78.5 137t-154.5 52q-95 2 -168 -73t-71 -175z M459 710l-120 -145h-17l-120 145h15l113 -135l114 135h15z" />
<glyph horiz-adv-x="659" d="M537 84l9 -8q-86 -86 -209 -86q-103 -2 -181.5 76.5t-75.5 183.5q-2 105 74 183.5t178 76.5q100 0 167 -59q66 -59 81 -151l-471 -136q25 -72 89 -117q63 -45 139 -45q113 0 200 82zM93 250q0 -39 12 -75l460 134q-16 85 -78.5 137t-154.5 52q-95 2 -168 -73t-71 -175z M339 710l120 -145h-15l-114 135l-113 -135h-15l120 145h17z" />
<glyph horiz-adv-x="659" d="M537 84l9 -8q-86 -86 -209 -86q-103 -2 -181.5 76.5t-75.5 183.5q-2 105 74 183.5t178 76.5q100 0 167 -59q66 -59 81 -151l-471 -136q25 -72 89 -117q63 -45 139 -45q113 0 200 82zM93 250q0 -39 12 -75l460 134q-16 85 -78.5 137t-154.5 52q-95 2 -168 -73t-71 -175z M249 648q0 -14 -13 -14q-14 0 -14 14q0 13 14 13q13 0 13 -13zM438 648q0 -14 -14 -14q-13 0 -13 14q0 13 13 13q14 0 14 -13z" />
<glyph horiz-adv-x="659" d="M537 84l9 -8q-86 -86 -209 -86q-103 -2 -181.5 76.5t-75.5 183.5q-2 105 74 183.5t178 76.5q100 0 167 -59q66 -59 81 -151l-471 -136q25 -72 89 -117q63 -45 139 -45q113 0 200 82zM93 250q0 -39 12 -75l460 134q-16 85 -78.5 137t-154.5 52q-95 2 -168 -73t-71 -175z M269 710l103 -145h-15l-109 145h21z" />
<glyph horiz-adv-x="659" d="M546 -164l9 -10q-34 -31 -79 -31q-42 0 -70 24.5t-28 63.5q0 44 35 87l34 41q-51 -21 -110 -21q-103 -2 -181.5 76.5t-75.5 183.5q-2 105 74 183.5t178 76.5q100 0 167 -59q66 -59 81 -151l-471 -136q25 -72 89 -117q63 -45 139 -45q113 0 200 82l9 -8q-35 -33 -71 -52 l-51 -62q-32 -41 -32 -79q0 -33 24 -54t60 -21q39 0 70 28zM93 250q0 -39 12 -75l460 134q-16 85 -78.5 137t-154.5 52q-95 2 -168 -73t-71 -175z" />
<glyph horiz-adv-x="668" d="M613 -94q0 -66 -76 -105q-75 -39 -203 -39t-203.5 39t-75.5 104q0 84 115 123q-66 25 -66 72q0 49 63 86q-85 53 -85 143q0 79 67 130t171 51q49 0 83 -10h190v-12h-153q55 -24 86.5 -65.5t31.5 -94.5q0 -78 -67.5 -129.5t-170.5 -51.5q-78 0 -140 32q-29 -15 -46 -36.5 t-17 -42.5q0 -42 74 -66q65 17 145 17q127 0 202 -39t75 -106zM320 159q97 0 161 48t64 122q0 72 -64 120.5t-161 48.5t-161 -48.5t-64 -120.5q0 -74 64 -122t161 -48zM600 -94q0 62 -70.5 97.5t-193.5 35.5t-195.5 -36.5t-72.5 -97.5t71.5 -96t194.5 -35q122 0 194 35.5 t72 96.5z" />
<glyph horiz-adv-x="668" d="M613 -94q0 -66 -76 -105q-75 -39 -203 -39t-203.5 39t-75.5 104q0 84 115 123q-66 25 -66 72q0 49 63 86q-85 53 -85 143q0 79 67 130t171 51q49 0 83 -10h190v-12h-153q55 -24 86.5 -65.5t31.5 -94.5q0 -78 -67.5 -129.5t-170.5 -51.5q-78 0 -140 32q-29 -15 -46 -36.5 t-17 -42.5q0 -42 74 -66q65 17 145 17q127 0 202 -39t75 -106zM320 159q97 0 161 48t64 122q0 72 -64 120.5t-161 48.5t-161 -48.5t-64 -120.5q0 -74 64 -122t161 -48zM600 -94q0 62 -70.5 97.5t-193.5 35.5t-195.5 -36.5t-72.5 -97.5t71.5 -96t194.5 -35q122 0 194 35.5 t72 96.5zM327 576q-64 0 -104 34t-44 93l14 1q4 -54 40 -84.5t94 -30.5t93.5 30.5t39.5 84.5l14 -1q-4 -59 -44 -93t-103 -34z" />
<glyph horiz-adv-x="668" d="M613 -94q0 -66 -76 -105q-75 -39 -203 -39t-203.5 39t-75.5 104q0 84 115 123q-66 25 -66 72q0 49 63 86q-85 53 -85 143q0 79 67 130t171 51q49 0 83 -10h190v-12h-153q55 -24 86.5 -65.5t31.5 -94.5q0 -78 -67.5 -129.5t-170.5 -51.5q-78 0 -140 32q-29 -15 -46 -36.5 t-17 -42.5q0 -42 74 -66q65 17 145 17q127 0 202 -39t75 -106zM320 159q97 0 161 48t64 122q0 72 -64 120.5t-161 48.5t-161 -48.5t-64 -120.5q0 -74 64 -122t161 -48zM600 -94q0 62 -70.5 97.5t-193.5 35.5t-195.5 -36.5t-72.5 -97.5t71.5 -96t194.5 -35q122 0 194 35.5 t72 96.5zM335 710l120 -145h-15l-114 135l-113 -135h-15l120 145h17z" />
<glyph horiz-adv-x="668" d="M613 -94q0 -66 -76 -105q-75 -39 -203 -39t-203.5 39t-75.5 104q0 84 115 123q-66 25 -66 72q0 49 63 86q-85 53 -85 143q0 79 67 130t171 51q49 0 83 -10h190v-12h-153q55 -24 86.5 -65.5t31.5 -94.5q0 -78 -67.5 -129.5t-170.5 -51.5q-78 0 -140 32q-29 -15 -46 -36.5 t-17 -42.5q0 -42 74 -66q65 17 145 17q127 0 202 -39t75 -106zM320 159q97 0 161 48t64 122q0 72 -64 120.5t-161 48.5t-161 -48.5t-64 -120.5q0 -74 64 -122t161 -48zM600 -94q0 62 -70.5 97.5t-193.5 35.5t-195.5 -36.5t-72.5 -97.5t71.5 -96t194.5 -35q122 0 194 35.5 t72 96.5zM305 610q0 4 3 12l40 95l9 -4l-31 -89q9 -4 9 -14q0 -15 -15 -15t-15 15z" />
<glyph horiz-adv-x="668" d="M613 -94q0 -66 -76 -105q-75 -39 -203 -39t-203.5 39t-75.5 104q0 84 115 123q-66 25 -66 72q0 49 63 86q-85 53 -85 143q0 79 67 130t171 51q49 0 83 -10h190v-12h-153q55 -24 86.5 -65.5t31.5 -94.5q0 -78 -67.5 -129.5t-170.5 -51.5q-78 0 -140 32q-29 -15 -46 -36.5 t-17 -42.5q0 -42 74 -66q65 17 145 17q127 0 202 -39t75 -106zM320 159q97 0 161 48t64 122q0 72 -64 120.5t-161 48.5t-161 -48.5t-64 -120.5q0 -74 64 -122t161 -48zM600 -94q0 62 -70.5 97.5t-193.5 35.5t-195.5 -36.5t-72.5 -97.5t71.5 -96t194.5 -35q122 0 194 35.5 t72 96.5zM340 648q0 -14 -13 -14q-14 0 -14 14q0 13 14 13q13 0 13 -13z" />
<glyph horiz-adv-x="253" d="M133 500v-500h-13v500h13zM144 648q0 -14 -13 -14q-14 0 -14 14q0 13 14 13q13 0 13 -13z" />
<glyph horiz-adv-x="294" d="M110 81v619h13v-619q0 -37 18.5 -58t51.5 -21q32 0 58 18l5 -11q-28 -19 -63 -19q-83 0 -83 91z" />
<glyph horiz-adv-x="294" d="M110 81v619h13v-619q0 -37 18.5 -58t51.5 -21q32 0 58 18l5 -11q-28 -19 -63 -19q-83 0 -83 91zM199 910l-109 -145h-15l103 145h21z" />
<glyph horiz-adv-x="294" d="M110 81v619h13v-619q0 -37 18.5 -58t51.5 -21q32 0 58 18l5 -11q-28 -19 -63 -19q-83 0 -83 91zM301 703q0 -7 -4 -15l-39 -93l-9 4l31 89q-9 3 -9 14q0 15 15 15t15 -14z" />
<glyph horiz-adv-x="294" d="M110 81v619h13v-619q0 -37 18.5 -58t51.5 -21q32 0 58 18l5 -11q-28 -19 -63 -19q-83 0 -83 91zM201 -98q0 -4 -3 -12l-40 -95l-9 4l31 89q-9 4 -9 14q0 15 15 15t15 -15z" />
<glyph horiz-adv-x="294" d="M110 81v619h13v-619q0 -37 18.5 -58t51.5 -21q32 0 58 18l5 -11q-28 -19 -63 -19q-83 0 -83 91zM303 365q0 -15 -15 -15t-15 15t15 15t15 -15z" />
<glyph horiz-adv-x="294" d="M251 20l5 -11q-28 -19 -63 -19q-83 0 -83 91v268l-123 -100v17l123 100v334h13v-324l122 99v-17l-122 -99v-278q0 -37 18.5 -58t51.5 -21q32 0 58 18z" />
<glyph horiz-adv-x="1176" d="M1054 84l9 -8q-86 -86 -209 -86q-90 0 -160.5 57t-90.5 145q-20 -87 -92.5 -144.5t-165.5 -57.5q-107 -2 -187 76t-78 184q-2 106 78 184t187 76q93 0 165.5 -57t92.5 -145q20 88 88.5 145t157.5 57q100 0 167 -59q66 -59 81 -151l-471 -136q25 -72 89 -117 q63 -45 139 -45q113 0 200 82zM597 250q2 100 -74.5 175t-177.5 73q-101 2 -177.5 -73t-74.5 -175q-2 -100 74.5 -175t177.5 -73q101 -2 177.5 73t74.5 175zM610 250q0 -39 12 -75l460 134q-16 85 -78.5 137t-154.5 52q-95 2 -168 -73t-71 -175z" />
<glyph horiz-adv-x="1258" d="M1158 308v-308h-13v308q0 90 -48.5 140t-137.5 50q-66 0 -132.5 -27t-117.5 -75v-396h-13v687h-368v-687h-14v687h-264v13h659v-287q112 97 250 97q94 0 146.5 -53.5t52.5 -148.5z" />
<glyph horiz-adv-x="1301" d="M1201 308v-308h-13v308q0 90 -48.5 140t-137.5 50q-66 0 -132.5 -27t-117.5 -75v-396h-13v693q-78 27 -180 27q-83 0 -131.5 -36t-48.5 -99q0 -47 29 -82q77 -19 133 -78l-10 -8q-75 81 -186 81q-101 2 -177.5 -73t-74.5 -175q-2 -100 74.5 -175t177.5 -73q118 0 194 90 l10 -8q-81 -94 -204 -94q-107 -2 -187 76t-78 184q-2 106 78 184t187 76q28 0 45 -4q-24 34 -24 79q0 68 52.5 107.5t140.5 39.5q103 0 193 -32v-287q112 97 250 97q94 0 146.5 -53.5t52.5 -148.5z" />
<glyph horiz-adv-x="1054" d="M998 21l6 -11q-42 -20 -81 -20q-70 0 -116.5 48t-46.5 125v325h-106v12h106v69q0 151 -201 151q-85 0 -136 -36t-51 -98q0 -40 36 -84q77 -18 133 -77l-10 -8q-75 81 -186 81q-101 2 -177.5 -73t-74.5 -175q-2 -100 74.5 -175t177.5 -73q118 0 194 90l10 -8 q-81 -94 -204 -94q-107 -2 -187 76t-78 184q-2 106 78 184t187 76q27 0 44 -4q-30 40 -30 80q0 69 54.5 107.5t145.5 38.5q214 0 214 -163v-69h182v-12h-182v-325q0 -72 43 -116.5t107 -44.5q38 0 75 19z" />
<glyph horiz-adv-x="1062" d="M982 250q2 -106 -78 -184t-187 -76q-119 0 -200 89v-79h-13v688h-159q-24 10 -54 10q-64 0 -107.5 -45t-43.5 -116v-37h191v-12h-191v-488h-13v488h-97v12h97v37q0 77 47 125t117 48q32 0 58 -10h168v-279q81 89 200 89q107 2 187 -76t78 -184zM969 250q2 100 -74.5 175 t-177.5 73q-119 0 -200 -96v-304q81 -96 200 -96q101 -2 177.5 73t74.5 175z" />
<glyph horiz-adv-x="1050" d="M349 700l-4 -12q-24 10 -64 10q-66 0 -103.5 -39.5t-37.5 -111.5v-47h381v47q0 77 41.5 120t112.5 43q42 0 68 -10l-4 -12q-24 10 -64 10q-66 0 -103.5 -39.5t-37.5 -111.5v-47h399v-533q0 -76 -46.5 -124t-115.5 -48q-29 0 -53 8l4 11q21 -7 49 -7q63 0 106 44.5 t43 115.5v521h-386v-488h-13v488h-381v-488h-13v488h-97v12h97v47q0 77 41.5 120t112.5 43q42 0 68 -10zM940 647q0 -14 -14 -14t-14 14t14 14t14 -14z" />
<glyph horiz-adv-x="1087" d="M1044 20l5 -11q-28 -19 -63 -19q-83 0 -83 91v607h-164q-24 10 -64 10q-66 0 -103.5 -39.5t-37.5 -111.5v-47h191v-12h-191v-488h-13v488h-381v-488h-13v488h-97v12h97v47q0 77 41.5 120t112.5 43q42 0 68 -10l-4 -12q-24 10 -64 10q-66 0 -103.5 -39.5t-37.5 -111.5v-47 h381v47q0 77 41.5 120t112.5 43q42 0 66 -10h175v-619q0 -37 18.5 -58t51.5 -21q32 0 58 18z" />
<glyph horiz-adv-x="1071" d="M347 700h175v-288q114 98 259 98q88 0 139 -53.5t51 -148.5v-308h-13v308q0 90 -47.5 140t-129.5 50q-151 0 -259 -102v-396h-13v688h-164q-24 10 -64 10q-66 0 -103.5 -39.5t-37.5 -111.5v-47h191v-12h-191v-488h-13v488h-97v12h97v47q0 77 41.5 120t112.5 43 q42 0 66 -10z" />
<glyph horiz-adv-x="656" d="M349 700l-4 -12q-24 10 -64 10q-66 0 -103.5 -39.5t-37.5 -111.5v-47h399v-533q0 -76 -46.5 -124t-115.5 -48q-29 0 -53 8l4 11q21 -7 49 -7q63 0 106 44.5t43 115.5v521h-386v-488h-13v488h-97v12h97v47q0 77 41.5 120t112.5 43q42 0 68 -10zM546 647q0 -14 -14 -14 t-14 14t14 14t14 -14z" />
<glyph horiz-adv-x="980" d="M347 700h175v-551l390 351h19l-202 -182l222 -318h-15l-216 310l-198 -178v-132h-13v688h-164q-24 10 -64 10q-66 0 -103.5 -39.5t-37.5 -111.5v-47h191v-12h-191v-488h-13v488h-97v12h97v47q0 77 41.5 120t112.5 43q42 0 66 -10z" />
<glyph horiz-adv-x="693" d="M650 20l5 -11q-28 -19 -63 -19q-83 0 -83 91v607h-164q-24 10 -64 10q-66 0 -103.5 -39.5t-37.5 -111.5v-47h191v-12h-191v-488h-13v488h-97v12h97v47q0 77 41.5 120t112.5 43q42 0 66 -10h175v-619q0 -37 18.5 -58t51.5 -21q32 0 58 18z" />
<glyph horiz-adv-x="1207" d="M1127 250q2 -106 -78 -184t-187 -76q-58 0 -111 23.5t-89 66.5v-275h-13v784q0 60 -49 95t-131 35t-131 -36t-49 -98q0 -45 27 -81q72 -14 123 -45l-7 -10q-74 49 -180 49q-75 0 -117.5 -31t-42.5 -85q0 -41 31.5 -64.5t118.5 -45.5l71 -19q87 -22 116.5 -49.5 t29.5 -85.5t-52 -93t-139 -35q-58 0 -116 16t-97 43l7 10q85 -57 206 -57q83 0 130.5 31t47.5 85q0 53 -27 77t-110 46l-70 19q-93 26 -126.5 51t-33.5 70q0 60 46.5 94.5t126.5 34.5q24 0 48 -3q-24 35 -24 78q0 68 52.5 107.5t140.5 39.5t140.5 -38.5t52.5 -104.5v-167 q82 88 200 88q107 2 187 -76t78 -184zM1114 250q2 100 -74.5 175t-177.5 73q-124 0 -200 -96v-303q35 -46 88 -71.5t112 -25.5q101 -2 177.5 73t74.5 175z" />
<glyph horiz-adv-x="313" d="M150 0v580h13v-580h-13z" />
<glyph horiz-adv-x="384" d="M384 13h16v-11q0 -2 -16 -2h-1q-120 0 -222 59q-11 6 -11 17v504h13v-507q104 -60 221 -60z" />
<glyph horiz-adv-x="750" d="M670 340q0 -161 -80 -255.5t-215 -94.5t-215 94.5t-80 255.5t80 255.5t215 94.5t215 -94.5t80 -255.5zM94 340q0 -155 75.5 -246t205.5 -91q129 0 205 91t76 246t-76 246t-205 91q-130 0 -205.5 -91t-75.5 -246z" />
<glyph horiz-adv-x="670" d="M600 250q2 -106 -78 -184t-187 -76q-107 -2 -187 76t-78 184q-2 106 78 184t187 76q107 2 187 -76t78 -184zM84 250q-2 -100 74 -174.5t177 -72.5q101 -2 177 72.5t74 174.5q2 100 -74 174.5t-177 72.5q-101 2 -177 -72.5t-74 -174.5z" />
<glyph horiz-adv-x="600" d="M577 340q0 -161 -75 -255.5t-203 -94.5q-126 0 -201.5 94.5t-75.5 255.5t75.5 255.5t201.5 94.5q128 0 203 -94.5t75 -255.5zM35 340q0 -155 71 -246t193 -91q121 0 193 91t72 246t-72 246t-193 91q-122 0 -193 -91t-71 -246z" />
<glyph horiz-adv-x="600" d="M565 250q2 -106 -78 -184t-187 -76q-107 -2 -187 76t-78 184q-2 106 78 184t187 76q107 2 187 -76t78 -184zM49 250q-2 -100 74 -174.5t177 -72.5q101 -2 177 72.5t74 174.5q2 100 -74 174.5t-177 72.5q-101 2 -177 -72.5t-74 -174.5z" />
<glyph horiz-adv-x="328" d="M209 680v-680h-14v667l-145 -33v13l145 33h14z" />
<glyph horiz-adv-x="275" d="M189 500v-500h-14v487l-145 -33v13l145 33h14z" />
<glyph horiz-adv-x="600" d="M369 680v-680h-14v667l-145 -33v13l145 33h14z" />
<glyph horiz-adv-x="600" d="M364 500v-500h-14v487l-145 -33v13l145 33h14z" />
<glyph horiz-adv-x="588" d="M84 13h444v-13h-460v15l303 300q74 72 98 110t24 82q0 76 -56.5 123t-148.5 47q-69 0 -120.5 -30t-95.5 -98l-12 7q88 134 229 134q98 0 158 -51t60 -132q0 -45 -26 -86t-100 -115z" />
<glyph horiz-adv-x="499" d="M63 13h386v-13h-411v10l277 211q59 45 82.5 78t23.5 70q0 60 -48 94t-129 34q-123 0 -198 -95l-10 9q78 99 208 99q86 0 138.5 -38t52.5 -102q0 -40 -25.5 -76t-87.5 -84z" />
<glyph horiz-adv-x="600" d="M90 13h444v-13h-460v15l303 300q74 72 98 110t24 82q0 76 -56.5 123t-148.5 47q-69 0 -120.5 -30t-95.5 -98l-12 7q88 134 229 134q98 0 158 -51t60 -132q0 -45 -26 -86t-100 -115z" />
<glyph horiz-adv-x="600" d="M121 13h386v-13h-411v10l277 211q59 45 82.5 78t23.5 70q0 60 -48 94t-129 34q-123 0 -198 -95l-10 9q78 99 208 99q86 0 138.5 -38t52.5 -102q0 -40 -25.5 -76t-87.5 -84z" />
<glyph horiz-adv-x="609" d="M530 197q0 -92 -69 -149.5t-180 -57.5q-114 0 -221 71l8 11q100 -69 213 -69q105 0 170 53.5t65 139.5q0 78 -55 123.5t-148 45.5q-62 0 -122 -23l-5 12l293 313h-382v13h399v-16l-282 -300q47 14 99 14q99 0 158 -48.5t59 -132.5z" />
<glyph horiz-adv-x="600" d="M530 6q0 -93 -69.5 -152t-179.5 -59q-115 0 -221 73l8 11q102 -71 213 -71q105 0 170 55t65 142q0 81 -55 127t-148 46q-60 0 -120 -23l-5 12l293 320h-384v13h399v-16l-282 -307q47 14 99 14q100 0 158.5 -49.5t58.5 -135.5z" />
<glyph horiz-adv-x="600" d="M535 197q0 -92 -69 -149.5t-180 -57.5q-114 0 -221 71l8 11q101 -69 213 -69q105 0 170 53.5t65 139.5q0 78 -55 123.5t-148 45.5q-62 0 -122 -23l-5 12l293 313h-382v13h399v-16l-282 -300q47 14 99 14q99 0 158 -48.5t59 -132.5z" />
<glyph horiz-adv-x="600" d="M529 6q0 -93 -69.5 -152t-179.5 -59q-115 0 -221 73l8 11q102 -71 213 -71q105 0 170 55t65 142q0 81 -55 127t-148 46q-60 0 -120 -23l-5 12l293 320h-384v13h399v-16l-282 -307q47 14 99 14q100 0 158.5 -49.5t58.5 -135.5z" />
<glyph horiz-adv-x="639" d="M449 228h141v-13h-141v-215h-14v215h-385v16l382 449h17v-452zM65 228h370v435z" />
<glyph horiz-adv-x="600" d="M429 13h141v-13h-141v-195h-14v195h-385v16l382 484h17v-487zM45 13h370v469z" />
<glyph horiz-adv-x="600" d="M429 228h141v-13h-141v-215h-14v215h-385v16l382 449h17v-452zM45 228h370v435z" />
<glyph horiz-adv-x="600" d="M429 13h141v-13h-141v-195h-14v195h-385v16l382 484h17v-487zM45 13h370v469z" />
<glyph horiz-adv-x="608" d="M529 213q0 -95 -73 -159t-184 -64q-130 0 -212 90l10 9q77 -86 200 -86q106 0 175.5 60t69.5 150q0 85 -63 141t-161 56q-120 0 -191 -74l-10 10l7 334h387v-13h-373l-7 -308q76 64 188 64q103 0 170 -59.5t67 -150.5z" />
<glyph horiz-adv-x="600" d="M530 26q2 -97 -73.5 -164.5t-184.5 -66.5q-130 0 -212 93l10 9q77 -89 200 -89q107 0 176.5 62.5t69.5 155.5q0 88 -64 146t-161 58q-120 0 -191 -77l-10 10l7 337h387v-13h-373l-7 -310q79 66 188 66q103 0 170.5 -61.5t67.5 -155.5z" />
<glyph horiz-adv-x="600" d="M534 213q0 -95 -73 -159t-184 -64q-129 0 -212 90l10 9q77 -86 200 -86q106 0 175.5 60t69.5 150q0 85 -63 141t-161 56q-120 0 -191 -74l-10 10l7 334h387v-13h-373l-7 -308q76 64 188 64q103 0 170 -59.5t67 -150.5z" />
<glyph horiz-adv-x="600" d="M535 26q2 -97 -73.5 -164.5t-184.5 -66.5q-129 0 -212 93l10 9q77 -89 200 -89q107 0 176.5 62.5t69.5 155.5q0 88 -64 146t-161 58q-120 0 -191 -77l-10 10l7 337h387v-13h-373l-7 -310q79 66 188 66q103 0 170.5 -61.5t67.5 -155.5z" />
<glyph horiz-adv-x="635" d="M569 216q0 -99 -66 -162.5t-174 -63.5q-122 0 -187 85.5t-65 248.5q0 172 70 269t192 97q113 0 205 -74l-9 -10q-92 71 -196 71q-118 0 -183 -93t-65 -260v-26q30 67 93 103t147 36q106 0 172 -62t66 -159zM555 216q0 93 -61.5 150.5t-162.5 57.5q-88 0 -152 -42 t-86 -116q11 -128 72 -195.5t164 -67.5q100 0 163 61t63 152z" />
<glyph horiz-adv-x="635" d="M569 216q0 -99 -66 -162.5t-174 -63.5q-122 0 -187 85.5t-65 248.5q0 172 70 269t192 97q113 0 205 -74l-9 -10q-92 71 -196 71q-118 0 -183 -93t-65 -260v-26q30 67 93 103t147 36q106 0 172 -62t66 -159zM555 216q0 93 -61.5 150.5t-162.5 57.5q-88 0 -152 -42 t-86 -116q11 -128 72 -195.5t164 -67.5q100 0 163 61t63 152z" />
<glyph horiz-adv-x="600" d="M546 216q0 -99 -66 -162.5t-174 -63.5q-122 0 -187 85.5t-65 248.5q0 172 70 269t192 97q113 0 205 -74l-9 -10q-92 71 -196 71q-118 0 -183 -93t-65 -260v-26q30 67 93 103t147 36q106 0 172 -62t66 -159zM532 216q0 93 -61.5 150.5t-162.5 57.5q-88 0 -152 -42 t-86 -116q11 -128 72 -195.5t164 -67.5q100 0 163 61t63 152z" />
<glyph horiz-adv-x="600" d="M546 216q0 -99 -66 -162.5t-174 -63.5q-122 0 -187 85.5t-65 248.5q0 172 70 269t192 97q113 0 205 -74l-9 -10q-92 71 -196 71q-118 0 -183 -93t-65 -260v-26q30 67 93 103t147 36q106 0 172 -62t66 -159zM532 216q0 93 -61.5 150.5t-162.5 57.5q-88 0 -152 -42 t-86 -116q11 -128 72 -195.5t164 -67.5q100 0 163 61t63 152z" />
<glyph horiz-adv-x="558" d="M50 680h478v-16l-388 -664h-16l390 667h-464v13z" />
<glyph horiz-adv-x="558" d="M50 500h478v-16l-388 -679h-16l390 682h-464v13z" />
<glyph horiz-adv-x="600" d="M61 680h478v-16l-388 -664h-16l390 667h-464v13z" />
<glyph horiz-adv-x="600" d="M61 500h478v-16l-388 -679h-16l390 682h-464v13z" />
<glyph horiz-adv-x="667" d="M587 180q0 -82 -71 -136t-183 -54q-111 0 -182 54t-71 136q0 72 48 121t132 64q-72 15 -113.5 57t-41.5 103q0 71 65 118t163 47t163.5 -47.5t65.5 -117.5q0 -61 -41.5 -103t-114.5 -57q85 -15 133 -64t48 -121zM333 371q97 0 156 41.5t59 112.5q0 65 -61 108.5 t-154 43.5q-92 0 -153 -43.5t-61 -108.5q0 -72 59 -113q61 -41 155 -41zM573 180q0 82 -64.5 129.5t-175.5 48.5q-46 0 -102 -14q-54 -14 -96 -54q-41 -39 -41 -110q0 -76 66.5 -126.5t172.5 -50.5t173 50t67 127z" />
<glyph horiz-adv-x="667" d="M587 180q0 -82 -71 -136t-183 -54q-111 0 -182 54t-71 136q0 72 48 121t132 64q-72 15 -113.5 57t-41.5 103q0 71 65 118t163 47t163.5 -47.5t65.5 -117.5q0 -61 -41.5 -103t-114.5 -57q85 -15 133 -64t48 -121zM333 371q97 0 156 41.5t59 112.5q0 65 -61 108.5 t-154 43.5q-92 0 -153 -43.5t-61 -108.5q0 -72 59 -113q61 -41 155 -41zM573 180q0 82 -64.5 129.5t-175.5 48.5q-46 0 -102 -14q-54 -14 -96 -54q-41 -39 -41 -110q0 -76 66.5 -126.5t172.5 -50.5t173 50t67 127z" />
</font>
</defs>
</svg>
